<?xml version="1.0" encoding="UTF-8" standalone="no"?><!DOCTYPE svg PUBLIC "-//W3C//DTD SVG 1.1//EN" "http://www.w3.org/Graphics/SVG/1.1/DTD/svg11.dtd"><svg width="100%" height="100%" viewBox="0 0 125 125" version="1.1" xmlns="http://www.w3.org/2000/svg" xmlns:xlink="http://www.w3.org/1999/xlink" xml:space="preserve" xmlns:serif="http://www.serif.com/" style="fill-rule:evenodd;clip-rule:evenodd;stroke-linejoin:round;stroke-miterlimit:2;"><g><g><path d="M14.397,64.063c-0.835,0.673 -1.71,1.36 -2.634,2.063c-3.553,2.701 -7.885,4.223 -11.763,5.08l0,9.317c5.164,-0.996 11.309,-2.973 16.459,-6.889c1.618,-1.23 3.083,-2.406 4.447,-3.541l-6.509,-6.031Z" style="fill:#f5811f;fill-rule:nonzero;"/><path d="M14.398,60.925l6.508,-6.03c-1.365,-1.134 -2.831,-2.311 -4.448,-3.54c-5.149,-3.915 -11.295,-5.893 -16.458,-6.89l-0,9.317c3.877,0.857 8.209,2.379 11.762,5.08c0.924,0.702 1.799,1.389 2.636,2.063l-0,0Z" style="fill:#90c842;fill-rule:nonzero;"/><path d="M22.485,56.559l-6.358,5.936l6.358,5.936c2.253,-1.929 6.162,-5.774 6.337,-5.936c-0.175,-0.161 -4.084,-4.006 -6.337,-5.936Z" style="fill:#30abe2;fill-rule:nonzero;"/><path d="M54.72,64.544l-8.268,0c-4.169,0 -6.322,1.875 -6.322,5.071c0,3.197 2.015,5.003 6.461,5.003c2.71,0 4.725,-0.208 6.601,-2.015c1.042,-1.042 1.528,-2.71 1.528,-5.211l0,-2.848Zm0.139,15.563l0,-3.196c-2.571,2.571 -5.003,3.612 -9.38,3.612c-4.377,0 -7.295,-1.041 -9.449,-3.196c-1.807,-1.876 -2.779,-4.585 -2.779,-7.573c0,-5.906 4.099,-10.144 12.159,-10.144l9.31,0l0,-2.501c0,-4.446 -2.223,-6.6 -7.712,-6.6c-3.891,0 -5.767,0.903 -7.712,3.404l-4.655,-4.377c3.335,-3.89 6.809,-5.072 12.645,-5.072c9.658,0 14.521,4.1 14.521,12.089l0,23.553l-6.948,0Z" style="fill:#00164d;fill-rule:nonzero;"/><path d="M65.456,80.087l0,-5.702l15.806,-15.373c1.571,-1.571 2.16,-2.645 2.16,-4.298c0,-2.727 -1.865,-4.545 -5.203,-4.545c-2.651,0 -5.203,1.074 -5.203,4.545l-7.559,0c0,-6.364 5.498,-10.249 12.763,-10.249c7.363,0 12.762,3.885 12.762,10.249c0,3.389 -1.669,5.29 -4.516,8.1l-11.879,11.571l18.309,-0.087l-3.588,5.837l-23.851,-0.048l-0.001,-0Z" style="fill:#00164d;fill-rule:nonzero;"/><path d="M116.284,80.135l-7.365,-12.171l-7.434,12.171l-8.546,0l12.089,-18.222l-11.603,-17.448l8.546,0l6.947,11.608l6.879,-11.608l8.546,0l-11.534,17.448l12.02,18.222l-8.546,0l0,0Z" style="fill:#00164d;fill-rule:nonzero;"/></g></g></svg>