<?xml version="1.0" encoding="UTF-8" standalone="no"?><!DOCTYPE svg PUBLIC "-//W3C//DTD SVG 1.1//EN" "http://www.w3.org/Graphics/SVG/1.1/DTD/svg11.dtd"><svg width="100%" height="100%" viewBox="0 0 521 521" version="1.1" xmlns="http://www.w3.org/2000/svg" xmlns:xlink="http://www.w3.org/1999/xlink" xml:space="preserve" xmlns:serif="http://www.serif.com/" style="fill-rule:evenodd;clip-rule:evenodd;stroke-linejoin:round;stroke-miterlimit:2;"><g><g><path d="M60.008,267.016c-3.482,2.805 -7.126,5.668 -10.978,8.6c-14.81,11.258 -32.865,17.601 -49.03,21.173l0,38.834c21.523,-4.153 47.135,-12.392 68.601,-28.712c6.745,-5.125 12.852,-10.03 18.537,-14.758l-27.13,-25.137Z" style="fill:#f5811f;fill-rule:nonzero;"/><path d="M60.011,253.934l27.127,-25.134c-5.688,-4.725 -11.8,-9.632 -18.541,-14.755c-21.46,-16.316 -47.078,-24.563 -68.596,-28.716l0,38.834c16.161,3.57 34.216,9.915 49.026,21.173c3.852,2.928 7.5,5.79 10.985,8.597Z" style="fill:#90c842;fill-rule:nonzero;"/><path d="M93.719,235.736l-26.501,24.74l26.501,24.74c9.391,-8.039 25.684,-24.064 26.414,-24.74c-0.73,-0.671 -17.023,-16.698 -26.414,-24.74Z" style="fill:#30abe2;fill-rule:nonzero;"/><path d="M228.07,269.02l-34.46,0c-17.375,0 -26.352,7.817 -26.352,21.138c0,13.325 8.398,20.851 26.931,20.851c11.296,0 19.693,-0.867 27.513,-8.398c4.343,-4.341 6.369,-11.294 6.369,-21.72l0,-11.871Zm0.58,64.867l0,-13.32c-10.715,10.716 -20.851,15.056 -39.094,15.056c-18.244,0 -30.407,-4.34 -39.384,-13.32c-7.53,-7.818 -11.583,-19.111 -11.583,-31.564c0,-24.615 17.084,-42.28 50.677,-42.28l38.804,0l0,-10.426c0,-18.532 -9.266,-27.508 -32.143,-27.508c-16.217,0 -24.036,3.763 -32.143,14.189l-19.403,-18.244c13.899,-16.215 28.379,-21.141 52.704,-21.141c40.253,0 60.524,17.087 60.524,50.388l0,98.17l-28.959,0Z" style="fill:#00164d;fill-rule:nonzero;"/><path d="M272.822,333.803l0,-23.767l65.879,-64.074c6.546,-6.548 9.002,-11.024 9.002,-17.916c0,-11.365 -7.774,-18.945 -21.686,-18.945c-11.048,0 -21.687,4.476 -21.687,18.945l-31.507,0c0,-26.524 22.914,-42.716 53.195,-42.716c30.689,0 53.194,16.192 53.194,42.716c0,14.125 -6.957,22.047 -18.823,33.761l-49.511,48.229l76.312,-0.364l-14.955,24.329l-99.41,-0.198Z" style="fill:#00164d;fill-rule:nonzero;"/><path d="M484.672,334.001l-30.698,-50.73l-30.984,50.73l-35.62,0l50.388,-75.949l-48.361,-72.723l35.619,0l28.957,48.382l28.67,-48.382l35.62,0l-48.072,72.723l50.098,75.949l-35.619,0Z" style="fill:#00164d;fill-rule:nonzero;"/></g></g></svg>