<?xml version="1.0" encoding="UTF-8" standalone="no"?>
<!DOCTYPE svg PUBLIC "-//W3C//DTD SVG 1.1//EN" "http://www.w3.org/Graphics/SVG/1.1/DTD/svg11.dtd">
<svg width="100%" height="100%" viewBox="0 0 800 800" version="1.1" xmlns="http://www.w3.org/2000/svg" xmlns:xlink="http://www.w3.org/1999/xlink" xml:space="preserve" xmlns:serif="http://www.serif.com/" style="fill-rule:evenodd;clip-rule:evenodd;stroke-linejoin:round;stroke-miterlimit:2;">
    <g transform="matrix(0.264583,0,0,0.264583,0,0)">
        <g id="layer1">
            <path id="path929" d="M1511.44,94.119C938.533,94.119 472.257,560.582 472.256,1133.49C472.256,2141.56 1452.94,2907.91 1452.94,2907.91C1487.39,2935.35 1536.23,2935.35 1570.68,2907.91C1570.68,2907.91 2551.55,2141.56 2551.55,1133.49C2551.55,560.582 2084.35,94.119 1511.44,94.119ZM1511.44,661.233C1771.24,661.233 1984.44,873.687 1984.44,1133.49C1984.44,1393.29 1771.25,1606.3 1511.44,1606.3C1251.64,1606.3 1039.18,1393.29 1039.19,1133.49C1039.19,873.687 1251.64,661.233 1511.44,661.233Z" style="fill:rgb(1,55,125);fill-rule:nonzero;"/>
        </g>
    </g>
</svg>
