<?xml version="1.0" encoding="UTF-8" standalone="no"?>
<!DOCTYPE svg PUBLIC "-//W3C//DTD SVG 1.1//EN" "http://www.w3.org/Graphics/SVG/1.1/DTD/svg11.dtd">
<svg width="100%" height="100%" viewBox="0 0 379 379" version="1.1" xmlns="http://www.w3.org/2000/svg" xmlns:xlink="http://www.w3.org/1999/xlink" xml:space="preserve" xmlns:serif="http://www.serif.com/" style="fill-rule:evenodd;clip-rule:evenodd;stroke-linejoin:round;stroke-miterlimit:0.73;">
    <g>
        <g>
            <path d="M378.185,132.516L378.185,245.902C378.185,318.911 318.911,378.185 245.902,378.185L132.516,378.185C59.507,378.185 0.232,318.911 0.232,245.902L0.232,132.516C0.232,59.507 59.507,0.232 132.516,0.232L245.902,0.232C318.911,0.232 378.185,59.507 378.185,132.516Z" style="fill:white;stroke:white;stroke-width:0.46px;"/>
        </g>
        <g>
            <g>
                <path d="M302.8,87.743L290.528,224.147C288.262,249.334 265.974,267.942 240.788,265.676L149.519,257.465C124.332,255.199 105.724,232.911 107.99,207.725L120.262,71.32C122.528,46.133 144.816,27.525 170.002,29.791L261.271,38.002C286.458,40.268 305.066,62.556 302.8,87.743Z" style="fill:rgb(126,211,79);"/>
                <path d="M271.085,100.604C270.501,107.094 264.758,111.889 258.268,111.305L159.873,102.452C153.383,101.868 148.588,96.126 149.172,89.636C149.756,83.146 155.499,78.351 161.989,78.935L260.384,87.788C266.874,88.371 271.669,94.114 271.085,100.604Z" style="fill:white;"/>
                <path d="M266.351,153.218C265.768,159.708 260.025,164.503 253.535,163.919L155.139,155.066C148.65,154.482 143.855,148.739 144.439,142.249C145.022,135.759 150.765,130.965 157.255,131.548L255.651,140.401C262.14,140.985 266.935,146.728 266.351,153.218Z" style="fill:white;"/>
                <path d="M261.618,205.831C261.034,212.321 255.291,217.116 248.801,216.532L150.406,207.68C143.916,207.096 139.121,201.353 139.705,194.863C140.289,188.373 146.032,183.578 152.522,184.162L250.917,193.015C257.407,193.599 262.202,199.342 261.618,205.831Z" style="fill:white;"/>
            </g>
            <g>
                <path d="M219.886,102.276L237.49,238.096C240.741,263.174 223.019,286.173 197.941,289.424L107.064,301.203C81.985,304.453 58.986,286.732 55.735,261.654L38.131,125.834C34.881,100.756 52.602,77.756 77.681,74.506L168.558,62.727C193.636,59.476 216.636,77.198 219.886,102.276Z" style="fill:rgb(1,54,124);"/>
                <path d="M191.716,121.71C192.553,128.172 187.987,134.098 181.525,134.936L83.552,147.634C77.09,148.472 71.163,143.906 70.326,137.444C69.488,130.982 74.054,125.055 80.516,124.218L178.49,111.519C184.952,110.682 190.878,115.248 191.716,121.71Z" style="fill:white;"/>
                <path d="M198.506,174.098C199.343,180.56 194.777,186.486 188.315,187.324L90.342,200.022C83.88,200.86 77.953,196.294 77.116,189.832C76.278,183.37 80.845,177.443 87.307,176.606L185.28,163.907C191.742,163.07 197.668,167.636 198.506,174.098Z" style="fill:white;"/>
                <path d="M205.296,226.486C206.133,232.948 201.567,238.874 195.105,239.712L97.132,252.41C90.67,253.248 84.744,248.682 83.906,242.22C83.068,235.758 87.635,229.831 94.097,228.994L192.07,216.295C198.532,215.457 204.458,220.024 205.296,226.486Z" style="fill:white;"/>
            </g>
            <g>
                <circle cx="254.402" cy="259.313" r="85.028" style="fill:none;stroke:white;stroke-width:46.13px;stroke-linecap:round;stroke-miterlimit:0.348837;"/>
                <circle cx="254.402" cy="259.313" r="85.028" style="fill:rgb(1,54,124);"/>
                <path d="M283.95,276.501C283.95,280.486 282.934,284.223 280.903,287.71C278.872,291.198 275.883,294.072 271.935,296.333C267.988,298.594 263.332,299.916 257.967,300.3L257.967,309.612L250.608,309.612L250.608,300.185C242.944,299.495 236.774,297.176 232.098,293.229C227.423,289.282 225.008,283.935 224.855,277.191L242.101,277.191C242.56,282.709 245.396,286.043 250.608,287.193L250.608,265.234C245.09,263.854 240.644,262.474 237.272,261.095C233.899,259.715 230.987,257.492 228.534,254.426C226.081,251.36 224.855,247.183 224.855,241.895C224.855,235.226 227.25,229.784 232.041,225.569C236.831,221.353 243.02,218.939 250.608,218.326L250.608,209.013L257.967,209.013L257.967,218.326C265.325,218.939 271.207,221.162 275.614,224.994C280.022,228.826 282.494,234.115 283.03,240.86L265.67,240.86C265.44,238.637 264.654,236.702 263.313,235.054C261.971,233.406 260.189,232.237 257.967,231.547L257.967,253.277C263.715,254.733 268.256,256.132 271.591,257.473C274.925,258.814 277.818,260.999 280.271,264.026C282.724,267.054 283.95,271.212 283.95,276.501ZM241.641,241.09C241.641,243.619 242.407,245.669 243.94,247.241C245.473,248.812 247.696,250.096 250.608,251.092L250.608,231.202C247.849,231.586 245.665,232.62 244.055,234.307C242.445,235.993 241.641,238.254 241.641,241.09ZM257.967,287.423C260.879,286.886 263.159,285.698 264.807,283.859C266.455,282.019 267.279,279.797 267.279,277.191C267.279,274.661 266.474,272.63 264.865,271.097C263.255,269.564 260.956,268.299 257.967,267.303L257.967,287.423Z" style="fill:white;fill-rule:nonzero;"/>
            </g>
        </g>
    </g>
</svg>
