<?xml version="1.0" encoding="UTF-8" standalone="no"?>
<!DOCTYPE svg PUBLIC "-//W3C//DTD SVG 1.1//EN" "http://www.w3.org/Graphics/SVG/1.1/DTD/svg11.dtd">
<svg width="100%" height="100%" viewBox="0 0 379 379" version="1.1" xmlns="http://www.w3.org/2000/svg" xmlns:xlink="http://www.w3.org/1999/xlink" xml:space="preserve" xmlns:serif="http://www.serif.com/" style="fill-rule:evenodd;clip-rule:evenodd;stroke-linejoin:round;stroke-miterlimit:0.73;">
    <g>
        <g>
            <path d="M378.185,132.516L378.185,245.902C378.185,318.911 318.911,378.185 245.902,378.185L132.516,378.185C59.507,378.185 0.232,318.911 0.232,245.902L0.232,132.516C0.232,59.507 59.507,0.232 132.516,0.232L245.902,0.232C318.911,0.232 378.185,59.507 378.185,132.516Z" style="fill:white;stroke:white;stroke-width:0.46px;"/>
        </g>
        <g>
            <path d="M119.894,275.912L119.894,314.665C119.894,325.367 111.205,334.055 100.504,334.055L71.378,334.055C60.677,334.055 51.988,325.367 51.988,314.665L51.988,275.912C51.988,265.21 60.677,256.522 71.378,256.522L100.504,256.522C111.205,256.522 119.894,265.21 119.894,275.912Z" style="fill:rgb(1,55,125);"/>
            <path d="M221.914,228.452L221.914,314.665C221.914,325.367 213.225,334.055 202.524,334.055L173.398,334.055C162.697,334.055 154.009,325.367 154.009,314.665L154.009,228.452C154.009,217.751 162.697,209.063 173.398,209.063L202.524,209.063C213.225,209.063 221.914,217.751 221.914,228.452Z" style="fill:rgb(126,211,79);"/>
            <path d="M323.934,124.092L323.934,314.665C323.934,325.367 315.246,334.055 304.544,334.055L275.419,334.055C264.717,334.055 256.029,325.367 256.029,314.665L256.029,124.092C256.029,113.391 264.717,104.702 275.419,104.702L304.544,104.702C315.246,104.702 323.934,113.391 323.934,124.092Z" style="fill:rgb(1,55,125);"/>
            <g>
                <path d="M90.526,94.614C90.526,90.237 91.807,86.81 94.37,84.333C96.933,81.856 100.231,80.618 104.263,80.618C108.295,80.618 111.592,81.856 114.155,84.333C116.719,86.81 118,90.237 118,94.614C118,99.049 116.719,102.505 114.155,104.982C111.592,107.459 108.295,108.697 104.263,108.697C100.231,108.697 96.933,107.459 94.37,104.982C91.807,102.505 90.526,99.049 90.526,94.614ZM145.993,81.654L112.039,142.133L100.288,142.133L134.156,81.654L145.993,81.654ZM104.176,87.875C101.008,87.875 99.425,90.121 99.425,94.614C99.425,99.164 101.008,101.44 104.176,101.44C105.732,101.44 106.941,100.878 107.805,99.755C108.669,98.632 109.101,96.918 109.101,94.614C109.101,90.121 107.46,87.875 104.176,87.875ZM128.454,129.087C128.454,124.652 129.736,121.21 132.299,118.762C134.862,116.314 138.16,115.09 142.192,115.09C146.223,115.09 149.492,116.314 151.998,118.762C154.503,121.21 155.756,124.652 155.756,129.087C155.756,133.522 154.503,136.978 151.998,139.455C149.492,141.931 146.223,143.17 142.192,143.17C138.102,143.17 134.79,141.931 132.256,139.455C129.721,136.978 128.454,133.522 128.454,129.087ZM142.105,122.348C138.822,122.348 137.18,124.594 137.18,129.087C137.18,133.637 138.822,135.912 142.105,135.912C145.331,135.912 146.943,133.637 146.943,129.087C146.943,124.594 145.331,122.348 142.105,122.348Z" style="fill:rgb(126,211,79);fill-rule:nonzero;"/>
                <g>
                    <path d="M131.541,25.448L134.308,38.918C139.662,39.738 144.911,41.144 149.958,43.112L159.089,32.83C164.199,35.153 169.071,37.966 173.638,41.23L169.299,54.279C173.527,57.666 177.369,61.508 180.756,65.735L193.805,61.396C197.068,65.963 199.882,70.836 202.205,75.945L191.923,85.077C193.891,90.124 195.297,95.372 196.116,100.727L209.586,103.494C210.129,109.081 210.129,114.707 209.586,120.294L196.116,123.061C195.297,128.415 193.891,133.664 191.923,138.711L202.205,147.842C199.882,152.952 197.068,157.824 193.805,162.391L180.756,158.052C177.369,162.28 173.527,166.122 169.299,169.509L173.638,182.558C169.071,185.821 164.199,188.635 159.089,190.958L149.958,180.676C144.911,182.644 139.662,184.05 134.308,184.869L131.541,198.339C125.954,198.882 120.328,198.882 114.741,198.339L111.974,184.869C106.619,184.05 101.371,182.644 96.324,180.676L87.192,190.958C82.083,188.635 77.21,185.821 72.643,182.558L76.982,169.509C72.755,166.122 68.913,162.28 65.526,158.052L52.477,162.391C49.213,157.824 46.4,152.952 44.077,147.842L54.359,138.711C52.391,133.664 50.985,128.415 50.165,123.061L36.695,120.294C36.152,114.707 36.152,109.081 36.695,103.494L50.165,100.727C50.985,95.372 52.391,90.124 54.359,85.077L44.077,75.945C46.4,70.836 49.213,65.963 52.477,61.396L65.526,65.735C68.913,61.508 72.755,57.666 76.982,54.279L72.643,41.23C77.21,37.966 82.083,35.153 87.192,32.83L96.324,43.112C101.371,41.144 106.619,39.738 111.974,38.918L114.741,25.448C120.328,24.905 125.954,24.905 131.541,25.448ZM123.141,61.802C150.787,61.802 173.232,84.248 173.232,111.894C173.232,139.54 150.787,161.985 123.141,161.985C95.495,161.985 73.05,139.54 73.05,111.894C73.05,84.248 95.495,61.802 123.141,61.802Z" style="fill:rgb(1,54,124);"/>
                </g>
            </g>
        </g>
    </g>
</svg>
