<?xml version="1.0" encoding="UTF-8" standalone="no"?>
<!DOCTYPE svg PUBLIC "-//W3C//DTD SVG 1.1//EN" "http://www.w3.org/Graphics/SVG/1.1/DTD/svg11.dtd">
<svg width="100%" height="100%" viewBox="0 0 379 379" version="1.1" xmlns="http://www.w3.org/2000/svg" xmlns:xlink="http://www.w3.org/1999/xlink" xml:space="preserve" xmlns:serif="http://www.serif.com/" style="fill-rule:evenodd;clip-rule:evenodd;stroke-linejoin:round;stroke-miterlimit:0.73;">
    <g>
        <g>
            <g>
                <path d="M378.185,94.721L378.185,283.697C378.185,335.846 335.846,378.185 283.697,378.185L94.721,378.185C42.571,378.185 0.232,335.846 0.232,283.697L0.232,94.721C0.232,42.571 42.571,0.232 94.721,0.232L283.697,0.232C335.846,0.232 378.185,42.571 378.185,94.721Z" style="fill:white;stroke:white;stroke-width:0.46px;"/>
            </g>
        </g>
        <g>
            <path d="M89.844,258.659C89.026,260.142 87.158,260.682 85.676,259.865C84.193,259.047 83.653,257.179 84.47,255.696L142.912,149.701C143.563,148.521 144.908,147.903 146.228,148.18C146.228,148.18 265.213,173.108 265.213,173.108L289.82,85.14C290.276,83.509 291.97,82.556 293.601,83.012C295.232,83.468 296.185,85.162 295.729,86.793L270.349,177.526C269.913,179.082 268.346,180.034 266.765,179.702L147.19,154.651L89.844,258.659Z" style="fill:rgb(157,175,255);"/>
            <circle cx="87.157" cy="257.178" r="13.915" style="fill:rgb(1,55,124);"/>
            <circle cx="145.599" cy="151.183" r="13.915" style="fill:rgb(123,210,75);"/>
            <circle cx="267.394" cy="176.699" r="13.915" style="fill:rgb(1,55,124);"/>
            <circle cx="292.775" cy="85.967" r="13.915" style="fill:rgb(123,210,75);"/>
            <ellipse cx="174.517" cy="142.454" rx="53.796" ry="54.088" style="fill:rgb(157,175,255);fill-opacity:0.33;"/>
            <path d="M174.517,72.051C213.373,72.051 244.92,103.598 244.92,142.454C244.92,181.31 213.373,212.856 174.517,212.856C135.661,212.856 104.115,181.31 104.115,142.454C104.115,103.598 135.661,72.051 174.517,72.051ZM174.517,89.652C203.659,89.652 227.319,113.312 227.319,142.454C227.319,171.596 203.659,195.256 174.517,195.256C145.375,195.256 121.715,171.596 121.715,142.454C121.715,113.312 145.375,89.652 174.517,89.652Z" style="fill:rgb(1,55,124);"/>
            <path d="M230.433,204.644L280.339,291.085C282.337,294.544 281.15,298.974 277.69,300.971L265.155,308.208C261.696,310.205 257.266,309.018 255.269,305.559L205.362,219.119C203.365,215.659 204.552,211.23 208.011,209.232L220.547,201.995C224.006,199.998 228.436,201.185 230.433,204.644Z" style="fill:rgb(1,55,124);"/>
        </g>
    </g>
</svg>
