<?xml version="1.0" encoding="UTF-8" standalone="no"?>
<!DOCTYPE svg PUBLIC "-//W3C//DTD SVG 1.1//EN" "http://www.w3.org/Graphics/SVG/1.1/DTD/svg11.dtd">
<svg width="100%" height="100%" viewBox="0 0 379 379" version="1.1" xmlns="http://www.w3.org/2000/svg" xmlns:xlink="http://www.w3.org/1999/xlink" xml:space="preserve" xmlns:serif="http://www.serif.com/" style="fill-rule:evenodd;clip-rule:evenodd;stroke-linejoin:round;stroke-miterlimit:0.73;">
    <g>
        <g>
            <g>
                <path d="M378.185,94.721L378.185,283.697C378.185,335.846 335.846,378.185 283.697,378.185L94.721,378.185C42.571,378.185 0.232,335.846 0.232,283.697L0.232,94.721C0.232,42.571 42.571,0.232 94.721,0.232L283.697,0.232C335.846,0.232 378.185,42.571 378.185,94.721Z" style="fill:white;stroke:white;stroke-width:0.46px;"/>
            </g>
        </g>
        <g>
            <g>
                <g>
                    <path d="M189.209,157.163C197.517,157.163 214.134,157.163 222.443,167.429C230.751,177.695 230.751,198.227 222.443,218.76C222.443,218.76 222.442,218.76 222.442,218.761C217.221,232.585 203.986,241.733 189.209,241.733C174.431,241.733 161.197,232.585 155.975,218.761C155.975,218.76 155.975,218.76 155.975,218.76C147.666,198.227 147.666,177.695 155.975,167.429C164.283,157.163 180.9,157.163 189.209,157.163Z" style="fill:rgb(1,55,125);"/>
                    <path d="M189.209,176.642C190.271,176.642 192.396,176.642 193.458,177.955C194.52,179.267 194.52,181.892 193.458,184.518C193.457,184.519 193.457,184.52 193.456,184.521C192.789,186.287 191.097,187.456 189.209,187.456C187.32,187.456 185.629,186.287 184.961,184.521C184.961,184.52 184.96,184.519 184.96,184.518C183.898,181.892 183.898,179.267 184.96,177.955C186.022,176.642 188.147,176.642 189.209,176.642Z" style="fill:white;"/>
                    <ellipse cx="189.209" cy="191.187" rx="1.065" ry="1.084" style="fill:white;"/>
                    <path d="M189.209,125.879C193.866,125.879 203.181,125.879 207.838,131.634C212.496,137.389 212.496,148.899 207.838,160.408C207.838,160.409 207.838,160.41 207.837,160.411C204.91,168.16 197.492,173.287 189.209,173.287C180.926,173.287 173.507,168.16 170.58,160.411C170.58,160.41 170.579,160.409 170.579,160.408C165.922,148.899 165.922,137.389 170.579,131.634C175.237,125.879 184.551,125.879 189.209,125.879Z" style="fill:rgb(124,210,76);"/>
                </g>
            </g>
            <path d="M202.29,51.81L206.599,72.787C214.938,74.063 223.111,76.253 230.97,79.317L245.19,63.305C253.148,66.923 260.735,71.304 267.847,76.386L261.091,96.707C267.674,101.981 273.657,107.965 278.932,114.548L299.253,107.791C304.335,114.903 308.716,122.491 312.334,130.448L296.322,144.668C299.386,152.528 301.576,160.701 302.852,169.04L323.829,173.349C324.674,182.049 324.674,190.811 323.829,199.511L302.852,203.82C301.576,212.159 299.386,220.332 296.322,228.191L312.334,242.411C308.716,250.369 304.335,257.957 299.253,265.068L278.932,258.312C273.657,264.895 267.674,270.878 261.091,276.153L267.847,296.474C260.735,301.556 253.148,305.937 245.19,309.555L230.97,293.543C223.111,296.607 214.938,298.797 206.599,300.073L202.29,321.05C193.59,321.895 184.828,321.895 176.128,321.05L171.819,300.073C163.48,298.797 155.307,296.607 147.447,293.543L133.227,309.555C125.27,305.937 117.682,301.556 110.57,296.474L117.327,276.153C110.743,270.878 104.76,264.895 99.486,258.312L79.165,265.068C74.083,257.957 69.702,250.369 66.084,242.411L82.096,228.191C79.032,220.332 76.842,212.159 75.566,203.82L54.589,199.511C53.743,190.811 53.743,182.049 54.589,173.349L75.566,169.04C76.842,160.701 79.032,152.528 82.096,144.668L66.084,130.448C69.702,122.491 74.083,114.903 79.165,107.791L99.486,114.548C104.76,107.965 110.743,101.981 117.327,96.707L110.57,76.386C117.682,71.304 125.27,66.923 133.227,63.305L147.447,79.317C155.307,76.253 163.48,74.063 171.819,72.787L176.128,51.81C184.828,50.964 193.59,50.964 202.29,51.81ZM189.209,100.664C236.544,100.664 274.974,139.095 274.974,186.43C274.974,233.765 236.544,272.195 189.209,272.195C141.874,272.195 103.443,233.765 103.443,186.43C103.443,139.095 141.874,100.664 189.209,100.664Z" style="fill:rgb(124,210,76);"/>
            <path d="M202.29,51.81L206.599,72.787C214.938,74.063 223.111,76.253 230.97,79.317L245.19,63.305C253.148,66.923 260.735,71.304 267.847,76.386L261.091,96.707C267.674,101.981 273.657,107.965 278.932,114.548L299.253,107.791C304.335,114.903 308.716,122.491 312.334,130.448L296.322,144.668C299.386,152.528 301.576,160.701 302.852,169.04L323.829,173.349C324.674,182.049 324.674,190.811 323.829,199.511L302.852,203.82C301.576,212.159 299.386,220.332 296.322,228.191L312.334,242.411C308.716,250.369 304.335,257.957 299.253,265.068L278.932,258.312C273.657,264.895 267.674,270.878 261.091,276.153L267.847,296.474C260.735,301.556 253.148,305.937 245.19,309.555L230.97,293.543C223.111,296.607 214.938,298.797 206.599,300.073L202.29,321.05C193.59,321.895 184.828,321.895 176.128,321.05L171.819,300.073C163.48,298.797 155.307,296.607 147.447,293.543L133.227,309.555C125.27,305.937 117.682,301.556 110.57,296.474L117.327,276.153C110.743,270.878 104.76,264.895 99.486,258.312L79.165,265.068C74.083,257.957 69.702,250.369 66.084,242.411L82.096,228.191C79.032,220.332 76.842,212.159 75.566,203.82L54.589,199.511C53.743,190.811 53.743,182.049 54.589,173.349L75.566,169.04C76.842,160.701 79.032,152.528 82.096,144.668L66.084,130.448C69.702,122.491 74.083,114.903 79.165,107.791L99.486,114.548C104.76,107.965 110.743,101.981 117.327,96.707L110.57,76.386C117.682,71.304 125.27,66.923 133.227,63.305L147.447,79.317C155.307,76.253 163.48,74.063 171.819,72.787L176.128,51.81C184.828,50.964 193.59,50.964 202.29,51.81ZM189.209,85.102C245.133,85.102 290.536,130.506 290.536,186.43C290.536,242.354 245.133,287.758 189.209,287.758C133.285,287.758 87.881,242.354 87.881,186.43C87.881,130.506 133.285,85.102 189.209,85.102Z" style="fill:rgb(1,55,125);"/>
        </g>
    </g>
</svg>
