<?xml version="1.0" encoding="UTF-8" standalone="no"?>
<!DOCTYPE svg PUBLIC "-//W3C//DTD SVG 1.1//EN" "http://www.w3.org/Graphics/SVG/1.1/DTD/svg11.dtd">
<svg width="100%" height="100%" viewBox="0 0 379 379" version="1.1" xmlns="http://www.w3.org/2000/svg" xmlns:xlink="http://www.w3.org/1999/xlink" xml:space="preserve" xmlns:serif="http://www.serif.com/" style="fill-rule:evenodd;clip-rule:evenodd;stroke-linejoin:round;stroke-miterlimit:0.73;">
    <g>
        <g>
            <path d="M378.185,132.516L378.185,245.902C378.185,318.911 318.911,378.185 245.902,378.185L132.516,378.185C59.507,378.185 0.232,318.911 0.232,245.902L0.232,132.516C0.232,59.507 59.507,0.232 132.516,0.232L245.902,0.232C318.911,0.232 378.185,59.507 378.185,132.516Z" style="fill:white;stroke:white;stroke-width:0.46px;"/>
        </g>
        <g>
            <path d="M166.339,72.404C160.766,73.3 155.514,69.502 154.619,63.929C153.723,58.356 157.521,53.104 163.094,52.209C170.789,50.972 178.682,50.329 186.723,50.329C194.765,50.329 202.657,50.972 210.352,52.209C215.925,53.104 219.723,58.356 218.827,63.929C217.932,69.502 212.68,73.3 207.107,72.404C200.469,71.338 193.66,70.784 186.723,70.784C179.786,70.784 172.978,71.338 166.339,72.404ZM237.704,81.386C232.531,79.127 230.166,73.093 232.425,67.92C234.684,62.747 240.718,60.382 245.891,62.641C260.518,69.029 273.918,77.712 285.632,88.235C289.831,92.007 290.178,98.479 286.406,102.678C282.634,106.877 276.162,107.224 271.963,103.452C261.864,94.38 250.314,86.893 237.704,81.386ZM292.88,127.569C289.74,122.878 291,116.52 295.691,113.381C300.382,110.241 306.739,111.5 309.879,116.191C318.596,129.216 325.302,143.697 329.554,159.189C331.049,164.633 327.842,170.265 322.399,171.759C316.956,173.253 311.323,170.047 309.829,164.603C306.166,151.259 300.388,138.787 292.88,127.569ZM314.345,196.19C314.248,190.546 318.751,185.885 324.395,185.788C330.039,185.691 334.7,190.195 334.797,195.838C334.811,196.699 334.819,197.561 334.819,198.425C334.819,213.82 332.463,228.669 328.095,242.632C326.41,248.019 320.668,251.025 315.281,249.34C309.893,247.655 306.888,241.913 308.573,236.526C312.337,224.491 314.364,211.693 314.364,198.425C314.364,197.678 314.357,196.933 314.345,196.19ZM295.298,265.527C298.272,260.73 304.582,259.249 309.379,262.223C314.177,265.197 315.658,271.507 312.684,276.304C304.318,289.801 293.843,301.855 281.722,312.006C277.394,315.63 270.938,315.059 267.314,310.731C263.69,306.404 264.261,299.948 268.589,296.324C279.046,287.567 288.082,277.169 295.298,265.527ZM241.761,313.606C246.851,311.166 252.965,313.318 255.404,318.409C257.844,323.499 255.692,329.612 250.601,332.052C236.556,338.783 221.288,343.366 205.224,345.373C199.623,346.072 194.508,342.093 193.808,336.492C193.108,330.891 197.087,325.775 202.689,325.075C216.52,323.348 229.667,319.402 241.761,313.606ZM170.758,325.075C176.359,325.775 180.338,330.891 179.639,336.492C178.939,342.093 173.823,346.072 168.222,345.373C152.159,343.366 136.891,338.783 122.845,332.052C117.755,329.612 115.603,323.499 118.042,318.409C120.482,313.318 126.595,311.166 131.685,313.606C143.779,319.402 156.926,323.348 170.758,325.075ZM104.858,296.324C109.185,299.948 109.757,306.404 106.133,310.732C102.509,315.059 96.053,315.631 91.725,312.006C79.603,301.856 69.129,289.801 60.763,276.305C57.789,271.507 59.269,265.197 64.067,262.223C68.865,259.249 75.174,260.73 78.148,265.528C85.365,277.17 94.401,287.568 104.858,296.324ZM64.873,236.525C66.559,241.913 63.553,247.655 58.166,249.34C52.778,251.025 47.036,248.019 45.351,242.632C40.984,228.668 38.628,213.819 38.628,198.425C38.628,197.561 38.635,196.698 38.65,195.838C38.747,190.194 43.408,185.691 49.052,185.788C54.695,185.885 59.199,190.546 59.102,196.189C59.089,196.933 59.083,197.678 59.083,198.425C59.083,211.693 61.109,224.491 64.873,236.525ZM63.617,164.604C62.123,170.047 56.491,173.254 51.047,171.759C45.604,170.265 42.398,164.633 43.892,159.19C48.144,143.697 54.85,129.216 63.567,116.192C66.707,111.501 73.064,110.241 77.755,113.381C82.446,116.521 83.706,122.878 80.566,127.569C73.058,138.787 67.28,151.26 63.617,164.604ZM101.484,103.452C97.284,107.224 90.813,106.877 87.041,102.678C83.268,98.479 83.615,92.007 87.814,88.235C99.529,77.712 112.928,69.029 127.556,62.641C132.728,60.382 138.762,62.747 141.022,67.92C143.281,73.093 140.915,79.127 135.742,81.386C123.132,86.893 111.582,94.38 101.484,103.452Z" style="fill:rgb(124,210,76);"/>
            <g>
                <circle cx="187.934" cy="61.768" r="46.073" style="fill:rgb(1,55,125);"/>
                <g>
                    <path d="M195.881,46.366L200.188,42.06C202.042,40.205 205.218,40.37 207.275,42.427C209.332,44.484 209.497,47.66 207.642,49.514L203.336,53.82L195.881,46.366Z" style="fill:white;"/>
                    <path d="M169.325,72.927L169.327,72.92L169.329,72.922L169.325,72.927ZM176.779,80.373L176.781,80.375L176.775,80.376L176.779,80.373Z" style="fill:rgb(124,210,76);"/>
                    <path d="M197.154,45.093L204.609,52.548L203.336,53.82L195.881,46.366L197.154,45.093Z" style="fill:rgb(124,210,76);"/>
                    <path d="M176.896,80.26C176.865,80.291 170.338,82.096 167.675,82.832C167.447,82.902 167.199,82.84 167.03,82.672C166.861,82.503 166.8,82.255 166.87,82.027C167.606,79.364 169.411,72.836 169.442,72.806L195.881,46.366L203.336,53.82L176.896,80.26Z" style="fill:white;"/>
                </g>
            </g>
            <g>
                <circle cx="66.25" cy="273.565" r="46.073" style="fill:rgb(1,55,125);"/>
                <g>
                    <path d="M59.785,247.248L59.785,264.457L76.993,264.457C76.993,273.961 69.289,281.666 59.785,281.666C50.287,281.666 42.576,273.955 42.576,264.457C42.576,254.953 50.28,247.248 59.785,247.248Z" style="fill:white;"/>
                    <path d="M77.68,284.38L77.68,297.015C77.68,297.984 76.893,298.772 75.923,298.772L72.409,298.772C71.44,298.772 70.652,297.984 70.652,297.015L70.652,284.38C70.652,283.41 71.44,282.623 72.409,282.623L75.923,282.623C76.893,282.623 77.68,283.41 77.68,284.38Z" style="fill:white;"/>
                    <path d="M88.812,277.926L88.812,297.015C88.812,297.984 88.025,298.772 87.055,298.772L83.541,298.772C82.571,298.772 81.784,297.984 81.784,297.015L81.784,277.926C81.784,276.956 82.571,276.169 83.541,276.169L87.055,276.169C88.025,276.169 88.812,276.956 88.812,277.926Z" style="fill:white;"/>
                    <path d="M66.813,289.757L66.813,297.015C66.813,297.984 66.025,298.772 65.056,298.772L61.542,298.772C60.572,298.772 59.785,297.984 59.785,297.015L59.785,289.757C59.785,288.787 60.572,288 61.542,288L65.056,288C66.025,288 66.813,288.787 66.813,289.757Z" style="fill:white;"/>
                </g>
            </g>
            <g>
                <circle cx="313.579" cy="259.185" r="46.073" style="fill:rgb(1,55,125);"/>
                <g>
                    <path d="M332.59,244.941L332.59,273.429C332.59,278.676 328.331,282.935 323.085,282.935L304.074,282.935C298.828,282.935 294.568,278.676 294.568,273.429L294.568,244.941C294.568,239.694 298.828,235.435 304.074,235.435L323.085,235.435C328.331,235.435 332.59,239.694 332.59,244.941Z" style="fill:white;"/>
                    <g>
                        <circle cx="304.853" cy="259.474" r="2.637" style="fill:rgb(124,210,76);"/>
                        <circle cx="313.829" cy="259.474" r="2.637" style="fill:rgb(124,210,76);"/>
                        <circle cx="322.805" cy="259.474" r="2.637" style="fill:rgb(124,210,76);"/>
                    </g>
                    <g>
                        <circle cx="304.853" cy="267.216" r="2.637" style="fill:rgb(124,210,76);"/>
                        <circle cx="313.829" cy="267.216" r="2.637" style="fill:rgb(124,210,76);"/>
                        <circle cx="322.805" cy="267.216" r="2.637" style="fill:rgb(124,210,76);"/>
                    </g>
                    <g>
                        <circle cx="304.853" cy="274.958" r="2.637" style="fill:rgb(124,210,76);"/>
                        <circle cx="313.829" cy="274.958" r="2.637" style="fill:rgb(124,210,76);"/>
                        <circle cx="322.805" cy="274.958" r="2.637" style="fill:rgb(124,210,76);"/>
                    </g>
                    <path d="M327.737,245.339L327.737,250.591C327.737,252.609 326.099,254.248 324.081,254.248L303.077,254.248C301.06,254.248 299.421,252.609 299.421,250.591L299.421,245.339C299.421,243.321 301.06,241.683 303.077,241.683L324.081,241.683C326.099,241.683 327.737,243.321 327.737,245.339Z" style="fill:rgb(1,55,125);"/>
                </g>
            </g>
            <g>
                <path d="M231.585,174.536L231.585,236.754C231.585,249.134 221.534,259.185 209.154,259.185L164.292,259.185C151.912,259.185 141.861,249.134 141.861,236.754L141.861,174.536C141.861,162.156 151.912,152.105 164.292,152.105L209.154,152.105C221.534,152.105 231.585,162.156 231.585,174.536Z" style="fill:rgb(1,55,125);"/>
                <circle cx="186.723" cy="152.105" r="14.441" style="fill:rgb(124,210,76);"/>
                <path d="M212.275,185.618C212.275,187.616 210.652,189.239 208.654,189.239L164.792,189.239C162.794,189.239 161.172,187.616 161.172,185.618C161.172,183.62 162.794,181.997 164.792,181.997L208.654,181.997C210.652,181.997 212.275,183.62 212.275,185.618Z" style="fill:white;"/>
                <path d="M212.275,205.645C212.275,207.643 210.652,209.266 208.654,209.266L164.792,209.266C162.794,209.266 161.172,207.643 161.172,205.645C161.172,203.647 162.794,202.024 164.792,202.024L208.654,202.024C210.652,202.024 212.275,203.647 212.275,205.645Z" style="fill:white;"/>
                <path d="M212.275,227.493C212.275,229.491 210.652,231.113 208.654,231.113L164.792,231.113C162.794,231.113 161.172,229.491 161.172,227.493C161.172,225.494 162.794,223.872 164.792,223.872L208.654,223.872C210.652,223.872 212.275,225.494 212.275,227.493Z" style="fill:white;"/>
            </g>
        </g>
    </g>
</svg>
