<?xml version="1.0" encoding="UTF-8" standalone="no"?>
<!DOCTYPE svg PUBLIC "-//W3C//DTD SVG 1.1//EN" "http://www.w3.org/Graphics/SVG/1.1/DTD/svg11.dtd">
<svg width="100%" height="100%" viewBox="0 0 494 494" version="1.1" xmlns="http://www.w3.org/2000/svg" xmlns:xlink="http://www.w3.org/1999/xlink" xml:space="preserve" xmlns:serif="http://www.serif.com/" style="fill-rule:evenodd;clip-rule:evenodd;stroke-linejoin:round;stroke-miterlimit:0.73;">
    <g>
        <g>
            <g style="filter:url(#_Effect1);">
                <path d="M435.953,152.488L435.953,341.465C435.953,393.614 393.614,435.953 341.465,435.953L152.488,435.953C100.339,435.953 58,393.614 58,341.465L58,152.488C58,100.339 100.339,58 152.488,58L341.465,58C393.614,58 435.953,100.339 435.953,152.488Z" style="fill:none;stroke:rgb(1,55,125);stroke-opacity:0.2;stroke-width:20px;"/>
            </g>
            <path d="M435.953,152.488L435.953,341.465C435.953,393.614 393.614,435.953 341.465,435.953L152.488,435.953C100.339,435.953 58,393.614 58,341.465L58,152.488C58,100.339 100.339,58 152.488,58L341.465,58C393.614,58 435.953,100.339 435.953,152.488Z" style="fill:white;stroke:white;stroke-width:0.46px;"/>
        </g>
        <g>
            <g>
                <path d="M342.646,172.326L332.366,286.586C330.468,307.683 311.798,323.271 290.701,321.373L214.249,314.494C193.152,312.596 177.564,293.927 179.462,272.829L189.742,158.569C191.64,137.471 210.31,121.884 231.407,123.782L307.859,130.661C328.957,132.559 344.544,151.228 342.646,172.326Z" style="fill:rgb(126,211,79);"/>
                <path d="M316.08,183.099C315.591,188.536 310.78,192.552 305.344,192.063L222.922,184.647C217.486,184.158 213.47,179.348 213.959,173.911C214.448,168.475 219.259,164.459 224.695,164.948L307.116,172.363C312.552,172.852 316.569,177.663 316.08,183.099Z" style="fill:white;"/>
                <path d="M312.115,227.171C311.625,232.608 306.815,236.624 301.379,236.135L218.957,228.719C213.521,228.23 209.505,223.42 209.994,217.983C210.483,212.547 215.293,208.531 220.73,209.02L303.151,216.435C308.587,216.924 312.604,221.735 312.115,227.171Z" style="fill:white;"/>
                <path d="M308.149,271.243C307.66,276.68 302.85,280.696 297.413,280.207L214.992,272.791C209.556,272.302 205.539,267.492 206.029,262.056C206.518,256.619 211.328,252.603 216.764,253.092L299.186,260.507C304.622,260.997 308.638,265.807 308.149,271.243Z" style="fill:white;"/>
            </g>
            <g>
                <path d="M273.193,184.5L287.939,298.27C290.662,319.277 275.817,338.542 254.81,341.265L178.686,351.132C157.679,353.854 138.414,339.01 135.691,318.003L120.945,204.233C118.222,183.226 133.067,163.961 154.074,161.238L230.197,151.371C251.204,148.648 270.47,163.493 273.193,184.5Z" style="fill:rgb(1,54,124);"/>
                <path d="M249.595,200.779C250.297,206.192 246.472,211.156 241.059,211.857L158.991,222.494C153.578,223.196 148.614,219.371 147.913,213.958C147.211,208.545 151.036,203.581 156.449,202.879L238.517,192.242C243.93,191.541 248.894,195.366 249.595,200.779Z" style="fill:white;"/>
                <path d="M255.283,244.662C255.985,250.075 252.16,255.039 246.747,255.74L164.679,266.377C159.266,267.079 154.302,263.254 153.601,257.841C152.899,252.428 156.724,247.464 162.137,246.762L244.205,236.125C249.618,235.424 254.582,239.249 255.283,244.662Z" style="fill:white;"/>
                <path d="M260.971,288.545C261.673,293.957 257.848,298.922 252.435,299.623L170.367,310.26C164.954,310.962 159.99,307.137 159.288,301.724C158.587,296.311 162.412,291.347 167.825,290.645L249.892,280.008C255.305,279.307 260.27,283.132 260.971,288.545Z" style="fill:white;"/>
            </g>
            <g>
                <circle cx="302.105" cy="316.042" r="71.224" style="fill:none;stroke:white;stroke-width:38.64px;stroke-linecap:round;stroke-miterlimit:0.348837;"/>
                <circle cx="302.105" cy="316.042" r="71.224" style="fill:rgb(1,54,124);"/>
                <path d="M326.856,330.44C326.856,333.778 326.005,336.908 324.304,339.83C322.602,342.751 320.099,345.159 316.792,347.053C313.486,348.947 309.585,350.054 305.091,350.375L305.091,358.176L298.927,358.176L298.927,350.279C292.507,349.701 287.339,347.759 283.422,344.452C279.506,341.146 277.483,336.668 277.355,331.018L291.801,331.018C292.186,335.64 294.561,338.433 298.927,339.396L298.927,321.002C294.305,319.846 290.581,318.691 287.756,317.535C284.931,316.379 282.491,314.517 280.437,311.949C278.382,309.381 277.355,305.882 277.355,301.452C277.355,295.866 279.361,291.308 283.374,287.776C287.387,284.245 292.571,282.223 298.927,281.709L298.927,273.908L305.091,273.908L305.091,281.709C311.254,282.223 316.182,284.085 319.874,287.295C323.566,290.505 325.636,294.935 326.086,300.585L311.543,300.585C311.351,298.723 310.693,297.102 309.569,295.722C308.446,294.341 306.953,293.362 305.091,292.784L305.091,310.986C309.906,312.206 313.71,313.378 316.503,314.501C319.296,315.625 321.72,317.455 323.774,319.991C325.829,322.527 326.856,326.01 326.856,330.44ZM291.416,300.778C291.416,302.896 292.058,304.614 293.342,305.93C294.626,307.246 296.488,308.322 298.927,309.156L298.927,292.495C296.616,292.816 294.786,293.683 293.438,295.096C292.09,296.508 291.416,298.402 291.416,300.778ZM305.091,339.589C307.531,339.139 309.441,338.144 310.821,336.603C312.201,335.063 312.892,333.201 312.892,331.018C312.892,328.899 312.218,327.198 310.869,325.913C309.521,324.629 307.595,323.57 305.091,322.735L305.091,339.589Z" style="fill:white;fill-rule:nonzero;"/>
            </g>
        </g>
    </g>
    <defs>
        <filter id="_Effect1" filterUnits="userSpaceOnUse" x="-48" y="-48" width="589.953" height="589.953">
            <feGaussianBlur in="SourceGraphic" stdDeviation="16"/>
        </filter>
    </defs>
</svg>
