<?xml version="1.0" encoding="UTF-8" standalone="no"?>
<!DOCTYPE svg PUBLIC "-//W3C//DTD SVG 1.1//EN" "http://www.w3.org/Graphics/SVG/1.1/DTD/svg11.dtd">
<svg width="100%" height="100%" viewBox="0 0 494 494" version="1.1" xmlns="http://www.w3.org/2000/svg" xmlns:xlink="http://www.w3.org/1999/xlink" xml:space="preserve" xmlns:serif="http://www.serif.com/" style="fill-rule:evenodd;clip-rule:evenodd;stroke-linejoin:round;stroke-miterlimit:0.73;">
    <g>
        <g>
            <g style="filter:url(#_Effect1);">
                <path d="M435.953,152.488L435.953,341.465C435.953,393.614 393.614,435.953 341.465,435.953L152.488,435.953C100.339,435.953 58,393.614 58,341.465L58,152.488C58,100.339 100.339,58 152.488,58L341.465,58C393.614,58 435.953,100.339 435.953,152.488Z" style="fill:none;stroke:rgb(1,55,125);stroke-opacity:0.2;stroke-width:20px;"/>
            </g>
            <path d="M435.651,152.488L435.651,341.465C435.651,393.614 393.312,435.953 341.163,435.953L152.186,435.953C100.037,435.953 57.698,393.614 57.698,341.465L57.698,152.488C57.698,100.339 100.037,58 152.186,58L341.163,58C393.312,58 435.651,100.339 435.651,152.488Z" style="fill:white;stroke:white;stroke-width:0.46px;"/>
        </g>
        <g>
            <path d="M189.846,320.995L189.846,353.35C189.846,362.284 182.592,369.538 173.658,369.538L149.341,369.538C140.407,369.538 133.153,362.284 133.153,353.35L133.153,320.995C133.153,312.061 140.407,304.807 149.341,304.807L173.658,304.807C182.592,304.807 189.846,312.061 189.846,320.995Z" style="fill:rgb(1,55,125);"/>
            <path d="M275.021,281.372L275.021,353.35C275.021,362.284 267.767,369.538 258.833,369.538L234.516,369.538C225.582,369.538 218.328,362.284 218.328,353.35L218.328,281.372C218.328,272.438 225.582,265.184 234.516,265.184L258.833,265.184C267.767,265.184 275.021,272.438 275.021,281.372Z" style="fill:rgb(126,211,79);"/>
            <path d="M360.196,194.244L360.196,353.35C360.196,362.284 352.942,369.538 344.008,369.538L319.691,369.538C310.757,369.538 303.503,362.284 303.503,353.35L303.503,194.244C303.503,185.309 310.757,178.056 319.691,178.056L344.008,178.056C352.942,178.056 360.196,185.309 360.196,194.244Z" style="fill:rgb(1,55,125);"/>
            <g>
                <path d="M165.327,169.633C165.327,165.978 166.397,163.117 168.537,161.049C170.677,158.982 173.43,157.948 176.796,157.948C180.162,157.948 182.915,158.982 185.055,161.049C187.195,163.117 188.265,165.978 188.265,169.633C188.265,173.336 187.195,176.221 185.055,178.289C182.915,180.357 180.162,181.391 176.796,181.391C173.43,181.391 170.677,180.357 168.537,178.289C166.397,176.221 165.327,173.336 165.327,169.633ZM211.636,158.813L183.288,209.306L173.478,209.306L201.754,158.813L211.636,158.813ZM176.724,164.007C174.079,164.007 172.757,165.882 172.757,169.633C172.757,173.432 174.079,175.332 176.724,175.332C178.022,175.332 179.032,174.863 179.754,173.925C180.475,172.987 180.836,171.557 180.836,169.633C180.836,165.882 179.465,164.007 176.724,164.007ZM196.993,198.414C196.993,194.711 198.063,191.838 200.203,189.794C202.343,187.75 205.096,186.728 208.462,186.728C211.828,186.728 214.557,187.75 216.649,189.794C218.741,191.838 219.787,194.711 219.787,198.414C219.787,202.117 218.741,205.002 216.649,207.07C214.557,209.137 211.828,210.171 208.462,210.171C205.048,210.171 202.283,209.137 200.167,207.07C198.051,205.002 196.993,202.117 196.993,198.414ZM208.39,192.788C205.649,192.788 204.279,194.663 204.279,198.414C204.279,202.213 205.649,204.112 208.39,204.112C211.083,204.112 212.43,202.213 212.43,198.414C212.43,194.663 211.083,192.788 208.39,192.788Z" style="fill:rgb(126,211,79);fill-rule:nonzero;"/>
                <g>
                    <path d="M199.57,111.888L201.88,123.134C206.351,123.818 210.732,124.992 214.946,126.635L222.57,118.05C226.836,119.99 230.904,122.339 234.716,125.063L231.094,135.958C234.624,138.785 237.831,141.993 240.659,145.523L251.553,141.9C254.278,145.713 256.627,149.781 258.566,154.047L249.982,161.671C251.625,165.884 252.799,170.266 253.483,174.737L264.729,177.047C265.182,181.711 265.182,186.408 264.729,191.072L253.483,193.383C252.799,197.853 251.625,202.235 249.982,206.449L258.566,214.072C256.627,218.338 254.278,222.406 251.553,226.219L240.659,222.596C237.831,226.126 234.624,229.334 231.094,232.161L234.716,243.056C230.904,245.78 226.836,248.129 222.57,250.069L214.946,241.484C210.732,243.127 206.351,244.301 201.88,244.985L199.57,256.232C194.906,256.685 190.208,256.685 185.544,256.232L183.234,244.985C178.764,244.301 174.382,243.127 170.168,241.484L162.545,250.069C158.278,248.129 154.211,245.78 150.398,243.056L154.02,232.161C150.491,229.334 147.283,226.126 144.455,222.596L133.561,226.219C130.836,222.406 128.488,218.338 126.548,214.072L135.132,206.449C133.489,202.235 132.315,197.853 131.631,193.383L120.385,191.072C119.932,186.408 119.932,181.711 120.385,177.047L131.631,174.737C132.315,170.266 133.489,165.884 135.132,161.671L126.548,154.047C128.488,149.781 130.836,145.713 133.561,141.9L144.455,145.523C147.283,141.993 150.491,138.785 154.02,135.958L150.398,125.063C154.211,122.339 158.278,119.99 162.545,118.05L170.168,126.635C174.382,124.992 178.764,123.818 183.234,123.134L185.544,111.888C190.208,111.434 194.906,111.434 199.57,111.888ZM192.557,142.239C215.638,142.239 234.377,160.978 234.377,184.06C234.377,207.141 215.638,225.88 192.557,225.88C169.476,225.88 150.737,207.141 150.737,184.06C150.737,160.978 169.476,142.239 192.557,142.239Z" style="fill:rgb(1,54,124);"/>
                </g>
            </g>
        </g>
    </g>
    <defs>
        <filter id="_Effect1" filterUnits="userSpaceOnUse" x="-48" y="-48" width="589.953" height="589.953">
            <feGaussianBlur in="SourceGraphic" stdDeviation="16"/>
        </filter>
    </defs>
</svg>
