<?xml version="1.0" encoding="UTF-8" standalone="no"?>
<!DOCTYPE svg PUBLIC "-//W3C//DTD SVG 1.1//EN" "http://www.w3.org/Graphics/SVG/1.1/DTD/svg11.dtd">
<svg width="100%" height="100%" viewBox="0 0 379 379" version="1.1" xmlns="http://www.w3.org/2000/svg" xmlns:xlink="http://www.w3.org/1999/xlink" xml:space="preserve" xmlns:serif="http://www.serif.com/" style="fill-rule:evenodd;clip-rule:evenodd;stroke-linejoin:round;stroke-miterlimit:0.73;">
    <g>
        <g>
            <g>
                <path d="M378.185,94.721L378.185,283.697C378.185,335.846 335.846,378.185 283.697,378.185L94.721,378.185C42.571,378.185 0.232,335.846 0.232,283.697L0.232,94.721C0.232,42.571 42.571,0.232 94.721,0.232L283.697,0.232C335.846,0.232 378.185,42.571 378.185,94.721Z" style="fill:white;stroke:white;stroke-width:0.46px;"/>
            </g>
        </g>
        <g>
            <path d="M293.56,138.188L293.56,270.129C293.56,298.926 270.181,322.305 241.384,322.305L137.033,322.305C108.237,322.305 84.858,298.926 84.858,270.129L84.858,138.188C84.858,109.392 108.237,86.013 137.033,86.013L241.384,86.013C270.181,86.013 293.56,109.392 293.56,138.188Z" style="fill:rgb(1,54,124);"/>
            <g>
                <path d="M252.017,149.986C252.017,158.444 245.149,165.311 236.691,165.311L177.695,165.311C169.236,165.311 162.369,158.444 162.369,149.986C162.369,141.527 169.236,134.66 177.695,134.66L236.691,134.66C245.149,134.66 252.017,141.527 252.017,149.986Z" style="fill:white;"/>
                <circle cx="140.409" cy="149.986" r="14.008" style="fill:rgb(126,211,79);"/>
            </g>
            <g>
                <path d="M252.017,204.578C252.017,213.037 245.149,219.904 236.691,219.904L177.695,219.904C169.236,219.904 162.369,213.037 162.369,204.578C162.369,196.12 169.236,189.252 177.695,189.252L236.691,189.252C245.149,189.252 252.017,196.12 252.017,204.578Z" style="fill:white;"/>
                <circle cx="140.409" cy="204.578" r="14.008" style="fill:rgb(126,211,79);"/>
            </g>
            <g>
                <path d="M252.017,258.038C252.017,266.497 245.149,273.364 236.691,273.364L177.695,273.364C169.236,273.364 162.369,266.497 162.369,258.038C162.369,249.58 169.236,242.713 177.695,242.713L236.691,242.713C245.149,242.713 252.017,249.58 252.017,258.038Z" style="fill:white;"/>
                <circle cx="140.409" cy="258.038" r="14.008" style="fill:rgb(126,211,79);"/>
            </g>
            <ellipse cx="189.209" cy="86.013" rx="32.016" ry="29.9" style="fill:rgb(126,211,79);"/>
        </g>
    </g>
</svg>
