<?xml version="1.0" encoding="UTF-8" standalone="no"?>
<!DOCTYPE svg PUBLIC "-//W3C//DTD SVG 1.1//EN" "http://www.w3.org/Graphics/SVG/1.1/DTD/svg11.dtd">
<svg width="100%" height="100%" viewBox="0 0 494 494" version="1.1" xmlns="http://www.w3.org/2000/svg" xmlns:xlink="http://www.w3.org/1999/xlink" xml:space="preserve" xmlns:serif="http://www.serif.com/" style="fill-rule:evenodd;clip-rule:evenodd;stroke-linejoin:round;stroke-miterlimit:0.73;">
    <g>
        <g>
            <g style="filter:url(#_Effect1);">
                <path d="M435.953,152.488L435.953,341.465C435.953,393.614 393.614,435.953 341.465,435.953L152.488,435.953C100.339,435.953 58,393.614 58,341.465L58,152.488C58,100.339 100.339,58 152.488,58L341.465,58C393.614,58 435.953,100.339 435.953,152.488Z" style="fill:none;stroke:rgb(1,55,125);stroke-opacity:0.2;stroke-width:20px;"/>
            </g>
            <path d="M435.953,152.488L435.953,341.465C435.953,393.614 393.614,435.953 341.465,435.953L152.488,435.953C100.339,435.953 58,393.614 58,341.465L58,152.488C58,100.339 100.339,58 152.488,58L341.465,58C393.614,58 435.953,100.339 435.953,152.488Z" style="fill:white;stroke:white;stroke-width:0.46px;"/>
        </g>
        <g>
            <g>
                <path d="M305.399,215.712L305.399,258.94C305.399,270.87 295.714,280.555 283.784,280.555L210.168,280.555C198.239,280.555 188.554,270.87 188.554,258.94L188.554,215.712C188.554,203.782 198.239,194.097 210.168,194.097L283.784,194.097C295.714,194.097 305.399,203.782 305.399,215.712Z" style="fill:rgb(1,55,125);"/>
                <path d="M301.325,293.25C301.325,296.896 298.366,299.855 294.72,299.855L199.233,299.855C195.587,299.855 192.628,296.896 192.628,293.25C192.628,289.605 195.587,286.646 199.233,286.646L294.72,286.646C298.366,286.646 301.325,289.605 301.325,293.25Z" style="fill:rgb(1,55,125);"/>
                <path d="M297.252,220.344L297.252,254.308C297.252,263.681 289.642,271.29 280.27,271.29L213.683,271.29C204.311,271.29 196.701,263.681 196.701,254.308L196.701,220.344C196.701,210.972 204.311,203.362 213.683,203.362L280.27,203.362C289.642,203.362 297.252,210.972 297.252,220.344Z" style="fill:white;"/>
                <path d="M278.822,226.525L278.822,248.127C278.822,254.088 273.983,258.928 268.022,258.928L225.931,258.928C219.97,258.928 215.13,254.088 215.13,248.127L215.13,226.525C215.13,220.564 219.97,215.724 225.931,215.724L268.022,215.724C273.983,215.724 278.822,220.564 278.822,226.525Z" style="fill:none;stroke:rgb(1,55,125);stroke-width:2.97px;stroke-linecap:round;stroke-miterlimit:0.348837;stroke-dasharray:6.13,4.79,0,0,0,0;"/>
                <path d="M278.822,226.525L278.822,248.127C278.822,254.088 273.983,258.928 268.022,258.928L225.931,258.928C219.97,258.928 215.13,254.088 215.13,248.127L215.13,226.525C215.13,220.564 219.97,215.724 225.931,215.724L268.022,215.724C273.983,215.724 278.822,220.564 278.822,226.525Z" style="fill:rgb(124,210,76);"/>
                <path d="M244.779,245.775C243.787,246.798 242.178,246.799 241.187,245.776L236.333,240.767C235.342,239.745 235.342,238.084 236.334,237.062C237.325,236.039 238.934,236.038 239.925,237.061L244.779,242.07C245.77,243.092 245.77,244.752 244.779,245.775Z" style="fill:rgb(1,55,125);"/>
                <path d="M257.619,228.867C258.611,229.89 258.611,231.55 257.62,232.572L244.814,245.786C243.823,246.809 242.214,246.808 241.223,245.785C240.231,244.762 240.231,243.102 241.222,242.08L254.028,228.866C255.019,227.844 256.628,227.844 257.619,228.867Z" style="fill:rgb(1,55,125);"/>
            </g>
            <path d="M388.971,228.99L388.971,247.044C388.971,252.026 384.926,256.071 379.944,256.071L343.072,256.071C338.089,256.071 334.044,252.026 334.044,247.044L334.044,228.99C334.044,224.008 338.089,219.963 343.072,219.963L379.944,219.963C384.926,219.963 388.971,224.008 388.971,228.99Z" style="fill:rgb(124,210,76);"/>
            <path d="M159.908,229.595L159.908,247.649C159.908,252.631 155.863,256.676 150.881,256.676L114.009,256.676C109.026,256.676 104.981,252.631 104.981,247.649L104.981,229.595C104.981,224.613 109.026,220.568 114.009,220.568L150.881,220.568C155.863,220.568 159.908,224.613 159.908,229.595Z" style="fill:rgb(1,55,125);"/>
            <path d="M177.746,236.977C178.339,237.312 178.706,237.941 178.706,238.622C178.706,239.304 178.339,239.932 177.746,240.267C175.613,241.472 172.734,243.099 170.623,244.291C170.038,244.622 169.322,244.617 168.741,244.278C168.161,243.94 167.804,243.318 167.804,242.646L167.804,234.598C167.804,233.926 168.161,233.305 168.741,232.966C169.322,232.627 170.038,232.622 170.623,232.953C172.734,234.145 175.613,235.772 177.746,236.977Z" style="fill:rgb(1,55,125);"/>
            <path d="M323.236,235.209C323.83,235.544 324.197,236.173 324.197,236.855C324.197,237.536 323.83,238.165 323.236,238.5C321.103,239.705 318.225,241.331 316.114,242.524C315.529,242.854 314.812,242.849 314.232,242.511C313.651,242.172 313.295,241.551 313.295,240.879L313.295,232.831C313.295,232.159 313.651,231.537 314.232,231.198C314.812,230.86 315.529,230.855 316.114,231.185C318.225,232.378 321.103,234.004 323.236,235.209Z" style="fill:rgb(1,55,125);"/>
        </g>
        <path d="M351.145,151.987C351.145,152.028 351.111,152.062 351.07,152.062L142.883,152.062C142.841,152.062 142.807,152.028 142.807,151.987C142.807,151.945 142.841,151.911 142.883,151.911L351.07,151.911C351.111,151.911 351.145,151.945 351.145,151.987Z" style="fill:none;stroke:rgb(1,55,125);stroke-width:2.71px;stroke-linecap:round;stroke-miterlimit:0.348837;stroke-dasharray:5.6,4.38,0,0,0,0;"/>
        <path d="M351.145,341.966C351.145,342.008 351.111,342.042 351.07,342.042L142.883,342.042C142.841,342.042 142.807,342.008 142.807,341.966C142.807,341.924 142.841,341.89 142.883,341.89L351.07,341.89C351.111,341.89 351.145,341.924 351.145,341.966Z" style="fill:none;stroke:rgb(1,55,125);stroke-width:2.71px;stroke-linecap:round;stroke-miterlimit:0.348837;stroke-dasharray:5.6,4.38,0,0,0,0;"/>
    </g>
    <defs>
        <filter id="_Effect1" filterUnits="userSpaceOnUse" x="-48" y="-48" width="589.953" height="589.953">
            <feGaussianBlur in="SourceGraphic" stdDeviation="16"/>
        </filter>
    </defs>
</svg>
