<?xml version="1.0" encoding="UTF-8" standalone="no"?>
<!DOCTYPE svg PUBLIC "-//W3C//DTD SVG 1.1//EN" "http://www.w3.org/Graphics/SVG/1.1/DTD/svg11.dtd">
<svg width="100%" height="100%" viewBox="0 0 494 494" version="1.1" xmlns="http://www.w3.org/2000/svg" xmlns:xlink="http://www.w3.org/1999/xlink" xml:space="preserve" xmlns:serif="http://www.serif.com/" style="fill-rule:evenodd;clip-rule:evenodd;stroke-linejoin:round;stroke-miterlimit:0.73;">
    <g>
        <g>
            <g style="filter:url(#_Effect1);">
                <path d="M435.953,152.488L435.953,341.465C435.953,393.614 393.614,435.953 341.465,435.953L152.488,435.953C100.339,435.953 58,393.614 58,341.465L58,152.488C58,100.339 100.339,58 152.488,58L341.465,58C393.614,58 435.953,100.339 435.953,152.488Z" style="fill:none;stroke:rgb(1,55,125);stroke-opacity:0.2;stroke-width:20px;"/>
            </g>
            <path d="M435.953,152.488L435.953,341.465C435.953,393.614 393.614,435.953 341.465,435.953L152.488,435.953C100.339,435.953 58,393.614 58,341.465L58,152.488C58,100.339 100.339,58 152.488,58L341.465,58C393.614,58 435.953,100.339 435.953,152.488Z" style="fill:white;stroke:white;stroke-width:0.46px;"/>
        </g>
        <path d="M258.582,127.539L262.405,146.15C269.803,147.282 277.055,149.225 284.028,151.944L296.644,137.738C303.704,140.948 310.436,144.834 316.746,149.343L310.751,167.372C316.592,172.052 321.901,177.36 326.58,183.202L344.609,177.207C349.118,183.517 353.005,190.249 356.215,197.308L342.009,209.925C344.728,216.898 346.671,224.149 347.803,231.548L366.414,235.371C367.164,243.09 367.164,250.863 366.414,258.582L347.803,262.405C346.671,269.803 344.728,277.055 342.009,284.028L356.215,296.644C353.005,303.704 349.118,310.436 344.609,316.746L326.58,310.751C321.901,316.592 316.592,321.901 310.751,326.58L316.746,344.609C310.436,349.118 303.704,353.005 296.644,356.215L284.028,342.009C277.055,344.728 269.803,346.671 262.405,347.803L258.582,366.414C250.863,367.164 243.09,367.164 235.371,366.414L231.548,347.803C224.149,346.671 216.898,344.728 209.925,342.009L197.308,356.215C190.249,353.005 183.517,349.118 177.207,344.609L183.202,326.58C177.36,321.901 172.052,316.592 167.372,310.751L149.343,316.746C144.834,310.436 140.948,303.704 137.738,296.644L151.944,284.028C149.225,277.055 147.282,269.803 146.15,262.405L127.539,258.582C126.789,250.863 126.789,243.09 127.539,235.371L146.15,231.548C147.282,224.149 149.225,216.898 151.944,209.925L137.738,197.308C140.948,190.249 144.834,183.517 149.343,177.207L167.372,183.202C172.052,177.36 177.36,172.052 183.202,167.372L177.207,149.343C183.517,144.834 190.249,140.948 197.308,137.738L209.925,151.944C216.898,149.225 224.149,147.282 231.548,146.15L235.371,127.539C243.09,126.789 250.863,126.789 258.582,127.539ZM246.976,162.86C293.401,162.86 331.093,200.551 331.093,246.976C331.093,293.401 293.401,331.093 246.976,331.093C200.551,331.093 162.86,293.401 162.86,246.976C162.86,200.551 200.551,162.86 246.976,162.86Z" style="fill:rgb(126,211,79);"/>
        <g>
            <circle cx="170.18" cy="329.55" r="48.681" style="fill:rgb(1,55,125);"/>
            <path d="M183.285,337.174C183.285,338.941 182.835,340.599 181.934,342.145C181.033,343.692 179.707,344.967 177.957,345.97C176.206,346.973 174.141,347.559 171.761,347.729L171.761,351.859L168.498,351.859L168.498,347.678C165.098,347.372 162.362,346.344 160.288,344.593C158.214,342.842 157.143,340.471 157.075,337.48L164.724,337.48C164.928,339.927 166.186,341.406 168.498,341.916L168.498,332.176C166.05,331.565 164.078,330.953 162.583,330.341C161.087,329.729 159.795,328.743 158.707,327.383C157.619,326.023 157.075,324.171 157.075,321.825C157.075,318.868 158.138,316.454 160.262,314.584C162.387,312.715 165.132,311.644 168.498,311.372L168.498,307.241L171.761,307.241L171.761,311.372C175.025,311.644 177.634,312.63 179.588,314.329C181.543,316.029 182.639,318.375 182.877,321.366L175.178,321.366C175.076,320.38 174.727,319.522 174.132,318.791C173.537,318.06 172.747,317.542 171.761,317.236L171.761,326.873C174.311,327.519 176.325,328.14 177.804,328.735C179.283,329.329 180.566,330.298 181.654,331.641C182.741,332.984 183.285,334.828 183.285,337.174ZM164.52,321.468C164.52,322.59 164.86,323.499 165.54,324.196C166.22,324.893 167.206,325.463 168.498,325.904L168.498,317.083C167.274,317.253 166.305,317.712 165.591,318.46C164.877,319.208 164.52,320.21 164.52,321.468ZM171.761,342.018C173.053,341.78 174.064,341.253 174.795,340.437C175.526,339.621 175.892,338.635 175.892,337.48C175.892,336.358 175.535,335.457 174.821,334.777C174.107,334.097 173.087,333.536 171.761,333.094L171.761,342.018Z" style="fill:white;fill-rule:nonzero;"/>
        </g>
        <g>
            <circle cx="330.918" cy="153.981" r="48.681" style="fill:rgb(1,55,125);"/>
            <path d="M311.668,143.783C311.668,141.199 312.425,139.176 313.937,137.715C315.45,136.253 317.396,135.522 319.776,135.522C322.156,135.522 324.102,136.253 325.615,137.715C327.127,139.176 327.884,141.199 327.884,143.783C327.884,146.4 327.127,148.44 325.615,149.902C324.102,151.364 322.156,152.094 319.776,152.094C317.396,152.094 315.45,151.364 313.937,149.902C312.425,148.44 311.668,146.4 311.668,143.783ZM344.405,136.134L324.365,171.828L317.43,171.828L337.419,136.134L344.405,136.134ZM319.725,139.805C317.855,139.805 316.92,141.131 316.92,143.783C316.92,146.468 317.855,147.811 319.725,147.811C320.643,147.811 321.357,147.48 321.867,146.817C322.377,146.154 322.631,145.142 322.631,143.783C322.631,141.131 321.663,139.805 319.725,139.805ZM334.054,164.129C334.054,161.511 334.81,159.48 336.323,158.035C337.836,156.59 339.782,155.868 342.161,155.868C344.541,155.868 346.47,156.59 347.949,158.035C349.428,159.48 350.167,161.511 350.167,164.129C350.167,166.746 349.428,168.786 347.949,170.248C346.47,171.709 344.541,172.44 342.161,172.44C339.748,172.44 337.793,171.709 336.297,170.248C334.802,168.786 334.054,166.746 334.054,164.129ZM342.11,160.151C340.173,160.151 339.204,161.477 339.204,164.129C339.204,166.814 340.173,168.157 342.11,168.157C344.014,168.157 344.966,166.814 344.966,164.129C344.966,161.477 344.014,160.151 342.11,160.151Z" style="fill:white;fill-rule:nonzero;"/>
        </g>
        <path d="M246.976,179.78C215.298,179.78 189.379,205.699 189.379,237.377L189.379,251.776C189.379,265.215 199.939,275.775 213.378,275.775C216.258,275.775 218.178,273.855 218.178,270.975L218.178,232.577C218.178,229.697 216.258,227.777 213.378,227.777C208.098,227.777 203.299,229.697 199.459,232.577C201.859,208.578 222.498,189.379 246.976,189.379C271.455,189.379 292.094,208.098 294.494,232.577C290.654,229.697 285.854,227.777 280.575,227.777C277.695,227.777 275.775,229.697 275.775,232.577L275.775,270.975C275.775,273.855 277.695,275.775 280.575,275.775C283.454,275.775 286.814,275.295 289.214,273.855C283.934,283.454 275.775,291.134 265.695,295.454C264.735,289.694 259.936,284.894 253.696,284.894C247.456,284.894 242.177,290.174 242.177,296.414C242.177,299.774 243.617,303.133 246.496,305.533C248.896,307.453 251.296,308.413 254.176,308.413L256.096,308.413C283.454,304.573 304.573,280.095 304.573,251.776L304.573,237.377C304.573,205.699 278.655,179.78 246.976,179.78Z" style="fill:rgb(1,55,125);fill-rule:nonzero;"/>
    </g>
    <defs>
        <filter id="_Effect1" filterUnits="userSpaceOnUse" x="-48" y="-48" width="589.953" height="589.953">
            <feGaussianBlur in="SourceGraphic" stdDeviation="16"/>
        </filter>
    </defs>
</svg>
