<?xml version="1.0" encoding="UTF-8" standalone="no"?>
<!DOCTYPE svg PUBLIC "-//W3C//DTD SVG 1.1//EN" "http://www.w3.org/Graphics/SVG/1.1/DTD/svg11.dtd">
<svg width="100%" height="100%" viewBox="0 0 494 494" version="1.1" xmlns="http://www.w3.org/2000/svg" xmlns:xlink="http://www.w3.org/1999/xlink" xml:space="preserve" xmlns:serif="http://www.serif.com/" style="fill-rule:evenodd;clip-rule:evenodd;stroke-linejoin:round;stroke-miterlimit:0.73;">
    <g>
        <g>
            <g style="filter:url(#_Effect1);">
                <path d="M435.953,152.488L435.953,341.465C435.953,393.614 393.614,435.953 341.465,435.953L152.488,435.953C100.339,435.953 58,393.614 58,341.465L58,152.488C58,100.339 100.339,58 152.488,58L341.465,58C393.614,58 435.953,100.339 435.953,152.488Z" style="fill:none;stroke:rgb(1,55,125);stroke-opacity:0.2;stroke-width:20px;"/>
            </g>
            <path d="M435.953,152.488L435.953,341.465C435.953,393.614 393.614,435.953 341.465,435.953L152.488,435.953C100.339,435.953 58,393.614 58,341.465L58,152.488C58,100.339 100.339,58 152.488,58L341.465,58C393.614,58 435.953,100.339 435.953,152.488Z" style="fill:white;stroke:white;stroke-width:0.46px;"/>
        </g>
        <g>
            <g>
                <clipPath id="_clip2">
                    <rect id="_19045359151551938544.svg" serif:id="19045359151551938544.svg" x="159.111" y="160.296" width="164.458" height="182.731"/>
                </clipPath>
                <g clip-path="url(#_clip2)">
                    <g id="Icons">
                        <g id="Outlined">
                            <g id="Action">
                                <g id="Outlined---Action---fingerprint" serif:id="Outlined-/-Action-/-fingerprint">
                                    <g>
                                        <path id="Path" d="M131.702,139.703L350.979,139.703L350.979,358.98L131.702,358.98L131.702,139.703Z" style="fill:none;"/>
                                        <path id="🔹-Icon-Color" d="M294.423,180.543C293.693,180.543 292.962,180.361 292.322,179.995C274.78,170.95 259.613,167.113 241.432,167.113C223.341,167.113 206.164,171.407 190.541,179.995C188.348,181.183 185.607,180.361 184.328,178.168C183.14,175.975 183.963,173.143 186.155,171.955C203.149,162.727 221.788,157.976 241.432,157.976C260.892,157.976 277.886,162.27 296.525,171.864C298.809,173.051 299.631,175.792 298.444,177.985C297.621,179.63 296.068,180.543 294.423,180.543ZM163.68,228.51C162.766,228.51 161.852,228.236 161.03,227.688C158.929,226.226 158.472,223.394 159.934,221.292C168.979,208.501 180.491,198.451 194.196,191.416C222.884,176.615 259.613,176.523 288.393,191.324C302.098,198.36 313.61,208.318 322.655,221.018C324.117,223.028 323.66,225.952 321.559,227.414C319.458,228.876 316.625,228.419 315.163,226.317C306.941,214.805 296.525,205.76 284.191,199.456C257.969,186.025 224.438,186.025 198.307,199.547C185.881,205.943 175.466,215.079 167.243,226.591C166.512,227.871 165.141,228.51 163.68,228.51ZM220.783,338.788C219.595,338.788 218.407,338.331 217.585,337.418C209.636,329.469 205.342,324.352 199.221,313.297C192.916,302.059 189.627,288.355 189.627,273.645C189.627,246.509 212.834,224.399 241.34,224.399C269.846,224.399 293.053,246.509 293.053,273.645C293.053,276.203 291.043,278.213 288.485,278.213C285.926,278.213 283.916,276.203 283.916,273.645C283.916,251.534 264.821,233.535 241.34,233.535C217.859,233.535 198.764,251.534 198.764,273.645C198.764,286.801 201.688,298.953 207.261,308.82C213.108,319.327 217.128,323.804 224.163,330.931C225.899,332.758 225.899,335.59 224.163,337.418C223.158,338.331 221.971,338.788 220.783,338.788ZM286.292,321.886C275.419,321.886 265.826,319.145 257.969,313.754C244.355,304.526 236.224,289.542 236.224,273.645C236.224,271.086 238.234,269.076 240.792,269.076C243.35,269.076 245.36,271.086 245.36,273.645C245.36,286.527 251.939,298.679 263.085,306.171C269.572,310.556 277.155,312.658 286.292,312.658C288.485,312.658 292.139,312.384 295.794,311.744C298.261,311.287 300.636,312.932 301.093,315.49C301.55,317.957 299.905,320.332 297.347,320.789C292.139,321.794 287.571,321.886 286.292,321.886ZM267.927,340.707C267.562,340.707 267.105,340.616 266.74,340.524C252.213,336.504 242.711,331.114 232.752,321.337C219.961,308.638 212.926,291.735 212.926,273.645C212.926,258.843 225.534,246.783 241.066,246.783C256.598,246.783 269.207,258.843 269.207,273.645C269.207,283.421 277.704,291.37 288.211,291.37C298.718,291.37 307.215,283.421 307.215,273.645C307.215,239.2 277.521,211.242 240.975,211.242C215.027,211.242 191.272,225.678 180.582,248.062C177.019,255.463 175.192,264.143 175.192,273.645C175.192,280.771 175.831,292.009 181.313,306.628C182.227,309.003 181.039,311.653 178.663,312.475C176.288,313.389 173.638,312.11 172.816,309.825C168.339,297.857 166.146,285.979 166.146,273.645C166.146,262.681 168.248,252.722 172.359,244.042C184.511,218.551 211.464,202.014 240.975,202.014C282.546,202.014 316.351,234.083 316.351,273.553C316.351,288.355 303.743,300.415 288.211,300.415C272.678,300.415 260.07,288.355 260.07,273.553C260.07,263.777 251.573,255.828 241.066,255.828C230.559,255.828 222.062,263.777 222.062,273.553C222.062,289.177 228.092,303.795 239.147,314.759C247.827,323.347 256.141,328.098 269.024,331.662C271.491,332.301 272.861,334.859 272.222,337.235C271.765,339.336 269.846,340.707 267.927,340.707Z" style="fill:rgb(1,51,125);"/>
                                    </g>
                                </g>
                            </g>
                        </g>
                    </g>
                </g>
                <g>
                    <circle cx="334.525" cy="211.569" r="35.407" style="fill:none;stroke:white;stroke-width:13.33px;stroke-linecap:round;stroke-miterlimit:0.348837;"/>
                    <circle cx="334.525" cy="211.569" r="35.407" style="fill:rgb(124,210,76);"/>
                    <path d="M343.63,216.866C343.63,218.094 343.318,219.245 342.692,220.32C342.066,221.395 341.144,222.281 339.928,222.977C338.712,223.674 337.277,224.082 335.623,224.2L335.623,227.07L333.356,227.07L333.356,224.164C330.994,223.952 329.092,223.237 327.652,222.021C326.211,220.804 325.467,219.157 325.419,217.078L330.734,217.078C330.876,218.779 331.75,219.806 333.356,220.161L333.356,213.394C331.655,212.968 330.285,212.543 329.246,212.118C328.207,211.693 327.309,211.008 326.553,210.063C325.797,209.118 325.419,207.831 325.419,206.201C325.419,204.146 326.158,202.469 327.634,201.17C329.11,199.871 331.017,199.127 333.356,198.938L333.356,196.068L335.623,196.068L335.623,198.938C337.891,199.127 339.704,199.812 341.062,200.993C342.42,202.174 343.182,203.804 343.347,205.882L337.997,205.882C337.926,205.197 337.684,204.601 337.271,204.093C336.857,203.585 336.308,203.225 335.623,203.013L335.623,209.709C337.395,210.158 338.794,210.589 339.822,211.002C340.849,211.415 341.741,212.089 342.497,213.022C343.253,213.955 343.63,215.236 343.63,216.866ZM330.592,205.953C330.592,206.733 330.828,207.365 331.301,207.849C331.773,208.333 332.458,208.729 333.356,209.036L333.356,202.906C332.505,203.024 331.832,203.343 331.336,203.863C330.84,204.383 330.592,205.079 330.592,205.953ZM335.623,220.232C336.521,220.066 337.224,219.7 337.731,219.133C338.239,218.566 338.493,217.881 338.493,217.078C338.493,216.299 338.245,215.673 337.749,215.2C337.253,214.728 336.545,214.338 335.623,214.031L335.623,220.232Z" style="fill:white;fill-rule:nonzero;stroke:white;stroke-width:0.32px;stroke-miterlimit:2;"/>
                </g>
                <g>
                    <circle cx="227.169" cy="146" r="35.407" style="fill:none;stroke:white;stroke-width:13.33px;stroke-linecap:round;stroke-miterlimit:0.348837;"/>
                    <circle cx="227.169" cy="146" r="35.407" style="fill:rgb(124,210,76);"/>
                    <path d="M236.275,151.297C236.275,152.525 235.962,153.677 235.336,154.752C234.71,155.826 233.789,156.712 232.572,157.409C231.356,158.106 229.921,158.513 228.268,158.631L228.268,161.501L226,161.501L226,158.596C223.638,158.383 221.737,157.669 220.296,156.452C218.855,155.236 218.111,153.588 218.064,151.51L223.378,151.51C223.52,153.21 224.394,154.238 226,154.592L226,147.825C224.3,147.4 222.93,146.975 221.89,146.55C220.851,146.124 219.953,145.439 219.198,144.495C218.442,143.55 218.064,142.263 218.064,140.633C218.064,138.578 218.802,136.901 220.278,135.602C221.754,134.303 223.662,133.559 226,133.37L226,130.5L228.268,130.5L228.268,133.37C230.535,133.559 232.348,134.244 233.706,135.425C235.064,136.606 235.826,138.235 235.991,140.314L230.641,140.314C230.571,139.629 230.329,139.033 229.915,138.525C229.502,138.017 228.953,137.657 228.268,137.444L228.268,144.14C230.039,144.589 231.439,145.02 232.466,145.434C233.494,145.847 234.385,146.52 235.141,147.453C235.897,148.386 236.275,149.667 236.275,151.297ZM223.237,140.385C223.237,141.164 223.473,141.796 223.945,142.28C224.418,142.765 225.103,143.16 226,143.467L226,137.338C225.15,137.456 224.477,137.775 223.981,138.294C223.485,138.814 223.237,139.511 223.237,140.385ZM228.268,154.663C229.165,154.498 229.868,154.132 230.376,153.565C230.884,152.998 231.138,152.313 231.138,151.51C231.138,150.73 230.89,150.104 230.393,149.632C229.897,149.16 229.189,148.77 228.268,148.463L228.268,154.663Z" style="fill:white;fill-rule:nonzero;"/>
                </g>
                <g>
                    <circle cx="170.527" cy="298.598" r="35.407" style="fill:none;stroke:white;stroke-width:13.33px;stroke-linecap:round;stroke-miterlimit:0.348837;"/>
                    <circle cx="170.527" cy="298.598" r="35.407" style="fill:rgb(124,210,76);"/>
                    <path d="M179.632,303.895C179.632,305.123 179.319,306.275 178.693,307.349C178.068,308.424 177.146,309.31 175.93,310.006C174.713,310.703 173.279,311.111 171.625,311.229L171.625,314.099L169.358,314.099L169.358,311.193C166.996,310.981 165.094,310.266 163.653,309.05C162.213,307.833 161.469,306.186 161.421,304.107L166.736,304.107C166.878,305.808 167.752,306.835 169.358,307.19L169.358,300.423C167.657,299.998 166.287,299.572 165.248,299.147C164.209,298.722 163.311,298.037 162.555,297.092C161.799,296.147 161.421,294.86 161.421,293.23C161.421,291.175 162.159,289.498 163.636,288.199C165.112,286.9 167.019,286.156 169.358,285.967L169.358,283.097L171.625,283.097L171.625,285.967C173.893,286.156 175.706,286.841 177.064,288.022C178.422,289.203 179.184,290.833 179.349,292.912L173.999,292.912C173.928,292.227 173.686,291.63 173.273,291.122C172.859,290.614 172.31,290.254 171.625,290.042L171.625,296.738C173.397,297.187 174.796,297.618 175.824,298.031C176.851,298.445 177.743,299.118 178.499,300.051C179.254,300.984 179.632,302.265 179.632,303.895ZM166.594,292.982C166.594,293.762 166.83,294.394 167.303,294.878C167.775,295.362 168.46,295.758 169.358,296.065L169.358,289.935C168.507,290.054 167.834,290.372 167.338,290.892C166.842,291.412 166.594,292.108 166.594,292.982ZM171.625,307.261C172.523,307.095 173.225,306.729 173.733,306.162C174.241,305.595 174.495,304.91 174.495,304.107C174.495,303.328 174.247,302.702 173.751,302.23C173.255,301.757 172.546,301.367 171.625,301.06L171.625,307.261Z" style="fill:white;fill-rule:nonzero;"/>
                </g>
            </g>
            <g>
                <path d="M313,311.829L346.986,370.693C348.384,373.115 347.553,376.216 345.131,377.614L336.356,382.681C333.934,384.079 330.833,383.248 329.435,380.826L295.449,321.962C294.051,319.541 294.882,316.44 297.304,315.041L306.079,309.975C308.501,308.577 311.602,309.408 313,311.829Z" style="fill:rgb(1,55,125);"/>
                <path d="M269.699,257.096C289.251,245.808 314.288,252.517 325.576,272.068C336.863,291.619 330.155,316.656 310.604,327.944C291.053,339.232 266.015,332.523 254.727,312.972C243.44,293.421 250.148,268.384 269.699,257.096Z" style="fill:rgb(1,55,125);"/>
                <path d="M276.164,268.293C289.535,260.573 306.659,265.161 314.379,278.532C322.099,291.904 317.511,309.027 304.139,316.747C290.768,324.467 273.644,319.879 265.924,306.508C258.204,293.136 262.793,276.013 276.164,268.293Z" style="fill:white;"/>
            </g>
        </g>
    </g>
    <defs>
        <filter id="_Effect1" filterUnits="userSpaceOnUse" x="-48" y="-48" width="589.953" height="589.953">
            <feGaussianBlur in="SourceGraphic" stdDeviation="16"/>
        </filter>
    </defs>
</svg>
