<?xml version="1.0" encoding="UTF-8" standalone="no"?>
<!DOCTYPE svg PUBLIC "-//W3C//DTD SVG 1.1//EN" "http://www.w3.org/Graphics/SVG/1.1/DTD/svg11.dtd">
<svg width="100%" height="100%" viewBox="0 0 379 379" version="1.1" xmlns="http://www.w3.org/2000/svg" xmlns:xlink="http://www.w3.org/1999/xlink" xml:space="preserve" xmlns:serif="http://www.serif.com/" style="fill-rule:evenodd;clip-rule:evenodd;stroke-linejoin:round;stroke-miterlimit:0.73;">
    <g>
        <g>
            <path d="M378.185,132.516L378.185,245.902C378.185,318.911 318.911,378.185 245.902,378.185L132.516,378.185C59.507,378.185 0.232,318.911 0.232,245.902L0.232,132.516C0.232,59.507 59.507,0.232 132.516,0.232L245.902,0.232C318.911,0.232 378.185,59.507 378.185,132.516Z" style="fill:white;stroke:white;stroke-width:0.46px;"/>
        </g>
        <g>
            <g>
                <g>
                    <path d="M262.656,149.904L262.656,204.25C262.656,219.247 250.48,231.423 235.483,231.423L142.935,231.423C127.937,231.423 115.761,219.247 115.761,204.25L115.761,149.904C115.761,134.906 127.937,122.73 142.935,122.73L235.483,122.73C250.48,122.73 262.656,134.906 262.656,149.904Z" style="fill:rgb(1,55,125);"/>
                    <path d="M257.535,247.384C257.535,251.967 253.814,255.687 249.231,255.687L129.186,255.687C124.603,255.687 120.883,251.967 120.883,247.384C120.883,242.801 124.603,239.08 129.186,239.08L249.231,239.08C253.814,239.08 257.535,242.801 257.535,247.384Z" style="fill:rgb(1,55,125);"/>
                    <path d="M252.414,155.727L252.414,198.426C252.414,210.209 242.847,219.775 231.064,219.775L147.353,219.775C135.57,219.775 126.004,210.209 126.004,198.426L126.004,155.727C126.004,143.944 135.57,134.378 147.353,134.378L231.064,134.378C242.847,134.378 252.414,143.944 252.414,155.727Z" style="fill:white;"/>
                    <path d="M226.26,158.503C225.82,157.571 226.218,156.457 227.15,156.016C228.082,155.576 229.196,155.974 229.637,156.906C230.583,158.906 231.112,161.141 231.112,163.498L231.112,171.119C231.112,172.149 230.276,172.986 229.245,172.986C228.214,172.986 227.377,172.149 227.377,171.119L227.377,163.498C227.377,161.712 226.977,160.018 226.26,158.503ZM227.377,183.035C227.377,182.004 228.214,181.167 229.245,181.167C230.276,181.167 231.112,182.004 231.112,183.035L231.112,190.655C231.112,193.013 230.583,195.247 229.637,197.247C229.196,198.179 228.082,198.578 227.15,198.137C226.218,197.696 225.82,196.582 226.26,195.65C226.977,194.135 227.377,192.442 227.377,190.655L227.377,183.035ZM220.661,201.249C221.593,200.809 222.707,201.207 223.148,202.139C223.589,203.071 223.19,204.185 222.258,204.626C220.258,205.572 218.024,206.101 215.666,206.101L210.717,206.101C209.686,206.101 208.849,205.265 208.849,204.234C208.849,203.203 209.686,202.366 210.717,202.366L215.666,202.366C217.453,202.366 219.146,201.966 220.661,201.249ZM202.977,202.366C204.008,202.366 204.845,203.203 204.845,204.234C204.845,205.265 204.008,206.101 202.977,206.101L193.078,206.101C192.048,206.101 191.211,205.265 191.211,204.234C191.211,203.203 192.048,202.366 193.078,202.366L202.977,202.366ZM185.339,202.366C186.37,202.366 187.207,203.203 187.207,204.234C187.207,205.265 186.37,206.101 185.339,206.101L175.44,206.101C174.409,206.101 173.573,205.265 173.573,204.234C173.573,203.203 174.409,202.366 175.44,202.366L185.339,202.366ZM167.701,202.366C168.732,202.366 169.568,203.203 169.568,204.234C169.568,205.265 168.732,206.101 167.701,206.101L162.751,206.101C160.394,206.101 158.159,205.572 156.159,204.626C155.228,204.185 154.829,203.071 155.27,202.139C155.71,201.207 156.825,200.809 157.756,201.249C159.272,201.966 160.965,202.366 162.751,202.366L167.701,202.366ZM152.157,195.65C152.598,196.582 152.199,197.696 151.267,198.137C150.336,198.578 149.221,198.179 148.781,197.247C147.835,195.247 147.305,193.013 147.305,190.655L147.305,183.035C147.305,182.004 148.142,181.167 149.173,181.167C150.203,181.167 151.04,182.004 151.04,183.035L151.04,190.655C151.04,192.442 151.44,194.135 152.157,195.65ZM151.04,171.119C151.04,172.149 150.203,172.986 149.173,172.986C148.142,172.986 147.305,172.149 147.305,171.119L147.305,163.498C147.305,161.141 147.835,158.906 148.781,156.906C149.221,155.974 150.336,155.576 151.267,156.016C152.199,156.457 152.598,157.571 152.157,158.503C151.44,160.018 151.04,161.712 151.04,163.498L151.04,171.119ZM157.756,152.904C156.825,153.345 155.71,152.946 155.27,152.014C154.829,151.082 155.228,149.968 156.159,149.528C158.159,148.582 160.394,148.052 162.751,148.052L167.701,148.052C168.732,148.052 169.568,148.889 169.568,149.919C169.568,150.95 168.732,151.787 167.701,151.787L162.751,151.787C160.965,151.787 159.272,152.187 157.756,152.904ZM175.44,151.787C174.409,151.787 173.573,150.95 173.573,149.919C173.573,148.889 174.409,148.052 175.44,148.052L185.339,148.052C186.37,148.052 187.207,148.889 187.207,149.919C187.207,150.95 186.37,151.787 185.339,151.787L175.44,151.787ZM193.078,151.787C192.048,151.787 191.211,150.95 191.211,149.919C191.211,148.889 192.048,148.052 193.078,148.052L202.978,148.052C204.008,148.052 204.845,148.889 204.845,149.919C204.845,150.95 204.008,151.787 202.978,151.787L193.078,151.787ZM210.717,151.787C209.686,151.787 208.849,150.95 208.849,149.919C208.849,148.889 209.686,148.052 210.717,148.052L215.666,148.052C218.024,148.052 220.258,148.582 222.258,149.528C223.19,149.968 223.589,151.082 223.148,152.014C222.707,152.946 221.593,153.345 220.661,152.904C219.146,152.187 217.453,151.787 215.666,151.787L210.717,151.787Z" style="fill:rgb(1,55,125);"/>
                    <path d="M229.245,163.498L229.245,190.655C229.245,198.15 223.161,204.234 215.666,204.234L162.751,204.234C155.257,204.234 149.173,198.15 149.173,190.655L149.173,163.498C149.173,156.004 155.257,149.919 162.751,149.919L215.666,149.919C223.161,149.919 229.245,156.004 229.245,163.498Z" style="fill:rgb(124,210,76);"/>
                    <path d="M186.446,187.699C185.199,188.985 183.176,188.985 181.931,187.7L175.828,181.403C174.582,180.118 174.583,178.03 175.829,176.744C177.075,175.458 179.098,175.458 180.344,176.743L186.447,183.04C187.692,184.325 187.692,186.413 186.446,187.699Z" style="fill:rgb(1,55,125);"/>
                    <path d="M202.589,166.442C203.835,167.728 203.836,169.815 202.59,171.101L186.49,187.713C185.245,188.998 183.221,188.997 181.975,187.712C180.729,186.426 180.728,184.338 181.974,183.053L198.074,166.441C199.319,165.155 201.342,165.156 202.589,166.442Z" style="fill:rgb(1,55,125);"/>
                </g>
                <path d="M367.722,166.597L367.722,189.294C367.722,195.558 362.637,200.643 356.373,200.643L310.018,200.643C303.754,200.643 298.669,195.558 298.669,189.294L298.669,166.597C298.669,160.333 303.754,155.248 310.018,155.248L356.373,155.248C362.637,155.248 367.722,160.333 367.722,166.597Z" style="fill:rgb(124,210,76);"/>
                <path d="M79.749,167.357L79.749,190.055C79.749,196.318 74.663,201.404 68.4,201.404L22.044,201.404C15.781,201.404 10.696,196.318 10.696,190.055L10.696,167.357C10.696,161.094 15.781,156.009 22.044,156.009L68.4,156.009C74.663,156.009 79.749,161.094 79.749,167.357Z" style="fill:rgb(1,55,125);"/>
                <path d="M102.923,177.061C103.516,177.396 103.883,178.025 103.883,178.706C103.883,179.387 103.516,180.016 102.923,180.351C99.966,182.022 95.418,184.591 92.494,186.243C91.909,186.574 91.193,186.569 90.612,186.23C90.032,185.891 89.675,185.27 89.675,184.598L89.675,172.814C89.675,172.142 90.032,171.521 90.612,171.182C91.193,170.844 91.909,170.839 92.494,171.169C95.418,172.821 99.966,175.39 102.923,177.061Z" style="fill:rgb(1,55,125);"/>
                <path d="M285.83,174.839C286.424,175.174 286.79,175.802 286.79,176.484C286.79,177.165 286.424,177.794 285.83,178.129C282.873,179.8 278.325,182.369 275.402,184.021C274.817,184.351 274.1,184.346 273.52,184.008C272.939,183.669 272.583,183.047 272.583,182.375L272.583,170.592C272.583,169.92 272.939,169.299 273.52,168.96C274.1,168.621 274.817,168.616 275.402,168.947C278.325,170.598 282.873,173.168 285.83,174.839Z" style="fill:rgb(1,55,125);"/>
            </g>
            <path d="M304.915,69.79C304.914,69.758 304.914,69.726 304.914,69.695C304.914,67.119 307.005,65.028 309.581,65.028L320.073,65.028L321.929,65.404L323.44,66.423L324.458,67.934L324.835,69.79L324.458,71.646L323.44,73.157L321.929,74.175L320.073,74.552L309.581,74.552C307.005,74.552 304.914,72.461 304.914,69.885C304.914,69.853 304.914,69.821 304.915,69.79ZM267.525,69.783C267.525,69.754 267.525,69.724 267.525,69.695C267.525,67.119 269.616,65.028 272.191,65.028L293.175,65.028C295.751,65.028 297.842,67.119 297.842,69.695C297.842,69.73 297.841,69.765 297.841,69.801C297.841,69.829 297.841,69.857 297.841,69.885C297.841,72.461 295.75,74.552 293.175,74.552L272.191,74.552C269.615,74.552 267.524,72.461 267.524,69.885C267.524,69.851 267.525,69.817 267.525,69.783ZM260.451,69.794C260.452,69.824 260.452,69.855 260.452,69.885C260.452,72.461 258.361,74.552 255.785,74.552L234.802,74.552C232.226,74.552 230.135,72.461 230.135,69.885C230.135,69.853 230.135,69.822 230.136,69.791C230.135,69.759 230.135,69.727 230.135,69.695C230.135,67.119 232.226,65.028 234.801,65.028L255.786,65.028C258.361,65.028 260.452,67.119 260.452,69.695C260.452,69.728 260.452,69.761 260.451,69.794ZM223.061,69.779C223.062,69.814 223.062,69.85 223.062,69.885C223.062,72.461 220.971,74.552 218.396,74.552L197.412,74.552C194.836,74.552 192.745,72.461 192.745,69.885C192.745,69.857 192.745,69.83 192.746,69.803C192.745,69.767 192.745,69.731 192.745,69.695C192.745,67.119 194.836,65.028 197.411,65.028L218.395,65.028C220.971,65.028 223.062,67.119 223.062,69.695C223.062,69.723 223.062,69.751 223.061,69.779ZM185.672,69.777C185.673,69.813 185.673,69.849 185.673,69.885C185.673,72.461 183.582,74.552 181.006,74.552L160.022,74.552C157.447,74.552 155.356,72.461 155.356,69.885C155.356,69.857 155.356,69.829 155.356,69.8C155.356,69.765 155.355,69.73 155.355,69.695C155.355,67.119 157.446,65.028 160.022,65.028L181.006,65.028C183.581,65.028 185.672,67.119 185.672,69.695C185.672,69.722 185.672,69.749 185.672,69.777ZM117.966,69.785C117.966,69.755 117.966,69.725 117.966,69.695C117.966,67.119 120.057,65.028 122.632,65.028L143.616,65.028C146.192,65.028 148.283,67.119 148.283,69.695C148.283,69.726 148.282,69.757 148.282,69.789C148.283,69.821 148.283,69.853 148.283,69.885C148.283,72.461 146.192,74.552 143.616,74.552L122.632,74.552C120.057,74.552 117.965,72.461 117.965,69.885C117.965,69.852 117.966,69.818 117.966,69.785ZM80.577,69.779C80.576,69.751 80.576,69.723 80.576,69.695C80.576,67.119 82.667,65.028 85.243,65.028L106.227,65.028C108.802,65.028 110.893,67.119 110.893,69.695C110.893,69.729 110.893,69.762 110.892,69.796C110.893,69.826 110.893,69.855 110.893,69.885C110.893,72.461 108.802,74.552 106.226,74.552L85.242,74.552C82.667,74.552 80.576,72.461 80.576,69.885C80.576,69.849 80.576,69.814 80.577,69.779ZM73.503,69.79C73.503,69.821 73.504,69.853 73.504,69.885C73.504,72.461 71.413,74.552 68.837,74.552L58.345,74.552L56.489,74.175L54.978,73.157L53.96,71.646L53.583,69.79L53.96,67.934L54.978,66.423L56.489,65.404L58.345,65.028L68.837,65.028C71.413,65.028 73.504,67.119 73.504,69.695C73.504,69.726 73.503,69.758 73.503,69.79Z" style="fill:rgb(1,55,125);"/>
            <path d="M304.915,308.628C304.914,308.596 304.914,308.565 304.914,308.533C304.914,305.957 307.005,303.866 309.581,303.866L320.073,303.866L321.929,304.243L323.44,305.261L324.458,306.772L324.835,308.628L324.458,310.484L323.44,311.995L321.929,313.013L320.073,313.39L309.581,313.39C307.005,313.39 304.914,311.299 304.914,308.723C304.914,308.691 304.914,308.66 304.915,308.628ZM267.525,308.621C267.525,308.592 267.525,308.562 267.525,308.533C267.525,305.957 269.616,303.866 272.191,303.866L293.175,303.866C295.751,303.866 297.842,305.957 297.842,308.533C297.842,308.568 297.841,308.604 297.841,308.639C297.841,308.667 297.841,308.695 297.841,308.723C297.841,311.299 295.75,313.39 293.175,313.39L272.191,313.39C269.615,313.39 267.524,311.299 267.524,308.723C267.524,308.689 267.525,308.655 267.525,308.621ZM260.451,308.632C260.452,308.663 260.452,308.693 260.452,308.723C260.452,311.299 258.361,313.39 255.785,313.39L234.802,313.39C232.226,313.39 230.135,311.299 230.135,308.723C230.135,308.692 230.135,308.66 230.136,308.629C230.135,308.597 230.135,308.565 230.135,308.533C230.135,305.957 232.226,303.866 234.801,303.866L255.786,303.866C258.361,303.866 260.452,305.957 260.452,308.533C260.452,308.566 260.452,308.599 260.451,308.632ZM223.061,308.617C223.062,308.652 223.062,308.688 223.062,308.723C223.062,311.299 220.971,313.39 218.396,313.39L197.412,313.39C194.836,313.39 192.745,311.299 192.745,308.723C192.745,308.696 192.745,308.668 192.746,308.641C192.745,308.605 192.745,308.569 192.745,308.533C192.745,305.957 194.836,303.866 197.411,303.866L218.395,303.866C220.971,303.866 223.062,305.957 223.062,308.533C223.062,308.561 223.062,308.589 223.061,308.617ZM185.672,308.615C185.673,308.651 185.673,308.687 185.673,308.723C185.673,311.299 183.582,313.39 181.006,313.39L160.022,313.39C157.447,313.39 155.356,311.299 155.356,308.723C155.356,308.695 155.356,308.667 155.356,308.639C155.356,308.603 155.355,308.568 155.355,308.533C155.355,305.957 157.446,303.866 160.022,303.866L181.006,303.866C183.581,303.866 185.672,305.957 185.672,308.533C185.672,308.56 185.672,308.588 185.672,308.615ZM117.966,308.623C117.966,308.593 117.966,308.563 117.966,308.533C117.966,305.957 120.057,303.866 122.632,303.866L143.616,303.866C146.192,303.866 148.283,305.957 148.283,308.533C148.283,308.564 148.282,308.596 148.282,308.627C148.283,308.659 148.283,308.691 148.283,308.723C148.283,311.299 146.192,313.39 143.616,313.39L122.632,313.39C120.057,313.39 117.965,311.299 117.965,308.723C117.965,308.69 117.966,308.657 117.966,308.623ZM80.577,308.617C80.576,308.589 80.576,308.561 80.576,308.533C80.576,305.957 82.667,303.866 85.243,303.866L106.227,303.866C108.802,303.866 110.893,305.957 110.893,308.533C110.893,308.567 110.893,308.601 110.892,308.634C110.893,308.664 110.893,308.693 110.893,308.723C110.893,311.299 108.802,313.39 106.226,313.39L85.242,313.39C82.667,313.39 80.576,311.299 80.576,308.723C80.576,308.688 80.576,308.652 80.577,308.617ZM73.503,308.628C73.503,308.66 73.504,308.691 73.504,308.723C73.504,311.299 71.413,313.39 68.837,313.39L58.345,313.39L56.489,313.013L54.978,311.995L53.96,310.484L53.583,308.628L53.96,306.772L54.978,305.261L56.489,304.243L58.345,303.866L68.837,303.866C71.413,303.866 73.504,305.957 73.504,308.533C73.504,308.565 73.503,308.596 73.503,308.628Z" style="fill:rgb(1,55,125);"/>
        </g>
    </g>
</svg>
