<?xml version="1.0" encoding="UTF-8" standalone="no"?>
<!DOCTYPE svg PUBLIC "-//W3C//DTD SVG 1.1//EN" "http://www.w3.org/Graphics/SVG/1.1/DTD/svg11.dtd">
<svg width="100%" height="100%" viewBox="0 0 379 379" version="1.1" xmlns="http://www.w3.org/2000/svg" xmlns:xlink="http://www.w3.org/1999/xlink" xml:space="preserve" xmlns:serif="http://www.serif.com/" style="fill-rule:evenodd;clip-rule:evenodd;stroke-linejoin:round;stroke-miterlimit:0.73;">
    <g>
        <g>
            <path d="M378.185,132.516L378.185,245.902C378.185,318.911 318.911,378.185 245.902,378.185L132.516,378.185C59.507,378.185 0.232,318.911 0.232,245.902L0.232,132.516C0.232,59.507 59.507,0.232 132.516,0.232L245.902,0.232C318.911,0.232 378.185,59.507 378.185,132.516Z" style="fill:white;stroke:white;stroke-width:0.46px;"/>
        </g>
        <g>
            <path d="M195.492,60.87L199.807,81.881C208.16,83.159 216.346,85.353 224.219,88.422L238.462,72.384C246.433,76.008 254.033,80.396 261.156,85.486L254.388,105.84C260.983,111.123 266.976,117.116 272.259,123.711L292.613,116.943C297.703,124.066 302.091,131.666 305.715,139.637L289.677,153.88C292.746,161.753 294.94,169.939 296.218,178.291L317.229,182.607C318.076,191.322 318.076,200.098 317.229,208.812L296.218,213.128C294.94,221.481 292.746,229.667 289.677,237.54L305.715,251.783C302.091,259.753 297.703,267.353 292.613,274.477L272.259,267.709C266.976,274.303 260.983,280.296 254.388,285.579L261.156,305.933C254.033,311.024 246.433,315.412 238.462,319.036L224.219,302.998C216.346,306.067 208.16,308.26 199.807,309.539L195.492,330.55C186.777,331.397 178.001,331.397 169.287,330.55L164.971,309.539C156.618,308.26 148.432,306.067 140.559,302.998L126.316,319.036C118.346,315.412 110.746,311.024 103.622,305.933L110.39,285.579C103.796,280.296 97.803,274.303 92.52,267.709L72.166,274.477C67.075,267.353 62.687,259.753 59.063,251.783L75.101,237.54C72.032,229.667 69.838,221.481 68.56,213.128L47.549,208.812C46.702,200.098 46.702,191.322 47.549,182.607L68.56,178.291C69.838,169.939 72.032,161.753 75.101,153.88L59.063,139.637C62.687,131.666 67.075,124.066 72.166,116.943L92.52,123.711C97.803,117.116 103.796,111.123 110.39,105.84L103.622,85.486C110.746,80.396 118.346,76.008 126.316,72.384L140.559,88.422C148.432,85.353 156.618,83.159 164.971,81.881L169.287,60.87C178.001,60.023 186.777,60.023 195.492,60.87ZM182.389,103.881C233.071,103.881 274.218,145.028 274.218,195.71C274.218,246.391 233.071,287.538 182.389,287.538C131.708,287.538 90.561,246.391 90.561,195.71C90.561,145.028 131.708,103.881 182.389,103.881Z" style="fill:rgb(126,211,79);"/>
            <g>
                <circle cx="95.69" cy="288.932" r="54.958" style="fill:rgb(1,55,125);"/>
                <path d="M110.485,297.539C110.485,299.535 109.976,301.405 108.959,303.152C107.942,304.898 106.445,306.337 104.469,307.469C102.492,308.601 100.161,309.264 97.474,309.455L97.474,314.118L93.79,314.118L93.79,309.398C89.952,309.052 86.863,307.891 84.522,305.915C82.18,303.938 80.972,301.262 80.895,297.884L89.53,297.884C89.76,300.648 91.18,302.317 93.79,302.893L93.79,291.897C91.027,291.206 88.801,290.516 87.112,289.825C85.423,289.134 83.965,288.021 82.737,286.486C81.509,284.951 80.895,282.859 80.895,280.211C80.895,276.872 82.094,274.147 84.493,272.036C86.891,269.925 89.991,268.716 93.79,268.409L93.79,263.746L97.474,263.746L97.474,268.409C101.159,268.716 104.104,269.829 106.311,271.748C108.518,273.667 109.755,276.315 110.024,279.693L101.331,279.693C101.216,278.58 100.823,277.611 100.151,276.786C99.48,275.96 98.587,275.375 97.474,275.03L97.474,285.91C100.353,286.639 102.627,287.34 104.296,288.011C105.966,288.683 107.414,289.777 108.643,291.293C109.871,292.809 110.485,294.891 110.485,297.539ZM89.3,279.808C89.3,281.074 89.683,282.101 90.451,282.888C91.219,283.675 92.332,284.317 93.79,284.816L93.79,274.857C92.408,275.049 91.315,275.567 90.509,276.411C89.703,277.256 89.3,278.388 89.3,279.808ZM97.474,303.008C98.933,302.739 100.074,302.144 100.9,301.223C101.725,300.302 102.137,299.189 102.137,297.884C102.137,296.618 101.734,295.601 100.928,294.833C100.122,294.066 98.971,293.432 97.474,292.933L97.474,303.008Z" style="fill:white;fill-rule:nonzero;"/>
            </g>
            <g>
                <circle cx="277.156" cy="90.722" r="54.958" style="fill:rgb(1,55,125);"/>
                <path d="M255.424,79.208C255.424,76.292 256.278,74.008 257.985,72.358C259.693,70.707 261.89,69.882 264.577,69.882C267.263,69.882 269.461,70.707 271.168,72.358C272.876,74.008 273.73,76.292 273.73,79.208C273.73,82.163 272.876,84.466 271.168,86.116C269.461,87.767 267.263,88.592 264.577,88.592C261.89,88.592 259.693,87.767 257.985,86.116C256.278,84.466 255.424,82.163 255.424,79.208ZM292.382,70.573L269.758,110.871L261.929,110.871L284.495,70.573L292.382,70.573ZM264.519,74.718C262.409,74.718 261.353,76.215 261.353,79.208C261.353,82.24 262.409,83.756 264.519,83.756C265.556,83.756 266.362,83.382 266.937,82.634C267.513,81.885 267.801,80.743 267.801,79.208C267.801,76.215 266.707,74.718 264.519,74.718ZM280.696,102.178C280.696,99.223 281.55,96.93 283.258,95.299C284.966,93.667 287.163,92.852 289.849,92.852C292.536,92.852 294.714,93.667 296.383,95.299C298.053,96.93 298.887,99.223 298.887,102.178C298.887,105.133 298.053,107.436 296.383,109.086C294.714,110.736 292.536,111.561 289.849,111.561C287.124,111.561 284.918,110.736 283.229,109.086C281.54,107.436 280.696,105.133 280.696,102.178ZM289.792,97.688C287.604,97.688 286.51,99.184 286.51,102.178C286.51,105.21 287.604,106.726 289.792,106.726C291.941,106.726 293.015,105.21 293.015,102.178C293.015,99.184 291.941,97.688 289.792,97.688Z" style="fill:white;fill-rule:nonzero;"/>
            </g>
            <path d="M182.389,119.848C146.626,119.848 117.365,149.109 117.365,184.872L117.365,201.128C117.365,216.301 129.286,228.222 144.458,228.222C147.709,228.222 149.877,226.055 149.877,222.803L149.877,179.454C149.877,176.202 147.709,174.035 144.458,174.035C138.498,174.035 133.079,176.202 128.744,179.454C131.453,152.36 154.754,130.685 182.389,130.685C210.025,130.685 233.325,151.818 236.035,179.454C231.7,176.202 226.281,174.035 220.32,174.035C217.069,174.035 214.902,176.202 214.902,179.454L214.902,222.803C214.902,226.055 217.069,228.222 220.32,228.222C223.571,228.222 227.365,227.68 230.074,226.055C224.113,236.892 214.902,245.562 203.522,250.439C202.438,243.936 197.02,238.518 189.975,238.518C182.931,238.518 176.971,244.478 176.971,251.523C176.971,255.316 178.596,259.109 181.847,261.818C184.557,263.986 187.266,265.069 190.517,265.069L192.685,265.069C223.571,260.734 247.414,233.099 247.414,201.128L247.414,184.872C247.414,149.109 218.153,119.848 182.389,119.848Z" style="fill:rgb(1,55,125);fill-rule:nonzero;"/>
        </g>
    </g>
</svg>
