<?xml version="1.0" encoding="UTF-8" standalone="no"?>
<!DOCTYPE svg PUBLIC "-//W3C//DTD SVG 1.1//EN" "http://www.w3.org/Graphics/SVG/1.1/DTD/svg11.dtd">
<svg width="100%" height="100%" viewBox="0 0 125 125" version="1.1" xmlns="http://www.w3.org/2000/svg" xmlns:xlink="http://www.w3.org/1999/xlink" xml:space="preserve" xmlns:serif="http://www.serif.com/" style="fill-rule:evenodd;clip-rule:evenodd;stroke-linejoin:round;stroke-miterlimit:2;">
    <g transform="matrix(0.209015,0,0,0.209015,63.968,62.509191)">
        <g transform="matrix(1,0,0,1,-300,-225)">
            <g>
                <path d="M184.4,147.2C182.2,147.2 180.2,149.4 180.2,151.4L180.2,275C180.2,277.2 182.4,279.2 184.4,279.2L190.6,279.2C192.8,279.2 194.2,277.5 195.1,275L197.1,268.3C197.1,268.3 207.2,281.4 226.5,281.4C250.5,281.4 267.9,260.6 267.9,235.6C267.9,210.3 251.4,190.3 225.4,190.3C217,190.3 208.1,192.5 204.2,194.2L204.2,151.4C204.2,149.2 202.2,147.2 200,147.2L184.4,147.2ZM244.2,235.6C244.2,248.1 237.2,259.8 223.5,259.8C212,259.8 205.9,252.9 204.2,247.9L204.2,216.8C204.2,216.8 211.5,211.8 222.4,211.8C236.7,211.7 244.2,223.3 244.2,235.6Z" style="fill:rgb(8,59,91);"/>
                <path d="M317.2,322.3C341,322.3 360.8,308.1 360.8,280.1L360.5,196.5C360.5,194.3 358.5,192.3 356.3,192.3L349.3,192.3C347.1,192.3 345.9,194 345.1,196.5L342.9,203.4C342.9,203.4 332.8,190.3 314.1,190.3C290.3,190.3 272.2,209.8 272.2,236.1C272.2,261.4 289.8,281.4 315.8,281.4C324.5,281.4 332.9,279.2 336.8,277.8L336.8,280.3C336.8,296.4 329.5,300.9 316.1,300.9C307.2,300.9 298.8,296.2 295.4,294.2C293.7,293.1 291.2,293.6 290.4,295.3L284.8,307.5C283.7,309.2 284.2,311.4 285.6,312.5C289.8,315.6 302.7,322.3 317.2,322.3ZM317.8,211.7C329,211.7 335.1,218.9 337.1,223.9L337.1,254.7C337.1,254.7 329.8,259.7 318.9,259.7C304.6,259.7 297.1,248 297.1,235.8C297.1,223.3 304.1,211.7 317.8,211.7Z" style="fill:rgb(8,59,91);"/>
                <path d="M375.7,151.4C375.7,149.5 377.7,147.2 379.9,147.2L395.3,147.2C397.3,147.2 399.5,149.1 399.5,151.4L399.5,275C399.5,277.2 397.5,279.2 395.3,279.2L380.2,279.2C378.2,279.2 376,277.3 376,275L376,151.4L375.7,151.4Z" style="fill:rgb(8,59,91);fill-rule:nonzero;"/>
                <path d="M474.6,257.2C474.6,245.3 464.3,235 452.2,235C439.9,235 430.1,245.3 430.1,257.2C430.1,268.9 440.2,279.2 452.2,279.2C464.3,279.2 474.6,268.9 474.6,257.2Z" style="fill:rgb(8,59,91);fill-rule:nonzero;"/>
            </g>
            <path d="M458.4,220.3C455.6,220.3 453.1,218.1 452.8,215.3C450.3,177.8 434.6,142.2 408.1,115.3C381.5,88.3 346.3,71.7 308.8,68.1C305.7,67.8 303.5,65 303.8,62.3C304.1,59.2 306.9,57 309.7,57.3C350,60.9 387.4,78.7 415.9,107.6C444.1,136.5 461.2,174.6 463.7,214.9C464,218 461.5,220.5 458.7,220.7C458.7,220.3 458.4,220.3 458.4,220.3Z" style="fill:rgb(25,154,154);fill-rule:nonzero;"/>
            <path d="M130.4,215.6L129.8,215.6C126.7,215.3 124.5,212.5 124.8,209.8C132.3,128.7 197.2,64.8 278.9,57.3C282,57 284.5,59.2 284.8,62.3C285.1,65.4 282.8,67.9 279.8,68.1C203.5,75 143.1,134.8 135.8,210.6C135.8,213.3 133.2,215.6 130.4,215.6Z" style="fill:rgb(8,59,91);fill-rule:nonzero;"/>
            <path d="M279.5,393.7L278.9,393.7C196.7,386.5 132.1,322 124.8,240.6C124.5,237.5 126.8,235 129.8,234.8C132.9,234.5 135.4,236.7 135.7,239.8C142.4,315.9 203.1,376.2 279.7,382.9C282.8,383.2 285,386 284.7,388.7C284.8,391.5 282.3,393.7 279.5,393.7Z" style="fill:rgb(4,128,184);fill-rule:nonzero;"/>
            <path d="M308.8,393.7C306,393.7 303.5,391.5 303.2,388.7C302.9,385.6 305.2,383.1 308.2,382.9C362.7,378.2 411.9,344.6 436.5,295.4C437.9,292.6 441.3,291.5 443.8,292.9C446.6,294.3 447.7,297.6 446.3,300.1C420,352.6 367.5,388.5 309,393.5C309.1,393.7 309.1,393.7 308.8,393.7Z" style="fill:rgb(115,157,64);fill-rule:nonzero;"/>
        </g>
    </g>
</svg>
