<?xml version="1.0" encoding="utf-8"?>
<!-- Generator: Adobe Illustrator 26.0.3, SVG Export Plug-In . SVG Version: 6.00 Build 0)  -->
<svg version="1.0" id="katman_1" xmlns="http://www.w3.org/2000/svg" xmlns:xlink="http://www.w3.org/1999/xlink" x="0px" y="0px"
	 viewBox="0 0 600 450" style="enable-background:new 0 0 600 450;" xml:space="preserve">
<style type="text/css">
	.st0{fill-rule:evenodd;clip-rule:evenodd;fill:#083B5B;}
	.st1{fill:#083B5B;}
	.st2{fill:#199A9A;}
	.st3{fill:#0480B8;}
	.st4{fill:#739D40;}
</style>
<g>
	<path class="st0" d="M184.4,147.2c-2.2,0-4.2,2.2-4.2,4.2V275c0,2.2,2.2,4.2,4.2,4.2h6.2c2.2,0,3.6-1.7,4.5-4.2l2-6.7
		c0,0,10.1,13.1,29.4,13.1c24,0,41.4-20.8,41.4-45.8c0-25.3-16.5-45.3-42.5-45.3c-8.4,0-17.3,2.2-21.2,3.9v-42.8
		c0-2.2-2-4.2-4.2-4.2L184.4,147.2z M244.2,235.6c0,12.5-7,24.2-20.7,24.2c-11.5,0-17.6-6.9-19.3-11.9v-31.1c0,0,7.3-5,18.2-5
		C236.7,211.7,244.2,223.3,244.2,235.6z"/>
	<path class="st0" d="M317.2,322.3c23.8,0,43.6-14.2,43.6-42.2l-0.3-83.6c0-2.2-2-4.2-4.2-4.2h-7c-2.2,0-3.4,1.7-4.2,4.2l-2.2,6.9
		c0,0-10.1-13.1-28.8-13.1c-23.8,0-41.9,19.5-41.9,45.8c0,25.3,17.6,45.3,43.6,45.3c8.7,0,17.1-2.2,21-3.6v2.5
		c0,16.1-7.3,20.6-20.7,20.6c-8.9,0-17.3-4.7-20.7-6.7c-1.7-1.1-4.2-0.6-5,1.1l-5.6,12.2c-1.1,1.7-0.6,3.9,0.8,5
		C289.8,315.6,302.7,322.3,317.2,322.3z M317.8,211.7c11.2,0,17.3,7.2,19.3,12.2v30.8c0,0-7.3,5-18.2,5c-14.3,0-21.8-11.7-21.8-23.9
		C297.1,223.3,304.1,211.7,317.8,211.7z"/>
	<path class="st1" d="M375.7,151.4c0-1.9,2-4.2,4.2-4.2h15.4c2,0,4.2,1.9,4.2,4.2V275c0,2.2-2,4.2-4.2,4.2h-15.1
		c-2,0-4.2-1.9-4.2-4.2V151.4L375.7,151.4z"/>
	<path class="st1" d="M474.6,257.2c0-11.9-10.3-22.2-22.4-22.2c-12.3,0-22.1,10.3-22.1,22.2c0,11.7,10.1,22,22.1,22
		C464.3,279.2,474.6,268.9,474.6,257.2z"/>
</g>
<path class="st2" d="M458.4,220.3c-2.8,0-5.3-2.2-5.6-5c-2.5-37.5-18.2-73.1-44.7-100c-26.6-27-61.8-43.6-99.3-47.2
	c-3.1-0.3-5.3-3.1-5-5.8c0.3-3.1,3.1-5.3,5.9-5c40.3,3.6,77.7,21.4,106.2,50.3c28.2,28.9,45.3,67,47.8,107.3c0.3,3.1-2.2,5.6-5,5.8
	C458.7,220.3,458.4,220.3,458.4,220.3z"/>
<path class="st1" d="M130.4,215.6c-0.3,0-0.3,0-0.6,0c-3.1-0.3-5.3-3.1-5-5.8c7.5-81.1,72.4-145,154.1-152.5c3.1-0.3,5.6,1.9,5.9,5
	c0.3,3.1-2,5.6-5,5.8c-76.3,6.9-136.7,66.7-144,142.5C135.8,213.3,133.2,215.6,130.4,215.6z"/>
<path class="st3" d="M279.5,393.7c-0.3,0-0.3,0-0.6,0c-82.2-7.2-146.8-71.7-154.1-153.1c-0.3-3.1,2-5.6,5-5.8c3.1-0.3,5.6,1.9,5.9,5
	c6.7,76.1,67.4,136.4,144,143.1c3.1,0.3,5.3,3.1,5,5.8C284.8,391.5,282.3,393.7,279.5,393.7z"/>
<path class="st4" d="M308.8,393.7c-2.8,0-5.3-2.2-5.6-5c-0.3-3.1,2-5.6,5-5.8c54.5-4.7,103.7-38.3,128.3-87.5
	c1.4-2.8,4.8-3.9,7.3-2.5c2.8,1.4,3.9,4.7,2.5,7.2c-26.3,52.5-78.8,88.4-137.3,93.4C309.1,393.7,309.1,393.7,308.8,393.7z"/>
</svg>
