<?xml version="1.0" encoding="UTF-8" standalone="no"?>
<!DOCTYPE svg PUBLIC "-//W3C//DTD SVG 1.1//EN" "http://www.w3.org/Graphics/SVG/1.1/DTD/svg11.dtd">
<svg width="100%" height="100%" viewBox="0 0 125 125" version="1.1" xmlns="http://www.w3.org/2000/svg" xmlns:xlink="http://www.w3.org/1999/xlink" xml:space="preserve" xmlns:serif="http://www.serif.com/" style="fill-rule:evenodd;clip-rule:evenodd;stroke-linejoin:round;stroke-miterlimit:2;">
    <g transform="matrix(0.787402,0,0,0.787402,62.5,62.5)">
        <g id="bills-logo" transform="matrix(1.44318,0,0,1.44318,0,1.77636e-14)">
            <g transform="matrix(1,0,0,1,-55,-12)">
                <path d="M12.388,0L5.3,0L0,23.563L6.718,23.563L7.254,21.348L7.328,21.348C8.33,23.594 10.69,23.99 12.841,23.99C20.658,23.99 22.163,15.932 22.163,12.897C22.163,7.265 18.294,6.008 15.79,6.008C13.82,6.008 11.815,6.745 10.634,8.123L10.56,8.123L12.388,0ZM10.993,19.25C9.415,19.25 8.593,17.93 8.593,16.607C8.593,14.33 9.525,10.765 12.408,10.765C14.212,10.696 15.071,11.847 15.071,13.569C15.071,16.08 13.856,19.25 10.993,19.25ZM25.099,6.438L32.187,6.438L28.322,23.576L21.234,23.576L25.099,6.438ZM32.583,4.588L25.492,4.588L26.53,0L33.625,0L32.583,4.588ZM43.466,0L36.378,0L31.078,23.576L38.166,23.576L43.466,0ZM46.219,0L53.311,0L48.011,23.576L40.923,23.576L46.219,0ZM57.891,17.961C57.873,18.259 57.922,18.557 58.034,18.832C58.146,19.107 58.319,19.351 58.537,19.546C59.105,19.87 59.751,20.021 60.398,19.98C62.296,19.98 62.549,18.857 62.549,18.461C62.549,17.389 61.173,17.18 59.049,16.857C58.75,16.811 58.435,16.764 58.108,16.711L57.997,16.693C56.647,16.481 53.061,15.918 53.061,12.284C53.061,7.365 57.822,6.011 62.296,6.011C66.234,6.011 71.032,6.803 70.639,11.426L64.313,11.426C64.387,10.765 64.207,10.338 63.814,10.073C63.314,9.762 62.735,9.613 62.153,9.645C61.187,9.645 60.155,10.007 60.155,11.023C60.155,11.95 60.821,12.212 61.767,12.312C67.03,12.973 69.643,14.034 69.643,17.627C69.643,21.589 65.955,24 60.225,24C56.23,24 51.236,23.108 51.383,17.958L57.891,17.961ZM96.16,15.502L99.4,15.502L99.163,16.559L99.21,16.559C99.557,16.161 99.982,15.843 100.455,15.626C100.929,15.409 101.442,15.297 101.96,15.298C103.108,15.298 104.104,15.643 104.324,16.638C104.68,16.212 105.122,15.87 105.619,15.637C106.115,15.405 106.655,15.287 107.2,15.291C108.905,15.291 110,16.025 110,17.703C109.967,18.134 109.9,18.561 109.8,18.981L108.735,23.59L105.406,23.59L106.301,19.728C106.391,19.338 106.459,18.942 106.504,18.543C106.504,18.03 106.171,17.765 105.642,17.765C105.358,17.738 105.074,17.818 104.842,17.989C104.61,18.16 104.445,18.412 104.377,18.698L103.205,23.576L99.876,23.576L100.875,19.246C100.947,19.003 100.993,18.752 101.011,18.499C101.011,17.985 100.708,17.751 100.169,17.751C99.831,17.728 99.498,17.839 99.236,18.061C98.975,18.283 98.805,18.599 98.761,18.947L97.679,23.576L94.349,23.576L96.16,15.502ZM94.503,18.826C94.503,16.38 92.815,15.291 90.251,15.291C86.672,15.291 84.848,17.41 84.848,19.987C84.848,22.701 86.806,23.776 89.219,23.776C93.254,23.776 94.503,20.893 94.503,18.826ZM91.163,19.043C91.163,19.746 90.704,21.534 89.372,21.534C88.427,21.534 88.19,20.882 88.19,20.228C88.19,19.387 88.667,17.534 89.998,17.534C90.89,17.534 91.163,18.078 91.163,19.043ZM81.103,18.561C81.129,18.419 81.121,18.272 81.08,18.134C81.038,17.996 80.965,17.87 80.866,17.768C80.625,17.582 80.323,17.498 80.024,17.534C78.572,17.534 78.183,19.294 78.183,20.056C78.183,20.817 78.369,21.534 79.331,21.534C80.294,21.534 80.613,20.803 80.8,20.352L84.006,20.352C83.433,22.657 81.828,23.776 79.298,23.776C75.573,23.769 74.84,21.599 74.84,20.087C74.84,17.331 76.781,15.291 80.124,15.291C82.554,15.291 84.362,16.304 84.312,18.561L81.103,18.561ZM73.708,20.493L70.263,20.493L69.58,23.576L73.016,23.576L73.708,20.493Z" style="fill:rgb(15,76,129);"/>
            </g>
            <g>
            </g>
        </g>
    </g>
</svg>
