<?xml version="1.0" encoding="UTF-8" standalone="no"?>
<!DOCTYPE svg PUBLIC "-//W3C//DTD SVG 1.1//EN" "http://www.w3.org/Graphics/SVG/1.1/DTD/svg11.dtd">
<svg width="100%" height="100%" viewBox="0 0 2011 1960" version="1.1" xmlns="http://www.w3.org/2000/svg" xmlns:xlink="http://www.w3.org/1999/xlink" xml:space="preserve" xmlns:serif="http://www.serif.com/" style="fill-rule:evenodd;clip-rule:evenodd;stroke-linejoin:round;stroke-miterlimit:0.73;">
    <g>
        <g>
            <path d="M1025.78,539.423C1312.61,539.423 1545.47,772.286 1545.47,1059.11C1545.47,1345.93 1312.61,1578.79 1025.78,1578.79C738.961,1578.79 506.098,1345.93 506.098,1059.11C506.098,772.286 738.961,539.423 1025.78,539.423ZM1025.78,562.02C1300.13,562.02 1522.87,784.758 1522.87,1059.11C1522.87,1333.46 1300.13,1556.2 1025.78,1556.2C751.432,1556.2 528.695,1333.46 528.695,1059.11C528.695,784.758 751.432,562.02 1025.78,562.02Z" style="fill:white;"/>
            <path d="M1026.16,307.434C1440.62,307.434 1777.11,643.882 1777.11,1058.29C1777.11,1472.7 1440.62,1809.15 1026.16,1809.15C611.705,1809.15 275.217,1472.7 275.217,1058.29C275.217,643.882 611.705,307.434 1026.16,307.434ZM1026.16,317.276C1435.19,317.276 1767.27,649.314 1767.27,1058.29C1767.27,1467.27 1435.19,1799.31 1026.16,1799.31C617.138,1799.31 285.061,1467.27 285.061,1058.29C285.061,649.314 617.138,317.276 1026.16,317.276Z" style="fill:white;"/>
            <g>
                <g style="filter:url(#_Effect1);">
                    <path d="M424.224,773.696L424.224,920.796C424.224,935.736 412.094,947.866 397.153,947.866L282.763,947.866C267.823,947.866 255.693,935.736 255.693,920.796L255.693,773.696C255.693,758.755 267.823,746.626 282.763,746.626L397.153,746.626C412.094,746.626 424.224,758.755 424.224,773.696Z" style="fill:rgb(1,55,125);fill-opacity:0.15;"/>
                </g>
                <path d="M424.224,773.696L424.224,920.796C424.224,935.736 412.094,947.866 397.153,947.866L282.763,947.866C267.823,947.866 255.693,935.736 255.693,920.796L255.693,773.696C255.693,758.755 267.823,746.626 282.763,746.626L397.153,746.626C412.094,746.626 424.224,758.755 424.224,773.696Z" style="fill:rgb(1,55,125);"/>
                <path d="M405.969,879.016L405.969,879.072C405.969,885.235 400.965,890.239 394.802,890.239L327.966,890.239C321.804,890.239 316.8,885.235 316.8,879.072L316.8,879.016C316.8,872.853 321.804,867.85 327.966,867.85L394.802,867.85C400.965,867.85 405.969,872.853 405.969,879.016Z" style="fill:rgb(126,211,72);"/>
                <path d="M405.969,845.119L405.969,845.175C405.969,851.338 400.965,856.341 394.802,856.341L356.375,856.341C350.212,856.341 345.208,851.338 345.208,845.175L345.208,845.119C345.208,838.956 350.212,833.952 356.375,833.952L394.802,833.952C400.965,833.952 405.969,838.956 405.969,845.119Z" style="fill:rgb(126,211,72);"/>
                <path d="M402.465,912.914L402.465,912.97C402.465,919.133 397.461,924.136 391.299,924.136L299.118,924.136C292.955,924.136 287.952,919.133 287.952,912.97L287.952,912.914C287.952,906.751 292.955,901.747 299.118,901.747L391.299,901.747C397.461,901.747 402.465,906.751 402.465,912.914Z" style="fill:rgb(126,211,72);"/>
                <g>
                    <g style="filter:url(#_Effect2);">
                        <ellipse cx="290.747" cy="790.9" rx="81.156" ry="81.755" style="fill:rgb(1,54,124);fill-opacity:0.15;"/>
                    </g>
                    <ellipse cx="290.747" cy="790.9" rx="81.676" ry="81.755" style="fill:white;"/>
                    <g>
                        <g style="filter:url(#_Effect3);">
                            <rect x="268.995" y="761.427" width="111.324" height="124.487" style="fill:rgb(19,159,255);fill-opacity:0.32;"/>
                        </g>
                        <path d="M334.415,765.453L334.449,765.512C338.152,771.973 335.932,780.258 329.494,784.002L265.445,821.255C259.007,824.999 250.774,822.793 247.071,816.332L247.038,816.273C243.335,809.812 245.555,801.526 251.992,797.782L316.042,760.53C322.479,756.786 330.712,758.992 334.415,765.453Z" style="fill:rgb(1,55,125);"/>
                        <path d="M265.877,747.505C272.307,743.765 280.542,745.988 284.254,752.466C287.966,758.943 285.76,767.238 279.33,770.978C272.9,774.718 264.666,772.495 260.953,766.018C257.241,759.54 259.447,751.245 265.877,747.505Z" style="fill:rgb(1,55,125);"/>
                        <path d="M302.165,810.821C308.595,807.081 316.829,809.304 320.541,815.781C324.254,822.259 322.047,830.554 315.617,834.294C309.187,838.034 300.953,835.811 297.241,829.333C293.528,822.856 295.735,814.561 302.165,810.821Z" style="fill:rgb(1,55,125);"/>
                    </g>
                </g>
            </g>
            <g>
                <g style="filter:url(#_Effect4);">
                    <path d="M1829.05,742.848L1829.05,914.163C1829.05,930.763 1815.57,944.24 1798.97,944.24L1671.87,944.24C1655.27,944.24 1641.79,930.763 1641.79,914.163L1641.79,742.848C1641.79,726.247 1655.27,712.77 1671.87,712.77L1798.97,712.77C1815.57,712.77 1829.05,726.247 1829.05,742.848Z" style="fill:rgb(1,54,124);fill-opacity:0.15;"/>
                </g>
                <path d="M1829.05,742.848L1829.05,914.163C1829.05,930.763 1815.57,944.24 1798.97,944.24L1671.87,944.24C1655.27,944.24 1641.79,930.763 1641.79,914.163L1641.79,742.848C1641.79,726.247 1655.27,712.77 1671.87,712.77L1798.97,712.77C1815.57,712.77 1829.05,726.247 1829.05,742.848Z" style="fill:white;stroke:rgb(173,246,196);stroke-width:0.13px;"/>
                <g>
                    <path d="M1792.9,749.436L1792.9,749.448C1792.9,750.316 1792.19,751.021 1791.32,751.021L1735.65,751.021C1734.78,751.021 1734.08,750.316 1734.08,749.448L1734.08,749.436C1734.08,748.568 1734.78,747.864 1735.65,747.864L1791.32,747.864C1792.19,747.864 1792.9,748.568 1792.9,749.436Z" style="fill:rgb(124,210,76);stroke:rgb(173,246,196);stroke-width:0.13px;"/>
                    <path d="M1792.9,749.436L1792.9,749.448C1792.9,750.316 1792.19,751.021 1791.32,751.021L1735.65,751.021C1734.78,751.021 1734.08,750.316 1734.08,749.448L1734.08,749.436C1734.08,748.568 1734.78,747.864 1735.65,747.864L1791.32,747.864C1792.19,747.864 1792.9,748.568 1792.9,749.436Z" style="fill:rgb(124,210,76);stroke:rgb(173,246,196);stroke-width:0.13px;"/>
                    <path d="M1792.9,761.124L1792.9,761.135C1792.9,762.003 1792.19,762.708 1791.32,762.708L1735.65,762.708C1734.78,762.708 1734.08,762.003 1734.08,761.135L1734.08,761.124C1734.08,760.256 1734.78,759.551 1735.65,759.551L1791.32,759.551C1792.19,759.551 1792.9,760.256 1792.9,761.124Z" style="fill:rgb(124,210,76);stroke:rgb(173,246,196);stroke-width:0.13px;"/>
                    <path d="M1792.9,761.124L1792.9,761.135C1792.9,762.003 1792.19,762.708 1791.32,762.708L1735.65,762.708C1734.78,762.708 1734.08,762.003 1734.08,761.135L1734.08,761.124C1734.08,760.256 1734.78,759.551 1735.65,759.551L1791.32,759.551C1792.19,759.551 1792.9,760.256 1792.9,761.124Z" style="fill:rgb(124,210,76);stroke:rgb(173,246,196);stroke-width:0.13px;"/>
                    <path d="M1792.9,772.783L1792.9,772.795C1792.9,773.663 1792.19,774.368 1791.32,774.368L1735.65,774.368C1734.78,774.368 1734.08,773.663 1734.08,772.795L1734.08,772.783C1734.08,771.915 1734.78,771.211 1735.65,771.211L1791.32,771.211C1792.19,771.211 1792.9,771.915 1792.9,772.783Z" style="fill:rgb(124,210,76);stroke:rgb(173,246,196);stroke-width:0.13px;"/>
                    <path d="M1792.9,772.783L1792.9,772.795C1792.9,773.663 1792.19,774.368 1791.32,774.368L1735.65,774.368C1734.78,774.368 1734.08,773.663 1734.08,772.795L1734.08,772.783C1734.08,771.915 1734.78,771.211 1735.65,771.211L1791.32,771.211C1792.19,771.211 1792.9,771.915 1792.9,772.783Z" style="fill:rgb(124,210,76);stroke:rgb(173,246,196);stroke-width:0.13px;"/>
                </g>
                <g>
                    <path d="M1791.66,812.653L1791.66,812.665C1791.66,813.533 1790.95,814.238 1790.09,814.238L1734.41,814.238C1733.54,814.238 1732.84,813.533 1732.84,812.665L1732.84,812.653C1732.84,811.785 1733.54,811.081 1734.41,811.081L1790.09,811.081C1790.95,811.081 1791.66,811.785 1791.66,812.653Z" style="fill:rgb(124,210,76);stroke:rgb(173,246,196);stroke-width:0.13px;"/>
                    <path d="M1791.66,812.653L1791.66,812.665C1791.66,813.533 1790.95,814.238 1790.09,814.238L1734.41,814.238C1733.54,814.238 1732.84,813.533 1732.84,812.665L1732.84,812.653C1732.84,811.785 1733.54,811.081 1734.41,811.081L1790.09,811.081C1790.95,811.081 1791.66,811.785 1791.66,812.653Z" style="fill:rgb(124,210,76);stroke:rgb(173,246,196);stroke-width:0.13px;"/>
                    <path d="M1791.66,824.341L1791.66,824.352C1791.66,825.22 1790.95,825.925 1790.09,825.925L1734.41,825.925C1733.54,825.925 1732.84,825.22 1732.84,824.352L1732.84,824.341C1732.84,823.473 1733.54,822.768 1734.41,822.768L1790.09,822.768C1790.95,822.768 1791.66,823.473 1791.66,824.341Z" style="fill:rgb(124,210,76);stroke:rgb(173,246,196);stroke-width:0.13px;"/>
                    <path d="M1791.66,824.341L1791.66,824.352C1791.66,825.22 1790.95,825.925 1790.09,825.925L1734.41,825.925C1733.54,825.925 1732.84,825.22 1732.84,824.352L1732.84,824.341C1732.84,823.473 1733.54,822.768 1734.41,822.768L1790.09,822.768C1790.95,822.768 1791.66,823.473 1791.66,824.341Z" style="fill:rgb(124,210,76);stroke:rgb(173,246,196);stroke-width:0.13px;"/>
                    <path d="M1791.66,836L1791.66,836.012C1791.66,836.88 1790.95,837.585 1790.09,837.585L1734.41,837.585C1733.54,837.585 1732.84,836.88 1732.84,836.012L1732.84,836C1732.84,835.132 1733.54,834.428 1734.41,834.428L1790.09,834.428C1790.95,834.428 1791.66,835.132 1791.66,836Z" style="fill:rgb(124,210,76);stroke:rgb(173,246,196);stroke-width:0.13px;"/>
                    <path d="M1791.66,836L1791.66,836.012C1791.66,836.88 1790.95,837.585 1790.09,837.585L1734.41,837.585C1733.54,837.585 1732.84,836.88 1732.84,836.012L1732.84,836C1732.84,835.132 1733.54,834.428 1734.41,834.428L1790.09,834.428C1790.95,834.428 1791.66,835.132 1791.66,836Z" style="fill:rgb(124,210,76);stroke:rgb(173,246,196);stroke-width:0.13px;"/>
                </g>
                <g>
                    <path d="M1791.66,890.836L1791.66,890.848C1791.66,891.716 1790.95,892.42 1790.09,892.42L1700.45,892.42C1699.58,892.42 1698.87,891.716 1698.87,890.848L1698.87,890.836C1698.87,889.968 1699.58,889.264 1700.45,889.264L1790.09,889.264C1790.95,889.264 1791.66,889.968 1791.66,890.836Z" style="fill:rgb(124,210,76);stroke:rgb(173,246,196);stroke-width:0.13px;"/>
                    <path d="M1791.66,890.836L1791.66,890.848C1791.66,891.716 1790.95,892.42 1790.09,892.42L1700.45,892.42C1699.58,892.42 1698.87,891.716 1698.87,890.848L1698.87,890.836C1698.87,889.968 1699.58,889.264 1700.45,889.264L1790.09,889.264C1790.95,889.264 1791.66,889.968 1791.66,890.836Z" style="fill:rgb(124,210,76);stroke:rgb(173,246,196);stroke-width:0.13px;"/>
                    <path d="M1791.66,878.998L1791.66,879.01C1791.66,879.878 1790.95,880.583 1790.09,880.583L1700.45,880.583C1699.58,880.583 1698.87,879.878 1698.87,879.01L1698.87,878.998C1698.87,878.131 1699.58,877.426 1700.45,877.426L1790.09,877.426C1790.95,877.426 1791.66,878.131 1791.66,878.998Z" style="fill:rgb(124,210,76);stroke:rgb(173,246,196);stroke-width:0.13px;"/>
                    <path d="M1791.66,878.998L1791.66,879.01C1791.66,879.878 1790.95,880.583 1790.09,880.583L1700.45,880.583C1699.58,880.583 1698.87,879.878 1698.87,879.01L1698.87,878.998C1698.87,878.131 1699.58,877.426 1700.45,877.426L1790.09,877.426C1790.95,877.426 1791.66,878.131 1791.66,878.998Z" style="fill:rgb(124,210,76);stroke:rgb(173,246,196);stroke-width:0.13px;"/>
                    <path d="M1791.66,867.256L1791.66,867.268C1791.66,868.136 1790.95,868.84 1790.09,868.84L1700.45,868.84C1699.58,868.84 1698.87,868.136 1698.87,867.268L1698.87,867.256C1698.87,866.388 1699.58,865.683 1700.45,865.683L1790.09,865.683C1790.95,865.683 1791.66,866.388 1791.66,867.256Z" style="fill:rgb(124,210,76);stroke:rgb(173,246,196);stroke-width:0.13px;"/>
                    <path d="M1791.66,867.256L1791.66,867.268C1791.66,868.136 1790.95,868.84 1790.09,868.84L1700.45,868.84C1699.58,868.84 1698.87,868.136 1698.87,867.268L1698.87,867.256C1698.87,866.388 1699.58,865.683 1700.45,865.683L1790.09,865.683C1790.95,865.683 1791.66,866.388 1791.66,867.256Z" style="fill:rgb(124,210,76);stroke:rgb(173,246,196);stroke-width:0.13px;"/>
                    <path d="M1791.66,902.523L1791.66,902.535C1791.66,903.403 1790.95,904.108 1790.09,904.108L1700.45,904.108C1699.58,904.108 1698.87,903.403 1698.87,902.535L1698.87,902.523C1698.87,901.655 1699.58,900.951 1700.45,900.951L1790.09,900.951C1790.95,900.951 1791.66,901.655 1791.66,902.523Z" style="fill:rgb(124,210,76);stroke:rgb(173,246,196);stroke-width:0.13px;"/>
                    <path d="M1791.66,902.523L1791.66,902.535C1791.66,903.403 1790.95,904.108 1790.09,904.108L1700.45,904.108C1699.58,904.108 1698.87,903.403 1698.87,902.535L1698.87,902.523C1698.87,901.655 1699.58,900.951 1700.45,900.951L1790.09,900.951C1790.95,900.951 1791.66,901.655 1791.66,902.523Z" style="fill:rgb(124,210,76);stroke:rgb(173,246,196);stroke-width:0.13px;"/>
                    <path d="M1791.66,914.183L1791.66,914.195C1791.66,915.063 1790.95,915.767 1790.09,915.767L1700.45,915.767C1699.58,915.767 1698.87,915.063 1698.87,914.195L1698.87,914.183C1698.87,913.315 1699.58,912.611 1700.45,912.611L1790.09,912.611C1790.95,912.611 1791.66,913.315 1791.66,914.183Z" style="fill:rgb(124,210,76);stroke:rgb(173,246,196);stroke-width:0.13px;"/>
                    <path d="M1791.66,914.183L1791.66,914.195C1791.66,915.063 1790.95,915.767 1790.09,915.767L1700.45,915.767C1699.58,915.767 1698.87,915.063 1698.87,914.195L1698.87,914.183C1698.87,913.315 1699.58,912.611 1700.45,912.611L1790.09,912.611C1790.95,912.611 1791.66,913.315 1791.66,914.183Z" style="fill:rgb(124,210,76);stroke:rgb(173,246,196);stroke-width:0.13px;"/>
                </g>
                <g style="filter:url(#_Effect5);">
                    <path d="M1824.01,891.097L1824.01,897.675C1824.01,911.33 1812.93,922.416 1799.27,922.416L1754.59,922.416L1754.59,890.121C1754.59,872.836 1768.62,858.802 1785.91,858.802L1791.72,858.802C1809.54,858.802 1824.01,873.273 1824.01,891.097Z" style="fill:rgb(73,128,255);fill-opacity:0.29;"/>
                </g>
                <g>
                    <path d="M1767.88,850.246C1783.75,841.076 1804.06,846.526 1813.22,862.409C1822.37,878.291 1816.93,898.631 1801.07,907.801C1785.21,916.971 1764.9,911.521 1755.74,895.638C1746.58,879.755 1752.02,859.416 1767.88,850.246ZM1774.26,861.305C1784.03,855.659 1796.53,859.014 1802.17,868.794C1807.81,878.573 1804.46,891.096 1794.69,896.742C1784.93,902.388 1772.42,899.032 1766.78,889.253C1761.14,879.474 1764.5,866.951 1774.26,861.305Z" style="fill:rgb(1,55,125);"/>
                    <path d="M1807.48,903.616L1824.29,932.77C1826.39,936.424 1825.14,941.104 1821.49,943.215C1817.84,945.326 1813.16,944.073 1811.06,940.419L1794.25,911.265C1792.14,907.611 1793.39,902.931 1797.05,900.821C1800.7,898.71 1805.37,899.962 1807.48,903.616Z" style="fill:rgb(1,55,125);"/>
                </g>
                <path d="M1689.3,744.113L1689.3,761.129L1704.25,753.032C1705.59,755.519 1706.3,758.302 1706.3,761.129C1706.3,770.521 1698.68,778.146 1689.3,778.146C1679.92,778.146 1672.31,770.521 1672.31,761.129C1672.31,751.732 1679.92,744.113 1689.3,744.113Z" style="fill:rgb(1,55,125);"/>
                <path d="M1689.3,744.113L1689.3,761.129L1704.25,753.032C1705.59,755.519 1706.3,758.302 1706.3,761.129C1706.3,770.521 1698.68,778.146 1689.3,778.146C1679.92,778.146 1672.31,770.521 1672.31,761.129C1672.31,751.732 1679.92,744.113 1689.3,744.113Z" style="fill:rgb(1,55,125);"/>
                <path d="M1680.64,810.098L1680.64,837.777C1680.64,839.156 1679.52,840.276 1678.14,840.276L1674.81,840.276C1673.43,840.276 1672.31,839.156 1672.31,837.777L1672.31,810.098C1672.31,808.718 1673.43,807.599 1674.81,807.599L1678.14,807.599C1679.52,807.599 1680.64,808.718 1680.64,810.098Z" style="fill:rgb(1,55,125);"/>
                <path d="M1693.47,823.918L1693.47,837.777C1693.47,839.156 1692.35,840.276 1690.97,840.276L1687.64,840.276C1686.26,840.276 1685.14,839.156 1685.14,837.777L1685.14,823.918C1685.14,822.538 1686.26,821.419 1687.64,821.419L1690.97,821.419C1692.35,821.419 1693.47,822.538 1693.47,823.918Z" style="fill:rgb(1,55,125);"/>
                <path d="M1706.3,816.869L1706.3,837.777C1706.3,839.156 1705.18,840.276 1703.8,840.276L1700.46,840.276C1699.09,840.276 1697.97,839.156 1697.97,837.777L1697.97,816.869C1697.97,815.49 1699.09,814.37 1700.46,814.37L1703.8,814.37C1705.18,814.37 1706.3,815.49 1706.3,816.869Z" style="fill:rgb(1,55,125);"/>
                <ellipse cx="1686.93" cy="914.189" rx="3.257" ry="3.262" style="fill:rgb(126,211,72);"/>
                <ellipse cx="1686.93" cy="902.529" rx="3.257" ry="3.262" style="fill:rgb(126,211,72);"/>
                <ellipse cx="1686.93" cy="890.725" rx="3.257" ry="3.262" style="fill:rgb(126,211,72);"/>
                <ellipse cx="1686.93" cy="879.004" rx="3.257" ry="3.262" style="fill:rgb(126,211,72);"/>
                <ellipse cx="1686.93" cy="867.262" rx="3.257" ry="3.262" style="fill:rgb(126,211,72);"/>
            </g>
            <g>
                <g>
                    <path d="M1041.04,323.211L1041.04,426.163C1041.04,431.517 1036.69,435.863 1031.34,435.863L1011.94,435.863C1006.59,435.863 1002.24,431.517 1002.24,426.163L1002.24,323.211C1002.24,317.857 1006.59,313.511 1011.94,313.511L1031.34,313.511C1036.69,313.511 1041.04,317.857 1041.04,323.211Z" style="fill:rgb(0,47,112);"/>
                    <path d="M1021.64,408.084C1025.77,408.084 1029.12,411.434 1029.12,415.561C1029.12,419.687 1025.77,423.037 1021.64,423.037C1017.51,423.037 1014.16,419.687 1014.16,415.561C1014.16,411.434 1017.51,408.084 1021.64,408.084ZM1021.64,411.822C1023.7,411.822 1025.38,413.497 1025.38,415.561C1025.38,417.624 1023.7,419.299 1021.64,419.299C1019.58,419.299 1017.9,417.624 1017.9,415.561C1017.9,413.497 1019.58,411.822 1021.64,411.822Z" style="fill:white;"/>
                    <path d="M1030.36,371.366L1030.36,373.054C1030.36,373.955 1029.62,374.687 1028.72,374.687L1014.56,374.687C1013.66,374.687 1012.92,373.955 1012.92,373.054L1012.92,371.366C1012.92,370.465 1013.66,369.733 1014.56,369.733L1028.72,369.733C1029.62,369.733 1030.36,370.465 1030.36,371.366Z" style="fill:rgb(126,211,72);"/>
                    <path d="M1030.36,382.039L1030.36,383.727C1030.36,384.628 1029.62,385.36 1028.72,385.36L1014.56,385.36C1013.66,385.36 1012.92,384.628 1012.92,383.727L1012.92,382.039C1012.92,381.138 1013.66,380.406 1014.56,380.406L1028.72,380.406C1029.62,380.406 1030.36,381.138 1030.36,382.039Z" style="fill:rgb(126,211,72);"/>
                    <path d="M1030.36,392.697L1030.36,394.385C1030.36,395.286 1029.62,396.018 1028.72,396.018L1014.56,396.018C1013.66,396.018 1012.92,395.286 1012.92,394.385L1012.92,392.697C1012.92,391.796 1013.66,391.064 1014.56,391.064L1028.72,391.064C1029.62,391.064 1030.36,391.796 1030.36,392.697Z" style="fill:rgb(126,211,72);"/>
                </g>
                <g>
                    <path d="M1082.12,323.211L1082.12,426.163C1082.12,431.517 1077.78,435.863 1072.42,435.863L1053.02,435.863C1047.67,435.863 1043.32,431.517 1043.32,426.163L1043.32,323.211C1043.32,317.857 1047.67,313.511 1053.02,313.511L1072.42,313.511C1077.78,313.511 1082.12,317.857 1082.12,323.211Z" style="fill:rgb(0,47,112);"/>
                    <path d="M1062.72,408.084C1066.85,408.084 1070.2,411.434 1070.2,415.561C1070.2,419.687 1066.85,423.037 1062.72,423.037C1058.6,423.037 1055.25,419.687 1055.25,415.561C1055.25,411.434 1058.6,408.084 1062.72,408.084ZM1062.72,411.822C1064.79,411.822 1066.46,413.497 1066.46,415.561C1066.46,417.624 1064.79,419.299 1062.72,419.299C1060.66,419.299 1058.99,417.624 1058.99,415.561C1058.99,413.497 1060.66,411.822 1062.72,411.822Z" style="fill:white;"/>
                    <path d="M1071.44,371.366L1071.44,373.054C1071.44,373.955 1070.71,374.687 1069.81,374.687L1055.64,374.687C1054.74,374.687 1054.01,373.955 1054.01,373.054L1054.01,371.366C1054.01,370.465 1054.74,369.733 1055.64,369.733L1069.81,369.733C1070.71,369.733 1071.44,370.465 1071.44,371.366Z" style="fill:rgb(126,211,72);"/>
                    <path d="M1071.44,382.039L1071.44,383.727C1071.44,384.628 1070.71,385.36 1069.81,385.36L1055.64,385.36C1054.74,385.36 1054.01,384.628 1054.01,383.727L1054.01,382.039C1054.01,381.138 1054.74,380.406 1055.64,380.406L1069.81,380.406C1070.71,380.406 1071.44,381.138 1071.44,382.039Z" style="fill:rgb(126,211,72);"/>
                    <path d="M1071.44,392.697L1071.44,394.385C1071.44,395.286 1070.71,396.018 1069.81,396.018L1055.64,396.018C1054.74,396.018 1054.01,395.286 1054.01,394.385L1054.01,392.697C1054.01,391.796 1054.74,391.064 1055.64,391.064L1069.81,391.064C1070.71,391.064 1071.44,391.796 1071.44,392.697Z" style="fill:rgb(126,211,72);"/>
                </g>
                <g>
                    <path d="M1122.95,323.211L1122.95,426.163C1122.95,431.517 1118.6,435.863 1113.25,435.863L1093.85,435.863C1088.5,435.863 1084.15,431.517 1084.15,426.163L1084.15,323.211C1084.15,317.857 1088.5,313.511 1093.85,313.511L1113.25,313.511C1118.6,313.511 1122.95,317.857 1122.95,323.211Z" style="fill:rgb(0,47,112);"/>
                    <path d="M1103.55,408.084C1107.68,408.084 1111.03,411.434 1111.03,415.561C1111.03,419.687 1107.68,423.037 1103.55,423.037C1099.42,423.037 1096.07,419.687 1096.07,415.561C1096.07,411.434 1099.42,408.084 1103.55,408.084ZM1103.55,411.822C1105.61,411.822 1107.29,413.497 1107.29,415.561C1107.29,417.624 1105.61,419.299 1103.55,419.299C1101.49,419.299 1099.81,417.624 1099.81,415.561C1099.81,413.497 1101.49,411.822 1103.55,411.822Z" style="fill:white;"/>
                    <path d="M1112.27,371.366L1112.27,373.054C1112.27,373.955 1111.53,374.687 1110.63,374.687L1096.47,374.687C1095.57,374.687 1094.83,373.955 1094.83,373.054L1094.83,371.366C1094.83,370.465 1095.57,369.733 1096.47,369.733L1110.63,369.733C1111.53,369.733 1112.27,370.465 1112.27,371.366Z" style="fill:rgb(126,211,72);"/>
                    <path d="M1112.27,382.039L1112.27,383.727C1112.27,384.628 1111.53,385.36 1110.63,385.36L1096.47,385.36C1095.57,385.36 1094.83,384.628 1094.83,383.727L1094.83,382.039C1094.83,381.138 1095.57,380.406 1096.47,380.406L1110.63,380.406C1111.53,380.406 1112.27,381.138 1112.27,382.039Z" style="fill:rgb(126,211,72);"/>
                    <path d="M1112.27,392.697L1112.27,394.385C1112.27,395.286 1111.53,396.018 1110.63,396.018L1096.47,396.018C1095.57,396.018 1094.83,395.286 1094.83,394.385L1094.83,392.697C1094.83,391.796 1095.57,391.064 1096.47,391.064L1110.63,391.064C1111.53,391.064 1112.27,391.796 1112.27,392.697Z" style="fill:rgb(126,211,72);"/>
                </g>
                <g style="filter:url(#_Effect6);">
                    <path d="M1105.24,355.626L930.752,355.626C907.118,355.626 887.929,337.316 887.929,314.763C887.929,292.21 907.118,273.9 930.752,273.9C930.793,273.9 930.833,273.9 930.873,273.9C932.816,245.204 957.856,222.471 988.415,222.471C993.35,222.471 998.142,223.064 1002.72,224.179C1015.66,207.842 1036.18,197.277 1059.28,197.277C1091.86,197.277 1119.33,218.303 1127.6,246.899C1149.18,255.322 1164.4,275.565 1164.4,299.173C1164.4,330.331 1137.89,355.626 1105.24,355.626Z" style="fill:rgb(1,54,124);fill-opacity:0.15;"/>
                </g>
                <path d="M1105.24,355.626L930.752,355.626C907.118,355.626 887.929,337.316 887.929,314.763C887.929,292.21 907.118,273.9 930.752,273.9C930.793,273.9 930.833,273.9 930.873,273.9C932.816,245.204 957.856,222.471 988.415,222.471C993.35,222.471 998.142,223.064 1002.72,224.179C1015.66,207.842 1036.18,197.277 1059.28,197.277C1091.86,197.277 1119.33,218.303 1127.6,246.899C1149.18,255.322 1164.4,275.565 1164.4,299.173C1164.4,330.331 1137.89,355.626 1105.24,355.626Z" style="fill:white;stroke:white;stroke-width:0.13px;stroke-linecap:round;"/>
                <g style="filter:url(#_Effect7);">
                    <rect x="997.533" y="292.686" width="136.302" height="73.694" style="fill:rgb(19,159,255);fill-opacity:0.32;"/>
                </g>
            </g>
            <g>
                <path d="M1505.78,1733.45L1505.78,1748.05C1505.78,1749.96 1504.23,1751.51 1502.33,1751.51L1429.04,1751.51C1427.13,1751.51 1425.59,1749.96 1425.59,1748.05L1425.59,1733.45C1425.59,1731.54 1427.13,1730 1429.04,1730L1502.33,1730C1504.23,1730 1505.78,1731.54 1505.78,1733.45Z" style="fill:rgb(1,55,125);"/>
                <path d="M1588.91,1599.61L1588.91,1708.55C1588.91,1722.78 1577.36,1734.33 1563.13,1734.33L1368.24,1734.33C1354.01,1734.33 1342.46,1722.78 1342.46,1708.55L1342.46,1599.61C1342.46,1585.38 1354.01,1573.83 1368.24,1573.83L1563.13,1573.83C1577.36,1573.83 1588.91,1585.38 1588.91,1599.61Z" style="fill:rgb(1,54,124);"/>
                <g style="filter:url(#_Effect8);">
                    <path d="M1588.91,1599.61L1588.91,1708.55C1588.91,1722.78 1577.36,1734.33 1563.13,1734.33L1368.24,1734.33C1354.01,1734.33 1342.46,1722.78 1342.46,1708.55L1342.46,1599.61C1342.46,1585.38 1354.01,1573.83 1368.24,1573.83L1563.13,1573.83C1577.36,1573.83 1588.91,1585.38 1588.91,1599.61Z" style="fill:rgb(1,54,124);fill-opacity:0.15;"/>
                </g>
                <path d="M1582.6,1603.25L1582.6,1704.91C1582.6,1717.68 1572.24,1728.04 1559.47,1728.04L1371.89,1728.04C1359.13,1728.04 1348.76,1717.68 1348.76,1704.91L1348.76,1603.25C1348.76,1590.48 1359.13,1580.12 1371.89,1580.12L1559.47,1580.12C1572.24,1580.12 1582.6,1590.48 1582.6,1603.25Z" style="fill:white;"/>
                <path d="M1546.46,1711.98L1546.46,1712.05C1546.46,1713.58 1545.21,1714.82 1543.69,1714.82L1387.68,1714.82C1386.15,1714.82 1384.91,1713.58 1384.91,1712.05L1384.91,1711.98C1384.91,1710.45 1386.15,1709.2 1387.68,1709.2L1543.69,1709.2C1545.21,1709.2 1546.46,1710.45 1546.46,1711.98Z" style="fill:rgb(124,210,76);"/>
                <path d="M1546.46,1711.98L1546.46,1712.05C1546.46,1713.58 1545.21,1714.82 1543.69,1714.82L1387.68,1714.82C1386.15,1714.82 1384.91,1713.58 1384.91,1712.05L1384.91,1711.98C1384.91,1710.45 1386.15,1709.2 1387.68,1709.2L1543.69,1709.2C1545.21,1709.2 1546.46,1710.45 1546.46,1711.98Z" style="fill:rgb(124,210,76);"/>
                <g>
                    <path d="M1528.03,1684.7L1528.03,1707.14C1528.03,1708.31 1527.08,1709.26 1525.91,1709.26L1521.68,1709.26C1520.51,1709.26 1519.57,1708.31 1519.57,1707.14L1519.57,1684.7C1519.57,1683.53 1520.51,1682.58 1521.68,1682.58L1525.91,1682.58C1527.08,1682.58 1528.03,1683.53 1528.03,1684.7Z" style="fill:rgb(0,47,112);"/>
                    <path d="M1523.8,1703.2C1524.69,1703.2 1525.42,1703.93 1525.42,1704.83C1525.42,1705.73 1524.69,1706.46 1523.8,1706.46C1522.9,1706.46 1522.16,1705.73 1522.16,1704.83C1522.16,1703.93 1522.9,1703.2 1523.8,1703.2ZM1523.8,1704.02C1524.25,1704.02 1524.61,1704.38 1524.61,1704.83C1524.61,1705.28 1524.25,1705.65 1523.8,1705.65C1523.35,1705.65 1522.98,1705.28 1522.98,1704.83C1522.98,1704.38 1523.35,1704.02 1523.8,1704.02Z" style="fill:white;"/>
                    <path d="M1525.7,1695.2L1525.7,1695.56C1525.7,1695.76 1525.54,1695.92 1525.34,1695.92L1522.25,1695.92C1522.05,1695.92 1521.89,1695.76 1521.89,1695.56L1521.89,1695.2C1521.89,1695 1522.05,1694.84 1522.25,1694.84L1525.34,1694.84C1525.54,1694.84 1525.7,1695 1525.7,1695.2Z" style="fill:rgb(126,211,72);"/>
                    <path d="M1525.7,1697.52L1525.7,1697.89C1525.7,1698.09 1525.54,1698.25 1525.34,1698.25L1522.25,1698.25C1522.05,1698.25 1521.89,1698.09 1521.89,1697.89L1521.89,1697.52C1521.89,1697.33 1522.05,1697.17 1522.25,1697.17L1525.34,1697.17C1525.54,1697.17 1525.7,1697.33 1525.7,1697.52Z" style="fill:rgb(126,211,72);"/>
                    <path d="M1525.7,1699.85L1525.7,1700.22C1525.7,1700.41 1525.54,1700.57 1525.34,1700.57L1522.25,1700.57C1522.05,1700.57 1521.89,1700.41 1521.89,1700.22L1521.89,1699.85C1521.89,1699.65 1522.05,1699.49 1522.25,1699.49L1525.34,1699.49C1525.54,1699.49 1525.7,1699.65 1525.7,1699.85Z" style="fill:rgb(126,211,72);"/>
                </g>
                <g>
                    <path d="M1518.38,1684.7L1518.38,1707.14C1518.38,1708.31 1517.44,1709.26 1516.27,1709.26L1512.04,1709.26C1510.87,1709.26 1509.92,1708.31 1509.92,1707.14L1509.92,1684.7C1509.92,1683.53 1510.87,1682.58 1512.04,1682.58L1516.27,1682.58C1517.44,1682.58 1518.38,1683.53 1518.38,1684.7Z" style="fill:rgb(0,47,112);"/>
                    <path d="M1514.15,1703.2C1515.05,1703.2 1515.78,1703.93 1515.78,1704.83C1515.78,1705.73 1515.05,1706.46 1514.15,1706.46C1513.25,1706.46 1512.52,1705.73 1512.52,1704.83C1512.52,1703.93 1513.25,1703.2 1514.15,1703.2ZM1514.15,1704.02C1514.6,1704.02 1514.97,1704.38 1514.97,1704.83C1514.97,1705.28 1514.6,1705.65 1514.15,1705.65C1513.7,1705.65 1513.34,1705.28 1513.34,1704.83C1513.34,1704.38 1513.7,1704.02 1514.15,1704.02Z" style="fill:white;"/>
                    <path d="M1516.05,1695.2L1516.05,1695.56C1516.05,1695.76 1515.89,1695.92 1515.7,1695.92L1512.61,1695.92C1512.41,1695.92 1512.25,1695.76 1512.25,1695.56L1512.25,1695.2C1512.25,1695 1512.41,1694.84 1512.61,1694.84L1515.7,1694.84C1515.89,1694.84 1516.05,1695 1516.05,1695.2Z" style="fill:rgb(126,211,72);"/>
                    <path d="M1516.05,1697.52L1516.05,1697.89C1516.05,1698.09 1515.89,1698.25 1515.7,1698.25L1512.61,1698.25C1512.41,1698.25 1512.25,1698.09 1512.25,1697.89L1512.25,1697.52C1512.25,1697.33 1512.41,1697.17 1512.61,1697.17L1515.7,1697.17C1515.89,1697.17 1516.05,1697.33 1516.05,1697.52Z" style="fill:rgb(126,211,72);"/>
                    <path d="M1516.05,1699.85L1516.05,1700.22C1516.05,1700.41 1515.89,1700.57 1515.7,1700.57L1512.61,1700.57C1512.41,1700.57 1512.25,1700.41 1512.25,1700.22L1512.25,1699.85C1512.25,1699.65 1512.41,1699.49 1512.61,1699.49L1515.7,1699.49C1515.89,1699.49 1516.05,1699.65 1516.05,1699.85Z" style="fill:rgb(126,211,72);"/>
                </g>
                <g style="filter:url(#_Effect9);">
                    <path d="M1443.37,1600.36L1488,1600.36C1518.05,1600.36 1542.45,1624.76 1542.45,1654.81C1542.45,1684.86 1518.05,1709.26 1488,1709.26L1443.37,1709.26C1413.32,1709.26 1388.92,1684.86 1388.92,1654.81C1388.92,1624.76 1413.32,1600.36 1443.37,1600.36Z" style="fill:rgb(103,193,255);fill-opacity:0.29;"/>
                </g>
                <path d="M1499.47,1682.58L1499.47,1709.26L1434.96,1709.26C1433.27,1709.26 1431.89,1707.88 1431.89,1706.19L1431.89,1682.58C1431.89,1667.86 1443.85,1655.9 1458.57,1655.9L1472.8,1655.9C1487.52,1655.9 1499.47,1667.86 1499.47,1682.58Z" style="fill:rgb(1,55,125);"/>
                <path d="M1499.47,1682.58L1499.47,1709.26L1434.96,1709.26C1433.27,1709.26 1431.89,1707.88 1431.89,1706.19L1431.89,1682.58C1431.89,1667.86 1443.85,1655.9 1458.57,1655.9L1472.8,1655.9C1487.52,1655.9 1499.47,1667.86 1499.47,1682.58Z" style="fill:rgb(1,55,125);"/>
                <circle cx="1465.68" cy="1643.17" r="14.823" style="fill:rgb(1,55,125);"/>
                <path d="M1488.09,1688.25L1488.09,1703.6C1488.09,1706.72 1485.55,1709.26 1482.42,1709.26L1448.94,1709.26C1445.82,1709.26 1443.28,1706.72 1443.28,1703.6L1443.28,1688.25C1443.28,1685.12 1445.82,1682.58 1448.94,1682.58L1482.42,1682.58C1485.55,1682.58 1488.09,1685.12 1488.09,1688.25Z" style="fill:white;"/>
                <path d="M1488.09,1688.25L1488.09,1703.6C1488.09,1706.72 1485.55,1709.26 1482.42,1709.26L1448.94,1709.26C1445.82,1709.26 1443.28,1706.72 1443.28,1703.6L1443.28,1688.25C1443.28,1685.12 1445.82,1682.58 1448.94,1682.58L1482.42,1682.58C1485.55,1682.58 1488.09,1685.12 1488.09,1688.25Z" style="fill:white;"/>
                <circle cx="1465.68" cy="1695.92" r="4.425" style="fill:rgb(126,211,72);"/>
            </g>
            <g>
                <g>
                    <g style="filter:url(#_Effect10);">
                        <path d="M703.386,1619.06L703.386,1734.59C703.386,1759.05 683.523,1778.91 659.058,1778.91L570.402,1778.91C545.937,1778.91 526.074,1759.05 526.074,1734.59L526.074,1619.06C526.074,1594.59 545.937,1574.73 570.402,1574.73L659.058,1574.73C683.523,1574.73 703.386,1594.59 703.386,1619.06Z" style="fill:rgb(0,47,112);fill-opacity:0.15;"/>
                    </g>
                    <path d="M703.386,1619.06L703.386,1734.59C703.386,1759.05 683.523,1778.91 659.058,1778.91L570.402,1778.91C545.937,1778.91 526.074,1759.05 526.074,1734.59L526.074,1619.06C526.074,1594.59 545.937,1574.73 570.402,1574.73L659.058,1574.73C683.523,1574.73 703.386,1594.59 703.386,1619.06Z" style="fill:rgb(0,47,112);"/>
                    <rect x="566.152" y="1666.2" width="138.082" height="6.844" style="fill:rgb(126,211,72);"/>
                    <rect x="565.304" y="1634.33" width="138.082" height="21.26" style="fill:rgb(126,211,72);"/>
                </g>
                <g style="filter:url(#_Effect11);">
                    <path d="M677.724,1605.93L677.724,1682.68C677.724,1715.12 651.387,1741.46 618.946,1741.46L541.298,1741.46C508.858,1741.46 482.52,1715.12 482.52,1682.68L482.52,1605.93C482.52,1573.49 508.858,1547.15 541.298,1547.15L618.946,1547.15C651.387,1547.15 677.724,1573.49 677.724,1605.93Z" style="fill:rgb(1,54,124);fill-opacity:0.15;"/>
                </g>
                <path d="M677.724,1605.93L677.724,1682.68C677.724,1715.12 651.387,1741.46 618.946,1741.46L541.298,1741.46C508.858,1741.46 482.52,1715.12 482.52,1682.68L482.52,1605.93C482.52,1573.49 508.858,1547.15 541.298,1547.15L618.946,1547.15C651.387,1547.15 677.724,1573.49 677.724,1605.93Z" style="fill:white;"/>
                <g style="filter:url(#_Effect12);">
                    <path d="M665.503,1619.97L666.068,1619.97C672.613,1619.97 677.927,1625.29 677.927,1631.83L677.927,1735.12C677.927,1741.66 672.613,1746.98 666.068,1746.98L577.097,1746.98C566.446,1746.98 557.799,1738.33 557.799,1727.68C557.799,1668.23 606.06,1619.97 665.503,1619.97Z" style="fill:rgb(103,193,255);fill-opacity:0.52;"/>
                </g>
                <g id="XMLID_12_">
                    <g>
                        <path d="M642.15,1647.67C641.735,1647.22 641.147,1646.96 640.532,1646.96L636.22,1646.96C636.22,1646.96 621.296,1618.57 620.525,1617.09C619.697,1615.51 618.445,1614.13 616.571,1614.13C607.454,1614.13 598.946,1612.18 592.615,1608.65C589.455,1606.89 587.073,1604.83 585.618,1602.66L585.618,1596.4C585.618,1593.36 583.158,1590.9 580.122,1590.9C577.087,1590.9 574.626,1593.36 574.626,1596.4L574.626,1602.66C573.171,1604.83 570.789,1606.89 567.63,1608.65C561.298,1612.18 552.79,1614.13 543.673,1614.13C541.799,1614.13 540.671,1615.28 539.719,1617.09C537.494,1621.33 524.024,1646.96 524.024,1646.96L519.713,1646.96C519.097,1646.96 518.509,1647.22 518.094,1647.67C517.679,1648.13 517.476,1648.74 517.532,1649.35C518.74,1662.46 529.767,1672.73 543.191,1672.73C556.616,1672.73 567.643,1662.46 568.85,1649.35C568.907,1648.74 568.702,1648.13 568.288,1647.67C567.873,1647.22 567.285,1646.96 566.67,1646.96L562.358,1646.96L549.336,1622.15C559.482,1621.33 568.338,1618.36 574.626,1613.99L574.626,1683.98L549.716,1683.98C545.922,1683.98 542.846,1687.05 542.846,1690.85C542.846,1694.64 545.922,1697.72 549.716,1697.72L609.472,1697.72C613.266,1697.72 616.342,1694.64 616.342,1690.85C616.342,1687.05 613.266,1683.98 609.472,1683.98L585.618,1683.98L585.618,1613.99C591.907,1618.36 600.763,1621.34 610.909,1622.15L597.887,1646.96L593.575,1646.96C592.959,1646.96 592.371,1647.22 591.956,1647.67C591.541,1648.13 591.338,1648.74 591.394,1649.35C592.602,1662.46 603.629,1672.73 617.054,1672.73C630.478,1672.73 641.505,1662.46 642.713,1649.35C642.769,1648.74 642.564,1648.13 642.15,1647.67ZM553.047,1646.96L533.335,1646.96L543.191,1628.18L553.047,1646.96ZM607.197,1646.96L617.053,1628.18L626.91,1646.96L607.197,1646.96Z" style="fill:rgb(1,55,125);fill-rule:nonzero;"/>
                    </g>
                </g>
            </g>
        </g>
        <g>
            <g>
                <g style="filter:url(#_Effect13);">
                    <path d="M911.527,837.316L911.527,893.884C911.527,915.019 894.368,932.178 873.234,932.178C852.099,932.178 834.94,915.019 834.94,893.884L834.94,837.316L911.527,837.316Z" style="fill:rgb(1,32,125);"/>
                </g>
                <path d="M910.037,823.611L910.037,853.486L836.43,853.486L836.43,823.611C836.43,807.122 849.817,793.735 866.305,793.735L880.162,793.735C896.65,793.735 910.037,807.122 910.037,823.611Z" style="fill:rgb(1,55,125);"/>
                <path d="M910.037,823.611L910.037,853.486L836.43,853.486L836.43,823.611C836.43,807.122 849.817,793.735 866.305,793.735L880.162,793.735C896.65,793.735 910.037,807.122 910.037,823.611Z" style="fill:rgb(1,55,125);"/>
            </g>
            <g>
                <g>
                    <g style="filter:url(#_Effect14);">
                        <path d="M1216.62,837.339L1216.62,893.893C1216.62,915.023 1199.47,932.178 1178.34,932.178C1157.21,932.178 1140.06,915.023 1140.06,893.893L1140.06,837.339L1216.62,837.339Z" style="fill:rgb(1,32,125);"/>
                    </g>
                    <path d="M1215.14,823.638L1215.14,853.506L1141.55,853.506L1141.55,823.638C1141.55,807.153 1154.93,793.77 1171.41,793.77L1185.27,793.77C1201.75,793.77 1215.14,807.153 1215.14,823.638Z" style="fill:rgb(1,55,125);"/>
                </g>
                <path d="M1215.14,823.638L1215.14,853.506L1141.55,853.506L1141.55,823.638C1141.55,807.153 1154.93,793.77 1171.41,793.77L1185.27,793.77C1201.75,793.77 1215.14,807.153 1215.14,823.638Z" style="fill:rgb(1,55,125);"/>
            </g>
            <g style="filter:url(#_Effect15);">
                <path d="M1353.48,969.404L1353.48,1201.09C1353.48,1265.03 1301.57,1316.94 1237.64,1316.94L813.929,1316.94C749.993,1316.94 698.085,1265.03 698.085,1201.09L698.085,969.404C698.085,905.468 749.993,853.56 813.929,853.56L1237.64,853.56C1301.57,853.56 1353.48,905.468 1353.48,969.404Z" style="fill:rgb(1,54,124);fill-opacity:0.15;"/>
            </g>
            <path d="M1353.48,969.404L1353.48,1201.09C1353.48,1265.03 1301.57,1316.94 1237.64,1316.94L813.929,1316.94C749.993,1316.94 698.085,1265.03 698.085,1201.09L698.085,969.404C698.085,905.468 749.993,853.56 813.929,853.56L1237.64,853.56C1301.57,853.56 1353.48,905.468 1353.48,969.404Z" style="fill:white;fill-opacity:0.3;"/>
            <g transform="matrix(221.318,0,0,221.318,1013.4,1189.81)">
            </g>
            <text x="769.398px" y="1189.81px" style="font-family:'Noteworthy-Bold', 'Noteworthy';font-weight:700;font-size:221.318px;fill:white;stroke:rgb(173,246,196);stroke-width:0.32px;stroke-miterlimit:2;">01</text>
            <g>
                <g>
                    <g>
                        <circle cx="1085.05" cy="996.483" r="19.19" style="fill:white;"/>
                        <circle cx="1160.92" cy="996.483" r="19.19" style="fill:white;"/>
                        <circle cx="1236.8" cy="996.483" r="19.19" style="fill:white;"/>
                    </g>
                </g>
                <g>
                    <g>
                        <circle cx="1085.05" cy="1064.23" r="19.19" style="fill:white;"/>
                        <circle cx="1160.92" cy="1064.23" r="19.19" style="fill:white;"/>
                        <circle cx="1236.8" cy="1064.23" r="19.19" style="fill:white;"/>
                    </g>
                </g>
                <g>
                    <g>
                        <circle cx="1085.05" cy="1131.98" r="19.19" style="fill:white;"/>
                        <circle cx="1160.92" cy="1131.98" r="19.19" style="fill:white;"/>
                        <circle cx="1236.8" cy="1131.98" r="19.19" style="fill:white;"/>
                    </g>
                </g>
                <g>
                    <g>
                        <circle cx="1085.05" cy="1199.73" r="19.19" style="fill:white;"/>
                        <circle cx="1160.92" cy="1199.73" r="19.19" style="fill:white;"/>
                    </g>
                </g>
            </g>
        </g>
    </g>
    <defs>
        <filter id="_Effect1" filterUnits="userSpaceOnUse" x="-82.5688" y="408.364" width="845.054" height="877.764">
            <feGaussianBlur in="SourceGraphic" stdDeviation="56.377"/>
        </filter>
        <filter id="_Effect2" filterUnits="userSpaceOnUse" x="-209.592" y="289.961" width="1000.68" height="1001.88">
            <feGaussianBlur in="SourceGraphic" stdDeviation="69.8639"/>
        </filter>
        <filter id="_Effect3" filterUnits="userSpaceOnUse" x="194.494" y="686.926" width="260.325" height="273.489">
            <feGaussianBlur in="SourceGraphic" stdDeviation="12.4168"/>
        </filter>
        <filter id="_Effect4" filterUnits="userSpaceOnUse" x="1277.9" y="348.875" width="915.046" height="959.261">
            <feGaussianBlur in="SourceGraphic" stdDeviation="60.6492"/>
        </filter>
        <filter id="_Effect5" filterUnits="userSpaceOnUse" x="1680.09" y="784.301" width="218.427" height="212.616">
            <feGaussianBlur in="SourceGraphic" stdDeviation="12.4168"/>
        </filter>
        <filter id="_Effect6" filterUnits="userSpaceOnUse" x="493.374" y="-197.277" width="1065.58" height="947.459">
            <feGaussianBlur in="SourceGraphic" stdDeviation="65.7592"/>
        </filter>
        <filter id="_Effect7" filterUnits="userSpaceOnUse" x="923.032" y="218.185" width="285.304" height="222.695">
            <feGaussianBlur in="SourceGraphic" stdDeviation="12.4168"/>
        </filter>
        <filter id="_Effect8" filterUnits="userSpaceOnUse" x="928.805" y="1160.18" width="1073.76" height="987.801">
            <feGaussianBlur in="SourceGraphic" stdDeviation="68.9424"/>
        </filter>
        <filter id="_Effect9" filterUnits="userSpaceOnUse" x="1314.42" y="1525.86" width="302.529" height="257.902">
            <feGaussianBlur in="SourceGraphic" stdDeviation="12.4168"/>
        </filter>
        <filter id="_Effect10" filterUnits="userSpaceOnUse" x="193.844" y="1242.5" width="841.773" height="868.647">
            <feGaussianBlur in="SourceGraphic" stdDeviation="55.3717"/>
        </filter>
        <filter id="_Effect11" filterUnits="userSpaceOnUse" x="46.7507" y="1111.39" width="1066.74" height="1065.85">
            <feGaussianBlur in="SourceGraphic" stdDeviation="72.6283"/>
        </filter>
        <filter id="_Effect12" filterUnits="userSpaceOnUse" x="483.298" y="1545.47" width="269.129" height="276.004">
            <feGaussianBlur in="SourceGraphic" stdDeviation="12.4168"/>
        </filter>
        <filter id="_Effect13" filterUnits="userSpaceOnUse" x="774.626" y="777.001" width="197.215" height="215.49">
            <feGaussianBlur in="SourceGraphic" stdDeviation="10.0524"/>
        </filter>
        <filter id="_Effect14" filterUnits="userSpaceOnUse" x="1079.74" y="777.025" width="197.196" height="215.467">
            <feGaussianBlur in="SourceGraphic" stdDeviation="10.0524"/>
        </filter>
        <filter id="_Effect15" filterUnits="userSpaceOnUse" x="305.038" y="460.513" width="1441.49" height="1249.47">
            <feGaussianBlur in="SourceGraphic" stdDeviation="65.5079"/>
        </filter>
    </defs>
</svg>
