<?xml version="1.0" encoding="UTF-8" standalone="no"?>
<!DOCTYPE svg PUBLIC "-//W3C//DTD SVG 1.1//EN" "http://www.w3.org/Graphics/SVG/1.1/DTD/svg11.dtd">
<svg width="100%" height="100%" viewBox="0 0 1010 1192" version="1.1" xmlns="http://www.w3.org/2000/svg" xmlns:xlink="http://www.w3.org/1999/xlink" xml:space="preserve" xmlns:serif="http://www.serif.com/" style="fill-rule:evenodd;clip-rule:evenodd;stroke-linejoin:round;stroke-miterlimit:0.73;">
    <g>
        <g>
            <g>
                <g style="filter:url(#_Effect1);">
                    <path d="M185.909,319.456L225.637,319.456L225.637,867.091L185.909,867.091L185.909,319.456Z" style="fill:rgb(1,32,125);"/>
                </g>
                <path d="M196.013,325.928L196.013,859.564C173.401,859.564 155.042,841.205 155.042,818.593L155.042,366.898C155.042,344.286 173.401,325.928 196.013,325.928Z" style="fill:rgb(1,55,125);"/>
                <path d="M196.013,325.928L196.013,859.564C173.401,859.564 155.042,841.205 155.042,818.593L155.042,366.898C155.042,344.286 173.401,325.928 196.013,325.928Z" style="fill:rgb(1,55,125);"/>
            </g>
            <g>
                <g>
                    <g style="filter:url(#_Effect2);">
                        <path d="M823.713,468.544L776.003,468.544L776.003,379.932L823.713,379.932L823.713,468.544Z" style="fill:rgb(124,210,76);"/>
                    </g>
                    <path d="M831.661,467.412L812.394,467.412L812.394,381.065L831.661,381.065C835.206,381.065 838.084,383.943 838.084,387.487L838.084,460.989C838.084,464.534 835.206,467.412 831.661,467.412Z" style="fill:rgb(124,210,76);"/>
                </g>
                <path d="M831.661,467.412L812.394,467.412L812.394,381.065L831.661,381.065C835.206,381.065 838.084,383.943 838.084,387.487L838.084,460.989C838.084,464.534 835.206,467.412 831.661,467.412Z" style="fill:rgb(124,210,76);"/>
            </g>
            <g style="filter:url(#_Effect3);">
                <path d="M350.672,196.524L658.97,196.524C744.047,196.524 813.118,265.595 813.118,350.672L813.118,840.953C813.118,926.03 744.047,995.102 658.97,995.102L350.672,995.102C265.595,995.102 196.524,926.03 196.524,840.953L196.524,350.672C196.524,265.595 265.595,196.524 350.672,196.524Z" style="fill:rgb(1,54,124);fill-opacity:0.15;"/>
            </g>
            <path d="M341.552,196.545L666.184,196.545C746.509,196.545 811.723,261.759 811.723,342.084L811.723,844.463C811.723,924.788 746.509,990.002 666.184,990.002L341.552,990.002C261.227,990.002 196.013,924.788 196.013,844.463L196.013,342.084C196.013,261.759 261.227,196.545 341.552,196.545Z" style="fill:white;fill-opacity:0.4;stroke:white;stroke-opacity:0.4;stroke-width:1.33px;"/>
            <g transform="matrix(0.32,-3.9443e-33,-3.9443e-33,0.32,-15374.8,-3700.58)">
                <text x="48944.6px" y="13584.8px" style="font-family:'Poppins-Regular', 'Poppins';font-size:50px;fill:rgb(1,55,125);">Lorem <tspan x="49118.9px " y="13584.8px ">i</tspan>psum <tspan x="49294.1px " y="13584.8px ">d</tspan>olor <tspan x="49442.3px " y="13584.8px ">s</tspan>it <tspan x="49518.4px " y="13584.8px ">a</tspan>met, <tspan x="49682.3px " y="13584.8px ">c</tspan>onsectetur <tspan x="50001.7px " y="13584.8px ">a</tspan>dipiscing <tspan x="50281.7px " y="13584.8px ">e</tspan>lit.</text>
                <text x="48944.6px" y="13696.3px" style="font-family:'Poppins-Regular', 'Poppins';font-size:50px;fill:rgb(1,55,125);">Nam <tspan x="49105.6px " y="13696.3px ">i</tspan>nterdum, <tspan x="49385.5px " y="13696.3px ">n</tspan>ulla <tspan x="49548.5px 49582.3px 49622.8px " y="13696.3px 13696.3px 13696.3px ">a p</tspan>ulvinar <tspan x="49866.3px " y="13696.3px ">v</tspan>olutpat, <tspan x="50125.1px " y="13696.3px ">l</tspan>orem <tspan x="50311.1px " y="13696.3px ">e</tspan>x</text>
                <text x="48944.6px" y="13807.8px" style="font-family:'Poppins-Regular', 'Poppins';font-size:50px;fill:rgb(1,55,125);">pharetra <tspan x="49179.2px " y="13807.8px ">m</tspan>i, <tspan x="49267.6px " y="13807.8px ">i</tspan>d <tspan x="49328.3px " y="13807.8px ">e</tspan>leifend <tspan x="49542.8px " y="13807.8px ">q</tspan>uam <tspan x="49708.6px " y="13807.8px ">m</tspan>auris <tspan x="49897.6px " y="13807.8px ">a</tspan>t <tspan x="49964.3px " y="13807.8px ">q</tspan>uam. <tspan x="50140.6px " y="13807.8px ">I</tspan>nteger <tspan x="50332.2px " y="13807.8px ">a</tspan></text>
                <text x="48944.6px" y="13919.3px" style="font-family:'Poppins-Regular', 'Poppins';font-size:50px;fill:rgb(1,55,125);">porttitor <tspan x="49160.5px " y="13919.3px ">n</tspan>unc. <tspan x="49311.2px " y="13919.3px ">Q</tspan>uisque <tspan x="49531.7px " y="13919.3px ">v</tspan>el <tspan x="49616.9px " y="13919.3px ">i</tspan>nterdum <tspan x="49860.3px " y="13919.3px ">l</tspan>orem. <tspan x="50030.1px " y="13919.3px ">U</tspan>t <tspan x="50095.9px " y="13919.3px ">b</tspan>ibendum,</text>
                <text x="48944.6px" y="14030.8px" style="font-family:'Poppins-Regular', 'Poppins';font-size:50px;fill:rgb(1,55,125);">purus <tspan x="49105.1px " y="14030.8px ">q</tspan>uis <tspan x="49227.3px " y="14030.8px ">f</tspan>ermentum <tspan x="49527.6px " y="14030.8px ">s</tspan>odales, <tspan x="49750.6px " y="14030.8px ">t</tspan>urpis <tspan x="49909.6px " y="14030.8px ">n</tspan>isl <tspan x="50010.3px " y="14030.8px ">c</tspan>onvallis <tspan x="50247.5px " y="14030.8px ">s</tspan>em,</text>
                <text x="48944.6px" y="14142.3px" style="font-family:'Poppins-Regular', 'Poppins';font-size:50px;fill:rgb(1,55,125);">sed <tspan x="49067.1px " y="14142.3px ">h</tspan>endrerit <tspan x="49326.2px " y="14142.3px ">n</tspan>isl <tspan x="49440.5px " y="14142.3px ">e</tspan>lit <tspan x="49545.8px " y="14142.3px ">i</tspan>n <tspan x="49621.7px " y="14142.3px ">n</tspan>ibh. <tspan x="49773.8px " y="14142.3px ">p</tspan>urus <tspan x="49948px " y="14142.3px ">q</tspan>uis <tspan x="50083.7px " y="14142.3px ">f</tspan>ermentum</text>
                <text x="48944.6px" y="14253.8px" style="font-family:'Poppins-Regular', 'Poppins';font-size:50px;fill:rgb(1,55,125);">sodales, <tspan x="49167.6px " y="14253.8px ">t</tspan>urpis <tspan x="49326.6px " y="14253.8px ">n</tspan>isl <tspan x="49427.3px " y="14253.8px ">c</tspan>onvallis <tspan x="49664.5px " y="14253.8px ">s</tspan>em, <tspan x="49801px " y="14253.8px ">p</tspan>urus <tspan x="49961.5px " y="14253.8px ">q</tspan>uis <tspan x="50083.7px " y="14253.8px ">f</tspan>ermentum</text>
                <g transform="matrix(50,0,0,50,49765.1,14365.3)">
                </g>
                <text x="48944.6px" y="14365.3px" style="font-family:'Poppins-Regular', 'Poppins';font-size:50px;fill:rgb(1,55,125);">sodales, turpis nisl convallis sem.</text>
            </g>
            <g transform="matrix(46.1118,0,0,46.1118,497.017,543.41)">
            </g>
            <text x="284.303px" y="543.41px" style="font-family:'Poppins-SemiBold', 'Poppins';font-weight:600;font-size:46.112px;fill:rgb(1,55,125);">Blog Title</text>
            <g transform="matrix(17.2645,0,0,17.2645,558.055,590.533)">
            </g>
            <text x="286.864px" y="590.533px" style="font-family:'Poppins-SemiBold', 'Poppins';font-weight:600;font-size:17.265px;fill:rgb(1,55,125);">Jason Smith, Chief Accountant</text>
        </g>
        <g>
            <circle cx="538.699" cy="315.623" r="20.98" style="fill:white;"/>
            <circle cx="614.93" cy="315.623" r="20.98" style="fill:white;"/>
            <circle cx="310.008" cy="315.623" r="20.98" style="fill:white;"/>
            <circle cx="386.238" cy="315.623" r="20.98" style="fill:white;"/>
            <circle cx="462.469" cy="315.623" r="20.98" style="fill:white;"/>
        </g>
        <g>
            <circle cx="538.699" cy="379.932" r="20.98" style="fill:white;"/>
            <circle cx="310.008" cy="379.932" r="20.98" style="fill:white;"/>
            <circle cx="386.238" cy="379.932" r="20.98" style="fill:white;"/>
            <circle cx="462.469" cy="379.932" r="20.98" style="fill:white;"/>
        </g>
        <g>
            <circle cx="538.699" cy="444.241" r="20.98" style="fill:white;"/>
            <circle cx="614.93" cy="444.241" r="20.98" style="fill:white;"/>
            <circle cx="310.008" cy="444.241" r="20.98" style="fill:white;"/>
            <circle cx="386.238" cy="444.241" r="20.98" style="fill:white;"/>
            <circle cx="462.469" cy="444.241" r="20.98" style="fill:white;"/>
        </g>
    </g>
    <defs>
        <filter id="_Effect1" filterUnits="userSpaceOnUse" x="125.594" y="259.142" width="160.357" height="668.263">
            <feGaussianBlur in="SourceGraphic" stdDeviation="10.0524"/>
        </filter>
        <filter id="_Effect2" filterUnits="userSpaceOnUse" x="726.746" y="330.676" width="146.223" height="187.125">
            <feGaussianBlur in="SourceGraphic" stdDeviation="8.20942"/>
        </filter>
        <filter id="_Effect3" filterUnits="userSpaceOnUse" x="-196.524" y="-196.524" width="1402.69" height="1584.67">
            <feGaussianBlur in="SourceGraphic" stdDeviation="65.5079"/>
        </filter>
    </defs>
</svg>
