<?xml version="1.0" encoding="UTF-8" standalone="no"?>
<!DOCTYPE svg PUBLIC "-//W3C//DTD SVG 1.1//EN" "http://www.w3.org/Graphics/SVG/1.1/DTD/svg11.dtd">
<svg width="100%" height="100%" viewBox="0 0 378 378" version="1.1" xmlns="http://www.w3.org/2000/svg" xmlns:xlink="http://www.w3.org/1999/xlink" xml:space="preserve" xmlns:serif="http://www.serif.com/" style="fill-rule:evenodd;clip-rule:evenodd;stroke-linecap:round;stroke-linejoin:round;stroke-miterlimit:0.73;">
    <g>
        <g>
            <g>
                <path d="M377.953,94.488L377.953,283.465C377.953,335.614 335.614,377.953 283.465,377.953L94.488,377.953C42.339,377.953 0,335.614 0,283.465L0,94.488C0,42.339 42.339,-0 94.488,-0L283.465,-0C335.614,-0 377.953,42.339 377.953,94.488Z" style="fill:white;"/>
            </g>
        </g>
        <g id="cloud">
            <g>
                <path d="M200.613,195.331L200.613,293.851C200.613,298.974 196.454,303.133 191.331,303.133L172.766,303.133C167.643,303.133 163.483,298.974 163.483,293.851L163.483,195.331C163.483,190.208 167.643,186.048 172.766,186.048L191.331,186.048C196.454,186.048 200.613,190.208 200.613,195.331Z" style="fill:rgb(0,47,112);"/>
                <path d="M182.048,276.55C185.997,276.55 189.203,279.756 189.203,283.705C189.203,287.653 185.997,290.859 182.048,290.859C178.1,290.859 174.894,287.653 174.894,283.705C174.894,279.756 178.1,276.55 182.048,276.55ZM182.048,280.128C184.023,280.128 185.626,281.731 185.626,283.705C185.626,285.679 184.023,287.282 182.048,287.282C180.074,287.282 178.471,285.679 178.471,283.705C178.471,281.731 180.074,280.128 182.048,280.128Z" style="fill:white;"/>
                <path d="M190.389,241.413L190.389,243.028C190.389,243.891 189.689,244.591 188.826,244.591L175.27,244.591C174.408,244.591 173.708,243.891 173.708,243.028L173.708,241.413C173.708,240.551 174.408,239.85 175.27,239.85L188.826,239.85C189.689,239.85 190.389,240.551 190.389,241.413Z" style="fill:rgb(126,211,72);"/>
                <path d="M190.389,251.627L190.389,253.242C190.389,254.104 189.689,254.804 188.826,254.804L175.27,254.804C174.408,254.804 173.708,254.104 173.708,253.242L173.708,251.627C173.708,250.764 174.408,250.064 175.27,250.064L188.826,250.064C189.689,250.064 190.389,250.764 190.389,251.627Z" style="fill:rgb(126,211,72);"/>
                <path d="M190.389,261.826L190.389,263.441C190.389,264.303 189.689,265.004 188.826,265.004L175.27,265.004C174.408,265.004 173.708,264.303 173.708,263.441L173.708,261.826C173.708,260.963 174.408,260.263 175.27,260.263L188.826,260.263C189.689,260.263 190.389,260.963 190.389,261.826Z" style="fill:rgb(126,211,72);"/>
            </g>
            <g>
                <path d="M239.929,195.331L239.929,293.851C239.929,298.974 235.77,303.133 230.647,303.133L212.082,303.133C206.959,303.133 202.799,298.974 202.799,293.851L202.799,195.331C202.799,190.208 206.959,186.048 212.082,186.048L230.647,186.048C235.77,186.048 239.929,190.208 239.929,195.331Z" style="fill:rgb(0,47,112);"/>
                <path d="M221.364,276.55C225.313,276.55 228.519,279.756 228.519,283.705C228.519,287.653 225.313,290.859 221.364,290.859C217.416,290.859 214.21,287.653 214.21,283.705C214.21,279.756 217.416,276.55 221.364,276.55ZM221.364,280.128C223.339,280.128 224.942,281.731 224.942,283.705C224.942,285.679 223.339,287.282 221.364,287.282C219.39,287.282 217.787,285.679 217.787,283.705C217.787,281.731 219.39,280.128 221.364,280.128Z" style="fill:white;"/>
                <path d="M229.705,241.413L229.705,243.028C229.705,243.891 229.005,244.591 228.142,244.591L214.586,244.591C213.724,244.591 213.024,243.891 213.024,243.028L213.024,241.413C213.024,240.551 213.724,239.85 214.586,239.85L228.142,239.85C229.005,239.85 229.705,240.551 229.705,241.413Z" style="fill:rgb(126,211,72);"/>
                <path d="M229.705,251.627L229.705,253.242C229.705,254.104 229.005,254.804 228.142,254.804L214.586,254.804C213.724,254.804 213.024,254.104 213.024,253.242L213.024,251.627C213.024,250.764 213.724,250.064 214.586,250.064L228.142,250.064C229.005,250.064 229.705,250.764 229.705,251.627Z" style="fill:rgb(126,211,72);"/>
                <path d="M229.705,261.826L229.705,263.441C229.705,264.303 229.005,265.004 228.142,265.004L214.586,265.004C213.724,265.004 213.024,264.303 213.024,263.441L213.024,261.826C213.024,260.963 213.724,260.263 214.586,260.263L228.142,260.263C229.005,260.263 229.705,260.963 229.705,261.826Z" style="fill:rgb(126,211,72);"/>
            </g>
            <g>
                <path d="M278.997,195.331L278.997,293.851C278.997,298.974 274.838,303.133 269.714,303.133L251.149,303.133C246.026,303.133 241.867,298.974 241.867,293.851L241.867,195.331C241.867,190.208 246.026,186.048 251.149,186.048L269.714,186.048C274.838,186.048 278.997,190.208 278.997,195.331Z" style="fill:rgb(0,47,112);"/>
                <path d="M260.432,276.55C264.381,276.55 267.586,279.756 267.586,283.705C267.586,287.653 264.381,290.859 260.432,290.859C256.483,290.859 253.278,287.653 253.278,283.705C253.278,279.756 256.483,276.55 260.432,276.55ZM260.432,280.128C262.406,280.128 264.009,281.731 264.009,283.705C264.009,285.679 262.406,287.282 260.432,287.282C258.458,287.282 256.855,285.679 256.855,283.705C256.855,281.731 258.458,280.128 260.432,280.128Z" style="fill:white;"/>
                <path d="M268.773,241.413L268.773,243.028C268.773,243.891 268.072,244.591 267.21,244.591L253.654,244.591C252.791,244.591 252.091,243.891 252.091,243.028L252.091,241.413C252.091,240.551 252.791,239.85 253.654,239.85L267.21,239.85C268.072,239.85 268.773,240.551 268.773,241.413Z" style="fill:rgb(126,211,72);"/>
                <path d="M268.773,251.627L268.773,253.242C268.773,254.104 268.072,254.804 267.21,254.804L253.654,254.804C252.791,254.804 252.091,254.104 252.091,253.242L252.091,251.627C252.091,250.764 252.791,250.064 253.654,250.064L267.21,250.064C268.072,250.064 268.773,250.764 268.773,251.627Z" style="fill:rgb(126,211,72);"/>
                <path d="M268.773,261.826L268.773,263.441C268.773,264.303 268.072,265.004 267.21,265.004L253.654,265.004C252.791,265.004 252.091,264.303 252.091,263.441L252.091,261.826C252.091,260.963 252.791,260.263 253.654,260.263L267.21,260.263C268.072,260.263 268.773,260.963 268.773,261.826Z" style="fill:rgb(126,211,72);"/>
            </g>
            <g style="filter:url(#_Effect1);">
                <path d="M262.048,226.351L95.074,226.351C72.457,226.351 54.094,208.829 54.094,187.247C54.094,165.665 72.457,148.143 95.074,148.143C95.112,148.143 95.151,148.143 95.19,148.143C97.049,120.683 121.01,98.928 150.254,98.928C154.977,98.928 159.562,99.495 163.938,100.563C176.322,84.929 195.967,74.819 218.067,74.819C249.244,74.819 275.536,94.94 283.447,122.304C304.097,130.365 318.661,149.737 318.661,172.328C318.661,202.144 293.294,226.351 262.048,226.351Z" style="fill:none;stroke:rgb(1,55,125);stroke-opacity:0.32;stroke-width:5.93px;"/>
            </g>
            <path d="M262.048,226.351L95.074,226.351C72.457,226.351 54.094,208.829 54.094,187.247C54.094,165.665 72.457,148.143 95.074,148.143C95.112,148.143 95.151,148.143 95.19,148.143C97.049,120.683 121.01,98.928 150.254,98.928C154.977,98.928 159.562,99.495 163.938,100.563C176.322,84.929 195.967,74.819 218.067,74.819C249.244,74.819 275.536,94.94 283.447,122.304C304.097,130.365 318.661,149.737 318.661,172.328C318.661,202.144 293.294,226.351 262.048,226.351Z" style="fill:white;stroke:white;stroke-width:0.13px;"/>
            <g style="filter:url(#_Effect2);">
                <rect x="158.979" y="166.121" width="130.434" height="70.521" style="fill:rgb(19,159,255);fill-opacity:0.32;"/>
            </g>
        </g>
    </g>
    <defs>
        <filter id="_Effect1" filterUnits="userSpaceOnUse" x="14.3804" y="35.1054" width="343.995" height="230.96">
            <feGaussianBlur in="SourceGraphic" stdDeviation="6.12446"/>
        </filter>
        <filter id="_Effect2" filterUnits="userSpaceOnUse" x="87.686" y="94.8273" width="273.021" height="213.108">
            <feGaussianBlur in="SourceGraphic" stdDeviation="11.8822"/>
        </filter>
    </defs>
</svg>
