<?xml version="1.0" encoding="UTF-8" standalone="no"?>
<!DOCTYPE svg PUBLIC "-//W3C//DTD SVG 1.1//EN" "http://www.w3.org/Graphics/SVG/1.1/DTD/svg11.dtd">
<svg width="100%" height="100%" viewBox="0 0 125 125" version="1.1" xmlns="http://www.w3.org/2000/svg" xmlns:xlink="http://www.w3.org/1999/xlink" xml:space="preserve" xmlns:serif="http://www.serif.com/" style="fill-rule:evenodd;clip-rule:evenodd;stroke-linejoin:round;stroke-miterlimit:2;">
    <g transform="matrix(1.73611,0,0,1.73611,62.5,62.5)">
        <g id="Cisco" transform="matrix(1,0,0,1,-36,-19)">
            <clipPath id="_clip1">
                <rect x="0" y="0" width="72" height="38"/>
            </clipPath>
            <g clip-path="url(#_clip1)">
                <rect id="path268" x="20.364" y="25.245" width="3.157" height="12.511" style="fill:rgb(196,18,46);fill-rule:nonzero;"/>
                <g id="use360" transform="matrix(1,0,0,1,32.9532,0)">
                    <path d="M16.024,28.83C15.897,28.764 14.882,28.162 13.372,28.162C11.327,28.162 9.912,29.583 9.912,31.499C9.912,33.358 11.268,34.839 13.372,34.839C14.856,34.839 15.888,34.25 16.024,34.175L16.024,37.533C15.632,37.644 14.555,37.978 13.145,37.978C9.596,37.978 6.483,35.53 6.483,31.499C6.483,27.763 9.303,25.023 13.145,25.023C14.631,25.023 15.727,25.384 16.024,25.472L16.024,28.83Z" style="fill:rgb(196,18,46);fill-rule:nonzero;"/>
                </g>
                <path id="path284" d="M16.024,28.83C15.897,28.764 14.882,28.162 13.372,28.162C11.327,28.162 9.912,29.583 9.912,31.499C9.912,33.358 11.268,34.839 13.372,34.839C14.856,34.839 15.888,34.25 16.024,34.175L16.024,37.533C15.632,37.644 14.555,37.978 13.145,37.978C9.596,37.978 6.483,35.53 6.483,31.499C6.483,27.763 9.303,25.023 13.145,25.023C14.631,25.023 15.727,25.384 16.024,25.472L16.024,28.83Z" style="fill:rgb(196,18,46);fill-rule:nonzero;"/>
                <path id="path288" d="M58.908,28.209C57.035,28.209 55.644,29.683 55.644,31.499C55.644,33.319 57.035,34.792 58.908,34.792C60.779,34.792 62.174,33.319 62.174,31.499C62.174,29.683 60.779,28.209 58.908,28.209M65.519,31.499C65.519,35.078 62.756,37.978 58.908,37.978C55.06,37.978 52.301,35.078 52.301,31.499C52.301,27.926 55.06,25.023 58.908,25.023C62.756,25.023 65.519,27.926 65.519,31.499" style="fill:rgb(196,18,46);fill-rule:nonzero;"/>
                <path id="path292" d="M35.493,28.089C35.446,28.074 34.117,27.707 33.025,27.707C31.76,27.707 31.072,28.131 31.072,28.732C31.072,29.494 32,29.76 32.519,29.924L33.39,30.201C35.439,30.853 36.373,32.256 36.373,33.78C36.373,36.923 33.609,37.979 31.193,37.979C29.514,37.979 27.941,37.67 27.786,37.637L27.786,34.758C28.064,34.828 29.388,35.223 30.767,35.223C32.338,35.223 33.06,34.764 33.06,34.055C33.06,33.421 32.435,33.055 31.652,32.809C31.461,32.745 31.174,32.655 30.978,32.591C29.22,32.035 27.754,31.002 27.754,28.931C27.754,26.591 29.506,25.02 32.416,25.02C33.953,25.02 35.399,25.393 35.493,25.418L35.493,28.089Z" style="fill:rgb(196,18,46);fill-rule:nonzero;"/>
                <g id="g383">
                    <path id="path296" d="M3.135,11.8C3.135,10.938 2.431,10.239 1.568,10.239C0.705,10.239 0,10.938 0,11.8L0,15.084C0,15.951 0.705,16.651 1.568,16.651C2.431,16.651 3.135,15.951 3.135,15.084L3.135,11.8Z" style="fill:rgb(21,73,93);fill-rule:nonzero;"/>
                    <path id="path300" d="M11.744,7.489C11.744,6.627 11.04,5.926 10.177,5.926C9.313,5.926 8.609,6.627 8.609,7.489L8.609,15.084C8.609,15.951 9.313,16.65 10.177,16.65C11.04,16.65 11.744,15.951 11.744,15.084L11.744,7.489Z" style="fill:rgb(21,73,93);fill-rule:nonzero;"/>
                    <path id="path304" d="M20.354,1.592C20.354,0.73 19.65,0.03 18.787,0.03C17.923,0.03 17.219,0.73 17.219,1.592L17.219,18.205C17.219,19.072 17.923,19.772 18.787,19.772C19.65,19.772 20.354,19.072 20.354,18.205L20.354,1.592Z" style="fill:rgb(21,73,93);fill-rule:nonzero;"/>
                    <path id="path308" d="M28.963,7.489C28.963,6.627 28.259,5.926 27.396,5.926C26.532,5.926 25.828,6.627 25.828,7.489L25.828,15.084C25.828,15.951 26.532,16.65 27.396,16.65C28.259,16.65 28.963,15.951 28.963,15.084L28.963,7.489Z" style="fill:rgb(21,73,93);fill-rule:nonzero;"/>
                    <path id="path312" d="M37.563,11.8C37.563,10.938 36.864,10.239 36.005,10.239C35.142,10.239 34.438,10.938 34.438,11.8L34.438,15.084C34.438,15.951 35.142,16.651 36.005,16.651C36.864,16.651 37.563,15.951 37.563,15.084L37.563,11.8Z" style="fill:rgb(21,73,93);fill-rule:nonzero;"/>
                </g>
                <g id="use385" transform="matrix(1,0,0,1,34.4317,0)">
                    <path id="path2961" serif:id="path296" d="M3.135,11.8C3.135,10.938 2.431,10.239 1.568,10.239C0.705,10.239 0,10.938 0,11.8L0,15.084C0,15.951 0.705,16.651 1.568,16.651C2.431,16.651 3.135,15.951 3.135,15.084L3.135,11.8Z" style="fill:rgb(21,73,93);fill-rule:nonzero;"/>
                    <path id="path3001" serif:id="path300" d="M11.744,7.489C11.744,6.627 11.04,5.926 10.177,5.926C9.313,5.926 8.609,6.627 8.609,7.489L8.609,15.084C8.609,15.951 9.313,16.65 10.177,16.65C11.04,16.65 11.744,15.951 11.744,15.084L11.744,7.489Z" style="fill:rgb(21,73,93);fill-rule:nonzero;"/>
                    <path id="path3041" serif:id="path304" d="M20.354,1.592C20.354,0.73 19.65,0.03 18.787,0.03C17.923,0.03 17.219,0.73 17.219,1.592L17.219,18.205C17.219,19.072 17.923,19.772 18.787,19.772C19.65,19.772 20.354,19.072 20.354,18.205L20.354,1.592Z" style="fill:rgb(21,73,93);fill-rule:nonzero;"/>
                    <path id="path3081" serif:id="path308" d="M28.963,7.489C28.963,6.627 28.259,5.926 27.396,5.926C26.532,5.926 25.828,6.627 25.828,7.489L25.828,15.084C25.828,15.951 26.532,16.65 27.396,16.65C28.259,16.65 28.963,15.951 28.963,15.084L28.963,7.489Z" style="fill:rgb(21,73,93);fill-rule:nonzero;"/>
                    <path id="path3121" serif:id="path312" d="M37.563,11.8C37.563,10.938 36.864,10.239 36.005,10.239C35.142,10.239 34.438,10.938 34.438,11.8L34.438,15.084C34.438,15.951 35.142,16.651 36.005,16.651C36.864,16.651 37.563,15.951 37.563,15.084L37.563,11.8Z" style="fill:rgb(21,73,93);fill-rule:nonzero;"/>
                </g>
                <path id="path332" d="M70.194,36.108L70.194,36.304L69.636,36.304L69.636,37.755L69.407,37.755L69.407,36.304L68.846,36.304L68.846,36.108L70.194,36.108Z" style="fill:rgb(196,18,46);fill-rule:nonzero;"/>
                <path id="path336" d="M70.311,36.108L70.67,36.108L71.163,37.459L71.171,37.459L71.648,36.108L72,36.108L72,37.755L71.765,37.755L71.765,36.405L71.757,36.405L71.257,37.755L71.04,37.755L70.552,36.405L70.541,36.405L70.541,37.755L70.311,37.755L70.311,36.108Z" style="fill:rgb(196,18,46);fill-rule:nonzero;"/>
            </g>
        </g>
        <g id="Cisco1" serif:id="Cisco">
        </g>
    </g>
</svg>
