<?xml version="1.0" encoding="UTF-8" standalone="no"?>
<!DOCTYPE svg PUBLIC "-//W3C//DTD SVG 1.1//EN" "http://www.w3.org/Graphics/SVG/1.1/DTD/svg11.dtd">
<svg width="100%" height="100%" viewBox="0 0 494 494" version="1.1" xmlns="http://www.w3.org/2000/svg" xmlns:xlink="http://www.w3.org/1999/xlink" xml:space="preserve" xmlns:serif="http://www.serif.com/" style="fill-rule:evenodd;clip-rule:evenodd;stroke-linejoin:round;stroke-miterlimit:0.73;">
    <g>
        <g>
            <g>
                <g style="filter:url(#_Effect1);">
                    <path d="M435.953,152.488L435.953,341.465C435.953,393.614 393.614,435.953 341.465,435.953L152.488,435.953C100.339,435.953 58,393.614 58,341.465L58,152.488C58,100.339 100.339,58 152.488,58L341.465,58C393.614,58 435.953,100.339 435.953,152.488Z" style="fill:none;stroke:rgb(1,55,125);stroke-opacity:0.2;stroke-width:20px;"/>
                </g>
                <path d="M433.79,152.368L433.79,341.344C433.79,393.494 391.451,435.832 339.302,435.832L150.325,435.832C98.176,435.832 55.837,393.494 55.837,341.344L55.837,152.368C55.837,100.218 98.176,57.88 150.325,57.88L339.302,57.88C391.451,57.88 433.79,100.218 433.79,152.368Z" style="fill:white;stroke:white;stroke-width:0.46px;"/>
            </g>
        </g>
        <g>
            <path d="M208.096,152.247L208.096,193.024C208.096,204.276 198.96,213.412 187.707,213.412L146.931,213.412C135.678,213.412 126.542,204.276 126.542,193.024L126.542,152.247C126.542,140.994 135.678,131.859 146.931,131.859L187.707,131.859C198.96,131.859 208.096,140.994 208.096,152.247Z" style="fill:rgb(1,55,125);"/>
            <path d="M365.248,152.247L365.248,193.024C365.248,204.276 356.112,213.412 344.859,213.412L304.083,213.412C292.83,213.412 283.694,204.276 283.694,193.024L283.694,152.247C283.694,140.994 292.83,131.859 304.083,131.859L344.859,131.859C356.112,131.859 365.248,140.994 365.248,152.247Z" style="fill:rgb(1,55,125);"/>
            <path d="M208.096,300.809L208.096,341.586C208.096,352.838 198.96,361.974 187.707,361.974L146.931,361.974C135.678,361.974 126.542,352.838 126.542,341.586L126.542,300.809C126.542,289.556 135.678,280.421 146.931,280.421L187.707,280.421C198.96,280.421 208.096,289.556 208.096,300.809Z" style="fill:rgb(1,55,125);"/>
            <path d="M365.248,300.809L365.248,341.586C365.248,352.838 356.112,361.974 344.859,361.974L304.083,361.974C292.83,361.974 283.694,352.838 283.694,341.586L283.694,300.809C283.694,289.556 292.83,280.421 304.083,280.421L344.859,280.421C356.112,280.421 365.248,289.556 365.248,300.809Z" style="fill:rgb(1,55,124);"/>
            <circle cx="245.895" cy="246.916" r="91.093" style="fill:rgb(247,246,255);"/>
        </g>
        <path d="M253.189,171.849L255.592,183.546C260.242,184.258 264.799,185.479 269.182,187.188L277.112,178.259C281.549,180.276 285.78,182.719 289.746,185.553L285.978,196.885C289.649,199.826 292.985,203.162 295.927,206.833L307.258,203.066C310.092,207.031 312.535,211.262 314.552,215.7L305.624,223.629C307.332,228.012 308.554,232.569 309.265,237.219L320.962,239.622C321.434,244.473 321.434,249.359 320.962,254.211L309.265,256.613C308.554,261.263 307.332,265.821 305.624,270.203L314.552,278.133C312.535,282.57 310.092,286.801 307.258,290.767L295.927,286.999C292.985,290.67 289.649,294.007 285.978,296.948L289.746,308.279C285.78,311.113 281.549,313.556 277.112,315.574L269.182,306.645C264.799,308.354 260.242,309.575 255.592,310.286L253.189,321.984C248.338,322.455 243.452,322.455 238.601,321.984L236.198,310.286C231.548,309.575 226.99,308.354 222.608,306.645L214.678,315.574C210.241,313.556 206.01,311.113 202.044,308.279L205.812,296.948C202.141,294.007 198.804,290.67 195.863,286.999L184.532,290.767C181.698,286.801 179.255,282.57 177.238,278.133L186.166,270.203C184.458,265.821 183.236,261.263 182.525,256.613L170.828,254.211C170.356,249.359 170.356,244.473 170.828,239.622L182.525,237.219C183.236,232.569 184.458,228.012 186.166,223.629L177.238,215.7C179.255,211.262 181.698,207.031 184.532,203.066L195.863,206.833C198.804,203.162 202.141,199.826 205.812,196.885L202.044,185.553C206.01,182.719 210.241,180.276 214.678,178.259L222.608,187.188C226.99,185.479 231.548,184.258 236.198,183.546L238.601,171.849C243.452,171.377 248.338,171.377 253.189,171.849ZM245.895,192.442C275.96,192.442 300.369,216.851 300.369,246.916C300.369,276.981 275.96,301.39 245.895,301.39C215.83,301.39 191.421,276.981 191.421,246.916C191.421,216.851 215.83,192.442 245.895,192.442Z" style="fill:rgb(123,210,75);"/>
        <path d="M281.028,229.161L281.028,255.209C281.028,262.398 275.192,268.234 268.003,268.234L223.751,268.234C216.562,268.234 210.726,262.398 210.726,255.209L210.726,229.161C210.726,221.972 216.562,216.136 223.751,216.136L268.003,216.136C275.192,216.136 281.028,221.972 281.028,229.161Z" style="fill:rgb(1,55,125);"/>
        <path d="M281.064,275.393C281.064,276.664 280.031,277.696 278.76,277.696L213.065,277.696C211.794,277.696 210.762,276.664 210.762,275.393C210.762,274.122 211.794,273.09 213.065,273.09L278.76,273.09C280.031,273.09 281.064,274.122 281.064,275.393Z" style="fill:rgb(1,55,125);"/>
        <path d="M274.853,232.437L274.853,251.933C274.853,257.313 270.485,261.681 265.105,261.681L226.649,261.681C221.269,261.681 216.901,257.313 216.901,251.933L216.901,232.437C216.901,227.056 221.269,222.688 226.649,222.688L265.105,222.688C270.485,222.688 274.853,227.056 274.853,232.437Z" style="fill:rgb(247,246,255);"/>
    </g>
    <defs>
        <filter id="_Effect1" filterUnits="userSpaceOnUse" x="-48" y="-48" width="589.953" height="589.953">
            <feGaussianBlur in="SourceGraphic" stdDeviation="16"/>
        </filter>
    </defs>
</svg>
