<?xml version="1.0" encoding="UTF-8" standalone="no"?>
<!DOCTYPE svg PUBLIC "-//W3C//DTD SVG 1.1//EN" "http://www.w3.org/Graphics/SVG/1.1/DTD/svg11.dtd">
<svg width="100%" height="100%" viewBox="0 0 494 494" version="1.1" xmlns="http://www.w3.org/2000/svg" xmlns:xlink="http://www.w3.org/1999/xlink" xml:space="preserve" xmlns:serif="http://www.serif.com/" style="fill-rule:evenodd;clip-rule:evenodd;stroke-linejoin:round;stroke-miterlimit:0.73;">
    <g>
        <g>
            <g style="filter:url(#_Effect1);">
                <path d="M435.953,152.488L435.953,341.465C435.953,393.614 393.614,435.953 341.465,435.953L152.488,435.953C100.339,435.953 58,393.614 58,341.465L58,152.488C58,100.339 100.339,58 152.488,58L341.465,58C393.614,58 435.953,100.339 435.953,152.488Z" style="fill:none;stroke:#01377d;stroke-opacity:0.2;stroke-width:20px;"/>
            </g>
            <path d="M433.79,152.368L433.79,341.344C433.79,393.494 391.451,435.832 339.302,435.832L150.325,435.832C98.176,435.832 55.837,393.494 55.837,341.344L55.837,152.368C55.837,100.218 98.176,57.88 150.325,57.88L339.302,57.88C391.451,57.88 433.79,100.218 433.79,152.368Z" style="fill:#fff;stroke:#fff;stroke-width:0.46px;"/>
        </g>
        <path d="M257.501,127.479L261.324,146.09C268.722,147.222 275.973,149.165 282.947,151.884L295.563,137.678C302.623,140.887 309.355,144.774 315.665,149.283L309.67,167.312C315.511,171.992 320.819,177.3 325.499,183.141L343.528,177.147C348.037,183.456 351.924,190.189 355.134,197.248L340.927,209.865C343.646,216.838 345.589,224.089 346.721,231.488L365.332,235.311C366.082,243.029 366.082,250.803 365.332,258.522L346.721,262.345C345.589,269.743 343.646,276.995 340.927,283.968L355.134,296.584C351.924,303.644 348.037,310.376 343.528,316.686L325.499,310.691C320.819,316.532 315.511,321.84 309.67,326.52L315.665,344.549C309.355,349.058 302.623,352.945 295.563,356.155L282.947,341.949C275.973,344.668 268.722,346.611 261.324,347.743L257.501,366.354C249.782,367.104 242.008,367.104 234.289,366.354L230.466,347.743C223.068,346.611 215.817,344.668 208.843,341.949L196.227,356.155C189.167,352.945 182.435,349.058 176.125,344.549L182.12,326.52C176.279,321.84 170.971,316.532 166.291,310.691L148.262,316.686C143.753,310.376 139.866,303.644 136.656,296.584L150.862,283.968C148.144,276.995 146.201,269.743 145.069,262.345L126.457,258.522C125.707,250.803 125.707,243.029 126.457,235.311L145.069,231.488C146.201,224.089 148.144,216.838 150.862,209.865L136.656,197.248C139.866,190.189 143.753,183.456 148.262,177.147L166.291,183.141C170.971,177.3 176.279,171.992 182.12,167.312L176.125,149.283C182.435,144.774 189.167,140.887 196.227,137.678L208.843,151.884C215.817,149.165 223.068,147.222 230.466,146.09L234.289,127.479C242.008,126.729 249.782,126.729 257.501,127.479ZM245.895,181.517C281.99,181.517 311.294,210.822 311.294,246.916C311.294,283.011 281.99,312.315 245.895,312.315C209.8,312.315 180.496,283.011 180.496,246.916C180.496,210.822 209.8,181.517 245.895,181.517Z" style="fill:#01377d;"/>
        <g>
            <path d="M268.912,279.458L238.898,262.129C233.23,258.857 231.286,251.599 234.558,245.932C237.83,240.264 245.088,238.319 250.755,241.592L280.769,258.92C286.437,262.192 288.382,269.45 285.109,275.118C281.837,280.785 274.579,282.73 268.912,279.458Z" style="fill:#7cd24c;"/>
            <path d="M256.408,206.436L256.408,250.535C256.408,257.08 251.095,262.393 244.55,262.393C238.006,262.393 232.693,257.08 232.693,250.535L232.693,206.436C232.693,199.892 238.006,194.579 244.55,194.579C251.095,194.579 256.408,199.892 256.408,206.436Z" style="fill:#7cd24c;"/>
            <clipPath id="_clip2">
                <path d="M256.408,206.436L256.408,250.535C256.408,257.08 251.095,262.393 244.55,262.393C238.006,262.393 232.693,257.08 232.693,250.535L232.693,206.436C232.693,199.892 238.006,194.579 244.55,194.579C251.095,194.579 256.408,199.892 256.408,206.436Z"/>
            </clipPath>
            <g clip-path="url(#_clip2)">
                <path d="M268.912,279.458L238.898,262.129C233.23,258.857 231.286,251.599 234.558,245.932C237.83,240.264 245.088,238.319 250.755,241.592L280.769,258.92C286.437,262.192 288.382,269.45 285.109,275.118C281.837,280.785 274.579,282.73 268.912,279.458Z" style="fill:#9dafff;"/>
            </g>
        </g>
    </g>
    <defs>
        <filter id="_Effect1" filterUnits="userSpaceOnUse" x="-48" y="-48" width="589.953" height="589.953">
            <feGaussianBlur in="SourceGraphic" stdDeviation="16"/>
        </filter>
    </defs>
</svg>
