<?xml version="1.0" encoding="UTF-8" standalone="no"?>
<!DOCTYPE svg PUBLIC "-//W3C//DTD SVG 1.1//EN" "http://www.w3.org/Graphics/SVG/1.1/DTD/svg11.dtd">
<svg width="100%" height="100%" viewBox="0 0 379 379" version="1.1" xmlns="http://www.w3.org/2000/svg" xmlns:xlink="http://www.w3.org/1999/xlink" xml:space="preserve" xmlns:serif="http://www.serif.com/" style="fill-rule:evenodd;clip-rule:evenodd;stroke-linejoin:round;stroke-miterlimit:0.73;">
    <g>
        <g>
            <path d="M378.185,94.721L378.185,283.697C378.185,335.846 335.846,378.185 283.697,378.185L94.721,378.185C42.571,378.185 0.232,335.846 0.232,283.697L0.232,94.721C0.232,42.571 42.571,0.232 94.721,0.232L283.697,0.232C335.846,0.232 378.185,42.571 378.185,94.721Z" style="fill:white;stroke:white;stroke-width:0.46px;"/>
        </g>
        <g>
            <path d="M226.801,120.352C226.801,139.497 211.258,155.04 192.113,155.04L188.468,155.04C169.323,155.04 153.779,139.497 153.779,120.352C153.779,101.207 169.323,85.663 188.468,85.663L192.113,85.663C211.258,85.663 226.801,101.207 226.801,120.352Z" style="fill:rgb(1,55,125);"/>
            <clipPath id="_clip1">
                <path d="M226.801,120.352C226.801,139.497 211.258,155.04 192.113,155.04L188.468,155.04C169.323,155.04 153.779,139.497 153.779,120.352C153.779,101.207 169.323,85.663 188.468,85.663L192.113,85.663C211.258,85.663 226.801,101.207 226.801,120.352Z"/>
            </clipPath>
            <g clip-path="url(#_clip1)">
                <path d="M216.715,185.439L215.017,185.439L215.017,180.95L216.715,180.95L216.715,185.439Z" style="fill:rgb(150,140,255);"/>
            </g>
            <path d="M133.126,155.093C133.126,166.153 124.147,175.132 113.088,175.132L110.982,175.132C99.922,175.132 90.943,166.153 90.943,155.093C90.943,144.033 99.922,135.054 110.982,135.054L113.088,135.054C124.147,135.054 133.126,144.033 133.126,155.093Z" style="fill:rgb(1,55,125);"/>
            <clipPath id="_clip2">
                <path d="M133.126,155.093C133.126,166.153 124.147,175.132 113.088,175.132L110.982,175.132C99.922,175.132 90.943,166.153 90.943,155.093C90.943,144.033 99.922,135.054 110.982,135.054L113.088,135.054C124.147,135.054 133.126,144.033 133.126,155.093Z"/>
            </clipPath>
            <g clip-path="url(#_clip2)">
                <path d="M127.3,192.692L126.319,192.692L126.319,190.099L127.3,190.099L127.3,192.692Z" style="fill:rgb(150,140,255);"/>
            </g>
            <path d="M289.637,155.093C289.637,166.153 280.658,175.132 269.599,175.132L267.493,175.132C256.433,175.132 247.454,166.153 247.454,155.093C247.454,144.033 256.433,135.054 267.493,135.054L269.599,135.054C280.658,135.054 289.637,144.033 289.637,155.093Z" style="fill:rgb(1,55,125);"/>
            <clipPath id="_clip3">
                <path d="M289.637,155.093C289.637,166.153 280.658,175.132 269.599,175.132L267.493,175.132C256.433,175.132 247.454,166.153 247.454,155.093C247.454,144.033 256.433,135.054 267.493,135.054L269.599,135.054C280.658,135.054 289.637,144.033 289.637,155.093Z"/>
            </clipPath>
            <g clip-path="url(#_clip3)">
                <path d="M283.811,192.692L282.83,192.692L282.83,190.099L283.811,190.099L283.811,192.692Z" style="fill:rgb(150,140,255);"/>
            </g>
            <path d="M310.29,220.345L310.29,257.185C310.29,274.654 296.108,288.836 278.639,288.836L258.452,288.836C240.984,288.836 226.801,274.654 226.801,257.185L226.801,220.345C226.801,202.876 240.984,188.694 258.452,188.694L278.639,188.694C296.108,188.694 310.29,202.876 310.29,220.345Z" style="fill:rgb(124,210,76);"/>
            <path d="M153.779,220.345L153.779,257.185C153.779,274.654 139.597,288.836 122.128,288.836L101.941,288.836C84.473,288.836 70.29,274.654 70.29,257.185L70.29,220.345C70.29,202.876 84.473,188.694 101.941,188.694L122.128,188.694C139.597,188.694 153.779,202.876 153.779,220.345Z" style="fill:rgb(124,210,76);"/>
            <path d="M255.142,208.4L255.142,239.724C255.142,266.83 233.136,288.836 206.03,288.836L173.013,288.836C145.908,288.836 123.902,266.83 123.902,239.724L123.902,208.4C123.902,181.295 145.908,159.289 173.013,159.289L206.03,159.289C233.136,159.289 255.142,181.295 255.142,208.4Z" style="fill:rgb(1,55,125);"/>
            <clipPath id="_clip4">
                <path d="M255.142,208.4L255.142,239.724C255.142,266.83 233.136,288.836 206.03,288.836L173.013,288.836C145.908,288.836 123.902,266.83 123.902,239.724L123.902,208.4C123.902,181.295 145.908,159.289 173.013,159.289L206.03,159.289C233.136,159.289 255.142,181.295 255.142,208.4Z"/>
            </clipPath>
            <g clip-path="url(#_clip4)">
                <g>
                    <g style="filter:url(#_Effect5);">
                        <path d="M153.779,220.345L153.779,257.185C153.779,274.654 139.597,288.836 122.128,288.836L101.941,288.836C84.473,288.836 70.29,274.654 70.29,257.185L70.29,220.345C70.29,202.876 84.473,188.694 101.941,188.694L122.128,188.694C139.597,188.694 153.779,202.876 153.779,220.345Z" style="fill:rgb(157,175,255);"/>
                    </g>
                </g>
                <g>
                    <g style="filter:url(#_Effect6);">
                        <path d="M310.29,220.345L310.29,257.185C310.29,274.654 296.108,288.836 278.639,288.836L258.452,288.836C240.984,288.836 226.801,274.654 226.801,257.185L226.801,220.345C226.801,202.876 240.984,188.694 258.452,188.694L278.639,188.694C296.108,188.694 310.29,202.876 310.29,220.345Z" style="fill:rgb(157,175,255);"/>
                    </g>
                </g>
            </g>
        </g>
    </g>
    <defs>
        <filter id="_Effect5" filterUnits="userSpaceOnUse" x="55.0822" y="173.486" width="113.905" height="130.558">
            <feGaussianBlur in="SourceGraphic" stdDeviation="2.53467"/>
        </filter>
        <filter id="_Effect6" filterUnits="userSpaceOnUse" x="211.593" y="173.486" width="113.905" height="130.558">
            <feGaussianBlur in="SourceGraphic" stdDeviation="2.53467"/>
        </filter>
    </defs>
</svg>
