<?xml version="1.0" encoding="UTF-8" standalone="no"?>
<!DOCTYPE svg PUBLIC "-//W3C//DTD SVG 1.1//EN" "http://www.w3.org/Graphics/SVG/1.1/DTD/svg11.dtd">
<svg width="100%" height="100%" viewBox="0 0 379 379" version="1.1" xmlns="http://www.w3.org/2000/svg" xmlns:xlink="http://www.w3.org/1999/xlink" xml:space="preserve" xmlns:serif="http://www.serif.com/" style="fill-rule:evenodd;clip-rule:evenodd;stroke-linejoin:round;stroke-miterlimit:0.73;">
    <g id="icon">
        <g>
            <path d="M378.185,132.516L378.185,245.902C378.185,318.911 318.911,378.185 245.902,378.185L132.516,378.185C59.507,378.185 0.232,318.911 0.232,245.902L0.232,132.516C0.232,59.507 59.507,0.232 132.516,0.232L245.902,0.232C318.911,0.232 378.185,59.507 378.185,132.516Z" style="fill:white;stroke:white;stroke-width:0.46px;"/>
        </g>
        <g>
            <path d="M249.301,297.012C249.301,308.95 239.609,318.643 227.67,318.643L104.819,318.643C92.881,318.643 83.188,308.95 83.188,297.012C83.188,285.074 92.881,275.382 104.819,275.382L227.67,275.382C239.609,275.382 249.301,285.074 249.301,297.012Z" style="fill:rgb(1,55,125);"/>
            <path d="M250.812,246.889C250.812,258.828 241.12,268.52 229.182,268.52L106.33,268.52C94.392,268.52 84.7,258.828 84.7,246.889C84.7,234.951 94.392,225.259 106.33,225.259L229.182,225.259C241.12,225.259 250.812,234.951 250.812,246.889Z" style="fill:rgb(124,210,76);"/>
            <path d="M249.717,193.513C249.717,205.451 240.025,215.144 228.086,215.144L105.235,215.144C93.296,215.144 83.604,205.451 83.604,193.513C83.604,181.575 93.296,171.883 105.235,171.883L228.086,171.883C240.025,171.883 249.717,181.575 249.717,193.513Z" style="fill:rgb(1,55,125);"/>
            <ellipse cx="259.723" cy="206.786" rx="79.029" ry="78.16" style="fill:none;stroke:white;stroke-width:34.69px;stroke-linecap:round;stroke-miterlimit:0.348837;"/>
            <ellipse cx="259.723" cy="206.786" rx="79.029" ry="78.16" style="fill:rgb(1,55,125);"/>
            <path d="M284.551,225.093C284.551,228.607 283.645,231.901 281.835,234.976C280.024,238.05 277.36,240.584 273.841,242.578C270.322,244.571 266.171,245.737 261.389,246.074L261.389,254.285L254.83,254.285L254.83,245.973C247.997,245.365 242.497,243.321 238.329,239.841C234.161,236.361 232.009,231.648 231.873,225.701L247.246,225.701C247.655,230.566 250.183,233.506 254.83,234.519L254.83,215.16C249.91,213.943 245.947,212.727 242.941,211.511C239.935,210.294 237.339,208.335 235.152,205.632C232.966,202.929 231.873,199.246 231.873,194.584C231.873,188.705 234.008,183.907 238.278,180.19C242.548,176.474 248.065,174.345 254.83,173.805L254.83,165.594L261.389,165.594L261.389,173.805C267.948,174.345 273.192,176.305 277.12,179.684C281.049,183.062 283.252,187.725 283.731,193.671L268.255,193.671C268.05,191.712 267.35,190.005 266.154,188.553C264.959,187.1 263.37,186.069 261.389,185.461L261.389,204.618C266.513,205.902 270.561,207.135 273.533,208.318C276.505,209.5 279.085,211.426 281.271,214.095C283.457,216.765 284.551,220.43 284.551,225.093ZM246.836,193.874C246.836,196.104 247.519,197.911 248.885,199.297C250.252,200.682 252.233,201.814 254.83,202.692L254.83,185.157C252.37,185.495 250.423,186.407 248.988,187.894C247.553,189.38 246.836,191.374 246.836,193.874ZM261.389,234.722C263.985,234.249 266.018,233.202 267.487,231.58C268.956,229.958 269.69,227.999 269.69,225.701C269.69,223.471 268.973,221.68 267.538,220.329C266.103,218.978 264.053,217.863 261.389,216.984L261.389,234.722Z" style="fill:white;fill-rule:nonzero;"/>
            <path d="M202.937,49.143L202.937,90.148C202.937,96.286 197.954,101.27 191.816,101.27L169.573,101.27C163.435,101.27 158.451,96.286 158.451,90.148L158.451,49.143C158.451,43.005 163.435,38.022 169.573,38.022L191.816,38.022C197.954,38.022 202.937,43.005 202.937,49.143Z" style="fill:rgb(1,55,125);"/>
            <path d="M177.603,149.537C178.311,150.543 179.464,151.142 180.694,151.142C181.924,151.142 183.078,150.543 183.786,149.537C191.488,138.586 211.545,110.071 220.298,97.628C221.109,96.474 221.211,94.964 220.561,93.711C219.911,92.459 218.617,91.674 217.206,91.674L144.182,91.674C142.771,91.674 141.478,92.459 140.828,93.711C140.178,94.964 140.279,96.474 141.091,97.628C149.843,110.071 169.9,138.586 177.603,149.537Z" style="fill:rgb(124,210,76);"/>
        </g>
    </g>
</svg>
