<?xml version="1.0" encoding="UTF-8" standalone="no"?>
<!DOCTYPE svg PUBLIC "-//W3C//DTD SVG 1.1//EN" "http://www.w3.org/Graphics/SVG/1.1/DTD/svg11.dtd">
<svg width="100%" height="100%" viewBox="0 0 494 494" version="1.1" xmlns="http://www.w3.org/2000/svg" xmlns:xlink="http://www.w3.org/1999/xlink" xml:space="preserve" xmlns:serif="http://www.serif.com/" style="fill-rule:evenodd;clip-rule:evenodd;stroke-linejoin:round;stroke-miterlimit:0.73;">
    <g>
        <g>
            <g style="filter:url(#_Effect1);">
                <path d="M435.953,152.488L435.953,341.465C435.953,393.614 393.614,435.953 341.465,435.953L152.488,435.953C100.339,435.953 58,393.614 58,341.465L58,152.488C58,100.339 100.339,58 152.488,58L341.465,58C393.614,58 435.953,100.339 435.953,152.488Z" style="fill:none;stroke:#01377d;stroke-opacity:0.2;stroke-width:20px;"/>
            </g>
            <path d="M435.953,152.488L435.953,341.465C435.953,393.614 393.614,435.953 341.465,435.953L152.488,435.953C100.339,435.953 58,393.614 58,341.465L58,152.488C58,100.339 100.339,58 152.488,58L341.465,58C393.614,58 435.953,100.339 435.953,152.488Z" style="fill:#fff;stroke:#fff;stroke-width:0.46px;"/>
        </g>
        <g>
            <path d="M262.992,299.292C262.992,301.923 260.856,304.059 258.225,304.059L230.558,304.059C227.927,304.059 225.791,301.923 225.791,299.292C225.791,296.661 227.927,294.525 230.558,294.525L258.225,294.525C260.856,294.525 262.992,296.661 262.992,299.292Z" style="fill:#01377d;"/>
            <path d="M232.389,321.904C232.389,319.273 234.526,317.137 237.157,317.137L264.823,317.137C267.454,317.137 269.591,319.273 269.591,321.904C269.591,324.535 267.454,326.671 264.823,326.671L237.157,326.671C234.526,326.671 232.389,324.535 232.389,321.904Z" style="fill:#01377d;"/>
            <path d="M249.122,290.45C249.122,288.921 250.043,287.543 251.455,286.958C252.868,286.373 254.493,286.696 255.574,287.778C258.651,290.856 262.324,294.53 265.401,297.608C266.481,298.689 266.805,300.314 266.22,301.726C265.634,303.138 264.256,304.059 262.728,304.059L252.901,304.059C251.899,304.059 250.937,303.661 250.229,302.952C249.52,302.243 249.122,301.282 249.122,300.28C249.122,297.599 249.122,293.882 249.122,290.45Z" style="fill:#7cd24c;"/>
            <path d="M246.26,330.746C246.26,332.275 245.339,333.653 243.926,334.238C242.514,334.823 240.888,334.499 239.807,333.418C236.73,330.34 233.057,326.666 229.98,323.588C228.9,322.507 228.577,320.882 229.162,319.469C229.747,318.057 231.125,317.137 232.653,317.137L242.48,317.137C243.482,317.137 244.444,317.535 245.153,318.244C245.861,318.952 246.26,319.914 246.26,320.916C246.26,323.597 246.26,327.313 246.26,330.746Z" style="fill:#7cd24c;"/>
            <g>
                <path d="M325.653,275.4C334.352,275.4 351.752,275.4 360.451,286.149C369.151,296.899 369.151,318.398 360.451,339.897C360.451,339.897 360.451,339.897 360.451,339.897C354.984,354.373 341.126,363.952 325.653,363.952C310.179,363.952 296.322,354.373 290.854,339.897C290.854,339.897 290.854,339.897 290.854,339.897C282.154,318.398 282.154,296.899 290.854,286.149C299.554,275.4 316.953,275.4 325.653,275.4Z" style="fill:#01377d;"/>
                <path d="M325.653,295.796C326.765,295.796 328.99,295.796 330.102,297.171C331.214,298.545 331.214,301.294 330.102,304.042C330.101,304.044 330.101,304.045 330.1,304.046C329.401,305.896 327.63,307.119 325.653,307.119C323.676,307.119 321.905,305.896 321.205,304.047C321.205,304.045 321.204,304.044 321.204,304.042C320.092,301.294 320.092,298.545 321.204,297.171C322.316,295.796 324.541,295.796 325.653,295.796Z" style="fill:#fff;"/>
                <ellipse cx="325.653" cy="311.026" rx="1.116" ry="1.135" style="fill:#fff;"/>
                <path d="M325.653,242.644C330.529,242.644 340.283,242.644 345.16,248.669C350.036,254.695 350.036,266.746 345.16,278.798C345.159,278.799 345.159,278.8 345.159,278.801C342.093,286.914 334.326,292.283 325.653,292.283C316.98,292.283 309.212,286.914 306.147,278.801C306.147,278.8 306.146,278.799 306.146,278.798C301.269,266.746 301.269,254.695 306.146,248.669C311.023,242.644 320.776,242.644 325.653,242.644Z" style="fill:#7cd24c;"/>
            </g>
            <g>
                <path d="M168.3,275.4C176.999,275.4 194.399,275.4 203.098,286.149C211.798,296.899 211.798,318.398 203.098,339.897C203.098,339.897 203.098,339.897 203.098,339.897C197.631,354.373 183.773,363.952 168.3,363.952C152.826,363.952 138.968,354.373 133.501,339.897C133.501,339.897 133.501,339.897 133.501,339.897C124.801,318.398 124.801,296.899 133.501,286.149C142.201,275.4 159.6,275.4 168.3,275.4Z" style="fill:#01377d;"/>
                <path d="M168.3,295.796C169.412,295.796 171.637,295.796 172.749,297.171C173.861,298.545 173.861,301.294 172.749,304.042C172.748,304.044 172.748,304.045 172.747,304.046C172.048,305.896 170.277,307.119 168.3,307.119C166.323,307.119 164.552,305.896 163.852,304.047C163.852,304.045 163.851,304.044 163.851,304.042C162.739,301.294 162.739,298.545 163.851,297.171C164.963,295.796 167.188,295.796 168.3,295.796Z" style="fill:#fff;"/>
                <ellipse cx="168.3" cy="311.026" rx="1.116" ry="1.135" style="fill:#fff;"/>
                <path d="M168.3,242.644C173.176,242.644 182.93,242.644 187.807,248.669C192.683,254.695 192.683,266.746 187.807,278.798C187.806,278.799 187.806,278.8 187.805,278.801C184.74,286.914 176.973,292.283 168.3,292.283C159.627,292.283 151.859,286.914 148.794,278.801C148.794,278.8 148.793,278.799 148.793,278.798C143.916,266.746 143.916,254.695 148.793,248.669C153.67,242.644 163.423,242.644 168.3,242.644Z" style="fill:#7cd24c;"/>
            </g>
            <path d="M215.45,192.77C218.024,206.043 209.338,218.908 196.066,221.482C182.793,224.056 169.928,215.37 167.354,202.097C166.382,197.084 165.87,191.906 165.87,186.611C165.87,141.847 202.213,105.505 246.976,105.505C291.74,105.505 328.082,141.847 328.082,186.611C328.082,191.906 327.571,197.084 326.599,202.097C324.025,215.37 311.16,224.056 297.887,221.482C284.615,218.908 275.929,206.043 278.502,192.77C278.889,190.776 279.09,188.717 279.09,186.611C279.09,168.887 264.7,154.497 246.976,154.497C229.253,154.497 214.863,168.887 214.863,186.611C214.863,188.717 215.064,190.776 215.45,192.77Z" style="fill:#7cd24c;"/>
            <circle cx="246.976" cy="186.611" r="56.61" style="fill:#01377d;"/>
            <path d="M264.945,197.063C264.945,199.487 264.328,201.76 263.092,203.88C261.857,206.001 260.039,207.749 257.639,209.124C255.238,210.499 252.407,211.303 249.144,211.536L249.144,217.2L244.669,217.2L244.669,211.466C240.008,211.047 236.256,209.637 233.412,207.236C230.569,204.836 229.101,201.585 229.008,197.483L239.495,197.483C239.775,200.839 241.499,202.867 244.669,203.566L244.669,190.211C241.313,189.372 238.61,188.533 236.559,187.694C234.508,186.855 232.736,185.504 231.245,183.639C229.753,181.775 229.008,179.234 229.008,176.018C229.008,171.963 230.464,168.654 233.377,166.09C236.291,163.526 240.055,162.058 244.669,161.685L244.669,156.022L249.144,156.022L249.144,161.685C253.619,162.058 257.196,163.41 259.876,165.74C262.556,168.071 264.06,171.287 264.386,175.389L253.828,175.389C253.688,174.037 253.211,172.86 252.395,171.858C251.579,170.856 250.496,170.145 249.144,169.726L249.144,182.94C252.64,183.826 255.401,184.676 257.429,185.492C259.457,186.308 261.216,187.636 262.708,189.477C264.199,191.318 264.945,193.847 264.945,197.063ZM239.216,175.529C239.216,177.067 239.682,178.314 240.614,179.269C241.546,180.225 242.898,181.006 244.669,181.612L244.669,169.516C242.991,169.749 241.663,170.378 240.684,171.404C239.705,172.429 239.216,173.804 239.216,175.529ZM249.144,203.706C250.915,203.379 252.302,202.657 253.304,201.538C254.306,200.419 254.807,199.068 254.807,197.483C254.807,195.945 254.318,194.709 253.339,193.777C252.36,192.845 250.962,192.076 249.144,191.47L249.144,203.706Z" style="fill:#fff;fill-rule:nonzero;"/>
        </g>
    </g>
    <defs>
        <filter id="_Effect1" filterUnits="userSpaceOnUse" x="-48" y="-48" width="589.953" height="589.953">
            <feGaussianBlur in="SourceGraphic" stdDeviation="16"/>
        </filter>
    </defs>
</svg>
