<?xml version="1.0" encoding="UTF-8" standalone="no"?>
<!DOCTYPE svg PUBLIC "-//W3C//DTD SVG 1.1//EN" "http://www.w3.org/Graphics/SVG/1.1/DTD/svg11.dtd">
<svg width="100%" height="100%" viewBox="0 0 379 379" version="1.1" xmlns="http://www.w3.org/2000/svg" xmlns:xlink="http://www.w3.org/1999/xlink" xml:space="preserve" xmlns:serif="http://www.serif.com/" style="fill-rule:evenodd;clip-rule:evenodd;stroke-linejoin:round;stroke-miterlimit:0.73;">
    <g>
        <g>
            <g>
                <path d="M378.185,94.721L378.185,283.697C378.185,335.846 335.846,378.185 283.697,378.185L94.721,378.185C42.571,378.185 0.232,335.846 0.232,283.697L0.232,94.721C0.232,42.571 42.571,0.232 94.721,0.232L283.697,0.232C335.846,0.232 378.185,42.571 378.185,94.721Z" style="fill:white;stroke:white;stroke-width:0.46px;"/>
            </g>
        </g>
        <g>
            <path d="M152.491,94.6L152.491,135.376C152.491,146.629 143.355,155.765 132.103,155.765L91.326,155.765C80.073,155.765 70.938,146.629 70.938,135.376L70.938,94.6C70.938,83.347 80.073,74.211 91.326,74.211L132.103,74.211C143.355,74.211 152.491,83.347 152.491,94.6Z" style="fill:rgb(1,55,125);"/>
            <path d="M309.643,94.6L309.643,135.376C309.643,146.629 300.507,155.765 289.255,155.765L248.478,155.765C237.225,155.765 228.09,146.629 228.09,135.376L228.09,94.6C228.09,83.347 237.225,74.211 248.478,74.211L289.255,74.211C300.507,74.211 309.643,83.347 309.643,94.6Z" style="fill:rgb(1,55,125);"/>
            <path d="M152.491,243.162L152.491,283.938C152.491,295.191 143.355,304.327 132.103,304.327L91.326,304.327C80.073,304.327 70.938,295.191 70.938,283.938L70.938,243.162C70.938,231.909 80.073,222.773 91.326,222.773L132.103,222.773C143.355,222.773 152.491,231.909 152.491,243.162Z" style="fill:rgb(1,55,125);"/>
            <path d="M309.643,243.162L309.643,283.938C309.643,295.191 300.507,304.327 289.255,304.327L248.478,304.327C237.225,304.327 228.09,295.191 228.09,283.938L228.09,243.162C228.09,231.909 237.225,222.773 248.478,222.773L289.255,222.773C300.507,222.773 309.643,231.909 309.643,243.162Z" style="fill:rgb(1,55,124);"/>
            <circle cx="190.29" cy="189.269" r="91.093" style="fill:rgb(247,246,255);"/>
        </g>
        <path d="M197.585,114.202L199.987,125.899C204.637,126.61 209.195,127.832 213.577,129.54L221.507,120.612C225.944,122.629 230.175,125.072 234.141,127.906L230.373,139.237C234.044,142.179 237.381,145.515 240.322,149.186L251.653,145.418C254.487,149.384 256.93,153.615 258.948,158.052L250.019,165.982C251.728,170.364 252.949,174.922 253.66,179.572L265.358,181.975C265.829,186.826 265.829,191.712 265.358,196.563L253.66,198.966C252.949,203.616 251.728,208.173 250.019,212.556L258.948,220.486C256.93,224.923 254.487,229.154 251.653,233.12L240.322,229.352C237.381,233.023 234.044,236.359 230.373,239.301L234.141,250.632C230.175,253.466 225.944,255.909 221.507,257.926L213.577,248.998C209.195,250.706 204.637,251.928 199.987,252.639L197.585,264.336C192.733,264.808 187.847,264.808 182.996,264.336L180.593,252.639C175.943,251.928 171.386,250.706 167.003,248.998L159.074,257.926C154.636,255.909 150.405,253.466 146.44,250.632L150.207,239.301C146.536,236.359 143.2,233.023 140.259,229.352L128.927,233.12C126.093,229.154 123.65,224.923 121.633,220.486L130.562,212.556C128.853,208.173 127.632,203.616 126.92,198.966L115.223,196.563C114.752,191.712 114.752,186.826 115.223,181.975L126.92,179.572C127.632,174.922 128.853,170.364 130.562,165.982L121.633,158.052C123.65,153.615 126.093,149.384 128.927,145.418L140.259,149.186C143.2,145.515 146.536,142.179 150.207,139.237L146.44,127.906C150.405,125.072 154.636,122.629 159.074,120.612L167.003,129.54C171.386,127.832 175.943,126.61 180.593,125.899L182.996,114.202C187.847,113.73 192.733,113.73 197.585,114.202ZM190.29,134.795C220.355,134.795 244.764,159.204 244.764,189.269C244.764,219.334 220.355,243.743 190.29,243.743C160.225,243.743 135.816,219.334 135.816,189.269C135.816,159.204 160.225,134.795 190.29,134.795Z" style="fill:rgb(123,210,75);"/>
        <path d="M225.423,171.513L225.423,197.562C225.423,204.75 219.587,210.586 212.399,210.586L168.146,210.586C160.958,210.586 155.122,204.75 155.122,197.562L155.122,171.513C155.122,164.325 160.958,158.489 168.146,158.489L212.399,158.489C219.587,158.489 225.423,164.325 225.423,171.513Z" style="fill:rgb(1,55,125);"/>
        <path d="M225.459,217.746C225.459,219.017 224.427,220.049 223.156,220.049L157.461,220.049C156.19,220.049 155.158,219.017 155.158,217.746C155.158,216.475 156.19,215.443 157.461,215.443L223.156,215.443C224.427,215.443 225.459,216.475 225.459,217.746Z" style="fill:rgb(1,55,125);"/>
        <path d="M219.248,174.789L219.248,194.286C219.248,199.666 214.88,204.034 209.5,204.034L171.045,204.034C165.664,204.034 161.296,199.666 161.296,194.286L161.296,174.789C161.296,169.409 165.664,165.041 171.045,165.041L209.5,165.041C214.88,165.041 219.248,169.409 219.248,174.789Z" style="fill:rgb(247,246,255);"/>
    </g>
</svg>
