<?xml version="1.0" encoding="UTF-8" standalone="no"?>
<!DOCTYPE svg PUBLIC "-//W3C//DTD SVG 1.1//EN" "http://www.w3.org/Graphics/SVG/1.1/DTD/svg11.dtd">
<svg width="100%" height="100%" viewBox="0 0 494 494" version="1.1" xmlns="http://www.w3.org/2000/svg" xmlns:xlink="http://www.w3.org/1999/xlink" xml:space="preserve" xmlns:serif="http://www.serif.com/" style="fill-rule:evenodd;clip-rule:evenodd;stroke-linejoin:round;stroke-miterlimit:0.73;">
    <g>
        <g>
            <g style="filter:url(#_Effect1);">
                <path d="M435.953,152.488L435.953,341.465C435.953,393.614 393.614,435.953 341.465,435.953L152.488,435.953C100.339,435.953 58,393.614 58,341.465L58,152.488C58,100.339 100.339,58 152.488,58L341.465,58C393.614,58 435.953,100.339 435.953,152.488Z" style="fill:none;stroke:#01377d;stroke-opacity:0.2;stroke-width:20px;"/>
            </g>
            <path d="M433.79,152.368L433.79,341.344C433.79,393.494 391.451,435.832 339.302,435.832L150.325,435.832C98.176,435.832 55.837,393.494 55.837,341.344L55.837,152.368C55.837,100.218 98.176,57.88 150.325,57.88L339.302,57.88C391.451,57.88 433.79,100.218 433.79,152.368Z" style="fill:#fff;stroke:#fff;stroke-width:0.46px;"/>
        </g>
        <g>
            <path d="M302.954,220.027C302.954,220.027 298.318,272.066 269.884,310.944C261.094,322.963 244.199,325.584 232.18,316.793C220.162,308.003 217.54,291.109 226.331,279.09C254.765,240.212 302.954,220.027 302.954,220.027Z" style="fill:#7cd24c;"/>
            <path d="M359.544,309.222L247.924,264.996L136.304,309.222C130.726,295.144 127.861,280.138 127.861,264.996C127.861,198.732 181.659,144.933 247.924,144.933C314.188,144.933 367.986,198.732 367.986,264.996C367.986,280.138 365.121,295.144 359.544,309.222Z" style="fill:#01377d;"/>
            <clipPath id="_clip2">
                <path d="M359.544,309.222L247.924,264.996L136.304,309.222C130.726,295.144 127.861,280.138 127.861,264.996C127.861,198.732 181.659,144.933 247.924,144.933C314.188,144.933 367.986,198.732 367.986,264.996C367.986,280.138 365.121,295.144 359.544,309.222Z"/>
            </clipPath>
            <g clip-path="url(#_clip2)">
                <g>
                    <g style="filter:url(#_Effect3);">
                        <path d="M302.954,220.027C302.954,220.027 298.318,272.066 269.884,310.944C261.094,322.963 244.199,325.584 232.18,316.793C220.162,308.003 217.54,291.109 226.331,279.09C254.765,240.212 302.954,220.027 302.954,220.027Z" style="fill:#9dafff;"/>
                    </g>
                </g>
            </g>
            <path d="M236.631,171.739L235.315,160.496C239.451,160.012 243.659,159.763 247.924,159.763C252.189,159.763 256.396,160.012 260.532,160.496L259.216,171.739C255.512,171.306 251.744,171.083 247.924,171.083C244.104,171.083 240.335,171.306 236.631,171.739ZM276.489,175.4L279.849,164.59C287.986,167.119 295.709,170.588 302.893,174.871L297.096,184.594C290.672,180.764 283.765,177.661 276.489,175.4ZM311.379,194.992L318.849,186.487C325.178,192.045 330.849,198.335 335.731,205.223L326.495,211.768C322.124,205.601 317.046,199.969 311.379,194.992ZM335.343,227.054L345.62,222.308C349.115,229.875 351.757,237.916 353.422,246.307L342.318,248.51C340.83,241.009 338.468,233.82 335.343,227.054ZM344.149,266.081L355.469,265.939C355.475,266.397 355.477,266.857 355.477,267.317C355.477,275.462 354.569,283.396 352.85,291.025L341.807,288.536C343.346,281.708 344.157,274.607 344.157,267.317C344.157,266.904 344.155,266.492 344.149,266.081ZM336.349,305.326L346.745,309.806C343.385,317.603 339.129,324.924 334.107,331.64L325.042,324.861C329.535,318.852 333.343,312.302 336.349,305.326ZM313.213,337.988L320.898,346.3C314.726,352.006 307.884,356.998 300.506,361.144L294.96,351.276C301.565,347.564 307.689,343.095 313.213,337.988ZM278.835,358.471L282.474,369.191C274.613,371.859 266.345,373.643 257.789,374.423L256.761,363.149C264.412,362.452 271.806,360.857 278.835,358.471ZM239.086,363.149L238.058,374.423C229.502,373.643 221.234,371.859 213.373,369.191L217.012,358.471C224.042,360.857 231.435,362.452 239.086,363.149ZM200.888,351.276L195.342,361.144C187.963,356.998 181.122,352.006 174.95,346.301L182.634,337.988C188.159,343.095 194.283,347.564 200.888,351.276ZM170.806,324.861L161.74,331.64C156.718,324.924 152.462,317.603 149.102,309.806L159.498,305.326C162.504,312.302 166.312,318.852 170.806,324.861ZM154.04,288.536L142.997,291.025C141.278,283.396 140.37,275.462 140.37,267.317C140.37,266.857 140.373,266.397 140.379,265.939L151.698,266.081C151.693,266.492 151.69,266.904 151.69,267.317C151.69,274.607 152.502,281.708 154.04,288.536ZM153.529,248.51L142.425,246.308C144.09,237.917 146.732,229.875 150.227,222.308L160.504,227.054C157.379,233.82 155.017,241.009 153.529,248.51ZM169.353,211.768L160.117,205.223C164.998,198.335 170.669,192.045 176.998,186.487L184.468,194.992C178.802,199.969 173.724,205.601 169.353,211.768ZM198.752,184.594L192.955,174.871C200.138,170.588 207.862,167.119 215.998,164.589L219.358,175.399C212.083,177.661 205.176,180.764 198.752,184.594Z" style="fill:#fff;"/>
        </g>
        <path d="M259.493,284.144C266.282,290.934 266.395,301.845 259.744,308.495C253.094,315.146 242.183,315.033 235.393,308.244C228.604,301.454 228.491,290.543 235.141,283.892C241.792,277.242 252.703,277.355 259.493,284.144Z" style="fill:#fff;"/>
    </g>
    <defs>
        <filter id="_Effect1" filterUnits="userSpaceOnUse" x="-48" y="-48" width="589.953" height="589.953">
            <feGaussianBlur in="SourceGraphic" stdDeviation="16"/>
        </filter>
        <filter id="_Effect3" filterUnits="userSpaceOnUse" x="158.245" y="151.941" width="218.644" height="232.938">
            <feGaussianBlur in="SourceGraphic" stdDeviation="7.25183"/>
        </filter>
    </defs>
</svg>
