<?xml version="1.0" encoding="UTF-8" standalone="no"?>
<!DOCTYPE svg PUBLIC "-//W3C//DTD SVG 1.1//EN" "http://www.w3.org/Graphics/SVG/1.1/DTD/svg11.dtd">
<svg width="100%" height="100%" viewBox="0 0 379 379" version="1.1" xmlns="http://www.w3.org/2000/svg" xmlns:xlink="http://www.w3.org/1999/xlink" xml:space="preserve" xmlns:serif="http://www.serif.com/" style="fill-rule:evenodd;clip-rule:evenodd;stroke-linejoin:round;stroke-miterlimit:0.73;">
    <g>
        <g>
            <path d="M378.185,94.721L378.185,283.697C378.185,335.846 335.846,378.185 283.697,378.185L94.721,378.185C42.571,378.185 0.232,335.846 0.232,283.697L0.232,94.721C0.232,42.571 42.571,0.232 94.721,0.232L283.697,0.232C335.846,0.232 378.185,42.571 378.185,94.721Z" style="fill:white;stroke:white;stroke-width:0.46px;"/>
        </g>
        <path d="M201.896,69.832L205.719,88.443C213.117,89.575 220.369,91.518 227.342,94.236L239.958,80.03C247.018,83.24 253.75,87.127 260.06,91.636L254.065,109.665C259.906,114.345 265.215,119.653 269.894,125.494L287.923,119.499C292.432,125.809 296.319,132.541 299.529,139.601L285.323,152.217C288.042,159.191 289.985,166.442 291.117,173.84L309.728,177.663C310.478,185.382 310.478,193.156 309.728,200.875L291.117,204.698C289.985,212.096 288.042,219.347 285.323,226.321L299.529,238.937C296.319,245.997 292.432,252.729 287.923,259.039L269.894,253.044C265.215,258.885 259.906,264.193 254.065,268.873L260.06,286.902C253.75,291.411 247.018,295.298 239.958,298.508L227.342,284.301C220.369,287.02 213.117,288.963 205.719,290.095L201.896,308.706C194.177,309.456 186.404,309.456 178.685,308.706L174.862,290.095C167.463,288.963 160.212,287.02 153.239,284.301L140.622,298.508C133.563,295.298 126.83,291.411 120.521,286.902L126.516,268.873C120.674,264.193 115.366,258.885 110.686,253.044L92.657,259.039C88.148,252.729 84.261,245.997 81.052,238.937L95.258,226.321C92.539,219.347 90.596,212.096 89.464,204.698L70.853,200.875C70.103,193.156 70.103,185.382 70.853,177.663L89.464,173.84C90.596,166.442 92.539,159.191 95.258,152.217L81.052,139.601C84.261,132.541 88.148,125.809 92.657,119.499L110.686,125.494C115.366,119.653 120.674,114.345 126.516,109.665L120.521,91.636C126.83,87.127 133.563,83.24 140.622,80.03L153.239,94.236C160.212,91.518 167.463,89.575 174.862,88.443L178.685,69.832C186.404,69.081 194.177,69.081 201.896,69.832ZM190.29,123.87C226.385,123.87 255.689,153.174 255.689,189.269C255.689,225.364 226.385,254.668 190.29,254.668C154.196,254.668 124.891,225.364 124.891,189.269C124.891,153.174 154.196,123.87 190.29,123.87Z" style="fill:rgb(1,55,125);"/>
        <g>
            <path d="M213.307,221.811L183.293,204.482C177.626,201.21 175.681,193.952 178.953,188.284C182.225,182.617 189.483,180.672 195.151,183.944L225.165,201.273C230.832,204.545 232.777,211.803 229.505,217.47C226.233,223.138 218.975,225.083 213.307,221.811Z" style="fill:rgb(124,210,76);"/>
            <path d="M200.803,148.789L200.803,192.888C200.803,199.432 195.49,204.745 188.946,204.745C182.401,204.745 177.088,199.432 177.088,192.888L177.088,148.789C177.088,142.244 182.401,136.931 188.946,136.931C195.49,136.931 200.803,142.244 200.803,148.789Z" style="fill:rgb(124,210,76);"/>
            <clipPath id="_clip1">
                <path d="M200.803,148.789L200.803,192.888C200.803,199.432 195.49,204.745 188.946,204.745C182.401,204.745 177.088,199.432 177.088,192.888L177.088,148.789C177.088,142.244 182.401,136.931 188.946,136.931C195.49,136.931 200.803,142.244 200.803,148.789Z"/>
            </clipPath>
            <g clip-path="url(#_clip1)">
                <path d="M213.307,221.811L183.293,204.482C177.626,201.21 175.681,193.952 178.953,188.284C182.225,182.617 189.483,180.672 195.151,183.944L225.165,201.273C230.832,204.545 232.777,211.803 229.505,217.47C226.233,223.138 218.975,225.083 213.307,221.811Z" style="fill:rgb(157,175,255);"/>
            </g>
        </g>
    </g>
</svg>
