<?xml version="1.0" encoding="UTF-8" standalone="no"?>
<!DOCTYPE svg PUBLIC "-//W3C//DTD SVG 1.1//EN" "http://www.w3.org/Graphics/SVG/1.1/DTD/svg11.dtd">
<svg width="100%" height="100%" viewBox="0 0 494 494" version="1.1" xmlns="http://www.w3.org/2000/svg" xmlns:xlink="http://www.w3.org/1999/xlink" xml:space="preserve" xmlns:serif="http://www.serif.com/" style="fill-rule:evenodd;clip-rule:evenodd;stroke-linejoin:round;stroke-miterlimit:0.73;">
    <g>
        <g>
            <g style="filter:url(#_Effect1);">
                <path d="M435.953,152.488L435.953,341.465C435.953,393.614 393.614,435.953 341.465,435.953L152.488,435.953C100.339,435.953 58,393.614 58,341.465L58,152.488C58,100.339 100.339,58 152.488,58L341.465,58C393.614,58 435.953,100.339 435.953,152.488Z" style="fill:none;stroke:#01377d;stroke-opacity:0.2;stroke-width:20px;"/>
            </g>
            <path d="M435.953,152.488L435.953,341.465C435.953,393.614 393.614,435.953 341.465,435.953L152.488,435.953C100.339,435.953 58,393.614 58,341.465L58,152.488C58,100.339 100.339,58 152.488,58L341.465,58C393.614,58 435.953,100.339 435.953,152.488Z" style="fill:#fff;stroke:#fff;stroke-width:0.46px;"/>
        </g>
        <g>
            <path d="M330.824,181.201C335.486,181.201 339.957,183.053 343.254,186.35C346.551,189.646 348.403,194.118 348.403,198.78C348.403,239.26 348.403,335.61 348.403,335.61C348.403,352.404 334.768,366.038 317.975,366.038L196.263,366.038C168.274,366.038 145.55,343.315 145.55,315.325L145.55,162.164C145.55,143.261 160.897,127.914 179.8,127.914L317.975,127.914C321.056,127.914 324.03,128.373 326.833,129.226C328.346,129.678 329.299,131.171 329.071,132.733C328.842,134.295 327.503,135.453 325.924,135.453C288.628,135.459 177.921,135.459 177.921,135.459C165.825,135.459 156.005,145.279 156.005,157.375C156.005,170.525 166.68,181.201 179.83,181.201L330.824,181.201Z" style="fill:#01377d;"/>
            <path d="M302.898,236.598L302.898,263.56C302.898,271 296.857,277.04 289.417,277.04L204.536,277.04C197.095,277.04 191.055,271 191.055,263.56L191.055,236.598C191.055,229.158 197.095,223.118 204.536,223.118L289.417,223.118C296.857,223.118 302.898,229.158 302.898,236.598Z" style="fill:#fff;"/>
            <path d="M298.051,238.889L298.051,261.269C298.051,267.445 293.037,272.46 286.861,272.46L207.092,272.46C200.916,272.46 195.901,267.445 195.901,261.269L195.901,238.889C195.901,232.712 200.916,227.698 207.092,227.698L286.861,227.698C293.037,227.698 298.051,232.712 298.051,238.889Z" style="fill:none;stroke:#01377d;stroke-width:4.59px;stroke-linecap:round;stroke-miterlimit:0.348837;"/>
            <path d="M298.051,238.889L298.051,261.269C298.051,267.445 293.037,272.46 286.861,272.46L207.092,272.46C200.916,272.46 195.901,267.445 195.901,261.269L195.901,238.889C195.901,232.712 200.916,227.698 207.092,227.698L286.861,227.698C293.037,227.698 298.051,232.712 298.051,238.889Z" style="fill:#fff;"/>
            <path d="M212.942,262.558C212.404,263.115 211.515,263.129 210.959,262.591C210.403,262.053 210.388,261.164 210.926,260.608L229.732,241.171C230.193,240.694 230.924,240.606 231.486,240.958C231.486,240.958 258.435,257.857 258.435,257.857L281.082,237.531C281.658,237.014 282.545,237.062 283.062,237.638C283.579,238.214 283.532,239.102 282.955,239.619L259.522,260.651C259.056,261.069 258.37,261.128 257.84,260.795C257.84,260.795 230.958,243.938 230.958,243.938L212.942,262.558Z" style="fill:#01377d;"/>
            <path d="M213.434,307.829L213.434,319.018C213.434,322.106 210.927,324.613 207.839,324.613L196.65,324.613C193.562,324.613 191.055,322.106 191.055,319.018L191.055,307.829C191.055,304.741 193.562,302.234 196.65,302.234L207.839,302.234C210.927,302.234 213.434,304.741 213.434,307.829Z" style="fill:#fff;"/>
            <path d="M243.255,307.829L243.255,319.018C243.255,322.106 240.748,324.613 237.661,324.613L226.471,324.613C223.383,324.613 220.876,322.106 220.876,319.018L220.876,307.829C220.876,304.741 223.383,302.234 226.471,302.234L237.661,302.234C240.748,302.234 243.255,304.741 243.255,307.829Z" style="fill:#fff;"/>
            <path d="M273.077,307.829L273.077,319.018C273.077,322.106 270.57,324.613 267.482,324.613L256.292,324.613C253.204,324.613 250.697,322.106 250.697,319.018L250.697,307.829C250.697,304.741 253.204,302.234 256.292,302.234L267.482,302.234C270.57,302.234 273.077,304.741 273.077,307.829Z" style="fill:#fff;"/>
            <path d="M302.898,307.829L302.898,319.018C302.898,322.106 300.391,324.613 297.303,324.613L286.113,324.613C283.025,324.613 280.519,322.106 280.519,319.018L280.519,307.829C280.519,304.741 283.025,302.234 286.113,302.234L297.303,302.234C300.391,302.234 302.898,304.741 302.898,307.829Z" style="fill:#fff;"/>
            <circle cx="211.934" cy="261.583" r="3.571" style="fill:#7cd24c;"/>
            <circle cx="230.74" cy="242.146" r="3.571" style="fill:#7cd24c;"/>
            <circle cx="258.585" cy="259.607" r="3.571" style="fill:#7cd24c;"/>
            <circle cx="282.019" cy="238.575" r="3.571" style="fill:#7cd24c;"/>
        </g>
    </g>
    <defs>
        <filter id="_Effect1" filterUnits="userSpaceOnUse" x="-48" y="-48" width="589.953" height="589.953">
            <feGaussianBlur in="SourceGraphic" stdDeviation="16"/>
        </filter>
    </defs>
</svg>
