<?xml version="1.0" encoding="UTF-8" standalone="no"?>
<!DOCTYPE svg PUBLIC "-//W3C//DTD SVG 1.1//EN" "http://www.w3.org/Graphics/SVG/1.1/DTD/svg11.dtd">
<svg width="100%" height="100%" viewBox="0 0 494 494" version="1.1" xmlns="http://www.w3.org/2000/svg" xmlns:xlink="http://www.w3.org/1999/xlink" xml:space="preserve" xmlns:serif="http://www.serif.com/" style="fill-rule:evenodd;clip-rule:evenodd;stroke-linejoin:round;stroke-miterlimit:0.73;">
    <g>
        <g>
            <g style="filter:url(#_Effect1);">
                <path d="M435.953,152.488L435.953,341.465C435.953,393.614 393.614,435.953 341.465,435.953L152.488,435.953C100.339,435.953 58,393.614 58,341.465L58,152.488C58,100.339 100.339,58 152.488,58L341.465,58C393.614,58 435.953,100.339 435.953,152.488Z" style="fill:none;stroke:rgb(1,55,125);stroke-opacity:0.2;stroke-width:20px;"/>
            </g>
            <path d="M435.953,152.488L435.953,341.465C435.953,393.614 393.614,435.953 341.465,435.953L152.488,435.953C100.339,435.953 58,393.614 58,341.465L58,152.488C58,100.339 100.339,58 152.488,58L341.465,58C393.614,58 435.953,100.339 435.953,152.488Z" style="fill:white;stroke:white;stroke-width:0.46px;"/>
        </g>
        <g>
            <g>
                <g>
                    <path d="M241.387,214.308L241.387,247.947C241.387,257.23 233.85,264.767 224.567,264.767L183.849,264.767C174.566,264.767 167.029,257.23 167.029,247.947L167.029,214.308C167.029,205.025 174.566,197.488 183.849,197.488L224.567,197.488C233.85,197.488 241.387,205.025 241.387,214.308Z" style="fill:rgb(1,55,125);"/>
                </g>
                <path d="M220.331,202.694L220.331,213.106C220.331,215.979 217.998,218.312 215.125,218.312L193.291,218.312C190.418,218.312 188.085,215.979 188.085,213.106L188.085,202.694C188.085,199.821 190.418,197.488 193.291,197.488L215.125,197.488C217.998,197.488 220.331,199.821 220.331,202.694Z" style="fill:none;stroke:white;stroke-width:3.87px;stroke-linecap:round;stroke-miterlimit:0.348837;"/>
                <path d="M220.331,202.694L220.331,213.106C220.331,215.979 217.998,218.312 215.125,218.312L193.291,218.312C190.418,218.312 188.085,215.979 188.085,213.106L188.085,202.694C188.085,199.821 190.418,197.488 193.291,197.488L215.125,197.488C217.998,197.488 220.331,199.821 220.331,202.694Z" style="fill:rgb(124,210,76);"/>
            </g>
            <g>
                <g>
                    <path d="M198.616,291.657L198.616,325.296C198.616,334.579 191.079,342.116 181.796,342.116L141.078,342.116C131.795,342.116 124.258,334.579 124.258,325.296L124.258,291.657C124.258,282.374 131.795,274.837 141.078,274.837L181.796,274.837C191.079,274.837 198.616,282.374 198.616,291.657Z" style="fill:rgb(1,55,125);"/>
                </g>
                <path d="M177.56,280.043L177.56,290.455C177.56,293.329 175.227,295.661 172.354,295.661L150.52,295.661C147.647,295.661 145.314,293.329 145.314,290.455L145.314,280.043C145.314,277.17 147.647,274.837 150.52,274.837L172.354,274.837C175.227,274.837 177.56,277.17 177.56,280.043Z" style="fill:none;stroke:white;stroke-width:3.87px;stroke-linecap:round;stroke-miterlimit:0.348837;"/>
                <path d="M177.56,280.043L177.56,290.455C177.56,293.329 175.227,295.661 172.354,295.661L150.52,295.661C147.647,295.661 145.314,293.329 145.314,290.455L145.314,280.043C145.314,277.17 147.647,274.837 150.52,274.837L172.354,274.837C175.227,274.837 177.56,277.17 177.56,280.043Z" style="fill:rgb(124,210,76);"/>
            </g>
            <g>
                <g>
                    <path d="M326.923,214.308L326.923,247.947C326.923,257.23 319.387,264.767 310.104,264.767L269.386,264.767C260.103,264.767 252.566,257.23 252.566,247.947L252.566,214.308C252.566,205.025 260.103,197.488 269.386,197.488L310.104,197.488C319.387,197.488 326.923,205.025 326.923,214.308Z" style="fill:rgb(1,55,125);"/>
                </g>
                <path d="M305.868,202.694L305.868,213.106C305.868,215.979 303.535,218.312 300.662,218.312L278.828,218.312C275.955,218.312 273.622,215.979 273.622,213.106L273.622,202.694C273.622,199.821 275.955,197.488 278.828,197.488L300.662,197.488C303.535,197.488 305.868,199.821 305.868,202.694Z" style="fill:none;stroke:white;stroke-width:3.87px;stroke-linecap:round;stroke-miterlimit:0.348837;"/>
                <path d="M305.868,202.694L305.868,213.106C305.868,215.979 303.535,218.312 300.662,218.312L278.828,218.312C275.955,218.312 273.622,215.979 273.622,213.106L273.622,202.694C273.622,199.821 275.955,197.488 278.828,197.488L300.662,197.488C303.535,197.488 305.868,199.821 305.868,202.694Z" style="fill:rgb(124,210,76);"/>
            </g>
            <g>
                <g>
                    <path d="M284.155,291.657L284.155,325.296C284.155,334.579 276.618,342.116 267.335,342.116L226.617,342.116C217.334,342.116 209.798,334.579 209.798,325.296L209.798,291.657C209.798,282.374 217.334,274.837 226.617,274.837L267.335,274.837C276.618,274.837 284.155,282.374 284.155,291.657Z" style="fill:rgb(1,55,125);"/>
                </g>
                <path d="M263.099,280.043L263.099,290.455C263.099,293.329 260.767,295.661 257.893,295.661L236.059,295.661C233.186,295.661 230.854,293.329 230.854,290.455L230.854,280.043C230.854,277.17 233.186,274.837 236.059,274.837L257.893,274.837C260.767,274.837 263.099,277.17 263.099,280.043Z" style="fill:none;stroke:white;stroke-width:3.87px;stroke-linecap:round;stroke-miterlimit:0.348837;"/>
                <path d="M263.099,280.043L263.099,290.455C263.099,293.329 260.767,295.661 257.893,295.661L236.059,295.661C233.186,295.661 230.854,293.329 230.854,290.455L230.854,280.043C230.854,277.17 233.186,274.837 236.059,274.837L257.893,274.837C260.767,274.837 263.099,277.17 263.099,280.043Z" style="fill:rgb(124,210,76);"/>
            </g>
            <g>
                <g>
                    <path d="M369.688,291.657L369.688,325.296C369.688,334.579 362.151,342.116 352.868,342.116L312.15,342.116C302.867,342.116 295.33,334.579 295.33,325.296L295.33,291.657C295.33,282.374 302.867,274.837 312.15,274.837L352.868,274.837C362.151,274.837 369.688,282.374 369.688,291.657Z" style="fill:rgb(1,55,125);"/>
                </g>
                <path d="M348.632,280.043L348.632,290.455C348.632,293.329 346.299,295.661 343.426,295.661L321.592,295.661C318.719,295.661 316.386,293.329 316.386,290.455L316.386,280.043C316.386,277.17 318.719,274.837 321.592,274.837L343.426,274.837C346.299,274.837 348.632,277.17 348.632,280.043Z" style="fill:none;stroke:white;stroke-width:3.87px;stroke-linecap:round;stroke-miterlimit:0.348837;"/>
                <path d="M348.632,280.043L348.632,290.455C348.632,293.329 346.299,295.661 343.426,295.661L321.592,295.661C318.719,295.661 316.386,293.329 316.386,290.455L316.386,280.043C316.386,277.17 318.719,274.837 321.592,274.837L343.426,274.837C346.299,274.837 348.632,277.17 348.632,280.043Z" style="fill:rgb(124,210,76);"/>
            </g>
            <g>
                <g>
                    <path d="M284.155,137.705L284.155,171.344C284.155,180.627 276.618,188.163 267.335,188.163L226.617,188.163C217.334,188.163 209.798,180.627 209.798,171.344L209.798,137.705C209.798,128.422 217.334,120.885 226.617,120.885L267.335,120.885C276.618,120.885 284.155,128.422 284.155,137.705Z" style="fill:rgb(1,55,125);"/>
                </g>
                <path d="M263.099,126.091L263.099,136.503C263.099,139.376 260.767,141.709 257.893,141.709L236.059,141.709C233.186,141.709 230.854,139.376 230.854,136.503L230.854,126.091C230.854,123.218 233.186,120.885 236.059,120.885L257.893,120.885C260.767,120.885 263.099,123.218 263.099,126.091Z" style="fill:none;stroke:white;stroke-width:3.87px;stroke-linecap:round;stroke-miterlimit:0.348837;"/>
                <path d="M263.099,126.091L263.099,136.503C263.099,139.376 260.767,141.709 257.893,141.709L236.059,141.709C233.186,141.709 230.854,139.376 230.854,136.503L230.854,126.091C230.854,123.218 233.186,120.885 236.059,120.885L257.893,120.885C260.767,120.885 263.099,123.218 263.099,126.091Z" style="fill:rgb(124,210,76);"/>
            </g>
            <path d="M375.475,364.844C375.475,369.383 371.79,373.068 367.251,373.068L126.701,373.068C122.162,373.068 118.478,369.383 118.478,364.844C118.478,360.305 122.162,356.62 126.701,356.62L367.251,356.62C371.79,356.62 375.475,360.305 375.475,364.844Z" style="fill:none;stroke:white;stroke-width:8.91px;stroke-linecap:round;stroke-miterlimit:0.348837;"/>
            <path d="M375.475,364.844C375.475,369.383 371.79,373.068 367.251,373.068L126.701,373.068C122.162,373.068 118.478,369.383 118.478,364.844C118.478,360.305 122.162,356.62 126.701,356.62L367.251,356.62C371.79,356.62 375.475,360.305 375.475,364.844Z" style="fill:rgb(124,210,76);"/>
        </g>
    </g>
    <defs>
        <filter id="_Effect1" filterUnits="userSpaceOnUse" x="-48" y="-48" width="589.953" height="589.953">
            <feGaussianBlur in="SourceGraphic" stdDeviation="16"/>
        </filter>
    </defs>
</svg>
