<?xml version="1.0" encoding="UTF-8" standalone="no"?>
<!DOCTYPE svg PUBLIC "-//W3C//DTD SVG 1.1//EN" "http://www.w3.org/Graphics/SVG/1.1/DTD/svg11.dtd">
<svg width="100%" height="100%" viewBox="0 0 379 379" version="1.1" xmlns="http://www.w3.org/2000/svg" xmlns:xlink="http://www.w3.org/1999/xlink" xml:space="preserve" xmlns:serif="http://www.serif.com/" style="fill-rule:evenodd;clip-rule:evenodd;stroke-linejoin:round;stroke-miterlimit:0.73;">
    <g>
        <g>
            <path d="M378.185,94.721L378.185,283.697C378.185,335.846 335.846,378.185 283.697,378.185L94.721,378.185C42.571,378.185 0.232,335.846 0.232,283.697L0.232,94.721C0.232,42.571 42.571,0.232 94.721,0.232L283.697,0.232C335.846,0.232 378.185,42.571 378.185,94.721Z" style="fill:white;stroke:white;stroke-width:0.46px;"/>
        </g>
        <g>
            <path d="M247.349,162.379C247.349,162.379 242.714,214.419 214.28,253.296C205.489,265.315 188.595,267.937 176.576,259.146C164.557,250.356 161.936,233.461 170.726,221.442C199.16,182.565 247.349,162.379 247.349,162.379Z" style="fill:rgb(124,210,76);"/>
            <path d="M303.939,251.574L192.319,207.348L80.699,251.574C75.121,237.497 72.257,222.491 72.257,207.348C72.257,141.084 126.055,87.286 192.319,87.286C258.583,87.286 312.381,141.084 312.381,207.348C312.381,222.491 309.517,237.497 303.939,251.574Z" style="fill:rgb(1,55,125);"/>
            <clipPath id="_clip1">
                <path d="M303.939,251.574L192.319,207.348L80.699,251.574C75.121,237.497 72.257,222.491 72.257,207.348C72.257,141.084 126.055,87.286 192.319,87.286C258.583,87.286 312.381,141.084 312.381,207.348C312.381,222.491 309.517,237.497 303.939,251.574Z"/>
            </clipPath>
            <g clip-path="url(#_clip1)">
                <g>
                    <g style="filter:url(#_Effect2);">
                        <path d="M247.349,162.379C247.349,162.379 242.714,214.419 214.28,253.296C205.489,265.315 188.595,267.937 176.576,259.146C164.557,250.356 161.936,233.461 170.726,221.442C199.16,182.565 247.349,162.379 247.349,162.379Z" style="fill:rgb(157,175,255);"/>
                    </g>
                </g>
            </g>
            <path d="M181.027,114.092L179.711,102.849C183.847,102.365 188.054,102.116 192.319,102.116C196.584,102.116 200.791,102.365 204.927,102.849L203.611,114.092C199.907,113.659 196.139,113.436 192.319,113.436C188.499,113.436 184.731,113.659 181.027,114.092ZM220.884,117.752L224.245,106.942C232.381,109.471 240.105,112.941 247.288,117.224L241.491,126.947C235.067,123.117 228.16,120.014 220.884,117.752ZM255.774,137.345L263.244,128.84C269.573,134.398 275.244,140.687 280.126,147.575L270.89,154.121C266.519,147.953 261.441,142.322 255.774,137.345ZM279.739,169.407L290.016,164.66C293.511,172.228 296.152,180.269 297.817,188.66L286.713,190.863C285.225,183.361 282.863,176.172 279.739,169.407ZM288.545,208.434L299.864,208.291C299.87,208.75 299.873,209.209 299.873,209.669C299.873,217.814 298.965,225.749 297.245,233.378L286.202,230.889C287.741,224.061 288.553,216.959 288.553,209.669C288.553,209.257 288.55,208.845 288.545,208.434ZM280.744,247.679L291.14,252.159C287.78,259.955 283.525,267.277 278.503,273.993L269.437,267.214C273.93,261.205 277.738,254.655 280.744,247.679ZM257.609,280.341L265.293,288.653C259.121,294.359 252.28,299.35 244.901,303.497L239.355,293.628C245.96,289.917 252.084,285.448 257.609,280.341ZM223.23,300.824L226.869,311.543C219.008,314.212 210.74,315.996 202.184,316.776L201.157,305.502C208.808,304.805 216.201,303.21 223.23,300.824ZM183.482,305.502L182.454,316.776C173.898,315.996 165.63,314.212 157.769,311.543L161.407,300.824C168.437,303.21 175.83,304.805 183.482,305.502ZM145.283,293.628L139.737,303.497C132.358,299.351 125.517,294.359 119.345,288.653L127.03,280.341C132.554,285.448 138.678,289.917 145.283,293.628ZM115.201,267.213L106.135,273.993C101.113,267.277 96.858,259.955 93.498,252.159L103.894,247.679C106.9,254.654 110.708,261.205 115.201,267.213ZM98.436,230.889L87.393,233.378C85.673,225.749 84.765,217.814 84.765,209.669C84.765,209.209 84.768,208.75 84.774,208.291L96.093,208.434C96.088,208.845 96.085,209.257 96.085,209.669C96.085,216.959 96.897,224.061 98.436,230.889ZM97.925,190.863L86.821,188.66C88.485,180.269 91.127,172.228 94.622,164.661L104.899,169.407C101.775,176.173 99.413,183.361 97.925,190.863ZM113.748,154.121L104.512,147.575C109.394,140.687 115.065,134.398 121.394,128.84L128.864,137.345C123.197,142.322 118.119,147.953 113.748,154.121ZM143.147,126.947L137.35,117.224C144.534,112.941 152.257,109.471 160.393,106.942L163.754,117.752C156.478,120.014 149.571,123.117 143.147,126.947Z" style="fill:white;"/>
        </g>
        <path d="M203.888,226.497C210.677,233.286 210.79,244.198 204.14,250.848C197.489,257.499 186.578,257.386 179.789,250.596C172.999,243.807 172.886,232.896 179.537,226.245C186.187,219.595 197.099,219.708 203.888,226.497Z" style="fill:white;"/>
    </g>
    <defs>
        <filter id="_Effect2" filterUnits="userSpaceOnUse" x="102.64" y="94.2936" width="218.644" height="232.938">
            <feGaussianBlur in="SourceGraphic" stdDeviation="7.25183"/>
        </filter>
    </defs>
</svg>
