<?xml version="1.0" encoding="UTF-8" standalone="no"?>
<!DOCTYPE svg PUBLIC "-//W3C//DTD SVG 1.1//EN" "http://www.w3.org/Graphics/SVG/1.1/DTD/svg11.dtd">
<svg width="100%" height="100%" viewBox="0 0 379 379" version="1.1" xmlns="http://www.w3.org/2000/svg" xmlns:xlink="http://www.w3.org/1999/xlink" xml:space="preserve" xmlns:serif="http://www.serif.com/" style="fill-rule:evenodd;clip-rule:evenodd;stroke-linejoin:round;stroke-miterlimit:0.73;">
    <g id="icon">
        <g>
            <path d="M378.185,132.516L378.185,245.902C378.185,318.911 318.911,378.185 245.902,378.185L132.516,378.185C59.507,378.185 0.232,318.911 0.232,245.902L0.232,132.516C0.232,59.507 59.507,0.232 132.516,0.232L245.902,0.232C318.911,0.232 378.185,59.507 378.185,132.516Z" style="fill:white;stroke:white;stroke-width:0.46px;"/>
        </g>
        <g>
            <path d="M296.941,108.837C306.65,108.837 314.52,116.707 314.52,126.416C314.52,173.253 314.52,297.512 314.52,297.512C314.52,318.032 297.675,334.692 276.927,334.692L126.553,334.692C91.973,334.692 63.898,306.925 63.898,272.725L63.898,85.576C63.898,62.478 82.859,43.726 106.213,43.726L276.927,43.726C282.297,43.726 287.405,44.842 292.028,46.852C293.402,47.458 294.164,48.945 293.854,50.415C293.544,51.885 292.247,52.937 290.744,52.937C249.233,52.944 103.891,52.944 103.891,52.944C88.947,52.944 76.814,64.944 76.814,79.724C76.814,95.792 90.004,108.837 106.251,108.837C106.251,108.837 246.728,108.837 296.941,108.837Z" style="fill:rgb(1,55,125);"/>
            <path d="M258.299,176.528L258.299,209.472C258.299,218.563 250.918,225.944 241.827,225.944L136.591,225.944C127.499,225.944 120.118,218.563 120.118,209.472L120.118,176.528C120.118,167.437 127.499,160.056 136.591,160.056L241.827,160.056C250.918,160.056 258.299,167.437 258.299,176.528Z" style="fill:white;"/>
            <path d="M252.311,179.326L252.311,206.674C252.311,214.22 246.185,220.347 238.638,220.347L139.78,220.347C132.233,220.347 126.106,214.22 126.106,206.674L126.106,179.326C126.106,171.78 132.233,165.653 139.78,165.653L238.638,165.653C246.185,165.653 252.311,171.78 252.311,179.326Z" style="fill:none;stroke:rgb(1,55,125);stroke-width:5.64px;stroke-linecap:round;stroke-miterlimit:0.348837;"/>
            <path d="M252.311,179.326L252.311,206.674C252.311,214.22 246.185,220.347 238.638,220.347L139.78,220.347C132.233,220.347 126.106,214.22 126.106,206.674L126.106,179.326C126.106,171.78 132.233,165.653 139.78,165.653L238.638,165.653C246.185,165.653 252.311,171.78 252.311,179.326Z" style="fill:white;"/>
            <path d="M147.147,208.263C146.482,208.943 145.389,208.955 144.709,208.29C144.028,207.624 144.016,206.531 144.682,205.851L167.917,182.1C168.482,181.523 169.372,181.415 170.059,181.841L203.368,202.499L231.358,177.653C232.07,177.021 233.161,177.086 233.793,177.798C234.425,178.51 234.36,179.601 233.648,180.233L204.696,205.932C204.126,206.438 203.291,206.51 202.642,206.108C202.642,206.108 169.416,185.501 169.416,185.501L147.147,208.263Z" style="fill:rgb(1,55,125);"/>
            <path d="M147.768,263.565L147.768,277.238C147.768,281.011 144.705,284.074 140.931,284.074L126.955,284.074C123.182,284.074 120.118,281.011 120.118,277.238L120.118,263.565C120.118,259.792 123.182,256.729 126.955,256.729L140.931,256.729C144.705,256.729 147.768,259.792 147.768,263.565Z" style="fill:white;"/>
            <path d="M184.612,263.565L184.612,277.238C184.612,281.011 181.548,284.074 177.775,284.074L163.799,284.074C160.026,284.074 156.962,281.011 156.962,277.238L156.962,263.565C156.962,259.792 160.026,256.729 163.799,256.729L177.775,256.729C181.548,256.729 184.612,259.792 184.612,263.565Z" style="fill:white;"/>
            <path d="M221.455,263.565L221.455,277.238C221.455,281.011 218.392,284.074 214.619,284.074L200.642,284.074C196.869,284.074 193.806,281.011 193.806,277.238L193.806,263.565C193.806,259.792 196.869,256.729 200.642,256.729L214.619,256.729C218.392,256.729 221.455,259.792 221.455,263.565Z" style="fill:white;"/>
            <path d="M258.299,263.565L258.299,277.238C258.299,281.011 255.236,284.074 251.463,284.074L237.486,284.074C233.713,284.074 230.65,281.011 230.65,277.238L230.65,263.565C230.65,259.792 233.713,256.729 237.486,256.729L251.463,256.729C255.236,256.729 258.299,259.792 258.299,263.565Z" style="fill:white;"/>
            <ellipse cx="145.915" cy="207.057" rx="4.412" ry="4.364" style="fill:rgb(124,210,76);"/>
            <ellipse cx="169.15" cy="183.306" rx="4.412" ry="4.364" style="fill:rgb(124,210,76);"/>
            <ellipse cx="203.551" cy="204.642" rx="4.412" ry="4.364" style="fill:rgb(124,210,76);"/>
            <ellipse cx="232.503" cy="178.943" rx="4.412" ry="4.364" style="fill:rgb(124,210,76);"/>
        </g>
    </g>
</svg>
