<?xml version="1.0" encoding="UTF-8" standalone="no"?>
<!DOCTYPE svg PUBLIC "-//W3C//DTD SVG 1.1//EN" "http://www.w3.org/Graphics/SVG/1.1/DTD/svg11.dtd">
<svg width="100%" height="100%" viewBox="0 0 379 379" version="1.1" xmlns="http://www.w3.org/2000/svg" xmlns:xlink="http://www.w3.org/1999/xlink" xml:space="preserve" xmlns:serif="http://www.serif.com/" style="fill-rule:evenodd;clip-rule:evenodd;stroke-linejoin:round;stroke-miterlimit:0.73;">
    <g id="icon">
        <g>
            <path d="M378.185,132.516L378.185,245.902C378.185,318.911 318.911,378.185 245.902,378.185L132.516,378.185C59.507,378.185 0.232,318.911 0.232,245.902L0.232,132.516C0.232,59.507 59.507,0.232 132.516,0.232L245.902,0.232C318.911,0.232 378.185,59.507 378.185,132.516Z" style="fill:white;stroke:white;stroke-width:0.46px;"/>
        </g>
        <g>
            <g>
                <g>
                    <path d="M184.413,149.484L184.413,184.678C184.413,194.39 176.528,202.274 166.816,202.274L123.727,202.274C114.015,202.274 106.13,194.39 106.13,184.678L106.13,149.484C106.13,139.772 114.015,131.888 123.727,131.888L166.816,131.888C176.528,131.888 184.413,139.772 184.413,149.484Z" style="fill:rgb(1,55,125);"/>
                </g>
                <path d="M162.245,137.334L162.245,148.227C162.245,151.233 159.805,153.674 156.799,153.674L133.744,153.674C130.738,153.674 128.298,151.233 128.298,148.227L128.298,137.334C128.298,134.328 130.738,131.888 133.744,131.888L156.799,131.888C159.805,131.888 162.245,134.328 162.245,137.334Z" style="fill:none;stroke:white;stroke-width:4.07px;stroke-linecap:round;stroke-miterlimit:0.348837;"/>
                <path d="M162.245,137.334L162.245,148.227C162.245,151.233 159.805,153.674 156.799,153.674L133.744,153.674C130.738,153.674 128.298,151.233 128.298,148.227L128.298,137.334C128.298,134.328 130.738,131.888 133.744,131.888L156.799,131.888C159.805,131.888 162.245,134.328 162.245,137.334Z" style="fill:rgb(124,210,76);"/>
            </g>
            <g>
                <g>
                    <path d="M139.384,230.407L139.384,265.601C139.384,275.313 131.499,283.198 121.787,283.198L78.698,283.198C68.987,283.198 61.102,275.313 61.102,265.601L61.102,230.407C61.102,220.695 68.987,212.811 78.698,212.811L121.787,212.811C131.499,212.811 139.384,220.695 139.384,230.407Z" style="fill:rgb(1,55,125);"/>
                </g>
                <path d="M117.217,218.257L117.217,229.15C117.217,232.156 114.776,234.597 111.77,234.597L88.715,234.597C85.709,234.597 83.269,232.156 83.269,229.15L83.269,218.257C83.269,215.251 85.709,212.811 88.715,212.811L111.77,212.811C114.776,212.811 117.217,215.251 117.217,218.257Z" style="fill:none;stroke:white;stroke-width:4.07px;stroke-linecap:round;stroke-miterlimit:0.348837;"/>
                <path d="M117.217,218.257L117.217,229.15C117.217,232.156 114.776,234.597 111.77,234.597L88.715,234.597C85.709,234.597 83.269,232.156 83.269,229.15L83.269,218.257C83.269,215.251 85.709,212.811 88.715,212.811L111.77,212.811C114.776,212.811 117.217,215.251 117.217,218.257Z" style="fill:rgb(124,210,76);"/>
            </g>
            <g>
                <g>
                    <path d="M274.464,149.484L274.464,184.678C274.464,194.39 266.58,202.274 256.868,202.274L213.779,202.274C204.067,202.274 196.182,194.39 196.182,184.678L196.182,149.484C196.182,139.772 204.067,131.888 213.779,131.888L256.868,131.888C266.58,131.888 274.464,139.772 274.464,149.484Z" style="fill:rgb(1,55,125);"/>
                </g>
                <path d="M252.297,137.334L252.297,148.227C252.297,151.233 249.857,153.674 246.851,153.674L223.796,153.674C220.79,153.674 218.349,151.233 218.349,148.227L218.349,137.334C218.349,134.328 220.79,131.888 223.796,131.888L246.851,131.888C249.857,131.888 252.297,134.328 252.297,137.334Z" style="fill:none;stroke:white;stroke-width:4.07px;stroke-linecap:round;stroke-miterlimit:0.348837;"/>
                <path d="M252.297,137.334L252.297,148.227C252.297,151.233 249.857,153.674 246.851,153.674L223.796,153.674C220.79,153.674 218.349,151.233 218.349,148.227L218.349,137.334C218.349,134.328 220.79,131.888 223.796,131.888L246.851,131.888C249.857,131.888 252.297,134.328 252.297,137.334Z" style="fill:rgb(124,210,76);"/>
            </g>
            <g>
                <g>
                    <path d="M229.439,230.407L229.439,265.601C229.439,275.313 221.554,283.198 211.842,283.198L168.753,283.198C159.041,283.198 151.156,275.313 151.156,265.601L151.156,230.407C151.156,220.695 159.041,212.811 168.753,212.811L211.842,212.811C221.554,212.811 229.439,220.695 229.439,230.407Z" style="fill:rgb(1,55,125);"/>
                </g>
                <path d="M207.271,218.257L207.271,229.15C207.271,232.156 204.831,234.597 201.825,234.597L178.77,234.597C175.764,234.597 173.324,232.156 173.324,229.15L173.324,218.257C173.324,215.251 175.764,212.811 178.77,212.811L201.825,212.811C204.831,212.811 207.271,215.251 207.271,218.257Z" style="fill:none;stroke:white;stroke-width:4.07px;stroke-linecap:round;stroke-miterlimit:0.348837;"/>
                <path d="M207.271,218.257L207.271,229.15C207.271,232.156 204.831,234.597 201.825,234.597L178.77,234.597C175.764,234.597 173.324,232.156 173.324,229.15L173.324,218.257C173.324,215.251 175.764,212.811 178.77,212.811L201.825,212.811C204.831,212.811 207.271,215.251 207.271,218.257Z" style="fill:rgb(124,210,76);"/>
            </g>
            <g>
                <g>
                    <path d="M319.486,230.407L319.486,265.601C319.486,275.313 311.601,283.198 301.889,283.198L258.8,283.198C249.089,283.198 241.204,275.313 241.204,265.601L241.204,230.407C241.204,220.695 249.089,212.811 258.8,212.811L301.889,212.811C311.601,212.811 319.486,220.695 319.486,230.407Z" style="fill:rgb(1,55,125);"/>
                </g>
                <path d="M297.319,218.257L297.319,229.15C297.319,232.156 294.878,234.597 291.872,234.597L268.817,234.597C265.811,234.597 263.371,232.156 263.371,229.15L263.371,218.257C263.371,215.251 265.811,212.811 268.817,212.811L291.872,212.811C294.878,212.811 297.319,215.251 297.319,218.257Z" style="fill:none;stroke:white;stroke-width:4.07px;stroke-linecap:round;stroke-miterlimit:0.348837;"/>
                <path d="M297.319,218.257L297.319,229.15C297.319,232.156 294.878,234.597 291.872,234.597L268.817,234.597C265.811,234.597 263.371,232.156 263.371,229.15L263.371,218.257C263.371,215.251 265.811,212.811 268.817,212.811L291.872,212.811C294.878,212.811 297.319,215.251 297.319,218.257Z" style="fill:rgb(124,210,76);"/>
            </g>
            <g>
                <g>
                    <path d="M229.439,69.342L229.439,104.535C229.439,114.247 221.554,122.132 211.842,122.132L168.753,122.132C159.041,122.132 151.156,114.247 151.156,104.535L151.156,69.342C151.156,59.63 159.041,51.745 168.753,51.745L211.842,51.745C221.554,51.745 229.439,59.63 229.439,69.342Z" style="fill:rgb(1,55,125);"/>
                </g>
                <path d="M207.271,57.192L207.271,68.085C207.271,71.091 204.831,73.531 201.825,73.531L178.77,73.531C175.764,73.531 173.324,71.091 173.324,68.085L173.324,57.192C173.324,54.186 175.764,51.745 178.77,51.745L201.825,51.745C204.831,51.745 207.271,54.186 207.271,57.192Z" style="fill:none;stroke:white;stroke-width:4.07px;stroke-linecap:round;stroke-miterlimit:0.348837;"/>
                <path d="M207.271,57.192L207.271,68.085C207.271,71.091 204.831,73.531 201.825,73.531L178.77,73.531C175.764,73.531 173.324,71.091 173.324,68.085L173.324,57.192C173.324,54.186 175.764,51.745 178.77,51.745L201.825,51.745C204.831,51.745 207.271,54.186 207.271,57.192Z" style="fill:rgb(124,210,76);"/>
            </g>
            <path d="M325.579,306.976C325.579,311.724 321.724,315.579 316.975,315.579L63.619,315.579C58.871,315.579 55.016,311.724 55.016,306.976C55.016,302.227 58.871,298.372 63.619,298.372L316.975,298.372C321.724,298.372 325.579,302.227 325.579,306.976Z" style="fill:none;stroke:white;stroke-width:9.39px;stroke-linecap:round;stroke-miterlimit:0.348837;"/>
            <path d="M325.579,306.976C325.579,311.724 321.724,315.579 316.975,315.579L63.619,315.579C58.871,315.579 55.016,311.724 55.016,306.976C55.016,302.227 58.871,298.372 63.619,298.372L316.975,298.372C321.724,298.372 325.579,302.227 325.579,306.976Z" style="fill:rgb(124,210,76);"/>
        </g>
    </g>
</svg>
