<?xml version="1.0" encoding="UTF-8" standalone="no"?>
<!DOCTYPE svg PUBLIC "-//W3C//DTD SVG 1.1//EN" "http://www.w3.org/Graphics/SVG/1.1/DTD/svg11.dtd">
<svg width="100%" height="100%" viewBox="0 0 379 379" version="1.1" xmlns="http://www.w3.org/2000/svg" xmlns:xlink="http://www.w3.org/1999/xlink" xml:space="preserve" xmlns:serif="http://www.serif.com/" style="fill-rule:evenodd;clip-rule:evenodd;stroke-linejoin:round;stroke-miterlimit:0.73;">
    <g>
        <g>
            <path d="M378.185,94.721L378.185,283.697C378.185,335.846 335.846,378.185 283.697,378.185L94.721,378.185C42.571,378.185 0.232,335.846 0.232,283.697L0.232,94.721C0.232,42.571 42.571,0.232 94.721,0.232L283.697,0.232C335.846,0.232 378.185,42.571 378.185,94.721Z" style="fill:white;stroke:white;stroke-width:0.46px;"/>
        </g>
        <g>
            <ellipse cx="223.473" cy="220.953" rx="73.382" ry="75.468" style="fill:rgb(124,210,76);"/>
            <path d="M248.578,123.33L248.578,210.442C248.578,233.189 230.111,251.655 207.365,251.655L124.939,251.655C102.193,251.655 83.726,233.189 83.726,210.442L83.726,123.33C83.726,100.584 102.193,82.117 124.939,82.117L207.365,82.117C230.111,82.117 248.578,100.584 248.578,123.33Z" style="fill:rgb(1,55,125);"/>
            <clipPath id="_clip1">
                <path d="M248.578,123.33L248.578,210.442C248.578,233.189 230.111,251.655 207.365,251.655L124.939,251.655C102.193,251.655 83.726,233.189 83.726,210.442L83.726,123.33C83.726,100.584 102.193,82.117 124.939,82.117L207.365,82.117C230.111,82.117 248.578,100.584 248.578,123.33Z"/>
            </clipPath>
            <g clip-path="url(#_clip1)">
                <g>
                    <g style="filter:url(#_Effect2);">
                        <ellipse cx="223.473" cy="220.953" rx="73.382" ry="75.468" style="fill:rgb(157,175,255);"/>
                    </g>
                </g>
            </g>
        </g>
        <circle cx="122.919" cy="119.645" r="13.204" style="fill:white;"/>
    </g>
    <defs>
        <filter id="_Effect2" filterUnits="userSpaceOnUse" x="96.8975" y="92.2916" width="253.151" height="257.323">
            <feGaussianBlur in="SourceGraphic" stdDeviation="8.86567"/>
        </filter>
    </defs>
</svg>
