<?xml version="1.0" encoding="UTF-8" standalone="no"?>
<!DOCTYPE svg PUBLIC "-//W3C//DTD SVG 1.1//EN" "http://www.w3.org/Graphics/SVG/1.1/DTD/svg11.dtd">
<svg width="100%" height="100%" viewBox="0 0 494 494" version="1.1" xmlns="http://www.w3.org/2000/svg" xmlns:xlink="http://www.w3.org/1999/xlink" xml:space="preserve" xmlns:serif="http://www.serif.com/" style="fill-rule:evenodd;clip-rule:evenodd;stroke-linejoin:round;stroke-miterlimit:0.73;">
    <g>
        <g>
            <g style="filter:url(#_Effect1);">
                <path d="M435.953,152.488L435.953,341.465C435.953,393.614 393.614,435.953 341.465,435.953L152.488,435.953C100.339,435.953 58,393.614 58,341.465L58,152.488C58,100.339 100.339,58 152.488,58L341.465,58C393.614,58 435.953,100.339 435.953,152.488Z" style="fill:none;stroke:#01377d;stroke-opacity:0.2;stroke-width:20px;"/>
            </g>
            <path d="M435.953,152.488L435.953,341.465C435.953,393.614 393.614,435.953 341.465,435.953L152.488,435.953C100.339,435.953 58,393.614 58,341.465L58,152.488C58,100.339 100.339,58 152.488,58L341.465,58C393.614,58 435.953,100.339 435.953,152.488Z" style="fill:#fff;stroke:#fff;stroke-width:0.46px;"/>
        </g>
        <g>
            <path d="M291.569,353.165C291.569,364.501 282.366,373.704 271.03,373.704L156.111,373.704C144.776,373.704 135.572,364.501 135.572,353.165C135.572,341.83 144.776,332.626 156.111,332.626L271.03,332.626C282.366,332.626 291.569,341.83 291.569,353.165Z" style="fill:#01377d;"/>
            <path d="M292.988,305.572C292.988,316.908 283.785,326.111 272.449,326.111L157.531,326.111C146.195,326.111 136.992,316.908 136.992,305.572C136.992,294.236 146.195,285.033 157.531,285.033L272.449,285.033C283.785,285.033 292.988,294.236 292.988,305.572Z" style="fill:#7cd24c;"/>
            <path d="M291.96,254.889C291.96,266.225 282.756,275.428 271.421,275.428L156.502,275.428C145.166,275.428 135.963,266.225 135.963,254.889C135.963,243.554 145.166,234.35 156.502,234.35L271.421,234.35C282.756,234.35 291.96,243.554 291.96,254.889Z" style="fill:#01377d;"/>
            <circle cx="301.356" cy="267.492" r="74.216" style="fill:none;stroke:#fff;stroke-width:32.74px;stroke-linecap:round;stroke-miterlimit:0.348837;"/>
            <circle cx="301.356" cy="267.492" r="74.216" style="fill:#01377d;"/>
            <path d="M324.672,284.875C324.672,288.212 323.822,291.34 322.122,294.259C320.421,297.179 317.919,299.585 314.614,301.478C311.31,303.371 307.412,304.477 302.921,304.798L302.921,312.594L296.761,312.594L296.761,304.702C290.345,304.124 285.179,302.183 281.265,298.879C277.351,295.575 275.33,291.099 275.202,285.453L289.639,285.453C290.024,290.073 292.398,292.864 296.761,293.826L296.761,275.443C292.141,274.288 288.42,273.133 285.596,271.979C282.773,270.824 280.335,268.963 278.282,266.396C276.229,263.83 275.202,260.333 275.202,255.906C275.202,250.323 277.207,245.768 281.217,242.239C285.228,238.71 290.409,236.689 296.761,236.175L296.761,228.379L302.921,228.379L302.921,236.175C309.08,236.689 314.005,238.549 317.694,241.758C321.384,244.966 323.453,249.393 323.902,255.039L309.369,255.039C309.177,253.179 308.519,251.559 307.396,250.179C306.273,248.799 304.781,247.821 302.921,247.244L302.921,265.434C307.733,266.653 311.535,267.824 314.326,268.947C317.117,270.07 319.539,271.898 321.592,274.433C323.645,276.967 324.672,280.448 324.672,284.875ZM289.254,255.232C289.254,257.349 289.895,259.066 291.179,260.381C292.462,261.696 294.323,262.771 296.761,263.605L296.761,246.955C294.451,247.276 292.622,248.142 291.275,249.553C289.928,250.965 289.254,252.858 289.254,255.232ZM302.921,294.019C305.359,293.57 307.268,292.575 308.647,291.035C310.027,289.495 310.716,287.634 310.716,285.453C310.716,283.335 310.043,281.635 308.695,280.352C307.348,279.069 305.423,278.01 302.921,277.176L302.921,294.019Z" style="fill:#fff;fill-rule:nonzero;"/>
            <path d="M248.029,117.689L248.029,156.857C248.029,162.621 243.349,167.301 237.585,167.301L216.696,167.301C210.932,167.301 206.252,162.621 206.252,156.857L206.252,117.689C206.252,111.924 210.932,107.245 216.696,107.245L237.585,107.245C243.349,107.245 248.029,111.924 248.029,117.689Z" style="fill:#01377d;"/>
            <path d="M224.038,212.845C224.744,213.861 225.903,214.466 227.14,214.466C228.378,214.466 229.536,213.861 230.243,212.845C237.559,202.329 255.89,175.978 264.134,164.127C264.938,162.971 265.033,161.465 264.381,160.218C263.73,158.971 262.439,158.189 261.032,158.189L193.249,158.189C191.842,158.189 190.551,158.971 189.899,160.218C189.248,161.465 189.343,162.971 190.146,164.127C198.391,175.978 216.722,202.329 224.038,212.845Z" style="fill:#7cd24c;"/>
        </g>
    </g>
    <defs>
        <filter id="_Effect1" filterUnits="userSpaceOnUse" x="-48" y="-48" width="589.953" height="589.953">
            <feGaussianBlur in="SourceGraphic" stdDeviation="16"/>
        </filter>
    </defs>
</svg>
