<?xml version="1.0" encoding="UTF-8" standalone="no"?>
<!DOCTYPE svg PUBLIC "-//W3C//DTD SVG 1.1//EN" "http://www.w3.org/Graphics/SVG/1.1/DTD/svg11.dtd">
<svg width="100%" height="100%" viewBox="0 0 494 494" version="1.1" xmlns="http://www.w3.org/2000/svg" xmlns:xlink="http://www.w3.org/1999/xlink" xml:space="preserve" xmlns:serif="http://www.serif.com/" style="fill-rule:evenodd;clip-rule:evenodd;stroke-linejoin:round;stroke-miterlimit:0.73;">
    <g>
        <g style="filter:url(#_Effect1);">
            <path d="M435.953,152.488L435.953,341.465C435.953,393.614 393.614,435.953 341.465,435.953L152.488,435.953C100.339,435.953 58,393.614 58,341.465L58,152.488C58,100.339 100.339,58 152.488,58L341.465,58C393.614,58 435.953,100.339 435.953,152.488Z" style="fill:none;stroke:#01377d;stroke-opacity:0.2;stroke-width:20px;"/>
        </g>
        <path d="M433.79,152.368L433.79,341.344C433.79,393.494 391.451,435.832 339.302,435.832L150.325,435.832C98.176,435.832 55.837,393.494 55.837,341.344L55.837,152.368C55.837,100.218 98.176,57.88 150.325,57.88L339.302,57.88C391.451,57.88 433.79,100.218 433.79,152.368Z" style="fill:#fff;stroke:#fff;stroke-width:0.46px;"/>
    </g>
    <g>
        <path d="M282.406,177.999C282.406,197.144 266.863,212.687 247.718,212.687L244.072,212.687C224.927,212.687 209.384,197.144 209.384,177.999C209.384,158.854 224.927,143.311 244.072,143.311L247.718,143.311C266.863,143.311 282.406,158.854 282.406,177.999Z" style="fill:#01377d;"/>
        <clipPath id="_clip2">
            <path d="M282.406,177.999C282.406,197.144 266.863,212.687 247.718,212.687L244.072,212.687C224.927,212.687 209.384,197.144 209.384,177.999C209.384,158.854 224.927,143.311 244.072,143.311L247.718,143.311C266.863,143.311 282.406,158.854 282.406,177.999Z"/>
        </clipPath>
        <g clip-path="url(#_clip2)">
            <path d="M272.32,243.086L270.622,243.086L270.622,238.597L272.32,238.597L272.32,243.086Z" style="fill:#968cff;"/>
        </g>
        <path d="M188.731,212.74C188.731,223.8 179.752,232.779 168.692,232.779L166.586,232.779C155.527,232.779 146.548,223.8 146.548,212.74C146.548,201.681 155.527,192.702 166.586,192.702L168.692,192.702C179.752,192.702 188.731,201.681 188.731,212.74Z" style="fill:#01377d;"/>
        <clipPath id="_clip3">
            <path d="M188.731,212.74C188.731,223.8 179.752,232.779 168.692,232.779L166.586,232.779C155.527,232.779 146.548,223.8 146.548,212.74C146.548,201.681 155.527,192.702 166.586,192.702L168.692,192.702C179.752,192.702 188.731,201.681 188.731,212.74Z"/>
        </clipPath>
        <g clip-path="url(#_clip3)">
            <path d="M182.904,250.34L181.924,250.34L181.924,247.746L182.904,247.746L182.904,250.34Z" style="fill:#968cff;"/>
        </g>
        <path d="M345.242,212.74C345.242,223.8 336.263,232.779 325.203,232.779L323.098,232.779C312.038,232.779 303.059,223.8 303.059,212.74C303.059,201.681 312.038,192.702 323.098,192.702L325.203,192.702C336.263,192.702 345.242,201.681 345.242,212.74Z" style="fill:#01377d;"/>
        <clipPath id="_clip4">
            <path d="M345.242,212.74C345.242,223.8 336.263,232.779 325.203,232.779L323.098,232.779C312.038,232.779 303.059,223.8 303.059,212.74C303.059,201.681 312.038,192.702 323.098,192.702L325.203,192.702C336.263,192.702 345.242,201.681 345.242,212.74Z"/>
        </clipPath>
        <g clip-path="url(#_clip4)">
            <path d="M339.415,250.34L338.435,250.34L338.435,247.746L339.415,247.746L339.415,250.34Z" style="fill:#968cff;"/>
        </g>
        <path d="M365.895,277.992L365.895,314.832C365.895,332.301 351.713,346.483 334.244,346.483L314.057,346.483C296.588,346.483 282.406,332.301 282.406,314.832L282.406,277.992C282.406,260.523 296.588,246.341 314.057,246.341L334.244,246.341C351.713,246.341 365.895,260.523 365.895,277.992Z" style="fill:#7cd24c;"/>
        <path d="M209.384,277.992L209.384,314.832C209.384,332.301 195.202,346.483 177.733,346.483L157.546,346.483C140.077,346.483 125.895,332.301 125.895,314.832L125.895,277.992C125.895,260.523 140.077,246.341 157.546,246.341L177.733,246.341C195.202,246.341 209.384,260.523 209.384,277.992Z" style="fill:#7cd24c;"/>
        <path d="M310.747,266.048L310.747,297.371C310.747,324.477 288.74,346.483 261.635,346.483L228.618,346.483C201.513,346.483 179.506,324.477 179.506,297.371L179.506,266.048C179.506,238.942 201.513,216.936 228.618,216.936L261.635,216.936C288.74,216.936 310.747,238.942 310.747,266.048Z" style="fill:#01377d;"/>
        <clipPath id="_clip5">
            <path d="M310.747,266.048L310.747,297.371C310.747,324.477 288.74,346.483 261.635,346.483L228.618,346.483C201.513,346.483 179.506,324.477 179.506,297.371L179.506,266.048C179.506,238.942 201.513,216.936 228.618,216.936L261.635,216.936C288.74,216.936 310.747,238.942 310.747,266.048Z"/>
        </clipPath>
        <g clip-path="url(#_clip5)">
            <g>
                <g style="filter:url(#_Effect6);">
                    <path d="M209.384,277.992L209.384,314.832C209.384,332.301 195.202,346.483 177.733,346.483L157.546,346.483C140.077,346.483 125.895,332.301 125.895,314.832L125.895,277.992C125.895,260.523 140.077,246.341 157.546,246.341L177.733,246.341C195.202,246.341 209.384,260.523 209.384,277.992Z" style="fill:#9dafff;"/>
                </g>
            </g>
            <g>
                <g style="filter:url(#_Effect7);">
                    <path d="M365.895,277.992L365.895,314.832C365.895,332.301 351.713,346.483 334.244,346.483L314.057,346.483C296.588,346.483 282.406,332.301 282.406,314.832L282.406,277.992C282.406,260.523 296.588,246.341 314.057,246.341L334.244,246.341C351.713,246.341 365.895,260.523 365.895,277.992Z" style="fill:#9dafff;"/>
                </g>
            </g>
        </g>
    </g>
    <defs>
        <filter id="_Effect1" filterUnits="userSpaceOnUse" x="-48" y="-48" width="589.953" height="589.953">
            <feGaussianBlur in="SourceGraphic" stdDeviation="16"/>
        </filter>
        <filter id="_Effect6" filterUnits="userSpaceOnUse" x="110.687" y="231.133" width="113.905" height="130.558">
            <feGaussianBlur in="SourceGraphic" stdDeviation="2.53467"/>
        </filter>
        <filter id="_Effect7" filterUnits="userSpaceOnUse" x="267.198" y="231.133" width="113.905" height="130.558">
            <feGaussianBlur in="SourceGraphic" stdDeviation="2.53467"/>
        </filter>
    </defs>
</svg>
