<?xml version="1.0" encoding="UTF-8" standalone="no"?>
<!DOCTYPE svg PUBLIC "-//W3C//DTD SVG 1.1//EN" "http://www.w3.org/Graphics/SVG/1.1/DTD/svg11.dtd">
<svg width="100%" height="100%" viewBox="0 0 494 494" version="1.1" xmlns="http://www.w3.org/2000/svg" xmlns:xlink="http://www.w3.org/1999/xlink" xml:space="preserve" xmlns:serif="http://www.serif.com/" style="fill-rule:evenodd;clip-rule:evenodd;stroke-linejoin:round;stroke-miterlimit:0.73;">
    <g>
        <g>
            <g style="filter:url(#_Effect1);">
                <path d="M435.953,152.488L435.953,341.465C435.953,393.614 393.614,435.953 341.465,435.953L152.488,435.953C100.339,435.953 58,393.614 58,341.465L58,152.488C58,100.339 100.339,58 152.488,58L341.465,58C393.614,58 435.953,100.339 435.953,152.488Z" style="fill:none;stroke:rgb(1,55,125);stroke-opacity:0.2;stroke-width:20px;"/>
            </g>
            <path d="M435.953,152.368L435.953,341.344C435.953,393.494 393.614,435.832 341.465,435.832L152.488,435.832C100.339,435.832 58,393.494 58,341.344L58,152.368C58,100.218 100.339,57.88 152.488,57.88L341.465,57.88C393.614,57.88 435.953,100.218 435.953,152.368Z" style="fill:white;stroke:white;stroke-width:0.46px;"/>
        </g>
        <g>
            <path d="M366.976,167.313L366.976,320.248C366.976,348.931 343.689,372.219 315.006,372.219L211.065,372.219C182.382,372.219 159.095,348.931 159.095,320.248L159.095,167.313C159.095,138.629 182.382,115.342 211.065,115.342L315.006,115.342C343.689,115.342 366.976,138.629 366.976,167.313Z" style="fill:rgb(123,210,75);"/>
            <path d="M349.259,180.31L349.259,328.01C349.259,355.871 326.639,378.49 298.778,378.49L197.817,378.49C169.956,378.49 147.336,355.871 147.336,328.01L147.336,180.31C147.336,152.449 169.956,129.829 197.817,129.829L298.778,129.829C326.639,129.829 349.259,152.449 349.259,180.31Z" style="fill:none;stroke:white;stroke-width:16.34px;stroke-linecap:round;stroke-miterlimit:0.348837;"/>
            <path d="M349.259,180.31L349.259,328.01C349.259,355.871 326.639,378.49 298.778,378.49L197.817,378.49C169.956,378.49 147.336,355.871 147.336,328.01L147.336,180.31C147.336,152.449 169.956,129.829 197.817,129.829L298.778,129.829C326.639,129.829 349.259,152.449 349.259,180.31Z" style="fill:rgb(1,55,125);"/>
            <path d="M296.319,267.078C296.319,270.598 293.462,273.456 289.942,273.456L206.654,273.456C203.133,273.456 200.276,270.598 200.276,267.078C200.276,263.558 203.133,260.7 206.654,260.7L289.942,260.7C293.462,260.7 296.319,263.558 296.319,267.078Z" style="fill:white;"/>
            <path d="M296.319,295.547C296.319,299.067 293.462,301.925 289.942,301.925L206.654,301.925C203.133,301.925 200.276,299.067 200.276,295.547C200.276,292.027 203.133,289.169 206.654,289.169L289.942,289.169C293.462,289.169 296.319,292.027 296.319,295.547Z" style="fill:white;"/>
            <path d="M295.775,330.356C295.775,333.876 292.918,336.734 289.398,336.734L206.109,336.734C202.589,336.734 199.732,333.876 199.732,330.356C199.732,326.836 202.589,323.978 206.109,323.978L289.398,323.978C292.918,323.978 295.775,326.836 295.775,330.356Z" style="fill:white;"/>
            <path d="M167.696,198.368C167.696,204.712 162.545,209.863 156.201,209.863L138.471,209.863C132.127,209.863 126.976,204.712 126.976,198.368C126.976,192.024 132.127,186.873 138.471,186.873L156.201,186.873C162.545,186.873 167.696,192.024 167.696,198.368Z" style="fill:none;stroke:white;stroke-width:11.4px;stroke-linecap:round;stroke-miterlimit:0.348837;"/>
            <path d="M167.696,198.368C167.696,204.712 162.545,209.863 156.201,209.863L138.471,209.863C132.127,209.863 126.976,204.712 126.976,198.368C126.976,192.024 132.127,186.873 138.471,186.873L156.201,186.873C162.545,186.873 167.696,192.024 167.696,198.368Z" style="fill:rgb(124,210,76);"/>
            <path d="M167.696,253.068C167.696,259.412 162.545,264.563 156.201,264.563L138.471,264.563C132.127,264.563 126.976,259.412 126.976,253.068C126.976,246.723 132.127,241.573 138.471,241.573L156.201,241.573C162.545,241.573 167.696,246.723 167.696,253.068Z" style="fill:none;stroke:white;stroke-width:11.4px;stroke-linecap:round;stroke-miterlimit:0.348837;"/>
            <path d="M167.696,253.068C167.696,259.412 162.545,264.563 156.201,264.563L138.471,264.563C132.127,264.563 126.976,259.412 126.976,253.068C126.976,246.723 132.127,241.573 138.471,241.573L156.201,241.573C162.545,241.573 167.696,246.723 167.696,253.068Z" style="fill:rgb(124,210,76);"/>
            <path d="M167.696,309.952C167.696,316.296 162.545,321.447 156.201,321.447L138.471,321.447C132.127,321.447 126.976,316.296 126.976,309.952C126.976,303.607 132.127,298.457 138.471,298.457L156.201,298.457C162.545,298.457 167.696,303.607 167.696,309.952Z" style="fill:none;stroke:white;stroke-width:11.4px;stroke-linecap:round;stroke-miterlimit:0.348837;"/>
            <path d="M167.696,309.952C167.696,316.296 162.545,321.447 156.201,321.447L138.471,321.447C132.127,321.447 126.976,316.296 126.976,309.952C126.976,303.607 132.127,298.457 138.471,298.457L156.201,298.457C162.545,298.457 167.696,303.607 167.696,309.952Z" style="fill:rgb(124,210,76);"/>
            <path d="M266.421,216.974C266.421,219.418 265.798,221.71 264.552,223.849C263.307,225.989 261.473,227.752 259.052,229.138C256.631,230.525 253.775,231.336 250.484,231.571L250.484,237.283L245.97,237.283L245.97,231.501C241.269,231.078 237.485,229.656 234.617,227.234C231.749,224.813 230.268,221.534 230.174,217.397L240.752,217.397C241.034,220.782 242.773,222.827 245.97,223.532L245.97,210.063C242.585,209.217 239.859,208.37 237.79,207.524C235.722,206.678 233.935,205.314 232.431,203.434C230.926,201.553 230.174,198.991 230.174,195.747C230.174,191.657 231.643,188.319 234.581,185.733C237.52,183.148 241.316,181.667 245.97,181.291L245.97,175.579L250.484,175.579L250.484,181.291C254.997,181.667 258.605,183.03 261.308,185.381C264.012,187.732 265.528,190.975 265.857,195.113L255.208,195.113C255.067,193.749 254.586,192.562 253.763,191.551C252.94,190.541 251.847,189.824 250.484,189.4L250.484,202.729C254.01,203.622 256.795,204.48 258.84,205.303C260.885,206.125 262.66,207.465 264.165,209.322C265.669,211.179 266.421,213.73 266.421,216.974ZM240.47,195.254C240.47,196.805 240.94,198.063 241.88,199.026C242.821,199.99 244.184,200.778 245.97,201.389L245.97,189.189C244.278,189.424 242.938,190.059 241.951,191.093C240.963,192.127 240.47,193.514 240.47,195.254ZM250.484,223.673C252.27,223.344 253.669,222.615 254.68,221.487C255.69,220.359 256.196,218.995 256.196,217.397C256.196,215.845 255.702,214.6 254.715,213.659C253.728,212.719 252.317,211.943 250.484,211.332L250.484,223.673Z" style="fill:white;fill-rule:nonzero;"/>
        </g>
    </g>
    <defs>
        <filter id="_Effect1" filterUnits="userSpaceOnUse" x="-48" y="-48" width="589.953" height="589.953">
            <feGaussianBlur in="SourceGraphic" stdDeviation="16"/>
        </filter>
    </defs>
</svg>
