<?xml version="1.0" encoding="UTF-8" standalone="no"?>
<!DOCTYPE svg PUBLIC "-//W3C//DTD SVG 1.1//EN" "http://www.w3.org/Graphics/SVG/1.1/DTD/svg11.dtd">
<svg width="100%" height="100%" viewBox="0 0 494 494" version="1.1" xmlns="http://www.w3.org/2000/svg" xmlns:xlink="http://www.w3.org/1999/xlink" xml:space="preserve" xmlns:serif="http://www.serif.com/" style="fill-rule:evenodd;clip-rule:evenodd;stroke-linejoin:round;stroke-miterlimit:0.73;">
    <g>
        <g>
            <g style="filter:url(#_Effect1);">
                <path d="M435.953,152.488L435.953,341.465C435.953,393.614 393.614,435.953 341.465,435.953L152.488,435.953C100.339,435.953 58,393.614 58,341.465L58,152.488C58,100.339 100.339,58 152.488,58L341.465,58C393.614,58 435.953,100.339 435.953,152.488Z" style="fill:none;stroke:#01377d;stroke-opacity:0.2;stroke-width:20px;"/>
            </g>
            <path d="M433.79,152.368L433.79,341.344C433.79,393.494 391.451,435.832 339.302,435.832L150.325,435.832C98.176,435.832 55.837,393.494 55.837,341.344L55.837,152.368C55.837,100.218 98.176,57.88 150.325,57.88L339.302,57.88C391.451,57.88 433.79,100.218 433.79,152.368Z" style="fill:#fff;stroke:#fff;stroke-width:0.46px;"/>
        </g>
        <path d="M317.26,217.648L289.198,212.928C289.687,210.466 289.933,207.967 289.933,205.464C289.933,182.551 269.716,163.949 244.813,163.949C219.911,163.949 199.694,182.551 199.694,205.464C199.694,207.967 199.94,210.466 200.429,212.928L172.367,217.648C171.569,213.628 171.167,209.55 171.167,205.464C171.167,168.064 204.167,137.701 244.813,137.701C285.46,137.701 318.46,168.064 318.46,205.464C318.46,209.55 318.058,213.628 317.26,217.648Z" style="fill:#7cd24c;"/>
        <path d="M339.302,238.688L339.302,316.904C339.302,338.488 321.778,356.012 300.194,356.012L189.433,356.012C167.849,356.012 150.325,338.488 150.325,316.904L150.325,238.688C150.325,217.104 167.849,199.581 189.433,199.581L300.194,199.581C321.778,199.581 339.302,217.104 339.302,238.688Z" style="fill:#01377d;"/>
        <clipPath id="_clip2">
            <path d="M339.302,238.688L339.302,316.904C339.302,338.488 321.778,356.012 300.194,356.012L189.433,356.012C167.849,356.012 150.325,338.488 150.325,316.904L150.325,238.688C150.325,217.104 167.849,199.581 189.433,199.581L300.194,199.581C321.778,199.581 339.302,217.104 339.302,238.688Z"/>
        </clipPath>
        <g clip-path="url(#_clip2)">
            <g>
                <g style="filter:url(#_Effect3);">
                    <path d="M317.26,215.801L289.198,211.564C289.687,209.353 289.933,207.11 289.933,204.862C289.933,184.291 269.716,167.59 244.813,167.59C219.911,167.59 199.694,184.291 199.694,204.862C199.694,207.11 199.94,209.353 200.429,211.564L172.367,215.801C171.569,212.192 171.167,208.531 171.167,204.862C171.167,171.285 204.167,144.025 244.813,144.025C285.46,144.025 318.46,171.285 318.46,204.862C318.46,208.531 318.058,212.192 317.26,215.801Z" style="fill:#9dafff;"/>
                </g>
            </g>
        </g>
        <circle cx="244.813" cy="262.186" r="17.558" style="fill:#fff;"/>
        <path d="M251.864,279.284L251.864,312.869C251.864,316.761 248.705,319.92 244.813,319.92C240.922,319.92 237.763,316.761 237.763,312.869L237.763,279.284C237.763,275.393 240.922,272.234 244.813,272.234C248.705,272.234 251.864,275.393 251.864,279.284Z" style="fill:#fff;"/>
    </g>
    <defs>
        <filter id="_Effect1" filterUnits="userSpaceOnUse" x="-48" y="-48" width="589.953" height="589.953">
            <feGaussianBlur in="SourceGraphic" stdDeviation="16"/>
        </filter>
        <filter id="_Effect3" filterUnits="userSpaceOnUse" x="132.767" y="105.625" width="224.093" height="198.476">
            <feGaussianBlur in="SourceGraphic" stdDeviation="6.4"/>
        </filter>
    </defs>
</svg>
