<?xml version="1.0" encoding="UTF-8" standalone="no"?>
<!DOCTYPE svg PUBLIC "-//W3C//DTD SVG 1.1//EN" "http://www.w3.org/Graphics/SVG/1.1/DTD/svg11.dtd">
<svg width="100%" height="100%" viewBox="0 0 379 379" version="1.1" xmlns="http://www.w3.org/2000/svg" xmlns:xlink="http://www.w3.org/1999/xlink" xml:space="preserve" xmlns:serif="http://www.serif.com/" style="fill-rule:evenodd;clip-rule:evenodd;stroke-linejoin:round;stroke-miterlimit:0.73;">
    <g id="icon">
        <g>
            <path d="M378.185,132.516L378.185,245.902C378.185,318.911 318.911,378.185 245.902,378.185L132.516,378.185C59.507,378.185 0.232,318.911 0.232,245.902L0.232,132.516C0.232,59.507 59.507,0.232 132.516,0.232L245.902,0.232C318.911,0.232 378.185,59.507 378.185,132.516Z" style="fill:white;stroke:white;stroke-width:0.46px;"/>
        </g>
        <g>
            <ellipse cx="181.276" cy="189.209" rx="96.975" ry="95.91" style="fill:rgb(1,55,125);"/>
            <path d="M211.541,206.621C211.541,210.659 210.501,214.444 208.421,217.977C206.34,221.51 203.278,224.421 199.235,226.712C195.192,229.003 190.422,230.342 184.927,230.73L184.927,240.164L177.39,240.164L177.39,230.614C169.539,229.915 163.219,227.566 158.43,223.567C153.641,219.569 151.168,214.153 151.011,207.32L168.675,207.32C169.147,212.91 172.051,216.288 177.39,217.453L177.39,195.207C171.737,193.809 167.184,192.412 163.729,191.014C160.275,189.616 157.292,187.365 154.779,184.259C152.267,181.153 151.011,176.921 151.011,171.564C151.011,164.808 153.464,159.296 158.371,155.025C163.278,150.755 169.618,148.309 177.39,147.687L177.39,138.253L184.927,138.253L184.927,147.687C192.464,148.309 198.489,150.56 203.004,154.443C207.518,158.325 210.05,163.683 210.599,170.515L192.817,170.515C192.581,168.264 191.777,166.303 190.403,164.634C189.029,162.964 187.204,161.78 184.927,161.081L184.927,183.094C190.815,184.569 195.467,185.987 198.882,187.345C202.297,188.704 205.261,190.917 207.773,193.984C210.285,197.051 211.541,201.263 211.541,206.621ZM168.204,170.748C168.204,173.311 168.99,175.388 170.56,176.98C172.13,178.571 174.407,179.872 177.39,180.881L177.39,160.732C174.564,161.12 172.326,162.169 170.677,163.877C169.029,165.585 168.204,167.876 168.204,170.748ZM184.927,217.686C187.91,217.142 190.246,215.939 191.934,214.075C193.622,212.212 194.466,209.96 194.466,207.32C194.466,204.757 193.641,202.7 191.993,201.147C190.344,199.594 187.989,198.313 184.927,197.303L184.927,217.686Z" style="fill:white;fill-rule:nonzero;"/>
            <path d="M105.903,316.679C105.903,316.679 106.641,315.432 107.775,313.513C114.138,302.752 127.269,298.057 139.013,302.344C152.49,307.269 166.796,309.818 181.276,309.818C248.582,309.818 303.226,255.775 303.226,189.209C303.226,122.643 248.582,68.599 181.276,68.599C159.639,68.599 138.392,74.293 119.714,85.095L105.903,61.739C128.771,48.512 154.785,41.542 181.276,41.542C263.682,41.542 330.584,107.709 330.584,189.209C330.584,270.709 263.682,336.876 181.276,336.876C154.785,336.876 128.771,329.905 105.903,316.679Z" style="fill:rgb(1,55,125);"/>
            <path d="M77.221,98.007C75.852,98.022 74.583,97.296 73.901,96.109C73.22,94.923 73.233,93.46 73.937,92.286C79.524,82.955 90.44,64.727 95.907,55.599C96.593,54.452 97.834,53.754 99.171,53.761C100.507,53.769 101.74,54.481 102.414,55.635C107.714,64.716 118.217,82.707 123.554,91.848C124.232,93.011 124.241,94.446 123.577,95.618C122.914,96.789 121.677,97.518 120.331,97.533C109.568,97.651 88.149,97.887 77.221,98.007Z" style="fill:rgb(124,210,76);"/>
        </g>
    </g>
</svg>
