<?xml version="1.0" encoding="UTF-8" standalone="no"?>
<!DOCTYPE svg PUBLIC "-//W3C//DTD SVG 1.1//EN" "http://www.w3.org/Graphics/SVG/1.1/DTD/svg11.dtd">
<svg width="100%" height="100%" viewBox="0 0 379 379" version="1.1" xmlns="http://www.w3.org/2000/svg" xmlns:xlink="http://www.w3.org/1999/xlink" xml:space="preserve" xmlns:serif="http://www.serif.com/" style="fill-rule:evenodd;clip-rule:evenodd;stroke-linejoin:round;stroke-miterlimit:0.73;">
    <g>
        <g>
            <path d="M378.185,94.721L378.185,283.697C378.185,335.846 335.846,378.185 283.697,378.185L94.721,378.185C42.571,378.185 0.232,335.846 0.232,283.697L0.232,94.721C0.232,42.571 42.571,0.232 94.721,0.232L283.697,0.232C335.846,0.232 378.185,42.571 378.185,94.721Z" style="fill:white;stroke:white;stroke-width:0.46px;"/>
        </g>
        <path d="M261.655,160L233.593,155.281C234.082,152.818 234.328,150.32 234.328,147.816C234.328,124.904 214.111,106.301 189.209,106.301C164.307,106.301 144.089,124.904 144.089,147.816C144.089,150.32 144.335,152.818 144.825,155.281L116.763,160C115.964,155.981 115.562,151.903 115.562,147.816C115.562,110.417 148.562,80.053 189.209,80.053C229.855,80.053 262.855,110.417 262.855,147.816C262.855,151.903 262.454,155.981 261.655,160Z" style="fill:rgb(124,210,76);"/>
        <path d="M283.697,181.041L283.697,259.257C283.697,280.841 266.173,298.364 244.589,298.364L133.828,298.364C112.244,298.364 94.721,280.841 94.721,259.257L94.721,181.041C94.721,159.457 112.244,141.933 133.828,141.933L244.589,141.933C266.173,141.933 283.697,159.457 283.697,181.041Z" style="fill:rgb(1,55,125);"/>
        <clipPath id="_clip1">
            <path d="M283.697,181.041L283.697,259.257C283.697,280.841 266.173,298.364 244.589,298.364L133.828,298.364C112.244,298.364 94.721,280.841 94.721,259.257L94.721,181.041C94.721,159.457 112.244,141.933 133.828,141.933L244.589,141.933C266.173,141.933 283.697,159.457 283.697,181.041Z"/>
        </clipPath>
        <g clip-path="url(#_clip1)">
            <g>
                <g style="filter:url(#_Effect2);">
                    <path d="M261.655,158.154L233.593,153.917C234.082,151.706 234.328,149.463 234.328,147.215C234.328,126.644 214.111,109.943 189.209,109.943C164.307,109.943 144.089,126.644 144.089,147.215C144.089,149.463 144.335,151.706 144.825,153.917L116.763,158.154C115.964,154.545 115.562,150.884 115.562,147.215C115.562,113.638 148.562,86.377 189.209,86.377C229.855,86.377 262.855,113.638 262.855,147.215C262.855,150.884 262.454,154.545 261.655,158.154Z" style="fill:rgb(157,175,255);"/>
                </g>
            </g>
        </g>
        <circle cx="189.209" cy="204.539" r="17.558" style="fill:white;"/>
        <path d="M196.259,221.637L196.259,255.222C196.259,259.113 193.1,262.273 189.209,262.273C185.318,262.273 182.158,259.113 182.158,255.222L182.158,221.637C182.158,217.746 185.318,214.586 189.209,214.586C193.1,214.586 196.259,217.746 196.259,221.637Z" style="fill:white;"/>
    </g>
    <defs>
        <filter id="_Effect2" filterUnits="userSpaceOnUse" x="77.1623" y="47.9773" width="224.093" height="198.476">
            <feGaussianBlur in="SourceGraphic" stdDeviation="6.4"/>
        </filter>
    </defs>
</svg>
