<?xml version="1.0" encoding="UTF-8" standalone="no"?>
<!DOCTYPE svg PUBLIC "-//W3C//DTD SVG 1.1//EN" "http://www.w3.org/Graphics/SVG/1.1/DTD/svg11.dtd">
<svg width="100%" height="100%" viewBox="0 0 379 379" version="1.1" xmlns="http://www.w3.org/2000/svg" xmlns:xlink="http://www.w3.org/1999/xlink" xml:space="preserve" xmlns:serif="http://www.serif.com/" style="fill-rule:evenodd;clip-rule:evenodd;stroke-linejoin:round;stroke-miterlimit:0.73;">
    <g id="icon">
        <g>
            <path d="M378.185,132.516L378.185,245.902C378.185,318.911 318.911,378.185 245.902,378.185L132.516,378.185C59.507,378.185 0.232,318.911 0.232,245.902L0.232,132.516C0.232,59.507 59.507,0.232 132.516,0.232L245.902,0.232C318.911,0.232 378.185,59.507 378.185,132.516Z" style="fill:white;stroke:white;stroke-width:0.46px;"/>
        </g>
        <g>
            <path d="M306.446,108.884L306.446,269.534C306.446,301.42 280.558,327.308 248.672,327.308L133.123,327.308C101.237,327.308 75.349,301.42 75.349,269.534L75.349,108.884C75.349,76.997 101.237,51.109 133.123,51.109L248.672,51.109C280.558,51.109 306.446,76.997 306.446,108.884Z" style="fill:rgb(1,55,125);"/>
            <path d="M63.321,96.857L63.321,148.601L108.614,122.701C113.217,130.574 115.64,139.507 115.64,148.601C115.64,177.159 92.197,200.345 63.321,200.345C34.446,200.345 11.003,177.159 11.003,148.601C11.003,120.024 34.427,96.857 63.321,96.857Z" style="fill:rgb(124,210,76);"/>
            <path d="M231.023,244.5L231.023,296.217C231.023,299.57 228.3,302.292 224.947,302.292L212.797,302.292C209.444,302.292 206.721,299.57 206.721,296.217L206.721,244.5C206.721,241.147 209.444,238.425 212.797,238.425L224.947,238.425C228.3,238.425 231.023,241.147 231.023,244.5Z" style="fill:rgb(124,210,76);"/>
            <path d="M270.921,214.282L270.921,296.217C270.921,299.57 268.199,302.292 264.846,302.292L252.695,302.292C249.342,302.292 246.62,299.57 246.62,296.217L246.62,214.282C246.62,210.929 249.342,208.207 252.695,208.207L264.846,208.207C268.199,208.207 270.921,210.929 270.921,214.282Z" style="fill:rgb(124,210,76);"/>
            <path d="M312.263,252.856L312.263,296.217C312.263,299.57 309.54,302.292 306.187,302.292L294.037,302.292C290.684,302.292 287.961,299.57 287.961,296.217L287.961,252.856C287.961,249.503 290.684,246.781 294.037,246.781L306.187,246.781C309.54,246.781 312.263,249.503 312.263,252.856Z" style="fill:rgb(124,210,76);"/>
            <path d="M351.352,230.177L351.352,296.217C351.352,299.57 348.63,302.292 345.277,302.292L333.126,302.292C329.773,302.292 327.051,299.57 327.051,296.217L327.051,230.177C327.051,226.823 329.773,224.101 333.126,224.101L345.277,224.101C348.63,224.101 351.352,226.823 351.352,230.177Z" style="fill:rgb(124,210,76);"/>
            <g>
                <path d="M265.104,101.077C265.104,105.877 261.207,109.774 256.407,109.774L130.763,109.774C125.962,109.774 122.065,105.877 122.065,101.077C122.065,96.277 125.962,92.38 130.763,92.38L256.407,92.38C261.207,92.38 265.104,96.277 265.104,101.077Z" style="fill:white;"/>
                <path d="M265.104,136.33C265.104,141.13 261.207,145.027 256.407,145.027L151.643,145.027C146.843,145.027 142.946,141.13 142.946,136.33C142.946,131.53 146.843,127.632 151.643,127.632L256.407,127.632C261.207,127.632 265.104,131.53 265.104,136.33Z" style="fill:white;"/>
                <path d="M265.104,171.582C265.104,176.383 261.207,180.28 256.407,180.28L143.75,180.28C138.95,180.28 135.052,176.383 135.052,171.582C135.052,166.782 138.95,162.885 143.75,162.885L256.407,162.885C261.207,162.885 265.104,166.782 265.104,171.582Z" style="fill:white;"/>
                <path d="M225.206,206.835C225.206,211.635 221.309,215.533 216.508,215.533L126.198,215.533C121.398,215.533 117.501,211.635 117.501,206.835C117.501,202.035 121.398,198.138 126.198,198.138L216.508,198.138C221.309,198.138 225.206,202.035 225.206,206.835Z" style="fill:white;"/>
                <path d="M183.787,242.088C183.787,246.888 179.89,250.785 175.09,250.785L126.198,250.785C121.398,250.785 117.501,246.888 117.501,242.088C117.501,237.288 121.398,233.391 126.198,233.391L175.09,233.391C179.89,233.391 183.787,237.288 183.787,242.088Z" style="fill:white;"/>
                <path d="M183.787,277.341C183.787,282.141 179.89,286.038 175.09,286.038L125.388,286.038C120.588,286.038 116.691,282.141 116.691,277.341C116.691,272.54 120.588,268.643 125.388,268.643L175.09,268.643C179.89,268.643 183.787,272.54 183.787,277.341Z" style="fill:white;"/>
            </g>
        </g>
    </g>
</svg>
