<?xml version="1.0" encoding="UTF-8" standalone="no"?>
<!DOCTYPE svg PUBLIC "-//W3C//DTD SVG 1.1//EN" "http://www.w3.org/Graphics/SVG/1.1/DTD/svg11.dtd">
<svg width="100%" height="100%" viewBox="0 0 494 494" version="1.1" xmlns="http://www.w3.org/2000/svg" xmlns:xlink="http://www.w3.org/1999/xlink" xml:space="preserve" xmlns:serif="http://www.serif.com/" style="fill-rule:evenodd;clip-rule:evenodd;stroke-linejoin:round;stroke-miterlimit:0.73;">
    <g>
        <g>
            <g style="filter:url(#_Effect1);">
                <path d="M435.953,152.488L435.953,341.465C435.953,393.614 393.614,435.953 341.465,435.953L152.488,435.953C100.339,435.953 58,393.614 58,341.465L58,152.488C58,100.339 100.339,58 152.488,58L341.465,58C393.614,58 435.953,100.339 435.953,152.488Z" style="fill:none;stroke:#01377d;stroke-opacity:0.2;stroke-width:20px;"/>
            </g>
            <path d="M435.953,152.488L435.953,341.465C435.953,393.614 393.614,435.953 341.465,435.953L152.488,435.953C100.339,435.953 58,393.614 58,341.465L58,152.488C58,100.339 100.339,58 152.488,58L341.465,58C393.614,58 435.953,100.339 435.953,152.488Z" style="fill:#fff;stroke:#fff;stroke-width:0.46px;"/>
        </g>
        <g>
            <circle cx="240.594" cy="246.976" r="84.625" style="fill:#01377d;"/>
            <path d="M267.005,262.34C267.005,265.902 266.097,269.242 264.282,272.359C262.466,275.477 259.794,278.046 256.266,280.067C252.738,282.088 248.576,283.27 243.78,283.612L243.78,291.936L237.203,291.936L237.203,283.51C230.352,282.893 224.837,280.821 220.658,277.292C216.479,273.764 214.32,268.985 214.183,262.956L229.598,262.956C230.009,267.889 232.544,270.869 237.203,271.897L237.203,252.269C232.27,251.036 228.297,249.802 225.282,248.569C222.268,247.336 219.664,245.349 217.472,242.609C215.28,239.868 214.183,236.135 214.183,231.407C214.183,225.447 216.324,220.583 220.606,216.815C224.888,213.047 230.42,210.889 237.203,210.34L237.203,202.016L243.78,202.016L243.78,210.34C250.357,210.889 255.615,212.875 259.554,216.301C263.494,219.726 265.703,224.454 266.183,230.483L250.665,230.483C250.46,228.496 249.757,226.766 248.559,225.293C247.36,223.82 245.767,222.775 243.78,222.158L243.78,241.581C248.918,242.883 252.977,244.133 255.958,245.332C258.938,246.531 261.524,248.484 263.716,251.19C265.909,253.896 267.005,257.613 267.005,262.34ZM229.187,230.688C229.187,232.949 229.872,234.782 231.243,236.186C232.613,237.59 234.6,238.738 237.203,239.629L237.203,221.85C234.737,222.193 232.784,223.118 231.345,224.625C229.907,226.132 229.187,228.153 229.187,230.688ZM243.78,272.103C246.383,271.623 248.421,270.561 249.894,268.917C251.367,267.273 252.104,265.286 252.104,262.956C252.104,260.696 251.385,258.88 249.946,257.51C248.507,256.14 246.452,255.009 243.78,254.119L243.78,272.103Z" style="fill:#fff;fill-rule:nonzero;"/>
            <path d="M174.82,359.448C174.82,359.448 175.218,358.769 175.868,357.656C181.712,347.665 193.847,343.258 204.74,347.172C216.199,351.274 228.325,353.395 240.594,353.395C299.328,353.395 347.013,305.71 347.013,246.976C347.013,188.242 299.328,140.558 240.594,140.558C221.713,140.558 203.171,145.581 186.872,155.113L174.82,134.504C194.776,122.834 217.477,116.684 240.594,116.684C312.505,116.684 370.887,175.066 370.887,246.976C370.887,318.887 312.505,377.269 240.594,377.269C217.477,377.269 194.776,371.118 174.82,359.448Z" style="fill:#01377d;"/>
            <path d="M150.614,166.496C149.248,166.511 147.981,165.789 147.299,164.607C146.616,163.424 146.624,161.966 147.32,160.791C152.151,152.634 160.91,137.845 165.67,129.809C166.354,128.654 167.6,127.948 168.943,127.956C170.285,127.963 171.523,128.682 172.195,129.845C176.809,137.838 185.237,152.435 189.851,160.427C190.522,161.59 190.526,163.022 189.861,164.188C189.196,165.355 187.962,166.081 186.62,166.096C177.28,166.2 160.094,166.391 150.614,166.496Z" style="fill:#7cd24c;"/>
        </g>
    </g>
    <defs>
        <filter id="_Effect1" filterUnits="userSpaceOnUse" x="-48" y="-48" width="589.953" height="589.953">
            <feGaussianBlur in="SourceGraphic" stdDeviation="16"/>
        </filter>
    </defs>
</svg>
