<?xml version="1.0" encoding="UTF-8" standalone="no"?>
<!DOCTYPE svg PUBLIC "-//W3C//DTD SVG 1.1//EN" "http://www.w3.org/Graphics/SVG/1.1/DTD/svg11.dtd">
<svg width="100%" height="100%" viewBox="0 0 379 379" version="1.1" xmlns="http://www.w3.org/2000/svg" xmlns:xlink="http://www.w3.org/1999/xlink" xml:space="preserve" xmlns:serif="http://www.serif.com/" style="fill-rule:evenodd;clip-rule:evenodd;stroke-linejoin:round;stroke-miterlimit:0.73;">
    <g id="icon">
        <g>
            <path d="M378.185,132.474L378.185,245.824C378.185,318.81 318.93,378.065 245.944,378.065L132.474,378.065C59.488,378.065 0.232,318.81 0.232,245.824L0.232,132.474C0.232,59.488 59.488,0.232 132.474,0.232L245.944,0.232C318.93,0.232 378.185,59.488 378.185,132.474Z" style="fill:white;stroke:white;stroke-width:0.46px;"/>
        </g>
        <g>
            <path d="M312.663,103.833L312.663,268.017C312.663,299.39 287.192,324.86 255.82,324.86L142.136,324.86C110.764,324.86 85.294,299.39 85.294,268.017L85.294,103.833C85.294,72.461 110.764,46.991 142.136,46.991L255.82,46.991C287.192,46.991 312.663,72.461 312.663,103.833Z" style="fill:rgb(123,210,75);"/>
            <path d="M293.284,117.875L293.284,276.431C293.284,306.904 268.544,331.644 238.071,331.644L127.646,331.644C97.173,331.644 72.433,306.904 72.433,276.431L72.433,117.875C72.433,87.402 97.173,62.662 127.646,62.662L238.071,62.662C268.544,62.662 293.284,87.402 293.284,117.875Z" style="fill:none;stroke:white;stroke-width:17.79px;stroke-linecap:round;stroke-miterlimit:0.348837;"/>
            <path d="M293.284,117.875L293.284,276.431C293.284,306.904 268.544,331.644 238.071,331.644L127.646,331.644C97.173,331.644 72.433,306.904 72.433,276.431L72.433,117.875C72.433,87.402 97.173,62.662 127.646,62.662L238.071,62.662C268.544,62.662 293.284,87.402 293.284,117.875Z" style="fill:rgb(1,55,125);"/>
            <path d="M235.382,211.127C235.382,214.935 232.291,218.026 228.483,218.026L137.234,218.026C133.426,218.026 130.335,214.935 130.335,211.127C130.335,207.319 133.426,204.228 137.234,204.228L228.483,204.228C232.291,204.228 235.382,207.319 235.382,211.127Z" style="fill:white;"/>
            <path d="M235.382,241.923C235.382,245.73 232.291,248.822 228.483,248.822L137.234,248.822C133.426,248.822 130.335,245.73 130.335,241.923C130.335,238.115 133.426,235.024 137.234,235.024L228.483,235.024C232.291,235.024 235.382,238.115 235.382,241.923Z" style="fill:white;"/>
            <path d="M234.787,279.576C234.787,283.384 231.696,286.475 227.888,286.475L136.639,286.475C132.831,286.475 129.74,283.384 129.74,279.576C129.74,275.768 132.831,272.677 136.639,272.677L227.888,272.677C231.696,272.677 234.787,275.768 234.787,279.576Z" style="fill:white;"/>
            <path d="M94.701,136.802C94.701,143.664 89.129,149.236 82.266,149.236L62.599,149.236C55.736,149.236 50.165,143.664 50.165,136.802C50.165,129.939 55.736,124.367 62.599,124.367L82.266,124.367C89.129,124.367 94.701,129.939 94.701,136.802Z" style="fill:none;stroke:white;stroke-width:12.41px;stroke-linecap:round;stroke-miterlimit:0.348837;"/>
            <path d="M94.701,136.802C94.701,143.664 89.129,149.236 82.266,149.236L62.599,149.236C55.736,149.236 50.165,143.664 50.165,136.802C50.165,129.939 55.736,124.367 62.599,124.367L82.266,124.367C89.129,124.367 94.701,129.939 94.701,136.802Z" style="fill:rgb(124,210,76);"/>
            <path d="M94.701,195.972C94.701,202.834 89.129,208.406 82.266,208.406L62.599,208.406C55.736,208.406 50.165,202.834 50.165,195.972C50.165,189.109 55.736,183.537 62.599,183.537L82.266,183.537C89.129,183.537 94.701,189.109 94.701,195.972Z" style="fill:none;stroke:white;stroke-width:12.41px;stroke-linecap:round;stroke-miterlimit:0.348837;"/>
            <path d="M94.701,195.972C94.701,202.834 89.129,208.406 82.266,208.406L62.599,208.406C55.736,208.406 50.165,202.834 50.165,195.972C50.165,189.109 55.736,183.537 62.599,183.537L82.266,183.537C89.129,183.537 94.701,189.109 94.701,195.972Z" style="fill:rgb(124,210,76);"/>
            <path d="M94.701,257.504C94.701,264.367 89.129,269.939 82.266,269.939L62.599,269.939C55.736,269.939 50.165,264.367 50.165,257.504C50.165,250.641 55.736,245.07 62.599,245.07L82.266,245.07C89.129,245.07 94.701,250.641 94.701,257.504Z" style="fill:none;stroke:white;stroke-width:12.41px;stroke-linecap:round;stroke-miterlimit:0.348837;"/>
            <path d="M94.701,257.504C94.701,264.367 89.129,269.939 82.266,269.939L62.599,269.939C55.736,269.939 50.165,264.367 50.165,257.504C50.165,250.641 55.736,245.07 62.599,245.07L82.266,245.07C89.129,245.07 94.701,250.641 94.701,257.504Z" style="fill:rgb(124,210,76);"/>
            <path d="M202.681,156.928C202.681,159.572 202,162.052 200.637,164.366C199.275,166.679 197.269,168.587 194.621,170.087C191.973,171.587 188.849,172.464 185.25,172.719L185.25,178.897L180.313,178.897L180.313,172.642C175.171,172.185 171.032,170.646 167.895,168.027C164.759,165.408 163.139,161.861 163.036,157.386L174.606,157.386C174.914,161.047 176.817,163.259 180.313,164.022L180.313,149.452C176.611,148.537 173.629,147.622 171.366,146.706C169.104,145.791 167.15,144.316 165.504,142.282C163.859,140.248 163.036,137.476 163.036,133.967C163.036,129.542 164.643,125.932 167.857,123.135C171.07,120.338 175.223,118.736 180.313,118.329L180.313,112.15L185.25,112.15L185.25,118.329C190.186,118.736 194.132,120.211 197.089,122.753C200.046,125.296 201.704,128.805 202.064,133.28L190.417,133.28C190.263,131.806 189.736,130.521 188.836,129.428C187.936,128.335 186.741,127.559 185.25,127.101L185.25,141.519C189.106,142.485 192.153,143.413 194.39,144.303C196.626,145.193 198.567,146.643 200.213,148.651C201.858,150.66 202.681,153.419 202.681,156.928ZM174.297,133.433C174.297,135.111 174.811,136.472 175.84,137.514C176.868,138.557 178.359,139.408 180.313,140.07L180.313,126.873C178.462,127.127 176.997,127.813 175.917,128.932C174.837,130.051 174.297,131.551 174.297,133.433ZM185.25,164.175C187.204,163.819 188.733,163.031 189.839,161.81C190.944,160.59 191.497,159.115 191.497,157.386C191.497,155.707 190.957,154.36 189.877,153.343C188.798,152.326 187.255,151.487 185.25,150.825L185.25,164.175Z" style="fill:white;fill-rule:nonzero;"/>
        </g>
    </g>
</svg>
