<?xml version="1.0" encoding="UTF-8" standalone="no"?>
<!DOCTYPE svg PUBLIC "-//W3C//DTD SVG 1.1//EN" "http://www.w3.org/Graphics/SVG/1.1/DTD/svg11.dtd">
<svg width="100%" height="100%" viewBox="0 0 125 125" version="1.1" xmlns="http://www.w3.org/2000/svg" xmlns:xlink="http://www.w3.org/1999/xlink" xml:space="preserve" xmlns:serif="http://www.serif.com/" style="fill-rule:evenodd;clip-rule:evenodd;stroke-linejoin:round;stroke-miterlimit:2;">
    <g transform="matrix(0.446678,0,0,0.446678,-3.81892,16.0569)">
        <g id="Dext">
            <g>
                <g>
                    <path d="M194.3,108L204.2,73.4C204.4,72.6 203.6,71.8 202.5,71.8L184.7,71.8L180.5,99L176.2,71.8L158.3,71.8C157.2,71.8 156.4,72.6 156.6,73.4L166.5,108L156.1,146.3C155.9,147.1 156.7,147.9 157.8,147.9L175.8,147.9L180.4,119.2L185,147.9L203,147.9C204.1,147.9 204.9,147.1 204.7,146.3L194.3,108Z" style="fill:rgb(252,76,2);fill-rule:nonzero;"/>
                    <path d="M84.5,74.8C84.5,72.8 83.4,71.7 81.1,71.7L78.4,71.7L78.4,135.4L81,135.4C83.3,135.4 84.5,134.4 84.5,132.3L84.5,74.8ZM82.9,59.4C96.3,59.4 104.2,64.9 104.2,75.7L104.2,131.8C104.2,137.1 102.3,141 98.5,143.8C94.7,146.6 89.5,147.9 82.9,147.9L60.7,147.9C59.9,148 59.1,147.4 59,146.6L59,60.7C59.1,59.9 59.9,59.3 60.7,59.4L82.9,59.4Z" style="fill:rgb(252,76,2);fill-rule:nonzero;"/>
                    <path d="M129.1,84.8L129.1,98.4L134.9,98.4L134.9,84.8C134.9,82.8 134,81.7 132.2,81.7C130.1,81.8 129.1,82.8 129.1,84.8ZM153.2,87.2L153.2,106.7C153.1,107.5 152.3,108.1 151.5,108L129.1,108L129.1,134.5C129.1,136.5 130.2,137.6 132.3,137.6C133.6,137.8 134.8,136.9 135,135.6L135,112.6L151.5,112.6C152.3,112.5 153.1,113.1 153.2,113.9L153.2,134.8C153.3,138.9 151.2,142.8 147.7,145C144,147.5 138.9,148.7 132.3,148.7C118.1,148.7 110.3,143 110.3,132.6L110.3,89.3C110.3,76.9 117.6,71.1 132.2,71.1C146.2,71.1 153.2,76.4 153.2,87.2Z" style="fill:rgb(252,76,2);fill-rule:nonzero;"/>
                    <path d="M236.3,71.8L228.1,71.8L228.1,60.7C228,59.9 227.2,59.3 226.4,59.4L212.3,59.4L208.8,71.6L208.8,133.9C208.7,138 210.8,141.9 214.3,144.1C217.8,146.5 222.6,147.7 228.8,147.8L236.4,147.8C237.2,147.9 238,147.3 238.1,146.5L238.1,135.4L231.7,135.4C229.4,135.4 228.2,134.4 228.2,132.3L228.2,84.1L238.1,84.1L238.1,73.1C237.9,72.2 237.1,71.6 236.3,71.8Z" style="fill:rgb(252,76,2);fill-rule:nonzero;"/>
                </g>
            </g>
        </g>
    </g>
</svg>
