<?xml version="1.0" encoding="UTF-8" standalone="no"?><!DOCTYPE svg PUBLIC "-//W3C//DTD SVG 1.1//EN" "http://www.w3.org/Graphics/SVG/1.1/DTD/svg11.dtd"><svg width="100%" height="100%" viewBox="0 0 521 521" version="1.1" xmlns="http://www.w3.org/2000/svg" xmlns:xlink="http://www.w3.org/1999/xlink" xml:space="preserve" xmlns:serif="http://www.serif.com/" style="fill-rule:evenodd;clip-rule:evenodd;stroke-linejoin:round;stroke-miterlimit:2;"><g><path d="M60.417,228.411l-30.208,19.271l30.208,19.271l-30.208,19.271l-30.208,-19.375l30.208,-19.271l-30.208,-19.167l30.208,-19.271l30.208,19.271Zm-30.365,64.01l30.208,-19.271l30.208,19.271l-30.208,19.271l-30.208,-19.271Zm30.365,-25.573l30.208,-19.271l-30.208,-19.167l30.052,-19.271l30.208,19.271l-30.208,19.271l30.208,19.271l-30.208,19.271l-30.052,-19.375Z" style="fill:#0061ff;fill-rule:nonzero;"/><path d="M144.375,228.411l24.427,0c15.573,0 28.438,9.01 28.438,29.583l0,4.323c0,20.729 -12.031,30.052 -27.969,30.052l-24.896,0l0,-63.958Zm13.646,11.615l0,40.677l10.469,0c8.854,0 14.792,-5.781 14.792,-18.646l0,-3.385c0,-12.865 -6.25,-18.646 -15.26,-18.646l-10,0Zm46.458,0.625l10.938,0l1.771,12.031c2.083,-8.177 7.396,-12.552 17.031,-12.552l3.385,0l0,13.802l-5.625,0c-11.094,0 -13.802,3.854 -13.802,14.792l0,23.802l-13.49,0l0,-51.875l-0.208,0Zm35.833,26.979l0,-1.458c0,-17.344 11.094,-26.823 26.198,-26.823c15.417,0 26.198,9.479 26.198,26.823l0,1.458c0,17.031 -10.469,26.198 -26.198,26.198c-16.719,-0.156 -26.198,-9.115 -26.198,-26.198Zm38.594,-0.156l0,-1.302c0,-9.635 -4.844,-15.417 -12.552,-15.417c-7.552,0 -12.552,5.313 -12.552,15.417l0,1.302c0,9.323 4.844,14.635 12.552,14.635c7.708,-0.156 12.552,-5.312 12.552,-14.635Zm20.885,-26.823l11.25,0l1.302,9.792c2.708,-6.562 8.49,-11.094 17.031,-11.094c13.177,0 21.875,9.479 21.875,27.031l0,1.458c0,17.031 -9.635,26.042 -21.875,26.042c-8.177,0 -13.802,-3.698 -16.562,-9.635l0,26.198l-13.177,0l0.156,-69.792Zm37.76,26.823l0,-1.146c0,-10.312 -5.312,-15.417 -12.396,-15.417c-7.552,0 -12.552,5.781 -12.552,15.417l0,0.99c0,9.167 4.844,14.948 12.396,14.948c7.76,-0.156 12.552,-5.104 12.552,-14.792Zm33.646,15.469l-1.146,9.479l-11.563,0l0,-69.115l13.177,0l0,26.51c2.917,-6.771 8.698,-10.469 16.875,-10.469c12.396,0.156 21.562,8.698 21.562,25.885l0,1.615c0,17.188 -8.698,27.031 -21.875,27.031c-8.698,-0.208 -14.323,-4.219 -17.031,-10.938Zm25.052,-16.094l0,-1.302c0,-9.479 -5.156,-14.792 -12.396,-14.792c-7.396,0 -12.552,5.938 -12.552,14.948l0,1.146c0,9.635 5,15.26 12.396,15.26c7.917,0 12.552,-4.948 12.552,-15.26Zm19.635,0.781l0,-1.458c0,-17.344 11.094,-26.823 26.198,-26.823c15.417,0 26.198,9.479 26.198,26.823l0,1.458c0,17.031 -10.625,26.198 -26.198,26.198c-16.719,-0.156 -26.198,-9.115 -26.198,-26.198Zm38.698,-0.156l0,-1.302c0,-9.635 -4.844,-15.417 -12.552,-15.417c-7.552,0 -12.552,5.313 -12.552,15.417l0,1.302c0,9.323 4.844,14.635 12.552,14.635c7.76,-0.156 12.552,-5.312 12.552,-14.635Zm31.354,-1.927l-18.177,-24.896l15.573,0l10.469,15.573l10.625,-15.573l15.417,0l-18.437,24.74l19.427,27.031l-15.26,0l-11.875,-17.188l-11.562,17.188l-15.938,0l19.74,-26.875Z" style="fill-rule:nonzero;"/></g></svg>