<?xml version="1.0" encoding="UTF-8" standalone="no"?>
<!DOCTYPE svg PUBLIC "-//W3C//DTD SVG 1.1//EN" "http://www.w3.org/Graphics/SVG/1.1/DTD/svg11.dtd">
<svg width="100%" height="100%" viewBox="0 0 152 113" version="1.1" xmlns="http://www.w3.org/2000/svg" xmlns:xlink="http://www.w3.org/1999/xlink" xml:space="preserve" xmlns:serif="http://www.serif.com/" style="fill-rule:evenodd;clip-rule:evenodd;stroke-linejoin:round;stroke-miterlimit:2;">
    <g transform="matrix(1,0,0,1,-21577.2,-54048.4)">
        <g transform="matrix(10.4828,0,0,11.9097,0,37536.8)">
            <g transform="matrix(0.928114,0,0,1,136.679,3.7742)">
                <g transform="matrix(0.070163,1.46238e-18,-1.66144e-18,-0.0498154,558.406,3905.25)">
                    <path d="M21658.7,50455.2C21659.5,50454 21660.8,50453.3 21662.1,50453.3C21663.5,50453.3 21664.7,50454 21665.6,50455.2C21678.4,50474.7 21724.4,50544.3 21751.9,50585.8C21755.8,50591.8 21756.5,50599.9 21753.6,50606.7C21750.7,50613.5 21744.7,50617.8 21738.1,50617.8C21696.6,50617.8 21627.7,50617.8 21586.1,50617.8C21579.6,50617.8 21573.5,50613.5 21570.6,50606.7C21567.7,50599.9 21568.4,50591.8 21572.4,50585.8C21599.8,50544.3 21645.8,50474.7 21658.7,50455.2Z" style="fill:rgb(127,211,73);"/>
                </g>
                <g transform="matrix(0.062641,1.19661e-18,-1.33684e-18,-0.045452,721.347,3683.89)">
                    <path d="M21658.2,50455.9C21659.1,50454.5 21660.6,50453.7 21662.1,50453.7C21663.6,50453.7 21665.1,50454.5 21666,50455.9C21679.1,50475.8 21722.6,50541.6 21750,50582.9C21754.3,50589.6 21755,50598.4 21751.7,50605.8C21748.4,50613.1 21741.7,50617.8 21734.4,50617.8C21693.8,50617.8 21630.4,50617.8 21589.8,50617.8C21582.5,50617.8 21575.8,50613.1 21572.5,50605.8C21569.2,50598.4 21569.9,50589.6 21574.3,50582.9C21601.6,50541.6 21645.1,50475.8 21658.2,50455.9Z" style="fill:white;"/>
                </g>
                <g transform="matrix(0.0542095,8.14202e-19,-8.59447e-19,-0.0413184,903.991,3474.06)">
                    <path d="M21657.5,50456.9C21658.6,50455.3 21660.3,50454.4 21662.1,50454.4C21663.9,50454.4 21665.6,50455.3 21666.7,50456.9C21680.2,50477.5 21721,50539.2 21748,50579.9C21752.8,50587.2 21753.4,50596.8 21749.6,50604.8C21745.7,50612.8 21738.1,50617.8 21729.7,50617.8L21594.5,50617.8C21586.2,50617.8 21578.5,50612.8 21574.7,50604.8C21570.8,50596.8 21571.4,50587.2 21576.3,50579.9C21603.2,50539.2 21644,50477.5 21657.5,50456.9Z" style="fill:rgb(0,47,112);"/>
                </g>
            </g>
        </g>
    </g>
</svg>
