<?xml version="1.0" encoding="UTF-8" standalone="no"?><!DOCTYPE svg PUBLIC "-//W3C//DTD SVG 1.1//EN" "http://www.w3.org/Graphics/SVG/1.1/DTD/svg11.dtd"><svg width="100%" height="100%" viewBox="0 0 175 125" version="1.1" xmlns="http://www.w3.org/2000/svg" xmlns:xlink="http://www.w3.org/1999/xlink" xml:space="preserve" xmlns:serif="http://www.serif.com/" style="fill-rule:evenodd;clip-rule:evenodd;stroke-linejoin:round;stroke-miterlimit:2;"><g><path d="M20.294,51.722l-10.147,6.473l10.147,6.473l-10.147,6.473l-10.147,-6.508l10.147,-6.473l-10.147,-6.438l10.147,-6.473l10.147,6.473Zm-10.199,21.5l10.147,-6.473l10.147,6.473l-10.147,6.473l-10.147,-6.473Zm10.199,-8.59l10.147,-6.473l-10.147,-6.438l10.094,-6.473l10.147,6.473l-10.147,6.473l10.147,6.473l-10.147,6.473l-10.094,-6.508Z" style="fill:#0061ff;fill-rule:nonzero;"/><path d="M48.494,51.722l8.205,0c5.231,0 9.552,3.026 9.552,9.937l0,1.452c0,6.963 -4.041,10.094 -9.395,10.094l-8.362,0l0,-21.483Zm4.584,3.901l0,13.663l3.516,0c2.974,0 4.969,-1.942 4.969,-6.263l0,-1.137c0,-4.321 -2.099,-6.263 -5.126,-6.263l-3.359,0Zm15.605,0.21l3.674,0l0.595,4.041c0.7,-2.747 2.484,-4.216 5.721,-4.216l1.137,0l0,4.636l-1.889,0c-3.726,0 -4.636,1.295 -4.636,4.969l0,7.995l-4.531,0l0,-17.424l-0.07,0Zm12.036,9.062l0,-0.49c0,-5.826 3.726,-9.01 8.8,-9.01c5.178,0 8.8,3.184 8.8,9.01l0,0.49c0,5.721 -3.516,8.8 -8.8,8.8c-5.616,-0.052 -8.8,-3.062 -8.8,-8.8Zm12.963,-0.052l0,-0.437c0,-3.236 -1.627,-5.178 -4.216,-5.178c-2.537,0 -4.216,1.785 -4.216,5.178l0,0.437c0,3.132 1.627,4.916 4.216,4.916c2.589,-0.052 4.216,-1.784 4.216,-4.916Zm7.015,-9.01l3.779,0l0.437,3.289c0.91,-2.204 2.852,-3.726 5.721,-3.726c4.426,0 7.348,3.184 7.348,9.08l0,0.49c0,5.721 -3.236,8.747 -7.348,8.747c-2.747,0 -4.636,-1.242 -5.563,-3.236l0,8.8l-4.426,0l0.052,-23.443Zm12.683,9.01l0,-0.385c0,-3.464 -1.784,-5.178 -4.164,-5.178c-2.537,0 -4.216,1.942 -4.216,5.178l0,0.333c0,3.079 1.627,5.021 4.164,5.021c2.607,-0.052 4.216,-1.714 4.216,-4.969Zm11.301,5.196l-0.385,3.184l-3.884,0l0,-23.215l4.426,0l0,8.905c0.98,-2.274 2.922,-3.516 5.668,-3.516c4.164,0.052 7.243,2.922 7.243,8.695l0,0.542c0,5.773 -2.922,9.08 -7.348,9.08c-2.922,-0.07 -4.811,-1.417 -5.721,-3.674l0,0.001Zm8.415,-5.406l0,-0.437c0,-3.184 -1.732,-4.969 -4.164,-4.969c-2.484,0 -4.216,1.995 -4.216,5.021l0,0.385c0,3.236 1.679,5.126 4.164,5.126c2.659,0 4.216,-1.662 4.216,-5.126Zm6.595,0.262l0,-0.49c0,-5.826 3.726,-9.01 8.8,-9.01c5.178,0 8.8,3.184 8.8,9.01l0,0.49c0,5.721 -3.569,8.8 -8.8,8.8c-5.616,-0.052 -8.8,-3.062 -8.8,-8.8Zm12.998,-0.052l0,-0.437c0,-3.236 -1.627,-5.178 -4.216,-5.178c-2.537,0 -4.216,1.785 -4.216,5.178l0,0.437c0,3.132 1.627,4.916 4.216,4.916c2.607,-0.052 4.216,-1.784 4.216,-4.916Zm10.532,-0.647l-6.106,-8.362l5.231,0l3.516,5.231l3.569,-5.231l5.178,0l-6.193,8.31l6.525,9.08l-5.126,0l-3.989,-5.773l-3.884,5.773l-5.353,0l6.631,-9.027l-0.001,0Z" style="fill-rule:nonzero;"/></g></svg>