<?xml version="1.0" encoding="UTF-8" standalone="no"?>
<!DOCTYPE svg PUBLIC "-//W3C//DTD SVG 1.1//EN" "http://www.w3.org/Graphics/SVG/1.1/DTD/svg11.dtd">
<svg width="100%" height="100%" viewBox="0 0 1370 1370" version="1.1" xmlns="http://www.w3.org/2000/svg" xmlns:xlink="http://www.w3.org/1999/xlink" xml:space="preserve" xmlns:serif="http://www.serif.com/" style="fill-rule:evenodd;clip-rule:evenodd;stroke-linejoin:round;stroke-miterlimit:0.73;">
    <g>
        <g>
            <g>
                <g style="filter:url(#_Effect1);">
                    <path d="M873.482,117.576L873.482,306.574C873.482,358.723 831.143,401.062 778.994,401.062L590.017,401.062C537.868,401.062 495.529,358.723 495.529,306.574L495.529,117.576C495.529,65.427 537.868,23.088 590.017,23.088L778.994,23.088C831.143,23.088 873.482,65.427 873.482,117.576Z" style="fill:none;stroke:#01377d;stroke-opacity:0.1;stroke-width:12.7px;"/>
                </g>
                <path d="M873.482,117.576L873.482,306.574C873.482,358.723 831.143,401.062 778.994,401.062L590.017,401.062C537.868,401.062 495.529,358.723 495.529,306.574L495.529,117.576C495.529,65.427 537.868,23.088 590.017,23.088L778.994,23.088C831.143,23.088 873.482,65.427 873.482,117.576Z" style="fill:#fff;fill-opacity:0.7;stroke:#fff;stroke-opacity:0.7;stroke-width:0.46px;"/>
            </g>
            <g>
                <path d="M759.131,209.737L759.131,267.706C759.131,283.703 746.144,296.691 730.147,296.691L642.252,296.691C626.255,296.691 613.267,283.703 613.267,267.706L613.267,209.737C613.267,193.74 626.255,180.752 642.252,180.752L730.147,180.752C746.144,180.752 759.131,193.74 759.131,209.737Z" style="fill:#7cd24c;"/>
                <path d="M615.596,93.812L753.415,93.812C777.401,93.812 796.874,113.285 796.874,137.271L796.874,224.19C796.874,248.176 777.401,267.649 753.415,267.649L615.596,267.649C591.61,267.649 572.137,248.176 572.137,224.19L572.137,137.271C572.137,113.285 591.61,93.812 615.596,93.812Z" style="fill:#01377d;"/>
                <clipPath id="_clip2">
                    <path d="M615.596,93.812L753.415,93.812C777.401,93.812 796.874,113.285 796.874,137.271L796.874,224.19C796.874,248.176 777.401,267.649 753.415,267.649L615.596,267.649C591.61,267.649 572.137,248.176 572.137,224.19L572.137,137.271C572.137,113.285 591.61,93.812 615.596,93.812Z"/>
                </clipPath>
                <g clip-path="url(#_clip2)">
                    <g>
                        <g style="filter:url(#_Effect3);">
                            <path d="M759.131,209.737L759.131,267.706C759.131,283.703 746.144,296.691 730.147,296.691L642.252,296.691C626.255,296.691 613.267,283.703 613.267,267.706L613.267,209.737C613.267,193.74 626.255,180.752 642.252,180.752L730.147,180.752C746.144,180.752 759.131,193.74 759.131,209.737Z" style="fill:none;stroke:#fff;stroke-width:6.3px;stroke-linejoin:bevel;stroke-miterlimit:0.348837;"/>
                            <path d="M759.131,209.737L759.131,267.706C759.131,283.703 746.144,296.691 730.147,296.691L642.252,296.691C626.255,296.691 613.267,283.703 613.267,267.706L613.267,209.737C613.267,193.74 626.255,180.752 642.252,180.752L730.147,180.752C746.144,180.752 759.131,193.74 759.131,209.737Z" style="fill:#9dafff;"/>
                        </g>
                    </g>
                </g>
                <ellipse cx="728.31" cy="219.328" rx="8.246" ry="8.257" style="fill:#fff;"/>
            </g>
            <path d="M646.148,347.028C644.524,347.028 643.035,346.65 641.682,345.895C640.329,345.139 639.254,344.083 638.459,342.728C637.663,341.373 637.266,339.85 637.266,338.158C637.266,336.466 637.663,334.946 638.459,333.599C639.254,332.252 640.329,331.201 641.682,330.445C643.035,329.69 644.524,329.312 646.148,329.312C647.772,329.312 649.26,329.69 650.613,330.445C651.967,331.201 653.033,332.252 653.812,333.599C654.591,334.946 654.981,336.466 654.981,338.158C654.981,339.85 654.587,341.373 653.8,342.728C653.012,344.083 651.946,345.139 650.601,345.895C649.256,346.65 647.772,347.028 646.148,347.028ZM646.148,343.184C647.525,343.184 648.629,342.724 649.457,341.804C650.285,340.884 650.699,339.669 650.699,338.158C650.699,336.63 650.285,335.41 649.457,334.499C648.629,333.587 647.525,333.131 646.148,333.131C644.753,333.131 643.642,333.583 642.814,334.486C641.985,335.39 641.571,336.614 641.571,338.158C641.571,339.685 641.985,340.905 642.814,341.817C643.642,342.728 644.753,343.184 646.148,343.184Z" style="fill:#01377d;fill-rule:nonzero;stroke:#01377d;stroke-width:0.32px;stroke-miterlimit:2;"/>
            <path d="M669.743,329.558L669.743,332.934L665.167,332.934L665.167,346.855L660.959,346.855L660.959,332.934L656.383,332.934L656.383,329.558L669.743,329.558Z" style="fill:#01377d;fill-rule:nonzero;stroke:#01377d;stroke-width:0.32px;stroke-miterlimit:2;"/>
            <path d="M686.818,329.558L686.818,346.855L682.611,346.855L682.611,339.735L676.066,339.735L676.066,346.855L671.859,346.855L671.859,329.558L676.066,329.558L676.066,336.334L682.611,336.334L682.611,329.558L686.818,329.558Z" style="fill:#01377d;fill-rule:nonzero;stroke:#01377d;stroke-width:0.32px;stroke-miterlimit:2;"/>
            <path d="M694.052,332.934L694.052,336.433L699.686,336.433L699.686,339.685L694.052,339.685L694.052,343.48L700.424,343.48L700.424,346.855L689.845,346.855L689.845,329.558L700.424,329.558L700.424,332.934L694.052,332.934Z" style="fill:#01377d;fill-rule:nonzero;stroke:#01377d;stroke-width:0.32px;stroke-miterlimit:2;"/>
            <path d="M711.964,346.855L708.372,340.326L707.363,340.326L707.363,346.855L703.156,346.855L703.156,329.558L710.217,329.558C711.578,329.558 712.739,329.797 713.698,330.273C714.658,330.749 715.376,331.402 715.851,332.232C716.327,333.061 716.565,333.985 716.565,335.004C716.565,336.154 716.241,337.18 715.593,338.084C714.945,338.987 713.99,339.628 712.727,340.006L716.712,346.855L711.964,346.855ZM707.363,337.345L709.971,337.345C710.742,337.345 711.32,337.156 711.705,336.778C712.091,336.4 712.284,335.866 712.284,335.176C712.284,334.519 712.091,334.002 711.705,333.624C711.32,333.246 710.742,333.057 709.971,333.057L707.363,333.057L707.363,337.345Z" style="fill:#01377d;fill-rule:nonzero;stroke:#01377d;stroke-width:0.32px;stroke-miterlimit:2;"/>
            <path d="M725.447,347.028C724.184,347.028 723.052,346.823 722.052,346.412C721.051,346.001 720.251,345.394 719.653,344.589C719.054,343.784 718.738,342.815 718.705,341.681L723.183,341.681C723.249,342.322 723.47,342.81 723.848,343.147C724.225,343.484 724.717,343.652 725.324,343.652C725.947,343.652 726.439,343.509 726.8,343.221C727.161,342.934 727.341,342.535 727.341,342.026C727.341,341.599 727.198,341.246 726.911,340.967C726.624,340.687 726.271,340.457 725.853,340.277C725.435,340.096 724.84,339.891 724.069,339.661C722.954,339.316 722.043,338.971 721.338,338.626C720.633,338.281 720.026,337.772 719.517,337.098C719.009,336.425 718.755,335.546 718.755,334.462C718.755,332.852 719.337,331.591 720.501,330.679C721.666,329.768 723.183,329.312 725.053,329.312C726.956,329.312 728.49,329.768 729.654,330.679C730.819,331.591 731.442,332.86 731.524,334.486L726.972,334.486C726.94,333.928 726.735,333.488 726.357,333.168C725.98,332.848 725.496,332.688 724.906,332.688C724.397,332.688 723.987,332.823 723.675,333.094C723.364,333.365 723.208,333.755 723.208,334.265C723.208,334.823 723.47,335.258 723.995,335.57C724.52,335.883 725.34,336.219 726.456,336.581C727.571,336.959 728.477,337.32 729.174,337.665C729.872,338.01 730.474,338.511 730.983,339.168C731.491,339.825 731.746,340.671 731.746,341.706C731.746,342.691 731.495,343.587 730.995,344.391C730.495,345.196 729.769,345.837 728.818,346.313C727.866,346.79 726.743,347.028 725.447,347.028Z" style="fill:#01377d;fill-rule:nonzero;stroke:#01377d;stroke-width:0.32px;stroke-miterlimit:2;"/>
        </g>
        <g>
            <g>
                <g style="filter:url(#_Effect4);">
                    <path d="M401.041,117.576L401.041,306.574C401.041,358.723 358.702,401.062 306.553,401.062L117.576,401.062C65.427,401.062 23.088,358.723 23.088,306.574L23.088,117.576C23.088,65.427 65.427,23.088 117.576,23.088L306.553,23.088C358.702,23.088 401.041,65.427 401.041,117.576Z" style="fill:none;stroke:#01377d;stroke-opacity:0.1;stroke-width:12.7px;"/>
                </g>
                <path d="M401.041,117.576L401.041,306.574C401.041,358.723 358.702,401.062 306.553,401.062L117.576,401.062C65.427,401.062 23.088,358.723 23.088,306.574L23.088,117.576C23.088,65.427 65.427,23.088 117.576,23.088L306.553,23.088C358.702,23.088 401.041,65.427 401.041,117.576Z" style="fill:#fff;fill-opacity:0.7;stroke:#fff;stroke-opacity:0.7;stroke-width:0.46px;"/>
            </g>
            <g>
                <path d="M286.691,209.737L286.691,267.706C286.691,283.703 273.703,296.691 257.706,296.691L169.811,296.691C153.814,296.691 140.826,283.703 140.826,267.706L140.826,209.737C140.826,193.74 153.814,180.752 169.811,180.752L257.706,180.752C273.703,180.752 286.691,193.74 286.691,209.737Z" style="fill:#7cd24c;"/>
                <path d="M143.155,93.812L280.974,93.812C304.96,93.812 324.433,113.285 324.433,137.271L324.433,224.19C324.433,248.176 304.96,267.649 280.974,267.649L143.155,267.649C119.169,267.649 99.696,248.176 99.696,224.19L99.696,137.271C99.696,113.285 119.169,93.812 143.155,93.812Z" style="fill:#01377d;"/>
                <clipPath id="_clip5">
                    <path d="M143.155,93.812L280.974,93.812C304.96,93.812 324.433,113.285 324.433,137.271L324.433,224.19C324.433,248.176 304.96,267.649 280.974,267.649L143.155,267.649C119.169,267.649 99.696,248.176 99.696,224.19L99.696,137.271C99.696,113.285 119.169,93.812 143.155,93.812Z"/>
                </clipPath>
                <g clip-path="url(#_clip5)">
                    <g>
                        <g style="filter:url(#_Effect6);">
                            <path d="M286.691,209.737L286.691,267.706C286.691,283.703 273.703,296.691 257.706,296.691L169.811,296.691C153.814,296.691 140.826,283.703 140.826,267.706L140.826,209.737C140.826,193.74 153.814,180.752 169.811,180.752L257.706,180.752C273.703,180.752 286.691,193.74 286.691,209.737Z" style="fill:none;stroke:#fff;stroke-width:6.3px;stroke-linejoin:bevel;stroke-miterlimit:0.348837;"/>
                            <path d="M286.691,209.737L286.691,267.706C286.691,283.703 273.703,296.691 257.706,296.691L169.811,296.691C153.814,296.691 140.826,283.703 140.826,267.706L140.826,209.737C140.826,193.74 153.814,180.752 169.811,180.752L257.706,180.752C273.703,180.752 286.691,193.74 286.691,209.737Z" style="fill:#9dafff;"/>
                        </g>
                    </g>
                </g>
                <ellipse cx="255.869" cy="219.328" rx="8.246" ry="8.257" style="fill:#fff;"/>
            </g>
            <path d="M173.707,347.028C172.083,347.028 170.594,346.65 169.241,345.895C167.888,345.139 166.813,344.083 166.018,342.728C165.222,341.373 164.825,339.85 164.825,338.158C164.825,336.466 165.222,334.946 166.018,333.599C166.813,332.252 167.888,331.201 169.241,330.445C170.594,329.69 172.083,329.312 173.707,329.312C175.331,329.312 176.819,329.69 178.172,330.445C179.526,331.201 180.592,332.252 181.371,333.599C182.15,334.946 182.54,336.466 182.54,338.158C182.54,339.85 182.146,341.373 181.359,342.728C180.571,344.083 179.505,345.139 178.16,345.895C176.815,346.65 175.331,347.028 173.707,347.028ZM173.707,343.184C175.085,343.184 176.188,342.724 177.016,341.804C177.844,340.884 178.258,339.669 178.258,338.158C178.258,336.63 177.844,335.41 177.016,334.499C176.188,333.587 175.085,333.131 173.707,333.131C172.312,333.131 171.201,333.583 170.373,334.486C169.544,335.39 169.13,336.614 169.13,338.158C169.13,339.685 169.544,340.905 170.373,341.817C171.201,342.728 172.312,343.184 173.707,343.184Z" style="fill:#01377d;fill-rule:nonzero;stroke:#01377d;stroke-width:0.32px;stroke-miterlimit:2;"/>
            <path d="M197.302,329.558L197.302,332.934L192.726,332.934L192.726,346.855L188.518,346.855L188.518,332.934L183.942,332.934L183.942,329.558L197.302,329.558Z" style="fill:#01377d;fill-rule:nonzero;stroke:#01377d;stroke-width:0.32px;stroke-miterlimit:2;"/>
            <path d="M214.377,329.558L214.377,346.855L210.17,346.855L210.17,339.735L203.625,339.735L203.625,346.855L199.418,346.855L199.418,329.558L203.625,329.558L203.625,336.334L210.17,336.334L210.17,329.558L214.377,329.558Z" style="fill:#01377d;fill-rule:nonzero;stroke:#01377d;stroke-width:0.32px;stroke-miterlimit:2;"/>
            <path d="M221.611,332.934L221.611,336.433L227.245,336.433L227.245,339.685L221.611,339.685L221.611,343.48L227.984,343.48L227.984,346.855L217.404,346.855L217.404,329.558L227.984,329.558L227.984,332.934L221.611,332.934Z" style="fill:#01377d;fill-rule:nonzero;stroke:#01377d;stroke-width:0.32px;stroke-miterlimit:2;"/>
            <path d="M239.523,346.855L235.931,340.326L234.922,340.326L234.922,346.855L230.715,346.855L230.715,329.558L237.776,329.558C239.137,329.558 240.298,329.797 241.257,330.273C242.217,330.749 242.935,331.402 243.41,332.232C243.886,333.061 244.124,333.985 244.124,335.004C244.124,336.154 243.8,337.18 243.152,338.084C242.504,338.987 241.549,339.628 240.286,340.006L244.271,346.855L239.523,346.855ZM234.922,337.345L237.53,337.345C238.301,337.345 238.879,337.156 239.265,336.778C239.65,336.4 239.843,335.866 239.843,335.176C239.843,334.519 239.65,334.002 239.265,333.624C238.879,333.246 238.301,333.057 237.53,333.057L234.922,333.057L234.922,337.345Z" style="fill:#01377d;fill-rule:nonzero;stroke:#01377d;stroke-width:0.32px;stroke-miterlimit:2;"/>
            <path d="M253.006,347.028C251.743,347.028 250.611,346.823 249.611,346.412C248.61,346.001 247.81,345.394 247.212,344.589C246.613,343.784 246.297,342.815 246.264,341.681L250.742,341.681C250.808,342.322 251.029,342.81 251.407,343.147C251.784,343.484 252.276,343.652 252.883,343.652C253.506,343.652 253.998,343.509 254.359,343.221C254.72,342.934 254.9,342.535 254.9,342.026C254.9,341.599 254.757,341.246 254.47,340.967C254.183,340.687 253.83,340.457 253.412,340.277C252.994,340.096 252.399,339.891 251.628,339.661C250.513,339.316 249.602,338.971 248.897,338.626C248.192,338.281 247.585,337.772 247.076,337.098C246.568,336.425 246.314,335.546 246.314,334.462C246.314,332.852 246.896,331.591 248.061,330.679C249.225,329.768 250.742,329.312 252.612,329.312C254.515,329.312 256.049,329.768 257.213,330.679C258.378,331.591 259.001,332.86 259.083,334.486L254.531,334.486C254.499,333.928 254.294,333.488 253.916,333.168C253.539,332.848 253.055,332.688 252.465,332.688C251.956,332.688 251.546,332.823 251.234,333.094C250.923,333.365 250.767,333.755 250.767,334.265C250.767,334.823 251.029,335.258 251.554,335.57C252.079,335.883 252.899,336.219 254.015,336.581C255.13,336.959 256.036,337.32 256.734,337.665C257.431,338.01 258.033,338.511 258.542,339.168C259.05,339.825 259.305,340.671 259.305,341.706C259.305,342.691 259.055,343.587 258.554,344.391C258.054,345.196 257.328,345.837 256.377,346.313C255.425,346.79 254.302,347.028 253.006,347.028Z" style="fill:#01377d;fill-rule:nonzero;stroke:#01377d;stroke-width:0.32px;stroke-miterlimit:2;"/>
        </g>
        <g>
            <g>
                <g style="filter:url(#_Effect7);">
                    <path d="M401.041,590.038L401.041,779.035C401.041,831.185 358.702,873.524 306.553,873.524L117.576,873.524C65.427,873.524 23.088,831.185 23.088,779.035L23.088,590.038C23.088,537.889 65.427,495.55 117.576,495.55L306.553,495.55C358.702,495.55 401.041,537.889 401.041,590.038Z" style="fill:none;stroke:#01377d;stroke-opacity:0.1;stroke-width:12.7px;"/>
                </g>
                <path d="M401.041,590.038L401.041,779.035C401.041,831.185 358.702,873.524 306.553,873.524L117.576,873.524C65.427,873.524 23.088,831.185 23.088,779.035L23.088,590.038C23.088,537.889 65.427,495.55 117.576,495.55L306.553,495.55C358.702,495.55 401.041,537.889 401.041,590.038Z" style="fill:#fff;fill-opacity:0.7;stroke:#fff;stroke-opacity:0.7;stroke-width:0.46px;"/>
            </g>
            <g>
                <path d="M286.691,682.199L286.691,740.168C286.691,756.165 273.703,769.153 257.706,769.153L169.811,769.153C153.814,769.153 140.826,756.165 140.826,740.168L140.826,682.199C140.826,666.201 153.814,653.214 169.811,653.214L257.706,653.214C273.703,653.214 286.691,666.201 286.691,682.199Z" style="fill:#7cd24c;"/>
                <path d="M143.155,566.274L280.974,566.274C304.96,566.274 324.433,585.747 324.433,609.733L324.433,696.652C324.433,720.638 304.96,740.111 280.974,740.111L143.155,740.111C119.169,740.111 99.696,720.638 99.696,696.652L99.696,609.733C99.696,585.747 119.169,566.274 143.155,566.274Z" style="fill:#01377d;"/>
                <clipPath id="_clip8">
                    <path d="M143.155,566.274L280.974,566.274C304.96,566.274 324.433,585.747 324.433,609.733L324.433,696.652C324.433,720.638 304.96,740.111 280.974,740.111L143.155,740.111C119.169,740.111 99.696,720.638 99.696,696.652L99.696,609.733C99.696,585.747 119.169,566.274 143.155,566.274Z"/>
                </clipPath>
                <g clip-path="url(#_clip8)">
                    <g>
                        <g style="filter:url(#_Effect9);">
                            <path d="M286.691,682.199L286.691,740.168C286.691,756.165 273.703,769.153 257.706,769.153L169.811,769.153C153.814,769.153 140.826,756.165 140.826,740.168L140.826,682.199C140.826,666.201 153.814,653.214 169.811,653.214L257.706,653.214C273.703,653.214 286.691,666.201 286.691,682.199Z" style="fill:none;stroke:#fff;stroke-width:6.3px;stroke-linejoin:bevel;stroke-miterlimit:0.348837;"/>
                            <path d="M286.691,682.199L286.691,740.168C286.691,756.165 273.703,769.153 257.706,769.153L169.811,769.153C153.814,769.153 140.826,756.165 140.826,740.168L140.826,682.199C140.826,666.201 153.814,653.214 169.811,653.214L257.706,653.214C273.703,653.214 286.691,666.201 286.691,682.199Z" style="fill:#9dafff;"/>
                        </g>
                    </g>
                </g>
                <ellipse cx="255.869" cy="691.79" rx="8.246" ry="8.257" style="fill:#fff;"/>
            </g>
            <path d="M173.707,819.49C172.083,819.49 170.594,819.112 169.241,818.356C167.888,817.601 166.813,816.545 166.018,815.19C165.222,813.835 164.825,812.311 164.825,810.619C164.825,808.928 165.222,807.408 166.018,806.061C166.813,804.714 167.888,803.663 169.241,802.907C170.594,802.152 172.083,801.774 173.707,801.774C175.331,801.774 176.819,802.152 178.172,802.907C179.526,803.663 180.592,804.714 181.371,806.061C182.15,807.408 182.54,808.928 182.54,810.619C182.54,812.311 182.146,813.835 181.359,815.19C180.571,816.545 179.505,817.601 178.16,818.356C176.815,819.112 175.331,819.49 173.707,819.49ZM173.707,815.646C175.085,815.646 176.188,815.186 177.016,814.266C177.844,813.346 178.258,812.131 178.258,810.619C178.258,809.092 177.844,807.872 177.016,806.96C176.188,806.049 175.085,805.593 173.707,805.593C172.312,805.593 171.201,806.045 170.373,806.948C169.544,807.852 169.13,809.075 169.13,810.619C169.13,812.147 169.544,813.367 170.373,814.278C171.201,815.19 172.312,815.646 173.707,815.646Z" style="fill:#01377d;fill-rule:nonzero;stroke:#01377d;stroke-width:0.32px;stroke-miterlimit:2;"/>
            <path d="M197.302,802.02L197.302,805.396L192.726,805.396L192.726,819.317L188.518,819.317L188.518,805.396L183.942,805.396L183.942,802.02L197.302,802.02Z" style="fill:#01377d;fill-rule:nonzero;stroke:#01377d;stroke-width:0.32px;stroke-miterlimit:2;"/>
            <path d="M214.377,802.02L214.377,819.317L210.17,819.317L210.17,812.196L203.625,812.196L203.625,819.317L199.418,819.317L199.418,802.02L203.625,802.02L203.625,808.796L210.17,808.796L210.17,802.02L214.377,802.02Z" style="fill:#01377d;fill-rule:nonzero;stroke:#01377d;stroke-width:0.32px;stroke-miterlimit:2;"/>
            <path d="M221.611,805.396L221.611,808.895L227.245,808.895L227.245,812.147L221.611,812.147L221.611,815.942L227.984,815.942L227.984,819.317L217.404,819.317L217.404,802.02L227.984,802.02L227.984,805.396L221.611,805.396Z" style="fill:#01377d;fill-rule:nonzero;stroke:#01377d;stroke-width:0.32px;stroke-miterlimit:2;"/>
            <path d="M239.523,819.317L235.931,812.788L234.922,812.788L234.922,819.317L230.715,819.317L230.715,802.02L237.776,802.02C239.137,802.02 240.298,802.258 241.257,802.735C242.217,803.211 242.935,803.864 243.41,804.694C243.886,805.523 244.124,806.447 244.124,807.466C244.124,808.615 243.8,809.642 243.152,810.546C242.504,811.449 241.549,812.09 240.286,812.467L244.271,819.317L239.523,819.317ZM234.922,809.806L237.53,809.806C238.301,809.806 238.879,809.617 239.265,809.24C239.65,808.862 239.843,808.328 239.843,807.638C239.843,806.981 239.65,806.464 239.265,806.086C238.879,805.708 238.301,805.519 237.53,805.519L234.922,805.519L234.922,809.806Z" style="fill:#01377d;fill-rule:nonzero;stroke:#01377d;stroke-width:0.32px;stroke-miterlimit:2;"/>
            <path d="M253.006,819.49C251.743,819.49 250.611,819.284 249.611,818.874C248.61,818.463 247.81,817.855 247.212,817.05C246.613,816.246 246.297,815.276 246.264,814.143L250.742,814.143C250.808,814.784 251.029,815.272 251.407,815.609C251.784,815.946 252.276,816.114 252.883,816.114C253.506,816.114 253.998,815.97 254.359,815.683C254.72,815.395 254.9,814.997 254.9,814.488C254.9,814.061 254.757,813.708 254.47,813.428C254.183,813.149 253.83,812.919 253.412,812.738C252.994,812.558 252.399,812.352 251.628,812.122C250.513,811.778 249.602,811.433 248.897,811.088C248.192,810.743 247.585,810.233 247.076,809.56C246.568,808.886 246.314,808.008 246.314,806.923C246.314,805.314 246.896,804.053 248.061,803.141C249.225,802.23 250.742,801.774 252.612,801.774C254.515,801.774 256.049,802.23 257.213,803.141C258.378,804.053 259.001,805.322 259.083,806.948L254.531,806.948C254.499,806.39 254.294,805.95 253.916,805.63C253.539,805.31 253.055,805.149 252.465,805.149C251.956,805.149 251.546,805.285 251.234,805.556C250.923,805.827 250.767,806.217 250.767,806.726C250.767,807.285 251.029,807.72 251.554,808.032C252.079,808.344 252.899,808.681 254.015,809.043C255.13,809.42 256.036,809.782 256.734,810.127C257.431,810.472 258.033,810.973 258.542,811.63C259.05,812.287 259.305,813.133 259.305,814.168C259.305,815.153 259.055,816.048 258.554,816.853C258.054,817.658 257.328,818.299 256.377,818.775C255.425,819.252 254.302,819.49 253.006,819.49Z" style="fill:#01377d;fill-rule:nonzero;stroke:#01377d;stroke-width:0.32px;stroke-miterlimit:2;"/>
        </g>
        <g>
            <g>
                <g style="filter:url(#_Effect10);">
                    <path d="M1345.92,117.597L1345.92,306.595C1345.92,358.744 1303.58,401.083 1251.43,401.083L1062.46,401.083C1010.31,401.083 967.97,358.744 967.97,306.595L967.97,117.597C967.97,65.448 1010.31,23.109 1062.46,23.109L1251.43,23.109C1303.58,23.109 1345.92,65.448 1345.92,117.597Z" style="fill:none;stroke:#01377d;stroke-opacity:0.1;stroke-width:12.7px;"/>
                </g>
                <path d="M1345.92,117.597L1345.92,306.595C1345.92,358.744 1303.58,401.083 1251.43,401.083L1062.46,401.083C1010.31,401.083 967.97,358.744 967.97,306.595L967.97,117.597C967.97,65.448 1010.31,23.109 1062.46,23.109L1251.43,23.109C1303.58,23.109 1345.92,65.448 1345.92,117.597Z" style="fill:#fff;fill-opacity:0.7;stroke:#fff;stroke-opacity:0.7;stroke-width:0.46px;"/>
            </g>
            <g>
                <path d="M1231.57,209.758L1231.57,267.727C1231.57,283.724 1218.59,296.712 1202.59,296.712L1114.69,296.712C1098.7,296.712 1085.71,283.724 1085.71,267.727L1085.71,209.758C1085.71,193.76 1098.7,180.773 1114.69,180.773L1202.59,180.773C1218.59,180.773 1231.57,193.76 1231.57,209.758Z" style="fill:#7cd24c;"/>
                <path d="M1088.04,93.833L1225.86,93.833C1249.84,93.833 1269.32,113.306 1269.32,137.292L1269.32,224.211C1269.32,248.197 1249.84,267.67 1225.86,267.67L1088.04,267.67C1064.05,267.67 1044.58,248.197 1044.58,224.211L1044.58,137.292C1044.58,113.306 1064.05,93.833 1088.04,93.833Z" style="fill:#01377d;"/>
                <clipPath id="_clip11">
                    <path d="M1088.04,93.833L1225.86,93.833C1249.84,93.833 1269.32,113.306 1269.32,137.292L1269.32,224.211C1269.32,248.197 1249.84,267.67 1225.86,267.67L1088.04,267.67C1064.05,267.67 1044.58,248.197 1044.58,224.211L1044.58,137.292C1044.58,113.306 1064.05,93.833 1088.04,93.833Z"/>
                </clipPath>
                <g clip-path="url(#_clip11)">
                    <g>
                        <g style="filter:url(#_Effect12);">
                            <path d="M1231.57,209.758L1231.57,267.727C1231.57,283.724 1218.59,296.712 1202.59,296.712L1114.69,296.712C1098.7,296.712 1085.71,283.724 1085.71,267.727L1085.71,209.758C1085.71,193.76 1098.7,180.773 1114.69,180.773L1202.59,180.773C1218.59,180.773 1231.57,193.76 1231.57,209.758Z" style="fill:none;stroke:#fff;stroke-width:6.3px;stroke-linejoin:bevel;stroke-miterlimit:0.348837;"/>
                            <path d="M1231.57,209.758L1231.57,267.727C1231.57,283.724 1218.59,296.712 1202.59,296.712L1114.69,296.712C1098.7,296.712 1085.71,283.724 1085.71,267.727L1085.71,209.758C1085.71,193.76 1098.7,180.773 1114.69,180.773L1202.59,180.773C1218.59,180.773 1231.57,193.76 1231.57,209.758Z" style="fill:#9dafff;"/>
                        </g>
                    </g>
                </g>
                <ellipse cx="1200.75" cy="219.349" rx="8.246" ry="8.257" style="fill:#fff;"/>
            </g>
            <path d="M1118.59,347.049C1116.96,347.049 1115.48,346.671 1114.12,345.915C1112.77,345.16 1111.69,344.104 1110.9,342.749C1110.1,341.394 1109.71,339.87 1109.71,338.179C1109.71,336.487 1110.1,334.967 1110.9,333.62C1111.69,332.273 1112.77,331.222 1114.12,330.466C1115.48,329.711 1116.96,329.333 1118.59,329.333C1120.21,329.333 1121.7,329.711 1123.05,330.466C1124.41,331.222 1125.47,332.273 1126.25,333.62C1127.03,334.967 1127.42,336.487 1127.42,338.179C1127.42,339.87 1127.03,341.394 1126.24,342.749C1125.45,344.104 1124.39,345.16 1123.04,345.915C1121.7,346.671 1120.21,347.049 1118.59,347.049ZM1118.59,343.205C1119.97,343.205 1121.07,342.745 1121.9,341.825C1122.73,340.905 1123.14,339.69 1123.14,338.179C1123.14,336.651 1122.73,335.431 1121.9,334.52C1121.07,333.608 1119.97,333.152 1118.59,333.152C1117.19,333.152 1116.08,333.604 1115.26,334.507C1114.43,335.411 1114.01,336.634 1114.01,338.179C1114.01,339.706 1114.43,340.926 1115.26,341.838C1116.08,342.749 1117.19,343.205 1118.59,343.205Z" style="fill:#01377d;fill-rule:nonzero;stroke:#01377d;stroke-width:0.32px;stroke-miterlimit:2;"/>
            <path d="M1142.18,329.579L1142.18,332.955L1137.61,332.955L1137.61,346.876L1133.4,346.876L1133.4,332.955L1128.82,332.955L1128.82,329.579L1142.18,329.579Z" style="fill:#01377d;fill-rule:nonzero;stroke:#01377d;stroke-width:0.32px;stroke-miterlimit:2;"/>
            <path d="M1159.26,329.579L1159.26,346.876L1155.05,346.876L1155.05,339.755L1148.51,339.755L1148.51,346.876L1144.3,346.876L1144.3,329.579L1148.51,329.579L1148.51,336.355L1155.05,336.355L1155.05,329.579L1159.26,329.579Z" style="fill:#01377d;fill-rule:nonzero;stroke:#01377d;stroke-width:0.32px;stroke-miterlimit:2;"/>
            <path d="M1166.49,332.955L1166.49,336.454L1172.13,336.454L1172.13,339.706L1166.49,339.706L1166.49,343.501L1172.87,343.501L1172.87,346.876L1162.29,346.876L1162.29,329.579L1172.87,329.579L1172.87,332.955L1166.49,332.955Z" style="fill:#01377d;fill-rule:nonzero;stroke:#01377d;stroke-width:0.32px;stroke-miterlimit:2;"/>
            <path d="M1184.4,346.876L1180.81,340.347L1179.8,340.347L1179.8,346.876L1175.6,346.876L1175.6,329.579L1182.66,329.579C1184.02,329.579 1185.18,329.817 1186.14,330.294C1187.1,330.77 1187.82,331.423 1188.29,332.253C1188.77,333.082 1189.01,334.006 1189.01,335.025C1189.01,336.174 1188.68,337.201 1188.03,338.105C1187.39,339.008 1186.43,339.649 1185.17,340.026L1189.15,346.876L1184.4,346.876ZM1179.8,337.365L1182.41,337.365C1183.18,337.365 1183.76,337.176 1184.15,336.799C1184.53,336.421 1184.73,335.887 1184.73,335.197C1184.73,334.54 1184.53,334.023 1184.15,333.645C1183.76,333.267 1183.18,333.078 1182.41,333.078L1179.8,333.078L1179.8,337.365Z" style="fill:#01377d;fill-rule:nonzero;stroke:#01377d;stroke-width:0.32px;stroke-miterlimit:2;"/>
            <path d="M1197.89,347.049C1196.62,347.049 1195.49,346.843 1194.49,346.433C1193.49,346.022 1192.69,345.414 1192.09,344.609C1191.5,343.805 1191.18,342.835 1191.15,341.702L1195.62,341.702C1195.69,342.343 1195.91,342.831 1196.29,343.168C1196.67,343.505 1197.16,343.673 1197.77,343.673C1198.39,343.673 1198.88,343.529 1199.24,343.242C1199.6,342.955 1199.78,342.556 1199.78,342.047C1199.78,341.62 1199.64,341.267 1199.35,340.987C1199.07,340.708 1198.71,340.478 1198.29,340.298C1197.88,340.117 1197.28,339.912 1196.51,339.682C1195.39,339.337 1194.48,338.992 1193.78,338.647C1193.07,338.302 1192.47,337.792 1191.96,337.119C1191.45,336.446 1191.2,335.567 1191.2,334.483C1191.2,332.873 1191.78,331.612 1192.94,330.7C1194.11,329.789 1195.62,329.333 1197.49,329.333C1199.4,329.333 1200.93,329.789 1202.1,330.7C1203.26,331.612 1203.88,332.881 1203.96,334.507L1199.41,334.507C1199.38,333.949 1199.17,333.509 1198.8,333.189C1198.42,332.869 1197.94,332.708 1197.35,332.708C1196.84,332.708 1196.43,332.844 1196.12,333.115C1195.81,333.386 1195.65,333.776 1195.65,334.285C1195.65,334.844 1195.91,335.279 1196.44,335.591C1196.96,335.903 1197.78,336.24 1198.9,336.602C1200.01,336.979 1200.92,337.341 1201.62,337.686C1202.31,338.031 1202.91,338.532 1203.42,339.189C1203.93,339.846 1204.19,340.692 1204.19,341.727C1204.19,342.712 1203.94,343.607 1203.44,344.412C1202.94,345.217 1202.21,345.858 1201.26,346.334C1200.31,346.811 1199.18,347.049 1197.89,347.049Z" style="fill:#01377d;fill-rule:nonzero;stroke:#01377d;stroke-width:0.32px;stroke-miterlimit:2;"/>
        </g>
        <g>
            <g>
                <g style="filter:url(#_Effect13);">
                    <path d="M1345.92,590.059L1345.92,779.056C1345.92,831.206 1303.58,873.545 1251.43,873.545L1062.46,873.545C1010.31,873.545 967.97,831.206 967.97,779.056L967.97,590.059C967.97,537.91 1010.31,495.571 1062.46,495.571L1251.43,495.571C1303.58,495.571 1345.92,537.91 1345.92,590.059Z" style="fill:none;stroke:#01377d;stroke-opacity:0.1;stroke-width:12.7px;"/>
                </g>
                <path d="M1345.92,590.059L1345.92,779.056C1345.92,831.206 1303.58,873.545 1251.43,873.545L1062.46,873.545C1010.31,873.545 967.97,831.206 967.97,779.056L967.97,590.059C967.97,537.91 1010.31,495.571 1062.46,495.571L1251.43,495.571C1303.58,495.571 1345.92,537.91 1345.92,590.059Z" style="fill:#fff;fill-opacity:0.7;stroke:#fff;stroke-opacity:0.7;stroke-width:0.46px;"/>
            </g>
            <g>
                <path d="M1231.57,682.219L1231.57,740.189C1231.57,756.186 1218.59,769.174 1202.59,769.174L1114.69,769.174C1098.7,769.174 1085.71,756.186 1085.71,740.189L1085.71,682.219C1085.71,666.222 1098.7,653.235 1114.69,653.235L1202.59,653.235C1218.59,653.235 1231.57,666.222 1231.57,682.219Z" style="fill:#7cd24c;"/>
                <path d="M1088.04,566.295L1225.86,566.295C1249.84,566.295 1269.32,585.768 1269.32,609.754L1269.32,696.673C1269.32,720.658 1249.84,740.132 1225.86,740.132L1088.04,740.132C1064.05,740.132 1044.58,720.658 1044.58,696.673L1044.58,609.754C1044.58,585.768 1064.05,566.295 1088.04,566.295Z" style="fill:#01377d;"/>
                <clipPath id="_clip14">
                    <path d="M1088.04,566.295L1225.86,566.295C1249.84,566.295 1269.32,585.768 1269.32,609.754L1269.32,696.673C1269.32,720.658 1249.84,740.132 1225.86,740.132L1088.04,740.132C1064.05,740.132 1044.58,720.658 1044.58,696.673L1044.58,609.754C1044.58,585.768 1064.05,566.295 1088.04,566.295Z"/>
                </clipPath>
                <g clip-path="url(#_clip14)">
                    <g>
                        <g style="filter:url(#_Effect15);">
                            <path d="M1231.57,682.219L1231.57,740.189C1231.57,756.186 1218.59,769.174 1202.59,769.174L1114.69,769.174C1098.7,769.174 1085.71,756.186 1085.71,740.189L1085.71,682.219C1085.71,666.222 1098.7,653.235 1114.69,653.235L1202.59,653.235C1218.59,653.235 1231.57,666.222 1231.57,682.219Z" style="fill:none;stroke:#fff;stroke-width:6.3px;stroke-linejoin:bevel;stroke-miterlimit:0.348837;"/>
                            <path d="M1231.57,682.219L1231.57,740.189C1231.57,756.186 1218.59,769.174 1202.59,769.174L1114.69,769.174C1098.7,769.174 1085.71,756.186 1085.71,740.189L1085.71,682.219C1085.71,666.222 1098.7,653.235 1114.69,653.235L1202.59,653.235C1218.59,653.235 1231.57,666.222 1231.57,682.219Z" style="fill:#9dafff;"/>
                        </g>
                    </g>
                </g>
                <ellipse cx="1200.75" cy="691.81" rx="8.246" ry="8.257" style="fill:#fff;"/>
            </g>
            <path d="M1118.59,819.511C1116.96,819.511 1115.48,819.133 1114.12,818.377C1112.77,817.622 1111.69,816.566 1110.9,815.211C1110.1,813.856 1109.71,812.332 1109.71,810.64C1109.71,808.948 1110.1,807.429 1110.9,806.082C1111.69,804.735 1112.77,803.684 1114.12,802.928C1115.48,802.172 1116.96,801.795 1118.59,801.795C1120.21,801.795 1121.7,802.172 1123.05,802.928C1124.41,803.684 1125.47,804.735 1126.25,806.082C1127.03,807.429 1127.42,808.948 1127.42,810.64C1127.42,812.332 1127.03,813.856 1126.24,815.211C1125.45,816.566 1124.39,817.622 1123.04,818.377C1121.7,819.133 1120.21,819.511 1118.59,819.511ZM1118.59,815.667C1119.97,815.667 1121.07,815.207 1121.9,814.287C1122.73,813.367 1123.14,812.152 1123.14,810.64C1123.14,809.113 1122.73,807.893 1121.9,806.981C1121.07,806.07 1119.97,805.614 1118.59,805.614C1117.19,805.614 1116.08,806.066 1115.26,806.969C1114.43,807.872 1114.01,809.096 1114.01,810.64C1114.01,812.168 1114.43,813.388 1115.26,814.299C1116.08,815.211 1117.19,815.667 1118.59,815.667Z" style="fill:#01377d;fill-rule:nonzero;stroke:#01377d;stroke-width:0.32px;stroke-miterlimit:2;"/>
            <path d="M1142.18,802.041L1142.18,805.417L1137.61,805.417L1137.61,819.338L1133.4,819.338L1133.4,805.417L1128.82,805.417L1128.82,802.041L1142.18,802.041Z" style="fill:#01377d;fill-rule:nonzero;stroke:#01377d;stroke-width:0.32px;stroke-miterlimit:2;"/>
            <path d="M1159.26,802.041L1159.26,819.338L1155.05,819.338L1155.05,812.217L1148.51,812.217L1148.51,819.338L1144.3,819.338L1144.3,802.041L1148.51,802.041L1148.51,808.817L1155.05,808.817L1155.05,802.041L1159.26,802.041Z" style="fill:#01377d;fill-rule:nonzero;stroke:#01377d;stroke-width:0.32px;stroke-miterlimit:2;"/>
            <path d="M1166.49,805.417L1166.49,808.916L1172.13,808.916L1172.13,812.168L1166.49,812.168L1166.49,815.962L1172.87,815.962L1172.87,819.338L1162.29,819.338L1162.29,802.041L1172.87,802.041L1172.87,805.417L1166.49,805.417Z" style="fill:#01377d;fill-rule:nonzero;stroke:#01377d;stroke-width:0.32px;stroke-miterlimit:2;"/>
            <path d="M1184.4,819.338L1180.81,812.809L1179.8,812.809L1179.8,819.338L1175.6,819.338L1175.6,802.041L1182.66,802.041C1184.02,802.041 1185.18,802.279 1186.14,802.756C1187.1,803.232 1187.82,803.885 1188.29,804.714C1188.77,805.544 1189.01,806.468 1189.01,807.486C1189.01,808.636 1188.68,809.663 1188.03,810.566C1187.39,811.47 1186.43,812.11 1185.17,812.488L1189.15,819.338L1184.4,819.338ZM1179.8,809.827L1182.41,809.827C1183.18,809.827 1183.76,809.638 1184.15,809.26C1184.53,808.883 1184.73,808.349 1184.73,807.659C1184.73,807.002 1184.53,806.484 1184.15,806.107C1183.76,805.729 1183.18,805.54 1182.41,805.54L1179.8,805.54L1179.8,809.827Z" style="fill:#01377d;fill-rule:nonzero;stroke:#01377d;stroke-width:0.32px;stroke-miterlimit:2;"/>
            <path d="M1197.89,819.511C1196.62,819.511 1195.49,819.305 1194.49,818.895C1193.49,818.484 1192.69,817.876 1192.09,817.071C1191.5,816.266 1191.18,815.297 1191.15,814.164L1195.62,814.164C1195.69,814.804 1195.91,815.293 1196.29,815.63C1196.67,815.967 1197.16,816.135 1197.77,816.135C1198.39,816.135 1198.88,815.991 1199.24,815.704C1199.6,815.416 1199.78,815.018 1199.78,814.509C1199.78,814.082 1199.64,813.728 1199.35,813.449C1199.07,813.17 1198.71,812.94 1198.29,812.759C1197.88,812.579 1197.28,812.373 1196.51,812.143C1195.39,811.798 1194.48,811.453 1193.78,811.108C1193.07,810.764 1192.47,810.254 1191.96,809.581C1191.45,808.907 1191.2,808.029 1191.2,806.944C1191.2,805.335 1191.78,804.074 1192.94,803.162C1194.11,802.25 1195.62,801.795 1197.49,801.795C1199.4,801.795 1200.93,802.25 1202.1,803.162C1203.26,804.074 1203.88,805.343 1203.96,806.969L1199.41,806.969C1199.38,806.411 1199.17,805.971 1198.8,805.651C1198.42,805.33 1197.94,805.17 1197.35,805.17C1196.84,805.17 1196.43,805.306 1196.12,805.577C1195.81,805.848 1195.65,806.238 1195.65,806.747C1195.65,807.306 1195.91,807.741 1196.44,808.053C1196.96,808.365 1197.78,808.702 1198.9,809.063C1200.01,809.441 1200.92,809.803 1201.62,810.148C1202.31,810.492 1202.91,810.993 1203.42,811.651C1203.93,812.308 1204.19,813.154 1204.19,814.188C1204.19,815.174 1203.94,816.069 1203.44,816.874C1202.94,817.679 1202.21,818.32 1201.26,818.796C1200.31,819.272 1199.18,819.511 1197.89,819.511Z" style="fill:#01377d;fill-rule:nonzero;stroke:#01377d;stroke-width:0.32px;stroke-miterlimit:2;"/>
        </g>
        <g>
            <g>
                <g style="filter:url(#_Effect16);">
                    <path d="M1345.92,1062.5L1345.92,1251.5C1345.92,1303.65 1303.58,1345.99 1251.43,1345.99L1062.46,1345.99C1010.31,1345.99 967.97,1303.65 967.97,1251.5L967.97,1062.5C967.97,1010.35 1010.31,968.012 1062.46,968.012L1251.43,968.012C1303.58,968.012 1345.92,1010.35 1345.92,1062.5Z" style="fill:none;stroke:#01377d;stroke-opacity:0.1;stroke-width:12.7px;"/>
                </g>
                <path d="M1345.92,1062.5L1345.92,1251.5C1345.92,1303.65 1303.58,1345.99 1251.43,1345.99L1062.46,1345.99C1010.31,1345.99 967.97,1303.65 967.97,1251.5L967.97,1062.5C967.97,1010.35 1010.31,968.012 1062.46,968.012L1251.43,968.012C1303.58,968.012 1345.92,1010.35 1345.92,1062.5Z" style="fill:#fff;fill-opacity:0.7;stroke:#fff;stroke-opacity:0.7;stroke-width:0.46px;"/>
            </g>
            <g>
                <path d="M1231.57,1154.66L1231.57,1212.63C1231.57,1228.63 1218.59,1241.62 1202.59,1241.62L1114.69,1241.62C1098.7,1241.62 1085.71,1228.63 1085.71,1212.63L1085.71,1154.66C1085.71,1138.66 1098.7,1125.68 1114.69,1125.68L1202.59,1125.68C1218.59,1125.68 1231.57,1138.66 1231.57,1154.66Z" style="fill:#7cd24c;"/>
                <path d="M1088.04,1038.74L1225.86,1038.74C1249.84,1038.74 1269.32,1058.21 1269.32,1082.19L1269.32,1169.11C1269.32,1193.1 1249.84,1212.57 1225.86,1212.57L1088.04,1212.57C1064.05,1212.57 1044.58,1193.1 1044.58,1169.11L1044.58,1082.19C1044.58,1058.21 1064.05,1038.74 1088.04,1038.74Z" style="fill:#01377d;"/>
                <clipPath id="_clip17">
                    <path d="M1088.04,1038.74L1225.86,1038.74C1249.84,1038.74 1269.32,1058.21 1269.32,1082.19L1269.32,1169.11C1269.32,1193.1 1249.84,1212.57 1225.86,1212.57L1088.04,1212.57C1064.05,1212.57 1044.58,1193.1 1044.58,1169.11L1044.58,1082.19C1044.58,1058.21 1064.05,1038.74 1088.04,1038.74Z"/>
                </clipPath>
                <g clip-path="url(#_clip17)">
                    <g>
                        <g style="filter:url(#_Effect18);">
                            <path d="M1231.57,1154.66L1231.57,1212.63C1231.57,1228.63 1218.59,1241.62 1202.59,1241.62L1114.69,1241.62C1098.7,1241.62 1085.71,1228.63 1085.71,1212.63L1085.71,1154.66C1085.71,1138.66 1098.7,1125.68 1114.69,1125.68L1202.59,1125.68C1218.59,1125.68 1231.57,1138.66 1231.57,1154.66Z" style="fill:none;stroke:#fff;stroke-width:6.3px;stroke-linejoin:bevel;stroke-miterlimit:0.348837;"/>
                            <path d="M1231.57,1154.66L1231.57,1212.63C1231.57,1228.63 1218.59,1241.62 1202.59,1241.62L1114.69,1241.62C1098.7,1241.62 1085.71,1228.63 1085.71,1212.63L1085.71,1154.66C1085.71,1138.66 1098.7,1125.68 1114.69,1125.68L1202.59,1125.68C1218.59,1125.68 1231.57,1138.66 1231.57,1154.66Z" style="fill:#9dafff;"/>
                        </g>
                    </g>
                </g>
                <ellipse cx="1200.75" cy="1164.25" rx="8.246" ry="8.257" style="fill:#fff;"/>
            </g>
            <path d="M1118.59,1291.95C1116.96,1291.95 1115.48,1291.57 1114.12,1290.82C1112.77,1290.06 1111.69,1289.01 1110.9,1287.65C1110.1,1286.3 1109.71,1284.77 1109.71,1283.08C1109.71,1281.39 1110.1,1279.87 1110.9,1278.52C1111.69,1277.18 1112.77,1276.12 1114.12,1275.37C1115.48,1274.61 1116.96,1274.24 1118.59,1274.24C1120.21,1274.24 1121.7,1274.61 1123.05,1275.37C1124.41,1276.12 1125.47,1277.18 1126.25,1278.52C1127.03,1279.87 1127.42,1281.39 1127.42,1283.08C1127.42,1284.77 1127.03,1286.3 1126.24,1287.65C1125.45,1289.01 1124.39,1290.06 1123.04,1290.82C1121.7,1291.57 1120.21,1291.95 1118.59,1291.95ZM1118.59,1288.11C1119.97,1288.11 1121.07,1287.65 1121.9,1286.73C1122.73,1285.81 1123.14,1284.59 1123.14,1283.08C1123.14,1281.55 1122.73,1280.33 1121.9,1279.42C1121.07,1278.51 1119.97,1278.06 1118.59,1278.06C1117.19,1278.06 1116.08,1278.51 1115.26,1279.41C1114.43,1280.31 1114.01,1281.54 1114.01,1283.08C1114.01,1284.61 1114.43,1285.83 1115.26,1286.74C1116.08,1287.65 1117.19,1288.11 1118.59,1288.11Z" style="fill:#01377d;fill-rule:nonzero;stroke:#01377d;stroke-width:0.32px;stroke-miterlimit:2;"/>
            <path d="M1142.18,1274.48L1142.18,1277.86L1137.61,1277.86L1137.61,1291.78L1133.4,1291.78L1133.4,1277.86L1128.82,1277.86L1128.82,1274.48L1142.18,1274.48Z" style="fill:#01377d;fill-rule:nonzero;stroke:#01377d;stroke-width:0.32px;stroke-miterlimit:2;"/>
            <path d="M1159.26,1274.48L1159.26,1291.78L1155.05,1291.78L1155.05,1284.66L1148.51,1284.66L1148.51,1291.78L1144.3,1291.78L1144.3,1274.48L1148.51,1274.48L1148.51,1281.26L1155.05,1281.26L1155.05,1274.48L1159.26,1274.48Z" style="fill:#01377d;fill-rule:nonzero;stroke:#01377d;stroke-width:0.32px;stroke-miterlimit:2;"/>
            <path d="M1166.49,1277.86L1166.49,1281.36L1172.13,1281.36L1172.13,1284.61L1166.49,1284.61L1166.49,1288.4L1172.87,1288.4L1172.87,1291.78L1162.29,1291.78L1162.29,1274.48L1172.87,1274.48L1172.87,1277.86L1166.49,1277.86Z" style="fill:#01377d;fill-rule:nonzero;stroke:#01377d;stroke-width:0.32px;stroke-miterlimit:2;"/>
            <path d="M1184.4,1291.78L1180.81,1285.25L1179.8,1285.25L1179.8,1291.78L1175.6,1291.78L1175.6,1274.48L1182.66,1274.48C1184.02,1274.48 1185.18,1274.72 1186.14,1275.2C1187.1,1275.67 1187.82,1276.33 1188.29,1277.15C1188.77,1277.99 1189.01,1278.91 1189.01,1279.93C1189.01,1281.08 1188.68,1282.1 1188.03,1283.01C1187.39,1283.91 1186.43,1284.55 1185.17,1284.93L1189.15,1291.78L1184.4,1291.78ZM1179.8,1282.27L1182.41,1282.27C1183.18,1282.27 1183.76,1282.08 1184.15,1281.7C1184.53,1281.32 1184.73,1280.79 1184.73,1280.1C1184.73,1279.44 1184.53,1278.92 1184.15,1278.55C1183.76,1278.17 1183.18,1277.98 1182.41,1277.98L1179.8,1277.98L1179.8,1282.27Z" style="fill:#01377d;fill-rule:nonzero;stroke:#01377d;stroke-width:0.32px;stroke-miterlimit:2;"/>
            <path d="M1197.89,1291.95C1196.62,1291.95 1195.49,1291.75 1194.49,1291.34C1193.49,1290.92 1192.69,1290.32 1192.09,1289.51C1191.5,1288.71 1191.18,1287.74 1191.15,1286.61L1195.62,1286.61C1195.69,1287.25 1195.91,1287.73 1196.29,1288.07C1196.67,1288.41 1197.16,1288.58 1197.77,1288.58C1198.39,1288.58 1198.88,1288.43 1199.24,1288.14C1199.6,1287.86 1199.78,1287.46 1199.78,1286.95C1199.78,1286.52 1199.64,1286.17 1199.35,1285.89C1199.07,1285.61 1198.71,1285.38 1198.29,1285.2C1197.88,1285.02 1197.28,1284.81 1196.51,1284.58C1195.39,1284.24 1194.48,1283.89 1193.78,1283.55C1193.07,1283.2 1192.47,1282.69 1191.96,1282.02C1191.45,1281.35 1191.2,1280.47 1191.2,1279.38C1191.2,1277.78 1191.78,1276.52 1192.94,1275.6C1194.11,1274.69 1195.62,1274.24 1197.49,1274.24C1199.4,1274.24 1200.93,1274.69 1202.1,1275.6C1203.26,1276.52 1203.88,1277.78 1203.96,1279.41L1199.41,1279.41C1199.38,1278.85 1199.17,1278.41 1198.8,1278.09C1198.42,1277.77 1197.94,1277.61 1197.35,1277.61C1196.84,1277.61 1196.43,1277.75 1196.12,1278.02C1195.81,1278.29 1195.65,1278.68 1195.65,1279.19C1195.65,1279.75 1195.91,1280.18 1196.44,1280.49C1196.96,1280.81 1197.78,1281.14 1198.9,1281.5C1200.01,1281.88 1200.92,1282.24 1201.62,1282.59C1202.31,1282.93 1202.91,1283.43 1203.42,1284.09C1203.93,1284.75 1204.19,1285.6 1204.19,1286.63C1204.19,1287.62 1203.94,1288.51 1203.44,1289.32C1202.94,1290.12 1202.21,1290.76 1201.26,1291.24C1200.31,1291.71 1199.18,1291.95 1197.89,1291.95Z" style="fill:#01377d;fill-rule:nonzero;stroke:#01377d;stroke-width:0.32px;stroke-miterlimit:2;"/>
        </g>
        <g>
            <g>
                <g style="filter:url(#_Effect19);">
                    <path d="M873.482,1062.5L873.482,1251.5C873.482,1303.65 831.143,1345.99 778.994,1345.99L590.017,1345.99C537.868,1345.99 495.529,1303.65 495.529,1251.5L495.529,1062.5C495.529,1010.35 537.868,968.012 590.017,968.012L778.994,968.012C831.143,968.012 873.482,1010.35 873.482,1062.5Z" style="fill:none;stroke:#01377d;stroke-opacity:0.1;stroke-width:12.7px;"/>
                </g>
                <path d="M873.482,1062.5L873.482,1251.5C873.482,1303.65 831.143,1345.99 778.994,1345.99L590.017,1345.99C537.868,1345.99 495.529,1303.65 495.529,1251.5L495.529,1062.5C495.529,1010.35 537.868,968.012 590.017,968.012L778.994,968.012C831.143,968.012 873.482,1010.35 873.482,1062.5Z" style="fill:#fff;fill-opacity:0.7;stroke:#fff;stroke-opacity:0.7;stroke-width:0.46px;"/>
            </g>
            <g>
                <path d="M759.131,1154.66L759.131,1212.63C759.131,1228.63 746.144,1241.62 730.147,1241.62L642.252,1241.62C626.255,1241.62 613.267,1228.63 613.267,1212.63L613.267,1154.66C613.267,1138.66 626.255,1125.68 642.252,1125.68L730.147,1125.68C746.144,1125.68 759.131,1138.66 759.131,1154.66Z" style="fill:#7cd24c;"/>
                <path d="M615.596,1038.74L753.415,1038.74C777.401,1038.74 796.874,1058.21 796.874,1082.19L796.874,1169.11C796.874,1193.1 777.401,1212.57 753.415,1212.57L615.596,1212.57C591.61,1212.57 572.137,1193.1 572.137,1169.11L572.137,1082.19C572.137,1058.21 591.61,1038.74 615.596,1038.74Z" style="fill:#01377d;"/>
                <clipPath id="_clip20">
                    <path d="M615.596,1038.74L753.415,1038.74C777.401,1038.74 796.874,1058.21 796.874,1082.19L796.874,1169.11C796.874,1193.1 777.401,1212.57 753.415,1212.57L615.596,1212.57C591.61,1212.57 572.137,1193.1 572.137,1169.11L572.137,1082.19C572.137,1058.21 591.61,1038.74 615.596,1038.74Z"/>
                </clipPath>
                <g clip-path="url(#_clip20)">
                    <g>
                        <g style="filter:url(#_Effect21);">
                            <path d="M759.131,1154.66L759.131,1212.63C759.131,1228.63 746.144,1241.62 730.147,1241.62L642.252,1241.62C626.255,1241.62 613.267,1228.63 613.267,1212.63L613.267,1154.66C613.267,1138.66 626.255,1125.68 642.252,1125.68L730.147,1125.68C746.144,1125.68 759.131,1138.66 759.131,1154.66Z" style="fill:none;stroke:#fff;stroke-width:6.3px;stroke-linejoin:bevel;stroke-miterlimit:0.348837;"/>
                            <path d="M759.131,1154.66L759.131,1212.63C759.131,1228.63 746.144,1241.62 730.147,1241.62L642.252,1241.62C626.255,1241.62 613.267,1228.63 613.267,1212.63L613.267,1154.66C613.267,1138.66 626.255,1125.68 642.252,1125.68L730.147,1125.68C746.144,1125.68 759.131,1138.66 759.131,1154.66Z" style="fill:#9dafff;"/>
                        </g>
                    </g>
                </g>
                <ellipse cx="728.31" cy="1164.25" rx="8.246" ry="8.257" style="fill:#fff;"/>
            </g>
            <path d="M646.148,1291.95C644.524,1291.95 643.035,1291.57 641.682,1290.82C640.329,1290.06 639.254,1289.01 638.459,1287.65C637.663,1286.3 637.266,1284.77 637.266,1283.08C637.266,1281.39 637.663,1279.87 638.459,1278.52C639.254,1277.18 640.329,1276.12 641.682,1275.37C643.035,1274.61 644.524,1274.24 646.148,1274.24C647.772,1274.24 649.26,1274.61 650.613,1275.37C651.967,1276.12 653.033,1277.18 653.812,1278.52C654.591,1279.87 654.981,1281.39 654.981,1283.08C654.981,1284.77 654.587,1286.3 653.8,1287.65C653.012,1289.01 651.946,1290.06 650.601,1290.82C649.256,1291.57 647.772,1291.95 646.148,1291.95ZM646.148,1288.11C647.525,1288.11 648.629,1287.65 649.457,1286.73C650.285,1285.81 650.699,1284.59 650.699,1283.08C650.699,1281.55 650.285,1280.33 649.457,1279.42C648.629,1278.51 647.525,1278.06 646.148,1278.06C644.753,1278.06 643.642,1278.51 642.814,1279.41C641.985,1280.31 641.571,1281.54 641.571,1283.08C641.571,1284.61 641.985,1285.83 642.814,1286.74C643.642,1287.65 644.753,1288.11 646.148,1288.11Z" style="fill:#01377d;fill-rule:nonzero;stroke:#01377d;stroke-width:0.32px;stroke-miterlimit:2;"/>
            <path d="M669.743,1274.48L669.743,1277.86L665.167,1277.86L665.167,1291.78L660.959,1291.78L660.959,1277.86L656.383,1277.86L656.383,1274.48L669.743,1274.48Z" style="fill:#01377d;fill-rule:nonzero;stroke:#01377d;stroke-width:0.32px;stroke-miterlimit:2;"/>
            <path d="M686.818,1274.48L686.818,1291.78L682.611,1291.78L682.611,1284.66L676.066,1284.66L676.066,1291.78L671.859,1291.78L671.859,1274.48L676.066,1274.48L676.066,1281.26L682.611,1281.26L682.611,1274.48L686.818,1274.48Z" style="fill:#01377d;fill-rule:nonzero;stroke:#01377d;stroke-width:0.32px;stroke-miterlimit:2;"/>
            <path d="M694.052,1277.86L694.052,1281.36L699.686,1281.36L699.686,1284.61L694.052,1284.61L694.052,1288.4L700.424,1288.4L700.424,1291.78L689.845,1291.78L689.845,1274.48L700.424,1274.48L700.424,1277.86L694.052,1277.86Z" style="fill:#01377d;fill-rule:nonzero;stroke:#01377d;stroke-width:0.32px;stroke-miterlimit:2;"/>
            <path d="M711.964,1291.78L708.372,1285.25L707.363,1285.25L707.363,1291.78L703.156,1291.78L703.156,1274.48L710.217,1274.48C711.578,1274.48 712.739,1274.72 713.698,1275.2C714.658,1275.67 715.376,1276.33 715.851,1277.15C716.327,1277.99 716.565,1278.91 716.565,1279.93C716.565,1281.08 716.241,1282.1 715.593,1283.01C714.945,1283.91 713.99,1284.55 712.727,1284.93L716.712,1291.78L711.964,1291.78ZM707.363,1282.27L709.971,1282.27C710.742,1282.27 711.32,1282.08 711.705,1281.7C712.091,1281.32 712.284,1280.79 712.284,1280.1C712.284,1279.44 712.091,1278.92 711.705,1278.55C711.32,1278.17 710.742,1277.98 709.971,1277.98L707.363,1277.98L707.363,1282.27Z" style="fill:#01377d;fill-rule:nonzero;stroke:#01377d;stroke-width:0.32px;stroke-miterlimit:2;"/>
            <path d="M725.447,1291.95C724.184,1291.95 723.052,1291.75 722.052,1291.34C721.051,1290.92 720.251,1290.32 719.653,1289.51C719.054,1288.71 718.738,1287.74 718.705,1286.61L723.183,1286.61C723.249,1287.25 723.47,1287.73 723.848,1288.07C724.225,1288.41 724.717,1288.58 725.324,1288.58C725.947,1288.58 726.439,1288.43 726.8,1288.14C727.161,1287.86 727.341,1287.46 727.341,1286.95C727.341,1286.52 727.198,1286.17 726.911,1285.89C726.624,1285.61 726.271,1285.38 725.853,1285.2C725.435,1285.02 724.84,1284.81 724.069,1284.58C722.954,1284.24 722.043,1283.89 721.338,1283.55C720.633,1283.2 720.026,1282.69 719.517,1282.02C719.009,1281.35 718.755,1280.47 718.755,1279.38C718.755,1277.78 719.337,1276.52 720.501,1275.6C721.666,1274.69 723.183,1274.24 725.053,1274.24C726.956,1274.24 728.49,1274.69 729.654,1275.6C730.819,1276.52 731.442,1277.78 731.524,1279.41L726.972,1279.41C726.94,1278.85 726.735,1278.41 726.357,1278.09C725.98,1277.77 725.496,1277.61 724.906,1277.61C724.397,1277.61 723.987,1277.75 723.675,1278.02C723.364,1278.29 723.208,1278.68 723.208,1279.19C723.208,1279.75 723.47,1280.18 723.995,1280.49C724.52,1280.81 725.34,1281.14 726.456,1281.5C727.571,1281.88 728.477,1282.24 729.174,1282.59C729.872,1282.93 730.474,1283.43 730.983,1284.09C731.491,1284.75 731.746,1285.6 731.746,1286.63C731.746,1287.62 731.495,1288.51 730.995,1289.32C730.495,1290.12 729.769,1290.76 728.818,1291.24C727.866,1291.71 726.743,1291.95 725.447,1291.95Z" style="fill:#01377d;fill-rule:nonzero;stroke:#01377d;stroke-width:0.32px;stroke-miterlimit:2;"/>
        </g>
        <g>
            <g>
                <g style="filter:url(#_Effect22);">
                    <path d="M401.041,1062.5L401.041,1251.5C401.041,1303.65 358.702,1345.99 306.553,1345.99L117.576,1345.99C65.427,1345.99 23.088,1303.65 23.088,1251.5L23.088,1062.5C23.088,1010.35 65.427,968.012 117.576,968.012L306.553,968.012C358.702,968.012 401.041,1010.35 401.041,1062.5Z" style="fill:none;stroke:#01377d;stroke-opacity:0.1;stroke-width:12.7px;"/>
                </g>
                <path d="M401.041,1062.5L401.041,1251.5C401.041,1303.65 358.702,1345.99 306.553,1345.99L117.576,1345.99C65.427,1345.99 23.088,1303.65 23.088,1251.5L23.088,1062.5C23.088,1010.35 65.427,968.012 117.576,968.012L306.553,968.012C358.702,968.012 401.041,1010.35 401.041,1062.5Z" style="fill:#fff;fill-opacity:0.7;stroke:#fff;stroke-opacity:0.7;stroke-width:0.46px;"/>
            </g>
            <g>
                <path d="M286.691,1154.66L286.691,1212.63C286.691,1228.63 273.703,1241.62 257.706,1241.62L169.811,1241.62C153.814,1241.62 140.826,1228.63 140.826,1212.63L140.826,1154.66C140.826,1138.66 153.814,1125.68 169.811,1125.68L257.706,1125.68C273.703,1125.68 286.691,1138.66 286.691,1154.66Z" style="fill:#7cd24c;"/>
                <path d="M143.155,1038.74L280.974,1038.74C304.96,1038.74 324.433,1058.21 324.433,1082.19L324.433,1169.11C324.433,1193.1 304.96,1212.57 280.974,1212.57L143.155,1212.57C119.169,1212.57 99.696,1193.1 99.696,1169.11L99.696,1082.19C99.696,1058.21 119.169,1038.74 143.155,1038.74Z" style="fill:#01377d;"/>
                <clipPath id="_clip23">
                    <path d="M143.155,1038.74L280.974,1038.74C304.96,1038.74 324.433,1058.21 324.433,1082.19L324.433,1169.11C324.433,1193.1 304.96,1212.57 280.974,1212.57L143.155,1212.57C119.169,1212.57 99.696,1193.1 99.696,1169.11L99.696,1082.19C99.696,1058.21 119.169,1038.74 143.155,1038.74Z"/>
                </clipPath>
                <g clip-path="url(#_clip23)">
                    <g>
                        <g style="filter:url(#_Effect24);">
                            <path d="M286.691,1154.66L286.691,1212.63C286.691,1228.63 273.703,1241.62 257.706,1241.62L169.811,1241.62C153.814,1241.62 140.826,1228.63 140.826,1212.63L140.826,1154.66C140.826,1138.66 153.814,1125.68 169.811,1125.68L257.706,1125.68C273.703,1125.68 286.691,1138.66 286.691,1154.66Z" style="fill:none;stroke:#fff;stroke-width:6.3px;stroke-linejoin:bevel;stroke-miterlimit:0.348837;"/>
                            <path d="M286.691,1154.66L286.691,1212.63C286.691,1228.63 273.703,1241.62 257.706,1241.62L169.811,1241.62C153.814,1241.62 140.826,1228.63 140.826,1212.63L140.826,1154.66C140.826,1138.66 153.814,1125.68 169.811,1125.68L257.706,1125.68C273.703,1125.68 286.691,1138.66 286.691,1154.66Z" style="fill:#9dafff;"/>
                        </g>
                    </g>
                </g>
                <ellipse cx="255.869" cy="1164.25" rx="8.246" ry="8.257" style="fill:#fff;"/>
            </g>
            <path d="M173.707,1291.95C172.083,1291.95 170.594,1291.57 169.241,1290.82C167.888,1290.06 166.813,1289.01 166.018,1287.65C165.222,1286.3 164.825,1284.77 164.825,1283.08C164.825,1281.39 165.222,1279.87 166.018,1278.52C166.813,1277.18 167.888,1276.12 169.241,1275.37C170.594,1274.61 172.083,1274.24 173.707,1274.24C175.331,1274.24 176.819,1274.61 178.172,1275.37C179.526,1276.12 180.592,1277.18 181.371,1278.52C182.15,1279.87 182.54,1281.39 182.54,1283.08C182.54,1284.77 182.146,1286.3 181.359,1287.65C180.571,1289.01 179.505,1290.06 178.16,1290.82C176.815,1291.57 175.331,1291.95 173.707,1291.95ZM173.707,1288.11C175.085,1288.11 176.188,1287.65 177.016,1286.73C177.844,1285.81 178.258,1284.59 178.258,1283.08C178.258,1281.55 177.844,1280.33 177.016,1279.42C176.188,1278.51 175.085,1278.06 173.707,1278.06C172.312,1278.06 171.201,1278.51 170.373,1279.41C169.544,1280.31 169.13,1281.54 169.13,1283.08C169.13,1284.61 169.544,1285.83 170.373,1286.74C171.201,1287.65 172.312,1288.11 173.707,1288.11Z" style="fill:#01377d;fill-rule:nonzero;stroke:#01377d;stroke-width:0.32px;stroke-miterlimit:2;"/>
            <path d="M197.302,1274.48L197.302,1277.86L192.726,1277.86L192.726,1291.78L188.518,1291.78L188.518,1277.86L183.942,1277.86L183.942,1274.48L197.302,1274.48Z" style="fill:#01377d;fill-rule:nonzero;stroke:#01377d;stroke-width:0.32px;stroke-miterlimit:2;"/>
            <path d="M214.377,1274.48L214.377,1291.78L210.17,1291.78L210.17,1284.66L203.625,1284.66L203.625,1291.78L199.418,1291.78L199.418,1274.48L203.625,1274.48L203.625,1281.26L210.17,1281.26L210.17,1274.48L214.377,1274.48Z" style="fill:#01377d;fill-rule:nonzero;stroke:#01377d;stroke-width:0.32px;stroke-miterlimit:2;"/>
            <path d="M221.611,1277.86L221.611,1281.36L227.245,1281.36L227.245,1284.61L221.611,1284.61L221.611,1288.4L227.984,1288.4L227.984,1291.78L217.404,1291.78L217.404,1274.48L227.984,1274.48L227.984,1277.86L221.611,1277.86Z" style="fill:#01377d;fill-rule:nonzero;stroke:#01377d;stroke-width:0.32px;stroke-miterlimit:2;"/>
            <path d="M239.523,1291.78L235.931,1285.25L234.922,1285.25L234.922,1291.78L230.715,1291.78L230.715,1274.48L237.776,1274.48C239.137,1274.48 240.298,1274.72 241.257,1275.2C242.217,1275.67 242.935,1276.33 243.41,1277.15C243.886,1277.99 244.124,1278.91 244.124,1279.93C244.124,1281.08 243.8,1282.1 243.152,1283.01C242.504,1283.91 241.549,1284.55 240.286,1284.93L244.271,1291.78L239.523,1291.78ZM234.922,1282.27L237.53,1282.27C238.301,1282.27 238.879,1282.08 239.265,1281.7C239.65,1281.32 239.843,1280.79 239.843,1280.1C239.843,1279.44 239.65,1278.92 239.265,1278.55C238.879,1278.17 238.301,1277.98 237.53,1277.98L234.922,1277.98L234.922,1282.27Z" style="fill:#01377d;fill-rule:nonzero;stroke:#01377d;stroke-width:0.32px;stroke-miterlimit:2;"/>
            <path d="M253.006,1291.95C251.743,1291.95 250.611,1291.75 249.611,1291.34C248.61,1290.92 247.81,1290.32 247.212,1289.51C246.613,1288.71 246.297,1287.74 246.264,1286.61L250.742,1286.61C250.808,1287.25 251.029,1287.73 251.407,1288.07C251.784,1288.41 252.276,1288.58 252.883,1288.58C253.506,1288.58 253.998,1288.43 254.359,1288.14C254.72,1287.86 254.9,1287.46 254.9,1286.95C254.9,1286.52 254.757,1286.17 254.47,1285.89C254.183,1285.61 253.83,1285.38 253.412,1285.2C252.994,1285.02 252.399,1284.81 251.628,1284.58C250.513,1284.24 249.602,1283.89 248.897,1283.55C248.192,1283.2 247.585,1282.69 247.076,1282.02C246.568,1281.35 246.314,1280.47 246.314,1279.38C246.314,1277.78 246.896,1276.52 248.061,1275.6C249.225,1274.69 250.742,1274.24 252.612,1274.24C254.515,1274.24 256.049,1274.69 257.213,1275.6C258.378,1276.52 259.001,1277.78 259.083,1279.41L254.531,1279.41C254.499,1278.85 254.294,1278.41 253.916,1278.09C253.539,1277.77 253.055,1277.61 252.465,1277.61C251.956,1277.61 251.546,1277.75 251.234,1278.02C250.923,1278.29 250.767,1278.68 250.767,1279.19C250.767,1279.75 251.029,1280.18 251.554,1280.49C252.079,1280.81 252.899,1281.14 254.015,1281.5C255.13,1281.88 256.036,1282.24 256.734,1282.59C257.431,1282.93 258.033,1283.43 258.542,1284.09C259.05,1284.75 259.305,1285.6 259.305,1286.63C259.305,1287.62 259.055,1288.51 258.554,1289.32C258.054,1290.12 257.328,1290.76 256.377,1291.24C255.425,1291.71 254.302,1291.95 253.006,1291.95Z" style="fill:#01377d;fill-rule:nonzero;stroke:#01377d;stroke-width:0.32px;stroke-miterlimit:2;"/>
        </g>
        <g>
            <g>
                <g style="filter:url(#_Effect25);">
                    <path d="M873.482,590.059L873.482,779.035C873.482,831.185 831.143,873.524 778.994,873.524L590.017,873.524C537.868,873.524 495.529,831.185 495.529,779.035L495.529,590.059C495.529,537.91 537.868,495.571 590.017,495.571L778.994,495.571C831.143,495.571 873.482,537.91 873.482,590.059Z" style="fill:none;stroke:#01377d;stroke-opacity:0.1;stroke-width:12.7px;"/>
                </g>
                <path d="M873.482,590.059L873.482,779.035C873.482,831.185 831.143,873.524 778.994,873.524L590.017,873.524C537.868,873.524 495.529,831.185 495.529,779.035L495.529,590.059C495.529,537.91 537.868,495.571 590.017,495.571L778.994,495.571C831.143,495.571 873.482,537.91 873.482,590.059Z" style="fill:#fff;fill-opacity:0.7;stroke:#fff;stroke-opacity:0.7;stroke-width:0.46px;"/>
            </g>
            <g>
                <path d="M705.683,674.555L705.683,706.785C705.683,731.051 691.073,742.259 669.075,742.259C661.381,742.259 653.286,740.874 646.529,737.121L654.82,713.078C657.889,715.089 661.95,716.999 666.519,716.999C672.765,716.999 677.021,713.031 677.021,706.358L677.021,645.912L677.041,645.912L705.683,674.555Z" style="fill:#01377d;"/>
                <g>
                    <g>
                        <path d="M633.77,740.803L668.677,646.157L636.177,646.157L615.74,709.865L595.313,646.157L562.813,646.157L597.72,740.803L633.77,740.803Z" style="fill:#01377d;fill-rule:nonzero;"/>
                    </g>
                </g>
                <path d="M762.49,742.244C788.039,742.244 800.669,727.207 806.198,714.577L781.505,703.22C779.098,710.599 771.719,716.984 762.49,716.984C749.433,716.984 740.214,706.482 740.214,693.285C740.214,680.088 749.433,669.596 762.49,669.596C771.719,669.596 779.098,675.981 781.505,683.36L806.198,671.864C800.52,658.806 788.039,644.336 762.49,644.336C733.541,644.336 711.125,664.057 711.125,693.285C711.125,722.384 733.541,742.244 762.49,742.244Z" style="fill:#01377d;fill-rule:nonzero;"/>
                <path d="M686.106,626.835L720.677,626.835L720.677,661.335L686.106,626.835Z" style="fill:#7ed348;fill-rule:nonzero;"/>
                <path d="M676.641,637.825L710.791,637.825L710.791,671.921L676.641,637.825Z" style="fill:#26b170;fill-rule:nonzero;"/>
            </g>
        </g>
    </g>
    <defs>
        <filter id="_Effect1" filterUnits="userSpaceOnUse" x="455.705" y="-16.7364" width="457.602" height="457.623">
            <feGaussianBlur in="SourceGraphic" stdDeviation="5.5788"/>
        </filter>
        <filter id="_Effect3" filterUnits="userSpaceOnUse" x="578.111" y="145.596" width="216.176" height="186.251">
            <feGaussianBlur in="SourceGraphic" stdDeviation="5.33393"/>
        </filter>
        <filter id="_Effect4" filterUnits="userSpaceOnUse" x="-16.7364" y="-16.7364" width="457.602" height="457.623">
            <feGaussianBlur in="SourceGraphic" stdDeviation="5.5788"/>
        </filter>
        <filter id="_Effect6" filterUnits="userSpaceOnUse" x="105.67" y="145.596" width="216.176" height="186.251">
            <feGaussianBlur in="SourceGraphic" stdDeviation="5.33393"/>
        </filter>
        <filter id="_Effect7" filterUnits="userSpaceOnUse" x="-16.7364" y="455.725" width="457.602" height="457.623">
            <feGaussianBlur in="SourceGraphic" stdDeviation="5.5788"/>
        </filter>
        <filter id="_Effect9" filterUnits="userSpaceOnUse" x="105.67" y="618.058" width="216.176" height="186.251">
            <feGaussianBlur in="SourceGraphic" stdDeviation="5.33393"/>
        </filter>
        <filter id="_Effect10" filterUnits="userSpaceOnUse" x="928.145" y="-16.7155" width="457.602" height="457.623">
            <feGaussianBlur in="SourceGraphic" stdDeviation="5.5788"/>
        </filter>
        <filter id="_Effect12" filterUnits="userSpaceOnUse" x="1050.55" y="145.617" width="216.176" height="186.251">
            <feGaussianBlur in="SourceGraphic" stdDeviation="5.33393"/>
        </filter>
        <filter id="_Effect13" filterUnits="userSpaceOnUse" x="928.145" y="455.746" width="457.602" height="457.623">
            <feGaussianBlur in="SourceGraphic" stdDeviation="5.5788"/>
        </filter>
        <filter id="_Effect15" filterUnits="userSpaceOnUse" x="1050.55" y="618.079" width="216.176" height="186.251">
            <feGaussianBlur in="SourceGraphic" stdDeviation="5.33393"/>
        </filter>
        <filter id="_Effect16" filterUnits="userSpaceOnUse" x="928.145" y="928.187" width="457.602" height="457.623">
            <feGaussianBlur in="SourceGraphic" stdDeviation="5.5788"/>
        </filter>
        <filter id="_Effect18" filterUnits="userSpaceOnUse" x="1050.55" y="1090.52" width="216.176" height="186.251">
            <feGaussianBlur in="SourceGraphic" stdDeviation="5.33393"/>
        </filter>
        <filter id="_Effect19" filterUnits="userSpaceOnUse" x="455.705" y="928.187" width="457.602" height="457.623">
            <feGaussianBlur in="SourceGraphic" stdDeviation="5.5788"/>
        </filter>
        <filter id="_Effect21" filterUnits="userSpaceOnUse" x="578.111" y="1090.52" width="216.176" height="186.251">
            <feGaussianBlur in="SourceGraphic" stdDeviation="5.33393"/>
        </filter>
        <filter id="_Effect22" filterUnits="userSpaceOnUse" x="-16.7364" y="928.187" width="457.602" height="457.623">
            <feGaussianBlur in="SourceGraphic" stdDeviation="5.5788"/>
        </filter>
        <filter id="_Effect24" filterUnits="userSpaceOnUse" x="105.67" y="1090.52" width="216.176" height="186.251">
            <feGaussianBlur in="SourceGraphic" stdDeviation="5.33393"/>
        </filter>
        <filter id="_Effect25" filterUnits="userSpaceOnUse" x="455.705" y="455.746" width="457.602" height="457.602">
            <feGaussianBlur in="SourceGraphic" stdDeviation="5.5788"/>
        </filter>
    </defs>
</svg>
