<?xml version="1.0" encoding="UTF-8" standalone="no"?><!DOCTYPE svg PUBLIC "-//W3C//DTD SVG 1.1//EN" "http://www.w3.org/Graphics/SVG/1.1/DTD/svg11.dtd"><svg width="100%" height="100%" viewBox="0 0 200 125" version="1.1" xmlns="http://www.w3.org/2000/svg" xmlns:xlink="http://www.w3.org/1999/xlink" xml:space="preserve" xmlns:serif="http://www.serif.com/" style="fill-rule:evenodd;clip-rule:evenodd;stroke-linejoin:round;stroke-miterlimit:2;"><g><path d="M25.418,65.413c0.466,0 0.933,0.266 1.166,0.666c0.233,0.4 0.233,0.866 -0.033,1.266l0,0.033c-1.666,2.632 -4.331,4.564 -7.329,5.263c-0.833,0.2 -1.399,0.933 -1.399,1.799c0,0.999 0.8,1.832 1.799,1.832c0.133,0 0.266,-0.033 0.433,-0.033c3.365,-0.8 6.396,-2.732 8.561,-5.43c2.232,-2.798 3.431,-6.163 3.431,-9.727c0,-3.564 -1.166,-6.929 -3.431,-9.727c-2.165,-2.698 -5.197,-4.631 -8.561,-5.43c-0.133,-0.033 -0.266,-0.033 -0.433,-0.033c-0.999,0 -1.799,0.833 -1.799,1.832c0,0.866 0.566,1.599 1.399,1.799c2.998,0.733 5.663,2.632 7.329,5.263l0.033,0.033c0.233,0.4 0.233,0.866 0,1.266c-0.233,0.433 -0.666,0.666 -1.166,0.666c-0.2,0 -0.367,-0.033 -0.566,-0.133c-0.666,-0.3 -1.366,-0.466 -2.099,-0.466c-2.598,0 -4.764,2.032 -4.931,4.664l0,0.533c0.167,2.598 2.299,4.664 4.931,4.664c0.733,0 1.433,-0.167 2.099,-0.466c0.2,-0.1 0.367,-0.133 0.566,-0.133m-11.993,-19.555c-0.133,0 -0.266,0 -0.433,0.033c-3.365,0.8 -6.396,2.732 -8.561,5.43c-2.232,2.798 -3.431,6.163 -3.431,9.727c-0,3.564 1.166,6.929 3.431,9.727c2.165,2.698 5.197,4.631 8.561,5.43c0.133,0.033 0.266,0.033 0.433,0.033c0.999,0 1.799,-0.833 1.799,-1.832c0,-0.866 -0.566,-1.599 -1.399,-1.799c-2.998,-0.733 -5.663,-2.632 -7.329,-5.263l0,-0.033c-0.233,-0.4 -0.233,-0.866 -0.033,-1.299c0.233,-0.433 0.666,-0.666 1.166,-0.666c0.2,0 0.367,0.033 0.566,0.133c0.666,0.3 1.366,0.466 2.099,0.466c2.598,0 4.764,-2.032 4.931,-4.664l0,-0.533c-0.167,-2.598 -2.299,-4.664 -4.931,-4.664c-0.733,0 -1.433,0.167 -2.099,0.466c-0.167,0.1 -0.367,0.133 -0.566,0.133c-0.466,0 -0.933,-0.266 -1.166,-0.666c-0.233,-0.4 -0.233,-0.866 0.033,-1.266c1.666,-2.632 4.331,-4.531 7.329,-5.263c0.833,-0.2 1.399,-0.933 1.399,-1.799c0,-1.033 -0.8,-1.832 -1.799,-1.832" style="fill:#00d7ff;fill-rule:nonzero;"/><path id="Fill-3" d="M46.273,62.915c-0.966,1.199 -2.165,1.866 -3.498,1.866c-2.132,0 -3.631,-1.433 -3.931,-3.398l9.361,0c0,-4.064 -2.332,-6.763 -5.73,-6.763c-3.431,0 -5.63,2.732 -5.63,5.996c0,3.065 2.065,6.03 5.963,6.03c1.899,0 3.464,-0.766 4.931,-2.499l-1.466,-1.233l-0,0.001Zm-7.429,-3.165c0.2,-1.566 1.299,-3.298 3.598,-3.298c1.965,0 3.431,1.399 3.598,3.298l-7.196,0l0,0Zm24.785,6.629l1.899,0l0,-7.262c0,-3.031 -1.832,-4.497 -4.197,-4.497c-1.433,0 -2.898,0.533 -3.564,1.999c-0.899,-1.666 -2.132,-1.999 -3.231,-1.999c-1.166,0 -2.499,0.466 -3.031,1.632l-0.033,0l0,-1.366l-1.899,0l0,11.493l1.899,0l0,-6.962c0,-1.932 1.166,-2.965 2.732,-2.965c1.299,0 2.398,0.866 2.398,2.865l0,7.029l1.899,0l0,-6.962c0,-1.932 1.166,-2.965 2.732,-2.965c1.299,0 2.398,0.866 2.398,2.865l0,7.096Zm13.692,-5.863c0,2.632 -1.965,4.264 -3.931,4.264c-2.165,0 -3.931,-1.866 -3.931,-4.131c0,-2.332 1.799,-4.164 3.864,-4.164c2.532,-0.033 3.998,2.132 3.998,4.031l0,0Zm-9.761,10.693l1.899,0l0,-6.629l0.033,0c0.8,1.199 2.165,2.032 4.064,2.032c3.031,0 5.763,-2.499 5.763,-6.13c0,-3.298 -2.598,-5.896 -5.663,-5.896c-1.599,0 -3.265,0.699 -4.164,2.065l-0.033,0l0,-1.799l-1.899,0l0,16.357Zm13.026,-20.321l0,12.026c0,2.398 1.166,3.431 2.898,3.431l0.766,0l0,-1.866l-0.566,0c-0.6,0 -1.199,-0.433 -1.199,-1.732l0,-11.86l-1.899,0l-0,0Zm3.931,9.761c0,3.298 2.332,5.996 5.896,5.996c3.564,0 5.896,-2.698 5.896,-5.996c0,-3.231 -2.465,-6.03 -5.896,-6.03c-3.431,0 -5.896,2.765 -5.896,6.03Zm5.896,-4.197c2.099,0 3.898,1.799 3.898,4.164c0,2.198 -1.799,4.131 -3.898,4.131c-2.099,0 -3.898,-1.932 -3.898,-4.131c0,-2.365 1.799,-4.164 3.898,-4.164Zm8.595,14.758l1.965,0l6.696,-16.357l-1.999,0l-3.531,8.861l-3.498,-8.828l-2.132,0l4.564,11.326l-2.065,4.997Zm23.885,-4.83l1.899,0l0,-7.262c0,-3.031 -1.832,-4.497 -4.197,-4.497c-1.433,0 -2.898,0.533 -3.564,1.999c-0.899,-1.666 -2.132,-1.999 -3.231,-1.999c-1.166,0 -2.499,0.466 -3.031,1.632l-0.033,0l0,-1.366l-1.899,0l0,11.493l1.899,0l0,-6.962c0,-1.932 1.166,-2.965 2.732,-2.965c1.299,0 2.398,0.866 2.398,2.865l0,7.029l1.899,0l0,-6.962c0,-1.932 1.166,-2.965 2.732,-2.965c1.299,0 2.398,0.866 2.398,2.865l0,7.096Zm12.726,-3.464c-0.966,1.199 -2.165,1.866 -3.498,1.866c-2.132,0 -3.631,-1.433 -3.931,-3.398l9.361,0c0,-4.064 -2.332,-6.763 -5.73,-6.763c-3.431,0 -5.63,2.732 -5.63,5.996c0,3.065 2.065,6.03 5.963,6.03c1.899,0 3.464,-0.766 4.931,-2.499l-1.466,-1.233l-0,0.001Zm-7.429,-3.165c0.2,-1.566 1.299,-3.298 3.598,-3.298c1.965,0 3.431,1.399 3.598,3.298l-7.196,0l0,0Zm17.922,6.629l1.899,0l0,-7.429c0,-3.098 -2.099,-4.331 -4.197,-4.331c-1.199,0 -2.432,0.566 -2.998,1.599l-0.033,0l0,-1.332l-1.899,0l0,11.493l1.899,0l0,-6.463c0,-2.198 1.066,-3.431 2.831,-3.431c1.866,0 2.532,1.499 2.532,3.231l0,6.663l-0.033,0l0,-0.001Zm4.164,-11.493l-1.499,0l0,1.732l1.499,0l0,7.262c0,1.765 0.6,2.465 2.499,2.465c0.433,0 0.866,0 1.166,-0.033l0,-1.832l-0.866,0c-0.733,0 -0.933,-0.233 -0.933,-0.833l0,-7.062l1.732,0l0,-1.732l-1.732,0l0,-2.765l-1.866,0l0,2.798Zm14.791,11.493l1.899,0l0,-7.429c0,-3.098 -2.099,-4.331 -4.197,-4.331c-1.199,0 -2.432,0.566 -2.998,1.599l-0.033,0l0,-5.297l-1.899,0l0,15.457l1.899,0l0,-6.463c0,-2.198 1.066,-3.431 2.831,-3.431c1.866,0 2.532,1.499 2.532,3.231l0,6.663l-0.033,0l0,-0.001Zm12.659,-3.464c-0.966,1.199 -2.165,1.866 -3.498,1.866c-2.132,0 -3.631,-1.433 -3.931,-3.398l9.361,0c0,-4.064 -2.332,-6.763 -5.73,-6.763c-3.431,0 -5.63,2.732 -5.63,5.996c0,3.065 2.065,6.03 5.963,6.03c1.899,0 3.464,-0.766 4.931,-2.499l-1.466,-1.233l-0,0.001Zm-7.429,-3.165c0.2,-1.566 1.299,-3.298 3.598,-3.298c1.932,0 3.431,1.399 3.598,3.298l-7.196,0l0,0Zm10.76,6.629l1.899,0l0,-6.529c0,-2.099 1.033,-3.231 2.632,-3.231c0.3,0 0.6,0.033 0.866,0.1l0,-2.099c-1.599,0 -2.499,0.1 -3.431,1.899l-0.033,0l0,-1.632l-1.899,0l0,11.493l-0.033,0l-0,0Zm5.663,-5.73c0,3.298 2.332,5.996 5.896,5.996c3.564,0 5.896,-2.698 5.896,-5.996c0,-3.231 -2.465,-6.03 -5.896,-6.03c-3.431,0 -5.896,2.765 -5.896,6.03Zm5.896,-4.197c2.099,0 3.898,1.799 3.898,4.164c0,2.198 -1.799,4.131 -3.898,4.131c-2.099,0 -3.898,-1.932 -3.898,-4.131c0,-2.365 1.799,-4.164 3.898,-4.164Z" style="fill:#0028ff;fill-rule:nonzero;"/><path id="Fill-4" d="M199.712,66.279c0.666,0 1.199,-0.533 1.199,-1.199c0,-0.666 -0.533,-1.199 -1.199,-1.199c-0.666,0 -1.199,0.533 -1.199,1.199c0,0.666 0.533,1.199 1.199,1.199" style="fill:#ee1e3c;fill-rule:nonzero;"/></g></svg>