<?xml version="1.0" encoding="UTF-8" standalone="no"?><!DOCTYPE svg PUBLIC "-//W3C//DTD SVG 1.1//EN" "http://www.w3.org/Graphics/SVG/1.1/DTD/svg11.dtd"><svg width="100%" height="100%" viewBox="0 0 250 125" version="1.1" xmlns="http://www.w3.org/2000/svg" xmlns:xlink="http://www.w3.org/1999/xlink" xml:space="preserve" xmlns:serif="http://www.serif.com/" style="fill-rule:evenodd;clip-rule:evenodd;stroke-linejoin:round;stroke-miterlimit:2;"><path d="M30.537,67.937c0.583,0 1.166,0.333 1.458,0.833c0.292,0.5 0.292,1.083 -0.042,1.583l0,0.042c-2.083,3.291 -5.416,5.707 -9.165,6.582c-1.041,0.25 -1.75,1.166 -1.75,2.25c0,1.25 1,2.291 2.25,2.291c0.167,0 0.333,-0.042 0.542,-0.042c4.208,-1 7.999,-3.416 10.707,-6.791c2.791,-3.499 4.291,-7.707 4.291,-12.165c0,-4.458 -1.458,-8.665 -4.291,-12.165c-2.708,-3.374 -6.499,-5.791 -10.707,-6.791c-0.167,-0.042 -0.333,-0.042 -0.542,-0.042c-1.25,0 -2.25,1.041 -2.25,2.291c0,1.083 0.708,2 1.75,2.25c3.749,0.917 7.082,3.291 9.165,6.582l0.042,0.042c0.292,0.5 0.292,1.083 0,1.583c-0.292,0.542 -0.833,0.833 -1.458,0.833c-0.25,0 -0.458,-0.042 -0.708,-0.167c-0.833,-0.375 -1.708,-0.583 -2.625,-0.583c-3.249,0 -5.957,2.541 -6.166,5.832l0,0.667c0.208,3.249 2.875,5.832 6.166,5.832c0.917,0 1.791,-0.208 2.625,-0.583c0.25,-0.125 0.458,-0.167 0.708,-0.167m-14.998,-24.454c-0.167,0 -0.333,0 -0.542,0.042c-4.208,1 -7.999,3.416 -10.707,6.791c-2.791,3.499 -4.291,7.707 -4.291,12.165c0,4.458 1.458,8.665 4.291,12.165c2.708,3.374 6.499,5.791 10.707,6.791c0.167,0.042 0.333,0.042 0.542,0.042c1.25,0 2.25,-1.041 2.25,-2.291c0,-1.083 -0.708,-2 -1.75,-2.25c-3.749,-0.917 -7.082,-3.291 -9.165,-6.582l0,-0.042c-0.292,-0.5 -0.292,-1.083 -0.042,-1.625c0.292,-0.542 0.833,-0.833 1.458,-0.833c0.25,0 0.458,0.042 0.708,0.167c0.833,0.375 1.708,0.583 2.625,0.583c3.249,0 5.957,-2.541 6.166,-5.832l0,-0.667c-0.208,-3.249 -2.875,-5.832 -6.166,-5.832c-0.917,0 -1.791,0.208 -2.625,0.583c-0.208,0.125 -0.458,0.167 -0.708,0.167c-0.583,0 -1.166,-0.333 -1.458,-0.833c-0.292,-0.5 -0.292,-1.083 0.042,-1.583c2.083,-3.291 5.416,-5.666 9.165,-6.582c1.041,-0.25 1.75,-1.166 1.75,-2.25c-0,-1.291 -1,-2.291 -2.25,-2.291" style="fill:#00d7ff;fill-rule:nonzero;"/><path id="Fill-3" d="M56.616,64.812c-1.208,1.5 -2.708,2.333 -4.374,2.333c-2.666,0 -4.541,-1.791 -4.916,-4.249l11.706,0c0,-5.082 -2.916,-8.457 -7.165,-8.457c-4.291,0 -7.04,3.416 -7.04,7.499c0,3.833 2.583,7.54 7.457,7.54c2.375,0 4.333,-0.958 6.166,-3.124l-1.833,-1.541Zm-9.29,-3.958c0.25,-1.958 1.625,-4.124 4.499,-4.124c2.458,0 4.291,1.75 4.499,4.124l-8.999,0Zm30.995,8.29l2.375,0l0,-9.082c0,-3.791 -2.291,-5.624 -5.249,-5.624c-1.791,0 -3.624,0.667 -4.458,2.5c-1.125,-2.083 -2.666,-2.5 -4.041,-2.5c-1.458,0 -3.124,0.583 -3.791,2.041l-0.042,0l0,-1.708l-2.375,0l0,14.373l2.375,0l0,-8.707c0,-2.416 1.458,-3.708 3.416,-3.708c1.625,0 3,1.083 3,3.583l0,8.79l2.375,0l0,-8.707c0,-2.416 1.458,-3.708 3.416,-3.708c1.625,0 3,1.083 3,3.583l0,8.874Zm17.122,-7.332c0,3.291 -2.458,5.332 -4.916,5.332c-2.708,0 -4.916,-2.333 -4.916,-5.166c0,-2.916 2.25,-5.207 4.833,-5.207c3.166,-0.042 4.999,2.666 4.999,5.041Zm-12.206,13.373l2.375,0l0,-8.29l0.042,0c1,1.5 2.708,2.541 5.082,2.541c3.791,0 7.207,-3.124 7.207,-7.665c0,-4.124 -3.249,-7.374 -7.082,-7.374c-2,0 -4.083,0.875 -5.207,2.583l-0.042,0l0,-2.25l-2.375,0l0,20.455Zm16.289,-25.412l0,15.039c0,3 1.458,4.291 3.624,4.291l0.958,0l0,-2.333l-0.708,0c-0.75,0 -1.5,-0.542 -1.5,-2.166l0,-14.831l-2.375,0Zm4.916,12.206c0,4.124 2.916,7.499 7.374,7.499c4.458,0 7.374,-3.374 7.374,-7.499c0,-4.041 -3.083,-7.54 -7.374,-7.54c-4.291,0 -7.374,3.458 -7.374,7.54Zm7.374,-5.249c2.625,0 4.874,2.25 4.874,5.207c0,2.75 -2.25,5.166 -4.874,5.166c-2.625,0 -4.874,-2.416 -4.874,-5.166c0,-2.958 2.25,-5.207 4.874,-5.207Zm10.748,18.455l2.458,0l8.374,-20.455l-2.5,0l-4.416,11.081l-4.374,-11.04l-2.666,0l5.707,14.164l-2.583,6.249Zm29.87,-6.041l2.375,0l0,-9.082c0,-3.791 -2.291,-5.624 -5.249,-5.624c-1.791,0 -3.624,0.667 -4.458,2.5c-1.125,-2.083 -2.666,-2.5 -4.041,-2.5c-1.458,0 -3.124,0.583 -3.791,2.041l-0.042,0l0,-1.708l-2.375,0l0,14.373l2.375,0l0,-8.707c0,-2.416 1.458,-3.708 3.416,-3.708c1.625,0 3,1.083 3,3.583l0,8.79l2.375,0l0,-8.707c0,-2.416 1.458,-3.708 3.416,-3.708c1.625,0 3,1.083 3,3.583l0,8.874Zm15.914,-4.333c-1.208,1.5 -2.708,2.333 -4.374,2.333c-2.666,0 -4.541,-1.791 -4.916,-4.249l11.706,0c0,-5.082 -2.916,-8.457 -7.165,-8.457c-4.291,0 -7.04,3.416 -7.04,7.499c0,3.833 2.583,7.54 7.457,7.54c2.375,0 4.333,-0.958 6.166,-3.124l-1.833,-1.541Zm-9.29,-3.958c0.25,-1.958 1.625,-4.124 4.499,-4.124c2.458,0 4.291,1.75 4.499,4.124l-8.999,0Zm22.413,8.29l2.375,0l0,-9.29c0,-3.874 -2.625,-5.416 -5.249,-5.416c-1.5,0 -3.041,0.708 -3.749,2l-0.042,0l0,-1.666l-2.375,0l0,14.373l2.375,0l0,-8.082c0,-2.75 1.333,-4.291 3.541,-4.291c2.333,0 3.166,1.875 3.166,4.041l0,8.332l-0.042,0Zm5.207,-14.373l-1.875,0l0,2.166l1.875,0l0,9.082c0,2.208 0.75,3.083 3.124,3.083c0.542,0 1.083,0 1.458,-0.042l0,-2.291l-1.083,0c-0.917,0 -1.166,-0.292 -1.166,-1.041l0,-8.832l2.166,0l0,-2.166l-2.166,0l0,-3.458l-2.333,0l0,3.499Zm18.497,14.373l2.375,0l0,-9.29c0,-3.874 -2.625,-5.416 -5.249,-5.416c-1.5,0 -3.041,0.708 -3.749,2l-0.042,0l0,-6.624l-2.375,0l0,19.33l2.375,0l0,-8.082c0,-2.75 1.333,-4.291 3.541,-4.291c2.333,0 3.166,1.875 3.166,4.041l0,8.332l-0.042,0Zm15.831,-4.333c-1.208,1.5 -2.708,2.333 -4.374,2.333c-2.666,0 -4.541,-1.791 -4.916,-4.249l11.706,0c0,-5.082 -2.916,-8.457 -7.165,-8.457c-4.291,0 -7.04,3.416 -7.04,7.499c0,3.833 2.583,7.54 7.457,7.54c2.375,0 4.333,-0.958 6.166,-3.124l-1.833,-1.541Zm-9.29,-3.958c0.25,-1.958 1.625,-4.124 4.499,-4.124c2.416,0 4.291,1.75 4.499,4.124l-8.999,0Zm13.456,8.29l2.375,0l0,-8.165c0,-2.625 1.291,-4.041 3.291,-4.041c0.375,0 0.75,0.042 1.083,0.125l0,-2.625c-2,0 -3.124,0.125 -4.291,2.375l-0.042,0l0,-2.041l-2.375,0l0,14.373l-0.042,0Zm7.082,-7.165c0,4.124 2.916,7.499 7.374,7.499c4.458,0 7.374,-3.374 7.374,-7.499c0,-4.041 -3.083,-7.54 -7.374,-7.54c-4.291,0 -7.374,3.458 -7.374,7.54Zm7.374,-5.249c2.625,0 4.874,2.25 4.874,5.207c0,2.75 -2.25,5.166 -4.874,5.166c-2.625,0 -4.874,-2.416 -4.874,-5.166c0,-2.958 2.25,-5.207 4.874,-5.207Z" style="fill:#0028ff;fill-rule:nonzero;"/><path id="Fill-4" d="M248.5,69.02c0.833,0 1.5,-0.667 1.5,-1.5c0,-0.833 -0.667,-1.5 -1.5,-1.5c-0.833,0 -1.5,0.667 -1.5,1.5c0,0.833 0.667,1.5 1.5,1.5" style="fill:#ee1e3c;fill-rule:nonzero;"/></svg>