<?xml version="1.0" encoding="UTF-8" standalone="no"?><!DOCTYPE svg PUBLIC "-//W3C//DTD SVG 1.1//EN" "http://www.w3.org/Graphics/SVG/1.1/DTD/svg11.dtd"><svg width="100%" height="100%" viewBox="0 0 1434 1434" version="1.1" xmlns="http://www.w3.org/2000/svg" xmlns:xlink="http://www.w3.org/1999/xlink" xml:space="preserve" xmlns:serif="http://www.serif.com/" style="fill-rule:evenodd;clip-rule:evenodd;stroke-linejoin:round;stroke-miterlimit:2;"><ellipse cx="716.667" cy="716.667" rx="712.658" ry="712.5" style="fill:#fff;"/><path d="M821.083,507.833l74.583,0c8.234,0 14.917,-6.683 14.917,-14.917l0,-100.494c0,-7.816 -6.011,-14.32 -13.798,-14.872c-23.732,-1.686 -70.093,-3.968 -103.432,-3.968c-91.603,0 -151.27,54.893 -151.27,154.656l0,98.927l-104.417,0c-8.234,0 -14.917,6.683 -14.917,14.917l0,104.417c0,8.234 6.683,14.917 14.917,14.917l104.417,0l0,283.417c0,8.234 6.683,14.917 14.917,14.917l104.417,0c8.234,0 14.917,-6.683 14.917,-14.917l0,-283.417l107.728,0c7.607,0 13.992,-5.713 14.827,-13.276l11.605,-104.417c0.985,-8.831 -5.937,-16.558 -14.827,-16.558l-119.333,0l0,-74.583c0,-24.717 20.033,-44.75 44.75,-44.75Z" style="fill:#01377d;fill-rule:nonzero;"/></svg>