<?xml version="1.0" encoding="UTF-8" standalone="no"?>
<!DOCTYPE svg PUBLIC "-//W3C//DTD SVG 1.1//EN" "http://www.w3.org/Graphics/SVG/1.1/DTD/svg11.dtd">
<svg width="100%" height="100%" viewBox="0 0 125 125" version="1.1" xmlns="http://www.w3.org/2000/svg" xmlns:xlink="http://www.w3.org/1999/xlink" xml:space="preserve" xmlns:serif="http://www.serif.com/" style="fill-rule:evenodd;clip-rule:evenodd;stroke-linejoin:round;stroke-miterlimit:2;">
    <g transform="matrix(0.787402,0,0,0.787402,62.5,62.5)">
        <g id="FreshBooks_logo_-2020-" serif:id="FreshBooks_logo_(2020)" transform="matrix(1.02419,0,0,1.02419,7.10543e-15,1.23457e-13)">
            <g transform="matrix(1,0,0,1,-77.5,-19)">
                <rect x="9.8" y="5.9" width="17.4" height="25.9" style="fill:white;fill-rule:nonzero;"/>
                <path d="M14.1,2.3C6.3,2.3 0,8.6 0,16.4L0,35.7L19.3,35.7C27.1,35.7 33.4,29.4 33.4,21.6L33.4,2.3L14.1,2.3ZM25.5,8.2C25.5,10.8 23.4,12.8 20.9,12.8L15.9,12.8L15.9,16.8L22.6,16.8L22.6,21.4L16,21.4L16,31L10.5,31L10.5,7L15.9,7L15.9,11.3C16.1,8.9 18.1,7 20.5,7L25.5,7L25.5,8.2Z" style="fill:rgb(0,117,221);fill-rule:nonzero;"/>
                <path d="M52.2,14.6L52.2,27.1L55.5,27.1L55.5,20.3C55.5,19.9 55.5,18.7 56,18.2C56.5,17.6 57.2,17.3 58,17.4L58.1,17.4L58.1,14.3L58,14.3C57,14.2 56.1,14.6 55.7,15L55.2,15.5L55.2,14.7L52.2,14.6Z" style="fill-rule:nonzero;"/>
                <path d="M85.2,27.2L85.2,20.3C85.2,18.4 86.1,17.3 87.6,17.3C88.2,17.3 88.7,17.5 89.1,17.9C89.6,18.4 89.9,19.2 89.9,20.2L89.9,27.1L93.1,27.1L93.1,19.3C93.1,16.6 91.2,14.4 88.7,14.2C87.3,14.1 86.1,14.4 85.2,15.3L85.2,10.4L82,10.4L82,27.1L85.2,27.1L85.2,27.2Z" style="fill-rule:nonzero;"/>
                <path d="M103.2,18L103.1,18L103.2,17.9C104.5,17.1 104.9,15.4 104.7,14.2C104.2,11.8 102.3,10.4 99.3,10.4L94.9,10.4L94.9,27.1L99.6,27.1C103.1,27.1 105.2,25.6 105.8,22.8C106,21.2 105,18.7 103.2,18ZM98.1,13.7L99.5,13.7C100.1,13.7 101.3,13.8 101.4,15.1C101.4,15.5 101.3,15.9 101,16.2C100.5,16.7 99.7,16.8 99,16.8L98,16.8L98.1,13.7ZM102,23.2C101.5,23.7 100.6,24 99.2,24L98.1,24L98.1,20L99.9,20C101,20 102.3,20.5 102.4,21.8C102.5,22.3 102.3,22.8 102,23.2Z" style="fill-rule:nonzero;"/>
                <path d="M117.5,16.2C116.3,15 114.6,14.3 112.8,14.3C109.1,14.4 106.2,17.4 106.3,21.1C106.4,24.6 109.2,27.5 112.7,27.6L112.8,27.6C114.5,27.6 116.2,26.9 117.4,25.7C120,23.2 120.1,19 117.6,16.4C117.7,16.3 117.6,16.2 117.5,16.2ZM113,24.5C112.1,24.5 111.2,24.2 110.6,23.5C109.9,22.8 109.5,21.9 109.5,20.9C109.5,19 111,17.5 112.9,17.4L113,17.4C114.9,17.4 116.4,18.9 116.5,20.8C116.4,22.7 115,24.4 113,24.5Z" style="fill-rule:nonzero;"/>
                <path d="M131.6,16.2C130.4,15 128.7,14.3 126.9,14.3C123.2,14.4 120.3,17.4 120.4,21.1C120.5,24.6 123.3,27.5 126.8,27.6L126.9,27.6C128.6,27.6 130.3,26.9 131.5,25.7C134.1,23.2 134.2,19 131.7,16.4C131.7,16.3 131.6,16.2 131.6,16.2ZM129.5,23.3C128.9,24 128,24.4 127.1,24.4C126.2,24.4 125.3,24.1 124.7,23.4C124,22.7 123.6,21.8 123.6,20.8C123.6,18.9 125.1,17.4 127,17.3L127.1,17.3C129,17.3 130.5,18.8 130.5,20.7C130.4,21.8 130.1,22.7 129.5,23.3Z" style="fill-rule:nonzero;"/>
                <path d="M137.6,21.5L137.8,21.2L138.1,21.2L141.7,27.2L145.2,27.2L140.3,19L145.2,14.6L140.8,14.6L137.6,17.5L137.6,10.4L134.5,10.4L134.5,27.2L137.6,27.2L137.6,21.5Z" style="fill-rule:nonzero;"/>
                <path d="M154.4,23.4C154.4,20.7 152.2,20 150.5,19.5L150.5,19.6L150.5,19.5C149.4,19.2 148.5,18.9 148.5,18.2C148.5,17.7 148.9,17.4 149.6,17.4C150,17.4 150.4,17.5 150.7,17.8L150.8,17.9L152.9,15.8L152.8,15.7C152,14.9 150.8,14.5 149.7,14.5C147.1,14.5 145.5,16 145.5,18.3C145.5,21 147.6,21.6 149.3,22.1C150.5,22.4 151.4,22.7 151.4,23.5C151.4,24.2 150.7,24.7 149.7,24.7C148.7,24.7 148.1,24.2 148.1,23.4L148.1,23.2L144.9,23.2L144.9,23.4C144.9,25.8 146.9,27.6 149.7,27.6C152.4,27.6 154.4,25.8 154.4,23.4Z" style="fill-rule:nonzero;"/>
                <path d="M45,13.8L45,17.4L50.5,17.4L50.5,20.6L45.1,20.6L45.1,27.2L41.8,27.2L41.8,10.5L50.8,10.5L50.8,13.8L45,13.8Z" style="fill-rule:nonzero;"/>
                <path d="M71.3,21C71.3,16.9 69,14.4 65.3,14.4C61.5,14.4 58.8,17.1 58.8,20.8C58.8,24.7 61.6,27.6 65.2,27.6C67.1,27.6 69,26.8 70.3,25.4L70.4,25.3L68.1,23.3L68,23.4C67.3,24.3 66.2,24.8 65.1,24.8C63.4,24.8 62.1,23.7 61.8,21.9L61.8,21.6L71.2,21.6L71.3,21ZM62.1,18.8L62.2,18.6C62.8,17.6 63.8,17.1 65.1,17.1C66.5,17.1 67.6,17.7 67.9,18.8L62.1,18.8Z" style="fill-rule:nonzero;"/>
                <path d="M77.3,19.5C76.2,19.2 75.3,18.9 75.3,18.1C75.3,17.6 75.7,17.3 76.4,17.3C76.8,17.3 77.2,17.4 77.5,17.7L77.6,17.8L79.7,15.7L79.6,15.6C78.8,14.8 77.6,14.4 76.5,14.4C73.9,14.4 72.3,15.9 72.3,18.2C72.3,20.9 74.4,21.5 76.1,22C77.3,22.3 78.2,22.6 78.2,23.4C78.2,24.1 77.5,24.6 76.5,24.6C75.5,24.6 74.9,24.1 74.9,23.3L74.9,23.1L71.7,23.1L71.7,23.3C71.7,25.7 73.7,27.5 76.5,27.5C79.3,27.5 81.3,25.7 81.3,23.3C81.2,20.7 79,20.1 77.3,19.5Z" style="fill-rule:nonzero;"/>
            </g>
            <g>
            </g>
        </g>
    </g>
</svg>
