<?xml version="1.0" encoding="UTF-8" standalone="no"?><!DOCTYPE svg PUBLIC "-//W3C//DTD SVG 1.1//EN" "http://www.w3.org/Graphics/SVG/1.1/DTD/svg11.dtd"><svg width="100%" height="100%" viewBox="0 0 125 125" version="1.1" xmlns="http://www.w3.org/2000/svg" xmlns:xlink="http://www.w3.org/1999/xlink" xml:space="preserve" xmlns:serif="http://www.serif.com/" style="fill-rule:evenodd;clip-rule:evenodd;stroke-linejoin:round;stroke-miterlimit:2;"><g><g id="Layer_1-2"><g><path d="M30.266,45.241l12.533,0c0,0 -1.311,-8.302 6.42,-8.309l0,-10.961c0,0 -18.953,-2.569 -18.953,18.306" style="fill:#0e356b;fill-rule:nonzero;"/><path d="M66.889,67.583l-6.672,13.935l-10.365,-21.795l-6.347,0l0,29.471l-12.877,0l0,-29.38l-7.526,0l0,-12.891l33.908,0l9.879,20.66Z" style="fill:#0e356b;fill-rule:nonzero;"/><path d="M69.237,66.56l-17.48,36.145l13.581,0l20.54,-42.891l0,28.564l12.877,0l0,-41.369l-20.268,-0.178l-9.25,19.729Z" style="fill:#0e356b;fill-rule:nonzero;"/><path d="M101.895,22.295c-0.098,0.234 -0.19,0.469 -0.294,0.699c-2.343,5.17 -4.689,10.34 -7.034,15.508c-0.03,0.065 -0.062,0.129 -0.105,0.219c-1.545,-1.18 -3.074,-2.349 -4.626,-3.534c-0.666,0.919 -1.324,1.828 -1.983,2.737c-0.019,-0.013 -0.037,-0.026 -0.057,-0.039c0.148,-1.202 0.297,-2.404 0.445,-3.606c0.041,-0.333 0.082,-0.665 0.118,-0.998c0.017,-0.158 0.074,-0.277 0.203,-0.386c2.248,-1.885 4.493,-3.775 6.737,-5.666c0.451,-0.379 0.897,-0.764 1.345,-1.146c0.013,-0.02 0.026,-0.04 0.039,-0.06c-0.029,0.006 -0.058,0.011 -0.087,0.017c-0.823,0.433 -1.647,0.865 -2.468,1.302c-2.33,1.24 -4.658,2.484 -6.99,3.72c-0.142,0.075 -0.194,0.155 -0.188,0.317c0.036,1.09 0.06,2.181 0.06,3.282c-0.046,-0.102 -0.093,-0.204 -0.135,-0.306c-0.459,-1.116 -0.913,-2.234 -1.38,-3.346c-0.048,-0.115 -0.154,-0.23 -0.263,-0.291c-1.681,-0.943 -3.366,-1.877 -5.05,-2.814c-0.07,-0.039 -0.138,-0.078 -0.252,-0.143c0.187,-0.051 0.334,-0.094 0.482,-0.131c7.085,-1.768 14.17,-3.539 21.255,-5.307c0.074,-0.019 0.154,-0.017 0.231,-0.025l-0.003,-0.002l0,-0.001Z" style="fill:#42ce92;fill-rule:nonzero;"/></g></g><g id="svgviewer-output"></g></g></svg>