<?xml version="1.0" encoding="UTF-8" standalone="no"?><!DOCTYPE svg PUBLIC "-//W3C//DTD SVG 1.1//EN" "http://www.w3.org/Graphics/SVG/1.1/DTD/svg11.dtd"><svg width="100%" height="100%" viewBox="0 0 521 521" version="1.1" xmlns="http://www.w3.org/2000/svg" xmlns:xlink="http://www.w3.org/1999/xlink" xml:space="preserve" xmlns:serif="http://www.serif.com/" style="fill-rule:evenodd;clip-rule:evenodd;stroke-linejoin:round;stroke-miterlimit:2;"><g><path d="M272.033,232.076l6.133,0l-12.201,45.739l-6.005,0l-9.838,-30.152l-0.256,0l-9.838,30.152l-6.005,0l-12.712,-45.739l6.133,0l9.646,35.965l0.256,0l9.902,-29.833l5.494,0l9.902,29.833l0.256,0l9.135,-35.965Z" style="fill:#5f6368;fill-rule:nonzero;"/><g><path d="M277.61,262.164c0,-4.812 1.512,-8.793 4.536,-11.946c3.066,-3.151 6.92,-4.727 11.563,-4.727c4.642,0 8.475,1.576 11.499,4.727c3.066,3.152 4.599,7.134 4.599,11.946c0,4.855 -1.533,8.837 -4.599,11.946c-3.025,3.152 -6.857,4.728 -11.499,4.727c-4.641,-0.001 -8.495,-1.578 -11.563,-4.731c-3.025,-3.151 -4.536,-7.133 -4.536,-11.946m5.877,0c0,3.365 0.98,6.091 2.939,8.177c1.959,2.086 4.387,3.129 7.282,3.129c2.896,0 5.323,-1.043 7.282,-3.129c1.959,-2.086 2.939,-4.812 2.939,-8.177c0,-3.322 -0.98,-6.026 -2.939,-8.113c-1.999,-2.129 -4.426,-3.193 -7.282,-3.194c-2.856,-0.001 -5.284,1.065 -7.285,3.198c-1.96,2.086 -2.939,4.79 -2.939,8.113" style="fill:#5f6368;fill-rule:nonzero;"/><path d="M319.854,277.815l-5.877,0l0,-31.302l5.622,0l0,5.111l0.261,0c0.596,-1.661 1.821,-3.077 3.674,-4.249c1.853,-1.172 3.673,-1.757 5.461,-1.756c1.703,0 3.151,0.256 4.344,0.767l-1.794,5.688c-0.725,-0.297 -1.875,-0.446 -3.45,-0.447c-2.215,0 -4.141,0.894 -5.781,2.683c-1.639,1.789 -2.459,3.875 -2.46,6.258l0,17.248Z" style="fill:#5f6368;fill-rule:nonzero;"/><path d="M363.586,277.815l-7.091,0l-9.774,-14.757l-4.791,4.727l0,10.029l-5.877,0l0,-45.739l5.877,0l0,28.172l13.543,-13.734l7.538,0l0,0.256l-12.201,12.137l12.776,18.653l0,0.256Z" style="fill:#5f6368;fill-rule:nonzero;"/><path d="M389.016,269.127c0,2.726 -1.192,5.026 -3.577,6.899c-2.385,1.873 -5.387,2.81 -9.007,2.811c-3.151,0 -5.92,-0.82 -8.305,-2.46c-2.336,-1.577 -4.122,-3.844 -5.111,-6.483l5.238,-2.236c0.767,1.875 1.885,3.333 3.354,4.375c1.4,1.021 3.091,1.569 4.824,1.564c1.875,0 3.439,-0.405 4.693,-1.214c1.254,-0.809 1.882,-1.767 1.884,-2.875c0,-1.999 -1.533,-3.468 -4.599,-4.408l-5.366,-1.342c-6.088,-1.533 -9.133,-4.473 -9.134,-8.818c0,-2.852 1.161,-5.142 3.482,-6.868c2.321,-1.726 5.292,-2.588 8.911,-2.587c2.769,0 5.271,0.66 7.507,1.98c2.235,1.32 3.8,3.088 4.693,5.302l-5.237,2.172c-0.6,-1.325 -1.622,-2.415 -2.906,-3.099c-1.38,-0.754 -2.932,-1.139 -4.504,-1.117c-1.455,-0.022 -2.886,0.378 -4.12,1.15c-1.217,0.767 -1.825,1.704 -1.825,2.811c0,1.789 1.682,3.066 5.047,3.833l4.727,1.214c6.218,1.533 9.327,4.662 9.327,9.387" style="fill:#5f6368;fill-rule:nonzero;"/><path d="M409.426,278.837c-2.3,0 -4.397,-0.49 -6.292,-1.469c-1.895,-0.98 -3.354,-2.278 -4.377,-3.897l-0.261,0l0.261,4.344l0,13.798l-5.877,0l0,-45.1l5.622,0l0,4.344l0.261,0c1.022,-1.617 2.481,-2.916 4.377,-3.897c1.896,-0.98 3.993,-1.47 6.292,-1.469c4.13,0 7.622,1.618 10.477,4.855c2.939,3.28 4.408,7.219 4.408,11.818c0,4.643 -1.469,8.582 -4.408,11.818c-2.853,3.237 -6.346,4.855 -10.477,4.855m-0.958,-5.366c2.811,0 5.174,-1.065 7.091,-3.194c1.912,-2.086 2.868,-4.79 2.868,-8.113c0,-3.278 -0.956,-5.983 -2.868,-8.113c-1.912,-2.13 -4.276,-3.195 -7.091,-3.194c-2.853,0 -5.238,1.065 -7.155,3.194c-1.875,2.13 -2.812,4.835 -2.811,8.113c0,3.322 0.937,6.047 2.811,8.177c1.912,2.086 4.297,3.129 7.155,3.129" style="fill:#5f6368;fill-rule:nonzero;"/><path d="M440.408,245.491c4.346,0 7.774,1.16 10.285,3.481c2.511,2.321 3.767,5.504 3.769,9.551l0,19.295l-5.622,0l0,-4.347l-0.261,0c-2.427,3.577 -5.664,5.366 -9.71,5.366c-3.45,0 -6.335,-1.022 -8.657,-3.066c-2.321,-2.044 -3.482,-4.599 -3.481,-7.666c0,-3.236 1.224,-5.812 3.673,-7.73c2.448,-1.917 5.717,-2.876 9.806,-2.875c3.491,0 6.366,0.639 8.624,1.916l0,-1.347c0,-2.044 -0.809,-3.78 -2.427,-5.207c-1.558,-1.403 -3.589,-2.168 -5.685,-2.139c-3.28,0 -5.878,1.384 -7.794,4.152l-5.174,-3.259c2.852,-4.085 7.068,-6.127 12.646,-6.127m-7.594,22.75c0,1.533 0.649,2.811 1.948,3.833c1.298,1.022 2.819,1.533 4.563,1.533c2.469,0 4.673,-0.916 6.611,-2.747c1.938,-1.831 2.907,-3.982 2.907,-6.452c-1.832,-1.447 -4.387,-2.171 -7.666,-2.172c-2.386,0 -4.377,0.575 -5.974,1.725c-1.597,1.15 -2.393,2.577 -2.39,4.28" style="fill:#5f6368;fill-rule:nonzero;"/><path d="M474.386,278.837c-4.643,0 -8.497,-1.576 -11.563,-4.727c-3.025,-3.236 -4.536,-7.218 -4.536,-11.946c0,-4.812 1.512,-8.793 4.536,-11.946c3.066,-3.151 6.92,-4.727 11.563,-4.727c3.194,0 5.984,0.798 8.368,2.395c2.385,1.597 4.174,3.801 5.366,6.612l-5.361,2.236c-1.661,-3.918 -4.578,-5.877 -8.752,-5.877c-2.683,0 -5.004,1.086 -6.963,3.259c-1.916,2.173 -2.875,4.856 -2.875,8.049c0,3.193 0.958,5.876 2.875,8.049c1.958,2.173 4.279,3.259 6.963,3.259c4.301,0 7.325,-1.959 9.071,-5.877l5.238,2.236c-1.15,2.811 -2.949,5.014 -5.399,6.611c-2.449,1.597 -5.292,2.395 -8.528,2.396" style="fill:#5f6368;fill-rule:nonzero;"/><path d="M506.013,278.837c-4.599,0 -8.39,-1.576 -11.371,-4.727c-2.981,-3.151 -4.472,-7.133 -4.472,-11.946c0,-4.769 1.448,-8.74 4.344,-11.915c2.896,-3.174 6.601,-4.76 11.115,-4.759c4.641,0 8.335,1.501 11.081,4.503c2.746,3.002 4.119,7.208 4.117,12.617l-0.064,0.639l-24.589,0c0.087,3.066 1.109,5.536 3.066,7.41c1.957,1.874 4.3,2.811 7.027,2.811c3.747,0 6.685,-1.874 8.816,-5.622l5.238,2.555c-1.336,2.567 -3.36,4.713 -5.846,6.196c-2.492,1.49 -5.313,2.235 -8.464,2.236m-9.387,-20.442l17.944,0c-0.174,-2.173 -1.058,-3.972 -2.652,-5.399c-1.594,-1.426 -3.734,-2.139 -6.419,-2.139c-2.215,0 -4.121,0.681 -5.718,2.044c-1.597,1.363 -2.65,3.194 -3.161,5.494" style="fill:#5f6368;fill-rule:nonzero;"/></g><g><path d="M26.387,257.755l0,-7.074l23.675,0c0.263,1.431 0.391,2.883 0.382,4.337c-0,5.303 -1.451,11.871 -6.127,16.544c-4.546,4.736 -10.354,7.263 -18.056,7.263c-14.266,0 -26.26,-11.62 -26.26,-25.891c-0,-14.272 11.994,-25.891 26.263,-25.891c7.894,0 13.51,3.095 17.741,7.136l-4.988,4.988c-3.034,-2.841 -7.134,-5.052 -12.753,-5.052c-10.417,0 -18.561,8.398 -18.561,18.819c0,10.42 8.144,18.825 18.561,18.825c6.756,0 10.607,-2.716 13.068,-5.178c2.006,-2.006 3.328,-4.885 3.841,-8.82l-16.785,-0.007Z" style="fill:#4285f4;fill-rule:nonzero;"/><path d="M86.519,262.153c0,9.606 -7.515,16.672 -16.729,16.672c-9.215,0 -16.729,-7.066 -16.729,-16.672c0,-9.662 7.513,-16.672 16.732,-16.672c9.218,0 16.729,7.01 16.729,16.672m-7.323,0c0,-5.997 -4.356,-10.104 -9.406,-10.104c-5.051,0 -9.407,4.104 -9.407,10.104c0,5.936 4.356,10.104 9.407,10.104c5.052,0 9.406,-4.172 9.406,-10.104" style="fill:#ea4335;fill-rule:nonzero;"/><path d="M123.016,262.153c0,9.606 -7.508,16.672 -16.729,16.672c-9.221,0 -16.73,-7.066 -16.73,-16.672c0,-9.662 7.512,-16.672 16.73,-16.672c9.218,0 16.729,7.01 16.729,16.672m-7.323,0c0,-5.997 -4.356,-10.104 -9.406,-10.104c-5.051,0 -9.407,4.104 -9.407,10.104c0,5.936 4.356,10.104 9.407,10.104c5.052,0 9.406,-4.172 9.406,-10.104" style="fill:#fbbc04;fill-rule:nonzero;"/><path d="M157.999,246.492l0,29.933c0,12.315 -7.26,17.367 -15.846,17.367c-8.083,0 -12.943,-5.431 -14.774,-9.851l6.38,-2.653c1.136,2.716 3.911,5.936 8.397,5.936c5.492,0 8.902,-3.41 8.902,-9.788l0,-2.399l-0.253,0c-1.641,2.021 -4.798,3.789 -8.775,3.789c-8.335,0 -15.973,-7.263 -15.973,-16.608c0,-9.41 7.638,-16.736 15.973,-16.736c3.978,0 7.134,1.768 8.775,3.726l0.253,0l0,-2.716l6.941,0Zm-6.44,15.725c0,-5.873 -3.911,-10.169 -8.902,-10.169c-5.051,0 -9.281,4.294 -9.281,10.169c0,5.809 4.231,10.038 9.281,10.038c4.988,0 8.902,-4.231 8.902,-10.038" style="fill:#4285f4;fill-rule:nonzero;"/><rect x="163.08" y="228.974" width="7.323" height="48.841" style="fill:#34a853;"/><path d="M198.684,267.647l5.682,3.789c-1.825,2.716 -6.25,7.389 -13.89,7.389c-9.47,0 -16.541,-7.325 -16.541,-16.672c0,-9.908 7.135,-16.672 15.72,-16.672c8.65,0 12.879,6.884 14.269,10.61l0.757,1.894l-22.293,9.22c1.705,3.347 4.357,5.052 8.083,5.052c3.726,0 6.314,-1.825 8.213,-4.61m-17.489,-5.997l14.9,-6.187c-0.821,-2.086 -3.283,-3.536 -6.187,-3.536c-3.725,0 -8.902,3.284 -8.713,9.726" style="fill:#ea4335;fill-rule:nonzero;"/></g></g></svg>