<?xml version="1.0" encoding="UTF-8" standalone="no"?><!DOCTYPE svg PUBLIC "-//W3C//DTD SVG 1.1//EN" "http://www.w3.org/Graphics/SVG/1.1/DTD/svg11.dtd"><svg width="100%" height="100%" viewBox="0 0 250 125" version="1.1" xmlns="http://www.w3.org/2000/svg" xmlns:xlink="http://www.w3.org/1999/xlink" xml:space="preserve" xmlns:serif="http://www.serif.com/" style="fill-rule:evenodd;clip-rule:evenodd;stroke-linejoin:round;stroke-miterlimit:2;"><g><path d="M130.534,48.861l2.943,0l-5.855,21.948l-2.881,0l-4.721,-14.468l-0.123,0l-4.721,14.468l-2.881,0l-6.1,-21.948l2.943,0l4.629,17.258l0.123,0l4.751,-14.315l2.636,0l4.751,14.315l0.123,0l4.383,-17.258l-0.001,0Z" style="fill:#5f6368;fill-rule:nonzero;"/><g><path d="M133.21,63.298c0,-2.309 0.726,-4.219 2.177,-5.732c1.471,-1.512 3.321,-2.268 5.548,-2.268c2.227,0 4.067,0.756 5.518,2.268c1.471,1.512 2.207,3.423 2.207,5.732c0,2.33 -0.736,4.24 -2.207,5.732c-1.452,1.512 -3.29,2.269 -5.518,2.268c-2.227,-0 -4.076,-0.757 -5.548,-2.27c-1.452,-1.512 -2.177,-3.423 -2.177,-5.732m2.82,0c0,1.615 0.47,2.923 1.41,3.924c0.94,1.001 2.105,1.501 3.494,1.501c1.39,0 2.554,-0.5 3.494,-1.501c0.94,-1.001 1.41,-2.309 1.41,-3.924c0,-1.594 -0.47,-2.892 -1.41,-3.893c-0.959,-1.022 -2.124,-1.532 -3.494,-1.533c-1.37,-0 -2.536,0.511 -3.496,1.535c-0.94,1.001 -1.41,2.298 -1.41,3.893" style="fill:#5f6368;fill-rule:nonzero;"/><path d="M153.481,70.809l-2.82,0l0,-15.02l2.698,0l0,2.452l0.125,0c0.286,-0.797 0.874,-1.476 1.763,-2.039c0.889,-0.562 1.762,-0.843 2.62,-0.843c0.817,0 1.512,0.123 2.084,0.368l-0.861,2.729c-0.348,-0.143 -0.9,-0.214 -1.655,-0.214c-1.063,0 -1.987,0.429 -2.774,1.287c-0.786,0.858 -1.18,1.859 -1.18,3.003l0,8.276l-0,-0Z" style="fill:#5f6368;fill-rule:nonzero;"/><path d="M174.465,70.809l-3.403,0l-4.69,-7.081l-2.299,2.268l0,4.812l-2.82,0l0,-21.948l2.82,0l0,13.518l6.499,-6.59l3.617,0l0,0.123l-5.855,5.824l6.131,8.951l0,0.123Z" style="fill:#5f6368;fill-rule:nonzero;"/><path d="M186.668,66.64c0,1.308 -0.572,2.412 -1.716,3.31c-1.144,0.899 -2.585,1.348 -4.322,1.349c-1.512,0 -2.841,-0.393 -3.985,-1.18c-1.121,-0.757 -1.978,-1.845 -2.452,-3.111l2.513,-1.073c0.368,0.9 0.905,1.599 1.609,2.099c0.672,0.49 1.483,0.753 2.315,0.75c0.9,0 1.65,-0.194 2.252,-0.583c0.602,-0.388 0.903,-0.848 0.904,-1.38c0,-0.959 -0.736,-1.664 -2.207,-2.115l-2.575,-0.644c-2.921,-0.736 -4.382,-2.146 -4.383,-4.231c0,-1.369 0.557,-2.467 1.671,-3.296c1.114,-0.828 2.539,-1.242 4.276,-1.241c1.329,0 2.529,0.317 3.602,0.95c1.072,0.633 1.823,1.482 2.252,2.544l-2.513,1.042c-0.288,-0.636 -0.778,-1.159 -1.394,-1.487c-0.662,-0.362 -1.407,-0.547 -2.161,-0.536c-0.698,-0.011 -1.385,0.181 -1.977,0.552c-0.584,0.368 -0.876,0.818 -0.876,1.349c0,0.858 0.807,1.471 2.422,1.839l2.268,0.583c2.984,0.736 4.476,2.237 4.476,4.504" style="fill:#5f6368;fill-rule:nonzero;"/><path d="M196.462,71.299c-1.104,0 -2.11,-0.235 -3.019,-0.705c-0.909,-0.47 -1.609,-1.093 -2.1,-1.87l-0.125,0l0.125,2.084l0,6.621l-2.82,0l0,-21.641l2.698,0l0,2.084l0.125,0c0.49,-0.776 1.19,-1.399 2.1,-1.87c0.91,-0.47 1.916,-0.705 3.019,-0.705c1.982,0 3.657,0.776 5.027,2.33c1.41,1.574 2.115,3.464 2.115,5.671c0,2.228 -0.705,4.118 -2.115,5.671c-1.369,1.553 -3.045,2.33 -5.027,2.33m-0.46,-2.575c1.349,0 2.483,-0.511 3.403,-1.533c0.917,-1.001 1.376,-2.298 1.376,-3.893c0,-1.573 -0.459,-2.871 -1.376,-3.893c-0.917,-1.022 -2.052,-1.533 -3.403,-1.533c-1.369,0 -2.513,0.511 -3.433,1.533c-0.9,1.022 -1.349,2.32 -1.349,3.893c0,1.594 0.45,2.902 1.349,3.924c0.917,1.001 2.062,1.501 3.433,1.501" style="fill:#5f6368;fill-rule:nonzero;"/><path d="M211.328,55.298c2.085,0 3.73,0.557 4.935,1.67c1.205,1.114 1.808,2.641 1.809,4.583l0,9.259l-2.698,0l0,-2.086l-0.125,0c-1.165,1.716 -2.718,2.575 -4.659,2.575c-1.655,0 -3.04,-0.49 -4.154,-1.471c-1.114,-0.981 -1.671,-2.207 -1.67,-3.679c0,-1.553 0.587,-2.789 1.762,-3.709c1.175,-0.92 2.743,-1.38 4.705,-1.38c1.675,0 3.055,0.307 4.138,0.919l0,-0.646c0,-0.981 -0.388,-1.814 -1.165,-2.499c-0.748,-0.673 -1.722,-1.04 -2.728,-1.026c-1.574,0 -2.821,0.664 -3.74,1.992l-2.483,-1.564c1.369,-1.96 3.392,-2.94 6.068,-2.94m-3.644,10.917c0,0.736 0.311,1.349 0.935,1.839c0.623,0.49 1.353,0.736 2.19,0.736c1.185,0 2.242,-0.44 3.172,-1.318c0.93,-0.879 1.395,-1.911 1.395,-3.096c-0.879,-0.694 -2.105,-1.042 -3.679,-1.042c-1.145,0 -2.1,0.276 -2.867,0.828c-0.766,0.552 -1.148,1.237 -1.147,2.054" style="fill:#5f6368;fill-rule:nonzero;"/><path d="M227.632,71.299c-2.228,0 -4.077,-0.756 -5.548,-2.268c-1.452,-1.553 -2.177,-3.464 -2.177,-5.732c0,-2.309 0.726,-4.219 2.177,-5.732c1.471,-1.512 3.321,-2.268 5.548,-2.268c1.533,0 2.871,0.383 4.015,1.149c1.144,0.766 2.003,1.824 2.575,3.173l-2.572,1.073c-0.797,-1.88 -2.197,-2.82 -4.2,-2.82c-1.287,0 -2.401,0.521 -3.341,1.564c-0.919,1.043 -1.38,2.33 -1.38,3.862c0,1.532 0.46,2.82 1.38,3.862c0.94,1.043 2.053,1.564 3.341,1.564c2.064,0 3.515,-0.94 4.353,-2.82l2.513,1.073c-0.552,1.349 -1.415,2.406 -2.591,3.172c-1.175,0.766 -2.539,1.149 -4.092,1.15" style="fill:#5f6368;fill-rule:nonzero;"/><path d="M242.809,71.299c-2.207,0 -4.026,-0.756 -5.456,-2.268c-1.43,-1.512 -2.146,-3.423 -2.146,-5.732c0,-2.288 0.695,-4.194 2.084,-5.717c1.39,-1.523 3.167,-2.284 5.333,-2.284c2.227,0 4,0.72 5.317,2.161c1.318,1.44 1.976,3.459 1.976,6.054l-0.031,0.307l-11.799,0c0.042,1.471 0.532,2.656 1.471,3.556c0.939,0.899 2.063,1.349 3.372,1.349c1.798,0 3.208,-0.899 4.23,-2.698l2.513,1.226c-0.641,1.232 -1.612,2.262 -2.805,2.973c-1.196,0.715 -2.549,1.072 -4.061,1.073m-4.504,-9.809l8.61,0c-0.083,-1.043 -0.508,-1.906 -1.273,-2.591c-0.765,-0.684 -1.792,-1.026 -3.08,-1.026c-1.063,0 -1.977,0.327 -2.744,0.981c-0.766,0.654 -1.272,1.533 -1.517,2.636" style="fill:#5f6368;fill-rule:nonzero;"/></g><g><path d="M12.662,61.183l0,-3.394l11.36,0c0.126,0.687 0.188,1.383 0.183,2.081c0,2.545 -0.696,5.696 -2.94,7.939c-2.181,2.273 -4.968,3.485 -8.664,3.485c-6.845,0 -12.601,-5.576 -12.601,-12.424c0,-6.848 5.755,-12.424 12.602,-12.424c3.788,0 6.483,1.485 8.513,3.424l-2.393,2.393c-1.456,-1.363 -3.423,-2.424 -6.119,-2.424c-4.999,0 -8.906,4.03 -8.906,9.03c0,5 3.908,9.033 8.906,9.033c3.242,0 5.09,-1.303 6.271,-2.485c0.963,-0.963 1.597,-2.344 1.843,-4.232l-8.054,-0.003l-0,0Z" style="fill:#4285f4;fill-rule:nonzero;"/><path d="M41.516,63.293c0,4.609 -3.606,8 -8.027,8c-4.422,0 -8.027,-3.391 -8.027,-8c0,-4.636 3.605,-8 8.029,-8c4.423,0 8.027,3.364 8.027,8m-3.514,0c0,-2.878 -2.09,-4.848 -4.513,-4.848c-2.424,0 -4.514,1.969 -4.514,4.848c0,2.848 2.09,4.848 4.514,4.848c2.424,0 4.513,-2.002 4.513,-4.848" style="fill:#ea4335;fill-rule:nonzero;"/><path d="M59.029,63.293c0,4.609 -3.603,8 -8.027,8c-4.425,0 -8.028,-3.391 -8.028,-8c0,-4.636 3.605,-8 8.028,-8c4.423,0 8.027,3.364 8.027,8m-3.514,0c0,-2.878 -2.09,-4.848 -4.513,-4.848c-2.424,0 -4.514,1.969 -4.514,4.848c0,2.848 2.09,4.848 4.514,4.848c2.424,0 4.513,-2.002 4.513,-4.848" style="fill:#fbbc04;fill-rule:nonzero;"/><path d="M75.815,55.778l0,14.363c0,5.909 -3.484,8.333 -7.604,8.333c-3.879,0 -6.211,-2.606 -7.089,-4.727l3.061,-1.273c0.545,1.303 1.877,2.848 4.029,2.848c2.635,0 4.272,-1.636 4.272,-4.697l0,-1.151l-0.121,0c-0.787,0.97 -2.302,1.818 -4.211,1.818c-4,0 -7.665,-3.485 -7.665,-7.969c0,-4.515 3.665,-8.031 7.665,-8.031c1.909,0 3.423,0.848 4.211,1.788l0.121,0l0,-1.303l3.331,0Zm-3.09,7.546c0,-2.818 -1.877,-4.88 -4.272,-4.88c-2.424,0 -4.453,2.06 -4.453,4.88c0,2.787 2.03,4.817 4.453,4.817c2.393,0 4.272,-2.03 4.272,-4.817" style="fill:#4285f4;fill-rule:nonzero;"/><rect x="78.253" y="47.372" width="3.514" height="23.436" style="fill:#34a853;"/><path d="M95.338,65.929l2.726,1.818c-0.876,1.303 -2.999,3.546 -6.665,3.546c-4.544,0 -7.937,-3.515 -7.937,-8c0,-4.754 3.424,-8 7.543,-8c4.151,0 6.18,3.303 6.847,5.091l0.363,0.909l-10.697,4.424c0.818,1.606 2.091,2.424 3.879,2.424c1.788,0 3.03,-0.876 3.941,-2.212m-8.392,-2.878l7.15,-2.969c-0.394,-1.001 -1.575,-1.697 -2.969,-1.697c-1.787,0 -4.272,1.576 -4.181,4.667" style="fill:#ea4335;fill-rule:nonzero;"/></g></g></svg>