<?xml version="1.0" encoding="UTF-8" standalone="no"?><!DOCTYPE svg PUBLIC "-//W3C//DTD SVG 1.1//EN" "http://www.w3.org/Graphics/SVG/1.1/DTD/svg11.dtd"><svg width="100%" height="100%" viewBox="0 0 150 125" version="1.1" xmlns="http://www.w3.org/2000/svg" xmlns:xlink="http://www.w3.org/1999/xlink" xml:space="preserve" xmlns:serif="http://www.serif.com/" style="fill-rule:evenodd;clip-rule:evenodd;stroke-linejoin:round;stroke-miterlimit:2;"><clipPath id="_clip1"><rect x="0" y="-12.5" width="150" height="150"/></clipPath><g clip-path="url(#_clip1)"><g id="Layer-1" serif:id="Layer 1"><g><path d="M73.432,69.347c-0.361,0.92 -0.873,1.716 -1.54,2.393c-0.665,0.678 -1.47,1.208 -2.408,1.588c-0.94,0.385 -1.979,0.576 -3.113,0.576c-1.187,0 -2.241,-0.181 -3.173,-0.558c-0.929,-0.371 -1.71,-0.889 -2.362,-1.561c-0.641,-0.658 -1.133,-1.457 -1.474,-2.369c-0.338,-0.918 -0.506,-1.938 -0.506,-3.053l0,-9.742l4.329,0l0,9.873c0,0.239 0.034,0.538 0.101,0.902c0.063,0.363 0.206,0.717 0.422,1.062c0.218,0.351 0.543,0.647 0.956,0.89c0.415,0.24 0.98,0.364 1.707,0.364c0.958,0 1.746,-0.305 2.359,-0.904c0.616,-0.601 0.915,-1.374 0.915,-2.314l0,-9.873l4.332,0l0,9.742c0,1.071 -0.183,2.066 -0.544,2.985" style="fill:#19365f;fill-rule:nonzero;"/></g><g><path d="M89.369,63.182c-0.226,-0.595 -0.542,-1.104 -0.934,-1.543c-0.397,-0.44 -0.86,-0.773 -1.391,-1.017c-0.522,-0.238 -1.082,-0.358 -1.671,-0.358c-0.595,0 -1.154,0.129 -1.68,0.379c-0.531,0.249 -0.989,0.592 -1.385,1.028c-0.396,0.439 -0.705,0.951 -0.939,1.55c-0.227,0.586 -0.343,1.22 -0.343,1.895c0,0.654 0.116,1.273 0.343,1.852c0.233,0.583 0.543,1.088 0.939,1.508c0.396,0.425 0.854,0.764 1.385,1.017c0.526,0.258 1.085,0.379 1.68,0.379c0.589,0 1.149,-0.121 1.671,-0.357c0.531,-0.24 0.994,-0.577 1.391,-1.009c0.392,-0.422 0.708,-0.925 0.934,-1.506c0.233,-0.576 0.343,-1.207 0.343,-1.884c0,-0.697 -0.111,-1.346 -0.343,-1.933m4.037,5.331c-0.424,1.076 -1.023,2.017 -1.792,2.814c-0.759,0.801 -1.673,1.427 -2.734,1.888c-1.06,0.459 -2.224,0.687 -3.494,0.687c-1.289,0 -2.46,-0.229 -3.529,-0.687c-1.057,-0.459 -1.968,-1.085 -2.735,-1.886c-0.766,-0.797 -1.357,-1.733 -1.787,-2.806c-0.426,-1.068 -0.641,-2.217 -0.641,-3.441l0,-15.972l4.331,0l0,9.08c0.632,-0.671 1.369,-1.169 2.2,-1.487c0.839,-0.317 1.747,-0.475 2.731,-0.475c1.116,0 2.168,0.228 3.153,0.687c0.992,0.462 1.846,1.093 2.564,1.906c0.729,0.81 1.301,1.753 1.731,2.821c0.427,1.075 0.633,2.216 0.633,3.42c0,1.229 -0.207,2.38 -0.633,3.449" style="fill:#19365f;fill-rule:nonzero;"/></g><g><path d="M108.032,63.22c-0.232,-0.6 -0.547,-1.111 -0.941,-1.55c-0.394,-0.436 -0.849,-0.779 -1.381,-1.028c-0.525,-0.25 -1.088,-0.379 -1.676,-0.379c-0.593,0 -1.155,0.121 -1.683,0.359c-0.523,0.244 -0.985,0.577 -1.377,1.017c-0.4,0.439 -0.713,0.948 -0.939,1.543c-0.235,0.587 -0.348,1.236 -0.348,1.932c0,0.677 0.114,1.307 0.348,1.884c0.226,0.58 0.539,1.084 0.939,1.506c0.392,0.432 0.854,0.768 1.377,1.009c0.528,0.236 1.09,0.357 1.683,0.357c0.587,0 1.151,-0.121 1.676,-0.379c0.532,-0.253 0.987,-0.592 1.381,-1.017c0.394,-0.42 0.709,-0.925 0.941,-1.508c0.229,-0.579 0.345,-1.198 0.345,-1.852c0,-0.675 -0.116,-1.309 -0.345,-1.894m4.671,1.863c0,1.223 -0.213,2.373 -0.639,3.441c-0.425,1.073 -1.019,2.008 -1.783,2.806c-0.772,0.8 -1.68,1.426 -2.742,1.885c-1.055,0.459 -2.223,0.688 -3.491,0.688c-1.29,0 -2.463,-0.229 -3.528,-0.688c-1.059,-0.461 -1.974,-1.087 -2.742,-1.888c-0.763,-0.797 -1.357,-1.738 -1.784,-2.814c-0.427,-1.069 -0.636,-2.22 -0.636,-3.449c0,-1.204 0.208,-2.344 0.636,-3.42c0.427,-1.072 1.008,-2.01 1.737,-2.821c0.738,-0.813 1.589,-1.443 2.562,-1.906c0.971,-0.459 2.016,-0.687 3.127,-0.687c2.017,0 3.668,0.657 4.956,1.962l0,-9.08l4.326,0l0,15.972Z" style="fill:#19365f;fill-rule:nonzero;"/></g><g><path d="M124.484,69.531c0.5,-0.228 0.944,-0.556 1.324,-0.977c0.387,-0.425 0.679,-0.933 0.903,-1.516c0.219,-0.585 0.331,-1.238 0.331,-1.954c0,-0.72 -0.111,-1.38 -0.331,-1.983c-0.224,-0.619 -0.515,-1.135 -0.903,-1.572c-0.38,-0.43 -0.823,-0.769 -1.324,-1.006c-0.506,-0.241 -1.042,-0.359 -1.61,-0.359c-0.572,0 -1.108,0.118 -1.629,0.359c-0.509,0.236 -0.951,0.576 -1.327,1.006c-0.369,0.436 -0.659,0.953 -0.884,1.572c-0.216,0.604 -0.326,1.264 -0.326,1.983c0,0.716 0.11,1.369 0.326,1.954c0.225,0.583 0.516,1.091 0.884,1.516c0.376,0.421 0.818,0.749 1.327,0.977c0.52,0.227 1.056,0.339 1.629,0.339c0.568,0 1.105,-0.112 1.61,-0.339m1.682,-12.728c1.021,0.452 1.924,1.077 2.698,1.88c0.773,0.804 1.383,1.736 1.835,2.827c0.444,1.087 0.673,2.275 0.673,3.537c0,1.275 -0.228,2.45 -0.673,3.529c-0.452,1.068 -1.062,2.006 -1.835,2.791c-0.774,0.789 -1.677,1.413 -2.698,1.863c-1.03,0.448 -2.127,0.674 -3.31,0.674c-1.175,0 -2.275,-0.226 -3.303,-0.674c-1.03,-0.45 -1.922,-1.074 -2.686,-1.863c-0.764,-0.785 -1.365,-1.723 -1.819,-2.791c-0.448,-1.079 -0.667,-2.254 -0.667,-3.529c0,-1.262 0.219,-2.45 0.667,-3.537c0.454,-1.091 1.055,-2.023 1.819,-2.827c0.764,-0.803 1.656,-1.428 2.686,-1.88c1.027,-0.447 2.127,-0.671 3.303,-0.671c1.183,0 2.28,0.223 3.31,0.671" style="fill:#19365f;fill-rule:nonzero;"/></g><g><path d="M145.488,67.037c-0.223,0.583 -0.526,1.091 -0.907,1.516c-0.38,0.421 -0.821,0.749 -1.324,0.977c-0.51,0.227 -1.041,0.339 -1.61,0.339c-0.571,0 -1.111,-0.113 -1.621,-0.339c-0.513,-0.228 -0.957,-0.556 -1.338,-0.977c-0.363,-0.425 -0.664,-0.933 -0.878,-1.516c-0.219,-0.585 -0.332,-1.238 -0.332,-1.954c0,-0.72 0.113,-1.38 0.332,-1.987c0.213,-0.615 0.515,-1.131 0.878,-1.568c0.382,-0.434 0.825,-0.769 1.338,-1.006c0.509,-0.241 1.05,-0.359 1.621,-0.359c0.569,0 1.1,0.118 1.61,0.359c0.503,0.236 0.944,0.572 1.324,1.006c0.381,0.436 0.684,0.953 0.907,1.568c0.03,0.094 0.049,0.192 0.084,0.292l4.428,0c-0.112,-0.649 -0.288,-1.279 -0.535,-1.879c-0.444,-1.091 -1.049,-2.023 -1.829,-2.827c-0.771,-0.803 -1.673,-1.428 -2.697,-1.88c-1.03,-0.447 -2.128,-0.671 -3.306,-0.671c-1.185,0 -2.285,0.223 -3.308,0.671c-1.03,0.452 -1.925,1.077 -2.681,1.88c-0.768,0.804 -1.372,1.736 -1.824,2.827c-0.446,1.087 -0.665,2.275 -0.665,3.537c0,1.275 0.219,2.45 0.665,3.529c0.452,1.068 1.056,2.005 1.824,2.79c0.755,0.789 1.65,1.413 2.681,1.863c1.023,0.448 2.123,0.674 3.308,0.674c1.179,0 2.277,-0.226 3.306,-0.674c1.024,-0.45 1.926,-1.074 2.697,-1.863c0.78,-0.785 1.384,-1.723 1.829,-2.79c0.215,-0.513 0.373,-1.039 0.488,-1.587l-4.453,0c-0.002,0.018 -0.01,0.032 -0.012,0.049" style="fill:#19365f;fill-rule:nonzero;"/></g><g><path d="M55.902,73.512l-4.636,0l0,-10.304l-8.72,0l0,10.304l-4.648,0l0,-24.401l4.648,0l0,9.77l8.72,0l0,-9.77l4.636,0l0,24.401Z" style="fill:#19365f;fill-rule:nonzero;"/></g><g><path d="M20.719,61.894c1.058,-4.875 3.83,-10.228 10.041,-14.754l-20.05,-6.129c0,0 -8.194,5.008 -10.247,15.684l18.811,-9.48c-0.974,5.993 -0.169,10.836 1.444,14.68" style="fill:#41b9ea;fill-rule:nonzero;"/></g><g><path d="M20.719,61.894c-1.701,7.841 1.026,14.452 1.026,14.452l-20.254,-6.096c3.65,9.88 12.743,13.74 12.743,13.74l18.723,-9.447c0,0 -8.404,-3.511 -12.238,-12.649" style="fill:#26b797;fill-rule:nonzero;"/></g><g><path d="M20.719,61.894c-1.613,-3.845 -2.418,-8.687 -1.444,-14.68l-18.811,9.48c-0.297,1.529 -0.463,3.176 -0.463,4.939c0,3.275 0.575,6.135 1.491,8.617l20.254,6.096c0,0 -2.727,-6.611 -1.026,-14.452" style="fill:#005e8f;fill-rule:nonzero;"/></g></g></g></svg>