<?xml version="1.0" encoding="UTF-8" standalone="no"?>
<!DOCTYPE svg PUBLIC "-//W3C//DTD SVG 1.1//EN" "http://www.w3.org/Graphics/SVG/1.1/DTD/svg11.dtd">
<svg width="100%" height="100%" viewBox="0 0 125 125" version="1.1" xmlns="http://www.w3.org/2000/svg" xmlns:xlink="http://www.w3.org/1999/xlink" xml:space="preserve" xmlns:serif="http://www.serif.com/" style="fill-rule:evenodd;clip-rule:evenodd;stroke-linejoin:round;stroke-miterlimit:2;">
    <g id="Layer-1" serif:id="Layer 1" transform="matrix(0.208773,0,0,0.208773,7.10543e-15,44.5917)">
        <g transform="matrix(1,0,0,1,293.109,80.4948)">
            <path d="M0,32.613C-1.439,36.285 -3.483,39.462 -6.148,42.165C-8.803,44.871 -12.017,46.988 -15.761,48.503C-19.512,50.04 -23.66,50.801 -28.185,50.801C-32.923,50.801 -37.131,50.079 -40.852,48.572C-44.561,47.09 -47.676,45.025 -50.281,42.342C-52.839,39.714 -54.803,36.525 -56.163,32.884C-57.512,29.22 -58.183,25.147 -58.183,20.697L-58.183,-18.188L-40.905,-18.188L-40.905,21.22C-40.905,22.172 -40.769,23.367 -40.502,24.821C-40.25,26.269 -39.68,27.681 -38.816,29.061C-37.944,30.464 -36.65,31.644 -35,32.613C-33.345,33.571 -31.09,34.067 -28.185,34.067C-24.36,34.067 -21.215,32.85 -18.77,30.457C-16.313,28.057 -15.118,24.972 -15.118,21.22L-15.118,-18.188L2.172,-18.188L2.172,20.697C2.172,24.972 1.442,28.944 0,32.613" style="fill:rgb(25,54,95);fill-rule:nonzero;"/>
        </g>
        <g transform="matrix(1,0,0,1,356.722,75.1334)">
            <path d="M0,13.368C-0.902,10.992 -2.163,8.962 -3.727,7.209C-5.312,5.454 -7.16,4.122 -9.278,3.149C-11.361,2.201 -13.598,1.719 -15.949,1.719C-18.322,1.719 -20.554,2.232 -22.654,3.23C-24.773,4.224 -26.601,5.593 -28.182,7.332C-29.764,9.086 -30.998,11.126 -31.93,13.519C-32.838,15.857 -33.3,18.387 -33.3,21.082C-33.3,23.692 -32.838,26.162 -31.93,28.473C-30.998,30.8 -29.764,32.814 -28.182,34.491C-26.601,36.186 -24.773,37.541 -22.654,38.552C-20.554,39.58 -18.322,40.063 -15.949,40.063C-13.598,40.063 -11.361,39.58 -9.278,38.639C-7.16,37.68 -5.312,36.337 -3.727,34.613C-2.163,32.929 -0.902,30.919 0,28.601C0.929,26.3 1.371,23.782 1.371,21.082C1.371,18.301 0.929,15.711 0,13.368M16.115,34.648C14.424,38.944 12.032,42.698 8.964,45.882C5.935,49.078 2.288,51.576 -1.949,53.419C-6.181,55.25 -10.827,56.163 -15.895,56.163C-21.04,56.163 -25.716,55.25 -29.98,53.419C-34.2,51.585 -37.834,49.087 -40.896,45.892C-43.953,42.71 -46.314,38.974 -48.03,34.692C-49.732,30.429 -50.587,25.841 -50.587,20.958L-50.587,-42.795L-33.3,-42.795L-33.3,-6.551C-30.778,-9.229 -27.835,-11.218 -24.518,-12.486C-21.168,-13.752 -17.545,-14.381 -13.616,-14.381C-9.16,-14.381 -4.964,-13.47 -1.032,-11.637C2.926,-9.791 6.335,-7.275 9.204,-4.03C12.115,-0.795 14.399,2.968 16.115,7.23C17.818,11.522 18.643,16.074 18.643,20.881C18.643,25.785 17.818,30.382 16.115,34.648" style="fill:rgb(25,54,95);fill-rule:nonzero;"/>
        </g>
        <g transform="matrix(1,0,0,1,431.219,74.9827)">
            <path d="M0,13.67C-0.926,11.276 -2.185,9.236 -3.757,7.483C-5.329,5.743 -7.146,4.375 -9.27,3.381C-11.364,2.383 -13.614,1.869 -15.958,1.869C-18.326,1.869 -20.568,2.352 -22.676,3.3C-24.765,4.273 -26.609,5.605 -28.174,7.359C-29.772,9.112 -31.02,11.143 -31.924,13.519C-32.861,15.861 -33.315,18.451 -33.315,21.232C-33.315,23.933 -32.861,26.45 -31.924,28.752C-31.02,31.069 -29.772,33.079 -28.174,34.764C-26.609,36.487 -24.765,37.831 -22.676,38.79C-20.568,39.731 -18.326,40.214 -15.958,40.214C-13.614,40.214 -11.364,39.731 -9.27,38.702C-7.146,37.691 -5.329,36.337 -3.757,34.642C-2.185,32.965 -0.926,30.95 0,28.624C0.914,26.313 1.376,23.843 1.376,21.232C1.376,18.537 0.914,16.008 0,13.67M18.643,21.108C18.643,25.991 17.791,30.579 16.094,34.843C14.396,39.125 12.028,42.86 8.979,46.043C5.896,49.237 2.275,51.735 -1.965,53.569C-6.175,55.4 -10.84,56.314 -15.898,56.314C-21.049,56.314 -25.731,55.4 -29.98,53.569C-34.209,51.727 -37.861,49.229 -40.924,46.032C-43.968,42.849 -46.342,39.095 -48.045,34.799C-49.751,30.532 -50.582,25.936 -50.582,21.031C-50.582,16.225 -49.751,11.673 -48.045,7.381C-46.342,3.103 -44.021,-0.644 -41.113,-3.88C-38.167,-7.124 -34.772,-9.641 -30.886,-11.486C-27.011,-13.319 -22.839,-14.23 -18.405,-14.23C-10.355,-14.23 -3.763,-11.606 1.376,-6.4L1.376,-42.644L18.643,-42.644L18.643,21.108Z" style="fill:rgb(25,54,95);fill-rule:nonzero;"/>
        </g>
        <g transform="matrix(1,0,0,1,496.888,77.8122)">
            <path d="M0,36.03C1.997,35.118 3.769,33.812 5.284,32.13C6.83,30.432 7.993,28.407 8.887,26.078C9.762,23.742 10.207,21.137 10.207,18.279C10.207,15.407 9.762,12.772 8.887,10.363C7.993,7.894 6.83,5.832 5.284,4.09C3.769,2.375 1.997,1.019 0,0.075C-2.018,-0.886 -4.16,-1.358 -6.427,-1.358C-8.712,-1.358 -10.851,-0.886 -12.928,0.075C-14.961,1.019 -16.723,2.375 -18.225,4.09C-19.696,5.832 -20.856,7.894 -21.755,10.363C-22.619,12.772 -23.058,15.407 -23.058,18.279C-23.058,21.137 -22.619,23.742 -21.755,26.078C-20.856,28.407 -19.696,30.432 -18.225,32.13C-16.723,33.812 -14.961,35.118 -12.928,36.03C-10.851,36.935 -8.712,37.384 -6.427,37.384C-4.16,37.384 -2.018,36.935 0,36.03M6.712,-14.776C10.789,-12.971 14.391,-10.479 17.482,-7.273C20.568,-4.064 23.002,-0.343 24.806,4.011C26.58,8.35 27.491,13.093 27.491,18.131C27.491,23.219 26.58,27.91 24.806,32.218C23.002,36.481 20.568,40.224 17.482,43.357C14.391,46.508 10.789,48.997 6.712,50.793C2.6,52.581 -1.78,53.484 -6.501,53.484C-11.192,53.484 -15.583,52.581 -19.684,50.793C-23.797,48.997 -27.357,46.508 -30.407,43.357C-33.458,40.224 -35.855,36.481 -37.668,32.218C-39.457,27.91 -40.332,23.219 -40.332,18.131C-40.332,13.093 -39.457,8.35 -37.668,4.011C-35.855,-0.343 -33.458,-4.064 -30.407,-7.273C-27.357,-10.479 -23.797,-12.971 -19.684,-14.776C-15.583,-16.562 -11.192,-17.454 -6.501,-17.454C-1.78,-17.454 2.6,-16.562 6.712,-14.776" style="fill:rgb(25,54,95);fill-rule:nonzero;"/>
        </g>
        <g transform="matrix(1,0,0,1,580.728,87.764)">
            <path d="M0,16.126C-0.89,18.455 -2.101,20.48 -3.622,22.178C-5.139,23.86 -6.901,25.166 -8.907,26.078C-10.942,26.983 -13.061,27.433 -15.334,27.433C-17.612,27.433 -19.77,26.983 -21.803,26.078C-23.85,25.166 -25.621,23.86 -27.144,22.178C-28.591,20.48 -29.796,18.455 -30.647,16.126C-31.522,13.79 -31.974,11.186 -31.974,8.327C-31.974,5.455 -31.522,2.82 -30.647,0.396C-29.796,-2.058 -28.591,-4.12 -27.144,-5.862C-25.621,-7.593 -23.85,-8.933 -21.803,-9.877C-19.77,-10.838 -17.612,-11.31 -15.334,-11.31C-13.061,-11.31 -10.942,-10.838 -8.907,-9.877C-6.901,-8.933 -5.139,-7.593 -3.622,-5.862C-2.101,-4.12 -0.89,-2.058 0,0.396C0.119,0.772 0.196,1.164 0.336,1.561L18.009,1.561C17.561,-1.028 16.86,-3.545 15.875,-5.94C14.101,-10.295 11.688,-14.016 8.576,-17.225C5.499,-20.431 1.899,-22.923 -2.189,-24.728C-6.299,-26.514 -10.682,-27.406 -15.387,-27.406C-20.117,-27.406 -24.509,-26.514 -28.591,-24.728C-32.703,-22.923 -36.276,-20.431 -39.291,-17.225C-42.355,-14.016 -44.768,-10.295 -46.572,-5.94C-48.353,-1.602 -49.228,3.141 -49.228,8.179C-49.228,13.268 -48.353,17.958 -46.572,22.267C-44.768,26.529 -42.355,30.272 -39.291,33.405C-36.276,36.556 -32.703,39.045 -28.591,40.841C-24.509,42.629 -20.117,43.532 -15.387,43.532C-10.682,43.532 -6.299,42.629 -2.189,40.841C1.899,39.045 5.499,36.556 8.576,33.405C11.688,30.272 14.101,26.529 15.875,22.267C16.735,20.221 17.364,18.119 17.821,15.932L0.048,15.932C0.042,16.003 0.007,16.06 0,16.126" style="fill:rgb(25,54,95);fill-rule:nonzero;"/>
        </g>
        <g transform="matrix(1,0,0,1,223.137,32.3387)">
            <path d="M0,97.397L-18.503,97.397L-18.503,56.269L-53.308,56.269L-53.308,97.397L-71.859,97.397L-71.859,0L-53.308,0L-53.308,38.998L-18.503,38.998L-18.503,0L0,0L0,97.397Z" style="fill:rgb(25,54,95);fill-rule:nonzero;"/>
        </g>
        <g transform="matrix(1,0,0,1,82.701,-0.0002)">
            <path d="M0,83.359C4.225,63.9 15.287,42.534 40.081,24.466L-39.95,0C-39.95,0 -72.657,19.989 -80.852,62.604L-5.765,24.762C-9.652,48.683 -6.438,68.013 0,83.359" style="fill:rgb(65,185,234);fill-rule:nonzero;"/>
        </g>
        <g transform="matrix(1,0,0,1,82.701,171.558)">
            <path d="M0,-88.199C-6.789,-56.902 4.095,-30.514 4.095,-30.514L-76.749,-54.845C-62.18,-15.408 -25.885,0 -25.885,0L48.849,-37.71C48.849,-37.71 15.302,-51.723 0,-88.199" style="fill:rgb(38,183,151);fill-rule:nonzero;"/>
        </g>
        <g transform="matrix(1,0,0,1,82.701,82.4468)">
            <path d="M0,0.912C-6.438,-14.434 -9.652,-33.764 -5.765,-57.685L-80.852,-19.843C-82.039,-13.739 -82.701,-7.166 -82.701,-0.129C-82.701,12.944 -80.404,24.36 -76.749,34.266L4.095,58.597C4.095,58.597 -6.789,32.209 0,0.912" style="fill:rgb(0,94,143);fill-rule:nonzero;"/>
        </g>
    </g>
</svg>
