<?xml version="1.0" encoding="UTF-8" standalone="no"?>
<!DOCTYPE svg PUBLIC "-//W3C//DTD SVG 1.1//EN" "http://www.w3.org/Graphics/SVG/1.1/DTD/svg11.dtd">
<svg width="100%" height="100%" viewBox="0 0 1279 1250" version="1.1" xmlns="http://www.w3.org/2000/svg" xmlns:xlink="http://www.w3.org/1999/xlink" xml:space="preserve" xmlns:serif="http://www.serif.com/" style="fill-rule:evenodd;clip-rule:evenodd;stroke-linecap:round;stroke-linejoin:round;stroke-miterlimit:0.726744;">
    <g>
        <g>
            <g style="filter:url(#_Effect1);">
                <path d="M1127.65,559.375L1127.65,933.987C1127.65,1015 1061.88,1080.78 980.857,1080.78L687.272,1080.78C606.255,1080.78 540.479,1015 540.479,933.987L540.479,559.375C540.479,478.358 606.255,412.582 687.272,412.582L980.857,412.582C1061.88,412.582 1127.65,478.358 1127.65,559.375Z" style="fill:rgb(0,47,112);fill-opacity:0.2;"/>
            </g>
            <path d="M1127.65,559.375L1127.65,933.987C1127.65,1015 1061.88,1080.78 980.857,1080.78L687.272,1080.78C606.255,1080.78 540.479,1015 540.479,933.987L540.479,559.375C540.479,478.358 606.255,412.582 687.272,412.582L980.857,412.582C1061.88,412.582 1127.65,478.358 1127.65,559.375Z" style="fill:rgb(0,47,112);"/>
            <g style="filter:url(#_Effect2);">
                <path d="M833.723,358.242L833.723,992.283C833.723,1071.83 769.142,1136.41 689.597,1136.41L257.216,1136.41C177.67,1136.41 113.089,1071.83 113.089,992.283L113.089,358.242C113.089,278.696 177.67,214.115 257.216,214.115L689.597,214.115C769.142,214.115 833.723,278.696 833.723,358.242Z" style="fill:rgb(1,54,124);fill-opacity:0.3;"/>
            </g>
            <path d="M833.723,358.242L833.723,992.283C833.723,1071.83 769.142,1136.41 689.597,1136.41L257.216,1136.41C177.67,1136.41 113.089,1071.83 113.089,992.283L113.089,358.242C113.089,278.696 177.67,214.115 257.216,214.115L689.597,214.115C769.142,214.115 833.723,278.696 833.723,358.242Z" style="fill:white;stroke:rgb(126,211,72);stroke-width:0.13px;"/>
            <g style="filter:url(#_Effect3);">
                <path d="M983.03,554.421L983.03,938.941C983.03,1017.22 919.475,1080.78 841.192,1080.78L557.514,1080.78C479.231,1080.78 415.675,1017.22 415.675,938.941L415.675,554.421C415.675,476.138 479.231,412.582 557.514,412.582L841.192,412.582C919.475,412.582 983.03,476.138 983.03,554.421Z" style="fill:rgb(0,102,255);fill-opacity:0.33;"/>
            </g>
            <g style="filter:url(#_Effect4);">
                <path d="M415.675,214.115L415.675,412.582L339.117,367.104L263.808,412.582L263.808,214.115L415.675,214.115Z" style="fill:rgb(126,211,72);fill-opacity:0.2;"/>
            </g>
            <path d="M415.675,214.115C415.675,252.152 415.675,412.582 415.675,412.582L339.117,367.104L263.808,412.582C263.808,412.582 263.808,252.083 263.808,214.115C263.808,176.148 313.806,197.585 339.117,197.585C364.428,197.585 415.675,176.078 415.675,214.115Z" style="fill:rgb(126,211,72);"/>
        </g>
    </g>
    <defs>
        <filter id="_Effect1" filterUnits="userSpaceOnUse" x="238.909" y="111.011" width="1190.31" height="1271.34">
            <feGaussianBlur in="SourceGraphic" stdDeviation="50.2618"/>
        </filter>
        <filter id="_Effect2" filterUnits="userSpaceOnUse" x="-113.089" y="-12.0628" width="1172.99" height="1374.65">
            <feGaussianBlur in="SourceGraphic" stdDeviation="37.6963"/>
        </filter>
        <filter id="_Effect3" filterUnits="userSpaceOnUse" x="113.099" y="110.006" width="1172.51" height="1273.35">
            <feGaussianBlur in="SourceGraphic" stdDeviation="50.4293"/>
        </filter>
        <filter id="_Effect4" filterUnits="userSpaceOnUse" x="-164.422" y="-214.115" width="1008.33" height="1054.93">
            <feGaussianBlur in="SourceGraphic" stdDeviation="71.3717"/>
        </filter>
    </defs>
</svg>
