<?xml version="1.0" encoding="UTF-8" standalone="no"?><!DOCTYPE svg PUBLIC "-//W3C//DTD SVG 1.1//EN" "http://www.w3.org/Graphics/SVG/1.1/DTD/svg11.dtd"><svg width="100%" height="100%" viewBox="0 0 1434 1434" version="1.1" xmlns="http://www.w3.org/2000/svg" xmlns:xlink="http://www.w3.org/1999/xlink" xml:space="preserve" xmlns:serif="http://www.serif.com/" style="fill-rule:evenodd;clip-rule:evenodd;stroke-linejoin:round;stroke-miterlimit:2;"><ellipse cx="716.667" cy="716.667" rx="712.658" ry="712.5" style="fill:#fff;"/><path d="M577.917,377.5c-110.538,0 -200.417,89.879 -200.417,200.417l0,277.5c0,110.538 89.879,200.417 200.417,200.417l277.5,0c110.538,0 200.417,-89.879 200.417,-200.417l0,-277.5c0,-110.538 -89.879,-200.417 -200.417,-200.417l-277.5,0Zm323.75,123.333c16.958,0 30.833,13.875 30.833,30.833c0,16.958 -13.875,30.833 -30.833,30.833c-16.958,0 -30.833,-13.875 -30.833,-30.833c0,-16.958 13.875,-30.833 30.833,-30.833Zm-185,46.25c93.579,0 169.583,76.004 169.583,169.583c0,93.579 -76.004,169.583 -169.583,169.583c-93.579,0 -169.583,-76.004 -169.583,-169.583c0,-93.579 76.004,-169.583 169.583,-169.583Zm0,30.833c-76.467,0 -138.75,62.283 -138.75,138.75c0,76.467 62.283,138.75 138.75,138.75c76.467,0 138.75,-62.283 138.75,-138.75c0,-76.467 -62.283,-138.75 -138.75,-138.75Z" style="fill:#01377d;fill-rule:nonzero;"/></svg>