<?xml version="1.0" encoding="UTF-8" standalone="no"?><!DOCTYPE svg PUBLIC "-//W3C//DTD SVG 1.1//EN" "http://www.w3.org/Graphics/SVG/1.1/DTD/svg11.dtd"><svg width="100%" height="100%" viewBox="0 0 282 234" version="1.1" xmlns="http://www.w3.org/2000/svg" xmlns:xlink="http://www.w3.org/1999/xlink" xml:space="preserve" xmlns:serif="http://www.serif.com/" style="fill-rule:evenodd;clip-rule:evenodd;stroke-linejoin:round;stroke-miterlimit:2;"><g><path d="M65.132,89.683l0,-24.955l-65.132,0l0,24.955l14.943,0l0,53.38l-14.943,0l0,24.955l65.132,0l0,-24.955l-14.943,0l0,-53.38l14.943,0Z" style="fill:#00539f;fill-rule:nonzero;"/><path d="M137.01,104.36c-4.026,-1.171 -24.74,-7.1 -28.326,-8.271c-3.587,-1.171 -6.514,-2.855 -6.514,-4.977c0,-2.123 3.294,-4.392 9.955,-4.392c21.007,0 31.098,12.956 31.098,12.956c0,0 1.137,1.515 1.518,2.058l20.267,0l0,-35.346l-21.758,0l0,6.431c-1.662,-1.148 -13.93,-9.155 -32.956,-9.155c-25.106,0 -39.086,13.029 -39.086,32.499c0,19.47 17.64,27.521 22.544,29.571c4.904,2.049 24.081,7.466 32.279,10.028c8.198,2.562 11.199,4.392 11.199,5.709c0,1.318 -3.587,4.758 -13.834,4.758c-17.85,0 -27.042,-10.526 -28.655,-12.564l0,-0.016c-0.513,-0.687 -1.115,-1.501 -1.319,-1.807c-0.237,-0.354 -0.785,-1.141 -1.166,-1.684l-20.267,0l0,37.746l22.753,0l0,-7.882c2.647,1.762 16.199,10.216 32.461,10.216c18.152,0 41.282,-7.905 41.282,-32.572c0,-24.667 -27.448,-32.133 -31.474,-33.304Z" style="fill:#00539f;fill-rule:nonzero;"/><path d="M226.255,63.317c-30.261,0 -55.079,15.13 -55.079,53.751c0,38.622 26.942,53.088 55.211,53.088c28.269,0 54.946,-14.334 54.946,-52.689c0,-38.355 -26.676,-54.15 -55.078,-54.15Zm0.266,81.092c-10.353,0 -16.989,-2.389 -16.989,-27.473c0,-25.084 4.911,-27.739 17.386,-27.739c7.565,0 16.723,0.531 16.723,26.942c0,26.412 -6.768,28.269 -17.121,28.269Z" style="fill:#00539f;fill-rule:nonzero;"/><path d="M43.399,53.337c6.802,-10.045 15.168,-18.949 24.757,-26.343c3.878,2.867 7.999,5.467 12.332,7.785c-7.26,8.092 -13.764,17.058 -14.842,18.558l4.356,0c2.615,-3.524 8.023,-10.613 13.726,-16.897c6.233,3.064 12.858,5.57 19.77,7.479c-1.84,3.903 -3.231,7.317 -4.047,9.418l3.784,0c0.87,-2.164 2.144,-5.183 3.734,-8.518c8.817,2.154 18.056,3.362 27.508,3.546l0,4.973l3.513,0l0,-4.956c9.382,-0.069 18.57,-1.138 27.357,-3.147c1.498,3.168 2.704,6.029 3.537,8.102l3.784,0c-0.785,-2.018 -2.097,-5.245 -3.831,-8.957c7.035,-1.83 13.786,-4.271 20.144,-7.287c5.484,6.118 10.612,12.842 13.136,16.244l4.355,0c-1.044,-1.454 -7.212,-9.958 -14.22,-17.862c4.819,-2.49 9.387,-5.324 13.658,-8.481c9.59,7.394 17.956,16.298 24.757,26.343l4.226,0c-20.78,-32.072 -56.882,-53.337 -97.861,-53.337c-40.979,0 -77.081,21.265 -97.861,53.337l4.227,0Zm61.667,-12.631c-6.575,-1.776 -12.883,-4.104 -18.83,-6.952c0.808,-0.84 1.616,-1.653 2.414,-2.423c8.143,-7.853 21.537,-16.476 24.473,-18.332c2.383,1.309 4.983,2.415 7.748,3.294c-2.148,2.817 -6.365,8.534 -10.958,15.786c-1.788,2.822 -3.416,5.789 -4.848,8.628Zm29.411,4.144c-8.898,-0.178 -17.598,-1.286 -25.915,-3.258c1.301,-2.543 2.752,-5.159 4.319,-7.633c5.291,-8.354 10.065,-14.627 11.655,-16.667c3.173,0.745 6.508,1.217 9.94,1.371l0,26.188Zm3.513,0.018l0,-26.166c3.386,-0.057 6.699,-0.416 9.87,-1.053c1.818,2.351 6.366,8.396 11.378,16.31c1.649,2.604 3.17,5.364 4.522,8.032c-8.287,1.833 -16.937,2.812 -25.77,2.877Zm29.292,-3.71c-1.486,-2.975 -3.194,-6.107 -5.076,-9.08c-4.355,-6.878 -8.375,-12.376 -10.61,-15.329c2.941,-0.826 5.718,-1.9 8.268,-3.199c4.122,2.642 16.093,10.535 23.606,17.781c0.997,0.962 2.008,1.99 3.017,3.055c-6.071,2.803 -12.506,5.072 -19.205,6.772Zm35.686,-16.361c-4.122,2.975 -8.526,5.641 -13.163,7.984c-1.296,-1.39 -2.603,-2.733 -3.896,-3.98c-7.027,-6.777 -17.491,-13.886 -22.617,-17.224c1.741,-1.129 3.334,-2.377 4.754,-3.736c12.69,3.626 24.471,9.423 34.922,16.957Zm-65.935,-21.284c9.278,0 18.295,1.132 26.929,3.25c-6.552,5.322 -16.37,8.444 -26.929,8.444c-10.606,0 -20.397,-3.112 -26.941,-8.441c8.637,-2.12 17.658,-3.253 26.941,-3.253Zm-31.014,4.327c1.156,1.108 2.421,2.144 3.792,3.1c-4.645,2.989 -16.085,10.613 -23.6,17.86c-1.082,1.043 -2.173,2.155 -3.26,3.304c-4.157,-2.177 -8.121,-4.614 -11.852,-7.307c10.45,-7.533 22.23,-13.33 34.92,-16.957Z" style="fill:#00539f;fill-rule:nonzero;"/><path d="M230.674,179.72c-6.658,9.833 -14.815,18.572 -24.15,25.873c-4.446,-3.344 -9.218,-6.332 -14.265,-8.943c6.08,-6.858 11.527,-14.167 13.544,-16.93l-4.375,0c-2.697,3.601 -7.418,9.71 -12.44,15.312c-6.358,-3.017 -13.108,-5.46 -20.145,-7.29c1.488,-3.186 2.663,-6.01 3.463,-8.023l-3.796,0c-0.805,1.963 -1.874,4.453 -3.16,7.172c-8.781,-2.006 -17.968,-3.075 -27.358,-3.143l0,-4.029l-3.513,0l0,4.045c-9.459,0.183 -18.698,1.39 -27.51,3.541c-1.373,-2.879 -2.51,-5.524 -3.355,-7.586l-3.796,0c0.838,2.11 2.089,5.111 3.679,8.485c-6.914,1.91 -13.54,4.412 -19.773,7.478c-5.237,-5.773 -10.224,-12.222 -13.028,-15.964l-4.375,0c2.083,2.855 7.838,10.573 14.169,17.629c-4.56,2.442 -8.889,5.193 -12.944,8.243c-9.336,-7.301 -17.493,-16.04 -24.15,-25.873l-4.22,0c20.781,32.072 56.882,53.337 97.86,53.337c40.977,0 77.079,-21.265 97.86,-53.337l-4.221,0l0,0.001Zm-63.389,11.247c6.701,1.699 13.136,3.968 19.208,6.772c-1.011,1.067 -2.023,2.096 -3.021,3.06c-7.49,7.222 -19.423,15.097 -23.576,17.76c-2.55,-1.305 -5.33,-2.379 -8.28,-3.205c2.239,-2.958 6.248,-8.446 10.592,-15.304c1.884,-2.973 3.592,-6.107 5.078,-9.083Zm-29.294,-3.705c8.84,0.066 17.49,1.042 25.772,2.872c-1.353,2.669 -2.873,5.43 -4.524,8.036c-5.005,7.903 -9.546,13.942 -11.369,16.3c-3.162,-0.63 -6.475,-0.985 -9.879,-1.042l0,-26.166l0.001,0Zm-3.513,0.018l0,26.185c-3.445,0.153 -6.784,0.618 -9.953,1.358c-1.602,-2.056 -6.36,-8.311 -11.643,-16.653c-1.569,-2.476 -3.021,-5.094 -4.322,-7.639c8.311,-1.97 17.012,-3.074 25.917,-3.252Zm-29.413,4.14c1.432,2.841 3.062,5.807 4.85,8.631c4.589,7.246 8.803,12.96 10.953,15.779c-2.77,0.878 -5.367,1.986 -7.748,3.298c-2.947,-1.864 -16.33,-10.481 -24.468,-18.329c-0.799,-0.771 -1.607,-1.585 -2.416,-2.425c5.946,-2.849 12.253,-5.178 18.83,-6.954Zm-34.601,16.375c3.916,-2.879 8.091,-5.474 12.483,-7.774c1.088,1.15 2.181,2.263 3.264,3.308c7.514,7.245 18.95,14.868 23.597,17.858c-1.655,1.159 -3.164,2.433 -4.505,3.816c-12.673,-3.714 -24.428,-9.593 -34.839,-17.207Zm66.571,21.748c-9.582,0 -18.887,-1.203 -27.777,-3.458c6.492,-5.705 16.8,-9.163 27.777,-9.163c10.964,0 21.282,3.461 27.774,9.164c-8.889,2.255 -18.194,3.458 -27.774,3.458Zm31.729,-4.541c-1.594,-1.642 -3.416,-3.14 -5.448,-4.465c5.135,-3.344 15.578,-10.442 22.594,-17.209c1.294,-1.248 2.601,-2.591 3.898,-3.982c4.874,2.465 9.493,5.285 13.796,8.449c-10.412,7.616 -22.168,13.495 -34.841,17.208Z" style="fill:#00539f;fill-rule:nonzero;"/></g></svg>