<?xml version="1.0" encoding="UTF-8" standalone="no"?><!DOCTYPE svg PUBLIC "-//W3C//DTD SVG 1.1//EN" "http://www.w3.org/Graphics/SVG/1.1/DTD/svg11.dtd"><svg width="100%" height="100%" viewBox="0 0 780 235" version="1.1" xmlns="http://www.w3.org/2000/svg" xmlns:xlink="http://www.w3.org/1999/xlink" xml:space="preserve" xmlns:serif="http://www.serif.com/" style="fill-rule:evenodd;clip-rule:evenodd;stroke-linejoin:round;stroke-miterlimit:2;"><g><g transform="matrix(1,0,0,1,-198.176096,-364.45931)"><g transform="matrix(45.833333,0,0,45.833333,559,431)"><rect x="0.086" y="-0.66" width="0.138" height="0.66" style="fill:#00539f;fill-rule:nonzero;"/></g><g transform="matrix(45.833333,0,0,45.833333,573.211092,431)"><path d="M0.327,-0.67c0.06,0 0.113,0.01 0.158,0.031c0.045,0.021 0.084,0.051 0.116,0.092l-0.077,0.089c-0.027,-0.035 -0.057,-0.06 -0.089,-0.076c-0.032,-0.016 -0.07,-0.024 -0.112,-0.024c-0.029,0 -0.052,0.004 -0.07,0.011c-0.018,0.007 -0.031,0.017 -0.04,0.029c-0.008,0.012 -0.012,0.025 -0.012,0.04c0,0.018 0.007,0.033 0.021,0.045c0.014,0.012 0.038,0.023 0.072,0.031l0.123,0.028c0.065,0.015 0.112,0.036 0.14,0.065c0.029,0.029 0.043,0.067 0.043,0.113c0,0.043 -0.011,0.081 -0.034,0.112c-0.023,0.031 -0.055,0.055 -0.095,0.071c-0.04,0.016 -0.087,0.024 -0.14,0.024c-0.046,-0 -0.088,-0.005 -0.126,-0.016c-0.038,-0.011 -0.073,-0.026 -0.102,-0.045c-0.03,-0.019 -0.055,-0.042 -0.075,-0.067l0.078,-0.093c0.015,0.022 0.034,0.041 0.057,0.057c0.023,0.017 0.049,0.03 0.077,0.039c0.029,0.009 0.059,0.014 0.092,0.014c0.027,0 0.05,-0.003 0.069,-0.009c0.019,-0.006 0.033,-0.015 0.043,-0.027c0.01,-0.012 0.014,-0.026 0.014,-0.043c0,-0.017 -0.006,-0.031 -0.017,-0.044c-0.012,-0.012 -0.033,-0.022 -0.065,-0.029l-0.134,-0.03c-0.039,-0.009 -0.072,-0.021 -0.099,-0.036c-0.028,-0.015 -0.049,-0.035 -0.063,-0.058c-0.014,-0.024 -0.022,-0.052 -0.022,-0.085c-0,-0.039 0.011,-0.074 0.032,-0.106c0.021,-0.031 0.052,-0.056 0.093,-0.075c0.041,-0.018 0.089,-0.028 0.146,-0.028Z" style="fill:#00539f;fill-rule:nonzero;"/></g><g transform="matrix(45.833333,0,0,45.833333,602.712177,431)"><path d="M0.371,-0.67c0.065,0 0.122,0.014 0.169,0.041c0.047,0.027 0.084,0.066 0.109,0.117c0.026,0.051 0.038,0.111 0.038,0.182c0,0.071 -0.013,0.131 -0.038,0.182c-0.026,0.051 -0.062,0.09 -0.109,0.117c-0.047,0.027 -0.104,0.041 -0.169,0.041c-0.065,-0 -0.122,-0.014 -0.169,-0.041c-0.047,-0.027 -0.084,-0.066 -0.11,-0.117c-0.026,-0.051 -0.039,-0.111 -0.039,-0.182c0,-0.071 0.013,-0.131 0.039,-0.182c0.026,-0.051 0.062,-0.09 0.11,-0.117c0.047,-0.027 0.104,-0.041 0.169,-0.041Zm0,0.113c-0.037,0 -0.068,0.009 -0.094,0.026c-0.026,0.017 -0.046,0.043 -0.06,0.077c-0.014,0.034 -0.021,0.075 -0.021,0.124c0,0.049 0.007,0.09 0.021,0.124c0.014,0.034 0.034,0.059 0.06,0.077c0.026,0.017 0.058,0.026 0.094,0.026c0.037,-0 0.069,-0.009 0.095,-0.026c0.026,-0.017 0.046,-0.043 0.059,-0.077c0.014,-0.034 0.021,-0.075 0.021,-0.124c0,-0.049 -0.007,-0.09 -0.021,-0.124c-0.014,-0.034 -0.033,-0.059 -0.059,-0.077c-0.026,-0.017 -0.057,-0.026 -0.095,-0.026Z" style="fill:#00539f;fill-rule:nonzero;"/></g><g transform="matrix(45.833333,0,0,45.833333,635.793756,431)"><path d="M0.437,-0.719l-0.29,0.789l-0.127,0l0.29,-0.789l0.127,-0Z" style="fill:#00539f;fill-rule:nonzero;"/></g><g transform="matrix(45.833333,0,0,45.833333,656.711184,431)"><rect x="0.086" y="-0.66" width="0.138" height="0.66" style="fill:#00539f;fill-rule:nonzero;"/></g><g transform="matrix(45.833333,0,0,45.833333,670.922275,431)"><path d="M0.086,-0l0,-0.66l0.495,0l0,0.111l-0.357,0l0,0.163l0.281,0l0,0.107l-0.281,0l0,0.167l0.371,0l0,0.111l-0.509,-0Z" style="fill:#00539f;fill-rule:nonzero;"/></g><g transform="matrix(45.833333,0,0,45.833333,699.542439,431)"><path d="M0.651,-0.182c-0.013,0.043 -0.033,0.078 -0.061,0.107c-0.027,0.029 -0.059,0.05 -0.097,0.064c-0.037,0.014 -0.079,0.021 -0.123,0.021c-0.065,-0 -0.122,-0.014 -0.169,-0.041c-0.047,-0.027 -0.084,-0.066 -0.11,-0.117c-0.026,-0.051 -0.039,-0.111 -0.039,-0.182c0,-0.071 0.013,-0.131 0.039,-0.182c0.026,-0.051 0.062,-0.09 0.11,-0.117c0.047,-0.027 0.103,-0.041 0.168,-0.041c0.045,0 0.086,0.006 0.122,0.019c0.037,0.012 0.068,0.031 0.093,0.057c0.026,0.025 0.045,0.057 0.057,0.096l-0.125,0.053c-0.011,-0.04 -0.028,-0.069 -0.052,-0.086c-0.023,-0.017 -0.053,-0.026 -0.09,-0.026c-0.036,0 -0.068,0.009 -0.095,0.026c-0.027,0.017 -0.048,0.043 -0.063,0.077c-0.015,0.034 -0.022,0.075 -0.022,0.124c0,0.048 0.007,0.09 0.021,0.124c0.014,0.034 0.034,0.06 0.061,0.077c0.027,0.017 0.059,0.026 0.097,0.026c0.036,-0 0.068,-0.01 0.094,-0.029c0.026,-0.019 0.044,-0.049 0.055,-0.088l0.128,0.039Z" style="fill:#00539f;fill-rule:nonzero;"/></g><g transform="matrix(45.833333,0,0,45.833333,730.827354,431)"></g><g transform="matrix(45.833333,0,0,45.833333,559,493.5)"><path d="M0.065,-0l0,-0.093c0.06,-0.04 0.111,-0.077 0.152,-0.11c0.042,-0.033 0.075,-0.063 0.101,-0.092c0.026,-0.028 0.044,-0.055 0.056,-0.081c0.012,-0.025 0.017,-0.051 0.017,-0.077c0,-0.03 -0.009,-0.056 -0.028,-0.075c-0.019,-0.02 -0.045,-0.029 -0.08,-0.029c-0.037,0 -0.066,0.013 -0.087,0.038c-0.021,0.025 -0.033,0.061 -0.035,0.107l-0.119,-0.044c0.003,-0.045 0.015,-0.084 0.037,-0.116c0.021,-0.032 0.05,-0.056 0.086,-0.073c0.036,-0.017 0.078,-0.025 0.126,-0.025c0.04,0 0.075,0.006 0.105,0.017c0.03,0.011 0.055,0.027 0.074,0.046c0.02,0.02 0.035,0.042 0.045,0.067c0.01,0.025 0.015,0.052 0.015,0.079c0,0.042 -0.011,0.083 -0.032,0.121c-0.021,0.038 -0.053,0.076 -0.097,0.113c-0.043,0.038 -0.098,0.077 -0.165,0.118l0,0.001c0.01,-0.001 0.022,-0.002 0.037,-0.002c0.015,-0.001 0.029,-0.001 0.045,-0.001c0.015,-0 0.029,-0.001 0.04,-0.001l0.182,0l0,0.111l-0.476,-0Z" style="fill:#00539f;fill-rule:nonzero;"/></g><g transform="matrix(45.833333,0,0,45.833333,585.233172,493.5)"><path d="M0.035,-0.66l0.522,0l0,0.105c-0.055,0.055 -0.099,0.112 -0.132,0.171c-0.033,0.059 -0.056,0.12 -0.071,0.183c-0.014,0.063 -0.021,0.13 -0.021,0.201l-0.137,-0c0,-0.073 0.009,-0.144 0.027,-0.211c0.018,-0.068 0.047,-0.132 0.085,-0.194c0.038,-0.062 0.087,-0.121 0.147,-0.177l0.028,0.036l-0.448,0l-0,-0.113Z" style="fill:#00539f;fill-rule:nonzero;"/></g><g transform="matrix(45.833333,0,0,45.833333,611.221606,493.5)"><path d="M0.318,0.01c-0.084,0 -0.149,-0.029 -0.195,-0.086c-0.046,-0.057 -0.069,-0.142 -0.069,-0.254c0,-0.112 0.023,-0.196 0.069,-0.254c0.046,-0.057 0.111,-0.086 0.195,-0.086c0.085,0 0.15,0.029 0.195,0.086c0.046,0.057 0.068,0.142 0.068,0.254c0,0.112 -0.023,0.196 -0.068,0.254c-0.046,0.057 -0.111,0.086 -0.195,0.086Zm0,-0.111c0.028,0 0.052,-0.008 0.071,-0.024c0.019,-0.016 0.032,-0.041 0.042,-0.075c0.009,-0.034 0.014,-0.077 0.014,-0.13c0,-0.052 -0.005,-0.096 -0.014,-0.13c-0.009,-0.034 -0.023,-0.059 -0.042,-0.075c-0.019,-0.016 -0.042,-0.024 -0.071,-0.024c-0.028,0 -0.052,0.008 -0.07,0.024c-0.019,0.016 -0.033,0.041 -0.042,0.075c-0.009,0.034 -0.014,0.077 -0.014,0.13c0,0.052 0.005,0.096 0.014,0.13c0.009,0.034 0.023,0.059 0.042,0.075c0.019,0.016 0.042,0.024 0.07,0.024Z" style="fill:#00539f;fill-rule:nonzero;"/></g><g transform="matrix(45.833333,0,0,45.833333,640.356947,493.5)"><path d="M0.318,0.01c-0.084,0 -0.149,-0.029 -0.195,-0.086c-0.046,-0.057 -0.069,-0.142 -0.069,-0.254c0,-0.112 0.023,-0.196 0.069,-0.254c0.046,-0.057 0.111,-0.086 0.195,-0.086c0.085,0 0.15,0.029 0.195,0.086c0.046,0.057 0.068,0.142 0.068,0.254c0,0.112 -0.023,0.196 -0.068,0.254c-0.046,0.057 -0.111,0.086 -0.195,0.086Zm0,-0.111c0.028,0 0.052,-0.008 0.071,-0.024c0.019,-0.016 0.032,-0.041 0.042,-0.075c0.009,-0.034 0.014,-0.077 0.014,-0.13c0,-0.052 -0.005,-0.096 -0.014,-0.13c-0.009,-0.034 -0.023,-0.059 -0.042,-0.075c-0.019,-0.016 -0.042,-0.024 -0.071,-0.024c-0.028,0 -0.052,0.008 -0.07,0.024c-0.019,0.016 -0.033,0.041 -0.042,0.075c-0.009,0.034 -0.014,0.077 -0.014,0.13c0,0.052 0.005,0.096 0.014,0.13c0.009,0.034 0.023,0.059 0.042,0.075c0.019,0.016 0.042,0.024 0.07,0.024Z" style="fill:#00539f;fill-rule:nonzero;"/></g><g transform="matrix(45.833333,0,0,45.833333,669.492289,493.5)"><path d="M0.197,-0l0,-0.418c0,-0.015 0,-0.031 0,-0.048c0,-0.016 0.001,-0.033 0.001,-0.05c-0.022,0.021 -0.047,0.039 -0.075,0.054c-0.028,0.015 -0.057,0.026 -0.087,0.032l-0.018,-0.116c0.015,-0.002 0.033,-0.006 0.052,-0.014c0.019,-0.007 0.039,-0.017 0.058,-0.028c0.02,-0.011 0.037,-0.023 0.054,-0.035c0.016,-0.013 0.029,-0.025 0.037,-0.037l0.112,0l0,0.66l-0.134,-0Z" style="fill:#00539f;fill-rule:nonzero;"/></g><g transform="matrix(45.833333,0,0,45.833333,688.569054,493.5)"><path d="M0.15,-0.51c0.027,0 0.048,0.007 0.064,0.022c0.016,0.015 0.024,0.034 0.024,0.059c0,0.025 -0.008,0.045 -0.024,0.059c-0.016,0.014 -0.037,0.021 -0.064,0.021c-0.027,0 -0.048,-0.007 -0.063,-0.021c-0.016,-0.014 -0.024,-0.034 -0.024,-0.059c0,-0.025 0.008,-0.044 0.024,-0.059c0.016,-0.015 0.037,-0.022 0.063,-0.022Zm0,0.357c0.027,0 0.048,0.007 0.064,0.022c0.016,0.015 0.024,0.034 0.024,0.059c0,0.025 -0.008,0.045 -0.024,0.06c-0.016,0.014 -0.037,0.021 -0.064,0.021c-0.027,0 -0.048,-0.007 -0.063,-0.022c-0.016,-0.014 -0.024,-0.034 -0.024,-0.06c0,-0.025 0.008,-0.044 0.024,-0.059c0.016,-0.015 0.037,-0.022 0.063,-0.022Z" style="fill:#00539f;fill-rule:nonzero;"/></g><g transform="matrix(45.833333,0,0,45.833333,702.30989,493.5)"><path d="M0.065,-0l0,-0.093c0.06,-0.04 0.111,-0.077 0.152,-0.11c0.042,-0.033 0.075,-0.063 0.101,-0.092c0.026,-0.028 0.044,-0.055 0.056,-0.081c0.012,-0.025 0.017,-0.051 0.017,-0.077c0,-0.03 -0.009,-0.056 -0.028,-0.075c-0.019,-0.02 -0.045,-0.029 -0.08,-0.029c-0.037,0 -0.066,0.013 -0.087,0.038c-0.021,0.025 -0.033,0.061 -0.035,0.107l-0.119,-0.044c0.003,-0.045 0.015,-0.084 0.037,-0.116c0.021,-0.032 0.05,-0.056 0.086,-0.073c0.036,-0.017 0.078,-0.025 0.126,-0.025c0.04,0 0.075,0.006 0.105,0.017c0.03,0.011 0.055,0.027 0.074,0.046c0.02,0.02 0.035,0.042 0.045,0.067c0.01,0.025 0.015,0.052 0.015,0.079c0,0.042 -0.011,0.083 -0.032,0.121c-0.021,0.038 -0.053,0.076 -0.097,0.113c-0.043,0.038 -0.098,0.077 -0.165,0.118l0,0.001c0.01,-0.001 0.022,-0.002 0.037,-0.002c0.015,-0.001 0.029,-0.001 0.045,-0.001c0.015,-0 0.029,-0.001 0.04,-0.001l0.182,0l0,0.111l-0.476,-0Z" style="fill:#00539f;fill-rule:nonzero;"/></g><g transform="matrix(45.833333,0,0,45.833333,729.413895,493.5)"><path d="M0.318,0.01c-0.084,0 -0.149,-0.029 -0.195,-0.086c-0.046,-0.057 -0.069,-0.142 -0.069,-0.254c0,-0.112 0.023,-0.196 0.069,-0.254c0.046,-0.057 0.111,-0.086 0.195,-0.086c0.085,0 0.15,0.029 0.195,0.086c0.046,0.057 0.068,0.142 0.068,0.254c0,0.112 -0.023,0.196 -0.068,0.254c-0.046,0.057 -0.111,0.086 -0.195,0.086Zm0,-0.111c0.028,0 0.052,-0.008 0.071,-0.024c0.019,-0.016 0.032,-0.041 0.042,-0.075c0.009,-0.034 0.014,-0.077 0.014,-0.13c0,-0.052 -0.005,-0.096 -0.014,-0.13c-0.009,-0.034 -0.023,-0.059 -0.042,-0.075c-0.019,-0.016 -0.042,-0.024 -0.071,-0.024c-0.028,0 -0.052,0.008 -0.07,0.024c-0.019,0.016 -0.033,0.041 -0.042,0.075c-0.009,0.034 -0.014,0.077 -0.014,0.13c0,0.052 0.005,0.096 0.014,0.13c0.009,0.034 0.023,0.059 0.042,0.075c0.019,0.016 0.042,0.024 0.07,0.024Z" style="fill:#00539f;fill-rule:nonzero;"/></g><g transform="matrix(45.833333,0,0,45.833333,758.549236,493.5)"><path d="M0.065,-0l0,-0.093c0.06,-0.04 0.111,-0.077 0.152,-0.11c0.042,-0.033 0.075,-0.063 0.101,-0.092c0.026,-0.028 0.044,-0.055 0.056,-0.081c0.012,-0.025 0.017,-0.051 0.017,-0.077c0,-0.03 -0.009,-0.056 -0.028,-0.075c-0.019,-0.02 -0.045,-0.029 -0.08,-0.029c-0.037,0 -0.066,0.013 -0.087,0.038c-0.021,0.025 -0.033,0.061 -0.035,0.107l-0.119,-0.044c0.003,-0.045 0.015,-0.084 0.037,-0.116c0.021,-0.032 0.05,-0.056 0.086,-0.073c0.036,-0.017 0.078,-0.025 0.126,-0.025c0.04,0 0.075,0.006 0.105,0.017c0.03,0.011 0.055,0.027 0.074,0.046c0.02,0.02 0.035,0.042 0.045,0.067c0.01,0.025 0.015,0.052 0.015,0.079c0,0.042 -0.011,0.083 -0.032,0.121c-0.021,0.038 -0.053,0.076 -0.097,0.113c-0.043,0.038 -0.098,0.077 -0.165,0.118l0,0.001c0.01,-0.001 0.022,-0.002 0.037,-0.002c0.015,-0.001 0.029,-0.001 0.045,-0.001c0.015,-0 0.029,-0.001 0.04,-0.001l0.182,0l0,0.111l-0.476,-0Z" style="fill:#00539f;fill-rule:nonzero;"/></g><g transform="matrix(45.833333,0,0,45.833333,785.653241,493.5)"><path d="M0.065,-0l0,-0.093c0.06,-0.04 0.111,-0.077 0.152,-0.11c0.042,-0.033 0.075,-0.063 0.101,-0.092c0.026,-0.028 0.044,-0.055 0.056,-0.081c0.012,-0.025 0.017,-0.051 0.017,-0.077c0,-0.03 -0.009,-0.056 -0.028,-0.075c-0.019,-0.02 -0.045,-0.029 -0.08,-0.029c-0.037,0 -0.066,0.013 -0.087,0.038c-0.021,0.025 -0.033,0.061 -0.035,0.107l-0.119,-0.044c0.003,-0.045 0.015,-0.084 0.037,-0.116c0.021,-0.032 0.05,-0.056 0.086,-0.073c0.036,-0.017 0.078,-0.025 0.126,-0.025c0.04,0 0.075,0.006 0.105,0.017c0.03,0.011 0.055,0.027 0.074,0.046c0.02,0.02 0.035,0.042 0.045,0.067c0.01,0.025 0.015,0.052 0.015,0.079c0,0.042 -0.011,0.083 -0.032,0.121c-0.021,0.038 -0.053,0.076 -0.097,0.113c-0.043,0.038 -0.098,0.077 -0.165,0.118l0,0.001c0.01,-0.001 0.022,-0.002 0.037,-0.002c0.015,-0.001 0.029,-0.001 0.045,-0.001c0.015,-0 0.029,-0.001 0.04,-0.001l0.182,0l0,0.111l-0.476,-0Z" style="fill:#00539f;fill-rule:nonzero;"/></g><g transform="matrix(45.833333,0,0,45.833333,812.757246,493.5)"></g><g transform="matrix(45.833333,0,0,45.833333,559,556)"><path d="M0.651,-0.182c-0.013,0.043 -0.033,0.078 -0.061,0.107c-0.027,0.029 -0.059,0.05 -0.097,0.064c-0.037,0.014 -0.079,0.021 -0.123,0.021c-0.065,-0 -0.122,-0.014 -0.169,-0.041c-0.047,-0.027 -0.084,-0.066 -0.11,-0.117c-0.026,-0.051 -0.039,-0.111 -0.039,-0.182c0,-0.071 0.013,-0.131 0.039,-0.182c0.026,-0.051 0.062,-0.09 0.11,-0.117c0.047,-0.027 0.103,-0.041 0.168,-0.041c0.045,0 0.086,0.006 0.122,0.019c0.037,0.012 0.068,0.031 0.093,0.057c0.026,0.025 0.045,0.057 0.057,0.096l-0.125,0.053c-0.011,-0.04 -0.028,-0.069 -0.052,-0.086c-0.023,-0.017 -0.053,-0.026 -0.09,-0.026c-0.036,0 -0.068,0.009 -0.095,0.026c-0.027,0.017 -0.048,0.043 -0.063,0.077c-0.015,0.034 -0.022,0.075 -0.022,0.124c0,0.048 0.007,0.09 0.021,0.124c0.014,0.034 0.034,0.06 0.061,0.077c0.027,0.017 0.059,0.026 0.097,0.026c0.036,-0 0.068,-0.01 0.094,-0.029c0.026,-0.019 0.044,-0.049 0.055,-0.088l0.128,0.039Z" style="fill:#00539f;fill-rule:nonzero;"/></g><g transform="matrix(45.833333,0,0,45.833333,590.284915,556)"><path d="M0.304,0.01c-0.053,0 -0.098,-0.01 -0.137,-0.031c-0.039,-0.021 -0.069,-0.05 -0.091,-0.089c-0.021,-0.039 -0.032,-0.085 -0.032,-0.14c0,-0.055 0.011,-0.101 0.032,-0.14c0.021,-0.039 0.051,-0.068 0.09,-0.089c0.038,-0.021 0.082,-0.031 0.131,-0.031c0.051,0 0.094,0.01 0.129,0.03c0.035,0.02 0.062,0.048 0.081,0.083c0.019,0.035 0.028,0.075 0.028,0.119c0,0.013 -0,0.026 -0.001,0.038c-0.001,0.012 -0.002,0.023 -0.003,0.032l-0.399,0l0,-0.095l0.339,0l-0.066,0.024c0,-0.042 -0.01,-0.074 -0.029,-0.097c-0.019,-0.023 -0.046,-0.034 -0.081,-0.034c-0.025,0 -0.047,0.006 -0.065,0.018c-0.018,0.012 -0.032,0.03 -0.042,0.053c-0.009,0.024 -0.014,0.054 -0.014,0.09c0,0.035 0.005,0.065 0.015,0.087c0.01,0.023 0.025,0.04 0.044,0.052c0.019,0.011 0.042,0.017 0.068,0.017c0.029,-0 0.053,-0.006 0.071,-0.017c0.018,-0.011 0.032,-0.027 0.042,-0.047l0.109,0.042c-0.011,0.026 -0.027,0.048 -0.048,0.067c-0.022,0.019 -0.047,0.033 -0.077,0.042c-0.03,0.01 -0.061,0.015 -0.096,0.015Z" style="fill:#00539f;fill-rule:nonzero;"/></g><g transform="matrix(45.833333,0,0,45.833333,616.822415,556)"><path d="M0.072,-0l0,-0.5l0.119,0l0.009,0.098c0.013,-0.035 0.032,-0.061 0.058,-0.08c0.026,-0.019 0.058,-0.028 0.097,-0.028c0.011,0 0.022,0.001 0.031,0.003c0.009,0.002 0.017,0.005 0.023,0.008l-0.016,0.116c-0.007,-0.003 -0.015,-0.005 -0.025,-0.006c-0.01,-0.002 -0.022,-0.002 -0.037,-0.002c-0.02,0 -0.04,0.005 -0.059,0.015c-0.019,0.01 -0.034,0.025 -0.046,0.044c-0.012,0.02 -0.018,0.045 -0.018,0.075l0,0.259l-0.137,-0Z" style="fill:#00539f;fill-rule:nonzero;"/></g><g transform="matrix(45.833333,0,0,45.833333,635.278589,556)"><path d="M0.249,-0.653l0,0.49c0,0.024 0.006,0.041 0.019,0.053c0.012,0.011 0.029,0.017 0.051,0.017c0.017,0 0.032,-0.002 0.044,-0.007c0.012,-0.005 0.024,-0.012 0.034,-0.021l0.021,0.091c-0.016,0.013 -0.036,0.023 -0.06,0.03c-0.024,0.007 -0.049,0.011 -0.076,0.011c-0.033,0 -0.063,-0.005 -0.089,-0.015c-0.026,-0.01 -0.046,-0.026 -0.06,-0.048c-0.014,-0.022 -0.022,-0.051 -0.022,-0.088l0,-0.474l0.137,-0.038Zm0.161,0.153l0,0.102l-0.389,0l-0,-0.102l0.389,0Z" style="fill:#00539f;fill-rule:nonzero;"/></g><g transform="matrix(45.833333,0,0,45.833333,655.005263,556)"><path d="M0.141,-0.572c-0.028,0 -0.05,-0.006 -0.064,-0.019c-0.014,-0.012 -0.021,-0.031 -0.021,-0.055c0,-0.025 0.007,-0.043 0.021,-0.055c0.014,-0.012 0.035,-0.018 0.064,-0.018c0.028,0 0.05,0.006 0.064,0.018c0.014,0.012 0.021,0.031 0.021,0.055c0,0.024 -0.007,0.043 -0.021,0.055c-0.014,0.012 -0.035,0.019 -0.064,0.019Zm0.069,0.072l0,0.5l-0.137,-0l0,-0.5l0.137,0Z" style="fill:#00539f;fill-rule:nonzero;"/></g><g transform="matrix(45.833333,0,0,45.833333,667.928439,556)"><path d="M0.295,-0.729c0.023,0 0.044,0.002 0.064,0.007c0.019,0.005 0.033,0.011 0.043,0.018l-0.019,0.091c-0.007,-0.005 -0.016,-0.008 -0.025,-0.011c-0.009,-0.003 -0.02,-0.004 -0.033,-0.004c-0.026,0 -0.047,0.006 -0.062,0.017c-0.015,0.012 -0.023,0.032 -0.023,0.059l0,0.069l0.006,0.027l0,0.454l-0.137,-0l0,-0.56c0,-0.028 0.005,-0.053 0.014,-0.074c0.009,-0.021 0.022,-0.039 0.039,-0.053c0.017,-0.014 0.037,-0.024 0.059,-0.031c0.023,-0.007 0.048,-0.01 0.074,-0.01Zm0.102,0.229l0,0.102l-0.376,0l-0,-0.102l0.376,0Zm0.151,-0.072c-0.029,0 -0.05,-0.006 -0.064,-0.018c-0.014,-0.012 -0.021,-0.03 -0.021,-0.054c0,-0.025 0.007,-0.043 0.021,-0.055c0.014,-0.012 0.035,-0.018 0.064,-0.018c0.029,0 0.05,0.006 0.064,0.018c0.014,0.012 0.021,0.031 0.021,0.055c0,0.024 -0.007,0.042 -0.021,0.054c-0.014,0.012 -0.035,0.018 -0.064,0.018Zm0.068,0.072l0,0.5l-0.137,-0l0,-0.5l0.137,0Z" style="fill:#00539f;fill-rule:nonzero;"/></g><g transform="matrix(45.833333,0,0,45.833333,667.928439,556)"></g><g transform="matrix(45.833333,0,0,45.833333,686.585364,556)"></g><g transform="matrix(45.833333,0,0,45.833333,699.50854,556)"><path d="M0.304,0.01c-0.053,0 -0.098,-0.01 -0.137,-0.031c-0.039,-0.021 -0.069,-0.05 -0.091,-0.089c-0.021,-0.039 -0.032,-0.085 -0.032,-0.14c0,-0.055 0.011,-0.101 0.032,-0.14c0.021,-0.039 0.051,-0.068 0.09,-0.089c0.038,-0.021 0.082,-0.031 0.131,-0.031c0.051,0 0.094,0.01 0.129,0.03c0.035,0.02 0.062,0.048 0.081,0.083c0.019,0.035 0.028,0.075 0.028,0.119c0,0.013 -0,0.026 -0.001,0.038c-0.001,0.012 -0.002,0.023 -0.003,0.032l-0.399,0l0,-0.095l0.339,0l-0.066,0.024c0,-0.042 -0.01,-0.074 -0.029,-0.097c-0.019,-0.023 -0.046,-0.034 -0.081,-0.034c-0.025,0 -0.047,0.006 -0.065,0.018c-0.018,0.012 -0.032,0.03 -0.042,0.053c-0.009,0.024 -0.014,0.054 -0.014,0.09c0,0.035 0.005,0.065 0.015,0.087c0.01,0.023 0.025,0.04 0.044,0.052c0.019,0.011 0.042,0.017 0.068,0.017c0.029,-0 0.053,-0.006 0.071,-0.017c0.018,-0.011 0.032,-0.027 0.042,-0.047l0.109,0.042c-0.011,0.026 -0.027,0.048 -0.048,0.067c-0.022,0.019 -0.047,0.033 -0.077,0.042c-0.03,0.01 -0.061,0.015 -0.096,0.015Z" style="fill:#00539f;fill-rule:nonzero;"/></g><g transform="matrix(45.833333,0,0,45.833333,726.04604,556)"><path d="M0.261,0.01c-0.041,0 -0.078,-0.01 -0.11,-0.031c-0.032,-0.021 -0.058,-0.05 -0.076,-0.089c-0.018,-0.039 -0.028,-0.085 -0.028,-0.139c-0,-0.056 0.01,-0.103 0.029,-0.142c0.019,-0.039 0.046,-0.068 0.079,-0.089c0.033,-0.02 0.07,-0.031 0.111,-0.031c0.044,0 0.081,0.013 0.109,0.038c0.029,0.025 0.047,0.058 0.056,0.098l-0.014,0.016l0,-0.36l0.137,0l0,0.719l-0.122,-0l-0.01,-0.152l0.017,0.007c-0.004,0.032 -0.015,0.059 -0.032,0.082c-0.017,0.023 -0.038,0.041 -0.063,0.054c-0.025,0.013 -0.053,0.019 -0.084,0.019Zm0.04,-0.105c0.024,-0 0.045,-0.006 0.062,-0.019c0.017,-0.013 0.031,-0.031 0.04,-0.055c0.01,-0.024 0.014,-0.053 0.014,-0.086c0,-0.032 -0.005,-0.059 -0.014,-0.081c-0.009,-0.023 -0.023,-0.04 -0.04,-0.052c-0.017,-0.012 -0.037,-0.018 -0.061,-0.018c-0.037,0 -0.067,0.013 -0.088,0.04c-0.021,0.026 -0.031,0.065 -0.031,0.115c0,0.05 0.01,0.089 0.031,0.116c0.02,0.027 0.049,0.04 0.086,0.04Z" style="fill:#00539f;fill-rule:nonzero;"/></g><g transform="matrix(45.833333,0,0,45.833333,754.78354,556)"></g><g transform="matrix(45.833333,0,0,45.833333,768.827769,556)"><path d="M0.651,-0.182c-0.013,0.043 -0.033,0.078 -0.061,0.107c-0.027,0.029 -0.059,0.05 -0.097,0.064c-0.037,0.014 -0.079,0.021 -0.123,0.021c-0.065,-0 -0.122,-0.014 -0.169,-0.041c-0.047,-0.027 -0.084,-0.066 -0.11,-0.117c-0.026,-0.051 -0.039,-0.111 -0.039,-0.182c0,-0.071 0.013,-0.131 0.039,-0.182c0.026,-0.051 0.062,-0.09 0.11,-0.117c0.047,-0.027 0.103,-0.041 0.168,-0.041c0.045,0 0.086,0.006 0.122,0.019c0.037,0.012 0.068,0.031 0.093,0.057c0.026,0.025 0.045,0.057 0.057,0.096l-0.125,0.053c-0.011,-0.04 -0.028,-0.069 -0.052,-0.086c-0.023,-0.017 -0.053,-0.026 -0.09,-0.026c-0.036,0 -0.068,0.009 -0.095,0.026c-0.027,0.017 -0.048,0.043 -0.063,0.077c-0.015,0.034 -0.022,0.075 -0.022,0.124c0,0.048 0.007,0.09 0.021,0.124c0.014,0.034 0.034,0.06 0.061,0.077c0.027,0.017 0.059,0.026 0.097,0.026c0.036,-0 0.068,-0.01 0.094,-0.029c0.026,-0.019 0.044,-0.049 0.055,-0.088l0.128,0.039Z" style="fill:#00539f;fill-rule:nonzero;"/></g><g transform="matrix(45.833333,0,0,45.833333,800.112684,556)"><path d="M0.3,-0.51c0.051,0 0.095,0.01 0.133,0.031c0.038,0.021 0.068,0.05 0.09,0.089c0.022,0.039 0.033,0.086 0.033,0.14c0,0.054 -0.011,0.101 -0.033,0.14c-0.022,0.039 -0.052,0.069 -0.09,0.089c-0.038,0.021 -0.083,0.031 -0.133,0.031c-0.05,-0 -0.094,-0.01 -0.133,-0.031c-0.039,-0.021 -0.069,-0.05 -0.091,-0.089c-0.022,-0.039 -0.033,-0.086 -0.033,-0.14c0,-0.055 0.011,-0.101 0.033,-0.14c0.022,-0.039 0.052,-0.069 0.091,-0.089c0.039,-0.021 0.083,-0.031 0.133,-0.031Zm0,0.102c-0.025,0 -0.046,0.006 -0.064,0.017c-0.018,0.012 -0.031,0.029 -0.041,0.053c-0.009,0.023 -0.014,0.053 -0.014,0.088c0,0.035 0.005,0.064 0.014,0.088c0.009,0.023 0.023,0.041 0.041,0.053c0.018,0.012 0.039,0.018 0.064,0.018c0.025,0 0.046,-0.006 0.064,-0.018c0.018,-0.012 0.031,-0.029 0.04,-0.053c0.009,-0.023 0.014,-0.053 0.014,-0.088c0,-0.035 -0.005,-0.065 -0.014,-0.088c-0.009,-0.023 -0.023,-0.041 -0.04,-0.053c-0.018,-0.012 -0.039,-0.017 -0.064,-0.017Z" style="fill:#00539f;fill-rule:nonzero;"/></g><g transform="matrix(45.833333,0,0,45.833333,827.57785,556)"><path d="M0.072,-0l0,-0.5l0.122,0l0.005,0.09c0.017,-0.033 0.04,-0.058 0.069,-0.075c0.029,-0.017 0.061,-0.025 0.097,-0.025c0.036,0 0.069,0.008 0.098,0.025c0.029,0.017 0.051,0.041 0.065,0.074c0.011,-0.022 0.025,-0.041 0.043,-0.055c0.018,-0.015 0.038,-0.026 0.06,-0.033c0.022,-0.007 0.045,-0.011 0.067,-0.011c0.033,0 0.062,0.007 0.089,0.02c0.027,0.013 0.048,0.033 0.065,0.06c0.016,0.027 0.024,0.061 0.024,0.102l0,0.328l-0.137,-0l0,-0.301c0,-0.037 -0.008,-0.063 -0.024,-0.078c-0.016,-0.015 -0.037,-0.023 -0.062,-0.023c-0.02,0 -0.039,0.005 -0.056,0.015c-0.017,0.01 -0.03,0.025 -0.04,0.044c-0.01,0.02 -0.015,0.044 -0.015,0.073l0,0.269l-0.137,-0l0,-0.301c0,-0.037 -0.008,-0.063 -0.024,-0.078c-0.016,-0.015 -0.037,-0.023 -0.062,-0.023c-0.018,0 -0.035,0.005 -0.052,0.014c-0.017,0.009 -0.031,0.024 -0.042,0.044c-0.011,0.02 -0.016,0.046 -0.016,0.079l0,0.265l-0.137,-0Z" style="fill:#00539f;fill-rule:nonzero;"/></g><g transform="matrix(45.833333,0,0,45.833333,870.908679,556)"><path d="M0.072,0.21l0,-0.71l0.123,0l0.009,0.159l-0.017,-0.019c0.006,-0.029 0.017,-0.055 0.034,-0.078c0.016,-0.023 0.037,-0.04 0.062,-0.053c0.025,-0.013 0.053,-0.019 0.085,-0.019c0.041,0 0.077,0.01 0.109,0.031c0.032,0.021 0.057,0.05 0.076,0.088c0.018,0.038 0.028,0.085 0.028,0.14c0,0.055 -0.009,0.101 -0.028,0.14c-0.019,0.039 -0.044,0.069 -0.077,0.09c-0.032,0.021 -0.069,0.031 -0.11,0.031c-0.044,-0 -0.081,-0.012 -0.11,-0.037c-0.029,-0.025 -0.049,-0.056 -0.06,-0.093l0.014,-0.021l0,0.351l-0.137,-0Zm0.253,-0.305c0.037,-0 0.065,-0.013 0.086,-0.04c0.021,-0.026 0.031,-0.065 0.031,-0.115c-0,-0.05 -0.01,-0.089 -0.03,-0.116c-0.02,-0.027 -0.049,-0.04 -0.085,-0.04c-0.024,0 -0.044,0.006 -0.062,0.019c-0.018,0.012 -0.031,0.03 -0.041,0.053c-0.01,0.023 -0.015,0.051 -0.015,0.084c0,0.032 0.005,0.059 0.014,0.083c0.009,0.023 0.023,0.041 0.04,0.054c0.017,0.012 0.038,0.019 0.062,0.019Z" style="fill:#00539f;fill-rule:nonzero;"/></g><g transform="matrix(45.833333,0,0,45.833333,899.508679,556)"><path d="M0.357,-0.319c0,-0.029 -0.008,-0.051 -0.024,-0.067c-0.016,-0.016 -0.038,-0.024 -0.065,-0.024c-0.025,0 -0.046,0.006 -0.065,0.019c-0.019,0.013 -0.032,0.034 -0.041,0.063l-0.117,-0.036c0.011,-0.044 0.036,-0.079 0.075,-0.106c0.038,-0.027 0.09,-0.04 0.155,-0.04c0.044,0 0.082,0.007 0.115,0.021c0.033,0.014 0.058,0.034 0.077,0.061c0.018,0.027 0.028,0.062 0.027,0.103l0,0.203c0,0.025 0.012,0.038 0.036,0.038c0.011,0 0.022,-0.002 0.032,-0.005l-0.008,0.085c-0.017,0.009 -0.039,0.013 -0.065,0.013c-0.023,0 -0.044,-0.004 -0.063,-0.012c-0.019,-0.008 -0.033,-0.02 -0.044,-0.037c-0.011,-0.016 -0.016,-0.037 -0.016,-0.061l0,-0.004l0.024,-0.004c-0.004,0.025 -0.015,0.047 -0.033,0.065c-0.018,0.018 -0.04,0.031 -0.066,0.04c-0.026,0.009 -0.052,0.014 -0.079,0.014c-0.034,0 -0.063,-0.005 -0.088,-0.015c-0.025,-0.01 -0.044,-0.026 -0.057,-0.046c-0.013,-0.02 -0.02,-0.045 -0.02,-0.074c0,-0.037 0.012,-0.068 0.036,-0.091c0.024,-0.024 0.058,-0.04 0.103,-0.049l0.188,-0.038l-0.001,0.085l-0.12,0.024c-0.023,0.005 -0.04,0.011 -0.051,0.018c-0.012,0.008 -0.018,0.02 -0.018,0.038c-0,0.017 0.006,0.029 0.019,0.038c0.012,0.009 0.027,0.013 0.044,0.013c0.014,0 0.028,-0.002 0.041,-0.005c0.013,-0.003 0.025,-0.009 0.036,-0.016c0.011,-0.007 0.019,-0.017 0.025,-0.03c0.006,-0.013 0.009,-0.028 0.009,-0.046l0,-0.135Z" style="fill:#00539f;fill-rule:nonzero;"/></g><g transform="matrix(45.833333,0,0,45.833333,925.817013,556)"><path d="M0.072,-0l0,-0.5l0.122,0l0.008,0.15l-0.017,-0.016c0.008,-0.032 0.021,-0.059 0.038,-0.08c0.017,-0.021 0.038,-0.037 0.063,-0.048c0.025,-0.011 0.052,-0.016 0.082,-0.016c0.035,0 0.066,0.007 0.093,0.02c0.027,0.013 0.048,0.034 0.064,0.06c0.016,0.027 0.023,0.061 0.023,0.101l0,0.328l-0.137,-0l0,-0.289c0,-0.042 -0.008,-0.072 -0.025,-0.088c-0.017,-0.016 -0.038,-0.025 -0.065,-0.025c-0.019,0 -0.037,0.004 -0.055,0.013c-0.018,0.009 -0.032,0.023 -0.043,0.043c-0.011,0.02 -0.016,0.047 -0.016,0.08l0,0.265l-0.137,-0Z" style="fill:#00539f;fill-rule:nonzero;"/></g><g transform="matrix(45.833333,0,0,45.833333,953.334429,556)"><path d="M0.542,-0.5l-0.202,0.531c-0.016,0.045 -0.034,0.081 -0.054,0.108c-0.02,0.027 -0.042,0.046 -0.068,0.058c-0.026,0.012 -0.056,0.018 -0.092,0.018c-0.026,0 -0.05,-0.003 -0.072,-0.009c-0.022,-0.006 -0.041,-0.015 -0.057,-0.025l0.03,-0.099c0.012,0.01 0.025,0.017 0.039,0.021c0.014,0.005 0.03,0.007 0.048,0.007c0.019,0 0.035,-0.004 0.048,-0.012c0.013,-0.008 0.025,-0.024 0.034,-0.048l0.017,-0.043l-0.055,-0.13l-0.153,-0.377l0.152,0l0.095,0.3l0.026,0.1l0.031,-0.106l0.092,-0.294l0.139,0Z" style="fill:#00539f;fill-rule:nonzero;"/></g><g transform="matrix(45.833333,0,0,45.833333,978.342947,556)"></g></g><rect x="319.333" y="1" width="5" height="233" style="fill:#00539f;"/><g><path d="M65.132,90.654l0,-24.955l-65.132,0l-0,24.955l14.943,0l0,53.38l-14.943,0l0,24.955l65.132,0l0,-24.955l-14.943,0l0,-53.38l14.943,0Z" style="fill:#00539f;fill-rule:nonzero;"/><path d="M137.01,105.332c-4.026,-1.171 -24.74,-7.1 -28.326,-8.271c-3.587,-1.171 -6.514,-2.855 -6.514,-4.977c0,-2.123 3.294,-4.392 9.955,-4.392c21.007,0 31.098,12.956 31.098,12.956c0,0 1.137,1.515 1.518,2.058l20.267,0l0,-35.346l-21.758,0l0,6.431c-1.662,-1.148 -13.93,-9.155 -32.956,-9.155c-25.106,0 -39.086,13.029 -39.086,32.499c0,19.47 17.64,27.521 22.544,29.571c4.904,2.049 24.081,7.466 32.279,10.028c8.198,2.562 11.199,4.392 11.199,5.709c0,1.318 -3.587,4.758 -13.834,4.758c-17.85,0 -27.042,-10.526 -28.655,-12.564l0,-0.016c-0.513,-0.687 -1.115,-1.501 -1.319,-1.807c-0.237,-0.354 -0.785,-1.141 -1.166,-1.684l-20.267,0l0,37.746l22.753,0l0,-7.882c2.647,1.762 16.199,10.216 32.461,10.216c18.152,0 41.282,-7.905 41.282,-32.572c0,-24.667 -27.448,-32.133 -31.474,-33.304Z" style="fill:#00539f;fill-rule:nonzero;"/><path d="M226.255,64.288c-30.261,0 -55.079,15.13 -55.079,53.751c0,38.622 26.942,53.088 55.211,53.088c28.269,0 54.946,-14.334 54.946,-52.689c0,-38.355 -26.676,-54.15 -55.078,-54.15Zm0.266,81.092c-10.353,0 -16.989,-2.389 -16.989,-27.473c0,-25.084 4.911,-27.739 17.386,-27.739c7.565,0 16.723,0.531 16.723,26.942c0,26.412 -6.768,28.269 -17.121,28.269Z" style="fill:#00539f;fill-rule:nonzero;"/><path d="M43.399,54.309c6.802,-10.045 15.168,-18.949 24.757,-26.343c3.878,2.867 7.999,5.467 12.332,7.785c-7.26,8.092 -13.764,17.058 -14.842,18.558l4.356,0c2.615,-3.524 8.023,-10.613 13.726,-16.897c6.233,3.064 12.858,5.57 19.77,7.479c-1.84,3.903 -3.231,7.317 -4.047,9.418l3.784,0c0.87,-2.164 2.144,-5.183 3.734,-8.518c8.817,2.154 18.056,3.362 27.508,3.546l0,4.973l3.513,0l0,-4.956c9.382,-0.069 18.57,-1.138 27.357,-3.147c1.498,3.168 2.704,6.029 3.537,8.102l3.784,0c-0.785,-2.018 -2.097,-5.245 -3.831,-8.957c7.035,-1.83 13.786,-4.271 20.144,-7.287c5.484,6.118 10.612,12.842 13.136,16.244l4.355,0c-1.044,-1.454 -7.212,-9.958 -14.22,-17.862c4.819,-2.49 9.387,-5.324 13.658,-8.481c9.59,7.394 17.956,16.298 24.757,26.343l4.226,0c-20.78,-32.072 -56.882,-53.337 -97.861,-53.337c-40.979,-0 -77.081,21.265 -97.861,53.337l4.227,0Zm61.667,-12.631c-6.575,-1.776 -12.883,-4.104 -18.83,-6.952c0.808,-0.84 1.616,-1.653 2.414,-2.423c8.143,-7.853 21.537,-16.476 24.473,-18.332c2.383,1.309 4.983,2.415 7.748,3.294c-2.148,2.817 -6.365,8.534 -10.958,15.786c-1.788,2.822 -3.416,5.789 -4.848,8.628Zm29.411,4.144c-8.898,-0.178 -17.598,-1.286 -25.915,-3.258c1.301,-2.543 2.752,-5.159 4.319,-7.633c5.291,-8.354 10.065,-14.627 11.655,-16.667c3.173,0.745 6.508,1.217 9.94,1.371l0,26.188Zm3.513,0.018l0,-26.166c3.386,-0.057 6.699,-0.416 9.87,-1.053c1.818,2.351 6.366,8.396 11.378,16.31c1.649,2.604 3.17,5.364 4.522,8.032c-8.287,1.833 -16.937,2.812 -25.77,2.877Zm29.292,-3.71c-1.486,-2.975 -3.194,-6.107 -5.076,-9.08c-4.355,-6.878 -8.375,-12.376 -10.61,-15.329c2.941,-0.826 5.718,-1.9 8.268,-3.199c4.122,2.642 16.093,10.535 23.606,17.781c0.997,0.962 2.008,1.99 3.017,3.055c-6.071,2.803 -12.506,5.072 -19.205,6.772Zm35.686,-16.361c-4.122,2.975 -8.526,5.641 -13.163,7.984c-1.296,-1.39 -2.603,-2.733 -3.896,-3.98c-7.027,-6.777 -17.491,-13.886 -22.617,-17.224c1.741,-1.129 3.334,-2.377 4.754,-3.736c12.69,3.626 24.471,9.423 34.922,16.957Zm-65.935,-21.284c9.278,0 18.295,1.132 26.929,3.25c-6.552,5.322 -16.37,8.444 -26.929,8.444c-10.606,0 -20.397,-3.112 -26.941,-8.441c8.637,-2.12 17.658,-3.253 26.941,-3.253Zm-31.014,4.327c1.156,1.108 2.421,2.144 3.792,3.1c-4.645,2.989 -16.085,10.613 -23.6,17.86c-1.082,1.043 -2.173,2.155 -3.26,3.304c-4.157,-2.177 -8.121,-4.614 -11.852,-7.307c10.45,-7.533 22.23,-13.33 34.92,-16.957Z" style="fill:#00539f;fill-rule:nonzero;"/><path d="M230.674,180.692c-6.658,9.833 -14.815,18.572 -24.15,25.873c-4.446,-3.344 -9.218,-6.332 -14.265,-8.943c6.08,-6.858 11.527,-14.167 13.544,-16.93l-4.375,0c-2.697,3.601 -7.418,9.71 -12.44,15.312c-6.358,-3.017 -13.108,-5.46 -20.145,-7.29c1.488,-3.186 2.663,-6.01 3.463,-8.023l-3.796,0c-0.805,1.963 -1.874,4.453 -3.16,7.172c-8.781,-2.006 -17.968,-3.075 -27.358,-3.143l0,-4.029l-3.513,0l0,4.045c-9.459,0.183 -18.698,1.39 -27.51,3.541c-1.373,-2.879 -2.51,-5.524 -3.355,-7.586l-3.796,0c0.838,2.11 2.089,5.111 3.679,8.485c-6.914,1.91 -13.54,4.412 -19.773,7.478c-5.237,-5.773 -10.224,-12.222 -13.028,-15.964l-4.375,0c2.083,2.855 7.838,10.573 14.169,17.629c-4.56,2.442 -8.889,5.193 -12.944,8.243c-9.336,-7.301 -17.493,-16.04 -24.15,-25.873l-4.22,0c20.781,32.072 56.882,53.337 97.86,53.337c40.977,0 77.079,-21.265 97.86,-53.337l-4.221,0l0,0.001Zm-63.389,11.247c6.701,1.699 13.136,3.968 19.208,6.772c-1.011,1.067 -2.023,2.096 -3.021,3.06c-7.49,7.222 -19.423,15.097 -23.576,17.76c-2.55,-1.305 -5.33,-2.379 -8.28,-3.205c2.239,-2.958 6.248,-8.446 10.592,-15.304c1.884,-2.973 3.592,-6.107 5.078,-9.083Zm-29.294,-3.705c8.84,0.066 17.49,1.042 25.772,2.872c-1.353,2.669 -2.873,5.43 -4.524,8.036c-5.005,7.903 -9.546,13.942 -11.369,16.3c-3.162,-0.63 -6.475,-0.985 -9.879,-1.042l0,-26.166l0.001,0Zm-3.513,0.018l0,26.185c-3.445,0.153 -6.784,0.618 -9.953,1.358c-1.602,-2.056 -6.36,-8.311 -11.643,-16.653c-1.569,-2.476 -3.021,-5.094 -4.322,-7.639c8.311,-1.97 17.012,-3.074 25.917,-3.252Zm-29.413,4.14c1.432,2.841 3.062,5.807 4.85,8.631c4.589,7.246 8.803,12.96 10.953,15.779c-2.77,0.878 -5.367,1.986 -7.748,3.298c-2.947,-1.864 -16.33,-10.481 -24.468,-18.329c-0.799,-0.771 -1.607,-1.585 -2.416,-2.425c5.946,-2.849 12.253,-5.178 18.83,-6.954Zm-34.601,16.375c3.916,-2.879 8.091,-5.474 12.483,-7.774c1.088,1.15 2.181,2.263 3.264,3.308c7.514,7.245 18.95,14.868 23.597,17.858c-1.655,1.159 -3.164,2.433 -4.505,3.816c-12.673,-3.714 -24.428,-9.593 -34.839,-17.207Zm66.571,21.748c-9.582,0 -18.887,-1.203 -27.777,-3.458c6.492,-5.705 16.8,-9.163 27.777,-9.163c10.964,0 21.282,3.461 27.774,9.164c-8.889,2.255 -18.194,3.458 -27.774,3.458Zm31.729,-4.541c-1.594,-1.642 -3.416,-3.14 -5.448,-4.465c5.135,-3.344 15.578,-10.442 22.594,-17.209c1.294,-1.248 2.601,-2.591 3.898,-3.982c4.874,2.465 9.493,5.285 13.796,8.449c-10.412,7.616 -22.168,13.495 -34.841,17.208Z" style="fill:#00539f;fill-rule:nonzero;"/></g></g></svg>