<?xml version="1.0" encoding="UTF-8"?><svg id="a" xmlns="http://www.w3.org/2000/svg" viewBox="0 0 1366 408.14"><defs><style>.b{fill:#01377d;}</style></defs><rect class="b" x="638.81" y="61.85" width="11.08" height="52.98"/><path class="b" d="M683.04,61.05c4.82,0,9.07.8,12.68,2.49s6.74,4.09,9.31,7.38l-6.18,7.14c-2.17-2.81-4.58-4.82-7.14-6.1-2.57-1.28-5.62-1.93-8.99-1.93-2.33,0-4.17.32-5.62.88-1.44.56-2.49,1.36-3.21,2.33-.64.96-.96,2.01-.96,3.21,0,1.44.56,2.65,1.69,3.61s3.05,1.85,5.78,2.49l9.87,2.25c5.22,1.2,8.99,2.89,11.24,5.22,2.33,2.33,3.45,5.38,3.45,9.07,0,3.45-.88,6.5-2.73,8.99-1.85,2.49-4.41,4.41-7.63,5.7-3.21,1.28-6.98,1.93-11.24,1.93-3.69,0-7.06-.4-10.11-1.28-3.05-.88-5.86-2.09-8.19-3.61-2.41-1.53-4.41-3.37-6.02-5.38l6.26-7.46c1.2,1.77,2.73,3.29,4.58,4.58,1.85,1.36,3.93,2.41,6.18,3.13,2.33.72,4.74,1.12,7.38,1.12,2.17,0,4.01-.24,5.54-.72,1.53-.48,2.65-1.2,3.45-2.17.8-.96,1.12-2.09,1.12-3.45s-.48-2.49-1.36-3.53c-.96-.96-2.65-1.77-5.22-2.33l-10.76-2.41c-3.13-.72-5.78-1.69-7.95-2.89-2.25-1.2-3.93-2.81-5.06-4.66-1.12-1.93-1.77-4.17-1.77-6.82,0-3.13.88-5.94,2.57-8.51,1.69-2.49,4.17-4.49,7.46-6.02,3.29-1.44,7.14-2.25,11.72-2.25h-.16Z"/><path class="b" d="M738.24,61.05c5.22,0,9.79,1.12,13.57,3.29,3.77,2.17,6.74,5.3,8.75,9.39,2.09,4.09,3.05,8.91,3.05,14.61s-1.04,10.51-3.05,14.61c-2.09,4.09-4.98,7.22-8.75,9.39-3.77,2.17-8.35,3.29-13.57,3.29s-9.79-1.12-13.57-3.29c-3.77-2.17-6.74-5.3-8.83-9.39s-3.13-8.91-3.13-14.61,1.04-10.51,3.13-14.61,4.98-7.22,8.83-9.39c3.77-2.17,8.35-3.29,13.57-3.29ZM738.24,70.12c-2.97,0-5.46.72-7.55,2.09-2.09,1.36-3.69,3.45-4.82,6.18-1.12,2.73-1.69,6.02-1.69,9.95s.56,7.22,1.69,9.95,2.73,4.74,4.82,6.18c2.09,1.36,4.66,2.09,7.55,2.09s5.54-.72,7.63-2.09,3.69-3.45,4.74-6.18c1.12-2.73,1.69-6.02,1.69-9.95s-.56-7.22-1.69-9.95-2.65-4.74-4.74-6.18c-2.09-1.36-4.58-2.09-7.63-2.09Z"/><path class="b" d="M801.47,57.12l-23.28,63.33h-10.19l23.28-63.33h10.19Z"/><rect class="b" x="809.93" y="61.85" width="11.08" height="52.98"/><path class="b" d="M834.81,114.83v-52.98h39.73v8.91h-28.66v13.08h22.56v8.59h-22.56v13.4h29.78v8.91h-40.86v.08Z"/><path class="b" d="M930.29,100.22c-1.04,3.45-2.65,6.26-4.9,8.59-2.17,2.33-4.74,4.01-7.79,5.14-2.97,1.12-6.34,1.69-9.87,1.69-5.22,0-9.79-1.12-13.57-3.29s-6.74-5.3-8.83-9.39c-2.09-4.09-3.13-8.91-3.13-14.61s1.04-10.51,3.13-14.61,4.98-7.22,8.83-9.39c3.77-2.17,8.27-3.29,13.48-3.29,3.61,0,6.9.48,9.79,1.53,2.97.96,5.46,2.49,7.46,4.58,2.09,2.01,3.61,4.58,4.58,7.71l-10.03,4.25c-.88-3.21-2.25-5.54-4.17-6.9-1.85-1.36-4.25-2.09-7.22-2.09s-5.46.72-7.63,2.09-3.85,3.45-5.06,6.18c-1.2,2.73-1.77,6.02-1.77,9.95s.56,7.22,1.69,9.95,2.73,4.82,4.9,6.18,4.74,2.09,7.79,2.09c2.89,0,5.46-.8,7.55-2.33,2.09-1.53,3.53-3.93,4.41-7.06l10.27,3.13.08-.08Z"/><path class="b" d="M637.12,224.28v-7.46c4.82-3.21,8.91-6.18,12.2-8.83,3.37-2.65,6.02-5.06,8.11-7.38,2.09-2.25,3.53-4.41,4.49-6.5.96-2.01,1.36-4.09,1.36-6.18,0-2.41-.72-4.49-2.25-6.02-1.53-1.61-3.61-2.33-6.42-2.33-2.97,0-5.3,1.04-6.98,3.05-1.69,2.01-2.65,4.9-2.81,8.59l-9.55-3.53c.24-3.61,1.2-6.74,2.97-9.31,1.69-2.57,4.01-4.49,6.9-5.86s6.26-2.01,10.11-2.01c3.21,0,6.02.48,8.43,1.36,2.41.88,4.41,2.17,5.94,3.69,1.61,1.61,2.81,3.37,3.61,5.38.8,2.01,1.2,4.17,1.2,6.34,0,3.37-.88,6.66-2.57,9.71-1.69,3.05-4.25,6.1-7.79,9.07-3.45,3.05-7.87,6.18-13.24,9.47v.08c.8-.08,1.77-.16,2.97-.16,1.2-.08,2.33-.08,3.61-.08,1.2,0,2.33-.08,3.21-.08h14.61v8.91h-38.21l.08.08Z"/><path class="b" d="M680.66,171.31h41.9v8.43c-4.41,4.41-7.95,8.99-10.6,13.73s-4.49,9.63-5.7,14.69c-1.12,5.06-1.69,10.43-1.69,16.13h-11c0-5.86.72-11.56,2.17-16.94,1.44-5.46,3.77-10.6,6.82-15.57,3.05-4.98,6.98-9.71,11.8-14.21l2.25,2.89h-35.96v-9.15Z"/><path class="b" d="M748.88,225.09c-6.74,0-11.96-2.33-15.65-6.9-3.69-4.58-5.54-11.4-5.54-20.39s1.85-15.73,5.54-20.39c3.69-4.58,8.91-6.9,15.65-6.9s12.04,2.33,15.65,6.9c3.69,4.58,5.46,11.4,5.46,20.39s-1.85,15.73-5.46,20.39c-3.69,4.58-8.91,6.9-15.65,6.9ZM748.88,216.18c2.25,0,4.17-.64,5.7-1.93,1.53-1.28,2.57-3.29,3.37-6.02.72-2.73,1.12-6.18,1.12-10.43s-.4-7.71-1.12-10.43c-.72-2.73-1.85-4.74-3.37-6.02s-3.37-1.93-5.7-1.93-4.17.64-5.62,1.93c-1.53,1.28-2.65,3.29-3.37,6.02-.72,2.73-1.12,6.18-1.12,10.43s.4,7.71,1.12,10.43c.72,2.73,1.85,4.74,3.37,6.02s3.37,1.93,5.62,1.93Z"/><path class="b" d="M799.91,225.09c-6.74,0-11.96-2.33-15.65-6.9-3.69-4.58-5.54-11.4-5.54-20.39s1.85-15.73,5.54-20.39c3.69-4.58,8.91-6.9,15.65-6.9s12.04,2.33,15.65,6.9c3.69,4.58,5.46,11.4,5.46,20.39s-1.85,15.73-5.46,20.39c-3.69,4.58-8.91,6.9-15.65,6.9ZM799.91,216.18c2.25,0,4.17-.64,5.7-1.93,1.53-1.28,2.57-3.29,3.37-6.02.72-2.73,1.12-6.18,1.12-10.43s-.4-7.71-1.12-10.43c-.72-2.73-1.85-4.74-3.37-6.02s-3.37-1.93-5.7-1.93-4.17.64-5.62,1.93c-1.53,1.28-2.65,3.29-3.37,6.02-.72,2.73-1.12,6.18-1.12,10.43s.4,7.71,1.12,10.43c.72,2.73,1.85,4.74,3.37,6.02s3.37,1.93,5.62,1.93Z"/><path class="b" d="M841.22,224.28v-37.4c0-1.28.08-2.65.08-4.01-1.77,1.69-3.77,3.13-6.02,4.33s-4.58,2.09-6.98,2.57l-1.44-9.31c1.2-.16,2.65-.48,4.17-1.12,1.53-.56,3.13-1.36,4.66-2.25,1.61-.88,2.97-1.85,4.33-2.81,1.28-1.04,2.33-2.01,2.97-2.97h8.99v52.98h-10.76Z"/><path class="b" d="M870.86,183.35c2.17,0,3.85.56,5.14,1.77s1.93,2.73,1.93,4.74-.64,3.61-1.93,4.74-2.97,1.69-5.14,1.69-3.85-.56-5.06-1.69c-1.28-1.12-1.93-2.73-1.93-4.74s.64-3.53,1.93-4.74c1.28-1.2,2.97-1.77,5.06-1.77ZM870.86,212c2.17,0,3.85.56,5.14,1.77s1.93,2.73,1.93,4.74-.64,3.61-1.93,4.82c-1.28,1.12-2.97,1.69-5.14,1.69s-3.85-.56-5.06-1.77c-1.28-1.12-1.93-2.73-1.93-4.82s.64-3.53,1.93-4.74,2.97-1.77,5.06-1.77v.08Z"/><path class="b" d="M888.1,224.28v-7.46c4.82-3.21,8.91-6.18,12.2-8.83,3.37-2.65,6.02-5.06,8.11-7.38,2.09-2.25,3.53-4.41,4.49-6.5.96-2.01,1.36-4.09,1.36-6.18,0-2.41-.72-4.49-2.25-6.02-1.53-1.61-3.61-2.33-6.42-2.33-2.97,0-5.3,1.04-6.98,3.05-1.69,2.01-2.65,4.9-2.81,8.59l-9.55-3.53c.24-3.61,1.2-6.74,2.97-9.31,1.69-2.57,4.01-4.49,6.9-5.86s6.26-2.01,10.11-2.01c3.21,0,6.02.48,8.43,1.36,2.41.88,4.41,2.17,5.94,3.69,1.61,1.61,2.81,3.37,3.61,5.38.8,2.01,1.2,4.17,1.2,6.34,0,3.37-.88,6.66-2.57,9.71-1.69,3.05-4.25,6.1-7.79,9.07-3.45,3.05-7.87,6.18-13.24,9.47v.08c.8-.08,1.77-.16,2.97-.16,1.2-.08,2.33-.08,3.61-.08,1.2,0,2.33-.08,3.21-.08h14.61v8.91h-38.21l.08.08Z"/><path class="b" d="M955.87,225.09c-6.74,0-11.96-2.33-15.65-6.9-3.69-4.58-5.54-11.4-5.54-20.39s1.85-15.73,5.54-20.39c3.69-4.58,8.91-6.9,15.65-6.9s12.04,2.33,15.65,6.9c3.69,4.58,5.46,11.4,5.46,20.39s-1.85,15.73-5.46,20.39c-3.69,4.58-8.91,6.9-15.65,6.9ZM955.87,216.18c2.25,0,4.17-.64,5.7-1.93,1.53-1.28,2.57-3.29,3.37-6.02.72-2.73,1.12-6.18,1.12-10.43s-.4-7.71-1.12-10.43c-.72-2.73-1.85-4.74-3.37-6.02s-3.37-1.93-5.7-1.93-4.17.64-5.62,1.93c-1.53,1.28-2.65,3.29-3.37,6.02-.72,2.73-1.12,6.18-1.12,10.43s.4,7.71,1.12,10.43c.72,2.73,1.85,4.74,3.37,6.02s3.37,1.93,5.62,1.93Z"/><path class="b" d="M986.59,224.28v-7.46c4.82-3.21,8.91-6.18,12.2-8.83,3.37-2.65,6.02-5.06,8.11-7.38,2.09-2.25,3.53-4.41,4.49-6.5.96-2.01,1.36-4.09,1.36-6.18,0-2.41-.72-4.49-2.25-6.02-1.53-1.61-3.61-2.33-6.42-2.33-2.97,0-5.3,1.04-6.98,3.05-1.69,2.01-2.65,4.9-2.81,8.59l-9.55-3.53c.24-3.61,1.2-6.74,2.97-9.31,1.69-2.57,4.01-4.49,6.9-5.86s6.26-2.01,10.11-2.01c3.21,0,6.02.48,8.43,1.36,2.41.88,4.41,2.17,5.94,3.69,1.61,1.61,2.81,3.37,3.61,5.38.8,2.01,1.2,4.17,1.2,6.34,0,3.37-.88,6.66-2.57,9.71-1.69,3.05-4.25,6.1-7.79,9.07-3.45,3.05-7.87,6.18-13.24,9.47v.08c.8-.08,1.77-.16,2.97-.16,1.2-.08,2.33-.08,3.61-.08,1.2,0,2.33-.08,3.21-.08h14.61v8.91h-38.21l.08.08Z"/><path class="b" d="M1034.06,224.28v-7.46c4.82-3.21,8.91-6.18,12.2-8.83,3.37-2.65,6.02-5.06,8.11-7.38,2.09-2.25,3.53-4.41,4.49-6.5.96-2.01,1.36-4.09,1.36-6.18,0-2.41-.72-4.49-2.25-6.02-1.53-1.61-3.61-2.33-6.42-2.33-2.97,0-5.3,1.04-6.98,3.05-1.69,2.01-2.65,4.9-2.81,8.59l-9.55-3.53c.24-3.61,1.2-6.74,2.97-9.31,1.69-2.57,4.01-4.49,6.9-5.86s6.26-2.01,10.11-2.01c3.21,0,6.02.48,8.43,1.36,2.41.88,4.41,2.17,5.94,3.69,1.61,1.61,2.81,3.37,3.61,5.38.8,2.01,1.2,4.17,1.2,6.34,0,3.37-.88,6.66-2.57,9.71-1.69,3.05-4.25,6.1-7.79,9.07-3.45,3.05-7.87,6.18-13.24,9.47v.08c.8-.08,1.77-.16,2.97-.16,1.2-.08,2.33-.08,3.61-.08,1.2,0,2.33-.08,3.21-.08h14.61v8.91h-38.21l.08.08Z"/><path class="b" d="M684.16,319.13c-1.04,3.45-2.65,6.26-4.9,8.59-2.17,2.33-4.74,4.01-7.79,5.14-2.97,1.12-6.34,1.69-9.87,1.69-5.22,0-9.79-1.12-13.57-3.29s-6.74-5.3-8.83-9.39c-2.09-4.09-3.13-8.91-3.13-14.61s1.04-10.51,3.13-14.61,4.98-7.22,8.83-9.39c3.77-2.17,8.27-3.29,13.48-3.29,3.61,0,6.9.48,9.79,1.53,2.97.96,5.46,2.49,7.46,4.58,2.09,2.01,3.61,4.58,4.58,7.71l-10.03,4.25c-.88-3.21-2.25-5.54-4.17-6.9-1.85-1.36-4.25-2.09-7.22-2.09s-5.46.72-7.63,2.09-3.85,3.45-5.06,6.18c-1.2,2.73-1.77,6.02-1.77,9.95s.56,7.22,1.69,9.95,2.73,4.82,4.9,6.18,4.74,2.09,7.79,2.09c2.89,0,5.46-.8,7.55-2.33,2.09-1.53,3.53-3.93,4.41-7.06l10.27,3.13.08-.08Z"/><path class="b" d="M711.09,334.54c-4.25,0-7.87-.8-11-2.49s-5.54-4.01-7.3-7.14c-1.69-3.13-2.57-6.82-2.57-11.24s.88-8.11,2.57-11.24c1.69-3.13,4.09-5.46,7.22-7.14,3.05-1.69,6.58-2.49,10.51-2.49s7.55.8,10.35,2.41c2.81,1.61,4.98,3.85,6.5,6.66,1.53,2.81,2.25,6.02,2.25,9.55,0,1.04,0,2.09-.08,3.05-.08.96-.16,1.85-.24,2.57h-32.03v-7.63h27.21l-5.3,1.93c0-3.37-.8-5.94-2.33-7.79s-3.69-2.73-6.5-2.73c-2.01,0-3.77.48-5.22,1.44s-2.57,2.41-3.37,4.25c-.72,1.93-1.12,4.33-1.12,7.22s.4,5.22,1.2,6.98c.8,1.85,2.01,3.21,3.53,4.17,1.53.88,3.37,1.36,5.46,1.36,2.33,0,4.25-.48,5.7-1.36,1.44-.88,2.57-2.17,3.37-3.77l8.75,3.37c-.88,2.09-2.17,3.85-3.85,5.38-1.77,1.53-3.77,2.65-6.18,3.37-2.41.8-4.9,1.2-7.71,1.2l.16.08Z"/><path class="b" d="M738.95,333.74v-40.13h9.55l.72,7.87c1.04-2.81,2.57-4.9,4.66-6.42,2.09-1.53,4.66-2.25,7.79-2.25.88,0,1.77.08,2.49.24.72.16,1.36.4,1.85.64l-1.28,9.31c-.56-.24-1.2-.4-2.01-.48-.8-.16-1.77-.16-2.97-.16-1.61,0-3.21.4-4.74,1.2s-2.73,2.01-3.69,3.53c-.96,1.61-1.44,3.61-1.44,6.02v20.79h-11l.08-.16Z"/><path class="b" d="M785.48,281.33v39.33c0,1.93.48,3.29,1.53,4.25.96.88,2.33,1.36,4.09,1.36,1.36,0,2.57-.16,3.53-.56s1.93-.96,2.73-1.69l1.69,7.3c-1.28,1.04-2.89,1.85-4.82,2.41-1.93.56-3.93.88-6.1.88-2.65,0-5.06-.4-7.14-1.2s-3.69-2.09-4.82-3.85-1.77-4.09-1.77-7.06v-38.05l11-3.05.08-.08ZM798.4,293.61v8.19h-31.22v-8.19h31.22Z"/><path class="b" d="M811.35,287.83c-2.25,0-4.01-.48-5.14-1.53-1.12-.96-1.69-2.49-1.69-4.41s.56-3.45,1.69-4.41,2.81-1.44,5.14-1.44,4.01.48,5.14,1.44c1.12.96,1.69,2.49,1.69,4.41s-.56,3.45-1.69,4.41-2.81,1.53-5.14,1.53ZM816.89,293.61v40.13h-11v-40.13h11Z"/><path class="b" d="M846.35,275.22c1.85,0,3.53.16,5.14.56,1.53.4,2.65.88,3.45,1.44l-1.53,7.3c-.56-.4-1.28-.64-2.01-.88-.72-.24-1.61-.32-2.65-.32-2.09,0-3.77.48-4.98,1.36-1.2.96-1.85,2.57-1.85,4.74v5.54l.48,2.17v36.44h-11v-44.95c0-2.25.4-4.25,1.12-5.94.72-1.69,1.77-3.13,3.13-4.25s2.97-1.93,4.74-2.49c1.85-.56,3.85-.8,5.94-.8v.08ZM854.53,293.61v8.19h-30.18v-8.19h30.18ZM866.66,287.83c-2.33,0-4.01-.48-5.14-1.44s-1.69-2.41-1.69-4.33.56-3.45,1.69-4.41,2.81-1.44,5.14-1.44,4.01.48,5.14,1.44,1.69,2.49,1.69,4.41-.56,3.37-1.69,4.33-2.81,1.44-5.14,1.44ZM872.11,293.61v40.13h-11v-40.13h11Z"/><path class="b" d="M902.38,334.54c-4.25,0-7.87-.8-11-2.49s-5.54-4.01-7.3-7.14c-1.69-3.13-2.57-6.82-2.57-11.24s.88-8.11,2.57-11.24c1.69-3.13,4.09-5.46,7.22-7.14,3.05-1.69,6.58-2.49,10.51-2.49s7.55.8,10.35,2.41c2.81,1.61,4.98,3.85,6.5,6.66,1.53,2.81,2.25,6.02,2.25,9.55,0,1.04,0,2.09-.08,3.05-.08.96-.16,1.85-.24,2.57h-32.03v-7.63h27.21l-5.3,1.93c0-3.37-.8-5.94-2.33-7.79s-3.69-2.73-6.5-2.73c-2.01,0-3.77.48-5.22,1.44s-2.57,2.41-3.37,4.25c-.72,1.93-1.12,4.33-1.12,7.22s.4,5.22,1.2,6.98c.8,1.85,2.01,3.21,3.53,4.17,1.53.88,3.37,1.36,5.46,1.36,2.33,0,4.25-.48,5.7-1.36,1.44-.88,2.57-2.17,3.37-3.77l8.75,3.37c-.88,2.09-2.17,3.85-3.85,5.38-1.77,1.53-3.77,2.65-6.18,3.37-2.41.8-4.9,1.2-7.71,1.2l.16.08Z"/><path class="b" d="M945.4,334.54c-3.29,0-6.26-.8-8.83-2.49-2.57-1.69-4.66-4.01-6.1-7.14-1.44-3.13-2.25-6.82-2.25-11.16s.8-8.27,2.33-11.4c1.53-3.13,3.69-5.46,6.34-7.14,2.65-1.61,5.62-2.49,8.91-2.49,3.53,0,6.5,1.04,8.75,3.05,2.33,2.01,3.77,4.66,4.49,7.87l-1.12,1.28v-28.9h11v57.71h-9.79l-.8-12.2,1.36.56c-.32,2.57-1.2,4.74-2.57,6.58-1.36,1.85-3.05,3.29-5.06,4.33s-4.25,1.53-6.74,1.53h.08ZM948.61,326.11c1.93,0,3.61-.48,4.98-1.53s2.49-2.49,3.21-4.41c.8-1.93,1.12-4.25,1.12-6.9s-.4-4.74-1.12-6.5c-.72-1.85-1.85-3.21-3.21-4.17-1.36-.96-2.97-1.44-4.9-1.44-2.97,0-5.38,1.04-7.06,3.21-1.69,2.09-2.49,5.22-2.49,9.23s.8,7.14,2.49,9.31c1.61,2.17,3.93,3.21,6.9,3.21h.08Z"/><path class="b" d="M1051.63,319.13c-1.04,3.45-2.65,6.26-4.9,8.59-2.17,2.33-4.74,4.01-7.79,5.14-2.97,1.12-6.34,1.69-9.87,1.69-5.22,0-9.79-1.12-13.57-3.29s-6.74-5.3-8.83-9.39c-2.09-4.09-3.13-8.91-3.13-14.61s1.04-10.51,3.13-14.61,4.98-7.22,8.83-9.39c3.77-2.17,8.27-3.29,13.48-3.29,3.61,0,6.9.48,9.79,1.53,2.97.96,5.46,2.49,7.46,4.58,2.09,2.01,3.61,4.58,4.58,7.71l-10.03,4.25c-.88-3.21-2.25-5.54-4.17-6.9-1.85-1.36-4.25-2.09-7.22-2.09s-5.46.72-7.63,2.09-3.85,3.45-5.06,6.18c-1.2,2.73-1.77,6.02-1.77,9.95s.56,7.22,1.69,9.95,2.73,4.82,4.9,6.18,4.74,2.09,7.79,2.09c2.89,0,5.46-.8,7.55-2.33,2.09-1.53,3.53-3.93,4.41-7.06l10.27,3.13.08-.08Z"/><path class="b" d="M1078.24,292.8c4.09,0,7.63.8,10.68,2.49,3.05,1.69,5.46,4.01,7.22,7.14,1.77,3.13,2.65,6.9,2.65,11.24s-.88,8.11-2.65,11.24-4.17,5.54-7.22,7.14c-3.05,1.69-6.66,2.49-10.68,2.49s-7.55-.8-10.68-2.49c-3.13-1.69-5.54-4.01-7.3-7.14s-2.65-6.9-2.65-11.24.88-8.11,2.65-11.24,4.17-5.54,7.3-7.14c3.13-1.69,6.66-2.49,10.68-2.49ZM1078.24,300.99c-2.01,0-3.69.48-5.14,1.36-1.44.96-2.49,2.33-3.29,4.25-.72,1.85-1.12,4.25-1.12,7.06s.4,5.14,1.12,7.06c.72,1.85,1.85,3.29,3.29,4.25s3.13,1.44,5.14,1.44,3.69-.48,5.14-1.44,2.49-2.33,3.21-4.25c.72-1.85,1.12-4.25,1.12-7.06s-.4-5.22-1.12-7.06-1.85-3.29-3.21-4.25c-1.44-.96-3.13-1.36-5.14-1.36Z"/><path class="b" d="M1108.04,333.74v-40.13h9.79l.4,7.22c1.36-2.65,3.21-4.66,5.54-6.02,2.33-1.36,4.9-2.01,7.79-2.01s5.54.64,7.87,2.01,4.09,3.29,5.22,5.94c.88-1.77,2.01-3.29,3.45-4.41,1.44-1.2,3.05-2.09,4.82-2.65s3.61-.88,5.38-.88c2.65,0,4.98.56,7.14,1.61,2.17,1.04,3.85,2.65,5.22,4.82,1.28,2.17,1.93,4.9,1.93,8.19v26.33h-11v-24.16c0-2.97-.64-5.06-1.93-6.26-1.28-1.2-2.97-1.85-4.98-1.85-1.61,0-3.13.4-4.49,1.2s-2.41,2.01-3.21,3.53c-.8,1.61-1.2,3.53-1.2,5.86v21.59h-11v-24.16c0-2.97-.64-5.06-1.93-6.26-1.28-1.2-2.97-1.85-4.98-1.85-1.44,0-2.81.4-4.17,1.12s-2.49,1.93-3.37,3.53c-.88,1.61-1.28,3.69-1.28,6.34v21.27h-11v.08Z"/><path class="b" d="M1183.92,350.6v-56.99h9.87l.72,12.76-1.36-1.53c.48-2.33,1.36-4.41,2.73-6.26,1.28-1.85,2.97-3.21,4.98-4.25,2.01-1.04,4.25-1.53,6.82-1.53,3.29,0,6.18.8,8.75,2.49s4.58,4.01,6.1,7.06c1.44,3.05,2.25,6.82,2.25,11.24s-.72,8.11-2.25,11.24c-1.53,3.13-3.53,5.54-6.18,7.22-2.57,1.69-5.54,2.49-8.83,2.49-3.53,0-6.5-.96-8.83-2.97-2.33-2.01-3.93-4.49-4.82-7.46l1.12-1.69v28.17h-11.08ZM1204.23,326.11c2.97,0,5.22-1.04,6.9-3.21,1.69-2.09,2.49-5.22,2.49-9.23s-.8-7.14-2.41-9.31c-1.61-2.17-3.93-3.21-6.82-3.21-1.93,0-3.53.48-4.98,1.53-1.44.96-2.49,2.41-3.29,4.25s-1.2,4.09-1.2,6.74.4,4.74,1.12,6.66c.72,1.85,1.85,3.29,3.21,4.33,1.36.96,3.05,1.53,4.98,1.53v-.08Z"/><path class="b" d="M1256.89,308.13c0-2.33-.64-4.09-1.93-5.38s-3.05-1.93-5.22-1.93c-2.01,0-3.69.48-5.22,1.53-1.53,1.04-2.57,2.73-3.29,5.06l-9.39-2.89c.88-3.53,2.89-6.34,6.02-8.51,3.05-2.17,7.22-3.21,12.44-3.21,3.53,0,6.58.56,9.23,1.69,2.65,1.12,4.66,2.73,6.18,4.9,1.44,2.17,2.25,4.98,2.17,8.27v16.29c0,2.01.96,3.05,2.89,3.05.88,0,1.77-.16,2.57-.4l-.64,6.82c-1.36.72-3.13,1.04-5.22,1.04-1.85,0-3.53-.32-5.06-.96-1.53-.64-2.65-1.61-3.53-2.97-.88-1.28-1.28-2.97-1.28-4.9v-.32l1.93-.32c-.32,2.01-1.2,3.77-2.65,5.22s-3.21,2.49-5.3,3.21c-2.09.72-4.17,1.12-6.34,1.12-2.73,0-5.06-.4-7.06-1.2-2.01-.8-3.53-2.09-4.58-3.69-1.04-1.61-1.61-3.61-1.61-5.94,0-2.97.96-5.46,2.89-7.3,1.93-1.93,4.66-3.21,8.27-3.93l15.09-3.05-.08,6.82-9.63,1.93c-1.85.4-3.21.88-4.09,1.44-.96.64-1.44,1.61-1.44,3.05,0,1.36.48,2.33,1.53,3.05.96.72,2.17,1.04,3.53,1.04,1.12,0,2.25-.16,3.29-.4,1.04-.24,2.01-.72,2.89-1.28.88-.56,1.53-1.36,2.01-2.41s.72-2.25.72-3.69v-10.84h-.08Z"/><path class="b" d="M1280.08,333.74v-40.13h9.79l.64,12.04-1.36-1.28c.64-2.57,1.69-4.74,3.05-6.42,1.36-1.69,3.05-2.97,5.06-3.85s4.17-1.28,6.58-1.28c2.81,0,5.3.56,7.46,1.61,2.17,1.04,3.85,2.73,5.14,4.82,1.28,2.17,1.85,4.9,1.85,8.11v26.33h-11v-23.2c0-3.37-.64-5.78-2.01-7.06-1.36-1.28-3.05-2.01-5.22-2.01-1.53,0-2.97.32-4.41,1.04s-2.57,1.85-3.45,3.45-1.28,3.77-1.28,6.42v21.27h-11l.16.16Z"/><path class="b" d="M1366,293.61l-16.21,42.62c-1.28,3.61-2.73,6.5-4.33,8.67-1.61,2.17-3.37,3.69-5.46,4.66s-4.49,1.44-7.38,1.44c-2.09,0-4.01-.24-5.78-.72s-3.29-1.2-4.58-2.01l2.41-7.95c.96.8,2.01,1.36,3.13,1.69,1.12.4,2.41.56,3.85.56,1.53,0,2.81-.32,3.85-.96,1.04-.64,2.01-1.93,2.73-3.85l1.36-3.45-4.41-10.43-12.28-30.26h12.2l7.63,24.08,2.09,8.03,2.49-8.51,7.38-23.6h11.32Z"/><rect class="b" x="559.24" y=".05" width="8.76" height="408.05"/><path class="b" d="M114.06,157.06v-43.7H0v43.7h26.17v93.48H0v43.7h114.06v-43.7h-26.17v-93.48h26.17Z"/><path class="b" d="M239.94,182.76c-7.05-2.05-43.33-12.43-49.61-14.48-6.28-2.05-11.41-5-11.41-8.72s5.77-7.69,17.43-7.69c36.79,0,54.46,22.69,54.46,22.69,0,0,1.99,2.65,2.66,3.6h35.49v-61.9h-38.1v11.26c-2.91-2.01-24.4-16.03-57.72-16.03-43.97,0-68.45,22.82-68.45,56.91s30.89,48.2,39.48,51.79c8.59,3.59,42.17,13.08,56.53,17.56,14.36,4.49,19.61,7.69,19.61,10s-6.28,8.33-24.23,8.33c-31.26,0-47.36-18.43-50.18-22v-.03c-.9-1.2-1.95-2.63-2.31-3.16-.42-.62-1.37-2-2.04-2.95h-35.49v66.1h39.85v-13.8c4.64,3.09,28.37,17.89,56.85,17.89,31.79,0,72.3-13.84,72.3-57.04s-48.07-56.27-55.12-58.32h0Z"/><path class="b" d="M396.24,110.88c-53,0-96.46,26.5-96.46,94.13s47.18,92.97,96.69,92.97,96.23-25.1,96.23-92.27-46.72-94.83-96.46-94.83ZM396.7,252.9c-18.13,0-29.75-4.18-29.75-48.11s8.6-48.58,30.45-48.58c13.25,0,29.29.93,29.29,47.18s-11.85,49.51-29.98,49.51h0Z"/><path class="b" d="M76,93.41c11.91-17.59,26.56-33.19,43.36-46.13,6.79,5.02,14.01,9.57,21.6,13.63-12.71,14.17-24.1,29.87-25.99,32.5h7.63c4.58-6.17,14.05-18.59,24.04-29.59,10.92,5.37,22.52,9.75,34.62,13.1-3.22,6.84-5.66,12.81-7.09,16.49h6.63c1.52-3.79,3.75-9.08,6.54-14.92,15.44,3.77,31.62,5.89,48.17,6.21v8.71h6.15v-8.68c16.43-.12,32.52-1.99,47.91-5.51,2.62,5.55,4.74,10.56,6.19,14.19h6.63c-1.37-3.53-3.67-9.19-6.71-15.69,12.32-3.2,24.14-7.48,35.28-12.76,9.6,10.71,18.58,22.49,23,28.45h7.63c-1.83-2.55-12.63-17.44-24.9-31.28,8.44-4.36,16.44-9.32,23.92-14.85,16.79,12.95,31.45,28.54,43.36,46.13h7.4C374.97,37.24,311.75,0,239.98,0S104.99,37.24,68.6,93.41h7.4ZM184,71.29c-11.51-3.11-22.56-7.19-32.98-12.17,1.42-1.47,2.83-2.89,4.23-4.24,14.26-13.75,37.72-28.85,42.86-32.1,4.17,2.29,8.73,4.23,13.57,5.77-3.76,4.93-11.15,14.95-19.19,27.65-3.13,4.94-5.98,10.14-8.49,15.11h0ZM235.51,78.54c-15.58-.31-30.82-2.25-45.38-5.71,2.28-4.45,4.82-9.03,7.56-13.37,9.27-14.63,17.63-25.62,20.41-29.19,5.56,1.3,11.4,2.13,17.41,2.4v45.86h0ZM241.66,78.58v-45.82c5.93-.1,11.73-.73,17.29-1.84,3.18,4.12,11.15,14.7,19.93,28.56,2.89,4.56,5.55,9.39,7.92,14.07-14.51,3.21-29.66,4.92-45.13,5.04ZM292.96,72.08c-2.6-5.21-5.59-10.7-8.89-15.9-7.63-12.05-14.67-21.67-18.58-26.85,5.15-1.45,10.01-3.33,14.48-5.6,7.22,4.63,28.18,18.45,41.34,31.14,1.75,1.68,3.52,3.49,5.28,5.35-10.63,4.91-21.9,8.88-33.63,11.86ZM355.45,43.43c-7.22,5.21-14.93,9.88-23.05,13.98-2.27-2.43-4.56-4.79-6.82-6.97-12.31-11.87-30.63-24.32-39.61-30.16,3.05-1.98,5.84-4.16,8.33-6.54,22.22,6.35,42.86,16.5,61.16,29.7h0ZM239.98,6.15c16.25,0,32.04,1.98,47.16,5.69-11.47,9.32-28.67,14.79-47.16,14.79s-35.72-5.45-47.18-14.78c15.13-3.71,30.92-5.7,47.18-5.7ZM185.67,13.73c2.02,1.94,4.24,3.75,6.64,5.43-8.13,5.23-28.17,18.59-41.33,31.28-1.89,1.83-3.81,3.77-5.71,5.79-7.28-3.81-14.22-8.08-20.76-12.8,18.3-13.19,38.93-23.34,61.15-29.7Z"/><path class="b" d="M403.98,314.74c-11.66,17.22-25.95,32.52-42.29,45.31-7.79-5.86-16.14-11.09-24.98-15.66,10.65-12.01,20.19-24.81,23.72-29.65h-7.66c-4.72,6.31-12.99,17-21.79,26.82-11.13-5.28-22.96-9.56-35.28-12.77,2.61-5.58,4.66-10.53,6.06-14.05h-6.65c-1.41,3.44-3.28,7.8-5.53,12.56-15.38-3.51-31.47-5.39-47.91-5.5v-7.06h-6.15v7.08c-16.57.32-32.75,2.43-48.18,6.2-2.4-5.04-4.4-9.67-5.88-13.29h-6.65c1.47,3.7,3.66,8.95,6.44,14.86-12.11,3.34-23.71,7.73-34.63,13.1-9.17-10.11-17.91-21.4-22.82-27.96h-7.66c3.65,5,13.73,18.52,24.81,30.87-7.99,4.28-15.57,9.09-22.67,14.44-16.35-12.79-30.64-28.09-42.29-45.31h-7.39c36.39,56.17,99.62,93.41,171.38,93.41s134.99-37.24,171.38-93.41h-7.39s0,0,0,0ZM292.96,334.44c11.74,2.98,23,6.95,33.64,11.86-1.77,1.87-3.54,3.67-5.29,5.36-13.12,12.65-34.02,26.44-41.29,31.1-4.47-2.29-9.33-4.17-14.5-5.61,3.92-5.18,10.94-14.79,18.55-26.8,3.3-5.21,6.29-10.7,8.89-15.91h0ZM241.66,327.95c15.48.12,30.63,1.82,45.13,5.03-2.37,4.67-5.03,9.51-7.92,14.07-8.77,13.84-16.72,24.42-19.91,28.55-5.54-1.1-11.34-1.73-17.3-1.82v-45.82h0,0ZM235.51,327.98v45.86c-6.03.27-11.88,1.08-17.43,2.38-2.81-3.6-11.14-14.55-20.39-29.16-2.75-4.34-5.29-8.92-7.57-13.38,14.55-3.45,29.79-5.38,45.39-5.7h0ZM184,335.23c2.51,4.98,5.36,10.17,8.49,15.12,8.04,12.69,15.42,22.7,19.18,27.63-4.85,1.54-9.4,3.48-13.57,5.78-5.16-3.26-28.6-18.36-42.85-32.1-1.4-1.35-2.81-2.78-4.23-4.25,10.41-4.99,21.46-9.07,32.98-12.18h0ZM123.4,363.91c6.86-5.04,14.17-9.59,21.86-13.61,1.91,2.01,3.82,3.96,5.72,5.79,13.16,12.69,33.19,26.04,41.33,31.27-2.9,2.03-5.54,4.26-7.89,6.68-22.19-6.5-42.78-16.8-61.01-30.13h0ZM239.99,401.99c-16.78,0-33.08-2.11-48.65-6.06,11.37-9.99,29.42-16.05,48.65-16.05s37.27,6.06,48.64,16.05c-15.57,3.95-31.86,6.06-48.64,6.06h0ZM295.55,394.04c-2.79-2.88-5.98-5.5-9.54-7.82,8.99-5.86,27.28-18.29,39.57-30.14,2.27-2.19,4.56-4.54,6.83-6.97,8.54,4.32,16.62,9.26,24.16,14.8-18.23,13.34-38.82,23.63-61.02,30.14h0Z"/></svg>