<?xml version="1.0" encoding="UTF-8" standalone="no"?><!DOCTYPE svg PUBLIC "-//W3C//DTD SVG 1.1//EN" "http://www.w3.org/Graphics/SVG/1.1/DTD/svg11.dtd"><svg width="100%" height="100%" viewBox="0 0 175 125" version="1.1" xmlns="http://www.w3.org/2000/svg" xmlns:xlink="http://www.w3.org/1999/xlink" xml:space="preserve" xmlns:serif="http://www.serif.com/" style="fill-rule:evenodd;clip-rule:evenodd;stroke-linejoin:round;stroke-miterlimit:2;"><g><g><clipPath id="_clip1"><rect x="0" y="32.16" width="174.944" height="60.624"/></clipPath><g clip-path="url(#_clip1)"><g><path d="M11.343,38.679c-1.253,0 -2.268,1.022 -2.268,2.28l0,43.024c0,1.26 1.015,2.28 2.268,2.28c1.255,0 2.269,-1.02 2.269,-2.28l0,-43.023c0,-1.26 -1.015,-2.282 -2.269,-2.282l0,0.001Zm-9.073,15.646c-1.253,0 -2.269,1.02 -2.269,2.28l0,11.735c0,1.259 1.016,2.28 2.269,2.28c1.253,0 2.268,-1.022 2.268,-2.28l0,-11.735c0,-1.26 -1.015,-2.28 -2.268,-2.28Zm18.149,-20.861c-1.253,0 -2.268,1.022 -2.268,2.28l0,53.455c0,1.26 1.015,2.28 2.268,2.28c1.253,0 2.269,-1.02 2.269,-2.28l0,-53.453c0,-1.26 -1.016,-2.282 -2.269,-2.282l0,0Zm37.04,38.04l-8.993,-9.045l8.939,-8.993c0.879,-0.887 0.879,-2.339 0,-3.226c-0.424,-0.428 -1.002,-0.668 -1.604,-0.668c-0.602,0 -1.18,0.241 -1.604,0.668l-22.434,22.562l0,-6.647l20.8,-20.839c0.882,-0.886 0.885,-2.339 0.006,-3.228c-0.424,-0.43 -1.004,-0.672 -1.607,-0.672c-0.601,0 -1.178,0.24 -1.602,0.666l-17.597,17.632l0,-6.269l13.769,-13.848c0.879,-0.887 0.879,-2.339 0,-3.226c-0.424,-0.428 -1.002,-0.668 -1.604,-0.668c-0.602,0 -1.18,0.241 -1.604,0.668l-10.56,10.621l0,-12.552c0,-1.26 -1.016,-2.28 -2.269,-2.28c-1.253,0 -2.269,1.02 -2.269,2.28l0,56.063c0,1.259 1.016,2.28 2.269,2.28c1.253,0 2.269,-1.022 2.269,-2.28l0,-11.01l9.551,9.606c0.424,0.428 1.002,0.669 1.604,0.669c0.603,0 1.181,-0.241 1.604,-0.669c0.879,-0.887 0.879,-2.339 0,-3.226l-9.668,-9.724l3.595,-3.619l10.56,10.621c0.424,0.429 1.002,0.67 1.605,0.67c0.603,0 1.181,-0.242 1.605,-0.67c0.879,-0.887 0.879,-2.339 0,-3.226l-10.56,-10.621l3.595,-3.619l8.996,9.046c0.424,0.428 1.002,0.669 1.604,0.669c0.602,0 1.18,-0.241 1.604,-0.669c0.881,-0.887 0.881,-2.34 0,-3.228l-0,-0l0,0Zm30,-17.428l-6.12,7.315l0,-7.315l-3.392,0l0,16.271l3.392,0l0,-4.821l1.537,-1.829l4.821,6.65l4.108,0l-6.439,-8.982l6.201,-7.288l-4.108,0l-0,-0l0,0Zm12.056,0l-6.227,16.271l3.392,0l1.43,-3.922l6.096,0l1.458,3.922l3.444,0l-6.227,-16.271l-3.366,0l0,0Zm1.644,4.082l1.986,5.406l-3.975,0l1.989,-5.406Zm14.068,3.339l3.126,0c1.696,0 2.571,-0.901 2.571,-2.252c0,-1.379 -0.875,-2.28 -2.57,-2.28l-3.128,0l0,4.532Zm0,2.782l0,6.068l-3.366,0l0,-16.271l6.705,0c3.418,0 5.697,1.829 5.697,5.168c0,2.598 -1.43,4.241 -3.71,4.797l4.293,6.308l-3.815,0l-4.029,-6.07l-1.776,0Zm15.87,3.207l3.206,0c1.591,0 2.44,-0.795 2.44,-2.041c0,-1.272 -0.849,-2.04 -2.44,-2.04l-3.204,0l0,4.08l-0.001,0l0,0.001Zm2.757,-6.731c1.617,0 2.464,-0.635 2.464,-1.934c0,-1.299 -0.849,-1.882 -2.465,-1.882l-2.755,0l0,3.816l2.757,0l0,-0l-0,0Zm6.2,4.98c0,2.995 -2.067,4.611 -5.459,4.611l-6.755,0l0,-16.271l6.227,0c3.392,0 5.485,1.511 5.485,4.426c0,1.749 -0.954,3.021 -2.148,3.446c1.537,0.504 2.65,2.013 2.65,3.789l0,-0.001l-0,0Zm10.121,-8.902c-2.571,0 -4.241,2.2 -4.241,5.378c0,3.18 1.67,5.38 4.241,5.38c2.598,0 4.293,-2.2 4.293,-5.38c0,-3.179 -1.696,-5.378 -4.293,-5.378Zm0,13.779c-4.532,0 -7.685,-3.551 -7.685,-8.401c0,-4.874 3.152,-8.399 7.685,-8.399c4.531,0 7.711,3.525 7.711,8.401c0,4.849 -3.18,8.399 -7.711,8.399Zm24.482,-0.266l-2.676,0l-7.685,-10.837l0,10.837l-3.259,0l0,-16.269l3.18,0l7.181,10.28l0,-10.28l3.259,0l0,16.269Z" style="fill:#202124;fill-rule:nonzero;"/></g></g></g></g></svg>