<?xml version="1.0" encoding="UTF-8" standalone="no"?><!DOCTYPE svg PUBLIC "-//W3C//DTD SVG 1.1//EN" "http://www.w3.org/Graphics/SVG/1.1/DTD/svg11.dtd"><svg width="100%" height="100%" viewBox="0 0 521 521" version="1.1" xmlns="http://www.w3.org/2000/svg" xmlns:xlink="http://www.w3.org/1999/xlink" xml:space="preserve" xmlns:serif="http://www.serif.com/" style="fill-rule:evenodd;clip-rule:evenodd;stroke-linejoin:round;stroke-miterlimit:2;"><g><clipPath id="_clip1"><rect x="0" y="170.173" width="520.833" height="180.487"/></clipPath><g clip-path="url(#_clip1)"><g><path d="M33.769,189.58c-3.73,0 -6.751,3.042 -6.751,6.789l0,128.09c0,3.751 3.021,6.789 6.751,6.789c3.735,0 6.755,-3.038 6.755,-6.789l0,-128.086c0,-3.751 -3.021,-6.795 -6.755,-6.795l0,0.001Zm-27.013,46.579c-3.73,0 -6.755,3.038 -6.755,6.789l0,34.937c0,3.747 3.025,6.789 6.755,6.789c3.73,0 6.751,-3.042 6.751,-6.789l0,-34.937c0,-3.752 -3.021,-6.789 -6.751,-6.789Zm54.031,-62.105c-3.73,0 -6.751,3.042 -6.751,6.789l0,159.142c0,3.751 3.021,6.789 6.751,6.789c3.73,0 6.755,-3.038 6.755,-6.789l0,-159.138c0,-3.751 -3.025,-6.794 -6.755,-6.794Zm110.273,113.251l-26.772,-26.927l26.613,-26.772c2.618,-2.642 2.618,-6.963 0,-9.604c-1.263,-1.273 -2.984,-1.989 -4.776,-1.989c-1.792,0 -3.514,0.717 -4.776,1.989l-66.788,67.171l0,-19.789l61.925,-62.04c2.627,-2.637 2.634,-6.963 0.018,-9.609c-1.263,-1.279 -2.988,-2 -4.785,-2c-1.789,0 -3.507,0.714 -4.768,1.982l-52.389,52.492l0,-18.663l40.992,-41.228c2.618,-2.642 2.618,-6.963 0,-9.604c-1.263,-1.273 -2.984,-1.989 -4.776,-1.989c-1.792,0 -3.514,0.717 -4.776,1.989l-31.439,31.619l0,-37.369c0,-3.752 -3.025,-6.789 -6.755,-6.789c-3.73,0 -6.755,3.038 -6.755,6.789l0,166.907c0,3.747 3.025,6.789 6.755,6.789c3.73,0 6.755,-3.042 6.755,-6.789l0,-32.779l28.435,28.598c1.261,1.275 2.983,1.993 4.776,1.993c1.794,0 3.515,-0.718 4.776,-1.993c2.618,-2.642 2.618,-6.963 0,-9.604l-28.783,-28.951l10.704,-10.774l31.439,31.619c1.262,1.276 2.984,1.995 4.778,1.995c1.795,0 3.517,-0.719 4.778,-1.995c2.618,-2.642 2.618,-6.963 0,-9.604l-31.439,-31.619l10.704,-10.774l26.781,26.931c1.261,1.275 2.982,1.993 4.774,1.993c1.792,0 3.513,-0.718 4.774,-1.993c2.622,-2.641 2.622,-6.967 0,-9.609l-0.001,-0.001Zm89.315,-51.885l-18.221,21.779l0,-21.779l-10.099,0l0,48.44l10.099,0l0,-14.353l4.577,-5.445l14.353,19.798l12.23,0l-19.17,-26.742l18.461,-21.697l-12.23,0l-0.001,-0.001Zm35.891,0l-18.539,48.44l10.099,0l4.258,-11.676l18.148,0l4.34,11.676l10.254,0l-18.539,-48.44l-10.022,0Zm4.895,12.152l5.913,16.093l-11.835,0l5.922,-16.093Zm41.881,9.94l9.308,0c5.05,0 7.654,-2.682 7.654,-6.704c0,-4.104 -2.604,-6.789 -7.65,-6.789l-9.312,0l0,13.493Zm0,8.281l0,18.066l-10.022,0l0,-48.44l19.961,0c10.176,0 16.962,5.445 16.962,15.385c0,7.735 -4.258,12.626 -11.044,14.28l12.781,18.779l-11.358,0l-11.994,-18.07l-5.286,0Zm47.248,9.548l9.544,0c4.736,0 7.263,-2.368 7.263,-6.077c0,-3.786 -2.527,-6.073 -7.263,-6.073l-9.54,0l0,12.148l-0.004,0l0,0.001Zm8.208,-20.038c4.813,0 7.335,-1.89 7.335,-5.758c0,-3.868 -2.527,-5.603 -7.34,-5.603l-8.203,0l0,11.362l8.208,0l0.001,-0.001Zm18.457,14.826c0,8.917 -6.154,13.729 -16.252,13.729l-20.111,0l0,-48.44l18.539,0c10.099,0 16.329,4.499 16.329,13.176c0,5.208 -2.84,8.994 -6.394,10.258c4.577,1.5 7.89,5.994 7.89,11.281l0,-0.004Zm30.133,-26.502c-7.654,0 -12.626,6.549 -12.626,16.012c0,9.467 4.972,16.016 12.626,16.016c7.735,0 12.781,-6.549 12.781,-16.016c0,-9.463 -5.05,-16.012 -12.781,-16.012Zm0,41.022c-13.493,0 -22.879,-10.571 -22.879,-25.01c0,-14.512 9.385,-25.006 22.879,-25.006c13.489,0 22.956,10.494 22.956,25.01c0,14.435 -9.467,25.006 -22.956,25.006Zm72.887,-0.791l-7.967,0l-22.879,-32.264l0,32.264l-9.703,0l0,-48.435l9.467,0l21.379,30.605l0,-30.605l9.703,0l0,48.435Z" style="fill:#202124;fill-rule:nonzero;"/></g></g></g></svg>