<?xml version="1.0" encoding="UTF-8" standalone="no"?><!DOCTYPE svg PUBLIC "-//W3C//DTD SVG 1.1//EN" "http://www.w3.org/Graphics/SVG/1.1/DTD/svg11.dtd"><svg width="100%" height="100%" viewBox="0 0 175 125" version="1.1" xmlns="http://www.w3.org/2000/svg" xmlns:xlink="http://www.w3.org/1999/xlink" xml:space="preserve" xmlns:serif="http://www.serif.com/" style="fill-rule:evenodd;clip-rule:evenodd;stroke-linejoin:round;stroke-miterlimit:2;"><g><g id="KeyPayLogo"><g id="Group-3" serif:id="Group 3"><g id="Fill-1" serif:id="Fill 1"><g id="Fill-11" serif:id="Fill 1"><path id="path1_fill" d="M20.84,41.908c-11.51,0 -20.84,9.207 -20.84,20.564c0,1.137 0.097,2.25 0.277,3.337c0.178,0.689 0.775,2.255 2.549,2.298c1.986,0.048 3.82,-0.061 5.702,-0.775c3.205,-1.214 9.966,-3.604 3.03,-10.009c-0.251,-0.248 -0.518,-0.69 -0.647,-1.124c-0.406,-1.37 0.39,-2.806 1.778,-3.207c1.389,-0.401 2.844,0.385 3.251,1.755c0.04,0.133 0.074,0.446 0.092,0.972c0.767,8.447 6.685,5.404 7.652,-2.499c0.119,-1.041 0.836,-1.861 1.868,-2.159c1.389,-0.401 2.844,0.384 3.251,1.755c0.343,1.158 -0.363,2.389 -1.17,2.959c-4.81,3.215 -6.496,9.458 3.36,9.013c1.254,-0.092 2.424,0.625 2.786,1.843c0.406,1.37 -0.39,2.806 -1.779,3.207c-0.842,0.244 -1.706,0.048 -2.348,-0.446c-0.001,0.001 -0.001,0.001 -0.002,0.002c-7.115,-5.657 -13.874,-5.071 -7.309,1.227c0,0 0,0.001 -0.001,0.001c0.303,0.297 0.536,0.671 0.665,1.104c0.407,1.37 -0.389,2.806 -1.778,3.207c-1.389,0.401 -2.844,-0.385 -3.251,-1.755c-0.078,-0.265 -0.114,-0.622 -0.113,-0.794c0.136,-8.946 -6.459,-3.537 -10.599,0.724c-2.245,2.322 -1.022,3.983 -0.606,4.428c3.72,3.411 8.702,5.501 14.181,5.501c11.51,0 20.84,-9.207 20.84,-20.565c0,-11.357 -9.33,-20.564 -20.84,-20.564l0,0Z" style="fill:#2d388d;"/></g></g></g><g id="Fill-4" serif:id="Fill 4"><path id="path2_fill" d="M53.948,53.246c0,-0.965 0.777,-1.732 1.784,-1.732c0.979,0 1.756,0.767 1.756,1.732l0,8.406l9.555,-9.485c0.403,-0.426 0.834,-0.653 1.468,-0.653c0.978,0 1.64,0.767 1.64,1.619c0,0.54 -0.23,0.937 -0.633,1.306l-6.274,5.964l6.793,8.321c0.288,0.369 0.489,0.71 0.489,1.249c0,0.966 -0.777,1.704 -1.785,1.704c-0.69,0 -1.122,-0.341 -1.496,-0.823l-6.476,-8.151l-3.281,3.125l0,4.117c0,0.965 -0.777,1.732 -1.756,1.732c-1.007,0 -1.784,-0.766 -1.784,-1.732l0,-16.698Z" style="fill:#2d388d;"/></g><g id="Fill-6" serif:id="Fill 6"><path id="path3_fill" d="M75.911,69.773l0,-16.358c0,-0.994 0.777,-1.76 1.784,-1.76l11.713,0c0.864,0 1.583,0.71 1.583,1.562c0,0.88 -0.719,1.562 -1.583,1.562l-9.958,0l0,5.169l8.663,0c0.864,0 1.583,0.71 1.583,1.59c0,0.852 -0.719,1.533 -1.583,1.533l-8.663,0l0,5.339l10.102,0c0.863,0 1.583,0.71 1.583,1.562c0,0.88 -0.719,1.562 -1.583,1.562l-11.858,0c-1.007,0 -1.784,-0.767 -1.784,-1.76l0,-0Z" style="fill:#2d388d;"/></g><g id="Fill-8" serif:id="Fill 8"><path id="path4_fill" d="M102.305,63.81l-6.936,-9.4c-0.23,-0.341 -0.403,-0.738 -0.403,-1.221c0,-0.937 0.777,-1.675 1.785,-1.675c0.777,0 1.295,0.426 1.726,1.051l5.612,7.979l5.698,-8.008c0.432,-0.626 0.95,-1.051 1.698,-1.051c1.036,0 1.726,0.767 1.726,1.704c0,0.483 -0.23,0.909 -0.489,1.25l-6.878,9.286l0,6.219c0,0.966 -0.777,1.732 -1.784,1.732c-0.978,0 -1.756,-0.766 -1.756,-1.732l0,-6.134Z" style="fill:#2d388d;"/></g><g id="Fill-10" serif:id="Fill 10"><path id="path5_fill" d="M125.752,61.992c2.677,0 4.346,-1.477 4.346,-3.549l0,-0.058c0,-2.328 -1.698,-3.549 -4.346,-3.549l-4.115,0l0,7.156l4.115,0l0,0Zm-7.655,-8.576c0,-0.994 0.777,-1.761 1.784,-1.761l6.159,0c4.72,0 7.656,2.641 7.656,6.645l0,0.057c0,4.458 -3.626,6.787 -8.058,6.787l-4,0l0,4.799c0,0.965 -0.777,1.732 -1.756,1.732c-1.008,0 -1.784,-0.767 -1.784,-1.732l0,-16.528l0,0Z" style="fill:#231f20;"/></g><g id="Fill-12" serif:id="Fill 12"><path id="path6_fill" d="M149.179,63.641l-3.54,-8.036l-3.54,8.036l7.08,0l-0,0Zm-13.181,5.623l7.483,-16.471c0.403,-0.881 1.123,-1.42 2.13,-1.42l0.173,0c1.008,0 1.698,0.539 2.101,1.42l7.483,16.471c0.144,0.255 0.202,0.511 0.202,0.738c0,0.937 -0.72,1.675 -1.67,1.675c-0.834,0 -1.41,-0.483 -1.726,-1.221l-1.64,-3.72l-9.786,0l-1.698,3.834c-0.288,0.71 -0.892,1.107 -1.64,1.107c-0.921,0 -1.64,-0.71 -1.64,-1.618c0,-0.256 0.086,-0.512 0.23,-0.795l0,0Z" style="fill:#231f20;"/></g><g id="Fill-14" serif:id="Fill 14"><path id="path4_fill1" serif:id="path4_fill" d="M164.036,63.81l-6.936,-9.4c-0.23,-0.341 -0.403,-0.738 -0.403,-1.221c0,-0.937 0.777,-1.675 1.785,-1.675c0.777,0 1.295,0.426 1.726,1.051l5.612,7.979l5.698,-8.008c0.432,-0.626 0.95,-1.051 1.698,-1.051c1.036,0 1.726,0.767 1.726,1.704c0,0.483 -0.23,0.909 -0.489,1.25l-6.878,9.286l0,6.219c0,0.966 -0.777,1.732 -1.784,1.732c-0.978,0 -1.756,-0.766 -1.756,-1.732l0,-6.134Z" style="fill:#231f20;"/></g></g></g></svg>