<?xml version="1.0" encoding="UTF-8" standalone="no"?><!DOCTYPE svg PUBLIC "-//W3C//DTD SVG 1.1//EN" "http://www.w3.org/Graphics/SVG/1.1/DTD/svg11.dtd"><svg width="100%" height="100%" viewBox="0 0 521 521" version="1.1" xmlns="http://www.w3.org/2000/svg" xmlns:xlink="http://www.w3.org/1999/xlink" xml:space="preserve" xmlns:serif="http://www.serif.com/" style="fill-rule:evenodd;clip-rule:evenodd;stroke-linejoin:round;stroke-miterlimit:2;"><g><g id="KeyPayLogo"><g id="Group-3" serif:id="Group 3"><g id="Fill-1" serif:id="Fill 1"><g id="Fill-11" serif:id="Fill 1"><path id="path1_fill" d="M62.045,199.194c-34.267,0 -62.045,27.411 -62.045,61.222c0,3.384 0.29,6.699 0.825,9.934c0.53,2.05 2.307,6.714 7.59,6.842c5.912,0.144 11.373,-0.181 16.975,-2.306c9.541,-3.615 29.67,-10.729 9.021,-29.798c-0.748,-0.738 -1.543,-2.055 -1.927,-3.345c-1.21,-4.08 1.161,-8.355 5.294,-9.549c4.134,-1.194 8.467,1.146 9.678,5.224c0.118,0.396 0.22,1.329 0.275,2.893c2.283,25.147 19.903,16.087 22.781,-7.441c0.354,-3.1 2.488,-5.541 5.561,-6.428c4.135,-1.194 8.467,1.144 9.678,5.224c1.022,3.447 -1.081,7.112 -3.482,8.808c-14.319,9.572 -19.341,28.159 10.004,26.832c3.734,-0.275 7.217,1.862 8.293,5.488c1.21,4.078 -1.161,8.353 -5.296,9.547c-2.506,0.725 -5.079,0.144 -6.991,-1.329c-0.002,0.002 -0.003,0.003 -0.005,0.005c-21.182,-16.842 -41.306,-15.098 -21.759,3.654c0,0 0,0.002 -0.002,0.002c0.902,0.885 1.597,1.998 1.979,3.288c1.211,4.079 -1.159,8.354 -5.293,9.549c-4.135,1.194 -8.466,-1.146 -9.678,-5.224c-0.233,-0.79 -0.34,-1.853 -0.336,-2.363c0.404,-26.634 -19.229,-10.53 -31.555,2.155c-6.683,6.912 -3.044,11.857 -1.804,13.184c11.075,10.156 25.907,16.377 42.218,16.377c34.268,0 62.045,-27.411 62.045,-61.224c0,-33.811 -27.778,-61.222 -62.045,-61.222Z" style="fill:#2d388d;"/></g></g></g><g id="Fill-4" serif:id="Fill 4"><path id="path2_fill" d="M160.612,232.95c0,-2.874 2.314,-5.157 5.312,-5.157c2.914,0 5.227,2.283 5.227,5.157l0,25.026l28.447,-28.238c1.199,-1.269 2.484,-1.945 4.37,-1.945c2.913,0 4.884,2.283 4.884,4.819c0,1.607 -0.685,2.79 -1.886,3.889l-18.679,17.755l20.223,24.772c0.856,1.099 1.456,2.113 1.456,3.718c0,2.877 -2.314,5.073 -5.313,5.073c-2.055,0 -3.341,-1.015 -4.454,-2.45l-19.28,-24.267l-9.768,9.303l0,12.258c0,2.874 -2.312,5.156 -5.227,5.156c-2.998,0 -5.312,-2.281 -5.312,-5.156l0,-49.713Z" style="fill:#2d388d;"/></g><g id="Fill-6" serif:id="Fill 6"><path id="path3_fill" d="M225.997,282.153l0,-48.699c0,-2.958 2.314,-5.241 5.312,-5.241l34.872,0c2.572,0 4.713,2.113 4.713,4.651c0,2.62 -2.142,4.649 -4.713,4.649l-29.646,0l0,15.388l25.79,0c2.571,0 4.713,2.113 4.713,4.735c0,2.536 -2.142,4.565 -4.713,4.565l-25.79,0l0,15.894l30.075,0c2.57,0 4.712,2.115 4.712,4.649c0,2.621 -2.142,4.651 -4.712,4.651l-35.302,0c-2.998,0 -5.312,-2.283 -5.312,-5.241Z" style="fill:#2d388d;"/></g><g id="Fill-8" serif:id="Fill 8"><path id="path4_fill" d="M304.578,264.401l-20.649,-27.985c-0.686,-1.015 -1.2,-2.196 -1.2,-3.635c0,-2.791 2.314,-4.987 5.314,-4.987c2.312,0 3.856,1.267 5.14,3.128l16.708,23.755l16.965,-23.84c1.286,-1.863 2.828,-3.13 5.056,-3.13c3.083,0 5.14,2.282 5.14,5.073c0,1.439 -0.685,2.706 -1.457,3.72l-20.478,27.646l0,18.516c0,2.876 -2.312,5.157 -5.312,5.157c-2.913,0 -5.227,-2.281 -5.227,-5.157l0,-18.261Z" style="fill:#2d388d;"/></g><g id="Fill-10" serif:id="Fill 10"><path id="path5_fill" d="M374.382,258.989c7.969,0 12.938,-4.397 12.938,-10.567l0,-0.172c0,-6.931 -5.054,-10.567 -12.938,-10.567l-12.252,0l0,21.305l12.252,0Zm-22.791,-25.532c0,-2.958 2.312,-5.243 5.312,-5.243l18.335,0c14.053,0 22.792,7.863 22.792,19.784l0,0.17c0,13.273 -10.796,20.207 -23.991,20.207l-11.91,0l0,14.287c0,2.874 -2.314,5.156 -5.227,5.156c-3,0 -5.312,-2.282 -5.312,-5.156l0,-49.205Z" style="fill:#231f20;"/></g><g id="Fill-12" serif:id="Fill 12"><path id="path6_fill" d="M444.127,263.896l-10.538,-23.925l-10.54,23.925l21.079,0Zm-39.243,16.74l22.277,-49.037c1.2,-2.622 3.342,-4.227 6.34,-4.227l0.515,0c3,0 5.054,1.605 6.255,4.227l22.278,49.037c0.428,0.759 0.6,1.521 0.6,2.198c0,2.791 -2.144,4.987 -4.971,4.987c-2.484,0 -4.198,-1.437 -5.139,-3.634l-4.884,-11.075l-29.133,0l-5.056,11.413c-0.856,2.115 -2.655,3.296 -4.884,3.296c-2.742,0 -4.884,-2.114 -4.884,-4.818c0,-0.761 0.257,-1.523 0.686,-2.368Z" style="fill:#231f20;"/></g><g id="Fill-14" serif:id="Fill 14"><path id="path4_fill1" serif:id="path4_fill" d="M488.36,264.401l-20.649,-27.985c-0.686,-1.015 -1.2,-2.196 -1.2,-3.635c0,-2.791 2.314,-4.987 5.314,-4.987c2.312,0 3.856,1.267 5.14,3.128l16.708,23.755l16.965,-23.84c1.286,-1.863 2.828,-3.13 5.056,-3.13c3.083,0 5.14,2.282 5.14,5.073c0,1.439 -0.685,2.706 -1.457,3.72l-20.478,27.646l0,18.516c0,2.876 -2.312,5.157 -5.312,5.157c-2.913,0 -5.227,-2.281 -5.227,-5.157l0,-18.261Z" style="fill:#231f20;"/></g></g></g></svg>