<?xml version="1.0" encoding="UTF-8" standalone="no"?>
<!DOCTYPE svg PUBLIC "-//W3C//DTD SVG 1.1//EN" "http://www.w3.org/Graphics/SVG/1.1/DTD/svg11.dtd">
<svg width="100%" height="100%" viewBox="0 0 494 494" version="1.1" xmlns="http://www.w3.org/2000/svg" xmlns:xlink="http://www.w3.org/1999/xlink" xml:space="preserve" xmlns:serif="http://www.serif.com/" style="fill-rule:evenodd;clip-rule:evenodd;stroke-linejoin:round;stroke-miterlimit:0.73;">
    <g>
        <g>
            <g style="filter:url(#_Effect1);">
                <path d="M435.953,152.488L435.953,341.465C435.953,393.614 393.614,435.953 341.465,435.953L152.488,435.953C100.339,435.953 58,393.614 58,341.465L58,152.488C58,100.339 100.339,58 152.488,58L341.465,58C393.614,58 435.953,100.339 435.953,152.488Z" style="fill:none;stroke:rgb(1,55,125);stroke-opacity:0.2;stroke-width:20px;"/>
            </g>
            <path d="M435.953,152.488L435.953,341.465C435.953,393.614 393.614,435.953 341.465,435.953L152.488,435.953C100.339,435.953 58,393.614 58,341.465L58,152.488C58,100.339 100.339,58 152.488,58L341.465,58C393.614,58 435.953,100.339 435.953,152.488Z" style="fill:white;stroke:white;stroke-width:0.46px;"/>
        </g>
        <g>
            <path d="M284.759,226.516L284.759,326.575C284.759,347.86 267.478,365.141 246.193,365.141L169.06,365.141C147.775,365.141 130.494,347.86 130.494,326.575L130.494,226.516C130.494,205.23 147.775,187.949 169.06,187.949L246.193,187.949C267.478,187.949 284.759,205.23 284.759,226.516Z" style="fill:rgb(1,54,124);"/>
            <path d="M196.184,228.715L196.184,242.127C196.184,245.828 193.179,248.832 189.478,248.832L172.065,248.832C168.364,248.832 165.359,245.828 165.359,242.127L165.359,228.715C165.359,225.014 168.364,222.01 172.065,222.01L189.478,222.01C193.179,222.01 196.184,225.014 196.184,228.715Z" style="fill:white;"/>
            <path d="M252.832,228.715L252.832,242.127C252.832,245.828 249.827,248.832 246.126,248.832L228.713,248.832C225.012,248.832 222.007,245.828 222.007,242.127L222.007,228.715C222.007,225.014 225.012,222.01 228.713,222.01L246.126,222.01C249.827,222.01 252.832,225.014 252.832,228.715Z" style="fill:white;"/>
            <path d="M196.184,270.173L196.184,283.585C196.184,287.286 193.179,290.29 189.478,290.29L172.065,290.29C168.364,290.29 165.359,287.286 165.359,283.585L165.359,270.173C165.359,266.472 168.364,263.468 172.065,263.468L189.478,263.468C193.179,263.468 196.184,266.472 196.184,270.173Z" style="fill:white;"/>
            <path d="M252.832,270.173L252.832,283.585C252.832,287.286 249.827,290.29 246.126,290.29L228.713,290.29C225.012,290.29 222.007,287.286 222.007,283.585L222.007,270.173C222.007,266.472 225.012,263.468 228.713,263.468L246.126,263.468C249.827,263.468 252.832,266.472 252.832,270.173Z" style="fill:white;"/>
            <path d="M252.832,314.047L252.832,327.458C252.832,331.159 249.827,334.164 246.126,334.164L228.713,334.164C225.012,334.164 222.007,331.159 222.007,327.458L222.007,314.047C222.007,310.346 225.012,307.341 228.713,307.341L246.126,307.341C249.827,307.341 252.832,310.346 252.832,314.047Z" style="fill:white;"/>
            <path d="M196.184,314.047L196.184,327.458C196.184,331.159 193.179,334.164 189.478,334.164L172.065,334.164C168.364,334.164 165.359,331.159 165.359,327.458L165.359,314.047C165.359,310.346 168.364,307.341 172.065,307.341L189.478,307.341C193.179,307.341 196.184,310.346 196.184,314.047Z" style="fill:white;"/>
            <g>
                <path d="M349.873,262.95L349.873,334.373C349.873,349.566 337.538,361.901 322.344,361.901L267.287,361.901C252.093,361.901 239.758,349.566 239.758,334.373L239.758,262.95C239.758,247.756 252.093,235.421 267.287,235.421L322.344,235.421C337.538,235.421 349.873,247.756 349.873,262.95Z" style="fill:rgb(126,211,79);"/>
                <path d="M289.209,270.019L289.209,283.43C289.209,287.131 286.204,290.136 282.503,290.136L265.09,290.136C261.389,290.136 258.384,287.131 258.384,283.43L258.384,270.019C258.384,266.318 261.389,263.313 265.09,263.313L282.503,263.313C286.204,263.313 289.209,266.318 289.209,270.019Z" style="fill:white;"/>
                <path d="M331.247,270.019L331.247,283.43C331.247,287.131 328.242,290.136 324.542,290.136L307.128,290.136C303.427,290.136 300.422,287.131 300.422,283.43L300.422,270.019C300.422,266.318 303.427,263.313 307.128,263.313L324.542,263.313C328.242,263.313 331.247,266.318 331.247,270.019Z" style="fill:white;"/>
                <path d="M331.247,313.892L331.247,327.304C331.247,331.005 328.242,334.009 324.542,334.009L307.128,334.009C303.427,334.009 300.422,331.005 300.422,327.304L300.422,313.892C300.422,310.191 303.427,307.187 307.128,307.187L324.542,307.187C328.242,307.187 331.247,310.191 331.247,313.892Z" style="fill:white;"/>
                <path d="M289.209,313.892L289.209,327.304C289.209,331.005 286.204,334.009 282.503,334.009L265.09,334.009C261.389,334.009 258.384,331.005 258.384,327.304L258.384,313.892C258.384,310.191 261.389,307.187 265.09,307.187L282.503,307.187C286.204,307.187 289.209,310.191 289.209,313.892Z" style="fill:white;"/>
            </g>
            <g>
                <g>
                    <path d="M321.859,135.88C330.617,135.88 348.132,135.88 356.89,146.701C365.648,157.523 365.648,179.165 356.89,200.808C356.89,200.808 356.89,200.809 356.889,200.809C351.386,215.381 337.436,225.024 321.859,225.024C306.282,225.024 292.332,215.381 286.828,200.809C286.828,200.809 286.828,200.808 286.828,200.808C278.07,179.165 278.07,157.523 286.828,146.701C295.586,135.88 313.101,135.88 321.859,135.88Z" style="fill:rgb(1,55,125);"/>
                    <path d="M321.859,156.413C322.979,156.413 325.218,156.413 326.338,157.796C327.458,159.18 327.458,161.947 326.338,164.714C326.338,164.715 326.337,164.716 326.337,164.717C325.633,166.579 323.85,167.811 321.859,167.811C319.868,167.811 318.085,166.579 317.381,164.717C317.381,164.716 317.381,164.715 317.38,164.714C316.261,161.947 316.261,159.18 317.38,157.796C318.5,156.413 320.739,156.413 321.859,156.413Z" style="fill:white;"/>
                    <ellipse cx="321.859" cy="171.744" rx="1.123" ry="1.142" style="fill:white;"/>
                    <path d="M321.859,102.905C326.768,102.905 336.587,102.905 341.496,108.971C346.406,115.037 346.406,127.169 341.496,139.301C341.496,139.301 341.496,139.302 341.496,139.302C338.41,147.471 330.59,152.876 321.859,152.876C313.127,152.876 305.308,147.47 302.222,139.302C302.222,139.302 302.222,139.301 302.222,139.301C297.313,127.169 297.313,115.037 302.222,108.971C307.131,102.905 316.95,102.905 321.859,102.905Z" style="fill:rgb(124,210,76);"/>
                </g>
            </g>
        </g>
    </g>
    <defs>
        <filter id="_Effect1" filterUnits="userSpaceOnUse" x="-48" y="-48" width="589.953" height="589.953">
            <feGaussianBlur in="SourceGraphic" stdDeviation="16"/>
        </filter>
    </defs>
</svg>
