<?xml version="1.0" encoding="UTF-8" standalone="no"?>
<!DOCTYPE svg PUBLIC "-//W3C//DTD SVG 1.1//EN" "http://www.w3.org/Graphics/SVG/1.1/DTD/svg11.dtd">
<svg width="100%" height="100%" viewBox="0 0 379 379" version="1.1" xmlns="http://www.w3.org/2000/svg" xmlns:xlink="http://www.w3.org/1999/xlink" xml:space="preserve" xmlns:serif="http://www.serif.com/" style="fill-rule:evenodd;clip-rule:evenodd;stroke-linejoin:round;stroke-miterlimit:0.73;">
    <g>
        <g>
            <g>
                <path d="M378.185,94.721L378.185,283.697C378.185,335.846 335.846,378.185 283.697,378.185L94.721,378.185C42.571,378.185 0.232,335.846 0.232,283.697L0.232,94.721C0.232,42.571 42.571,0.232 94.721,0.232L283.697,0.232C335.846,0.232 378.185,42.571 378.185,94.721Z" style="fill:white;stroke:white;stroke-width:0.46px;"/>
            </g>
        </g>
        <g>
            <path d="M196.683,82.927L200.24,100.244C207.124,101.297 213.871,103.105 220.359,105.635L232.098,92.417C238.666,95.403 244.93,99.02 250.801,103.215L245.223,119.99C250.658,124.344 255.597,129.283 259.951,134.718L276.726,129.141C280.922,135.011 284.538,141.275 287.525,147.844L274.307,159.583C276.836,166.071 278.644,172.818 279.698,179.702L297.014,183.259C297.712,190.441 297.712,197.673 297.014,204.855L279.698,208.412C278.644,215.296 276.836,222.043 274.307,228.531L287.525,240.27C284.538,246.839 280.922,253.103 276.726,258.974L259.951,253.396C255.597,258.831 250.658,263.77 245.223,268.124L250.801,284.899C244.93,289.094 238.666,292.711 232.098,295.697L220.359,282.479C213.871,285.009 207.124,286.817 200.24,287.87L196.683,305.187C189.501,305.884 182.268,305.884 175.086,305.187L171.529,287.87C164.645,286.817 157.899,285.009 151.41,282.479L139.672,295.697C133.103,292.711 126.839,289.094 120.968,284.899L126.546,268.124C121.111,263.77 116.172,258.831 111.818,253.396L95.043,258.974C90.847,253.103 87.231,246.839 84.244,240.27L97.462,228.531C94.933,222.043 93.125,215.296 92.072,208.412L74.755,204.855C74.057,197.673 74.057,190.441 74.755,183.259L92.072,179.702C93.125,172.818 94.933,166.071 97.462,159.583L84.244,147.844C87.231,141.275 90.847,135.011 95.043,129.141L111.818,134.718C116.172,129.283 121.111,124.344 126.546,119.99L120.968,103.215C126.839,99.02 133.103,95.403 139.672,92.417L151.41,105.635C157.899,103.105 164.645,101.297 171.529,100.244L175.086,82.927C182.268,82.23 189.501,82.23 196.683,82.927ZM185.885,118.376C227.654,118.376 261.566,152.287 261.566,194.057C261.566,235.827 227.654,269.738 185.885,269.738C144.115,269.738 110.204,235.827 110.204,194.057C110.204,152.287 144.115,118.376 185.885,118.376Z" style="fill:rgb(126,211,79);"/>
            <g>
                <circle cx="114.431" cy="270.887" r="45.294" style="fill:rgb(1,55,125);"/>
                <path d="M126.624,277.98C126.624,279.625 126.205,281.167 125.367,282.606C124.528,284.045 123.295,285.232 121.666,286.165C120.037,287.098 118.115,287.643 115.901,287.801L115.901,291.645L112.865,291.645L112.865,287.754C109.702,287.469 107.156,286.513 105.226,284.884C103.297,283.255 102.3,281.048 102.237,278.265L109.354,278.265C109.544,280.542 110.714,281.918 112.865,282.393L112.865,273.331C110.587,272.761 108.753,272.192 107.361,271.623C105.969,271.053 104.768,270.136 103.755,268.871C102.743,267.606 102.237,265.882 102.237,263.699C102.237,260.948 103.226,258.702 105.202,256.962C107.179,255.222 109.733,254.226 112.865,253.973L112.865,250.13L115.901,250.13L115.901,253.973C118.938,254.226 121.365,255.143 123.184,256.725C125.003,258.306 126.023,260.489 126.244,263.272L119.08,263.272C118.985,262.355 118.661,261.556 118.108,260.876C117.554,260.196 116.819,259.714 115.901,259.429L115.901,268.396C118.274,268.997 120.148,269.575 121.524,270.128C122.899,270.682 124.094,271.583 125.106,272.833C126.118,274.082 126.624,275.798 126.624,277.98ZM109.164,263.367C109.164,264.411 109.48,265.257 110.113,265.906C110.746,266.554 111.663,267.084 112.865,267.495L112.865,259.287C111.726,259.445 110.825,259.872 110.16,260.568C109.496,261.264 109.164,262.197 109.164,263.367ZM115.901,282.488C117.103,282.266 118.044,281.776 118.724,281.017C119.404,280.258 119.744,279.34 119.744,278.265C119.744,277.221 119.412,276.383 118.748,275.75C118.084,275.118 117.135,274.596 115.901,274.185L115.901,282.488Z" style="fill:white;fill-rule:nonzero;"/>
            </g>
            <g>
                <circle cx="263.987" cy="107.53" r="45.294" style="fill:rgb(1,55,125);"/>
                <path d="M258.639,114.216L258.637,114.216C258.637,112.864 258.749,113.486 251.529,99.047C250.054,96.098 245.831,96.092 244.353,99.047C237.073,113.61 237.246,112.906 237.246,114.216L237.245,114.216C237.245,117.908 242.034,120.902 247.942,120.902C253.849,120.902 258.639,117.908 258.639,114.216ZM247.942,100.845L253.959,112.879L241.925,112.879L247.942,100.845ZM290.728,114.216C290.728,112.864 290.84,113.486 283.62,99.047C282.145,96.098 277.922,96.092 276.444,99.047C269.163,113.61 269.337,112.906 269.337,114.216L269.336,114.216C269.336,117.908 274.125,120.902 280.033,120.902C285.94,120.902 290.73,117.908 290.73,114.216L290.728,114.216ZM274.016,112.879L280.033,100.845L286.05,112.879L274.016,112.879ZM281.37,123.576L266.661,123.576L266.661,98.944C268.626,98.084 270.101,96.313 270.538,94.159L281.37,94.159C282.108,94.159 282.707,93.561 282.707,92.822L282.707,90.148C282.707,89.409 282.108,88.811 281.37,88.811L269.306,88.811C268.085,87.196 266.167,86.136 263.987,86.136C261.807,86.136 259.889,87.196 258.669,88.811L246.605,88.811C245.866,88.811 245.267,89.409 245.267,90.148L245.267,92.822C245.267,93.561 245.866,94.159 246.605,94.159L257.436,94.159C257.873,96.312 259.347,98.084 261.313,98.944L261.313,123.576L246.605,123.576C245.866,123.576 245.267,124.174 245.267,124.913L245.267,127.587C245.267,128.326 245.866,128.924 246.605,128.924L281.37,128.924C282.108,128.924 282.707,128.326 282.707,127.587L282.707,124.913C282.707,124.174 282.108,123.576 281.37,123.576Z" style="fill:white;fill-rule:nonzero;"/>
            </g>
            <path d="M185.885,131.535C156.41,131.535 132.294,155.65 132.294,185.125L132.294,198.523C132.294,211.027 142.119,220.852 154.623,220.852C157.303,220.852 159.089,219.066 159.089,216.386L159.089,180.659C159.089,177.98 157.303,176.193 154.623,176.193C149.711,176.193 145.245,177.98 141.672,180.659C143.905,158.33 163.109,140.466 185.885,140.466C208.661,140.466 227.864,157.883 230.097,180.659C226.524,177.98 222.058,176.193 217.146,176.193C214.466,176.193 212.68,177.98 212.68,180.659L212.68,216.386C212.68,219.066 214.466,220.852 217.146,220.852C219.825,220.852 222.951,220.406 225.184,219.066C220.272,227.998 212.68,235.143 203.302,239.162C202.408,233.803 197.943,229.337 192.137,229.337C186.331,229.337 181.419,234.25 181.419,240.056C181.419,243.182 182.759,246.308 185.438,248.541C187.671,250.327 189.904,251.22 192.583,251.22L194.37,251.22C219.825,247.648 239.475,224.872 239.475,198.523L239.475,185.125C239.475,155.65 215.359,131.535 185.885,131.535Z" style="fill:rgb(1,55,125);fill-rule:nonzero;"/>
        </g>
    </g>
</svg>
