<?xml version="1.0" encoding="UTF-8" standalone="no"?>
<!DOCTYPE svg PUBLIC "-//W3C//DTD SVG 1.1//EN" "http://www.w3.org/Graphics/SVG/1.1/DTD/svg11.dtd">
<svg width="100%" height="100%" viewBox="0 0 494 494" version="1.1" xmlns="http://www.w3.org/2000/svg" xmlns:xlink="http://www.w3.org/1999/xlink" xml:space="preserve" xmlns:serif="http://www.serif.com/" style="fill-rule:evenodd;clip-rule:evenodd;stroke-linejoin:round;stroke-miterlimit:0.73;">
    <g>
        <g>
            <g style="filter:url(#_Effect1);">
                <path d="M435.953,152.488L435.953,341.465C435.953,393.614 393.614,435.953 341.465,435.953L152.488,435.953C100.339,435.953 58,393.614 58,341.465L58,152.488C58,100.339 100.339,58 152.488,58L341.465,58C393.614,58 435.953,100.339 435.953,152.488Z" style="fill:none;stroke:rgb(1,55,125);stroke-opacity:0.2;stroke-width:20px;"/>
            </g>
            <path d="M435.953,152.488L435.953,341.465C435.953,393.614 393.614,435.953 341.465,435.953L152.488,435.953C100.339,435.953 58,393.614 58,341.465L58,152.488C58,100.339 100.339,58 152.488,58L341.465,58C393.614,58 435.953,100.339 435.953,152.488Z" style="fill:white;stroke:white;stroke-width:0.46px;"/>
        </g>
        <g>
            <path d="M357.927,176.041L357.927,317.911C357.927,349.691 332.126,375.492 300.347,375.492L185.186,375.492C153.407,375.492 127.606,349.691 127.606,317.911L127.606,176.041C127.606,144.262 153.407,118.461 185.186,118.461L300.347,118.461C332.126,118.461 357.927,144.262 357.927,176.041Z" style="fill:rgb(1,54,124);"/>
            <path d="M349.43,181.275L349.43,312.678C349.43,342.112 325.533,366.01 296.098,366.01L189.434,366.01C160,366.01 136.102,342.112 136.102,312.678L136.102,181.275C136.102,151.84 160,127.943 189.434,127.943L296.098,127.943C325.533,127.943 349.43,151.84 349.43,181.275Z" style="fill:none;stroke:white;stroke-width:10.9px;stroke-linecap:round;stroke-miterlimit:0.348837;"/>
            <path d="M349.43,181.275L349.43,312.678C349.43,342.112 325.533,366.01 296.098,366.01L189.434,366.01C160,366.01 136.102,342.112 136.102,312.678L136.102,181.275C136.102,151.84 160,127.943 189.434,127.943L296.098,127.943C325.533,127.943 349.43,151.84 349.43,181.275Z" style="fill:rgb(1,54,124);"/>
            <circle cx="242.766" cy="233.859" r="63.611" style="fill:rgb(126,211,79);"/>
            <path d="M235.242,243.264L235.24,243.264C235.24,241.362 235.397,242.238 225.241,221.924C223.165,217.775 217.224,217.767 215.145,221.924C204.903,242.412 205.147,241.422 205.147,243.264L205.145,243.264C205.145,248.458 211.883,252.669 220.193,252.669C228.504,252.669 235.242,248.458 235.242,243.264ZM220.193,224.453L228.658,241.383L211.729,241.383L220.193,224.453ZM280.386,243.264C280.386,241.362 280.543,242.238 270.386,221.924C268.311,217.775 262.369,217.767 260.291,221.924C250.048,242.412 250.293,241.422 250.293,243.264L250.291,243.264C250.291,248.458 257.028,252.669 265.339,252.669C273.65,252.669 280.388,248.458 280.388,243.264L280.386,243.264ZM256.874,241.383L265.339,224.453L273.804,241.383L256.874,241.383ZM267.22,256.432L246.528,256.432L246.528,221.779C249.292,220.569 251.368,218.078 251.982,215.048L267.22,215.048C268.26,215.048 269.101,214.206 269.101,213.167L269.101,209.405C269.101,208.365 268.26,207.524 267.22,207.524L250.248,207.524C248.532,205.252 245.834,203.761 242.766,203.761C239.699,203.761 237.001,205.252 235.284,207.524L218.312,207.524C217.273,207.524 216.431,208.365 216.431,209.405L216.431,213.167C216.431,214.206 217.273,215.048 218.312,215.048L233.55,215.048C234.165,218.076 236.239,220.569 239.004,221.779L239.004,256.432L218.312,256.432C217.273,256.432 216.431,257.273 216.431,258.313L216.431,262.075C216.431,263.114 217.273,263.956 218.312,263.956L267.22,263.956C268.26,263.956 269.101,263.114 269.101,262.075L269.101,258.313C269.101,257.273 268.26,256.432 267.22,256.432Z" style="fill:white;fill-rule:nonzero;"/>
            <circle cx="311.27" cy="196.593" r="37.266" style="fill:none;stroke:white;stroke-width:18.26px;stroke-linecap:round;stroke-miterlimit:0.348837;"/>
            <circle cx="311.27" cy="196.593" r="37.266" style="fill:rgb(1,54,124);"/>
            <path d="M343.097,235.578L374.286,289.599C375.235,291.242 374.671,293.347 373.027,294.296L367.071,297.735C365.427,298.684 363.322,298.12 362.373,296.477L331.184,242.456C330.235,240.812 330.799,238.707 332.443,237.758L338.4,234.319C340.043,233.37 342.148,233.934 343.097,235.578Z" style="fill:rgb(126,211,79);"/>
            <path d="M301.878,321.044L301.878,331.468C301.878,334.345 299.543,336.68 296.666,336.68L188.866,336.68C185.99,336.68 183.654,334.345 183.654,331.468L183.654,321.044C183.654,318.167 185.99,315.832 188.866,315.832L296.666,315.832C299.543,315.832 301.878,318.167 301.878,321.044Z" style="fill:white;"/>
        </g>
    </g>
    <defs>
        <filter id="_Effect1" filterUnits="userSpaceOnUse" x="-48" y="-48" width="589.953" height="589.953">
            <feGaussianBlur in="SourceGraphic" stdDeviation="16"/>
        </filter>
    </defs>
</svg>
