<?xml version="1.0" encoding="UTF-8" standalone="no"?>
<!DOCTYPE svg PUBLIC "-//W3C//DTD SVG 1.1//EN" "http://www.w3.org/Graphics/SVG/1.1/DTD/svg11.dtd">
<svg width="100%" height="100%" viewBox="0 0 379 379" version="1.1" xmlns="http://www.w3.org/2000/svg" xmlns:xlink="http://www.w3.org/1999/xlink" xml:space="preserve" xmlns:serif="http://www.serif.com/" style="fill-rule:evenodd;clip-rule:evenodd;stroke-linejoin:round;stroke-miterlimit:0.73;">
    <g>
        <g>
            <path d="M378.185,94.721L378.185,283.697C378.185,335.846 335.846,378.185 283.697,378.185L94.721,378.185C42.571,378.185 0.232,335.846 0.232,283.697L0.232,94.721C0.232,42.571 42.571,0.232 94.721,0.232L283.697,0.232C335.846,0.232 378.185,42.571 378.185,94.721Z" style="fill:white;stroke:white;stroke-width:0.46px;"/>
        </g>
        <g>
            <path d="M341.089,95.652L341.089,282.765C341.089,324.679 307.06,358.708 265.146,358.708L113.26,358.708C71.346,358.708 37.317,324.679 37.317,282.765L37.317,95.652C37.317,53.738 71.346,19.709 113.26,19.709L265.146,19.709C307.06,19.709 341.089,53.738 341.089,95.652Z" style="fill:rgb(1,54,124);"/>
            <path d="M329.882,102.555L329.882,275.863C329.882,314.684 298.364,346.202 259.543,346.202L118.863,346.202C80.041,346.202 48.523,314.684 48.523,275.863L48.523,102.555C48.523,63.733 80.041,32.215 118.863,32.215L259.543,32.215C298.364,32.215 329.882,63.733 329.882,102.555Z" style="fill:none;stroke:white;stroke-width:14.38px;stroke-linecap:round;stroke-miterlimit:0.348837;"/>
            <path d="M329.882,102.555L329.882,275.863C329.882,314.684 298.364,346.202 259.543,346.202L118.863,346.202C80.041,346.202 48.523,314.684 48.523,275.863L48.523,102.555C48.523,63.733 80.041,32.215 118.863,32.215L259.543,32.215C298.364,32.215 329.882,63.733 329.882,102.555Z" style="fill:rgb(1,54,124);"/>
            <circle cx="189.203" cy="171.908" r="83.897" style="fill:rgb(126,211,79);"/>
            <path d="M179.279,184.313L179.276,184.313C179.276,181.804 179.484,182.959 166.088,156.168C163.351,150.696 155.514,150.685 152.773,156.168C139.264,183.188 139.587,181.883 139.587,184.313L139.583,184.313C139.583,191.163 148.47,196.717 159.431,196.717C170.392,196.717 179.279,191.163 179.279,184.313ZM159.431,159.503L170.595,181.832L148.267,181.832L159.431,159.503ZM238.819,184.313C238.819,181.804 239.027,182.959 225.631,156.168C222.894,150.696 215.057,150.685 212.316,156.168C198.807,183.188 199.13,181.883 199.13,184.313L199.127,184.313C199.127,191.163 208.013,196.717 218.974,196.717C229.935,196.717 238.822,191.163 238.822,184.313L238.819,184.313ZM207.81,181.832L218.974,159.503L230.139,181.832L207.81,181.832ZM221.455,201.679L194.165,201.679L194.165,155.975C197.81,154.38 200.547,151.094 201.358,147.098L221.455,147.098C222.826,147.098 223.936,145.988 223.936,144.617L223.936,139.655C223.936,138.284 222.826,137.174 221.455,137.174L199.071,137.174C196.807,134.179 193.248,132.212 189.203,132.212C185.157,132.212 181.599,134.179 179.335,137.174L156.95,137.174C155.579,137.174 154.469,138.284 154.469,139.655L154.469,144.617C154.469,145.988 155.579,147.098 156.95,147.098L177.048,147.098C177.858,151.092 180.594,154.38 184.241,155.975L184.241,201.679L156.95,201.679C155.579,201.679 154.469,202.79 154.469,204.16L154.469,209.122C154.469,210.493 155.579,211.603 156.95,211.603L221.455,211.603C222.826,211.603 223.936,210.493 223.936,209.122L223.936,204.16C223.936,202.79 222.826,201.679 221.455,201.679Z" style="fill:white;fill-rule:nonzero;"/>
            <circle cx="279.552" cy="122.758" r="49.15" style="fill:none;stroke:white;stroke-width:24.09px;stroke-linecap:round;stroke-miterlimit:0.348837;"/>
            <circle cx="279.552" cy="122.758" r="49.15" style="fill:rgb(1,54,124);"/>
            <path d="M321.53,174.176L362.665,245.424C363.917,247.592 363.173,250.368 361.005,251.62L353.149,256.155C350.981,257.407 348.204,256.663 346.953,254.495L305.818,183.247C304.566,181.079 305.31,178.303 307.478,177.051L315.334,172.515C317.502,171.264 320.278,172.008 321.53,174.176Z" style="fill:rgb(126,211,79);"/>
            <path d="M267.166,286.897L267.166,300.645C267.166,304.439 264.086,307.519 260.292,307.519L118.114,307.519C114.32,307.519 111.239,304.439 111.239,300.645L111.239,286.897C111.239,283.103 114.32,280.023 118.114,280.023L260.292,280.023C264.086,280.023 267.166,283.103 267.166,286.897Z" style="fill:white;"/>
        </g>
    </g>
</svg>
