<?xml version="1.0" encoding="UTF-8" standalone="no"?>
<!DOCTYPE svg PUBLIC "-//W3C//DTD SVG 1.1//EN" "http://www.w3.org/Graphics/SVG/1.1/DTD/svg11.dtd">
<svg width="100%" height="100%" viewBox="0 0 379 379" version="1.1" xmlns="http://www.w3.org/2000/svg" xmlns:xlink="http://www.w3.org/1999/xlink" xml:space="preserve" xmlns:serif="http://www.serif.com/" style="fill-rule:evenodd;clip-rule:evenodd;stroke-linejoin:round;stroke-miterlimit:0.73;">
    <g>
        <g>
            <path d="M378.185,94.721L378.185,283.697C378.185,335.846 335.846,378.185 283.697,378.185L94.721,378.185C42.571,378.185 0.232,335.846 0.232,283.697L0.232,94.721C0.232,42.571 42.571,0.232 94.721,0.232L283.697,0.232C335.846,0.232 378.185,42.571 378.185,94.721Z" style="fill:white;stroke:white;stroke-width:0.46px;"/>
        </g>
        <g>
            <path d="M285.68,99.322L285.68,267.255C285.68,300.422 258.752,327.35 225.584,327.35L105.393,327.35C72.225,327.35 45.297,300.422 45.297,267.255L45.297,99.322C45.297,66.154 72.225,39.226 105.393,39.226L225.584,39.226C258.752,39.226 285.68,66.154 285.68,99.322Z" style="fill:none;stroke:white;stroke-width:0.21px;stroke-linecap:round;stroke-miterlimit:0.348837;"/>
            <path d="M285.68,99.322L285.68,267.255C285.68,300.422 258.752,327.35 225.584,327.35L105.393,327.35C72.225,327.35 45.297,300.422 45.297,267.255L45.297,99.322C45.297,66.154 72.225,39.226 105.393,39.226L225.584,39.226C258.752,39.226 285.68,66.154 285.68,99.322Z" style="fill:rgb(1,54,124);"/>
            <path d="M239.269,125.248C239.269,136.092 230.465,144.896 219.621,144.896L111.356,144.896C100.512,144.896 91.708,136.092 91.708,125.248C91.708,114.403 100.512,105.599 111.356,105.599L219.621,105.599C230.465,105.599 239.269,114.403 239.269,125.248Z" style="fill:white;"/>
            <path d="M218.947,182.515C218.947,193.359 210.143,202.163 199.299,202.163L131.678,202.163C120.834,202.163 112.03,193.359 112.03,182.515C112.03,171.67 120.834,162.866 131.678,162.866L199.299,162.866C210.143,162.866 218.947,171.67 218.947,182.515Z" style="fill:white;"/>
            <path d="M225.87,241.329C225.87,252.173 217.066,260.977 206.221,260.977L124.755,260.977C113.911,260.977 105.107,252.173 105.107,241.329C105.107,230.484 113.911,221.68 124.755,221.68L206.221,221.68C217.066,221.68 225.87,230.484 225.87,241.329Z" style="fill:white;"/>
            <g>
                <circle cx="282.29" cy="221.816" r="36.331" style="fill:white;"/>
                <path d="M282.29,170.986C287.718,171.7 291.486,174.584 293.592,179.638C297.943,176.315 302.647,175.701 307.705,177.796C312.049,181.129 313.869,185.51 313.167,190.939C318.596,190.237 322.978,192.057 326.31,196.401C328.406,201.459 327.792,206.163 324.469,210.514C329.522,212.621 332.406,216.388 333.12,221.816C332.406,227.244 329.522,231.011 324.469,233.117C327.792,237.468 328.406,242.173 326.31,247.231C322.978,251.574 318.596,253.395 313.167,252.692C313.869,258.122 312.049,262.503 307.705,265.836C302.647,267.931 297.943,267.317 293.592,263.994C291.486,269.047 287.718,271.931 282.29,272.646C276.862,271.931 273.095,269.047 270.989,263.994C266.638,267.317 261.933,267.931 256.875,265.836C252.532,262.503 250.711,258.122 251.414,252.692C245.984,253.395 241.603,251.574 238.27,247.231C236.175,242.173 236.789,237.468 240.112,233.117C235.059,231.011 232.175,227.244 231.46,221.816C232.175,216.388 235.059,212.621 240.112,210.514C236.789,206.163 236.175,201.459 238.27,196.401C241.603,192.057 245.984,190.237 251.414,190.939C250.711,185.51 252.532,181.129 256.875,177.796C261.933,175.701 266.638,176.315 270.989,179.638C273.095,174.584 276.862,171.7 282.29,170.986ZM282.29,192.639C298.394,192.639 311.468,205.713 311.468,221.816C311.468,237.919 298.394,250.993 282.29,250.993C266.187,250.993 253.113,237.919 253.113,221.816C253.113,205.713 266.187,192.639 282.29,192.639Z" style="fill:rgb(126,211,79);"/>
                <path d="M286.978,280.31L276.508,355.429C276.026,358.882 266.311,337.306 266.311,337.306C266.311,337.306 250.997,355.394 251.478,351.94L261.949,276.821C262.43,273.367 265.625,270.954 269.078,271.436L281.593,273.18C285.047,273.662 287.46,276.856 286.978,280.31Z" style="fill:rgb(126,211,79);"/>
                <path d="M311.666,271.78L331.297,345.041C332.199,348.41 314.844,332.325 314.844,332.325C314.844,332.325 307.789,354.95 306.886,351.582L287.256,278.321C286.353,274.953 288.355,271.486 291.723,270.583L303.928,267.313C307.297,266.41 310.764,268.412 311.666,271.78Z" style="fill:rgb(126,211,79);"/>
            </g>
        </g>
    </g>
</svg>
