<?xml version="1.0" encoding="UTF-8" standalone="no"?>
<!DOCTYPE svg PUBLIC "-//W3C//DTD SVG 1.1//EN" "http://www.w3.org/Graphics/SVG/1.1/DTD/svg11.dtd">
<svg width="100%" height="100%" viewBox="0 0 379 379" version="1.1" xmlns="http://www.w3.org/2000/svg" xmlns:xlink="http://www.w3.org/1999/xlink" xml:space="preserve" xmlns:serif="http://www.serif.com/" style="fill-rule:evenodd;clip-rule:evenodd;stroke-linejoin:round;stroke-miterlimit:0.73;">
    <g>
        <g>
            <path d="M378.185,132.516L378.185,245.902C378.185,318.911 318.911,378.185 245.902,378.185L132.516,378.185C59.507,378.185 0.232,318.911 0.232,245.902L0.232,132.516C0.232,59.507 59.507,0.232 132.516,0.232L245.902,0.232C318.911,0.232 378.185,59.507 378.185,132.516Z" style="fill:white;stroke:white;stroke-width:0.46px;"/>
        </g>
        <g>
            <g>
                <clipPath id="_clip1">
                    <rect id="_19045359151551938544.svg" serif:id="19045359151551938544.svg" x="67.644" y="80.957" width="214.528" height="238.365"/>
                </clipPath>
                <g clip-path="url(#_clip1)">
                    <g id="Icons">
                        <g id="Outlined">
                            <g id="Action">
                                <g id="Outlined---Action---fingerprint" serif:id="Outlined-/-Action-/-fingerprint">
                                    <g>
                                        <rect id="Path" x="31.889" y="54.094" width="286.038" height="286.038" style="fill:none;"/>
                                        <path id="🔹-Icon-Color" d="M244.153,107.369C243.2,107.369 242.246,107.131 241.412,106.654C218.529,94.855 198.745,89.849 175.027,89.849C151.429,89.849 129.023,95.451 108.643,106.654C105.782,108.203 102.207,107.131 100.538,104.27C98.989,101.41 100.062,97.715 102.922,96.166C125.09,84.128 149.403,77.931 175.027,77.931C200.413,77.931 222.581,83.532 246.894,96.047C249.874,97.596 250.946,101.171 249.397,104.032C248.324,106.177 246.298,107.369 244.153,107.369ZM73.603,169.94C72.411,169.94 71.219,169.582 70.147,168.867C67.406,166.96 66.81,163.265 68.717,160.524C80.516,143.839 95.533,130.729 113.41,121.552C150.833,102.244 198.745,102.125 236.287,121.432C254.164,130.609 269.181,143.6 280.98,160.167C282.887,162.789 282.291,166.603 279.55,168.509C276.809,170.416 273.114,169.82 271.207,167.079C260.481,152.062 246.894,140.263 230.805,132.04C196.599,114.52 152.859,114.52 118.773,132.159C102.564,140.502 88.978,152.42 78.251,167.437C77.298,169.105 75.51,169.94 73.603,169.94ZM148.092,313.793C146.543,313.793 144.993,313.197 143.921,312.005C133.552,301.636 127.95,294.962 119.965,280.541C111.741,265.881 107.451,248.004 107.451,228.816C107.451,193.419 137.723,164.576 174.908,164.576C212.093,164.576 242.365,193.419 242.365,228.816C242.365,232.153 239.743,234.775 236.406,234.775C233.069,234.775 230.447,232.153 230.447,228.816C230.447,199.974 205.538,176.495 174.908,176.495C144.278,176.495 119.369,199.974 119.369,228.816C119.369,245.978 123.183,261.829 130.453,274.701C138.081,288.407 143.325,294.247 152.502,303.543C154.766,305.927 154.766,309.621 152.502,312.005C151.191,313.197 149.641,313.793 148.092,313.793ZM233.546,291.744C219.363,291.744 206.849,288.169 196.599,281.137C178.841,269.099 168.234,249.553 168.234,228.816C168.234,225.479 170.856,222.857 174.193,222.857C177.53,222.857 180.152,225.479 180.152,228.816C180.152,245.62 188.733,261.472 203.274,271.245C211.735,276.965 221.628,279.707 233.546,279.707C236.406,279.707 241.174,279.349 245.941,278.515C249.159,277.919 252.257,280.064 252.853,283.401C253.449,286.619 251.304,289.718 247.967,290.314C241.174,291.625 235.214,291.744 233.546,291.744ZM209.59,316.296C209.113,316.296 208.518,316.176 208.041,316.057C189.091,310.813 176.696,303.781 163.705,291.029C147.019,274.463 137.842,252.414 137.842,228.816C137.842,209.508 154.29,193.776 174.551,193.776C194.812,193.776 211.259,209.508 211.259,228.816C211.259,241.568 222.343,251.937 236.049,251.937C249.755,251.937 260.839,241.568 260.839,228.816C260.839,183.884 222.104,147.414 174.431,147.414C140.584,147.414 109.596,166.245 95.652,195.445C91.004,205.098 88.62,216.421 88.62,228.816C88.62,238.112 89.454,252.771 96.605,271.841C97.797,274.939 96.248,278.396 93.149,279.468C90.05,280.66 86.594,278.991 85.521,276.012C79.681,260.399 76.821,244.905 76.821,228.816C76.821,214.514 79.562,201.523 84.925,190.201C100.777,156.949 135.935,135.377 174.431,135.377C228.659,135.377 272.757,177.21 272.757,228.697C272.757,248.004 256.31,263.736 236.049,263.736C215.788,263.736 199.341,248.004 199.341,228.697C199.341,215.944 188.257,205.575 174.551,205.575C160.845,205.575 149.761,215.944 149.761,228.697C149.761,249.077 157.627,268.146 172.048,282.448C183.37,293.651 194.216,299.848 211.02,304.497C214.238,305.331 216.026,308.668 215.192,311.767C214.596,314.508 212.093,316.296 209.59,316.296Z" style="fill:rgb(1,51,125);"/>
                                    </g>
                                </g>
                            </g>
                        </g>
                    </g>
                </g>
                <g>
                    <circle cx="296.464" cy="147.841" r="46.188" style="fill:none;stroke:white;stroke-width:17.39px;stroke-linecap:round;stroke-miterlimit:0.348837;"/>
                    <circle cx="296.464" cy="147.841" r="46.188" style="fill:rgb(124,210,76);"/>
                    <path d="M308.342,154.75C308.342,156.352 307.933,157.854 307.117,159.256C306.3,160.658 305.099,161.813 303.512,162.722C301.925,163.631 300.053,164.163 297.897,164.317L297.897,168.06L294.939,168.06L294.939,164.271C291.858,163.993 289.377,163.061 287.498,161.474C285.618,159.888 284.648,157.739 284.586,155.027L291.519,155.027C291.703,157.246 292.844,158.586 294.939,159.048L294.939,150.221C292.72,149.666 290.933,149.111 289.578,148.557C288.222,148.002 287.051,147.109 286.065,145.876C285.079,144.644 284.586,142.965 284.586,140.839C284.586,138.158 285.549,135.97 287.475,134.276C289.4,132.581 291.888,131.611 294.939,131.364L294.939,127.621L297.897,127.621L297.897,131.364C300.854,131.611 303.219,132.504 304.991,134.045C306.762,135.585 307.756,137.711 307.972,140.423L300.993,140.423C300.901,139.529 300.585,138.751 300.046,138.089C299.506,137.426 298.79,136.956 297.897,136.679L297.897,145.414C300.207,146 302.033,146.562 303.373,147.101C304.714,147.64 305.877,148.518 306.863,149.735C307.849,150.952 308.342,152.624 308.342,154.75ZM291.334,140.515C291.334,141.532 291.642,142.356 292.258,142.988C292.874,143.619 293.768,144.135 294.939,144.536L294.939,136.54C293.829,136.695 292.951,137.11 292.304,137.788C291.657,138.466 291.334,139.375 291.334,140.515ZM297.897,159.141C299.067,158.925 299.984,158.447 300.646,157.708C301.309,156.968 301.64,156.075 301.64,155.027C301.64,154.01 301.317,153.194 300.67,152.578C300.023,151.962 299.098,151.453 297.897,151.053L297.897,159.141Z" style="fill:white;fill-rule:nonzero;stroke:white;stroke-width:0.32px;stroke-miterlimit:2;"/>
                </g>
                <g>
                    <circle cx="156.423" cy="62.309" r="46.188" style="fill:none;stroke:white;stroke-width:17.39px;stroke-linecap:round;stroke-miterlimit:0.348837;"/>
                    <circle cx="156.423" cy="62.309" r="46.188" style="fill:rgb(124,210,76);"/>
                    <path d="M168.301,69.219C168.301,70.821 167.892,72.323 167.076,73.725C166.259,75.127 165.058,76.282 163.471,77.191C161.884,78.1 160.012,78.631 157.856,78.785L157.856,82.529L154.898,82.529L154.898,78.739C151.817,78.462 149.336,77.53 147.457,75.943C145.577,74.356 144.607,72.207 144.545,69.496L151.478,69.496C151.663,71.714 152.803,73.055 154.898,73.517L154.898,64.689C152.679,64.135 150.892,63.58 149.537,63.026C148.181,62.471 147.01,61.577 146.024,60.345C145.038,59.112 144.545,57.433 144.545,55.307C144.545,52.627 145.508,50.439 147.434,48.745C149.359,47.05 151.847,46.079 154.898,45.833L154.898,42.089L157.856,42.089L157.856,45.833C160.814,46.079 163.178,46.973 164.95,48.513C166.722,50.054 167.715,52.18 167.931,54.891L160.952,54.891C160.86,53.998 160.544,53.22 160.005,52.557C159.466,51.895 158.749,51.425 157.856,51.148L157.856,59.883C160.166,60.468 161.992,61.03 163.332,61.57C164.673,62.109 165.836,62.987 166.822,64.204C167.808,65.421 168.301,67.093 168.301,69.219ZM151.293,54.984C151.293,56.001 151.601,56.825 152.217,57.456C152.833,58.088 153.727,58.604 154.898,59.005L154.898,51.009C153.789,51.163 152.91,51.579 152.263,52.257C151.616,52.935 151.293,53.844 151.293,54.984ZM157.856,73.609C159.026,73.394 159.943,72.916 160.606,72.176C161.268,71.437 161.599,70.543 161.599,69.496C161.599,68.479 161.276,67.663 160.629,67.046C159.982,66.43 159.057,65.922 157.856,65.521L157.856,73.609Z" style="fill:white;fill-rule:nonzero;"/>
                </g>
                <g>
                    <circle cx="82.535" cy="261.366" r="46.188" style="fill:none;stroke:white;stroke-width:17.39px;stroke-linecap:round;stroke-miterlimit:0.348837;"/>
                    <circle cx="82.535" cy="261.366" r="46.188" style="fill:rgb(124,210,76);"/>
                    <path d="M94.413,268.276C94.413,269.878 94.005,271.38 93.188,272.782C92.372,274.184 91.17,275.339 89.583,276.248C87.996,277.157 86.125,277.689 83.968,277.843L83.968,281.586L81.01,281.586L81.01,277.796C77.929,277.519 75.449,276.587 73.569,275C71.69,273.414 70.719,271.264 70.657,268.553L77.59,268.553C77.775,270.771 78.915,272.112 81.01,272.574L81.01,263.747C78.792,263.192 77.005,262.637 75.649,262.083C74.293,261.528 73.122,260.635 72.136,259.402C71.15,258.17 70.657,256.49 70.657,254.364C70.657,251.684 71.62,249.496 73.546,247.802C75.472,246.107 77.96,245.137 81.01,244.89L81.01,241.146L83.968,241.146L83.968,244.89C86.926,245.137 89.291,246.03 91.062,247.571C92.834,249.111 93.827,251.237 94.043,253.949L87.064,253.949C86.972,253.055 86.656,252.277 86.117,251.615C85.578,250.952 84.861,250.482 83.968,250.205L83.968,258.94C86.279,259.525 88.104,260.088 89.445,260.627C90.785,261.166 91.948,262.044 92.934,263.261C93.92,264.478 94.413,266.15 94.413,268.276ZM77.405,254.041C77.405,255.058 77.713,255.882 78.329,256.514C78.946,257.145 79.839,257.661 81.01,258.062L81.01,250.066C79.901,250.22 79.023,250.636 78.376,251.314C77.729,251.992 77.405,252.901 77.405,254.041ZM83.968,272.666C85.139,272.451 86.055,271.973 86.718,271.234C87.38,270.494 87.711,269.601 87.711,268.553C87.711,267.536 87.388,266.72 86.741,266.104C86.094,265.487 85.17,264.979 83.968,264.578L83.968,272.666Z" style="fill:white;fill-rule:nonzero;"/>
                </g>
            </g>
            <g>
                <path d="M268.386,278.626L301.819,336.533C303.642,339.692 302.558,343.738 299.4,345.561L287.952,352.17C284.793,353.994 280.748,352.91 278.924,349.751L245.491,291.844C243.668,288.685 244.752,284.64 247.911,282.816L259.358,276.207C262.517,274.383 266.562,275.467 268.386,278.626Z" style="fill:rgb(1,55,125);"/>
                <path d="M211.902,207.229C237.405,192.504 270.065,201.255 284.79,226.759C299.514,252.263 290.763,284.923 265.259,299.647C239.756,314.372 207.096,305.62 192.371,280.117C177.647,254.613 186.398,221.953 211.902,207.229Z" style="fill:rgb(1,55,125);"/>
                <path d="M220.334,221.834C237.777,211.764 260.114,217.749 270.184,235.192C280.254,252.634 274.269,274.971 256.827,285.041C239.384,295.112 217.047,289.127 206.977,271.684C196.907,254.242 202.892,231.905 220.334,221.834Z" style="fill:white;"/>
            </g>
        </g>
    </g>
</svg>
