<?xml version="1.0" encoding="UTF-8" standalone="no"?>
<!DOCTYPE svg PUBLIC "-//W3C//DTD SVG 1.1//EN" "http://www.w3.org/Graphics/SVG/1.1/DTD/svg11.dtd">
<svg width="100%" height="100%" viewBox="0 0 379 379" version="1.1" xmlns="http://www.w3.org/2000/svg" xmlns:xlink="http://www.w3.org/1999/xlink" xml:space="preserve" xmlns:serif="http://www.serif.com/" style="fill-rule:evenodd;clip-rule:evenodd;stroke-linejoin:round;stroke-miterlimit:0.73;">
    <g>
        <g>
            <path d="M378.185,94.721L378.185,283.697C378.185,335.846 335.846,378.185 283.697,378.185L94.721,378.185C42.571,378.185 0.232,335.846 0.232,283.697L0.232,94.721C0.232,42.571 42.571,0.232 94.721,0.232L283.697,0.232C335.846,0.232 378.185,42.571 378.185,94.721Z" style="fill:white;stroke:white;stroke-width:0.46px;"/>
        </g>
        <g>
            <g>
                <path d="M200.143,142.669L191.289,158.006C180.858,176.073 157.722,182.272 139.655,171.841L124.506,163.095C106.439,152.664 100.24,129.528 110.671,111.461L119.525,96.125C129.956,78.058 153.092,71.859 171.159,82.289L186.308,91.036C204.375,101.467 210.574,124.603 200.143,142.669Z" style="fill:rgb(1,54,124);"/>
                <path d="M160.705,210.979C157.95,215.75 151.84,217.387 147.068,214.633L83.016,177.652C78.244,174.897 76.607,168.787 79.362,164.015C82.117,159.244 88.227,157.607 92.998,160.362L157.051,197.342C161.822,200.097 163.46,206.207 160.705,210.979Z" style="fill:rgb(1,54,124);"/>
                <path d="M231.081,89.085C228.29,93.917 222.102,95.575 217.269,92.785L153.438,55.932C148.606,53.142 146.947,46.954 149.737,42.121C152.528,37.289 158.716,35.63 163.549,38.42L227.38,75.273C232.212,78.063 233.871,84.252 231.081,89.085Z" style="fill:rgb(1,54,124);"/>
                <path d="M349.207,208.497C351.542,209.589 353.312,211.61 354.086,214.069C354.859,216.528 354.566,219.198 353.277,221.431C348.379,229.916 340.964,242.758 336.065,251.243C334.776,253.476 332.61,255.065 330.094,255.624C327.578,256.183 324.942,255.661 322.829,254.185C299.026,237.556 230.348,189.576 208.278,174.157C204.364,171.423 203.192,166.15 205.579,162.016C207.227,159.161 209.113,155.895 210.761,153.041C213.148,148.906 218.3,147.285 222.625,149.307C247.013,160.711 322.905,196.198 349.207,208.497Z" style="fill:rgb(1,54,124);"/>
            </g>
            <path d="M165.064,269.38C165.064,277.555 158.427,284.191 150.253,284.191L76.315,284.191C68.14,284.191 61.503,277.555 61.503,269.38C61.503,261.206 68.14,254.569 76.315,254.569L150.253,254.569C158.427,254.569 165.064,261.206 165.064,269.38Z" style="fill:none;stroke:black;stroke-width:0.19px;stroke-linecap:round;stroke-miterlimit:0.348837;"/>
            <path d="M165.064,269.38C165.064,277.555 158.427,284.191 150.253,284.191L76.315,284.191C68.14,284.191 61.503,277.555 61.503,269.38C61.503,261.206 68.14,254.569 76.315,254.569L150.253,254.569C158.427,254.569 165.064,261.206 165.064,269.38Z" style="fill:rgb(126,211,79);"/>
            <path d="M183.367,307.362L183.367,317.905C183.367,323.17 179.093,327.445 173.828,327.445L52.739,327.445C47.474,327.445 43.2,323.17 43.2,317.905L43.2,307.362C43.2,302.097 47.474,297.822 52.739,297.822L173.828,297.822C179.093,297.822 183.367,302.097 183.367,307.362Z" style="fill:rgb(1,54,124);"/>
        </g>
    </g>
</svg>
