<?xml version="1.0" encoding="UTF-8" standalone="no"?>
<!DOCTYPE svg PUBLIC "-//W3C//DTD SVG 1.1//EN" "http://www.w3.org/Graphics/SVG/1.1/DTD/svg11.dtd">
<svg width="100%" height="100%" viewBox="0 0 379 379" version="1.1" xmlns="http://www.w3.org/2000/svg" xmlns:xlink="http://www.w3.org/1999/xlink" xml:space="preserve" xmlns:serif="http://www.serif.com/" style="fill-rule:evenodd;clip-rule:evenodd;stroke-linejoin:round;stroke-miterlimit:0.73;">
    <g>
        <path d="M378.185,94.721L378.185,283.697C378.185,335.846 335.846,378.185 283.697,378.185L94.721,378.185C42.571,378.185 0.232,335.846 0.232,283.697L0.232,94.721C0.232,42.571 42.571,0.232 94.721,0.232L283.697,0.232C335.846,0.232 378.185,42.571 378.185,94.721Z" style="fill:white;stroke:white;stroke-width:0.46px;"/>
        <g>
            <path d="M303.676,101.626L303.676,282.892C303.676,317.594 275.503,345.767 240.802,345.767L115.054,345.767C80.352,345.767 52.179,317.594 52.179,282.892L52.179,101.626C52.179,66.924 80.352,38.751 115.054,38.751L240.802,38.751C275.503,38.751 303.676,66.924 303.676,101.626Z" style="fill:rgb(1,54,124);"/>
            <g>
                <path d="M322.254,99.374L332.627,80.501C337.094,72.373 347.689,70 356.272,75.206C364.854,80.411 368.196,91.236 363.728,99.364L353.356,118.237L322.254,99.374Z" style="fill:rgb(1,54,124);"/>
                <path d="M258.29,215.78L258.29,215.757L258.299,215.762L258.29,215.78ZM289.382,234.615L289.391,234.62L289.372,234.632L289.382,234.615Z" style="fill:rgb(124,210,76);"/>
                <path d="M325.32,93.796L356.421,112.659L353.356,118.237L322.254,99.374L325.32,93.796Z" style="fill:rgb(254,254,254);"/>
                <path d="M289.667,234.118C289.585,234.268 264.55,249.722 259.202,253.022C259.002,253.148 258.749,253.154 258.542,253.038C258.336,252.922 258.21,252.702 258.213,252.466C258.259,246.045 258.483,215.405 258.566,215.255L322.254,99.374L353.356,118.237L289.667,234.118Z" style="fill:rgb(126,211,79);"/>
            </g>
            <path d="M257.731,114.394C257.731,123.482 250.352,130.861 241.264,130.861L114.592,130.861C105.503,130.861 98.124,123.482 98.124,114.394C98.124,105.305 105.503,97.926 114.592,97.926L241.264,97.926C250.352,97.926 257.731,105.305 257.731,114.394Z" style="fill:white;"/>
            <path d="M257.731,192.259C257.731,201.348 250.352,208.726 241.264,208.726L114.592,208.726C105.503,208.726 98.124,201.348 98.124,192.259C98.124,183.17 105.503,175.792 114.592,175.792L241.264,175.792C250.352,175.792 257.731,183.17 257.731,192.259Z" style="fill:white;"/>
            <path d="M257.731,275.813C257.731,284.902 250.352,292.281 241.264,292.281L114.592,292.281C105.503,292.281 98.124,284.902 98.124,275.813C98.124,266.725 105.503,259.346 114.592,259.346L241.264,259.346C250.352,259.346 257.731,266.725 257.731,275.813Z" style="fill:white;"/>
            <ellipse cx="67.276" cy="246.067" rx="51.222" ry="53.808" style="fill:rgb(126,211,79);"/>
            <path d="M88.986,259.304C88.986,262.373 88.24,265.251 86.748,267.937C85.255,270.622 83.059,272.836 80.159,274.577C77.258,276.318 73.837,277.337 69.895,277.632L69.895,284.804L64.488,284.804L64.488,277.543C58.857,277.012 54.323,275.226 50.888,272.187C47.452,269.147 45.678,265.03 45.566,259.835L58.237,259.835C58.575,264.085 60.659,266.653 64.488,267.538L64.488,250.627C60.433,249.565 57.167,248.502 54.689,247.44C52.211,246.377 50.071,244.665 48.269,242.304C46.467,239.943 45.566,236.726 45.566,232.653C45.566,227.518 47.326,223.327 50.845,220.081C54.365,216.834 58.913,214.975 64.488,214.503L64.488,207.331L69.895,207.331L69.895,214.503C75.301,214.975 79.624,216.687 82.862,219.638C86.1,222.589 87.916,226.662 88.311,231.857L75.555,231.857C75.386,230.145 74.808,228.654 73.823,227.385C72.837,226.116 71.528,225.216 69.895,224.685L69.895,241.419C74.119,242.54 77.455,243.618 79.905,244.651C82.355,245.684 84.481,247.366 86.283,249.697C88.085,252.029 88.986,255.231 88.986,259.304ZM57.899,232.034C57.899,233.982 58.462,235.561 59.589,236.771C60.715,237.981 62.348,238.969 64.488,239.737L64.488,224.419C62.461,224.714 60.856,225.511 59.673,226.81C58.491,228.108 57.899,229.85 57.899,232.034ZM69.895,267.715C72.035,267.302 73.71,266.387 74.921,264.971C76.132,263.554 76.737,261.842 76.737,259.835C76.737,257.887 76.146,256.323 74.963,255.143C73.781,253.962 72.091,252.988 69.895,252.221L69.895,267.715Z" style="fill:white;fill-rule:nonzero;"/>
        </g>
    </g>
</svg>
