<?xml version="1.0" encoding="UTF-8" standalone="no"?>
<!DOCTYPE svg PUBLIC "-//W3C//DTD SVG 1.1//EN" "http://www.w3.org/Graphics/SVG/1.1/DTD/svg11.dtd">
<svg width="100%" height="100%" viewBox="0 0 494 494" version="1.1" xmlns="http://www.w3.org/2000/svg" xmlns:xlink="http://www.w3.org/1999/xlink" xml:space="preserve" xmlns:serif="http://www.serif.com/" style="fill-rule:evenodd;clip-rule:evenodd;stroke-linejoin:round;stroke-miterlimit:0.73;">
    <g>
        <g>
            <g style="filter:url(#_Effect1);">
                <path d="M435.953,152.488L435.953,341.465C435.953,393.614 393.614,435.953 341.465,435.953L152.488,435.953C100.339,435.953 58,393.614 58,341.465L58,152.488C58,100.339 100.339,58 152.488,58L341.465,58C393.614,58 435.953,100.339 435.953,152.488Z" style="fill:none;stroke:rgb(1,55,125);stroke-opacity:0.2;stroke-width:20px;"/>
            </g>
            <path d="M434.904,152.17L434.904,341.146C434.904,393.296 392.565,435.634 340.415,435.634L151.439,435.634C99.29,435.634 56.951,393.296 56.951,341.146L56.951,152.17C56.951,100.02 99.29,57.682 151.439,57.682L340.415,57.682C392.565,57.682 434.904,100.02 434.904,152.17Z" style="fill:white;stroke:white;stroke-width:0.46px;"/>
        </g>
        <g>
            <path d="M319.746,172.215L319.746,299.803C319.746,325.002 299.287,345.461 274.088,345.461L182.772,345.461C157.573,345.461 137.114,325.002 137.114,299.803L137.114,172.215C137.114,147.015 157.573,126.557 182.772,126.557L274.088,126.557C299.287,126.557 319.746,147.015 319.746,172.215Z" style="fill:none;stroke:white;stroke-width:0.16px;stroke-linecap:round;stroke-miterlimit:0.348837;"/>
            <path d="M319.746,172.215L319.746,299.803C319.746,325.002 299.287,345.461 274.088,345.461L182.772,345.461C157.573,345.461 137.114,325.002 137.114,299.803L137.114,172.215C137.114,147.015 157.573,126.557 182.772,126.557L274.088,126.557C299.287,126.557 319.746,147.015 319.746,172.215Z" style="fill:rgb(1,54,124);"/>
            <path d="M284.485,191.912C284.485,200.151 277.796,206.84 269.557,206.84L187.303,206.84C179.064,206.84 172.375,200.151 172.375,191.912C172.375,183.673 179.064,176.984 187.303,176.984L269.557,176.984C277.796,176.984 284.485,183.673 284.485,191.912Z" style="fill:white;"/>
            <path d="M269.046,235.421C269.046,243.66 262.356,250.349 254.118,250.349L202.743,250.349C194.504,250.349 187.815,243.66 187.815,235.421C187.815,227.182 194.504,220.493 202.743,220.493L254.118,220.493C262.356,220.493 269.046,227.182 269.046,235.421Z" style="fill:white;"/>
            <path d="M274.305,280.105C274.305,288.344 267.616,295.033 259.377,295.033L197.483,295.033C189.244,295.033 182.555,288.344 182.555,280.105C182.555,271.866 189.244,265.177 197.483,265.177L259.377,265.177C267.616,265.177 274.305,271.866 274.305,280.105Z" style="fill:white;"/>
            <g>
                <circle cx="317.171" cy="265.28" r="27.603" style="fill:white;"/>
                <path d="M317.171,226.662C321.295,227.205 324.157,229.396 325.757,233.235C329.063,230.71 332.637,230.244 336.48,231.836C339.78,234.368 341.163,237.697 340.63,241.822C344.755,241.288 348.083,242.671 350.616,245.971C352.207,249.814 351.741,253.388 349.216,256.694C353.055,258.294 355.246,261.156 355.789,265.28C355.246,269.404 353.055,272.266 349.216,273.867C351.741,277.172 352.207,280.747 350.616,284.589C348.083,287.889 344.755,289.273 340.63,288.739C341.163,292.864 339.78,296.193 336.48,298.725C332.637,300.316 329.063,299.85 325.757,297.325C324.157,301.165 321.295,303.356 317.171,303.899C313.047,303.356 310.185,301.165 308.585,297.325C305.279,299.85 301.705,300.316 297.862,298.725C294.562,296.193 293.179,292.864 293.712,288.739C289.587,289.273 286.259,287.889 283.727,284.589C282.135,280.747 282.601,277.172 285.126,273.867C281.287,272.266 279.096,269.404 278.553,265.28C279.096,261.156 281.287,258.294 285.126,256.694C282.601,253.388 282.135,249.814 283.727,245.971C286.259,242.671 289.587,241.288 293.712,241.822C293.179,237.697 294.562,234.368 297.862,231.836C301.705,230.244 305.279,230.71 308.585,233.235C310.185,229.396 313.047,227.205 317.171,226.662ZM317.171,243.113C329.406,243.113 339.339,253.046 339.339,265.28C339.339,277.515 329.406,287.448 317.171,287.448C304.936,287.448 295.003,277.515 295.003,265.28C295.003,253.046 304.936,243.113 317.171,243.113Z" style="fill:rgb(126,211,79);"/>
                <path d="M320.733,309.721L312.777,366.793C312.412,369.417 305.031,353.025 305.031,353.025C305.031,353.025 293.395,366.767 293.761,364.143L301.716,307.071C302.082,304.447 304.509,302.613 307.133,302.979L316.641,304.305C319.265,304.67 321.098,307.097 320.733,309.721Z" style="fill:rgb(126,211,79);"/>
                <path d="M339.49,303.241L354.404,358.902C355.089,361.46 341.904,349.24 341.904,349.24C341.904,349.24 336.543,366.43 335.858,363.871L320.944,308.21C320.258,305.651 321.779,303.017 324.338,302.332L333.611,299.847C336.17,299.161 338.804,300.682 339.49,303.241Z" style="fill:rgb(126,211,79);"/>
            </g>
        </g>
    </g>
    <defs>
        <filter id="_Effect1" filterUnits="userSpaceOnUse" x="-48" y="-48" width="589.953" height="589.953">
            <feGaussianBlur in="SourceGraphic" stdDeviation="16"/>
        </filter>
    </defs>
</svg>
