<?xml version="1.0" encoding="UTF-8" standalone="no"?>
<!DOCTYPE svg PUBLIC "-//W3C//DTD SVG 1.1//EN" "http://www.w3.org/Graphics/SVG/1.1/DTD/svg11.dtd">
<svg width="100%" height="100%" viewBox="0 0 379 379" version="1.1" xmlns="http://www.w3.org/2000/svg" xmlns:xlink="http://www.w3.org/1999/xlink" xml:space="preserve" xmlns:serif="http://www.serif.com/" style="fill-rule:evenodd;clip-rule:evenodd;stroke-linejoin:round;stroke-miterlimit:0.73;">
    <g>
        <g>
            <g>
                <path d="M378.185,94.721L378.185,283.697C378.185,335.846 335.846,378.185 283.697,378.185L94.721,378.185C42.571,378.185 0.232,335.846 0.232,283.697L0.232,94.721C0.232,42.571 42.571,0.232 94.721,0.232L283.697,0.232C335.846,0.232 378.185,42.571 378.185,94.721Z" style="fill:white;stroke:white;stroke-width:0.46px;"/>
            </g>
        </g>
        <g>
            <path d="M179.841,191.551L183.338,200.138C186.988,200.02 190.641,200.304 194.229,200.985L199.012,193.043C202.686,193.952 206.263,195.215 209.693,196.814L208.428,205.999C211.648,207.723 214.669,209.795 217.436,212.179L225.55,207.692C228.277,210.316 230.743,213.199 232.914,216.299L227.226,223.621C229.153,226.723 230.734,230.028 231.938,233.477L241.208,233.648C242.257,237.284 242.952,241.013 243.282,244.783L234.695,248.28C234.813,251.931 234.529,255.583 233.847,259.172L241.79,263.955C240.881,267.629 239.618,271.206 238.018,274.636L228.833,273.371C227.11,276.591 225.038,279.612 222.654,282.379L227.141,290.493C224.516,293.22 221.634,295.686 218.534,297.857L211.212,292.169C208.109,294.096 204.804,295.676 201.356,296.88L201.185,306.15C197.549,307.2 193.82,307.895 190.049,308.224L186.552,299.637C182.902,299.755 179.249,299.471 175.661,298.79L170.878,306.733C167.204,305.823 163.627,304.56 160.197,302.961L161.462,293.776C158.242,292.053 155.221,289.98 152.454,287.596L144.34,292.083C141.613,289.459 139.147,286.577 136.976,283.476L142.664,276.154C140.737,273.052 139.157,269.747 137.952,266.299L128.682,266.128C127.633,262.491 126.938,258.762 126.608,254.992L135.195,251.495C135.077,247.844 135.362,244.192 136.043,240.604L128.1,235.82C129.009,232.147 130.272,228.57 131.872,225.14L141.057,226.405C142.78,223.184 144.852,220.163 147.236,217.396L142.75,209.283C145.374,206.556 148.256,204.089 151.356,201.919L158.678,207.607C161.781,205.679 165.086,204.099 168.534,202.895L168.705,193.625C172.341,192.575 176.071,191.881 179.841,191.551ZM180.275,224.815C194.113,222.238 207.44,231.38 210.017,245.218C212.595,259.056 203.453,272.383 189.615,274.96C175.777,277.537 162.45,268.395 159.873,254.557C157.296,240.72 166.438,227.393 180.275,224.815Z" style="fill:rgb(1,54,123);"/>
            <path d="M248.533,78.308L252.662,87.967C256.795,87.762 260.938,88.013 265.016,88.714L270.28,79.623C274.459,80.581 278.536,81.942 282.453,83.687L281.199,94.116C284.881,96.005 288.344,98.294 291.525,100.941L300.628,95.699C303.769,98.619 306.619,101.836 309.139,105.305L302.838,113.711C305.082,117.187 306.937,120.901 308.368,124.783L318.873,124.796C320.133,128.894 320.993,133.105 321.44,137.37L311.781,141.499C311.986,145.632 311.736,149.775 311.034,153.853L320.125,159.117C319.167,163.296 317.806,167.373 316.061,171.29L305.632,170.036C303.743,173.718 301.454,177.181 298.807,180.362L304.049,189.465C301.13,192.606 297.913,195.456 294.443,197.976L286.038,191.675C282.561,193.919 278.847,195.774 274.965,197.205L274.952,207.71C270.854,208.97 266.643,209.83 262.378,210.277L258.249,200.618C254.116,200.823 249.973,200.573 245.895,199.871L240.631,208.962C236.452,208.004 232.375,206.643 228.458,204.898L229.712,194.469C226.03,192.58 222.567,190.291 219.386,187.644L210.283,192.886C207.142,189.967 204.292,186.75 201.772,183.28L208.073,174.875C205.829,171.398 203.974,167.684 202.543,163.802L192.038,163.789C190.778,159.691 189.918,155.48 189.471,151.215L199.13,147.086C198.925,142.953 199.176,138.81 199.877,134.732L190.786,129.468C191.744,125.289 193.105,121.212 194.85,117.295L205.279,118.549C207.168,114.867 209.457,111.404 212.104,108.223L206.862,99.12C209.782,95.979 212.999,93.129 216.468,90.609L224.874,96.91C228.35,94.666 232.064,92.811 235.946,91.38L235.959,80.875C240.057,79.615 244.268,78.755 248.533,78.308ZM249.676,115.982C265.301,112.792 280.576,122.887 283.766,138.513C286.956,154.138 276.861,169.413 261.236,172.603C245.61,175.793 230.335,165.698 227.145,150.073C223.955,134.447 234.05,119.172 249.676,115.982Z" style="fill:rgb(126,211,79);"/>
            <path d="M133.165,70.519L135.378,81.293C139.661,81.948 143.859,83.073 147.896,84.647L155.199,76.423C159.286,78.281 163.184,80.531 166.836,83.142L163.366,93.579C166.747,96.288 169.821,99.361 172.53,102.742L182.967,99.272C185.577,102.925 187.827,106.822 189.685,110.909L181.461,118.213C183.035,122.25 184.16,126.447 184.815,130.73L195.59,132.943C196.024,137.412 196.024,141.912 195.59,146.381L184.815,148.594C184.16,152.877 183.035,157.075 181.461,161.112L189.685,168.415C187.827,172.502 185.577,176.399 182.967,180.052L172.53,176.582C169.821,179.963 166.747,183.036 163.366,185.745L166.836,196.183C163.184,198.793 159.286,201.043 155.199,202.901L147.896,194.677C143.859,196.251 139.661,197.376 135.378,198.031L133.165,208.805C128.696,209.24 124.196,209.24 119.728,208.805L117.515,198.031C113.232,197.376 109.034,196.251 104.997,194.677L97.693,202.901C93.606,201.043 89.709,198.793 86.056,196.183L89.527,185.745C86.145,183.036 83.072,179.963 80.363,176.582L69.926,180.052C67.316,176.399 65.065,172.502 63.207,168.415L71.431,161.112C69.857,157.075 68.733,152.877 68.077,148.594L57.303,146.381C56.869,141.912 56.869,137.412 57.303,132.943L68.077,130.73C68.733,126.447 69.857,122.25 71.431,118.213L63.207,110.909C65.065,106.822 67.316,102.925 69.926,99.272L80.363,102.742C83.072,99.361 86.145,96.288 89.527,93.579L86.056,83.142C89.709,80.531 93.606,78.281 97.693,76.423L104.997,84.647C109.034,83.073 113.232,81.948 117.515,81.293L119.728,70.519C124.196,70.085 128.696,70.085 133.165,70.519ZM126.446,109.408C143.144,109.408 156.701,122.964 156.701,139.662C156.701,156.36 143.144,169.917 126.446,169.917C109.748,169.917 96.192,156.36 96.192,139.662C96.192,122.964 109.748,109.408 126.446,109.408Z" style="fill:rgb(1,54,123);"/>
            <circle cx="126.446" cy="139.662" r="12.022" style="fill:rgb(126,211,79);"/>
            <circle cx="184.945" cy="249.888" r="7.169" style="fill:rgb(126,211,79);"/>
            <circle cx="255.456" cy="144.293" r="11.766" style="fill:rgb(1,54,123);"/>
        </g>
    </g>
</svg>
