<?xml version="1.0" encoding="UTF-8" standalone="no"?>
<!DOCTYPE svg PUBLIC "-//W3C//DTD SVG 1.1//EN" "http://www.w3.org/Graphics/SVG/1.1/DTD/svg11.dtd">
<svg width="100%" height="100%" viewBox="0 0 379 379" version="1.1" xmlns="http://www.w3.org/2000/svg" xmlns:xlink="http://www.w3.org/1999/xlink" xml:space="preserve" xmlns:serif="http://www.serif.com/" style="fill-rule:evenodd;clip-rule:evenodd;stroke-linejoin:round;stroke-miterlimit:0.73;">
    <g>
        <g>
            <path d="M378.185,94.721L378.185,283.697C378.185,335.846 335.846,378.185 283.697,378.185L94.721,378.185C42.571,378.185 0.232,335.846 0.232,283.697L0.232,94.721C0.232,42.571 42.571,0.232 94.721,0.232L283.697,0.232C335.846,0.232 378.185,42.571 378.185,94.721Z" style="fill:white;stroke:white;stroke-width:0.46px;"/>
        </g>
        <g>
            <path d="M212.663,262.659C212.663,266.008 209.945,268.726 206.596,268.726L171.383,268.726C168.034,268.726 165.316,266.008 165.316,262.659C165.316,259.31 168.034,256.591 171.383,256.591L206.596,256.591C209.945,256.591 212.663,259.31 212.663,262.659Z" style="fill:rgb(1,55,125);"/>
            <path d="M173.714,291.438C173.714,288.089 176.433,285.371 179.782,285.371L214.994,285.371C218.343,285.371 221.062,288.089 221.062,291.438C221.062,294.787 218.343,297.506 214.994,297.506L179.782,297.506C176.433,297.506 173.714,294.787 173.714,291.438Z" style="fill:rgb(1,55,125);"/>
            <path d="M195.01,248.916C195.01,247.387 195.931,246.009 197.344,245.424C198.756,244.839 200.382,245.162 201.463,246.243C206.238,251.02 212.714,257.499 217.488,262.275C218.569,263.356 218.892,264.981 218.307,266.394C217.722,267.806 216.344,268.726 214.815,268.726L198.79,268.726C196.702,268.726 195.01,267.034 195.01,264.947C195.01,260.899 195.01,254.327 195.01,248.916Z" style="fill:rgb(124,210,76);"/>
            <path d="M191.367,305.181C191.367,306.71 190.446,308.088 189.034,308.673C187.621,309.258 185.996,308.935 184.915,307.854C180.14,303.077 173.663,296.598 168.889,291.822C167.808,290.741 167.485,289.116 168.07,287.703C168.655,286.291 170.033,285.371 171.562,285.371L187.588,285.371C189.675,285.371 191.367,287.063 191.367,289.15C191.367,293.198 191.367,299.77 191.367,305.181Z" style="fill:rgb(124,210,76);"/>
            <g>
                <path d="M292.415,232.25C303.487,232.25 325.632,232.25 336.705,245.932C347.778,259.613 347.778,286.976 336.705,314.338C333.524,322.759 328.293,331.18 322.082,339.129C314.941,348.251 304,353.581 292.415,353.581C280.83,353.581 269.889,348.251 262.748,339.129C256.537,331.18 251.306,322.759 248.125,314.338C237.053,286.976 237.053,259.613 248.125,245.932C259.198,232.25 281.343,232.25 292.415,232.25Z" style="fill:rgb(1,55,125);"/>
                <path d="M292.415,258.21C293.831,258.21 296.662,258.21 298.078,259.959C299.493,261.708 299.493,265.207 298.078,268.705C298.077,268.706 298.077,268.707 298.076,268.709C297.186,271.063 294.932,272.621 292.415,272.621C289.898,272.621 287.644,271.063 286.754,268.709C286.753,268.707 286.753,268.706 286.753,268.705C285.337,265.207 285.337,261.708 286.753,259.959C288.168,258.21 290.999,258.21 292.415,258.21Z" style="fill:white;"/>
                <ellipse cx="292.415" cy="277.593" rx="1.42" ry="1.444" style="fill:white;"/>
                <path d="M292.415,190.56C298.622,190.56 311.035,190.56 317.242,198.229C323.449,205.898 323.449,221.237 317.242,236.575C317.242,236.577 317.241,236.578 317.241,236.579C313.34,246.906 303.454,253.739 292.415,253.739C281.376,253.739 271.49,246.906 267.589,236.579C267.589,236.578 267.588,236.577 267.588,236.575C261.381,221.237 261.381,205.898 267.588,198.229C273.795,190.56 286.208,190.56 292.415,190.56Z" style="fill:rgb(124,210,76);"/>
            </g>
            <g>
                <path d="M92.144,232.25C103.217,232.25 125.361,232.25 136.434,245.932C147.507,259.613 147.507,286.976 136.434,314.338C133.254,322.759 128.022,331.18 121.811,339.129C114.67,348.251 103.729,353.581 92.144,353.581C80.559,353.581 69.618,348.251 62.477,339.129C56.266,331.18 51.035,322.759 47.854,314.338C36.782,286.976 36.782,259.613 47.854,245.932C58.927,232.25 81.072,232.25 92.144,232.25Z" style="fill:rgb(1,55,125);"/>
                <path d="M92.144,258.21C93.56,258.21 96.391,258.21 97.807,259.959C99.222,261.708 99.222,265.207 97.807,268.705C97.806,268.706 97.806,268.707 97.805,268.709C96.915,271.063 94.661,272.621 92.144,272.621C89.627,272.621 87.373,271.063 86.483,268.709C86.483,268.707 86.482,268.706 86.482,268.705C85.066,265.207 85.066,261.708 86.482,259.959C87.897,258.21 90.729,258.21 92.144,258.21Z" style="fill:white;"/>
                <ellipse cx="92.144" cy="277.593" rx="1.42" ry="1.444" style="fill:white;"/>
                <path d="M92.144,190.56C98.351,190.56 110.764,190.56 116.971,198.229C123.178,205.898 123.178,221.237 116.971,236.575C116.971,236.577 116.97,236.578 116.97,236.579C113.069,246.906 103.183,253.739 92.144,253.739C81.105,253.739 71.219,246.906 67.318,236.579C67.318,236.578 67.318,236.577 67.317,236.575C61.11,221.237 61.11,205.898 67.317,198.229C73.524,190.56 85.937,190.56 92.144,190.56Z" style="fill:rgb(124,210,76);"/>
            </g>
            <path d="M152.155,127.083C155.431,143.976 144.376,160.35 127.483,163.626C110.59,166.902 94.216,155.847 90.94,138.954C89.703,132.574 89.052,125.984 89.052,119.244C89.052,62.271 135.307,16.016 192.28,16.016C249.253,16.016 295.507,62.271 295.507,119.244C295.507,125.984 294.857,132.574 293.619,138.954C290.343,155.847 273.969,166.902 257.076,163.626C240.184,160.35 229.129,143.976 232.404,127.083C232.897,124.546 233.152,121.925 233.152,119.244C233.152,96.686 214.838,78.372 192.28,78.372C169.722,78.372 151.407,96.686 151.407,119.244C151.407,121.925 151.663,124.546 152.155,127.083Z" style="fill:rgb(124,210,76);"/>
            <circle cx="192.28" cy="119.244" r="72.05" style="fill:rgb(1,55,125);"/>
            <path d="M183.271,130.505L183.268,130.505C183.268,128.227 183.457,129.276 171.296,104.955C168.812,99.988 161.698,99.978 159.209,104.955C146.946,129.484 147.239,128.299 147.239,130.505L147.236,130.505C147.236,136.724 155.303,141.766 165.253,141.766C175.204,141.766 183.271,136.724 183.271,130.505ZM165.253,107.983L175.388,128.253L155.119,128.253L165.253,107.983ZM237.321,130.505C237.321,128.227 237.509,129.276 225.349,104.955C222.864,99.988 215.75,99.978 213.262,104.955C200.998,129.484 201.291,128.299 201.291,130.505L201.288,130.505C201.288,136.724 209.355,141.766 219.306,141.766C229.256,141.766 237.323,136.724 237.323,130.505L237.321,130.505ZM209.171,128.253L219.306,107.983L229.441,128.253L209.171,128.253ZM221.558,146.27L196.784,146.27L196.784,104.781C200.093,103.332 202.578,100.35 203.314,96.722L221.558,96.722C222.802,96.722 223.81,95.714 223.81,94.47L223.81,89.966C223.81,88.721 222.802,87.713 221.558,87.713L201.238,87.713C199.183,84.994 195.952,83.209 192.28,83.209C188.607,83.209 185.377,84.994 183.322,87.713L163.001,87.713C161.757,87.713 160.749,88.721 160.749,89.966L160.749,94.47C160.749,95.714 161.757,96.722 163.001,96.722L181.245,96.722C181.982,100.348 184.465,103.332 187.775,104.781L187.775,146.27L163.001,146.27C161.757,146.27 160.749,147.278 160.749,148.522L160.749,153.027C160.749,154.271 161.757,155.279 163.001,155.279L221.558,155.279C222.802,155.279 223.81,154.271 223.81,153.027L223.81,148.522C223.81,147.278 222.802,146.27 221.558,146.27Z" style="fill:white;fill-rule:nonzero;"/>
        </g>
    </g>
</svg>
