<?xml version="1.0" encoding="UTF-8" standalone="no"?>
<!DOCTYPE svg PUBLIC "-//W3C//DTD SVG 1.1//EN" "http://www.w3.org/Graphics/SVG/1.1/DTD/svg11.dtd">
<svg width="100%" height="100%" viewBox="0 0 379 379" version="1.1" xmlns="http://www.w3.org/2000/svg" xmlns:xlink="http://www.w3.org/1999/xlink" xml:space="preserve" xmlns:serif="http://www.serif.com/" style="fill-rule:evenodd;clip-rule:evenodd;stroke-linejoin:round;stroke-miterlimit:0.73;">
    <g>
        <g>
            <g>
                <path d="M378.185,94.721L378.185,283.697C378.185,335.846 335.846,378.185 283.697,378.185L94.721,378.185C42.571,378.185 0.232,335.846 0.232,283.697L0.232,94.721C0.232,42.571 42.571,0.232 94.721,0.232L283.697,0.232C335.846,0.232 378.185,42.571 378.185,94.721Z" style="fill:white;stroke:white;stroke-width:0.46px;"/>
            </g>
        </g>
        <g>
            <path d="M191.738,252.519C201.884,250.976 210.623,240.256 215.479,224.902L191.738,224.902L191.738,252.519Z" style="fill:rgb(125,210,78);fill-rule:nonzero;"/>
            <path d="M220.801,224.902C218.365,234.221 213.624,242.779 207.016,249.787C219.805,245.435 230.593,236.59 237.369,224.902L220.801,224.902Z" style="fill:rgb(125,210,78);fill-rule:nonzero;"/>
            <path d="M244.793,199.608L224.585,199.608C224.449,206.419 223.625,213.199 222.124,219.844L239.966,219.844C242.842,213.465 244.48,206.598 244.793,199.608Z" style="fill:rgb(125,210,78);fill-rule:nonzero;"/>
            <path d="M191.738,219.844L216.896,219.844C218.497,213.213 219.379,206.428 219.526,199.608L191.738,199.608L191.738,219.844Z" style="fill:rgb(125,210,78);fill-rule:nonzero;"/>
            <path d="M191.738,141.64L191.738,169.256L215.479,169.256C210.623,153.902 201.884,143.182 191.738,141.64Z" style="fill:rgb(125,210,78);fill-rule:nonzero;"/>
            <path d="M239.966,174.314L222.124,174.314C223.625,180.959 224.449,187.739 224.585,194.55L244.793,194.55C244.48,187.56 242.842,180.693 239.966,174.314Z" style="fill:rgb(125,210,78);fill-rule:nonzero;"/>
            <path d="M237.369,169.256C230.593,157.568 219.805,148.723 207.016,144.371C213.624,151.379 218.365,159.937 220.801,169.256L237.369,169.256Z" style="fill:rgb(125,210,78);fill-rule:nonzero;"/>
            <path d="M191.738,194.55L219.526,194.55C219.379,187.73 218.497,180.945 216.896,174.314L191.738,174.314L191.738,194.55Z" style="fill:rgb(125,210,78);fill-rule:nonzero;"/>
            <path d="M186.679,252.519L186.679,224.902L162.938,224.902C167.795,240.256 176.534,250.976 186.679,252.519Z" style="fill:rgb(125,210,78);fill-rule:nonzero;"/>
            <path d="M186.679,199.608L158.891,199.608C159.039,206.428 159.921,213.213 161.522,219.844L186.679,219.844L186.679,199.608Z" style="fill:rgb(125,210,78);fill-rule:nonzero;"/>
            <path d="M186.679,174.314L161.522,174.314C159.921,180.945 159.039,187.73 158.891,194.55L186.679,194.55L186.679,174.314Z" style="fill:rgb(125,210,78);fill-rule:nonzero;"/>
            <path d="M186.679,141.64C176.534,143.182 167.795,153.902 162.938,169.256L186.679,169.256L186.679,141.64Z" style="fill:rgb(125,210,78);fill-rule:nonzero;"/>
            <path d="M133.625,194.55L153.833,194.55C153.968,187.739 154.793,180.959 156.294,174.314L138.451,174.314C135.575,180.693 133.938,187.56 133.625,194.55Z" style="fill:rgb(125,210,78);fill-rule:nonzero;"/>
            <path d="M171.402,249.787C164.794,242.779 160.053,234.221 157.617,224.902L141.049,224.902C147.824,236.59 158.612,245.435 171.402,249.787Z" style="fill:rgb(125,210,78);fill-rule:nonzero;"/>
            <path d="M171.402,144.371C158.612,148.723 147.824,157.568 141.049,169.256L157.617,169.256C160.053,159.937 164.794,151.379 171.402,144.371Z" style="fill:rgb(125,210,78);fill-rule:nonzero;"/>
            <path d="M138.451,219.844L156.294,219.844C154.793,213.199 153.968,206.419 153.833,199.608L133.625,199.608C133.938,206.598 135.575,213.465 138.451,219.844Z" style="fill:rgb(125,210,78);fill-rule:nonzero;"/>
            <path d="M200.653,79.932L204.422,98.284C211.717,99.4 218.868,101.316 225.744,103.997L238.184,89.989C245.145,93.154 251.783,96.986 258.005,101.432L252.094,119.21C257.854,123.824 263.088,129.059 267.702,134.818L285.48,128.907C289.926,135.129 293.759,141.767 296.924,148.729L282.916,161.169C285.597,168.045 287.513,175.195 288.629,182.49L306.98,186.26C307.72,193.871 307.72,201.536 306.98,209.148L288.629,212.917C287.513,220.212 285.597,227.363 282.916,234.239L296.924,246.679C293.759,253.64 289.926,260.278 285.48,266.5L267.702,260.589C263.088,266.349 257.854,271.583 252.094,276.197L258.005,293.975C251.783,298.421 245.145,302.254 238.184,305.419L225.744,291.411C218.868,294.092 211.717,296.007 204.422,297.124L200.653,315.475C193.041,316.215 185.376,316.215 177.765,315.475L173.995,297.124C166.7,296.007 159.55,294.092 152.674,291.411L140.234,305.419C133.272,302.254 126.634,298.421 120.412,293.975L126.324,276.197C120.564,271.583 115.33,266.349 110.715,260.589L92.938,266.5C88.491,260.278 84.659,253.64 81.494,246.679L95.502,234.239C92.821,227.363 90.905,220.212 89.789,212.917L71.437,209.148C70.698,201.536 70.698,193.871 71.437,186.26L89.789,182.49C90.905,175.195 92.821,168.045 95.502,161.169L81.494,148.729C84.659,141.767 88.491,135.129 92.938,128.907L110.715,134.818C115.33,129.059 120.564,123.824 126.324,119.21L120.412,101.432C126.634,96.986 133.272,93.154 140.234,89.989L152.674,103.997C159.55,101.316 166.7,99.4 173.995,98.284L177.765,79.932C185.376,79.193 193.041,79.193 200.653,79.932ZM189.209,118.927C232.687,118.927 267.985,154.226 267.985,197.704C267.985,241.181 232.687,276.48 189.209,276.48C145.731,276.48 110.433,241.181 110.433,197.704C110.433,154.226 145.731,118.927 189.209,118.927Z" style="fill:rgb(1,54,123);"/>
            <circle cx="242.155" cy="104.576" r="42.188" style="fill:none;stroke:white;stroke-width:9.91px;stroke-linecap:round;stroke-miterlimit:0.348837;"/>
            <circle cx="242.155" cy="104.576" r="42.188" style="fill:rgb(126,211,79);"/>
            <path d="M245.904,81.984C246.9,80.7 248.434,79.948 250.059,79.948C251.684,79.948 253.218,80.7 254.214,81.984C256.386,84.787 259.096,88.283 261.545,91.443C262.774,93.028 262.993,95.175 262.11,96.977C261.227,98.778 259.396,99.92 257.39,99.92C252.761,99.92 247.357,99.92 242.729,99.92C240.722,99.92 238.891,98.778 238.008,96.977C237.125,95.175 237.345,93.028 238.573,91.443C241.022,88.283 243.732,84.787 245.904,81.984Z" style="fill:rgb(254,254,254);"/>
            <path d="M230.585,124.608C231.58,125.893 233.114,126.645 234.74,126.645C236.365,126.645 237.899,125.893 238.895,124.608C241.067,121.806 243.777,118.309 246.225,115.15C247.454,113.565 247.674,111.418 246.791,109.616C245.908,107.815 244.076,106.673 242.07,106.673C237.441,106.673 232.038,106.673 227.409,106.673C225.403,106.673 223.572,107.815 222.689,109.616C221.806,111.418 222.025,113.565 223.254,115.15C225.703,118.309 228.412,121.806 230.585,124.608Z" style="fill:rgb(1,54,124);"/>
        </g>
    </g>
</svg>
