<?xml version="1.0" encoding="UTF-8" standalone="no"?>
<!DOCTYPE svg PUBLIC "-//W3C//DTD SVG 1.1//EN" "http://www.w3.org/Graphics/SVG/1.1/DTD/svg11.dtd">
<svg width="100%" height="100%" viewBox="0 0 379 379" version="1.1" xmlns="http://www.w3.org/2000/svg" xmlns:xlink="http://www.w3.org/1999/xlink" xml:space="preserve" xmlns:serif="http://www.serif.com/" style="fill-rule:evenodd;clip-rule:evenodd;stroke-linejoin:round;stroke-miterlimit:0.73;">
    <g>
        <g>
            <path d="M378.185,94.721L378.185,283.697C378.185,335.846 335.846,378.185 283.697,378.185L94.721,378.185C42.571,378.185 0.232,335.846 0.232,283.697L0.232,94.721C0.232,42.571 42.571,0.232 94.721,0.232L283.697,0.232C335.846,0.232 378.185,42.571 378.185,94.721Z" style="fill:white;stroke:white;stroke-width:0.46px;"/>
        </g>
        <g>
            <path d="M192.275,267.773C205.519,265.759 216.927,251.765 223.267,231.722L192.275,231.722L192.275,267.773Z" style="fill:rgb(125,210,78);fill-rule:nonzero;"/>
            <path d="M230.215,231.722C227.035,243.887 220.845,255.059 212.219,264.207C228.915,258.525 242.998,246.979 251.843,231.722L230.215,231.722Z" style="fill:rgb(125,210,78);fill-rule:nonzero;"/>
            <path d="M261.534,198.702L235.154,198.702C234.977,207.593 233.901,216.443 231.942,225.118L255.234,225.118C258.988,216.791 261.126,207.826 261.534,198.702Z" style="fill:rgb(125,210,78);fill-rule:nonzero;"/>
            <path d="M192.275,225.118L225.116,225.118C227.207,216.461 228.358,207.605 228.55,198.702L192.275,198.702L192.275,225.118Z" style="fill:rgb(125,210,78);fill-rule:nonzero;"/>
            <path d="M192.275,123.026L192.275,159.078L223.267,159.078C216.927,139.034 205.519,125.04 192.275,123.026Z" style="fill:rgb(125,210,78);fill-rule:nonzero;"/>
            <path d="M255.234,165.682L231.942,165.682C233.901,174.356 234.977,183.206 235.154,192.098L261.534,192.098C261.126,182.973 258.988,174.008 255.234,165.682Z" style="fill:rgb(125,210,78);fill-rule:nonzero;"/>
            <path d="M251.843,159.078C242.998,143.82 228.915,132.274 212.219,126.592C220.845,135.74 227.035,146.912 230.215,159.078L251.843,159.078Z" style="fill:rgb(125,210,78);fill-rule:nonzero;"/>
            <path d="M192.275,192.098L228.55,192.098C228.358,183.194 227.207,174.338 225.116,165.682L192.275,165.682L192.275,192.098Z" style="fill:rgb(125,210,78);fill-rule:nonzero;"/>
            <path d="M185.671,267.773L185.671,231.722L154.678,231.722C161.018,251.765 172.426,265.759 185.671,267.773Z" style="fill:rgb(125,210,78);fill-rule:nonzero;"/>
            <path d="M185.671,198.702L149.395,198.702C149.587,207.605 150.739,216.461 152.829,225.118L185.671,225.118L185.671,198.702Z" style="fill:rgb(125,210,78);fill-rule:nonzero;"/>
            <path d="M185.671,165.682L152.829,165.682C150.739,174.338 149.587,183.194 149.395,192.098L185.671,192.098L185.671,165.682Z" style="fill:rgb(125,210,78);fill-rule:nonzero;"/>
            <path d="M185.671,123.026C172.426,125.04 161.018,139.034 154.678,159.078L185.671,159.078L185.671,123.026Z" style="fill:rgb(125,210,78);fill-rule:nonzero;"/>
            <path d="M116.411,192.098L142.791,192.098C142.968,183.206 144.045,174.356 146.004,165.682L122.711,165.682C118.957,174.008 116.819,182.973 116.411,192.098Z" style="fill:rgb(125,210,78);fill-rule:nonzero;"/>
            <path d="M165.726,264.207C157.1,255.059 150.911,243.887 147.731,231.722L126.102,231.722C134.947,246.979 149.031,258.525 165.726,264.207Z" style="fill:rgb(125,210,78);fill-rule:nonzero;"/>
            <path d="M165.726,126.592C149.031,132.274 134.947,143.82 126.102,159.078L147.731,159.078C150.911,146.912 157.1,135.74 165.726,126.592Z" style="fill:rgb(125,210,78);fill-rule:nonzero;"/>
            <path d="M122.711,225.118L146.004,225.118C144.045,216.443 142.968,207.593 142.791,198.702L116.411,198.702C116.819,207.826 118.957,216.791 122.711,225.118Z" style="fill:rgb(125,210,78);fill-rule:nonzero;"/>
            <path d="M203.912,42.471L208.833,66.427C218.356,67.885 227.691,70.386 236.667,73.886L252.907,55.599C261.995,59.731 270.661,64.734 278.783,70.538L271.066,93.746C278.585,99.77 285.418,106.603 291.442,114.122L314.65,106.405C320.454,114.527 325.457,123.193 329.589,132.281L311.302,148.521C314.802,157.497 317.303,166.831 318.76,176.355L342.717,181.276C343.683,191.212 343.683,201.218 342.717,211.154L318.76,216.075C317.303,225.599 314.802,234.933 311.302,243.909L329.589,260.15C325.457,269.237 320.454,277.903 314.65,286.025L291.442,278.308C285.418,285.827 278.585,292.66 271.066,298.684L278.783,321.892C270.661,327.696 261.995,332.7 252.907,336.831L236.667,318.545C227.691,322.044 218.356,324.545 208.833,326.003L203.912,349.96C193.976,350.925 183.969,350.925 174.033,349.96L169.112,326.003C159.589,324.545 150.255,322.044 141.278,318.545L125.038,336.831C115.95,332.7 107.285,327.696 99.162,321.892L106.879,298.684C99.36,292.66 92.527,285.827 86.503,278.308L63.296,286.025C57.491,277.903 52.488,269.237 48.356,260.15L66.643,243.909C63.143,234.933 60.642,225.599 59.185,216.075L35.228,211.154C34.263,201.218 34.263,191.212 35.228,181.276L59.185,176.355C60.642,166.831 63.143,157.497 66.643,148.521L48.356,132.281C52.488,123.193 57.491,114.527 63.296,106.405L86.503,114.122C92.527,106.603 99.36,99.77 106.879,93.746L99.162,70.538C107.285,64.734 115.95,59.731 125.038,55.599L141.278,73.886C150.255,70.386 159.589,67.885 169.112,66.427L174.033,42.471C183.969,41.505 193.976,41.505 203.912,42.471ZM188.973,93.377C245.731,93.377 291.811,139.457 291.811,196.215C291.811,252.973 245.731,299.053 188.973,299.053C132.215,299.053 86.134,252.973 86.134,196.215C86.134,139.457 132.215,93.377 188.973,93.377Z" style="fill:rgb(1,54,123);"/>
            <circle cx="258.091" cy="74.641" r="55.074" style="fill:none;stroke:white;stroke-width:12.94px;stroke-linecap:round;stroke-miterlimit:0.348837;"/>
            <circle cx="258.091" cy="74.641" r="55.074" style="fill:rgb(126,211,79);"/>
            <path d="M264.254,43.512C265.25,42.227 266.784,41.476 268.409,41.476C270.035,41.476 271.569,42.227 272.564,43.512C276.118,48.097 281.295,54.777 285.41,60.086C286.639,61.672 286.858,63.819 285.975,65.62C285.092,67.422 283.261,68.563 281.255,68.563C273.566,68.563 263.252,68.563 255.564,68.563C253.558,68.563 251.726,67.422 250.843,65.62C249.96,63.819 250.18,61.672 251.409,60.086C255.523,54.777 260.701,48.097 264.254,43.512Z" style="fill:rgb(254,254,254);"/>
            <path d="M244.256,102.43C245.251,103.715 246.785,104.467 248.411,104.467C250.036,104.467 251.57,103.715 252.566,102.43C256.119,97.845 261.297,91.166 265.411,85.856C266.64,84.271 266.86,82.124 265.977,80.322C265.094,78.521 263.263,77.379 261.256,77.379C253.568,77.379 243.254,77.379 235.565,77.379C233.559,77.379 231.728,78.521 230.845,80.322C229.962,82.124 230.181,84.271 231.41,85.856C235.525,91.166 240.702,97.845 244.256,102.43Z" style="fill:rgb(1,54,124);"/>
        </g>
    </g>
</svg>
