<?xml version="1.0" encoding="UTF-8" standalone="no"?>
<!DOCTYPE svg PUBLIC "-//W3C//DTD SVG 1.1//EN" "http://www.w3.org/Graphics/SVG/1.1/DTD/svg11.dtd">
<svg width="100%" height="100%" viewBox="0 0 379 379" version="1.1" xmlns="http://www.w3.org/2000/svg" xmlns:xlink="http://www.w3.org/1999/xlink" xml:space="preserve" xmlns:serif="http://www.serif.com/" style="fill-rule:evenodd;clip-rule:evenodd;stroke-linejoin:round;stroke-miterlimit:0.73;">
    <g>
        <g>
            <path d="M378.185,94.721L378.185,283.697C378.185,335.846 335.846,378.185 283.697,378.185L94.721,378.185C42.571,378.185 0.232,335.846 0.232,283.697L0.232,94.721C0.232,42.571 42.571,0.232 94.721,0.232L283.697,0.232C335.846,0.232 378.185,42.571 378.185,94.721Z" style="fill:white;stroke:white;stroke-width:0.46px;"/>
        </g>
        <g>
            <path d="M76.482,48.951L76.482,329.467C76.482,332.982 73.628,335.836 70.112,335.836L57.373,335.836C53.858,335.836 51.003,332.982 51.003,329.467L51.003,48.951C51.003,45.436 53.858,42.581 57.373,42.581L70.112,42.581C73.628,42.581 76.482,45.436 76.482,48.951Z" style="fill:rgb(126,211,79);"/>
            <path d="M332.744,335.836L57.484,335.836C53.907,335.836 51.003,332.932 51.003,329.355L51.003,316.394C51.003,312.817 53.907,309.913 57.484,309.913L332.744,309.913C336.321,309.913 339.225,312.817 339.225,316.394L339.225,329.355C339.225,332.932 336.321,335.836 332.744,335.836Z" style="fill:rgb(126,211,79);"/>
            <path d="M148.353,138.172L148.353,276.841C148.353,283.116 143.258,288.21 136.983,288.21L114.244,288.21C107.969,288.21 102.874,283.116 102.874,276.841L102.874,138.172C102.874,131.897 107.969,126.802 114.244,126.802L136.983,126.802C143.258,126.802 148.353,131.897 148.353,138.172Z" style="fill:rgb(1,54,124);"/>
            <path d="M223.07,167.159L223.07,276.841C223.07,283.116 217.975,288.21 211.7,288.21L188.961,288.21C182.686,288.21 177.591,283.116 177.591,276.841L177.591,167.159C177.591,160.884 182.686,155.79 188.961,155.79L211.7,155.79C217.975,155.79 223.07,160.884 223.07,167.159Z" style="fill:rgb(1,54,124);"/>
            <path d="M293.589,208.817L293.589,276.841C293.589,283.116 288.495,288.21 282.22,288.21L259.48,288.21C253.205,288.21 248.111,283.116 248.111,276.841L248.111,208.817C248.111,202.542 253.205,197.447 259.48,197.447L282.22,197.447C288.495,197.447 293.589,202.542 293.589,208.817Z" style="fill:rgb(1,54,124);"/>
            <g>
                <ellipse cx="270.85" cy="132.642" rx="35.26" ry="35.875" style="fill:rgb(126,211,79);"/>
                <path d="M266.094,115.221C265.988,113.894 266.442,112.583 267.345,111.606C268.248,110.628 269.519,110.072 270.85,110.072L270.85,110.072C272.181,110.072 273.452,110.628 274.355,111.606C275.258,112.583 275.712,113.894 275.606,115.221C275.057,122.131 274.1,134.169 273.663,139.668C273.533,141.299 272.171,142.556 270.535,142.556C270.478,142.556 270.422,142.556 270.366,142.556C269.181,142.556 268.195,141.646 268.101,140.464C267.7,135.424 266.671,122.487 266.094,115.221Z" style="fill:white;"/>
                <ellipse cx="270.85" cy="151.624" rx="3.91" ry="3.978" style="fill:rgb(254,254,254);"/>
            </g>
        </g>
    </g>
</svg>
