<?xml version="1.0" encoding="UTF-8" standalone="no"?>
<!DOCTYPE svg PUBLIC "-//W3C//DTD SVG 1.1//EN" "http://www.w3.org/Graphics/SVG/1.1/DTD/svg11.dtd">
<svg width="100%" height="100%" viewBox="0 0 494 494" version="1.1" xmlns="http://www.w3.org/2000/svg" xmlns:xlink="http://www.w3.org/1999/xlink" xml:space="preserve" xmlns:serif="http://www.serif.com/" style="fill-rule:evenodd;clip-rule:evenodd;stroke-linejoin:round;stroke-miterlimit:0.73;">
    <g>
        <g style="filter:url(#_Effect1);">
            <path d="M435.953,152.488L435.953,341.465C435.953,393.614 393.614,435.953 341.465,435.953L152.488,435.953C100.339,435.953 58,393.614 58,341.465L58,152.488C58,100.339 100.339,58 152.488,58L341.465,58C393.614,58 435.953,100.339 435.953,152.488Z" style="fill:none;stroke:rgb(1,55,125);stroke-opacity:0.2;stroke-width:20px;"/>
        </g>
        <path d="M433.569,154.407L433.569,343.383C433.569,395.532 391.23,437.871 339.081,437.871L150.105,437.871C97.955,437.871 55.616,395.532 55.616,343.383L55.616,154.407C55.616,102.257 97.955,59.918 150.105,59.918L339.081,59.918C391.23,59.918 433.569,102.257 433.569,154.407Z" style="fill:white;stroke:white;stroke-width:0.46px;"/>
        <g>
            <path d="M339.314,183.278L339.314,320.612C339.314,346.903 317.969,368.248 291.678,368.248L196.407,368.248C170.116,368.248 148.771,346.903 148.771,320.612L148.771,183.278C148.771,156.987 170.116,135.642 196.407,135.642L291.678,135.642C317.969,135.642 339.314,156.987 339.314,183.278Z" style="fill:rgb(1,54,124);"/>
            <g>
                <path d="M353.389,181.572L361.248,167.273C364.633,161.115 372.66,159.317 379.162,163.261C385.665,167.205 388.196,175.406 384.812,181.564L376.953,195.863L353.389,181.572Z" style="fill:rgb(1,54,124);"/>
                <path d="M304.928,269.766L304.928,269.748L304.934,269.752L304.928,269.766ZM328.484,284.035L328.491,284.039L328.477,284.048L328.484,284.035Z" style="fill:rgb(124,210,76);"/>
                <path d="M355.712,177.346L379.276,191.637L376.953,195.863L353.389,181.572L355.712,177.346Z" style="fill:rgb(254,254,254);"/>
                <path d="M328.7,283.659C328.639,283.77 310.373,295.047 305.862,297.831C305.661,297.958 305.407,297.965 305.201,297.848C304.994,297.732 304.868,297.512 304.872,297.275C304.911,291.854 305.075,269.479 305.137,269.368L353.389,181.572L376.953,195.863L328.7,283.659Z" style="fill:rgb(126,211,79);"/>
            </g>
            <path d="M304.504,192.952C304.504,199.837 298.914,205.428 292.028,205.428L196.057,205.428C189.171,205.428 183.581,199.837 183.581,192.952C183.581,186.066 189.171,180.475 196.057,180.475L292.028,180.475C298.914,180.475 304.504,186.066 304.504,192.952Z" style="fill:white;"/>
            <path d="M304.504,251.945C304.504,258.831 298.914,264.421 292.028,264.421L196.057,264.421C189.171,264.421 183.581,258.831 183.581,251.945C183.581,245.059 189.171,239.469 196.057,239.469L292.028,239.469C298.914,239.469 304.504,245.059 304.504,251.945Z" style="fill:white;"/>
            <path d="M304.504,315.249C304.504,322.135 298.914,327.725 292.028,327.725L196.057,327.725C189.171,327.725 183.581,322.135 183.581,315.249C183.581,308.363 189.171,302.773 196.057,302.773L292.028,302.773C298.914,302.773 304.504,308.363 304.504,315.249Z" style="fill:white;"/>
            <ellipse cx="160.209" cy="292.712" rx="38.808" ry="40.767" style="fill:rgb(126,211,79);"/>
            <path d="M176.657,302.741C176.657,305.066 176.092,307.246 174.961,309.281C173.83,311.316 172.166,312.993 169.969,314.312C167.772,315.632 165.18,316.403 162.193,316.627L162.193,322.06L158.097,322.06L158.097,316.559C153.83,316.157 150.395,314.804 147.792,312.501C145.19,310.198 143.846,307.079 143.76,303.143L153.361,303.143C153.617,306.363 155.195,308.308 158.097,308.979L158.097,296.167C155.025,295.362 152.55,294.557 150.672,293.752C148.795,292.947 147.174,291.65 145.808,289.861C144.443,288.072 143.76,285.635 143.76,282.549C143.76,278.659 145.094,275.483 147.76,273.024C150.427,270.564 153.873,269.155 158.097,268.798L158.097,263.364L162.193,263.364L162.193,268.798C166.289,269.155 169.564,270.452 172.017,272.688C174.47,274.924 175.847,278.01 176.145,281.946L166.481,281.946C166.353,280.649 165.916,279.52 165.169,278.558C164.422,277.597 163.43,276.915 162.193,276.512L162.193,289.19C165.393,290.04 167.921,290.856 169.777,291.639C171.633,292.421 173.244,293.696 174.609,295.462C175.975,297.229 176.657,299.655 176.657,302.741ZM153.104,282.08C153.104,283.556 153.531,284.752 154.385,285.669C155.238,286.585 156.475,287.334 158.097,287.916L158.097,276.311C156.561,276.534 155.345,277.138 154.449,278.122C153.553,279.106 153.104,280.425 153.104,282.08ZM162.193,309.113C163.814,308.8 165.084,308.107 166.001,307.034C166.918,305.961 167.377,304.664 167.377,303.143C167.377,301.667 166.929,300.482 166.033,299.588C165.137,298.694 163.857,297.956 162.193,297.374L162.193,309.113Z" style="fill:white;fill-rule:nonzero;"/>
        </g>
    </g>
    <defs>
        <filter id="_Effect1" filterUnits="userSpaceOnUse" x="-48" y="-48" width="589.953" height="589.953">
            <feGaussianBlur in="SourceGraphic" stdDeviation="16"/>
        </filter>
    </defs>
</svg>
