<?xml version="1.0" encoding="UTF-8" standalone="no"?>
<!DOCTYPE svg PUBLIC "-//W3C//DTD SVG 1.1//EN" "http://www.w3.org/Graphics/SVG/1.1/DTD/svg11.dtd">
<svg width="100%" height="100%" viewBox="0 0 494 494" version="1.1" xmlns="http://www.w3.org/2000/svg" xmlns:xlink="http://www.w3.org/1999/xlink" xml:space="preserve" xmlns:serif="http://www.serif.com/" style="fill-rule:evenodd;clip-rule:evenodd;stroke-linejoin:round;stroke-miterlimit:0.73;">
    <g>
        <g>
            <g style="filter:url(#_Effect1);">
                <path d="M435.953,152.488L435.953,341.465C435.953,393.614 393.614,435.953 341.465,435.953L152.488,435.953C100.339,435.953 58,393.614 58,341.465L58,152.488C58,100.339 100.339,58 152.488,58L341.465,58C393.614,58 435.953,100.339 435.953,152.488Z" style="fill:none;stroke:rgb(1,55,125);stroke-opacity:0.2;stroke-width:20px;"/>
            </g>
            <path d="M435.953,152.488L435.953,341.465C435.953,393.614 393.614,435.953 341.465,435.953L152.488,435.953C100.339,435.953 58,393.614 58,341.465L58,152.488C58,100.339 100.339,58 152.488,58L341.465,58C393.614,58 435.953,100.339 435.953,152.488Z" style="fill:white;stroke:white;stroke-width:0.46px;"/>
        </g>
        <g>
            <path d="M249.388,299.237C259.061,297.766 267.393,287.546 272.023,272.908L249.388,272.908L249.388,299.237Z" style="fill:rgb(125,210,78);fill-rule:nonzero;"/>
            <path d="M277.097,272.908C274.774,281.793 270.254,289.952 263.954,296.633C276.147,292.484 286.433,284.051 292.893,272.908L277.097,272.908Z" style="fill:rgb(125,210,78);fill-rule:nonzero;"/>
            <path d="M299.97,248.792L280.704,248.792C280.575,255.286 279.789,261.75 278.358,268.085L295.369,268.085C298.111,262.004 299.673,255.456 299.97,248.792Z" style="fill:rgb(125,210,78);fill-rule:nonzero;"/>
            <path d="M249.388,268.085L273.373,268.085C274.9,261.763 275.741,255.295 275.881,248.792L249.388,248.792L249.388,268.085Z" style="fill:rgb(125,210,78);fill-rule:nonzero;"/>
            <path d="M249.388,193.524L249.388,219.854L272.023,219.854C267.393,205.215 259.061,194.995 249.388,193.524Z" style="fill:rgb(125,210,78);fill-rule:nonzero;"/>
            <path d="M295.369,224.677L278.358,224.677C279.789,231.012 280.575,237.476 280.704,243.969L299.97,243.969C299.673,237.305 298.111,230.758 295.369,224.677Z" style="fill:rgb(125,210,78);fill-rule:nonzero;"/>
            <path d="M292.893,219.854C286.433,208.71 276.147,200.278 263.954,196.129C270.254,202.81 274.774,210.969 277.097,219.854L292.893,219.854Z" style="fill:rgb(125,210,78);fill-rule:nonzero;"/>
            <path d="M249.388,243.969L275.881,243.969C275.741,237.467 274.9,230.999 273.373,224.677L249.388,224.677L249.388,243.969Z" style="fill:rgb(125,210,78);fill-rule:nonzero;"/>
            <path d="M244.565,299.237L244.565,272.908L221.93,272.908C226.56,287.546 234.892,297.766 244.565,299.237Z" style="fill:rgb(125,210,78);fill-rule:nonzero;"/>
            <path d="M244.565,248.792L218.071,248.792C218.212,255.295 219.053,261.763 220.579,268.085L244.565,268.085L244.565,248.792Z" style="fill:rgb(125,210,78);fill-rule:nonzero;"/>
            <path d="M244.565,224.677L220.579,224.677C219.053,230.999 218.212,237.467 218.071,243.969L244.565,243.969L244.565,224.677Z" style="fill:rgb(125,210,78);fill-rule:nonzero;"/>
            <path d="M244.565,193.524C234.892,194.995 226.56,205.215 221.93,219.854L244.565,219.854L244.565,193.524Z" style="fill:rgb(125,210,78);fill-rule:nonzero;"/>
            <path d="M193.982,243.969L213.248,243.969C213.378,237.476 214.164,231.012 215.595,224.677L198.584,224.677C195.842,230.758 194.28,237.305 193.982,243.969Z" style="fill:rgb(125,210,78);fill-rule:nonzero;"/>
            <path d="M229.999,296.633C223.699,289.952 219.179,281.793 216.856,272.908L201.06,272.908C207.52,284.051 217.805,292.484 229.999,296.633Z" style="fill:rgb(125,210,78);fill-rule:nonzero;"/>
            <path d="M229.999,196.129C217.805,200.278 207.52,208.71 201.06,219.854L216.856,219.854C219.179,210.969 223.699,202.81 229.999,196.129Z" style="fill:rgb(125,210,78);fill-rule:nonzero;"/>
            <path d="M198.584,268.085L215.595,268.085C214.164,261.75 213.378,255.286 213.248,248.792L193.982,248.792C194.28,255.456 195.842,262.004 198.584,268.085Z" style="fill:rgb(125,210,78);fill-rule:nonzero;"/>
            <path d="M257.887,134.692L261.481,152.188C268.436,153.253 275.253,155.079 281.809,157.635L293.67,144.28C300.307,147.297 306.636,150.951 312.568,155.19L306.932,172.14C312.423,176.539 317.414,181.53 321.813,187.021L338.762,181.385C343.001,187.317 346.655,193.646 349.673,200.283L336.318,212.144C338.874,218.699 340.7,225.516 341.765,232.472L359.261,236.066C359.966,243.322 359.966,250.63 359.261,257.887L341.765,261.481C340.7,268.436 338.874,275.253 336.318,281.809L349.673,293.67C346.655,300.307 343.001,306.636 338.762,312.568L321.813,306.932C317.414,312.423 312.423,317.414 306.932,321.813L312.568,338.762C306.636,343.001 300.307,346.655 293.67,349.673L281.809,336.318C275.253,338.874 268.436,340.7 261.481,341.765L257.887,359.261C250.63,359.966 243.322,359.966 236.066,359.261L232.472,341.765C225.516,340.7 218.699,338.874 212.144,336.318L200.283,349.673C193.646,346.655 187.317,343.001 181.385,338.762L187.021,321.813C181.53,317.414 176.539,312.423 172.14,306.932L155.19,312.568C150.951,306.636 147.297,300.307 144.28,293.67L157.635,281.809C155.079,275.253 153.253,268.436 152.188,261.481L134.692,257.887C133.987,250.63 133.987,243.322 134.692,236.066L152.188,232.472C153.253,225.516 155.079,218.699 157.635,212.144L144.28,200.283C147.297,193.646 150.951,187.317 155.19,181.385L172.14,187.021C176.539,181.53 181.53,176.539 187.021,172.14L181.385,155.19C187.317,150.951 193.646,147.297 200.283,144.28L212.144,157.635C218.699,155.079 225.516,153.253 232.472,152.188L236.066,134.692C243.322,133.987 250.63,133.987 257.887,134.692ZM246.976,171.87C288.429,171.87 322.082,205.524 322.082,246.976C322.082,288.429 288.429,322.082 246.976,322.082C205.524,322.082 171.87,288.429 171.87,246.976C171.87,205.524 205.524,171.87 246.976,171.87Z" style="fill:rgb(1,54,123);"/>
            <circle cx="297.456" cy="158.187" r="40.222" style="fill:none;stroke:white;stroke-width:9.45px;stroke-linecap:round;stroke-miterlimit:0.348837;"/>
            <circle cx="297.456" cy="158.187" r="40.222" style="fill:rgb(126,211,79);"/>
            <path d="M300.837,136.898C301.832,135.613 303.366,134.862 304.992,134.862C306.617,134.862 308.151,135.613 309.147,136.898C311.092,139.408 313.457,142.459 315.636,145.271C316.865,146.857 317.084,149.004 316.201,150.805C315.318,152.606 313.487,153.748 311.481,153.748C307.349,153.748 302.634,153.748 298.502,153.748C296.496,153.748 294.665,152.606 293.782,150.805C292.899,149.004 293.118,146.857 294.347,145.271C296.527,142.459 298.891,139.408 300.837,136.898Z" style="fill:rgb(254,254,254);"/>
            <path d="M286.231,177.037C287.227,178.321 288.761,179.073 290.386,179.073C292.011,179.073 293.545,178.321 294.541,177.037C296.487,174.527 298.851,171.476 301.03,168.664C302.259,167.078 302.479,164.931 301.596,163.13C300.713,161.329 298.881,160.187 296.875,160.187C292.744,160.187 288.028,160.187 283.897,160.187C281.89,160.187 280.059,161.329 279.176,163.13C278.293,164.931 278.513,167.078 279.742,168.664C281.921,171.476 284.285,174.527 286.231,177.037Z" style="fill:rgb(1,54,124);"/>
        </g>
    </g>
    <defs>
        <filter id="_Effect1" filterUnits="userSpaceOnUse" x="-48" y="-48" width="589.953" height="589.953">
            <feGaussianBlur in="SourceGraphic" stdDeviation="16"/>
        </filter>
    </defs>
</svg>
