<?xml version="1.0" encoding="UTF-8" standalone="no"?>
<!DOCTYPE svg PUBLIC "-//W3C//DTD SVG 1.1//EN" "http://www.w3.org/Graphics/SVG/1.1/DTD/svg11.dtd">
<svg width="100%" height="100%" viewBox="0 0 379 379" version="1.1" xmlns="http://www.w3.org/2000/svg" xmlns:xlink="http://www.w3.org/1999/xlink" xml:space="preserve" xmlns:serif="http://www.serif.com/" style="fill-rule:evenodd;clip-rule:evenodd;stroke-linejoin:round;stroke-miterlimit:0.73;">
    <g>
        <g>
            <path d="M378.185,94.721L378.185,283.697C378.185,335.846 335.846,378.185 283.697,378.185L94.721,378.185C42.571,378.185 0.232,335.846 0.232,283.697L0.232,94.721C0.232,42.571 42.571,0.232 94.721,0.232L283.697,0.232C335.846,0.232 378.185,42.571 378.185,94.721Z" style="fill:white;stroke:white;stroke-width:0.46px;"/>
        </g>
        <g>
            <path d="M189.208,16.342C224.122,16.342 293.949,16.342 328.863,50.916C363.778,85.489 363.778,154.635 328.863,223.782C304.424,275.642 241.579,327.502 189.208,362.075C136.838,327.502 73.993,275.642 49.554,223.782C14.64,154.635 14.64,85.489 49.554,50.916C84.468,16.342 154.295,16.342 189.208,16.342Z" style="fill:rgb(126,211,79);"/>
            <path d="M189.208,28.855C221.186,28.855 285.14,28.855 317.117,60.926C349.096,92.997 349.096,157.138 317.117,221.28C294.733,269.386 237.174,317.492 189.208,349.562C141.243,317.492 83.684,269.386 61.3,221.28C29.322,157.138 29.322,92.997 61.3,60.926C93.277,28.855 157.231,28.855 189.208,28.855Z" style="fill:rgb(1,54,124);"/>
            <path d="M237.844,149.59L213.518,145.508C213.744,144.159 213.858,142.793 213.858,141.425C213.858,127.812 202.805,116.759 189.192,116.759C175.578,116.759 164.525,127.812 164.525,141.425C164.525,142.793 164.639,144.159 164.865,145.508L140.539,149.59C140.086,146.892 139.859,144.161 139.859,141.425C139.859,114.198 161.964,92.092 189.192,92.092C216.419,92.092 238.525,114.198 238.525,141.425C238.525,144.161 238.297,146.892 237.844,149.59Z" style="fill:white;"/>
            <path d="M261.574,164.344L261.574,216.13C261.574,230.42 249.972,242.023 235.682,242.023L142.736,242.023C128.446,242.023 116.843,230.42 116.843,216.13L116.843,164.344C116.843,150.053 128.446,138.451 142.736,138.451L235.682,138.451C249.972,138.451 261.574,150.053 261.574,164.344Z" style="fill:rgb(126,211,79);"/>
            <circle cx="189.209" cy="184.6" r="15.347" style="fill:white;"/>
            <path d="M198.811,189.401L198.811,221.546C198.811,224.195 196.66,226.347 194.01,226.347L184.408,226.347C181.758,226.347 179.607,224.195 179.607,221.546L179.607,189.401C179.607,186.751 181.758,184.6 184.408,184.6L194.01,184.6C196.66,184.6 198.811,186.751 198.811,189.401Z" style="fill:white;"/>
        </g>
    </g>
</svg>
