<?xml version="1.0" encoding="UTF-8" standalone="no"?>
<!DOCTYPE svg PUBLIC "-//W3C//DTD SVG 1.1//EN" "http://www.w3.org/Graphics/SVG/1.1/DTD/svg11.dtd">
<svg width="100%" height="100%" viewBox="0 0 379 379" version="1.1" xmlns="http://www.w3.org/2000/svg" xmlns:xlink="http://www.w3.org/1999/xlink" xml:space="preserve" xmlns:serif="http://www.serif.com/" style="fill-rule:evenodd;clip-rule:evenodd;stroke-linejoin:round;stroke-miterlimit:0.73;">
    <g>
        <g>
            <path d="M378.185,94.721L378.185,283.697C378.185,335.846 335.846,378.185 283.697,378.185L94.721,378.185C42.571,378.185 0.232,335.846 0.232,283.697L0.232,94.721C0.232,42.571 42.571,0.232 94.721,0.232L283.697,0.232C335.846,0.232 378.185,42.571 378.185,94.721Z" style="fill:white;stroke:white;stroke-width:0.46px;"/>
        </g>
        <g>
            <path d="M299.681,111.502L299.681,289.974C299.681,324.658 271.522,352.817 236.839,352.817L111.155,352.817C76.471,352.817 48.312,324.658 48.312,289.974L48.312,111.502C48.312,76.818 76.471,48.66 111.155,48.66L236.839,48.66C271.522,48.66 299.681,76.818 299.681,111.502Z" style="fill:rgb(1,55,124);"/>
            <path d="M280.64,118.961L280.64,284.075C280.64,313.504 256.747,337.397 227.318,337.397L120.675,337.397C91.246,337.397 67.354,313.504 67.354,284.075L67.354,118.961C67.354,89.532 91.246,65.64 120.675,65.64L227.318,65.64C256.747,65.64 280.64,89.532 280.64,118.961Z" style="fill:white;"/>
            <path d="M230.603,36.619L230.603,65.334C230.603,73.258 224.169,79.691 216.245,79.691L132.614,79.691C124.69,79.691 118.256,73.258 118.256,65.334L118.256,36.619C118.256,28.695 124.69,22.262 132.614,22.262L216.245,22.262C224.169,22.262 230.603,28.695 230.603,36.619Z" style="fill:rgb(123,210,75);"/>
            <circle cx="118.256" cy="132.082" r="13.591" style="fill:rgb(157,175,255);"/>
            <circle cx="118.256" cy="178.373" r="13.591" style="fill:rgb(157,175,255);"/>
            <circle cx="118.256" cy="224.664" r="13.591" style="fill:rgb(157,175,255);"/>
            <circle cx="118.256" cy="270.955" r="13.591" style="fill:rgb(157,175,255);"/>
            <path d="M243.328,126.954L243.328,137.21C243.328,140.04 241.03,142.338 238.2,142.338L160.676,142.338C157.846,142.338 155.548,140.04 155.548,137.21L155.548,126.954C155.548,124.123 157.846,121.825 160.676,121.825L238.2,121.825C241.03,121.825 243.328,124.123 243.328,126.954Z" style="fill:rgb(1,55,124);"/>
            <path d="M243.328,173.245L243.328,183.501C243.328,186.331 241.03,188.629 238.2,188.629L160.676,188.629C157.846,188.629 155.548,186.331 155.548,183.501L155.548,173.245C155.548,170.414 157.846,168.116 160.676,168.116L238.2,168.116C241.03,168.116 243.328,170.414 243.328,173.245Z" style="fill:rgb(1,55,124);"/>
            <path d="M243.328,219.536L243.328,229.792C243.328,232.622 241.03,234.92 238.2,234.92L160.676,234.92C157.846,234.92 155.548,232.622 155.548,229.792L155.548,219.536C155.548,216.705 157.846,214.407 160.676,214.407L238.2,214.407C241.03,214.407 243.328,216.705 243.328,219.536Z" style="fill:rgb(1,55,124);"/>
            <path d="M243.328,265.827L243.328,276.083C243.328,278.913 241.03,281.211 238.2,281.211L160.676,281.211C157.846,281.211 155.548,278.913 155.548,276.083L155.548,265.827C155.548,262.996 157.846,260.698 160.676,260.698L238.2,260.698C241.03,260.698 243.328,262.996 243.328,265.827Z" style="fill:rgb(1,55,124);"/>
            <path d="M336.332,103.08L336.332,294.11C336.332,298.667 332.633,302.366 328.076,302.366C323.52,302.366 319.82,298.667 319.82,294.11L319.82,103.08C319.82,98.524 323.52,94.824 328.076,94.824C332.633,94.824 336.332,98.524 336.332,103.08Z" style="fill:rgb(1,55,124);"/>
            <rect x="319.82" y="132.082" width="16.512" height="13.591" style="fill:rgb(123,210,75);"/>
        </g>
    </g>
</svg>
