<?xml version="1.0" encoding="UTF-8" standalone="no"?>
<!DOCTYPE svg PUBLIC "-//W3C//DTD SVG 1.1//EN" "http://www.w3.org/Graphics/SVG/1.1/DTD/svg11.dtd">
<svg width="100%" height="100%" viewBox="0 0 379 379" version="1.1" xmlns="http://www.w3.org/2000/svg" xmlns:xlink="http://www.w3.org/1999/xlink" xml:space="preserve" xmlns:serif="http://www.serif.com/" style="fill-rule:evenodd;clip-rule:evenodd;stroke-linejoin:round;stroke-miterlimit:0.73;">
    <g>
        <g>
            <path d="M378.185,94.721L378.185,283.697C378.185,335.846 335.846,378.185 283.697,378.185L94.721,378.185C42.571,378.185 0.232,335.846 0.232,283.697L0.232,94.721C0.232,42.571 42.571,0.232 94.721,0.232L283.697,0.232C335.846,0.232 378.185,42.571 378.185,94.721Z" style="fill:white;stroke:white;stroke-width:0.46px;"/>
        </g>
        <g>
            <g>
                <path d="M306.295,90.134L293.768,229.37C291.455,255.079 268.704,274.074 242.995,271.76L149.832,263.379C124.122,261.065 105.128,238.315 107.441,212.606L119.968,73.37C122.281,47.661 145.032,28.666 170.741,30.979L263.904,39.361C289.613,41.674 308.608,64.424 306.295,90.134Z" style="fill:rgb(126,211,79);"/>
                <path d="M273.921,103.262C273.325,109.887 267.463,114.781 260.839,114.185L160.401,105.149C153.776,104.553 148.882,98.691 149.478,92.066C150.074,85.441 155.936,80.547 162.561,81.143L262.998,90.179C269.623,90.775 274.517,96.638 273.921,103.262Z" style="fill:white;"/>
                <path d="M269.089,156.968C268.493,163.592 262.631,168.487 256.007,167.891L155.569,158.854C148.945,158.258 144.05,152.396 144.646,145.772C145.242,139.147 151.104,134.253 157.729,134.849L258.167,143.885C264.791,144.481 269.685,150.343 269.089,156.968Z" style="fill:white;"/>
                <path d="M264.258,210.674C263.662,217.298 257.799,222.192 251.175,221.596L150.737,212.56C144.113,211.964 139.218,206.102 139.814,199.477C140.41,192.853 146.272,187.958 152.897,188.554L253.335,197.591C259.959,198.187 264.854,204.049 264.258,210.674Z" style="fill:white;"/>
            </g>
            <g>
                <path d="M221.66,104.969L239.629,243.607C242.947,269.206 224.858,292.683 199.259,296.001L106.495,308.024C80.897,311.342 57.42,293.253 54.102,267.654L36.132,129.015C32.814,103.417 50.904,79.94 76.503,76.622L169.266,64.598C194.865,61.281 218.342,79.37 221.66,104.969Z" style="fill:rgb(1,54,124);"/>
                <path d="M192.904,124.806C193.759,131.402 189.098,137.451 182.502,138.306L82.495,151.269C75.899,152.124 69.85,147.462 68.995,140.866C68.14,134.27 72.801,128.221 79.397,127.366L179.404,114.404C186,113.549 192.049,118.21 192.904,124.806Z" style="fill:white;"/>
                <path d="M199.836,178.281C200.691,184.877 196.029,190.927 189.433,191.782L89.426,204.744C82.83,205.599 76.781,200.938 75.926,194.342C75.071,187.746 79.732,181.696 86.328,180.841L186.335,167.879C192.931,167.024 198.981,171.685 199.836,178.281Z" style="fill:white;"/>
                <path d="M206.767,231.757C207.622,238.353 202.961,244.402 196.364,245.257L96.358,258.219C89.761,259.074 83.712,254.413 82.857,247.817C82.002,241.221 86.663,235.172 93.259,234.317L193.266,221.354C199.862,220.499 205.912,225.16 206.767,231.757Z" style="fill:white;"/>
            </g>
            <g>
                <circle cx="256.892" cy="265.265" r="86.793" style="fill:none;stroke:white;stroke-width:47.09px;stroke-linecap:round;stroke-miterlimit:0.348837;"/>
                <circle cx="256.892" cy="265.265" r="86.793" style="fill:rgb(1,54,124);"/>
                <path d="M245.693,275.871L245.69,275.871C245.69,273.004 245.927,274.324 230.622,243.714C227.495,237.462 218.541,237.449 215.409,243.714C199.974,274.587 200.343,273.095 200.343,275.871L200.339,275.871C200.339,283.698 210.492,290.044 223.016,290.044C235.54,290.044 245.693,283.698 245.693,275.871ZM223.016,247.525L235.772,273.036L210.26,273.036L223.016,247.525ZM313.72,275.871C313.72,273.004 313.958,274.324 298.653,243.714C295.526,237.462 286.572,237.449 283.44,243.714C268.005,274.587 268.374,273.095 268.374,275.871L268.37,275.871C268.37,283.698 278.523,290.044 291.047,290.044C303.571,290.044 313.724,283.698 313.724,275.871L313.72,275.871ZM278.291,273.036L291.047,247.525L303.803,273.036L278.291,273.036ZM293.882,295.713L262.701,295.713L262.701,243.494C266.866,241.671 269.993,237.917 270.919,233.352L293.882,233.352C295.448,233.352 296.716,232.083 296.716,230.517L296.716,224.848C296.716,223.282 295.448,222.013 293.882,222.013L268.306,222.013C265.72,218.59 261.654,216.344 257.032,216.344C252.409,216.344 248.343,218.59 245.757,222.013L220.182,222.013C218.615,222.013 217.347,223.282 217.347,224.848L217.347,230.517C217.347,232.083 218.615,233.352 220.182,233.352L243.144,233.352C244.07,237.915 247.195,241.671 251.362,243.494L251.362,295.713L220.182,295.713C218.615,295.713 217.347,296.982 217.347,298.548L217.347,304.217C217.347,305.783 218.615,307.052 220.182,307.052L293.882,307.052C295.448,307.052 296.716,305.783 296.716,304.217L296.716,298.548C296.716,296.982 295.448,295.713 293.882,295.713Z" style="fill:white;fill-rule:nonzero;"/>
            </g>
        </g>
    </g>
</svg>
