<?xml version="1.0" encoding="UTF-8" standalone="no"?>
<!DOCTYPE svg PUBLIC "-//W3C//DTD SVG 1.1//EN" "http://www.w3.org/Graphics/SVG/1.1/DTD/svg11.dtd">
<svg width="100%" height="100%" viewBox="0 0 494 494" version="1.1" xmlns="http://www.w3.org/2000/svg" xmlns:xlink="http://www.w3.org/1999/xlink" xml:space="preserve" xmlns:serif="http://www.serif.com/" style="fill-rule:evenodd;clip-rule:evenodd;stroke-linejoin:round;stroke-miterlimit:0.73;">
    <g>
        <g>
            <g style="filter:url(#_Effect1);">
                <path d="M435.953,152.488L435.953,341.465C435.953,393.614 393.614,435.953 341.465,435.953L152.488,435.953C100.339,435.953 58,393.614 58,341.465L58,152.488C58,100.339 100.339,58 152.488,58L341.465,58C393.614,58 435.953,100.339 435.953,152.488Z" style="fill:none;stroke:rgb(1,55,125);stroke-opacity:0.2;stroke-width:20px;"/>
            </g>
            <path d="M435.953,152.488L435.953,341.465C435.953,393.614 393.614,435.953 341.465,435.953L152.488,435.953C100.339,435.953 58,393.614 58,341.465L58,152.488C58,100.339 100.339,58 152.488,58L341.465,58C393.614,58 435.953,100.339 435.953,152.488Z" style="fill:white;stroke:white;stroke-width:0.46px;"/>
        </g>
        <g>
            <path d="M267.854,202.086L261.105,213.776C253.154,227.547 235.519,232.273 221.748,224.322L210.2,217.655C196.429,209.704 191.704,192.069 199.655,178.298L206.404,166.608C214.355,152.837 231.99,148.112 245.761,156.062L257.308,162.729C271.079,170.68 275.805,188.315 267.854,202.086Z" style="fill:rgb(1,54,124);"/>
            <path d="M237.793,254.154C235.693,257.791 231.036,259.039 227.399,256.939L178.575,228.751C174.938,226.651 173.69,221.994 175.79,218.357C177.89,214.72 182.547,213.472 186.184,215.572L235.008,243.76C238.645,245.86 239.893,250.517 237.793,254.154Z" style="fill:rgb(1,54,124);"/>
            <path d="M291.436,161.242C289.309,164.925 284.592,166.189 280.908,164.063L232.254,135.972C228.57,133.845 227.306,129.128 229.433,125.445C231.56,121.761 236.277,120.497 239.961,122.624L288.615,150.714C292.298,152.841 293.562,157.558 291.436,161.242Z" style="fill:rgb(1,54,124);"/>
            <path d="M379.316,251.253C381.651,252.344 383.421,254.366 384.195,256.824C384.968,259.283 384.675,261.954 383.386,264.186C380.132,269.824 375.906,277.143 372.651,282.78C371.362,285.013 369.196,286.602 366.68,287.161C364.164,287.72 361.528,287.198 359.415,285.722C340.352,272.404 293.414,239.612 275.699,227.236C271.786,224.502 270.614,219.229 273.001,215.095C273.642,213.985 274.303,212.839 274.944,211.729C277.331,207.595 282.484,205.973 286.808,207.995C306.383,217.149 358.251,241.402 379.316,251.253Z" style="fill:rgb(1,54,124);"/>
        </g>
        <path d="M241.115,298.67C241.115,304.901 236.057,309.959 229.826,309.959L173.467,309.959C167.236,309.959 162.178,304.901 162.178,298.67C162.178,292.439 167.236,287.38 173.467,287.38L229.826,287.38C236.057,287.38 241.115,292.439 241.115,298.67Z" style="fill:none;stroke:black;stroke-width:0.14px;stroke-linecap:round;stroke-miterlimit:0.348837;"/>
        <path d="M241.115,298.67C241.115,304.901 236.057,309.959 229.826,309.959L173.467,309.959C167.236,309.959 162.178,304.901 162.178,298.67C162.178,292.439 167.236,287.38 173.467,287.38L229.826,287.38C236.057,287.38 241.115,292.439 241.115,298.67Z" style="fill:rgb(126,211,79);"/>
        <path d="M255.067,327.621L255.067,335.657C255.067,339.67 251.809,342.929 247.795,342.929L155.498,342.929C151.484,342.929 148.226,339.67 148.226,335.657L148.226,327.621C148.226,323.608 151.484,320.349 155.498,320.349L247.795,320.349C251.809,320.349 255.067,323.608 255.067,327.621Z" style="fill:rgb(1,54,124);"/>
    </g>
    <defs>
        <filter id="_Effect1" filterUnits="userSpaceOnUse" x="-48" y="-48" width="589.953" height="589.953">
            <feGaussianBlur in="SourceGraphic" stdDeviation="16"/>
        </filter>
    </defs>
</svg>
