<?xml version="1.0" encoding="UTF-8" standalone="no"?>
<!DOCTYPE svg PUBLIC "-//W3C//DTD SVG 1.1//EN" "http://www.w3.org/Graphics/SVG/1.1/DTD/svg11.dtd">
<svg width="100%" height="100%" viewBox="0 0 494 494" version="1.1" xmlns="http://www.w3.org/2000/svg" xmlns:xlink="http://www.w3.org/1999/xlink" xml:space="preserve" xmlns:serif="http://www.serif.com/" style="fill-rule:evenodd;clip-rule:evenodd;stroke-linejoin:round;stroke-miterlimit:0.73;">
    <g>
        <g>
            <g style="filter:url(#_Effect1);">
                <path d="M435.953,152.488L435.953,341.465C435.953,393.614 393.614,435.953 341.465,435.953L152.488,435.953C100.339,435.953 58,393.614 58,341.465L58,152.488C58,100.339 100.339,58 152.488,58L341.465,58C393.614,58 435.953,100.339 435.953,152.488Z" style="fill:none;stroke:rgb(1,55,125);stroke-opacity:0.2;stroke-width:20px;"/>
            </g>
            <path d="M435.953,152.488L435.953,341.465C435.953,393.614 393.614,435.953 341.465,435.953L152.488,435.953C100.339,435.953 58,393.614 58,341.465L58,152.488C58,100.339 100.339,58 152.488,58L341.465,58C393.614,58 435.953,100.339 435.953,152.488Z" style="fill:white;stroke:white;stroke-width:0.46px;"/>
        </g>
        <path d="M158.35,142.194L158.35,351.759C158.35,354.385 156.218,356.517 153.591,356.517L144.074,356.517C141.448,356.517 139.316,354.385 139.316,351.759L139.316,142.194C139.316,139.568 141.448,137.436 144.074,137.436L153.591,137.436C156.218,137.436 158.35,139.568 158.35,142.194Z" style="fill:rgb(126,211,79);"/>
        <path d="M349.796,356.517L144.157,356.517C141.485,356.517 139.316,354.348 139.316,351.676L139.316,341.992C139.316,339.32 141.485,337.151 144.157,337.151L349.796,337.151C352.468,337.151 354.637,339.32 354.637,341.992L354.637,351.676C354.637,354.348 352.468,356.517 349.796,356.517Z" style="fill:rgb(126,211,79);"/>
        <path d="M212.042,208.848L212.042,312.443C212.042,317.131 208.236,320.937 203.548,320.937L186.561,320.937C181.873,320.937 178.067,317.131 178.067,312.443L178.067,208.848C178.067,204.16 181.873,200.354 186.561,200.354L203.548,200.354C208.236,200.354 212.042,204.16 212.042,208.848Z" style="fill:rgb(1,54,124);"/>
        <path d="M267.861,230.504L267.861,312.443C267.861,317.131 264.055,320.937 259.367,320.937L242.379,320.937C237.692,320.937 233.886,317.131 233.886,312.443L233.886,230.504C233.886,225.816 237.692,222.01 242.379,222.01L259.367,222.01C264.055,222.01 267.861,225.816 267.861,230.504Z" style="fill:rgb(1,54,124);"/>
        <path d="M320.544,261.625L320.544,312.443C320.544,317.131 316.738,320.937 312.05,320.937L295.062,320.937C290.374,320.937 286.568,317.131 286.568,312.443L286.568,261.625C286.568,256.937 290.374,253.131 295.062,253.131L312.05,253.131C316.738,253.131 320.544,256.937 320.544,261.625Z" style="fill:rgb(1,54,124);"/>
        <g>
            <ellipse cx="303.556" cy="204.717" rx="26.341" ry="26.801" style="fill:rgb(126,211,79);"/>
            <path d="M300.003,191.702C299.924,190.711 300.263,189.732 300.937,189.001C301.612,188.271 302.561,187.855 303.556,187.855C303.556,187.855 303.556,187.855 303.557,187.855C304.551,187.855 305.5,188.271 306.175,189.001C306.849,189.732 307.188,190.711 307.11,191.702C306.706,196.772 306.009,205.539 305.675,209.742C305.568,211.087 304.446,212.124 303.096,212.124C303.069,212.124 303.042,212.124 303.016,212.124C302.231,212.124 301.579,211.521 301.516,210.739C301.228,207.109 300.441,197.218 300.003,191.702Z" style="fill:white;"/>
            <ellipse cx="303.556" cy="218.898" rx="2.921" ry="2.972" style="fill:rgb(254,254,254);"/>
        </g>
    </g>
    <defs>
        <filter id="_Effect1" filterUnits="userSpaceOnUse" x="-48" y="-48" width="589.953" height="589.953">
            <feGaussianBlur in="SourceGraphic" stdDeviation="16"/>
        </filter>
    </defs>
</svg>
