<?xml version="1.0" encoding="UTF-8" standalone="no"?>
<!DOCTYPE svg PUBLIC "-//W3C//DTD SVG 1.1//EN" "http://www.w3.org/Graphics/SVG/1.1/DTD/svg11.dtd">
<svg width="100%" height="100%" viewBox="0 0 494 494" version="1.1" xmlns="http://www.w3.org/2000/svg" xmlns:xlink="http://www.w3.org/1999/xlink" xml:space="preserve" xmlns:serif="http://www.serif.com/" style="fill-rule:evenodd;clip-rule:evenodd;stroke-linejoin:round;stroke-miterlimit:0.73;">
    <g>
        <g>
            <g style="filter:url(#_Effect1);">
                <path d="M435.953,152.488L435.953,341.465C435.953,393.614 393.614,435.953 341.465,435.953L152.488,435.953C100.339,435.953 58,393.614 58,341.465L58,152.488C58,100.339 100.339,58 152.488,58L341.465,58C393.614,58 435.953,100.339 435.953,152.488Z" style="fill:none;stroke:rgb(1,55,125);stroke-opacity:0.2;stroke-width:20px;"/>
            </g>
            <path d="M433.79,152.368L433.79,341.344C433.79,393.494 391.451,435.832 339.302,435.832L150.325,435.832C98.176,435.832 55.837,393.494 55.837,341.344L55.837,152.368C55.837,100.218 98.176,57.88 150.325,57.88L339.302,57.88C391.451,57.88 433.79,100.218 433.79,152.368Z" style="fill:white;stroke:white;stroke-width:0.46px;"/>
        </g>
        <g>
            <path d="M336.15,179.67L336.15,318.478C336.15,345.453 314.249,367.354 287.274,367.354L189.523,367.354C162.548,367.354 140.647,345.453 140.647,318.478L140.647,179.67C140.647,152.695 162.548,130.794 189.523,130.794L287.274,130.794C314.249,130.794 336.15,152.695 336.15,179.67Z" style="fill:rgb(1,55,124);"/>
            <path d="M321.34,185.472L321.34,313.89C321.34,336.778 302.758,355.361 279.869,355.361L196.928,355.361C174.039,355.361 155.457,336.778 155.457,313.89L155.457,185.472C155.457,162.583 174.039,144.001 196.928,144.001L279.869,144.001C302.758,144.001 321.34,162.583 321.34,185.472Z" style="fill:white;"/>
            <path d="M282.424,121.43L282.424,143.763C282.424,149.926 277.421,154.929 271.258,154.929L206.213,154.929C200.05,154.929 195.046,149.926 195.046,143.763L195.046,121.43C195.046,115.267 200.05,110.263 206.213,110.263L271.258,110.263C277.421,110.263 282.424,115.267 282.424,121.43Z" style="fill:rgb(123,210,75);"/>
            <circle cx="195.046" cy="195.676" r="10.571" style="fill:rgb(157,175,255);"/>
            <circle cx="195.046" cy="231.679" r="10.571" style="fill:rgb(157,175,255);"/>
            <circle cx="195.046" cy="267.682" r="10.571" style="fill:rgb(157,175,255);"/>
            <circle cx="195.046" cy="303.685" r="10.571" style="fill:rgb(157,175,255);"/>
            <path d="M292.321,191.688L292.321,199.665C292.321,201.866 290.534,203.653 288.333,203.653L228.039,203.653C225.837,203.653 224.05,201.866 224.05,199.665L224.05,191.688C224.05,189.487 225.837,187.699 228.039,187.699L288.333,187.699C290.534,187.699 292.321,189.487 292.321,191.688Z" style="fill:rgb(1,55,124);"/>
            <path d="M292.321,227.691L292.321,235.668C292.321,237.869 290.534,239.656 288.333,239.656L228.039,239.656C225.837,239.656 224.05,237.869 224.05,235.668L224.05,227.691C224.05,225.49 225.837,223.702 228.039,223.702L288.333,223.702C290.534,223.702 292.321,225.49 292.321,227.691Z" style="fill:rgb(1,55,124);"/>
            <path d="M292.321,263.694L292.321,271.671C292.321,273.872 290.534,275.659 288.333,275.659L228.039,275.659C225.837,275.659 224.05,273.872 224.05,271.671L224.05,263.694C224.05,261.493 225.837,259.705 228.039,259.705L288.333,259.705C290.534,259.705 292.321,261.493 292.321,263.694Z" style="fill:rgb(1,55,124);"/>
            <path d="M292.321,299.697L292.321,307.674C292.321,309.875 290.534,311.662 288.333,311.662L228.039,311.662C225.837,311.662 224.05,309.875 224.05,307.674L224.05,299.697C224.05,297.496 225.837,295.708 228.039,295.708L288.333,295.708C290.534,295.708 292.321,297.496 292.321,299.697Z" style="fill:rgb(1,55,124);"/>
            <path d="M364.656,173.12L364.656,321.694C364.656,325.238 361.779,328.116 358.235,328.116C354.691,328.116 351.813,325.238 351.813,321.694L351.813,173.12C351.813,169.576 354.691,166.699 358.235,166.699C361.779,166.699 364.656,169.576 364.656,173.12Z" style="fill:rgb(1,55,124);"/>
            <rect x="351.813" y="195.676" width="12.842" height="10.571" style="fill:rgb(123,210,75);"/>
        </g>
    </g>
    <defs>
        <filter id="_Effect1" filterUnits="userSpaceOnUse" x="-48" y="-48" width="589.953" height="589.953">
            <feGaussianBlur in="SourceGraphic" stdDeviation="16"/>
        </filter>
    </defs>
</svg>
