<?xml version="1.0" encoding="UTF-8" standalone="no"?>
<!DOCTYPE svg PUBLIC "-//W3C//DTD SVG 1.1//EN" "http://www.w3.org/Graphics/SVG/1.1/DTD/svg11.dtd">
<svg width="100%" height="100%" viewBox="0 0 494 494" version="1.1" xmlns="http://www.w3.org/2000/svg" xmlns:xlink="http://www.w3.org/1999/xlink" xml:space="preserve" xmlns:serif="http://www.serif.com/" style="fill-rule:evenodd;clip-rule:evenodd;stroke-linejoin:round;stroke-miterlimit:0.73;">
    <g>
        <g>
            <g style="filter:url(#_Effect1);">
                <path d="M435.953,152.488L435.953,341.465C435.953,393.614 393.614,435.953 341.465,435.953L152.488,435.953C100.339,435.953 58,393.614 58,341.465L58,152.488C58,100.339 100.339,58 152.488,58L341.465,58C393.614,58 435.953,100.339 435.953,152.488Z" style="fill:none;stroke:rgb(1,55,125);stroke-opacity:0.2;stroke-width:20px;"/>
            </g>
            <path d="M435.953,152.488L435.953,341.465C435.953,393.614 393.614,435.953 341.465,435.953L152.488,435.953C100.339,435.953 58,393.614 58,341.465L58,152.488C58,100.339 100.339,58 152.488,58L341.465,58C393.614,58 435.953,100.339 435.953,152.488Z" style="fill:white;stroke:white;stroke-width:0.46px;"/>
        </g>
        <g>
            <g>
                <path d="M342.646,172.326L332.366,286.586C330.468,307.683 311.798,323.271 290.701,321.373L214.249,314.494C193.152,312.596 177.564,293.927 179.462,272.829L189.742,158.569C191.64,137.471 210.31,121.884 231.407,123.782L307.859,130.661C328.957,132.559 344.544,151.228 342.646,172.326Z" style="fill:rgb(126,211,79);"/>
                <path d="M316.08,183.099C315.591,188.536 310.78,192.552 305.344,192.063L222.922,184.647C217.486,184.158 213.47,179.348 213.959,173.911C214.448,168.475 219.259,164.459 224.695,164.948L307.116,172.363C312.552,172.852 316.569,177.663 316.08,183.099Z" style="fill:white;"/>
                <path d="M312.115,227.171C311.625,232.608 306.815,236.624 301.379,236.135L218.957,228.719C213.521,228.23 209.505,223.42 209.994,217.983C210.483,212.547 215.293,208.531 220.73,209.02L303.151,216.435C308.587,216.924 312.604,221.735 312.115,227.171Z" style="fill:white;"/>
                <path d="M308.149,271.243C307.66,276.68 302.85,280.696 297.413,280.207L214.992,272.791C209.556,272.302 205.539,267.492 206.029,262.056C206.518,256.619 211.328,252.603 216.764,253.092L299.186,260.507C304.622,260.997 308.638,265.807 308.149,271.243Z" style="fill:white;"/>
            </g>
            <g>
                <path d="M273.193,184.5L287.939,298.27C290.662,319.277 275.817,338.542 254.81,341.265L178.686,351.132C157.679,353.854 138.414,339.01 135.691,318.003L120.945,204.233C118.222,183.226 133.067,163.961 154.074,161.238L230.197,151.371C251.204,148.648 270.47,163.493 273.193,184.5Z" style="fill:rgb(1,54,124);"/>
                <path d="M249.595,200.779C250.297,206.192 246.472,211.156 241.059,211.857L158.991,222.494C153.578,223.196 148.614,219.371 147.913,213.958C147.211,208.545 151.036,203.581 156.449,202.879L238.517,192.242C243.93,191.541 248.894,195.366 249.595,200.779Z" style="fill:white;"/>
                <path d="M255.283,244.662C255.985,250.075 252.16,255.039 246.747,255.74L164.679,266.377C159.266,267.079 154.302,263.254 153.601,257.841C152.899,252.428 156.724,247.464 162.137,246.762L244.205,236.125C249.618,235.424 254.582,239.249 255.283,244.662Z" style="fill:white;"/>
                <path d="M260.971,288.545C261.673,293.957 257.848,298.922 252.435,299.623L170.367,310.26C164.954,310.962 159.99,307.137 159.288,301.724C158.587,296.311 162.412,291.347 167.825,290.645L249.892,280.008C255.305,279.307 260.27,283.132 260.971,288.545Z" style="fill:white;"/>
            </g>
            <g>
                <circle cx="302.105" cy="316.042" r="71.224" style="fill:none;stroke:white;stroke-width:38.64px;stroke-linecap:round;stroke-miterlimit:0.348837;"/>
                <circle cx="302.105" cy="316.042" r="71.224" style="fill:rgb(1,54,124);"/>
                <path d="M292.915,324.746L292.912,324.746C292.912,322.393 293.107,323.477 280.547,298.357C277.981,293.226 270.633,293.216 268.063,298.357C255.397,323.692 255.7,322.468 255.7,324.746L255.697,324.746C255.697,331.169 264.029,336.377 274.306,336.377C284.583,336.377 292.915,331.169 292.915,324.746ZM274.306,301.484L284.773,322.42L263.838,322.42L274.306,301.484ZM348.74,324.746C348.74,322.393 348.934,323.477 336.375,298.357C333.809,293.226 326.461,293.216 323.891,298.357C311.225,323.692 311.527,322.468 311.527,324.746L311.524,324.746C311.524,331.169 319.856,336.377 330.133,336.377C340.411,336.377 348.743,331.169 348.743,324.746L348.74,324.746ZM319.666,322.42L330.133,301.484L340.601,322.42L319.666,322.42ZM332.46,341.029L306.872,341.029L306.872,298.177C310.29,296.681 312.856,293.6 313.616,289.854L332.46,289.854C333.745,289.854 334.786,288.813 334.786,287.527L334.786,282.875C334.786,281.59 333.745,280.549 332.46,280.549L311.472,280.549C309.349,277.74 306.013,275.897 302.22,275.897C298.426,275.897 295.09,277.74 292.967,280.549L271.98,280.549C270.694,280.549 269.653,281.59 269.653,282.875L269.653,287.527C269.653,288.813 270.694,289.854 271.98,289.854L290.823,289.854C291.583,293.599 294.148,296.681 297.567,298.177L297.567,341.029L271.98,341.029C270.694,341.029 269.653,342.07 269.653,343.355L269.653,348.007C269.653,349.292 270.694,350.333 271.98,350.333L332.46,350.333C333.745,350.333 334.786,349.292 334.786,348.007L334.786,343.355C334.786,342.07 333.745,341.029 332.46,341.029Z" style="fill:white;fill-rule:nonzero;"/>
            </g>
        </g>
    </g>
    <defs>
        <filter id="_Effect1" filterUnits="userSpaceOnUse" x="-48" y="-48" width="589.953" height="589.953">
            <feGaussianBlur in="SourceGraphic" stdDeviation="16"/>
        </filter>
    </defs>
</svg>
