<?xml version="1.0" encoding="UTF-8" standalone="no"?>
<!DOCTYPE svg PUBLIC "-//W3C//DTD SVG 1.1//EN" "http://www.w3.org/Graphics/SVG/1.1/DTD/svg11.dtd">
<svg width="100%" height="100%" viewBox="0 0 494 494" version="1.1" xmlns="http://www.w3.org/2000/svg" xmlns:xlink="http://www.w3.org/1999/xlink" xml:space="preserve" xmlns:serif="http://www.serif.com/" style="fill-rule:evenodd;clip-rule:evenodd;stroke-linejoin:round;stroke-miterlimit:0.73;">
    <g>
        <g style="filter:url(#_Effect1);">
            <path d="M435.953,152.488L435.953,341.465C435.953,393.614 393.614,435.953 341.465,435.953L152.488,435.953C100.339,435.953 58,393.614 58,341.465L58,152.488C58,100.339 100.339,58 152.488,58L341.465,58C393.614,58 435.953,100.339 435.953,152.488Z" style="fill:none;stroke:rgb(1,55,125);stroke-opacity:0.2;stroke-width:20px;"/>
        </g>
        <g>
            <path d="M435.953,152.488L435.953,341.465C435.953,393.614 393.614,435.953 341.465,435.953L152.488,435.953C100.339,435.953 58,393.614 58,341.465L58,152.488C58,100.339 100.339,58 152.488,58L341.465,58C393.614,58 435.953,100.339 435.953,152.488Z" style="fill:white;stroke:white;stroke-width:0.46px;"/>
        </g>
        <g>
            <path d="M246.976,74.11C281.89,74.11 351.717,74.11 386.631,108.683C421.546,143.256 421.546,212.403 386.631,281.55C362.191,333.41 299.347,385.27 246.976,419.843C194.605,385.27 131.761,333.41 107.321,281.55C72.408,212.403 72.408,143.256 107.321,108.683C142.235,74.11 212.062,74.11 246.976,74.11Z" style="fill:rgb(126,211,79);"/>
            <path d="M246.976,86.623C278.953,86.623 342.907,86.623 374.885,118.694C406.863,150.764 406.863,214.906 374.885,279.047C352.501,327.153 294.942,375.259 246.976,407.33C199.01,375.259 141.451,327.153 119.067,279.047C87.09,214.906 87.09,150.764 119.067,118.694C151.045,86.623 214.999,86.623 246.976,86.623Z" style="fill:rgb(1,54,124);"/>
            <path d="M295.612,207.358L271.285,203.275C271.512,201.926 271.626,200.561 271.626,199.193C271.626,185.579 260.573,174.526 246.959,174.526C233.345,174.526 222.293,185.579 222.293,199.193C222.293,200.561 222.406,201.926 222.633,203.275L198.307,207.358C197.854,204.66 197.626,201.929 197.626,199.193C197.626,171.965 219.732,149.86 246.959,149.86C274.187,149.86 296.292,171.965 296.292,199.193C296.292,201.929 296.065,204.66 295.612,207.358Z" style="fill:white;"/>
            <path d="M319.342,222.112L319.342,273.897C319.342,288.188 307.74,299.79 293.449,299.79L200.504,299.79C186.213,299.79 174.611,288.188 174.611,273.897L174.611,222.112C174.611,207.821 186.213,196.219 200.504,196.219L293.449,196.219C307.74,196.219 319.342,207.821 319.342,222.112Z" style="fill:rgb(126,211,79);"/>
            <circle cx="246.976" cy="242.367" r="15.347" style="fill:white;"/>
            <path d="M256.579,247.169L256.579,279.313C256.579,281.963 254.427,284.114 251.778,284.114L242.175,284.114C239.526,284.114 237.374,281.963 237.374,279.313L237.374,247.169C237.374,244.519 239.526,242.367 242.175,242.367L251.778,242.367C254.427,242.367 256.579,244.519 256.579,247.169Z" style="fill:white;"/>
        </g>
    </g>
    <defs>
        <filter id="_Effect1" filterUnits="userSpaceOnUse" x="-48" y="-48" width="589.953" height="589.953">
            <feGaussianBlur in="SourceGraphic" stdDeviation="16"/>
        </filter>
    </defs>
</svg>
