<?xml version="1.0" encoding="UTF-8" standalone="no"?>
<!DOCTYPE svg PUBLIC "-//W3C//DTD SVG 1.1//EN" "http://www.w3.org/Graphics/SVG/1.1/DTD/svg11.dtd">
<svg width="100%" height="100%" viewBox="0 0 379 379" version="1.1" xmlns="http://www.w3.org/2000/svg" xmlns:xlink="http://www.w3.org/1999/xlink" xml:space="preserve" xmlns:serif="http://www.serif.com/" style="fill-rule:evenodd;clip-rule:evenodd;stroke-linejoin:round;stroke-miterlimit:0.73;">
    <g>
        <g>
            <g>
                <path d="M378.185,94.721L378.185,283.697C378.185,335.846 335.846,378.185 283.697,378.185L94.721,378.185C42.571,378.185 0.232,335.846 0.232,283.697L0.232,94.721C0.232,42.571 42.571,0.232 94.721,0.232L283.697,0.232C335.846,0.232 378.185,42.571 378.185,94.721Z" style="fill:white;stroke:white;stroke-width:0.46px;"/>
            </g>
        </g>
        <g>
            <circle cx="189.209" cy="189.209" r="55.472" style="fill:rgb(1,55,125);"/>
            <path d="M204.142,197.896C204.142,199.91 203.629,201.798 202.602,203.561C201.576,205.323 200.065,206.776 198.07,207.919C196.075,209.062 193.722,209.73 191.01,209.924L191.01,214.63L187.291,214.63L187.291,209.865C183.418,209.517 180.299,208.345 177.936,206.35C175.573,204.355 174.353,201.653 174.276,198.244L182.992,198.244C183.224,201.033 184.657,202.718 187.291,203.299L187.291,192.201C184.502,191.504 182.256,190.807 180.551,190.109C178.847,189.412 177.375,188.289 176.135,186.739C174.895,185.19 174.276,183.079 174.276,180.406C174.276,177.036 175.486,174.285 177.907,172.155C180.328,170.024 183.456,168.804 187.291,168.494L187.291,163.788L191.01,163.788L191.01,168.494C194.729,168.804 197.702,169.927 199.929,171.864C202.157,173.801 203.406,176.474 203.677,179.883L194.903,179.883C194.787,178.759 194.39,177.781 193.712,176.949C193.034,176.116 192.133,175.525 191.01,175.176L191.01,186.158C193.915,186.894 196.211,187.601 197.896,188.279C199.581,188.957 201.043,190.061 202.283,191.591C203.522,193.121 204.142,195.223 204.142,197.896ZM182.759,179.999C182.759,181.277 183.146,182.314 183.921,183.108C184.696,183.902 185.819,184.551 187.291,185.054L187.291,175.002C185.897,175.196 184.793,175.719 183.979,176.571C183.166,177.423 182.759,178.566 182.759,179.999ZM191.01,203.416C192.482,203.145 193.635,202.544 194.467,201.614C195.3,200.685 195.717,199.561 195.717,198.244C195.717,196.966 195.31,195.939 194.496,195.165C193.683,194.39 192.521,193.751 191.01,193.247L191.01,203.416Z" style="fill:white;fill-rule:nonzero;"/>
        </g>
        <g>
            <path d="M305.861,168.271L305.861,201.618C305.861,205.787 302.476,209.172 298.307,209.172C294.137,209.172 290.753,205.787 290.753,201.618L290.753,168.271C290.753,164.102 294.137,160.717 298.307,160.717C302.476,160.717 305.861,164.102 305.861,168.271Z" style="fill:rgb(126,211,79);"/>
            <path d="M314.98,192.499L281.633,192.499C277.464,192.499 274.079,189.114 274.079,184.945C274.079,180.775 277.464,177.391 281.633,177.391L314.98,177.391C319.149,177.391 322.534,180.775 322.534,184.945C322.534,189.114 319.149,192.499 314.98,192.499Z" style="fill:rgb(126,211,79);"/>
        </g>
        <g>
            <path d="M252.916,71.768L252.916,105.115C252.916,109.284 249.531,112.669 245.362,112.669C241.193,112.669 237.808,109.284 237.808,105.115L237.808,71.768C237.808,67.599 241.193,64.214 245.362,64.214C249.531,64.214 252.916,67.599 252.916,71.768Z" style="fill:rgb(1,54,123);"/>
            <path d="M262.035,95.995L228.688,95.995C224.519,95.995 221.134,92.61 221.134,88.441C221.134,84.272 224.519,80.887 228.688,80.887L262.035,80.887C266.204,80.887 269.589,84.272 269.589,88.441C269.589,92.61 266.204,95.995 262.035,95.995Z" style="fill:rgb(1,54,123);"/>
        </g>
        <g>
            <path d="M250.804,272.306L250.804,305.653C250.804,309.823 247.419,313.207 243.25,313.207C239.081,313.207 235.696,309.823 235.696,305.653L235.696,272.306C235.696,268.137 239.081,264.752 243.25,264.752C247.419,264.752 250.804,268.137 250.804,272.306Z" style="fill:rgb(1,54,123);"/>
            <path d="M259.923,296.534L226.576,296.534C222.407,296.534 219.022,293.149 219.022,288.98C219.022,284.811 222.407,281.426 226.576,281.426L259.923,281.426C264.092,281.426 267.477,284.811 267.477,288.98C267.477,293.149 264.092,296.534 259.923,296.534Z" style="fill:rgb(1,54,123);"/>
        </g>
        <g>
            <path d="M137.569,272.905L137.569,306.252C137.569,310.422 134.184,313.806 130.015,313.806C125.846,313.806 122.461,310.422 122.461,306.252L122.461,272.905C122.461,268.736 125.846,265.352 130.015,265.352C134.184,265.352 137.569,268.736 137.569,272.905Z" style="fill:rgb(126,211,79);"/>
            <path d="M146.689,297.133L113.342,297.133C109.173,297.133 105.788,293.748 105.788,289.579C105.788,285.41 109.173,282.025 113.342,282.025L146.689,282.025C150.858,282.025 154.243,285.41 154.243,289.579C154.243,293.748 150.858,297.133 146.689,297.133Z" style="fill:rgb(126,211,79);"/>
        </g>
        <g>
            <path d="M96.716,163.853L96.716,197.2C96.716,201.37 93.331,204.754 89.162,204.754C84.993,204.754 81.608,201.37 81.608,197.2L81.608,163.853C81.608,159.684 84.993,156.3 89.162,156.3C93.331,156.3 96.716,159.684 96.716,163.853Z" style="fill:rgb(1,54,123);"/>
            <path d="M105.835,188.081L72.488,188.081C68.319,188.081 64.934,184.696 64.934,180.527C64.934,176.358 68.319,172.973 72.488,172.973L105.835,172.973C110.004,172.973 113.389,176.358 113.389,180.527C113.389,184.696 110.004,188.081 105.835,188.081Z" style="fill:rgb(1,54,123);"/>
        </g>
        <g>
            <path d="M141.581,71.389L141.581,104.736C141.581,108.905 138.196,112.29 134.027,112.29C129.858,112.29 126.473,108.905 126.473,104.736L126.473,71.389C126.473,67.22 129.858,63.835 134.027,63.835C138.196,63.835 141.581,67.22 141.581,71.389Z" style="fill:rgb(126,211,79);"/>
            <path d="M150.701,95.616L117.354,95.616C113.185,95.616 109.8,92.232 109.8,88.062C109.8,83.893 113.185,80.508 117.354,80.508L150.701,80.508C154.87,80.508 158.255,83.893 158.255,88.062C158.255,92.232 154.87,95.616 150.701,95.616Z" style="fill:rgb(126,211,79);"/>
        </g>
    </g>
</svg>
