<?xml version="1.0" encoding="UTF-8" standalone="no"?><!DOCTYPE svg PUBLIC "-//W3C//DTD SVG 1.1//EN" "http://www.w3.org/Graphics/SVG/1.1/DTD/svg11.dtd"><svg width="100%" height="100%" viewBox="0 0 344 344" version="1.1" xmlns="http://www.w3.org/2000/svg" xmlns:xlink="http://www.w3.org/1999/xlink" xml:space="preserve" xmlns:serif="http://www.serif.com/" style="fill-rule:evenodd;clip-rule:evenodd;stroke-linejoin:round;stroke-miterlimit:2;"><ellipse cx="172" cy="172" rx="171.038" ry="171" style="fill:#fff;"/><path d="M238.273,91l-132.546,0c-8.137,0 -14.727,6.591 -14.727,14.727l0,132.546c0,8.136 6.59,14.727 14.727,14.727l132.546,0c8.137,0 14.727,-6.591 14.727,-14.727l0,-132.546c0,-8.136 -6.59,-14.727 -14.727,-14.727Zm-96.066,132.545l-21.723,0l0,-69.895l21.723,0l0,69.895Zm-11.083,-79.888c-7.002,0 -12.665,-5.677 -12.665,-12.665c0,-6.988 5.67,-12.658 12.665,-12.658c6.981,0 12.659,5.677 12.659,12.658c0,6.988 -5.678,12.665 -12.659,12.665Zm92.451,79.888l-21.708,0l0,-33.99c0,-8.107 -0.147,-18.534 -11.289,-18.534c-11.303,0 -13.041,8.829 -13.041,17.945l0,34.579l-21.708,0l0,-69.895l20.84,0l0,9.55l0.294,0c2.901,-5.493 9.985,-11.288 20.552,-11.288c21.995,0 26.06,14.477 26.06,33.298l0,38.335Z" style="fill:#01377d;fill-rule:nonzero;"/></svg>