<?xml version="1.0" encoding="UTF-8" standalone="no"?>
<!DOCTYPE svg PUBLIC "-//W3C//DTD SVG 1.1//EN" "http://www.w3.org/Graphics/SVG/1.1/DTD/svg11.dtd">
<svg width="100%" height="100%" viewBox="0 0 344 344" version="1.1" xmlns="http://www.w3.org/2000/svg" xmlns:xlink="http://www.w3.org/1999/xlink" xml:space="preserve" xmlns:serif="http://www.serif.com/" style="fill-rule:evenodd;clip-rule:evenodd;stroke-linejoin:round;stroke-miterlimit:2;">
    <g transform="matrix(11.148,-3.00976e-34,0,11.148,4.78072,4.78072)">
        <path d="M25.827,4.786L4.352,4.786C1.273,4.786 1.198,4.823 1.198,7.992L1.198,22.367C1.198,25.177 1.184,25.214 4.083,25.214L25.558,25.214C28.816,25.214 28.802,25.177 28.802,22.367L28.802,7.992C28.802,4.823 28.727,4.786 25.827,4.786ZM10.954,22L8.004,22L8.004,12.508L10.954,12.508L10.954,22ZM9.449,11.151C8.498,11.151 7.729,10.38 7.729,9.431C7.729,8.482 8.499,7.712 9.449,7.712C10.397,7.712 11.168,8.483 11.168,9.431C11.168,10.38 10.397,11.151 9.449,11.151ZM22.004,22L19.056,22L19.056,17.384C19.056,16.283 19.036,14.867 17.523,14.867C15.988,14.867 15.752,16.066 15.752,17.304L15.752,22L12.804,22L12.804,12.508L15.634,12.508L15.634,13.805L15.674,13.805C16.068,13.059 17.03,12.272 18.465,12.272C21.452,12.272 22.004,14.238 22.004,16.794L22.004,22Z" style="fill:rgb(1,55,125);fill-rule:nonzero;"/>
    </g>
</svg>
