<?xml version="1.0" encoding="UTF-8" standalone="no"?>
<!DOCTYPE svg PUBLIC "-//W3C//DTD SVG 1.1//EN" "http://www.w3.org/Graphics/SVG/1.1/DTD/svg11.dtd">
<svg width="100%" height="100%" viewBox="0 0 909 432" version="1.1" xmlns="http://www.w3.org/2000/svg" xmlns:xlink="http://www.w3.org/1999/xlink" xml:space="preserve" xmlns:serif="http://www.serif.com/" style="fill-rule:evenodd;clip-rule:evenodd;stroke-linejoin:round;stroke-miterlimit:2;">
    <g>
        <path d="M533.557,178.212L533.557,298.578C533.557,389.199 478.997,431.057 396.844,431.057C368.111,431.057 337.879,425.884 312.644,411.867L343.605,322.08C355.07,329.588 370.234,336.721 387.299,336.721C410.623,336.721 426.519,321.901 426.519,296.981L426.519,71.243L426.592,71.243L533.557,178.212Z" style="fill:#01377d;"/>
        <g>
            <g>
                <path d="M264.993,425.62L395.355,72.158L273.982,72.158L197.66,310.079L121.373,72.158L-0,72.158L130.362,425.62L264.993,425.62Z" style="fill:#01377d;fill-rule:nonzero;"/>
            </g>
        </g>
        <path d="M745.709,431.001C841.12,431.001 888.288,374.844 908.939,327.677L816.72,285.264C807.731,312.822 780.173,336.666 745.709,336.666C696.944,336.666 662.514,297.446 662.514,248.161C662.514,198.877 696.944,159.692 745.709,159.692C780.173,159.692 807.731,183.536 816.72,211.094L908.939,168.16C887.732,119.396 841.12,65.356 745.709,65.356C637.594,65.356 553.879,139.006 553.879,248.161C553.879,356.831 637.594,431.001 745.709,431.001Z" style="fill:#01377d;fill-rule:nonzero;"/>
        <path d="M460.447,-0L589.552,-0L589.552,128.842L460.447,-0Z" style="fill:#7ed348;fill-rule:nonzero;"/>
        <path d="M425.1,41.043L552.633,41.043L552.633,168.376L425.1,41.043Z" style="fill:#26b170;fill-rule:nonzero;"/>
    </g>
</svg>
