<?xml version="1.0" encoding="UTF-8" standalone="no"?>
<!DOCTYPE svg PUBLIC "-//W3C//DTD SVG 1.1//EN" "http://www.w3.org/Graphics/SVG/1.1/DTD/svg11.dtd">
<svg width="100%" height="100%" viewBox="0 0 1486 1189" version="1.1" xmlns="http://www.w3.org/2000/svg" xmlns:xlink="http://www.w3.org/1999/xlink" xml:space="preserve" xmlns:serif="http://www.serif.com/" style="fill-rule:evenodd;clip-rule:evenodd;stroke-linejoin:round;stroke-miterlimit:2;">
    <g transform="matrix(1,0,0,1,-40340.4,-23896.5)">
        <g transform="matrix(1,0,0,1,39329.2,23235.3)">
            <g transform="matrix(1,0,0,0.800295,-39905.1,-18295)">
                <rect x="40916.3" y="23686.5" width="1485.51" height="1485.51" style="fill:white;"/>
            </g>
            <g transform="matrix(1.17619,0,0,1.17619,-178.986,-210.621)">
                <g transform="matrix(-1.64864,-6.48991e-31,-6.87545e-31,-1.64864,4857.43,2860.43)">
                    <path d="M1876.64,1086.83L1969.26,1179.45L1876.64,1179.45L1876.64,1086.83Z" style="fill:rgb(126,211,72);"/>
                </g>
                <g transform="matrix(-1.64864,-6.48991e-31,-6.87545e-31,-1.64864,4836.74,2881.29)">
                    <path d="M1876.64,1086.83L1969.26,1179.45L1876.64,1179.45L1876.64,1086.83Z" style="fill:rgb(38,177,112);"/>
                </g>
                <g transform="matrix(1.1694,0,0,1.1694,-20801.4,-1129.16)">
                    <path d="M18832.4,2291.54L18953.8,2291.54L19132,1794.55L19004.9,1794.55L18892.7,2138.89L18780.5,1794.55L18653.4,1794.55L18832.4,2291.54Z" style="fill:rgb(1,55,125);fill-rule:nonzero;"/>
                </g>
                <g transform="matrix(2.53826,0,0,2.53826,-26515.2,-3471.87)">
                    <path d="M11073.5,1896.82L11073.5,1749.72L11073.5,1749.72L11125.9,1802.09L11125.9,1896.82C11125.9,1946.39 11101.6,1978.69 11050.4,1978.69C11033.5,1978.69 11017.6,1974.74 11004.8,1967.02L11023.8,1914.2C11023.8,1914.2 11035.4,1926.24 11050.4,1926.24C11068,1926.24 11073.5,1913.13 11073.5,1896.82Z" style="fill:rgb(1,55,125);"/>
                </g>
                <g transform="matrix(1.12061,0,0,1.12061,-20075.5,-1029.67)">
                    <path d="M19739,2302.9C19824.9,2302.9 19898.8,2261.72 19944.9,2197.82L19850.5,2129.66C19825.6,2163.74 19785.9,2186.46 19739,2186.46C19660.2,2186.46 19595.6,2122.56 19595.6,2043.04C19595.6,1964.23 19660.2,1900.34 19739,1900.34C19785.9,1900.34 19825.6,1922.35 19850.5,1957.13L19944.9,1888.27C19898.8,1825.08 19824.9,1783.9 19739,1783.9C19595.6,1783.9 19479.2,1899.62 19479.2,2043.04C19479.2,2187.17 19595.6,2302.9 19739,2302.9Z" style="fill:rgb(1,55,125);fill-rule:nonzero;"/>
                </g>
            </g>
        </g>
    </g>
</svg>
