<?xml version="1.0" encoding="UTF-8" standalone="no"?>
<!DOCTYPE svg PUBLIC "-//W3C//DTD SVG 1.1//EN" "http://www.w3.org/Graphics/SVG/1.1/DTD/svg11.dtd">
<svg width="100%" height="100%" viewBox="0 0 1763 1189" version="1.1" xmlns="http://www.w3.org/2000/svg" xmlns:xlink="http://www.w3.org/1999/xlink" xml:space="preserve" xmlns:serif="http://www.serif.com/" style="fill-rule:evenodd;clip-rule:evenodd;stroke-linejoin:round;stroke-miterlimit:2;">
    <g transform="matrix(1,0,0,1,-40057.2,-23881)">
        <g transform="matrix(1,0,0,1,39329.2,23235.3)">
            <g transform="matrix(1,0,0,1,-217.727,54.4951)">
                <g transform="matrix(1.18647,0,0,0.800295,-47600.2,-18365)">
                    <rect x="40916.3" y="23686.5" width="1485.51" height="1485.51" style="fill:white;"/>
                </g>
                <g transform="matrix(3.23452,0,0,3.23452,565.327,-418.507)">
                    <path d="M437.461,473.582L437.461,545.74C437.461,600.068 404.753,625.161 355.502,625.161C338.277,625.161 320.153,622.06 305.025,613.657L323.586,559.83C330.459,564.331 339.55,568.607 349.78,568.607C363.763,568.607 373.292,559.723 373.292,544.783L373.292,409.454L373.336,409.454L437.461,473.582Z" style="fill:rgb(1,55,125);"/>
                    <g transform="matrix(1,0,0,1,123.318,621.695)">
                        <g>
                            <path d="M153.14,0.207L231.292,-211.692L158.529,-211.692L112.774,-69.06L67.04,-211.692L-5.722,-211.692L72.429,0.207L153.14,0.207Z" style="fill:rgb(1,55,125);fill-rule:nonzero;"/>
                        </g>
                    </g>
                    <g transform="matrix(1,0,0,1,443.923,621.113)">
                        <path d="M120.723,4.015C177.921,4.015 206.198,-29.651 218.579,-57.928L163.294,-83.354C157.905,-66.833 141.384,-52.539 120.723,-52.539C91.489,-52.539 70.848,-76.051 70.848,-105.597C70.848,-135.143 91.489,-158.634 120.723,-158.634C141.384,-158.634 157.905,-144.34 163.294,-127.819L218.579,-153.557C205.865,-182.791 177.921,-215.188 120.723,-215.188C55.909,-215.188 5.722,-171.035 5.722,-105.597C5.722,-40.45 55.909,4.015 120.723,4.015Z" style="fill:rgb(1,55,125);fill-rule:nonzero;"/>
                    </g>
                    <g transform="matrix(1,0,0,1,0.566286,-0.401157)">
                        <path d="M393.066,367.146L470.464,367.146L470.464,444.386L393.066,367.146Z" style="fill:rgb(126,211,72);fill-rule:nonzero;"/>
                    </g>
                    <path d="M372.442,391.349L448.897,391.349L448.897,467.685L372.442,391.349Z" style="fill:rgb(38,177,112);fill-rule:nonzero;"/>
                </g>
            </g>
        </g>
    </g>
</svg>
