<?xml version="1.0" encoding="UTF-8" standalone="no"?>
<!DOCTYPE svg PUBLIC "-//W3C//DTD SVG 1.1//EN" "http://www.w3.org/Graphics/SVG/1.1/DTD/svg11.dtd">
<svg width="100%" height="100%" viewBox="0 0 2841 1348" version="1.1" xmlns="http://www.w3.org/2000/svg" xmlns:xlink="http://www.w3.org/1999/xlink" xml:space="preserve" xmlns:serif="http://www.serif.com/" style="fill-rule:evenodd;clip-rule:evenodd;stroke-linejoin:round;stroke-miterlimit:2;">
    <g>
        <path d="M1667.37,556.911L1667.37,933.055C1667.37,1216.25 1496.87,1347.05 1240.14,1347.05C1150.35,1347.05 1055.87,1330.89 977.013,1287.08L1073.77,1006.5C1109.59,1029.96 1156.98,1052.25 1210.31,1052.25C1283.2,1052.25 1332.87,1005.94 1332.87,928.066L1332.87,222.633L1333.1,222.633L1667.37,556.911Z" style="fill:white;"/>
        <g>
            <g>
                <path d="M828.103,1330.06L1235.48,225.493L856.194,225.493L617.688,968.996L379.289,225.493L-0,225.493L407.381,1330.06L828.103,1330.06Z" style="fill:white;fill-rule:nonzero;"/>
            </g>
        </g>
        <path d="M2330.34,1346.88C2628.5,1346.88 2775.9,1171.39 2840.43,1023.99L2552.25,891.449C2524.16,977.568 2438.04,1052.08 2330.34,1052.08C2177.95,1052.08 2070.36,929.519 2070.36,775.504C2070.36,621.489 2177.95,499.036 2330.34,499.036C2438.04,499.036 2524.16,573.549 2552.25,659.668L2840.43,525.501C2774.16,373.113 2628.5,204.238 2330.34,204.238C1992.48,204.238 1730.87,434.393 1730.87,775.504C1730.87,1115.1 1992.48,1346.88 2330.34,1346.88Z" style="fill:white;fill-rule:nonzero;"/>
        <path d="M1438.9,0L1842.35,0L1842.35,402.632L1438.9,0Z" style="fill:rgb(126,211,72);fill-rule:nonzero;"/>
        <path d="M1328.44,128.259L1726.98,128.259L1726.98,526.177L1328.44,128.259Z" style="fill:rgb(38,177,112);fill-rule:nonzero;"/>
    </g>
</svg>
