<?xml version="1.0" encoding="UTF-8" standalone="no"?><!DOCTYPE svg PUBLIC "-//W3C//DTD SVG 1.1//EN" "http://www.w3.org/Graphics/SVG/1.1/DTD/svg11.dtd"><svg width="100%" height="100%" viewBox="0 0 3508 2481" version="1.1" xmlns="http://www.w3.org/2000/svg" xmlns:xlink="http://www.w3.org/1999/xlink" xml:space="preserve" xmlns:serif="http://www.serif.com/" style="fill-rule:evenodd;clip-rule:evenodd;stroke-linejoin:round;stroke-miterlimit:2;"><g><g id="logo_editable"><g><path d="M2023.07,1113.51l0,409.6c0,308.389 -185.664,450.827 -465.234,450.827c-97.777,0 -200.656,-17.602 -286.529,-65.301l105.36,-305.545c39.014,25.549 90.618,49.822 148.688,49.822c79.374,0 133.464,-50.43 133.464,-135.236l0,-768.185l0.25,0l364.001,364.018Z" style="fill:#01377d;"/><g><g><path d="M1109.15,1955.44l443.624,-1202.83l-413.034,0l-259.725,809.641l-259.605,-809.641l-413.029,0l443.619,1202.83l458.15,0Z" style="fill:#01377d;fill-rule:nonzero;"/></g></g><g><path d="M2745.03,1973.75c324.68,0 485.192,-191.103 555.472,-351.615l-313.821,-144.329c-30.59,93.78 -124.371,174.919 -241.651,174.919c-165.945,0 -283.112,-133.464 -283.112,-301.18c0,-167.715 117.167,-301.06 283.112,-301.06c117.28,0 211.061,81.139 241.651,174.919l313.821,-146.1c-72.17,-165.945 -230.792,-349.844 -555.472,-349.844c-367.912,0 -652.795,250.631 -652.795,622.085c0,369.803 284.883,622.205 652.795,622.205Z" style="fill:#01377d;fill-rule:nonzero;"/></g><g><path d="M1774.28,507.06l439.344,0l0,438.447l-439.344,-438.447Z" style="fill:#7ed348;fill-rule:nonzero;"/></g><path d="M1653.99,646.723l433.992,0l0,433.316l-433.992,-433.316Z" style="fill:#26b170;fill-rule:nonzero;"/></g></g></g></svg>