<?xml version="1.0" encoding="UTF-8" standalone="no"?><!DOCTYPE svg PUBLIC "-//W3C//DTD SVG 1.1//EN" "http://www.w3.org/Graphics/SVG/1.1/DTD/svg11.dtd"><svg width="100%" height="100%" viewBox="0 0 15466 10338" version="1.1" xmlns="http://www.w3.org/2000/svg" xmlns:xlink="http://www.w3.org/1999/xlink" xml:space="preserve" xmlns:serif="http://www.serif.com/" style="fill-rule:evenodd;clip-rule:evenodd;stroke-linejoin:round;stroke-miterlimit:2;"><g><g id="logo_editable"><g><path d="M9078.14,4533.806l0,2047.986c0,1541.935 -928.314,2254.12 -2326.154,2254.12c-488.882,0 -1003.273,-88.009 -1432.635,-326.503l526.796,-1527.715c195.069,127.744 453.087,249.108 743.435,249.108c396.867,0 667.315,-252.148 667.315,-676.175l0,-3840.899l1.25,0l1819.993,1820.078Z" style="fill:#01377d;"/><g><g><path d="M4508.571,8743.427l2218.105,-6014.109l-2065.156,0l-1298.616,4048.178l-1298.016,-4048.178l-2065.131,0l2218.08,6014.109l2290.734,0Z" style="fill:#01377d;fill-rule:nonzero;"/></g></g><g><path d="M12687.915,8834.976c1623.389,0 2425.944,-955.509 2777.341,-1758.063l-1569.094,-721.64c-152.949,468.897 -621.851,874.589 -1208.247,874.589c-829.719,0 -1415.55,-667.315 -1415.55,-1505.89c0,-838.569 585.831,-1505.29 1415.55,-1505.29c586.396,0 1055.298,405.692 1208.247,874.589l1569.094,-730.495c-360.848,-829.719 -1153.952,-1749.208 -2777.341,-1749.208c-1839.548,0 -3263.953,1253.146 -3263.953,3110.404c0,1849.002 1424.405,3111.004 3263.953,3111.004Z" style="fill:#01377d;fill-rule:nonzero;"/></g><g><path d="M7834.198,1501.576l2196.705,0l0,2192.22l-2196.705,-2192.22Z" style="fill:#7ed348;fill-rule:nonzero;"/></g><path d="M7232.752,2199.886l2169.945,0l0,2166.565l-2169.945,-2166.565Z" style="fill:#26b170;fill-rule:nonzero;"/></g></g></g></svg>