<?xml version="1.0" encoding="UTF-8" standalone="no"?><!DOCTYPE svg PUBLIC "-//W3C//DTD SVG 1.1//EN" "http://www.w3.org/Graphics/SVG/1.1/DTD/svg11.dtd"><svg width="100%" height="100%" viewBox="0 0 344 344" version="1.1" xmlns="http://www.w3.org/2000/svg" xmlns:xlink="http://www.w3.org/1999/xlink" xml:space="preserve" xmlns:serif="http://www.serif.com/" style="fill-rule:evenodd;clip-rule:evenodd;stroke-linejoin:round;stroke-miterlimit:2;"><ellipse cx="172" cy="172" rx="171.038" ry="171" style="fill:#fff;"/><path d="M264,220.677l0,-97.354c0,-8.979 -7.248,-16.226 -16.226,-16.226l-151.548,0c-8.978,0 -16.226,7.247 -16.226,16.226l0,97.354c0,8.979 7.248,16.226 16.226,16.226l151.548,0c8.978,0 16.226,-7.247 16.226,-16.226Zm-14.17,-98.544c3.569,3.569 1.622,7.247 -0.325,9.086l-43.918,40.24l42.187,43.918c1.298,1.514 2.164,3.894 0.649,5.517c-1.406,1.73 -4.651,1.622 -6.057,0.541l-47.271,-40.349l-23.149,21.094l-23.041,-21.094l-47.271,40.349c-1.406,1.081 -4.651,1.189 -6.057,-0.541c-1.515,-1.623 -0.649,-4.003 0.649,-5.517l42.187,-43.918l-43.918,-40.24c-1.947,-1.839 -3.894,-5.517 -0.325,-9.086c3.57,-3.57 7.248,-1.839 10.277,0.757l67.499,54.519l67.607,-54.519c3.029,-2.596 6.707,-4.327 10.277,-0.757Z" style="fill:#01377d;fill-rule:nonzero;"/></svg>