<?xml version="1.0" encoding="UTF-8" standalone="no"?>
<!DOCTYPE svg PUBLIC "-//W3C//DTD SVG 1.1//EN" "http://www.w3.org/Graphics/SVG/1.1/DTD/svg11.dtd">
<svg width="100%" height="100%" viewBox="0 0 344 344" version="1.1" xmlns="http://www.w3.org/2000/svg" xmlns:xlink="http://www.w3.org/1999/xlink" xml:space="preserve" xmlns:serif="http://www.serif.com/" style="fill-rule:evenodd;clip-rule:evenodd;stroke-linecap:round;stroke-linejoin:round;">
    <g transform="matrix(13.951,0.0493911,-0.047982,13.553,-35.4084,-30.8907)">
        <path d="M24.93,6.171L5.07,6.171C3.965,6.171 3.07,7.066 3.07,8.171L3.07,21.829C3.07,22.934 3.965,23.829 5.07,23.829L24.93,23.829C26.035,23.829 26.93,22.934 26.93,21.829L26.93,8.171C26.93,7.066 26.035,6.171 24.93,6.171Z" style="fill:rgb(1,55,125);fill-rule:nonzero;"/>
    </g>
    <g id="mail-alt-svgrepo-com" transform="matrix(0.541318,0.00191644,-0.00183805,0.519175,172,172)">
        <g transform="matrix(1,0,0,1,-400,-400)">
            <g transform="matrix(1.01167,0,0,1,-4.66667,0)">
                <path d="M133.333,600L300,391M666.667,600L500,391M100,230.667L340.833,418.22C362.217,432.477 372.907,439.607 384.463,442.373C394.677,444.823 405.323,444.823 415.537,442.373C427.093,439.607 437.783,432.477 459.167,418.22L700,230.667M206.667,633.333L593.333,633.333C630.67,633.333 649.34,633.333 663.6,626.067C676.143,619.677 686.343,609.477 692.733,596.933C700,582.673 700,564.003 700,526.667L700,237.333C700,237.333 700,217.328 692.733,203.067C686.343,190.523 676.143,180.324 663.6,173.933C649.34,166.667 630.67,166.667 593.333,166.667L206.667,166.667C169.33,166.667 150.661,166.667 136.401,173.933C123.856,180.324 113.658,190.523 107.266,203.067C100,217.328 100,237.333 100,237.333L100,526.667C100,564.003 100,582.673 107.266,596.933C113.658,609.477 123.856,619.677 136.401,626.067C150.661,633.333 169.33,633.333 206.667,633.333Z" style="fill:none;fill-rule:nonzero;stroke:white;stroke-width:49.71px;"/>
            </g>
        </g>
    </g>
</svg>
