<?xml version="1.0" encoding="UTF-8" standalone="no"?>
<!DOCTYPE svg PUBLIC "-//W3C//DTD SVG 1.1//EN" "http://www.w3.org/Graphics/SVG/1.1/DTD/svg11.dtd">
<svg width="100%" height="100%" viewBox="0 0 125 125" version="1.1" xmlns="http://www.w3.org/2000/svg" xmlns:xlink="http://www.w3.org/1999/xlink" xml:space="preserve" xmlns:serif="http://www.serif.com/" style="fill-rule:evenodd;clip-rule:evenodd;stroke-linejoin:round;stroke-miterlimit:2;">
    <g transform="matrix(0.0328339,0,0,0.0328339,26.1364,21.4576)">
        <g id="Microsoft-365">
            <path d="M890.615,88.394L878.155,96.008C858.543,108.006 839.854,121.388 822.319,135.924L858.313,110.775L1162.88,110.775L1218.25,530.01L941.375,806.885L664.5,999.313L664.5,1221.27C664.5,1376.32 745.486,1520.07 878.155,1600.13L1169.57,1776.64L553.75,2135.89L434.924,2135.89L213.655,2001.83C80.986,1921.54 0,1778.02 0,1622.97L0,876.796C0,721.746 80.986,577.771 213.655,497.708L878.155,95.777C882.308,93.162 886.461,90.701 890.615,88.394Z" style="fill:url(#_Radial1);fill-rule:nonzero;"/>
            <path d="M890.615,88.394L878.155,96.008C858.543,108.006 839.854,121.388 822.319,135.924L858.313,110.775L1162.88,110.775L1218.25,530.01L941.375,806.885L664.5,999.313L664.5,1221.27C664.5,1376.32 745.486,1520.07 878.155,1600.13L1169.57,1776.64L553.75,2135.89L434.924,2135.89L213.655,2001.83C80.986,1921.54 0,1778.02 0,1622.97L0,876.796C0,721.746 80.986,577.771 213.655,497.708L878.155,95.777C882.308,93.162 886.461,90.701 890.615,88.394Z" style="fill:url(#_Linear2);fill-rule:nonzero;"/>
            <path d="M2159.62,1360.63L2215,1443.7L2215,1622.97C2215,1777.79 2134.01,1921.54 2001.35,2001.83L1336.85,2404.22C1195.87,2489.59 1019.13,2489.59 878.155,2404.22L229.114,2011.29C367.321,2087.66 536.445,2084.66 672.345,2002.29L1336.85,1600.13C1469.51,1519.84 1550.5,1376.09 1550.5,1221.04L1550.5,973.01L2159.62,1360.63Z" style="fill:url(#_Radial3);fill-rule:nonzero;"/>
            <path d="M2159.62,1360.63L2215,1443.7L2215,1622.97C2215,1777.79 2134.01,1921.54 2001.35,2001.83L1336.85,2404.22C1195.87,2489.59 1019.13,2489.59 878.155,2404.22L229.114,2011.29C367.321,2087.66 536.445,2084.66 672.345,2002.29L1336.85,1600.13C1469.51,1519.84 1550.5,1376.09 1550.5,1221.04L1550.5,973.01L2159.62,1360.63Z" style="fill:url(#_Linear4);fill-rule:nonzero;"/>
            <path d="M2215,876.796L2215,1622.97C2215,1627.74 2214.92,1632.59 2214.77,1637.51C2209.92,1488 2129.86,1350.71 2001.35,1272.96L1336.85,871.027C1195.87,785.658 1019.13,785.658 878.155,871.027L664.5,1000.24L664.5,475.096C664.5,320.046 745.486,176.302 878.155,96.008L891.307,87.933C1030.21,10.408 1200.25,13.176 1336.85,95.777L2001.35,497.708C2134.01,577.771 2215,721.746 2215,876.796Z" style="fill:url(#_Radial5);fill-rule:nonzero;"/>
            <path d="M2215,876.796L2215,1622.97C2215,1627.74 2214.92,1632.59 2214.77,1637.51C2209.92,1488 2129.86,1350.71 2001.35,1272.96L1336.85,871.027C1195.87,785.658 1019.13,785.658 878.155,871.027L664.5,1000.24L664.5,475.096C664.5,320.046 745.486,176.302 878.155,96.008L891.307,87.933C1030.21,10.408 1200.25,13.176 1336.85,95.777L2001.35,497.708C2134.01,577.771 2215,721.746 2215,876.796Z" style="fill:url(#_Linear6);fill-rule:nonzero;"/>
        </g>
    </g>
    <defs>
        <radialGradient id="_Radial1" cx="0" cy="0" r="1" gradientUnits="userSpaceOnUse" gradientTransform="matrix(1847.68,0,0,1847.68,742.948,509.936)"><stop offset="0" style="stop-color:rgb(174,127,226);stop-opacity:1"/><stop offset="0.06" style="stop-color:rgb(174,127,226);stop-opacity:1"/><stop offset="1" style="stop-color:rgb(0,120,212);stop-opacity:1"/></radialGradient>
        <linearGradient id="_Linear2" x1="0" y1="0" x2="1" y2="0" gradientUnits="userSpaceOnUse" gradientTransform="matrix(-263.723,-455.921,455.921,-263.723,748.255,2017.75)"><stop offset="0" style="stop-color:rgb(17,74,139);stop-opacity:1"/><stop offset="1" style="stop-color:rgb(0,120,212);stop-opacity:0"/></linearGradient>
        <radialGradient id="_Radial3" cx="0" cy="0" r="1" gradientUnits="userSpaceOnUse" gradientTransform="matrix(1719.39,0,0,1719.39,356.015,1933.77)"><stop offset="0" style="stop-color:rgb(213,157,255);stop-opacity:1"/><stop offset="0.13" style="stop-color:rgb(213,157,255);stop-opacity:1"/><stop offset="1" style="stop-color:rgb(94,67,143);stop-opacity:1"/></radialGradient>
        <linearGradient id="_Linear4" x1="0" y1="0" x2="1" y2="0" gradientUnits="userSpaceOnUse" gradientTransform="matrix(-282.643,405.16,-405.16,-282.643,2013.34,1326.03)"><stop offset="0" style="stop-color:rgb(73,52,116);stop-opacity:1"/><stop offset="1" style="stop-color:rgb(140,102,186);stop-opacity:0"/></linearGradient>
        <radialGradient id="_Radial5" cx="0" cy="0" r="1" gradientUnits="userSpaceOnUse" gradientTransform="matrix(1379.99,0,0,1379.99,2051.87,1388.55)"><stop offset="0" style="stop-color:rgb(80,230,255);stop-opacity:1"/><stop offset="0.06" style="stop-color:rgb(80,230,255);stop-opacity:1"/><stop offset="1" style="stop-color:rgb(67,109,205);stop-opacity:1"/></radialGradient>
        <linearGradient id="_Linear6" x1="0" y1="0" x2="1" y2="0" gradientUnits="userSpaceOnUse" gradientTransform="matrix(416.005,0,0,416.005,718.491,90.2398)"><stop offset="0" style="stop-color:rgb(45,63,128);stop-opacity:1"/><stop offset="1" style="stop-color:rgb(67,109,205);stop-opacity:0"/></linearGradient>
    </defs>
</svg>
