<?xml version="1.0" encoding="UTF-8" standalone="no"?>
<!DOCTYPE svg PUBLIC "-//W3C//DTD SVG 1.1//EN" "http://www.w3.org/Graphics/SVG/1.1/DTD/svg11.dtd">
<svg width="100%" height="100%" viewBox="0 0 125 125" version="1.1" xmlns="http://www.w3.org/2000/svg" xmlns:xlink="http://www.w3.org/1999/xlink" xml:space="preserve" xmlns:serif="http://www.serif.com/" style="fill-rule:evenodd;clip-rule:evenodd;stroke-linejoin:round;stroke-miterlimit:2;">
    <g transform="matrix(0.787402,0,0,0.787402,62.5,62.5)">
        <g id="myob-logo-vector" transform="matrix(0.559964,0,0,0.559964,0,8.88178e-15)">
            <g transform="matrix(1,0,0,1,-141.75,-58.2)">
                <g>
                    <path d="M46.8,34.2C42.4,28.9 35.7,25.6 27.4,25.6C10.8,25.5 0,37.3 0,52.7L0,88L5.1,88C8.6,87.8 15.4,86.1 15.6,76L15.6,52.4C15.6,45.5 20.4,40.8 27.4,40.8C37.7,40.8 38.8,49 38.8,52.4L38.8,88L43.9,88C47.3,87.8 54.1,86.1 54.4,76.1L54.4,52.4C54.4,45.5 59.4,40.8 66.2,40.8C76.5,40.8 77.7,49 77.7,52.4L77.7,88L82.8,88C86.3,87.8 93.2,86.1 93.3,75.8L93.3,52.7C93.3,36.7 83.2,25.5 66.2,25.5C58.3,25.5 51.4,28.9 46.8,34.2" style="fill:url(#_Linear1);fill-rule:nonzero;"/>
                    <path d="M138.3,33.8L125.2,70.2L110.9,32.5C108.7,26.5 103.1,26.9 103.1,26.9L90.9,26.9L115.1,86.1C115.1,86 115.1,86 115,85.9C115,85.9 115,86 115.1,86.1C115.1,86.2 115.2,86.3 115.2,86.3L115.1,86C115.9,88.4 115.7,89.7 114.9,92.1L114.4,93.6C111.6,100.6 107.6,102.5 99.2,102L99.2,102.1L105,116.4C115.8,116.2 124,112.6 129.4,99.1L158.5,26.9L147.6,26.9C147.1,26.9 140.9,27.1 138.3,33.8" style="fill:url(#_Linear2);fill-rule:nonzero;"/>
                    <path d="M170.1,57.7C170.1,47.2 176.8,39.8 185.1,39.8C193.4,39.8 200.1,47.1 200.1,57.7C200.1,68 193.4,75.1 185.1,75.1C176.8,75.1 170.1,68 170.1,57.7M154.5,57.6C154.5,75.8 168.2,89.4 185.1,89.4C202,89.4 215.8,75.8 215.8,57.6C215.8,39.4 202,25.6 185.1,25.6C168.2,25.5 154.5,39.4 154.5,57.6" style="fill:url(#_Linear3);fill-rule:nonzero;"/>
                    <path d="M236.6,57.7C236.6,48 243.6,40.2 252.2,40.2C260.8,40.2 267.8,47.8 267.8,57.7C267.8,67.4 260.8,74.8 252.2,74.8C243.6,74.9 236.6,67.2 236.6,57.7M233.4,0C222.8,0 221.1,7.2 220.9,10.6L220.9,88L228.4,88C234.4,88.1 235.8,84.3 235.9,82.1L235.9,81.5C240.6,86.5 247.1,89.3 254.5,89.3C270.5,89.3 283.5,75.6 283.5,57.6C283.5,39.5 270.5,25.8 254.5,25.8C247.5,25.8 241.3,28.4 236.6,32.9L236.6,0L233.4,0Z" style="fill:url(#_Linear4);fill-rule:nonzero;"/>
                </g>
            </g>
            <g>
            </g>
        </g>
    </g>
    <defs>
        <linearGradient id="_Linear1" x1="0" y1="0" x2="1" y2="0" gradientUnits="userSpaceOnUse" gradientTransform="matrix(283.465,0,0,283.465,0,58.2083)"><stop offset="0" style="stop-color:rgb(97,0,165);stop-opacity:1"/><stop offset="0.36" style="stop-color:rgb(97,0,165);stop-opacity:1"/><stop offset="0.46" style="stop-color:rgb(112,1,160);stop-opacity:1"/><stop offset="0.64" style="stop-color:rgb(152,2,147);stop-opacity:1"/><stop offset="0.89" style="stop-color:rgb(217,5,126);stop-opacity:1"/><stop offset="0.97" style="stop-color:rgb(237,6,119);stop-opacity:1"/><stop offset="1" style="stop-color:rgb(237,6,119);stop-opacity:1"/></linearGradient>
        <linearGradient id="_Linear2" x1="0" y1="0" x2="1" y2="0" gradientUnits="userSpaceOnUse" gradientTransform="matrix(283.465,0,0,283.465,0,58.2083)"><stop offset="0" style="stop-color:rgb(97,0,165);stop-opacity:1"/><stop offset="0.36" style="stop-color:rgb(97,0,165);stop-opacity:1"/><stop offset="0.46" style="stop-color:rgb(112,1,160);stop-opacity:1"/><stop offset="0.64" style="stop-color:rgb(152,2,147);stop-opacity:1"/><stop offset="0.89" style="stop-color:rgb(217,5,126);stop-opacity:1"/><stop offset="0.97" style="stop-color:rgb(237,6,119);stop-opacity:1"/><stop offset="1" style="stop-color:rgb(237,6,119);stop-opacity:1"/></linearGradient>
        <linearGradient id="_Linear3" x1="0" y1="0" x2="1" y2="0" gradientUnits="userSpaceOnUse" gradientTransform="matrix(283.465,0,0,283.465,0,58.2083)"><stop offset="0" style="stop-color:rgb(97,0,165);stop-opacity:1"/><stop offset="0.36" style="stop-color:rgb(97,0,165);stop-opacity:1"/><stop offset="0.46" style="stop-color:rgb(112,1,160);stop-opacity:1"/><stop offset="0.64" style="stop-color:rgb(152,2,147);stop-opacity:1"/><stop offset="0.89" style="stop-color:rgb(217,5,126);stop-opacity:1"/><stop offset="0.97" style="stop-color:rgb(237,6,119);stop-opacity:1"/><stop offset="1" style="stop-color:rgb(237,6,119);stop-opacity:1"/></linearGradient>
        <linearGradient id="_Linear4" x1="0" y1="0" x2="1" y2="0" gradientUnits="userSpaceOnUse" gradientTransform="matrix(283.465,0,0,283.465,0,58.2083)"><stop offset="0" style="stop-color:rgb(97,0,165);stop-opacity:1"/><stop offset="0.36" style="stop-color:rgb(97,0,165);stop-opacity:1"/><stop offset="0.46" style="stop-color:rgb(112,1,160);stop-opacity:1"/><stop offset="0.64" style="stop-color:rgb(152,2,147);stop-opacity:1"/><stop offset="0.89" style="stop-color:rgb(217,5,126);stop-opacity:1"/><stop offset="0.97" style="stop-color:rgb(237,6,119);stop-opacity:1"/><stop offset="1" style="stop-color:rgb(237,6,119);stop-opacity:1"/></linearGradient>
    </defs>
</svg>
