<?xml version="1.0" encoding="UTF-8" standalone="no"?>
<!DOCTYPE svg PUBLIC "-//W3C//DTD SVG 1.1//EN" "http://www.w3.org/Graphics/SVG/1.1/DTD/svg11.dtd">
<svg width="100%" height="100%" viewBox="0 0 125 125" version="1.1" xmlns="http://www.w3.org/2000/svg" xmlns:xlink="http://www.w3.org/1999/xlink" xml:space="preserve" xmlns:serif="http://www.serif.com/" style="fill-rule:evenodd;clip-rule:evenodd;stroke-linejoin:round;stroke-miterlimit:2;">
    <g transform="matrix(1.16822,0,0,1.16822,62.5,62.5)">
        <g id="Nagios" transform="matrix(1,0,0,1,-53.5,-13)">
            <clipPath id="_clip1">
                <rect x="0" y="0" width="107" height="26"/>
            </clipPath>
            <g clip-path="url(#_clip1)">
                <path d="M0.001,24.171C0.62,23.125 1.836,22.576 3.03,22.804C5.79,23.104 8.577,23.088 11.334,22.754C12.24,22.634 13.157,22.628 14.064,22.734L18.308,23.084C18.745,23.114 19.18,23.176 19.608,23.267C19.989,23.322 20.298,23.611 20.377,23.988C20.468,24.403 20.253,24.829 19.865,25.002C19.49,25.218 19.068,25.339 18.635,25.355L14.075,25.139C12.759,25.1 11.442,25.137 10.13,25.251C8.315,25.431 6.486,25.443 4.67,25.285C3.663,25.197 2.643,25.253 1.63,25.235C1.009,25.319 0.387,25.068 0,24.575L0.001,24.171ZM20.337,6.157L20.487,9.609C20.512,10.353 20.488,11.098 20.417,11.839C20.197,13.384 20.197,14.952 20.417,16.497C20.512,17.167 20.491,17.847 20.357,18.51C20.297,19.414 19.537,20.126 18.631,20.126C18.57,20.126 18.509,20.122 18.449,20.116C17.335,20.056 16.229,19.894 15.145,19.634C14.355,19.39 13.682,18.866 13.251,18.161C12.805,17.523 12.394,16.861 12.021,16.177C11.379,14.981 10.588,13.871 9.668,12.873C9.128,12.223 8.641,11.533 8.206,10.811C8.111,10.631 8.004,10.458 7.885,10.294C7.755,10.122 7.551,10.021 7.335,10.021C7.027,10.021 6.754,10.227 6.671,10.524C6.584,10.783 6.541,11.054 6.544,11.327L6.444,15.997C6.433,16.268 6.374,16.534 6.269,16.784C5.945,17.388 5.928,18.112 6.222,18.731C6.278,18.841 6.308,18.963 6.308,19.086C6.308,19.464 6.033,19.791 5.66,19.855C4.507,20.297 3.223,20.261 2.096,19.755C1.482,19.505 1.086,18.905 1.096,18.242L0.976,14.888C0.903,14.192 1.168,13.502 1.689,13.034C1.913,12.827 2.104,12.587 2.256,12.322C2.601,11.822 2.579,11.172 2.203,10.706C1.187,9.368 0.742,7.679 0.968,6.014L1.043,2.668L1.051,1.855C1.041,1.797 1.036,1.738 1.036,1.679C1.036,1.125 1.492,0.669 2.046,0.669C2.147,0.669 2.249,0.685 2.346,0.715C3.194,0.712 4.034,0.555 4.826,0.252C5.023,0.162 5.237,0.115 5.453,0.115C6.108,0.115 6.69,0.543 6.885,1.168C7.013,1.444 7.111,1.733 7.225,2.016C7.387,2.507 7.765,2.899 8.251,3.078C8.76,3.279 9.186,3.646 9.46,4.119L12.648,8.713C12.974,9.189 13.351,9.628 13.772,10.022C14.227,10.435 14.604,10.306 14.678,9.68C14.82,8.709 14.865,7.727 14.813,6.747C14.724,5.227 14.741,3.703 14.864,2.185C14.766,1.665 14.944,1.133 15.334,0.777C15.724,0.421 16.272,0.293 16.779,0.439L17.903,0.503C19,0.441 19.98,1.221 20.165,2.304C20.281,2.729 20.348,3.165 20.367,3.605L20.377,6.148L20.337,6.157ZM44.621,11.65C44.547,10.57 44.645,9.486 44.911,8.438C45.425,6.772 46.916,5.585 48.655,5.458C50.242,5.159 51.884,5.5 53.22,6.407C53.36,6.505 53.504,6.593 53.654,6.672C53.819,6.804 54.024,6.876 54.235,6.876C54.545,6.876 54.836,6.721 55.008,6.463C56.173,5.562 57.762,5.418 59.07,6.095C59.93,6.715 60.246,7.849 59.833,8.825C59.238,10.273 59.118,11.874 59.491,13.395L59.811,16.527L60.078,19.959C60.113,21.118 59.731,22.253 59.002,23.155C58.339,24.01 57.509,24.72 56.562,25.243C56.062,25.615 55.402,25.695 54.827,25.455C53.598,24.94 52.216,24.921 50.972,25.4C49.942,25.767 48.826,25.832 47.76,25.588C46.335,25.314 45.133,24.356 44.548,23.028C44.175,22.517 44.205,21.81 44.62,21.333C45.072,20.889 45.76,20.793 46.318,21.093L46.785,21.291L47.24,21.517C48.66,22.042 50.142,22.367 51.577,22.834C51.768,22.882 51.964,22.906 52.161,22.906C53.38,22.906 54.416,21.981 54.555,20.77C54.664,20.14 54.684,19.498 54.613,18.863C54.614,18.848 54.614,18.834 54.614,18.819C54.614,18.441 54.303,18.129 53.924,18.129C53.814,18.129 53.706,18.156 53.608,18.206C53.094,18.369 52.601,18.59 52.138,18.866C51.288,19.381 50.285,19.566 49.305,19.416C47.89,19.208 46.707,18.234 46.231,16.886C45.965,16.083 45.541,15.342 44.985,14.705C44.756,14.375 44.635,13.982 44.638,13.581C44.585,12.939 44.624,12.281 44.624,11.647L44.621,11.65ZM54.785,12.676C54.691,12.047 54.554,11.425 54.375,10.814C54.023,9.681 52.973,8.899 51.786,8.887C50.617,9.039 49.657,9.899 49.377,11.044C49.337,11.137 49.311,11.235 49.3,11.336C49.288,12.175 49.324,13.015 49.406,13.85C49.486,14.796 50.173,15.578 51.101,15.777C52.101,16.066 53.182,15.769 53.893,15.009C54.451,14.358 54.768,13.533 54.788,12.675L54.785,12.676ZM24.615,16.218L24.615,15.405C24.547,14.611 24.853,13.83 25.443,13.305C26.033,12.78 26.84,12.54 27.623,12.685C27.792,12.697 27.96,12.721 28.126,12.756C28.829,12.93 29.574,12.773 30.147,12.33C30.971,11.726 31.96,11.386 32.982,11.355C33.452,11.325 33.919,11.255 34.372,11.117C34.807,11.012 35.182,10.737 35.414,10.354C35.646,9.971 35.714,9.511 35.604,9.077C35.591,8.783 35.457,8.508 35.234,8.317C35.011,8.127 34.719,8.034 34.427,8.065C32.718,7.974 31.039,8.55 29.746,9.671C29.564,9.868 29.314,9.988 29.047,10.008C28.069,10.013 27.094,9.916 26.147,9.718C25.497,9.64 25.001,9.082 25.001,8.427C25.001,7.935 25.281,7.484 25.721,7.264C27.242,5.98 29.228,5.378 31.206,5.6C32.28,5.763 33.373,5.744 34.441,5.545C37.039,5.24 39.444,6.955 40.001,9.511C40.051,9.98 40.005,10.455 39.864,10.905C39.548,11.878 39.605,12.935 40.024,13.868C40.188,14.344 40.213,14.857 40.096,15.346C39.935,16.142 39.942,16.962 40.114,17.755C40.304,18.225 40.224,18.763 39.91,19.161C39.596,19.559 39.09,19.758 38.59,19.683C38.05,19.693 37.506,19.673 36.966,19.707C36.356,19.805 35.734,19.604 35.296,19.167C35.139,18.982 34.913,18.869 34.671,18.854C34.429,18.839 34.19,18.924 34.011,19.087C33.838,19.25 33.635,19.377 33.413,19.461L28.53,20.311C27.819,20.33 27.113,20.187 26.466,19.892C25.29,19.521 24.518,18.379 24.614,17.149L24.62,16.229L24.615,16.218ZM31.512,17.514C31.681,17.525 31.85,17.51 32.015,17.471L35.635,15.931C35.9,15.788 36.066,15.51 36.066,15.209C36.066,14.947 35.94,14.7 35.728,14.546C35.151,13.716 34.108,13.351 33.138,13.636C32.774,13.706 32.403,13.736 32.033,13.72C31.595,13.729 31.158,13.773 30.726,13.85C29.831,14.081 29.276,14.998 29.488,15.898C29.468,16.715 30.091,17.405 30.906,17.466C31.106,17.5 31.311,17.501 31.513,17.514L31.512,17.514ZM89.882,12.634C89.811,14.098 89.436,15.531 88.78,16.842C88.323,17.642 87.664,18.305 86.87,18.769C86.366,19.129 85.721,19.231 85.13,19.044C84.478,18.797 83.737,18.979 83.272,19.499C82.765,20.01 82.011,20.197 81.324,19.981C80.427,19.809 79.514,19.726 78.601,19.734C77.922,19.73 77.264,19.49 76.743,19.054L74.607,17.509C74.147,17.205 73.867,16.697 73.849,16.147C73.799,15.097 73.566,14.064 73.16,13.095C72.746,11.813 72.996,10.41 73.827,9.349C73.957,9.152 74.157,9.009 74.384,8.946C75.216,8.719 75.908,8.139 76.276,7.359C76.709,6.259 77.901,5.687 79.026,6.016C79.224,6.067 79.431,6.075 79.632,6.04C81.1,5.838 82.589,5.846 84.054,6.066C86.176,6.076 88.099,7.319 88.98,9.25C89.52,10.3 89.83,11.454 89.883,12.634L89.882,12.634ZM84.305,13.184C84.412,12.131 84.188,11.07 83.663,10.151C83.228,9.282 82.336,8.732 81.365,8.732C80.637,8.732 79.943,9.041 79.456,9.581C78.074,11.351 77.902,13.781 79.021,15.726C79.797,16.659 81.051,17.056 82.222,16.74C83.355,16.395 84.162,15.381 84.243,14.199L84.306,13.182L84.305,13.184ZM99.802,5.27L103.222,5.668C103.909,5.843 104.563,6.128 105.159,6.513C105.497,6.737 105.769,7.047 105.946,7.412C106.153,7.693 106.191,8.065 106.046,8.382C105.901,8.699 105.596,8.914 105.246,8.942C103.941,9.488 102.456,9.38 101.243,8.65C100.799,8.403 100.317,8.231 99.817,8.142C99.211,8.001 98.573,8.145 98.086,8.532C97.779,8.702 97.588,9.026 97.586,9.377C97.584,9.728 97.77,10.054 98.073,10.23C98.199,10.345 98.348,10.431 98.51,10.482C99.689,10.904 100.919,11.167 102.167,11.264C102.916,11.224 103.658,11.43 104.279,11.852C104.8,12.165 105.336,12.451 105.885,12.71C106.819,13.116 107.402,14.06 107.347,15.076C107.267,17.366 106.383,18.833 104.125,19.22C103.28,19.288 102.457,19.527 101.706,19.92C101.46,20.034 101.192,20.093 100.921,20.093L98.695,20.283C96.974,20.177 95.295,19.707 93.77,18.903C93.604,18.785 93.451,18.651 93.312,18.503C92.97,18.268 92.766,17.879 92.766,17.465C92.766,16.808 93.28,16.255 93.935,16.208C94.859,16.003 95.808,15.933 96.752,16.001C97.24,16.133 97.679,16.401 98.019,16.775C98.756,17.451 99.762,17.756 100.75,17.604C101.187,17.553 101.61,17.418 101.996,17.206C102.396,17.006 102.654,16.579 102.626,16.124C102.598,15.669 102.296,15.277 101.866,15.13C101.684,15.042 101.481,15.003 101.294,14.924C100.663,14.688 100.047,14.414 99.448,14.104C98.635,13.606 97.679,13.39 96.73,13.492C95.09,13.777 93.486,12.822 92.955,11.242C92.389,9.66 92.913,7.894 94.25,6.876C95.402,5.906 96.866,5.382 98.373,5.403C98.853,5.415 99.335,5.368 99.803,5.263L99.802,5.27ZM69.139,11.388C69.106,11.82 69.114,12.255 69.165,12.686L69.555,17.94C69.563,18.013 69.567,18.086 69.567,18.159C69.567,19.229 68.687,20.109 67.617,20.109C67.513,20.109 67.409,20.101 67.306,20.084C66.186,20.111 65.136,19.537 64.553,18.579C63.97,17.623 63.943,16.423 64.483,15.442C64.889,14.506 64.977,13.462 64.732,12.471L64.102,8.165C64.065,7.795 64.096,7.42 64.194,7.06C64.314,6.286 64.99,5.722 65.774,5.743C66.416,5.701 67.061,5.714 67.701,5.78C68.184,5.785 68.644,5.992 68.968,6.35C69.292,6.708 69.453,7.186 69.411,7.667L69.411,8.887C69.456,8.901 69.241,10.561 69.141,11.389L69.139,11.388ZM66.889,0.04L67.193,0.04C67.906,-0.04 68.597,0.318 68.941,0.947C69.284,1.575 69.214,2.353 68.763,2.909C68.57,3.278 68.186,3.51 67.769,3.509C67.095,3.534 66.421,3.505 65.752,3.422C65.352,3.413 64.975,3.23 64.72,2.922C64.461,2.61 64.342,2.222 64.393,1.827C64.39,0.909 65.069,0.132 65.978,0.012C66.28,-0.015 66.585,0.012 66.888,0.012L66.888,0.039L66.889,0.04Z" style="fill-rule:nonzero;"/>
            </g>
        </g>
        <g id="Nagios1" serif:id="Nagios">
        </g>
    </g>
</svg>
