<?xml version="1.0" encoding="UTF-8" standalone="no"?>
<!DOCTYPE svg PUBLIC "-//W3C//DTD SVG 1.1//EN" "http://www.w3.org/Graphics/SVG/1.1/DTD/svg11.dtd">
<svg width="100%" height="100%" viewBox="0 0 125 125" version="1.1" xmlns="http://www.w3.org/2000/svg" xmlns:xlink="http://www.w3.org/1999/xlink" xml:space="preserve" xmlns:serif="http://www.serif.com/" style="fill-rule:evenodd;clip-rule:evenodd;stroke-linejoin:round;stroke-miterlimit:2;">
    <g transform="matrix(0.0434871,0,0,0.0434871,-4.37427,58.7697)">
        <g id="Layer-1" serif:id="Layer 1">
            <g>
                <g transform="matrix(4.7899,0,0,4.7899,-3.40343e-14,-1446.65)">
                    <path d="M556.7,295.2C556.8,359.2 556.8,357.1 558.8,365.6C562.1,379.9 569.8,389.8 582.6,396C590.8,400 595.9,400.9 610.3,401L620.9,401L621.1,373.6L611.9,373.4C597.7,373.1 593.3,371.2 589.5,363.4C586.3,357 586,353.1 586.1,325.2L586.2,303.2L620.8,303L620.8,276.8L586.2,276.6L586,236.2L556.6,236.2L556.7,295.2ZM235.8,272.8C226.4,273.8 217.9,277.6 210.9,283.8L208.5,286L208.5,276.8L181.3,276.8L181.3,399.4L210.7,399.4L210.7,366.1C210.7,326.2 210.8,324.9 214.3,318.1C219.7,307.5 229.1,302 241.8,302C255.9,301.9 264.4,308.2 269,322C271.3,329.1 271.3,328 271.4,365.4L271.5,399.4L300.1,399.4L300.1,358.6L301.5,362.3C317.6,405.1 370.7,417.5 403.2,386.1C406.9,382.5 410.7,377.8 410.6,376.9C410.5,376.2 388.2,362.8 387.1,362.8C386.8,362.8 386.2,363.3 385.9,363.8C378.8,376 357.6,379.6 343.6,371C337,367 330.3,358.6 328.5,352.3L328.3,351.5L419.5,351.5L420.1,354.7C429.1,400.6 482.4,419.3 515.6,388.2L518.4,385.6L518.4,399.4L545.6,399.4L545.6,276.8L518.4,276.8L518.4,291.2L514.9,287.7C485.6,258.5 435.2,273.2 421.9,314.9L420.6,319L419.3,315C399.8,256.6 316.6,259.2 300.2,318.7L299.2,322.3L298.4,318.9C290.9,287.8 266.1,269.6 235.8,272.8ZM369.5,301.2C381,304.1 388.6,312 391.8,323.9L392.7,327.2L327.7,327.2L327.9,326.2C332.2,307.6 350.9,296.4 369.5,301.2ZM490.7,301.1C526.9,310.2 526.1,367.5 489.7,375.2C468.6,379.6 448.9,363.2 447.9,340.3C446.9,314.8 468,295.4 490.7,301.1Z" style="fill:rgb(128,128,132);fill-rule:nonzero;"/>
                </g>
                <g transform="matrix(4.7899,0,0,4.7899,-3.40343e-14,-1446.65)">
                    <path d="M76.5,277.7C76.5,278.8 110.6,343.2 111.2,343.2C111.8,343.2 145.9,278.8 145.9,277.7C145.9,277.2 141.9,277.2 111.2,277.2C80.5,277.1 76.5,277.2 76.5,277.7ZM38.3,366.6C28.8,384.6 21,399.6 21,399.8C21,400.1 31.1,400.2 55.9,400.2C85.9,400.2 90.8,400.1 90.7,399.7C90.5,398.6 56.2,333.8 55.9,333.8C55.7,333.8 47.8,348.5 38.3,366.6Z" style="fill:rgb(22,150,211);fill-rule:nonzero;"/>
                </g>
            </g>
        </g>
    </g>
</svg>
