<?xml version="1.0" encoding="UTF-8" standalone="no"?><!DOCTYPE svg PUBLIC "-//W3C//DTD SVG 1.1//EN" "http://www.w3.org/Graphics/SVG/1.1/DTD/svg11.dtd"><svg width="100%" height="100%" viewBox="0 0 125 125" version="1.1" xmlns="http://www.w3.org/2000/svg" xmlns:xlink="http://www.w3.org/1999/xlink" xml:space="preserve" xmlns:serif="http://www.serif.com/" style="fill-rule:evenodd;clip-rule:evenodd;stroke-linejoin:round;stroke-miterlimit:2;"><g><g><path d="M43.658,69.892l-2.576,0l0,-12.018l3.362,0l3.953,6.906l0,-6.906l2.567,0l0,12.018l-2.726,0l-4.58,-8.184l0,8.184Z" style="fill-rule:nonzero;"/><path d="M61.081,57.876l-7.861,0l0,12.016l7.861,0l0,-2.31l-5.074,0l0,-2.923l4.691,-0.001l0,-2.407l-4.676,0l0,-2.014l5.059,0l0,-2.361Z" style="fill-rule:nonzero;"/><path d="M62.709,57.876l9.513,0l0,2.361l-3.357,0l0,9.655l-2.78,0l0.001,-9.652c0,0 -2.946,-0.003 -3.377,-0.003l0,-2.361Z" style="fill-rule:nonzero;"/><path d="M66.086,60.24c0,0 -3.244,-0.003 -3.377,-0.003" style="fill-rule:nonzero;"/><path d="M73.956,67.155c0.672,0.398 1.754,1.42 3.591,1.612c2.199,0.23 3.124,-0.956 3.232,-1.971c0.158,-1.503 -1.151,-1.825 -3.09,-2.207c-2.145,-0.423 -3.523,-0.823 -3.724,-3.404c-0.15,-1.935 1.487,-3.673 4.669,-3.541c1.219,0.051 2.508,0.413 3.155,0.836l-0.008,1.879c-0.474,-0.299 -1.639,-1.22 -3.741,-1.328c-1.637,-0.083 -2.531,0.978 -2.538,1.874c-0.017,2.042 1.669,1.813 3.306,2.234c2.271,0.585 3.507,1.158 3.457,3.457c-0.047,2.14 -1.922,3.532 -4.734,3.532c-1.32,0 -2.729,-0.454 -3.575,-0.952l0,-2.021Z" style="fill-rule:nonzero;"/><path d="M86.594,57.876l0,7.155c0,2.682 1.137,3.827 2.665,3.827c1.681,0 2.784,-1.18 2.784,-3.827l0,-7.155l1.494,0l0,7.047c0,3.703 -1.85,5.205 -4.329,5.205c-2.342,0 -4.108,-1.395 -4.108,-5.151l0,-7.101l1.494,0Z" style="fill-rule:nonzero;"/><rect x="97.868" y="57.876" width="1.424" height="12.015"/><path d="M101.778,57.876l9.169,0l0,1.413l-3.879,0l0,10.603l-1.429,0l0,-10.603l-3.861,0l0,-1.413Z" style="fill-rule:nonzero;"/><path d="M120.22,57.876l-7.049,0l0,12.016l7.049,0l0,-1.386l-5.681,0l0,-4.475l5.681,0l0,-1.409l-5.681,0l0,-3.333l5.681,0l0,-1.413Z" style="fill-rule:nonzero;"/><path d="M4.78,48.112l18.691,0l0,16.004l-7.279,-9.229l-11.412,0l0,-6.775Z" style="fill:#00467f;"/><path d="M16.151,60.973c2.427,3.002 4.756,6.102 7.155,9.13l11.474,0l0,6.785l-18.629,0l0,-15.915Z" style="fill:#00467f;"/><path d="M24.643,54.861l0,-5.375l8.821,0l0,19.431l-5.86,0l0,-14.056l-2.961,0Z" style="fill:#b9c7d4;"/><path d="M12.028,56.04l0,13.942c0.927,0 1.94,0 2.899,-0.001l0,5.49l-8.759,0l0,-19.431l5.86,0Z" style="fill:#b9c7d4;"/></g></g></svg>