<?xml version="1.0" encoding="UTF-8" standalone="no"?>
<!DOCTYPE svg PUBLIC "-//W3C//DTD SVG 1.1//EN" "http://www.w3.org/Graphics/SVG/1.1/DTD/svg11.dtd">
<svg width="100%" height="100%" viewBox="0 0 125 125" version="1.1" xmlns="http://www.w3.org/2000/svg" xmlns:xlink="http://www.w3.org/1999/xlink" xml:space="preserve" xmlns:serif="http://www.serif.com/" style="fill-rule:evenodd;clip-rule:evenodd;stroke-linejoin:round;stroke-miterlimit:2;">
    <g transform="matrix(0.787402,0,0,0.787402,62.5,62.5)">
        <g id="Odoo_logo" transform="matrix(0.264583,0,0,0.264583,0,8.88178e-15)">
            <g transform="matrix(1,0,0,1,-300,-95.5)">
                <clipPath id="_clip1">
                    <rect x="0" y="0" width="600" height="191"/>
                </clipPath>
                <g clip-path="url(#_clip1)">
                    <circle cx="527.5" cy="118.4" r="72.4" style="fill:rgb(136,136,136);"/>
                    <path d="M527.5,161.1C551.1,161.1 570.2,142 570.2,118.4C570.2,94.8 551.1,75.7 527.5,75.7C503.9,75.7 484.8,94.8 484.8,118.4C484.8,142 503.9,161.1 527.5,161.1Z" style="fill:white;fill-rule:nonzero;"/>
                    <circle cx="374" cy="118.4" r="72.4" style="fill:rgb(136,136,136);"/>
                    <path d="M374,161.1C397.6,161.1 416.7,142 416.7,118.4C416.7,94.8 397.6,75.7 374,75.7C350.4,75.7 331.3,94.8 331.3,118.4C331.3,142 350.4,161.1 374,161.1Z" style="fill:white;fill-rule:nonzero;"/>
                    <path d="M294.9,117.8L294.9,118.4C294.9,158.4 262.5,190.8 222.5,190.8C182.5,190.8 150.1,158.4 150.1,118.4C150.1,78.4 182.5,46 222.5,46C238.9,46 254,51.5 266.2,60.6L266.2,14.4C266.2,14.38 266.2,14.36 266.2,14.34C266.2,6.473 272.673,0 280.54,0C280.56,0 280.58,0 280.6,0C288.5,0 295,6.5 295,14.4L295,117.1C295,117.3 295,117.6 294.9,117.8Z" style="fill:rgb(136,136,136);fill-rule:nonzero;"/>
                    <circle cx="222.5" cy="118.4" r="42.7" style="fill:white;"/>
                    <circle cx="72.4" cy="118.2" r="72.4" style="fill:rgb(156,87,137);"/>
                    <circle cx="71.7" cy="118.5" r="42.7" style="fill:white;"/>
                </g>
            </g>
            <g>
            </g>
        </g>
    </g>
</svg>
