<?xml version="1.0" encoding="UTF-8" standalone="no"?>
<!DOCTYPE svg PUBLIC "-//W3C//DTD SVG 1.1//EN" "http://www.w3.org/Graphics/SVG/1.1/DTD/svg11.dtd">
<svg width="100%" height="100%" viewBox="0 0 379 379" version="1.1" xmlns="http://www.w3.org/2000/svg" xmlns:xlink="http://www.w3.org/1999/xlink" xml:space="preserve" xmlns:serif="http://www.serif.com/" style="fill-rule:evenodd;clip-rule:evenodd;stroke-linejoin:round;stroke-miterlimit:0.73;">
    <g>
        <g>
            <path d="M378.185,94.721L378.185,283.697C378.185,335.846 335.846,378.185 283.697,378.185L94.721,378.185C42.571,378.185 0.232,335.846 0.232,283.697L0.232,94.721C0.232,42.571 42.571,0.232 94.721,0.232L283.697,0.232C335.846,0.232 378.185,42.571 378.185,94.721Z" style="fill:white;stroke:white;stroke-width:0.46px;"/>
        </g>
        <g>
            <g>
                <path d="M238.79,124.149L238.79,252.524C238.79,276 219.73,295.06 196.254,295.06L111.181,295.06C87.705,295.06 68.645,276 68.645,252.524L68.645,124.149C68.645,100.673 87.705,81.613 111.181,81.613L196.254,81.613C219.73,81.613 238.79,100.673 238.79,124.149Z" style="fill:rgb(1,54,124);"/>
                <path d="M141.097,126.576L141.097,141.367C141.097,145.449 137.783,148.763 133.701,148.763L114.495,148.763C110.413,148.763 107.099,145.449 107.099,141.367L107.099,126.576C107.099,122.494 110.413,119.18 114.495,119.18L133.701,119.18C137.783,119.18 141.097,122.494 141.097,126.576Z" style="fill:white;"/>
                <path d="M203.576,126.576L203.576,141.367C203.576,145.449 200.262,148.763 196.18,148.763L176.974,148.763C172.892,148.763 169.578,145.449 169.578,141.367L169.578,126.576C169.578,122.494 172.892,119.18 176.974,119.18L196.18,119.18C200.262,119.18 203.576,122.494 203.576,126.576Z" style="fill:white;"/>
                <path d="M141.097,172.301L141.097,187.093C141.097,191.175 137.783,194.489 133.701,194.489L114.495,194.489C110.413,194.489 107.099,191.175 107.099,187.093L107.099,172.301C107.099,168.219 110.413,164.905 114.495,164.905L133.701,164.905C137.783,164.905 141.097,168.219 141.097,172.301Z" style="fill:white;"/>
                <path d="M203.576,172.301L203.576,187.093C203.576,191.175 200.262,194.489 196.18,194.489L176.974,194.489C172.892,194.489 169.578,191.175 169.578,187.093L169.578,172.301C169.578,168.219 172.892,164.905 176.974,164.905L196.18,164.905C200.262,164.905 203.576,168.219 203.576,172.301Z" style="fill:white;"/>
                <path d="M203.576,220.691L203.576,235.483C203.576,239.565 200.262,242.879 196.18,242.879L176.974,242.879C172.892,242.879 169.578,239.565 169.578,235.483L169.578,220.691C169.578,216.609 172.892,213.295 176.974,213.295L196.18,213.295C200.262,213.295 203.576,216.609 203.576,220.691Z" style="fill:white;"/>
                <path d="M141.097,220.691L141.097,235.483C141.097,239.565 137.783,242.879 133.701,242.879L114.495,242.879C110.413,242.879 107.099,239.565 107.099,235.483L107.099,220.691C107.099,216.609 110.413,213.295 114.495,213.295L133.701,213.295C137.783,213.295 141.097,216.609 141.097,220.691Z" style="fill:white;"/>
                <g>
                    <path d="M310.607,164.334L310.607,264.697C310.607,281.455 297.002,295.06 280.244,295.06L219.519,295.06C202.762,295.06 189.157,281.455 189.157,264.697L189.157,164.334C189.157,147.576 202.762,133.971 219.519,133.971L280.244,133.971C297.002,133.971 310.607,147.576 310.607,164.334Z" style="fill:rgb(126,211,79);"/>
                    <path d="M243.698,172.131L243.698,186.923C243.698,191.004 240.384,194.318 236.302,194.318L217.096,194.318C213.014,194.318 209.7,191.004 209.7,186.923L209.7,172.131C209.7,168.049 213.014,164.735 217.096,164.735L236.302,164.735C240.384,164.735 243.698,168.049 243.698,172.131Z" style="fill:white;"/>
                    <path d="M290.064,172.131L290.064,186.923C290.064,191.004 286.75,194.318 282.668,194.318L263.462,194.318C259.38,194.318 256.066,191.004 256.066,186.923L256.066,172.131C256.066,168.049 259.38,164.735 263.462,164.735L282.668,164.735C286.75,164.735 290.064,168.049 290.064,172.131Z" style="fill:white;"/>
                    <path d="M290.064,220.521L290.064,235.313C290.064,239.395 286.75,242.709 282.668,242.709L263.462,242.709C259.38,242.709 256.066,239.395 256.066,235.313L256.066,220.521C256.066,216.439 259.38,213.125 263.462,213.125L282.668,213.125C286.75,213.125 290.064,216.439 290.064,220.521Z" style="fill:white;"/>
                    <path d="M243.698,220.521L243.698,235.313C243.698,239.395 240.384,242.709 236.302,242.709L217.096,242.709C213.014,242.709 209.7,239.395 209.7,235.313L209.7,220.521C209.7,216.439 213.014,213.125 217.096,213.125L236.302,213.125C240.384,213.125 243.698,216.439 243.698,220.521Z" style="fill:white;"/>
                </g>
            </g>
            <path d="M275.462,107.737L276.263,111.638C277.814,111.875 279.334,112.283 280.796,112.853L283.441,109.875C284.921,110.547 286.332,111.362 287.655,112.307L286.398,116.087C287.622,117.068 288.735,118.181 289.716,119.405L293.496,118.148C294.441,119.471 295.256,120.882 295.928,122.362L292.95,125.007C293.52,126.469 293.928,127.989 294.165,129.54L298.066,130.341C298.224,131.959 298.224,133.589 298.066,135.207L294.165,136.008C293.928,137.559 293.52,139.079 292.95,140.541L295.928,143.186C295.256,144.666 294.441,146.077 293.496,147.4L289.716,146.143C288.735,147.367 287.622,148.48 286.398,149.461L287.655,153.241C286.332,154.186 284.921,155.001 283.441,155.673L280.796,152.695C279.334,153.265 277.814,153.673 276.263,153.91L275.462,157.811C273.844,157.969 272.214,157.969 270.596,157.811L269.795,153.91C268.244,153.673 266.724,153.265 265.262,152.695L262.617,155.673C261.137,155.001 259.726,154.186 258.403,153.241L259.66,149.461C258.436,148.48 257.323,147.367 256.342,146.143L252.562,147.4C251.617,146.077 250.802,144.666 250.13,143.186L253.108,140.541C252.538,139.079 252.13,137.559 251.893,136.008L247.992,135.207C247.834,133.589 247.834,131.959 247.992,130.341L251.893,129.54C252.13,127.989 252.538,126.469 253.108,125.007L250.13,122.362C250.802,120.882 251.617,119.471 252.562,118.148L256.342,119.405C257.323,118.181 258.436,117.068 259.66,116.087L258.403,112.307C259.726,111.362 261.137,110.547 262.617,109.875L265.262,112.853C266.724,112.283 268.244,111.875 269.795,111.638L270.596,107.737C272.214,107.579 273.844,107.579 275.462,107.737ZM273.029,120.814C279.63,120.814 284.989,126.173 284.989,132.774C284.989,139.375 279.63,144.734 273.029,144.734C266.428,144.734 261.069,139.375 261.069,132.774C261.069,126.173 266.428,120.814 273.029,120.814Z" style="fill:rgb(1,54,123);"/>
            <path d="M238.347,270.002L239.148,273.904C240.699,274.141 242.219,274.548 243.681,275.118L246.326,272.14C247.805,272.813 249.217,273.628 250.539,274.573L249.283,278.353C250.507,279.334 251.62,280.446 252.601,281.671L256.38,280.414C257.326,281.737 258.14,283.148 258.813,284.628L255.835,287.273C256.405,288.734 256.812,290.255 257.05,291.805L260.951,292.607C261.108,294.225 261.108,295.854 260.951,297.473L257.05,298.274C256.812,299.825 256.405,301.345 255.835,302.807L258.813,305.451C258.14,306.931 257.326,308.343 256.38,309.665L252.601,308.409C251.62,309.633 250.507,310.746 249.283,311.727L250.539,315.506C249.217,316.451 247.805,317.266 246.326,317.939L243.681,314.961C242.219,315.531 240.699,315.938 239.148,316.176L238.347,320.077C236.729,320.234 235.099,320.234 233.481,320.077L232.68,316.176C231.129,315.938 229.609,315.531 228.147,314.961L225.502,317.939C224.022,317.266 222.611,316.451 221.288,315.506L222.545,311.727C221.32,310.746 220.208,309.633 219.227,308.409L215.447,309.665C214.502,308.343 213.687,306.931 213.014,305.451L215.992,302.807C215.422,301.345 215.015,299.825 214.778,298.274L210.876,297.473C210.719,295.854 210.719,294.225 210.876,292.607L214.778,291.805C215.015,290.255 215.422,288.734 215.992,287.273L213.014,284.628C213.687,283.148 214.502,281.737 215.447,280.414L219.227,281.671C220.208,280.446 221.32,279.334 222.545,278.353L221.288,274.573C222.611,273.628 224.022,272.813 225.502,272.14L228.147,275.118C229.609,274.548 231.129,274.141 232.68,273.904L233.481,270.002C235.099,269.845 236.729,269.845 238.347,270.002ZM235.914,283.08C242.515,283.08 247.874,288.439 247.874,295.04C247.874,301.641 242.515,307 235.914,307C229.313,307 223.954,301.641 223.954,295.04C223.954,288.439 229.313,283.08 235.914,283.08Z" style="fill:rgb(1,54,123);"/>
        </g>
    </g>
</svg>
