<?xml version="1.0" encoding="UTF-8" standalone="no"?>
<!DOCTYPE svg PUBLIC "-//W3C//DTD SVG 1.1//EN" "http://www.w3.org/Graphics/SVG/1.1/DTD/svg11.dtd">
<svg width="100%" height="100%" viewBox="0 0 379 379" version="1.1" xmlns="http://www.w3.org/2000/svg" xmlns:xlink="http://www.w3.org/1999/xlink" xml:space="preserve" xmlns:serif="http://www.serif.com/" style="fill-rule:evenodd;clip-rule:evenodd;stroke-linejoin:round;stroke-miterlimit:0.73;">
    <g>
        <g>
            <path d="M378.185,94.721L378.185,283.697C378.185,335.846 335.846,378.185 283.697,378.185L94.721,378.185C42.571,378.185 0.232,335.846 0.232,283.697L0.232,94.721C0.232,42.571 42.571,0.232 94.721,0.232L283.697,0.232C335.846,0.232 378.185,42.571 378.185,94.721Z" style="fill:white;stroke:white;stroke-width:0.46px;"/>
        </g>
        <path d="M160.995,94.106C151.057,97.761 140.021,92.661 136.365,82.722C132.71,72.784 137.811,61.748 147.749,58.093C162.337,52.727 178.099,49.792 194.542,49.792C210.985,49.792 226.748,52.727 241.336,58.093C251.274,61.748 256.375,72.784 252.719,82.722C249.064,92.661 238.028,97.761 228.09,94.106C217.632,90.259 206.33,88.164 194.542,88.164C182.754,88.164 171.453,90.259 160.995,94.106ZM270.895,125.194C264.332,116.885 265.749,104.81 274.059,98.246C282.369,91.683 294.444,93.1 301.007,101.41C319.221,124.469 330.096,153.573 330.096,185.194C330.096,186.935 330.063,188.669 329.997,190.394C329.596,200.976 320.679,209.241 310.097,208.839C299.516,208.437 291.251,199.52 291.653,188.939C291.7,187.696 291.724,186.448 291.724,185.194C291.724,162.55 283.938,141.707 270.895,125.194ZM275.301,239.154C281.209,230.367 293.14,228.028 301.927,233.936C310.715,239.844 313.053,251.775 307.145,260.563C289.442,286.897 262.718,306.682 231.414,315.514C221.223,318.39 210.615,312.45 207.739,302.259C204.864,292.068 210.803,281.46 220.994,278.584C243.446,272.249 262.603,258.042 275.301,239.154ZM168.091,278.584C178.282,281.46 184.221,292.068 181.346,302.259C178.47,312.45 167.862,318.39 157.671,315.514C126.367,306.682 99.643,286.897 81.939,260.563C76.031,251.775 78.37,239.844 87.157,233.937C95.945,228.029 107.876,230.367 113.784,239.155C126.482,258.043 145.638,272.249 168.091,278.584ZM97.432,188.939C97.833,199.52 89.569,208.437 78.987,208.839C68.406,209.241 59.489,200.976 59.087,190.394C59.022,188.669 58.989,186.935 58.989,185.194C58.989,153.573 69.864,124.469 88.077,101.41C94.641,93.1 106.716,91.683 115.026,98.246C123.335,104.81 124.753,116.885 118.189,125.194C105.146,141.707 97.361,162.55 97.361,185.194C97.361,186.448 97.384,187.696 97.432,188.939Z" style="fill:rgb(124,210,76);"/>
        <path d="M247.682,200.073L247.682,216.192C247.682,228.415 237.763,242.762 225.541,242.762L163.544,242.762C151.322,242.762 141.402,228.415 141.402,216.192L141.402,200.073C145.175,202.702 149.487,204.457 154.023,205.21L173.64,208.487C175.809,213.173 180.522,216.188 185.686,216.192L203.399,216.192C208.563,216.188 213.275,213.173 215.444,208.487L235.062,205.21C239.598,204.457 243.91,202.702 247.682,200.073Z" style="fill:rgb(1,51,125);fill-rule:nonzero;"/>
        <path d="M229.969,145.339L216.684,145.339L216.684,140.91C216.662,133.631 210.679,127.647 203.399,127.625L185.686,127.625C178.406,127.647 172.422,133.631 172.401,140.91L172.401,145.339L159.115,145.339C146.893,145.339 136.974,159.687 136.974,171.909L136.974,174.61C136.938,185.402 144.832,194.712 155.484,196.442L172.401,199.276L172.401,194.051C172.422,186.771 178.406,180.787 185.686,180.766L203.399,180.766C210.679,180.787 216.662,186.771 216.684,194.051L216.684,199.276L233.6,196.442C244.252,194.712 252.146,185.402 252.111,174.61L252.111,171.909C252.111,159.687 242.191,145.339 229.969,145.339ZM181.257,145.339L181.257,140.91C181.257,138.481 183.256,136.482 185.686,136.482L203.399,136.482C205.828,136.482 207.827,138.481 207.827,140.91L207.827,145.339L181.257,145.339Z" style="fill:rgb(1,51,125);fill-rule:nonzero;"/>
        <path d="M207.827,194.051L207.827,202.907C207.827,205.351 205.843,207.336 203.399,207.336L185.686,207.336C183.242,207.336 181.257,205.351 181.257,202.907L181.257,194.051C181.257,191.607 183.242,189.622 185.686,189.622L203.399,189.622C205.843,189.622 207.827,191.607 207.827,194.051Z" style="fill:rgb(12,209,42);"/>
    </g>
</svg>
