<?xml version="1.0" encoding="UTF-8" standalone="no"?>
<!DOCTYPE svg PUBLIC "-//W3C//DTD SVG 1.1//EN" "http://www.w3.org/Graphics/SVG/1.1/DTD/svg11.dtd">
<svg width="100%" height="100%" viewBox="0 0 379 379" version="1.1" xmlns="http://www.w3.org/2000/svg" xmlns:xlink="http://www.w3.org/1999/xlink" xml:space="preserve" xmlns:serif="http://www.serif.com/" style="fill-rule:evenodd;clip-rule:evenodd;stroke-linejoin:round;stroke-miterlimit:0.73;">
    <g id="icon">
        <g>
            <path d="M378.185,132.516L378.185,245.902C378.185,318.911 318.911,378.185 245.902,378.185L132.516,378.185C59.507,378.185 0.232,318.911 0.232,245.902L0.232,132.516C0.232,59.507 59.507,0.232 132.516,0.232L245.902,0.232C318.911,0.232 378.185,59.507 378.185,132.516Z" style="fill:white;stroke:white;stroke-width:0.46px;"/>
        </g>
        <g>
            <path d="M206.39,244.079C206.39,246.87 204.124,249.137 201.332,249.137L171.539,249.137C168.747,249.137 166.481,246.87 166.481,244.079C166.481,241.287 168.747,239.021 171.539,239.021L201.332,239.021C204.124,239.021 206.39,241.287 206.39,244.079Z" style="fill:rgb(1,55,125);"/>
            <path d="M173.56,268.07C173.56,265.278 175.826,263.012 178.618,263.012L208.411,263.012C211.203,263.012 213.469,265.278 213.469,268.07C213.469,270.862 211.203,273.128 208.411,273.128L178.618,273.128C175.826,273.128 173.56,270.862 173.56,268.07Z" style="fill:rgb(1,55,125);"/>
            <path d="M191.51,234.069C191.51,232.544 192.427,231.169 193.834,230.581C195.241,229.994 196.864,230.31 197.948,231.383C201.469,234.866 205.821,239.172 209.357,242.67C210.447,243.748 210.777,245.377 210.195,246.794C209.612,248.212 208.231,249.137 206.699,249.137C202.741,249.137 198.333,249.137 195.29,249.137C194.287,249.137 193.326,248.739 192.617,248.03C191.908,247.321 191.51,246.36 191.51,245.357C191.51,242.338 191.51,237.979 191.51,234.069Z" style="fill:rgb(124,210,76);"/>
            <path d="M188.44,278.079C188.44,279.604 187.523,280.98 186.116,281.567C184.709,282.155 183.086,281.839 182.002,280.766C178.481,277.283 174.129,272.977 170.593,269.478C169.503,268.401 169.173,266.772 169.755,265.354C170.338,263.937 171.719,263.012 173.251,263.012C177.209,263.012 181.617,263.012 184.66,263.012C185.663,263.012 186.624,263.41 187.333,264.119C188.042,264.828 188.44,265.789 188.44,266.791C188.44,269.811 188.44,274.17 188.44,278.079Z" style="fill:rgb(124,210,76);"/>
            <g>
                <path d="M273.612,218.729C282.945,218.729 301.611,218.729 310.944,230.134C320.277,241.54 320.277,264.35 310.944,287.16C309.638,290.581 307.921,294.002 305.898,297.378C299.084,308.706 286.832,315.635 273.612,315.635C260.393,315.635 248.14,308.706 241.327,297.378C239.304,294.002 237.587,290.581 236.281,287.16C226.948,264.35 226.948,241.54 236.281,230.134C245.614,218.729 264.279,218.729 273.612,218.729Z" style="fill:rgb(1,55,125);"/>
                <path d="M273.612,240.37C274.806,240.37 277.192,240.37 278.385,241.828C279.579,243.286 279.579,246.203 278.385,249.119C278.385,249.12 278.384,249.122 278.384,249.123C277.627,251.101 275.73,252.407 273.612,252.407C271.495,252.407 269.597,251.101 268.841,249.123C268.841,249.122 268.84,249.12 268.839,249.119C267.646,246.203 267.646,243.286 268.839,241.828C270.033,240.37 272.419,240.37 273.612,240.37Z" style="fill:white;"/>
                <ellipse cx="273.612" cy="256.529" rx="1.197" ry="1.204" style="fill:white;"/>
                <path d="M273.612,183.975C278.844,183.975 289.307,183.975 294.539,190.368C299.771,196.761 299.771,209.548 294.539,222.335C294.539,222.335 294.539,222.335 294.539,222.335C291.225,231.012 282.9,236.744 273.612,236.744C264.324,236.744 255.999,231.012 252.686,222.335C252.686,222.335 252.686,222.335 252.686,222.335C247.454,209.548 247.454,196.761 252.686,190.368C257.917,183.975 268.381,183.975 273.612,183.975Z" style="fill:rgb(124,210,76);"/>
            </g>
            <g>
                <path d="M104.805,218.729C114.138,218.729 132.804,218.729 142.137,230.134C151.47,241.54 151.47,264.35 142.137,287.16C140.83,290.581 139.113,294.002 137.091,297.378C130.277,308.706 118.025,315.635 104.805,315.635C91.585,315.635 79.333,308.706 72.52,297.378C70.497,294.002 68.78,290.581 67.473,287.16C58.14,264.35 58.14,241.54 67.473,230.134C76.806,218.729 95.472,218.729 104.805,218.729Z" style="fill:rgb(1,55,125);"/>
                <path d="M104.805,240.37C105.998,240.37 108.385,240.37 109.578,241.828C110.771,243.286 110.771,246.203 109.578,249.119C109.578,249.12 109.577,249.122 109.577,249.123C108.82,251.101 106.922,252.407 104.805,252.407C102.688,252.407 100.79,251.101 100.034,249.123C100.033,249.122 100.033,249.12 100.032,249.119C98.839,246.203 98.839,243.286 100.032,241.828C101.226,240.37 103.612,240.37 104.805,240.37Z" style="fill:white;"/>
                <ellipse cx="104.805" cy="256.529" rx="1.197" ry="1.204" style="fill:white;"/>
                <path d="M104.805,183.975C110.037,183.975 120.5,183.975 125.732,190.368C130.964,196.761 130.964,209.548 125.732,222.335C125.732,222.335 125.732,222.335 125.732,222.335C122.418,231.012 114.093,236.744 104.805,236.744C95.517,236.744 87.192,231.012 83.879,222.335C83.879,222.335 83.879,222.335 83.879,222.335C78.647,209.548 78.647,196.761 83.879,190.368C89.11,183.975 99.574,183.975 104.805,183.975Z" style="fill:rgb(124,210,76);"/>
            </g>
            <path d="M155.261,131.009C158.054,145.171 148.823,158.936 134.661,161.728C120.499,164.521 106.734,155.29 103.941,141.128C102.881,135.754 102.324,130.203 102.324,124.524C102.324,77.019 141.177,38.307 189.209,38.307C237.241,38.307 276.093,77.019 276.093,124.524C276.093,130.203 275.536,135.754 274.477,141.128C271.684,155.29 257.919,164.521 243.757,161.728C229.595,158.936 220.364,145.171 223.156,131.009C223.57,128.91 223.785,126.742 223.785,124.524C223.785,105.729 208.213,90.615 189.209,90.615C170.205,90.615 154.632,105.729 154.632,124.524C154.632,126.742 154.847,128.91 155.261,131.009Z" style="fill:rgb(124,210,76);"/>
            <ellipse cx="189.209" cy="124.524" rx="60.73" ry="60.063" style="fill:rgb(1,55,125);"/>
            <path d="M208.486,135.614C208.486,138.186 207.823,140.597 206.498,142.847C205.173,145.097 203.223,146.952 200.647,148.411C198.072,149.87 195.034,150.723 191.534,150.97L191.534,156.979L186.734,156.979L186.734,150.896C181.733,150.451 177.708,148.955 174.657,146.408C171.607,143.861 170.032,140.411 169.932,136.059L181.183,136.059C181.483,139.62 183.333,141.771 186.734,142.513L186.734,128.344C183.133,127.454 180.233,126.564 178.033,125.674C175.833,124.783 173.932,123.349 172.332,121.371C170.732,119.393 169.932,116.697 169.932,113.285C169.932,108.982 171.495,105.471 174.62,102.751C177.745,100.031 181.783,98.473 186.734,98.078L186.734,92.069L191.534,92.069L191.534,98.078C196.335,98.473 200.172,99.907 203.048,102.38C205.923,104.853 207.536,108.265 207.886,112.617L196.56,112.617C196.41,111.183 195.897,109.934 195.022,108.871C194.147,107.808 192.984,107.054 191.534,106.609L191.534,120.629C195.284,121.569 198.247,122.471 200.422,123.337C202.598,124.202 204.485,125.612 206.085,127.565C207.686,129.519 208.486,132.202 208.486,135.614ZM180.883,112.766C180.883,114.398 181.383,115.721 182.383,116.735C183.383,117.748 184.833,118.577 186.734,119.22L186.734,106.386C184.933,106.633 183.508,107.301 182.458,108.389C181.408,109.477 180.883,110.936 180.883,112.766ZM191.534,142.661C193.434,142.315 194.922,141.549 195.997,140.362C197.072,139.175 197.61,137.741 197.61,136.059C197.61,134.427 197.085,133.117 196.034,132.127C194.984,131.138 193.484,130.322 191.534,129.679L191.534,142.661Z" style="fill:white;fill-rule:nonzero;"/>
        </g>
    </g>
</svg>
