<?xml version="1.0" encoding="UTF-8" standalone="no"?>
<!DOCTYPE svg PUBLIC "-//W3C//DTD SVG 1.1//EN" "http://www.w3.org/Graphics/SVG/1.1/DTD/svg11.dtd">
<svg width="100%" height="100%" viewBox="0 0 800 800" version="1.1" xmlns="http://www.w3.org/2000/svg" xmlns:xlink="http://www.w3.org/1999/xlink" xml:space="preserve" xmlns:serif="http://www.serif.com/" style="fill-rule:evenodd;clip-rule:evenodd;stroke-linejoin:round;stroke-miterlimit:2;">
    <path d="M551.873,430.207L536.69,445.3C536.69,445.3 500.603,481.183 402.103,383.24C303.604,285.3 339.69,249.419 339.69,249.419L349.25,239.913C372.803,216.495 375.023,178.897 354.473,151.449L312.442,95.303C287.009,61.331 237.865,56.843 208.715,85.828L156.395,137.851C141.941,152.223 132.255,170.853 133.43,191.52C136.435,244.394 160.357,358.157 293.845,490.887C435.403,631.64 568.227,637.233 622.543,632.17C639.723,630.57 654.663,621.82 666.703,609.847L714.057,562.767C746.02,530.983 737.007,476.497 696.11,454.267L632.427,419.647C605.573,405.05 572.86,409.337 551.873,430.207Z" style="fill:rgb(1,55,125);fill-rule:nonzero;"/>
</svg>
