<?xml version="1.0" encoding="UTF-8" standalone="no"?><!DOCTYPE svg PUBLIC "-//W3C//DTD SVG 1.1//EN" "http://www.w3.org/Graphics/SVG/1.1/DTD/svg11.dtd"><svg width="100%" height="100%" viewBox="0 0 344 344" version="1.1" xmlns="http://www.w3.org/2000/svg" xmlns:xlink="http://www.w3.org/1999/xlink" xml:space="preserve" xmlns:serif="http://www.serif.com/" style="fill-rule:evenodd;clip-rule:evenodd;stroke-linejoin:round;stroke-miterlimit:2;"><ellipse cx="172" cy="172" rx="171.038" ry="171" style="fill:#fff;"/><path d="M205.447,194.759l-4.251,4.226c0,0 -10.105,10.047 -37.685,-17.377c-27.579,-27.423 -17.475,-37.47 -17.475,-37.47l2.677,-2.661c6.595,-6.558 7.216,-17.085 1.462,-24.77l-11.769,-15.721c-7.121,-9.512 -20.881,-10.769 -29.043,-2.653l-14.65,14.566c-4.047,4.024 -6.759,9.241 -6.43,15.027c0.842,14.805 7.54,46.659 44.916,83.823c39.636,39.411 76.827,40.977 92.036,39.56c4.81,-0.448 8.993,-2.898 12.364,-6.251l13.26,-13.182c8.949,-8.9 6.426,-24.156 -5.026,-30.38l-17.831,-9.694c-7.519,-4.087 -16.679,-2.887 -22.555,2.957Z" style="fill:#01377d;fill-rule:nonzero;"/></svg>