<?xml version="1.0" encoding="UTF-8" standalone="no"?>
<!DOCTYPE svg PUBLIC "-//W3C//DTD SVG 1.1//EN" "http://www.w3.org/Graphics/SVG/1.1/DTD/svg11.dtd">
<svg width="100%" height="100%" viewBox="0 0 355 355" version="1.1" xmlns="http://www.w3.org/2000/svg" xmlns:xlink="http://www.w3.org/1999/xlink" xml:space="preserve" xmlns:serif="http://www.serif.com/" style="fill-rule:evenodd;clip-rule:evenodd;stroke-linejoin:round;stroke-miterlimit:0.73;">
    <g>
        <g>
            <path d="M354.549,88.801L354.549,265.966C354.549,314.856 314.856,354.549 265.966,354.549L88.801,354.549C39.91,354.549 0.218,314.856 0.218,265.966L0.218,88.801C0.218,39.91 39.91,0.218 88.801,0.218L265.966,0.218C314.856,0.218 354.549,39.91 354.549,88.801Z" style="fill:white;stroke:white;stroke-width:0.44px;"/>
        </g>
        <g>
            <g>
                <g>
                    <circle cx="170.571" cy="182.677" r="100.169" style="fill:none;stroke:rgb(1,55,125);stroke-width:26.32px;stroke-linecap:round;stroke-miterlimit:0.348837;"/>
                    <circle cx="170.571" cy="182.677" r="100.169" style="fill:white;"/>
                    <path d="M216.975,91.053C215.533,92.945 214.282,94.955 213.221,97.084C214.947,97.944 216.646,98.856 218.317,99.818C219.504,97.757 220.488,95.603 221.266,93.356C235.511,101.441 247.616,112.816 256.57,126.531C254.376,127.448 252.287,128.563 250.304,129.876C251.368,131.484 252.384,133.123 253.349,134.792C255.408,133.601 257.337,132.228 259.135,130.671C267.429,144.795 272.225,160.698 273.122,177.053C270.762,176.75 268.396,176.671 266.022,176.817C266.14,178.741 266.2,180.669 266.202,182.597C268.58,182.595 270.937,182.37 273.273,181.92C273.394,198.299 269.595,214.47 262.194,229.082C260.303,227.64 258.293,226.388 256.164,225.327C255.304,227.053 254.392,228.753 253.429,230.423C255.49,231.611 257.644,232.594 259.892,233.373C251.807,247.618 240.432,259.723 226.717,268.677C225.8,266.482 224.685,264.393 223.372,262.41C221.764,263.475 220.124,264.491 218.455,265.456C219.646,267.515 221.02,269.443 222.577,271.242C208.453,279.536 192.55,284.331 176.195,285.228C176.498,282.869 176.577,280.502 176.431,278.128C174.506,278.247 172.579,278.307 170.65,278.308C170.652,280.687 170.878,283.044 171.327,285.379C154.948,285.5 138.778,281.702 124.166,274.301C125.608,272.41 126.859,270.399 127.92,268.271C126.194,267.411 124.495,266.499 122.824,265.536C121.637,267.597 120.654,269.751 119.875,271.998C105.63,263.913 93.525,252.539 84.571,238.823C86.766,237.906 88.854,236.791 90.838,235.478C89.773,233.87 88.757,232.231 87.792,230.562C85.733,231.753 83.804,233.127 82.006,234.684C73.712,220.559 68.917,204.656 68.02,188.301C70.379,188.605 72.745,188.683 75.119,188.538C75.001,186.613 74.941,184.685 74.94,182.757C72.561,182.759 70.204,182.985 67.868,183.434C67.748,167.055 71.546,150.885 78.947,136.272C80.838,137.715 82.848,138.966 84.977,140.027C85.837,138.301 86.749,136.602 87.712,134.931C85.651,133.743 83.497,132.76 81.249,131.981C89.334,117.736 100.709,105.632 114.424,96.678C115.341,98.872 116.456,100.961 117.77,102.944C119.377,101.88 121.017,100.864 122.686,99.898C121.495,97.839 120.121,95.911 118.564,94.113C132.688,85.819 148.591,81.023 164.946,80.126C164.643,82.485 164.564,84.852 164.71,87.226C166.635,87.108 168.562,87.048 170.491,87.046C170.489,84.668 170.263,82.311 169.814,79.975C186.193,79.854 202.363,83.653 216.975,91.053Z" style="fill:rgb(1,55,125);"/>
                </g>
                <path d="M266.095,265.485L177.394,176.784L54.326,152.494C65.927,93.713 117.478,51.342 177.394,51.342C246.627,51.342 302.836,107.551 302.836,176.784C302.836,210.054 289.62,241.96 266.095,265.485Z" style="fill:none;stroke:white;stroke-width:13.87px;stroke-linecap:round;stroke-miterlimit:0.348837;"/>
                <path d="M266.095,265.485L177.394,176.784L54.326,152.494C65.927,93.713 117.478,51.342 177.394,51.342C246.627,51.342 302.836,107.551 302.836,176.784C302.836,210.054 289.62,241.96 266.095,265.485Z" style="fill:rgb(124,210,76);"/>
            </g>
            <path d="M174.483,135.88C174.483,131.487 176.918,128.203 181.788,126.026C178.203,124.472 176.411,121.906 176.411,118.33C176.411,115.104 177.843,112.451 180.706,110.371C183.57,108.292 187.203,107.252 191.605,107.252C196.007,107.252 199.64,108.302 202.503,110.401C205.367,112.5 206.799,115.162 206.799,118.388C206.799,121.926 204.987,124.472 201.364,126.026C206.273,128.203 208.727,131.487 208.727,135.88C208.727,139.534 207.149,142.507 203.994,144.8C200.838,147.094 196.708,148.24 191.605,148.24C186.501,148.24 182.372,147.103 179.216,144.83C176.061,142.556 174.483,139.572 174.483,135.88ZM191.43,114.365C189.871,114.365 188.605,114.715 187.631,115.415C186.657,116.114 186.17,117.028 186.17,118.155C186.17,119.321 186.677,120.283 187.69,121.041C188.703,121.799 189.988,122.178 191.547,122.178C193.105,122.178 194.41,121.799 195.462,121.041C196.514,120.283 197.04,119.341 197.04,118.213C197.04,117.125 196.504,116.212 195.433,115.473C194.361,114.735 193.027,114.365 191.43,114.365ZM191.605,129.641C189.384,129.641 187.563,130.156 186.141,131.186C184.719,132.216 184.008,133.528 184.008,135.122C184.008,136.715 184.69,138.008 186.053,138.999C187.417,139.99 189.229,140.486 191.488,140.486C193.787,140.486 195.637,139.99 197.04,138.999C198.442,138.008 199.143,136.715 199.143,135.122C199.143,133.567 198.432,132.265 197.01,131.215C195.588,130.166 193.787,129.641 191.605,129.641Z" style="fill:white;fill-rule:nonzero;"/>
            <path d="M225.849,109.993L225.849,120.662C227.524,119.224 228.927,118.262 230.056,117.776C231.186,117.29 232.589,117.047 234.264,117.047C237.887,117.047 240.458,118.175 241.977,120.429C242.99,121.945 243.497,124.355 243.497,127.659L243.497,137.687C243.497,139.631 243.886,140.602 244.666,140.602C244.977,140.602 245.25,140.564 245.484,140.486C245.717,140.408 246.029,140.369 246.419,140.369C248.133,140.369 248.99,141.36 248.99,143.343C248.99,146.064 247.841,147.424 245.542,147.424C244.88,147.424 243.906,147.346 242.62,147.191C241.335,147.035 240.361,146.958 239.698,146.958C239.075,146.958 238.15,147.035 236.923,147.191C235.696,147.346 234.77,147.424 234.147,147.424C233.173,147.424 232.384,147.094 231.78,146.433C231.176,145.772 230.874,144.898 230.874,143.809C230.874,141.827 231.615,140.777 233.095,140.661C233.757,140.622 234.166,140.447 234.322,140.136C234.478,139.825 234.556,139.3 234.556,138.562L234.556,129.641C234.556,126.415 233.329,124.802 230.874,124.802C227.524,124.802 225.849,127.115 225.849,131.74L225.849,138.62C225.849,139.436 225.937,139.951 226.112,140.165C226.287,140.379 226.764,140.544 227.544,140.661C228.751,140.855 229.355,141.827 229.355,143.576C229.355,146.141 228.284,147.424 226.141,147.424C225.674,147.424 224.836,147.346 223.628,147.191C222.421,147.035 221.31,146.958 220.297,146.958C219.479,146.958 218.603,147.016 217.668,147.133C216.109,147.327 215.116,147.424 214.687,147.424C213.636,147.424 212.779,147.065 212.116,146.345C211.454,145.626 211.123,144.703 211.123,143.576C211.123,141.36 212.077,140.253 213.986,140.253C214.22,140.253 214.541,140.321 214.95,140.457C215.36,140.593 215.681,140.661 215.915,140.661C216.577,140.661 216.908,139.572 216.908,137.396L216.908,117.98C216.908,115.804 216.577,114.715 215.915,114.715C215.642,114.715 215.291,114.793 214.863,114.948C214.629,115.026 214.317,115.065 213.928,115.065C212.058,115.065 211.123,113.996 211.123,111.858C211.123,110.692 211.454,109.75 212.116,109.03C212.779,108.311 213.636,107.952 214.687,107.952C215.194,107.952 215.934,108.01 216.908,108.127C217.882,108.243 218.622,108.302 219.129,108.302C220.336,108.302 221.379,108.243 222.255,108.127C223.132,108.01 223.804,107.952 224.271,107.952C225.323,107.952 225.849,108.632 225.849,109.993Z" style="fill:white;fill-rule:nonzero;"/>
        </g>
    </g>
</svg>
