<?xml version="1.0" encoding="UTF-8" standalone="no"?>
<!DOCTYPE svg PUBLIC "-//W3C//DTD SVG 1.1//EN" "http://www.w3.org/Graphics/SVG/1.1/DTD/svg11.dtd">
<svg width="100%" height="100%" viewBox="0 0 3885 4986" version="1.1" xmlns="http://www.w3.org/2000/svg" xmlns:xlink="http://www.w3.org/1999/xlink" xml:space="preserve" xmlns:serif="http://www.serif.com/" style="fill-rule:evenodd;clip-rule:evenodd;stroke-linejoin:bevel;stroke-miterlimit:0.348837;">
    <g>
        <g style="filter:url(#_Effect1);">
            <path d="M633.534,1224.55l-0,3552.4c-0,78.224 -63.508,141.732 -141.732,141.732l-283.465,0c-78.224,0 -141.732,-63.508 -141.732,-141.732l-0,-3552.4c-0,-78.224 63.508,-141.732 141.732,-141.732l283.465,-0c78.224,-0 141.732,63.508 141.732,141.732Z" style="fill:none;stroke:url(#_Linear2);stroke-width:37.21px;"/>
        </g>
        <path d="M633.534,1224.55l-0,3552.4c-0,78.224 -63.508,141.732 -141.732,141.732l-283.465,0c-78.224,0 -141.732,-63.508 -141.732,-141.732l-0,-3552.4c-0,-78.224 63.508,-141.732 141.732,-141.732l283.465,-0c78.224,-0 141.732,63.508 141.732,141.732Z" style="fill:url(#_Linear3);"/>
    </g>
    <g>
        <g style="filter:url(#_Effect4);">
            <path d="M1429.69,1977.96l0,2798.99c0,78.224 -63.508,141.732 -141.732,141.732l-283.465,0c-78.224,0 -141.732,-63.508 -141.732,-141.732l0,-2798.99c0,-78.225 63.508,-141.733 141.732,-141.733l283.465,0c78.224,0 141.732,63.508 141.732,141.733Z" style="fill:none;stroke:url(#_Linear5);stroke-width:37.21px;"/>
        </g>
        <path d="M1429.69,1977.96l0,2798.99c0,78.224 -63.508,141.732 -141.732,141.732l-283.465,0c-78.224,0 -141.732,-63.508 -141.732,-141.732l0,-2798.99c0,-78.225 63.508,-141.733 141.732,-141.733l283.465,0c78.224,0 141.732,63.508 141.732,141.733Z" style="fill:url(#_Linear6);"/>
    </g>
    <g>
        <g style="filter:url(#_Effect7);">
            <path d="M2225.84,356.149l-0,4420.8c-0,78.224 -63.508,141.732 -141.732,141.732l-283.465,0c-78.224,0 -141.732,-63.508 -141.732,-141.732l-0,-4420.8c-0,-78.224 63.508,-141.732 141.732,-141.732l283.465,0c78.224,0 141.732,63.508 141.732,141.732Z" style="fill:none;stroke:url(#_Linear8);stroke-width:37.21px;"/>
        </g>
        <path d="M2225.84,356.149l-0,4420.8c-0,78.224 -63.508,141.732 -141.732,141.732l-283.465,0c-78.224,0 -141.732,-63.508 -141.732,-141.732l-0,-4420.8c-0,-78.224 63.508,-141.732 141.732,-141.732l283.465,0c78.224,0 141.732,63.508 141.732,141.732Z" style="fill:url(#_Linear9);"/>
    </g>
    <g>
        <g style="filter:url(#_Effect10);">
            <path d="M3022,1532.15l0,3244.81c0,78.224 -63.508,141.732 -141.732,141.732l-283.464,0c-78.225,0 -141.733,-63.508 -141.733,-141.732l0,-3244.81c0,-78.224 63.508,-141.732 141.733,-141.732l283.464,-0c78.224,-0 141.732,63.508 141.732,141.732Z" style="fill:none;stroke:url(#_Linear11);stroke-width:37.21px;"/>
        </g>
        <path d="M3022,1532.15l0,3244.81c0,78.224 -63.508,141.732 -141.732,141.732l-283.464,0c-78.225,0 -141.733,-63.508 -141.733,-141.732l0,-3244.81c0,-78.224 63.508,-141.732 141.733,-141.732l283.464,-0c78.224,-0 141.732,63.508 141.732,141.732Z" style="fill:url(#_Linear12);"/>
    </g>
    <g>
        <g style="filter:url(#_Effect13);">
            <path d="M3818.15,625.278l0,4151.67c0,78.224 -63.508,141.732 -141.732,141.732l-283.465,0c-78.224,0 -141.732,-63.508 -141.732,-141.732l-0,-4151.67c-0,-78.224 63.508,-141.732 141.732,-141.732l283.465,-0c78.224,-0 141.732,63.508 141.732,141.732Z" style="fill:none;stroke:url(#_Linear14);stroke-width:37.21px;"/>
        </g>
        <path d="M3818.15,625.278l0,4151.67c0,78.224 -63.508,141.732 -141.732,141.732l-283.465,0c-78.224,0 -141.732,-63.508 -141.732,-141.732l-0,-4151.67c-0,-78.224 63.508,-141.732 141.732,-141.732l283.465,-0c78.224,-0 141.732,63.508 141.732,141.732Z" style="fill:url(#_Linear15);"/>
    </g>
    <path d="M377.189,936.993c0,3.76 -0.92,7.34 -2.76,10.74c-1.84,3.4 -4.6,6.22 -8.28,8.46c-3.68,2.24 -8.16,3.48 -13.44,3.72l0,9.6l-5.28,-0l0,-9.72c-7.12,-0.64 -12.88,-2.98 -17.28,-7.02c-4.4,-4.04 -6.76,-9.06 -7.08,-15.06l9,-0c0.32,3.6 1.78,6.86 4.38,9.78c2.6,2.92 6.26,4.7 10.98,5.34l0,-33.24c-5.36,-1.44 -9.66,-2.88 -12.9,-4.32c-3.24,-1.44 -5.98,-3.66 -8.22,-6.66c-2.24,-3 -3.36,-7.02 -3.36,-12.06c0,-6.32 2.2,-11.54 6.6,-15.66c4.4,-4.12 10.36,-6.34 17.88,-6.66l0,-10.08l5.28,-0l0,10.2c6.64,0.64 11.96,2.8 15.96,6.48c4,3.68 6.36,8.28 7.08,13.8l-8.88,-0c-0.48,-2.96 -1.94,-5.72 -4.38,-8.28c-2.44,-2.56 -5.7,-4.16 -9.78,-4.8l0,32.04c5.2,1.36 9.46,2.78 12.78,4.26c3.32,1.48 6.1,3.74 8.34,6.78c2.24,3.04 3.36,7.16 3.36,12.36Zm-45.72,-40.8c0,4.48 1.38,7.86 4.14,10.14c2.76,2.28 6.7,4.18 11.82,5.7l0,-30.84c-4.8,0.24 -8.66,1.64 -11.58,4.2c-2.92,2.56 -4.38,6.16 -4.38,10.8Zm21.24,56.88c5.12,-0.32 9.08,-1.94 11.88,-4.86c2.8,-2.92 4.2,-6.54 4.2,-10.86c0,-4.56 -1.38,-8 -4.14,-10.32c-2.76,-2.32 -6.74,-4.28 -11.94,-5.88l0,31.92Z" style="fill:#01377d;fill-rule:nonzero;stroke:#01377d;stroke-width:0.32px;stroke-linejoin:round;stroke-miterlimit:2;"/>
    <path d="M3561.81,373.844c0,3.76 -0.92,7.34 -2.76,10.74c-1.84,3.4 -4.6,6.22 -8.28,8.46c-3.68,2.24 -8.16,3.48 -13.44,3.72l0,9.6l-5.28,0l0,-9.72c-7.12,-0.64 -12.88,-2.98 -17.28,-7.02c-4.4,-4.04 -6.76,-9.06 -7.08,-15.06l9,0c0.32,3.6 1.78,6.86 4.38,9.78c2.6,2.92 6.26,4.7 10.98,5.34l0,-33.24c-5.36,-1.44 -9.66,-2.88 -12.9,-4.32c-3.24,-1.44 -5.98,-3.66 -8.22,-6.66c-2.24,-3 -3.36,-7.02 -3.36,-12.06c0,-6.32 2.2,-11.54 6.6,-15.66c4.4,-4.12 10.36,-6.34 17.88,-6.66l0,-10.08l5.28,0l0,10.2c6.64,0.64 11.96,2.8 15.96,6.48c4,3.68 6.36,8.28 7.08,13.8l-8.88,0c-0.48,-2.96 -1.94,-5.72 -4.38,-8.28c-2.44,-2.56 -5.7,-4.16 -9.78,-4.8l0,32.04c5.2,1.36 9.46,2.78 12.78,4.26c3.32,1.48 6.1,3.74 8.34,6.78c2.24,3.04 3.36,7.16 3.36,12.36Zm-45.72,-40.8c0,4.48 1.38,7.86 4.14,10.14c2.76,2.28 6.7,4.18 11.82,5.7l0,-30.84c-4.8,0.24 -8.66,1.64 -11.58,4.2c-2.92,2.56 -4.38,6.16 -4.38,10.8Zm21.24,56.88c5.12,-0.32 9.08,-1.94 11.88,-4.86c2.8,-2.92 4.2,-6.54 4.2,-10.86c0,-4.56 -1.38,-8 -4.14,-10.32c-2.76,-2.32 -6.74,-4.28 -11.94,-5.88l0,31.92Z" style="fill:#01377d;fill-rule:nonzero;stroke:#01377d;stroke-width:0.32px;stroke-linejoin:round;stroke-miterlimit:2;"/>
    <path d="M1162.06,1643.81l-0,14.88l16.8,-0l-0,6.24l-17.28,-0c-0.64,5.68 -2.14,10.06 -4.5,13.14c-2.36,3.08 -5.9,5.28 -10.62,6.6c-4.72,1.32 -11.12,1.98 -19.2,1.98l-0,11.28c-0,12 5.28,18 15.84,18c5.12,-0 8.96,-1.48 11.52,-4.44c2.56,-2.96 3.84,-7.2 3.84,-12.72l7.8,-0c-0.08,7.84 -2.12,13.78 -6.12,17.82c-4,4.04 -9.72,6.06 -17.16,6.06c-7.76,-0 -13.64,-2.18 -17.64,-6.54c-4,-4.36 -6,-10.42 -6,-18.18l-0,-17.28c9.36,-0 16.3,-0.36 20.82,-1.08c4.52,-0.72 7.8,-2.16 9.84,-4.32c2.04,-2.16 3.3,-5.6 3.78,-10.32l-40.2,-0l-0,-6.24l40.56,-0l-0,-14.88l-40.56,-0l-0,-6.36l65.28,-0l-0,6.36l-16.8,-0Z" style="fill:#01377d;fill-rule:nonzero;stroke:#01377d;stroke-width:0.32px;stroke-linejoin:round;stroke-miterlimit:2;"/>
    <path d="M1971.6,79.12l0,7.08l-51.72,-0l-1.44,-5.04c3.44,-3.92 5.98,-7.54 7.62,-10.86c1.64,-3.32 2.46,-7.38 2.46,-12.18c0,-2.88 -0.56,-6.12 -1.68,-9.72l-13.68,-0l0,-6l11.52,-0c-1.2,-3.52 -2.12,-6.58 -2.76,-9.18c-0.64,-2.6 -0.96,-5.5 -0.96,-8.7c0,-4.8 1.04,-9.04 3.12,-12.72c2.08,-3.68 5.02,-6.54 8.82,-8.58c3.8,-2.04 8.14,-3.06 13.02,-3.06c7.92,-0 14.04,2.28 18.36,6.84c4.32,4.56 6.72,10.36 7.2,17.4l-7.68,-0c-0.32,-5.12 -2.02,-9.26 -5.1,-12.42c-3.08,-3.16 -7.34,-4.74 -12.78,-4.74c-4.88,-0 -8.94,1.46 -12.18,4.38c-3.24,2.92 -4.86,7.34 -4.86,13.26c0,2.88 0.34,5.6 1.02,8.16c0.68,2.56 1.66,5.68 2.94,9.36l23.28,-0l0,6l-21.24,-0c1.04,3.84 1.56,7 1.56,9.48c0,4.08 -0.74,7.84 -2.22,11.28c-1.48,3.44 -3.74,6.76 -6.78,9.96l44.16,-0Z" style="fill:#01377d;fill-rule:nonzero;stroke:#01377d;stroke-width:0.32px;stroke-linejoin:round;stroke-miterlimit:2;"/>
    <path d="M2745.07,1307.16c6.96,0 12.9,-1.56 17.82,-4.68c4.92,-3.12 8.58,-7.44 10.98,-12.96l9.84,0c-3.12,8 -8.02,14.2 -14.7,18.6c-6.68,4.4 -14.66,6.6 -23.94,6.6c-9.44,0 -17.7,-2.66 -24.78,-7.98c-7.08,-5.32 -11.9,-12.46 -14.46,-21.42l-12.48,0l-0,-6l11.16,0c-0.32,-2.16 -0.48,-4.6 -0.48,-7.32c-0,-2.16 0.12,-4.24 0.36,-6.24l-11.04,0l-0,-6l12.24,0c1.52,-6.08 4.18,-11.44 7.98,-16.08c3.8,-4.64 8.4,-8.22 13.8,-10.74c5.4,-2.52 11.3,-3.78 17.7,-3.78c9.28,0 17.28,2.22 24,6.66c6.72,4.44 11.6,10.7 14.64,18.78l-9.84,0c-2.4,-5.6 -6.06,-9.98 -10.98,-13.14c-4.92,-3.16 -10.86,-4.74 -17.82,-4.74c-7.36,0 -13.8,2.06 -19.32,6.18c-5.52,4.12 -9.32,9.74 -11.4,16.86l30.84,0l-0,6l-32.16,0c-0.24,2 -0.36,4.08 -0.36,6.24c-0,2.32 0.2,4.76 0.6,7.32l31.92,0l-0,6l-30.48,0c2.24,6.8 6.06,12.14 11.46,16.02c5.4,3.88 11.7,5.82 18.9,5.82Z" style="fill:#01377d;fill-rule:nonzero;stroke:#01377d;stroke-width:0.32px;stroke-linejoin:round;stroke-miterlimit:2;"/>
    <defs>
        <filter id="_Effect1" filterUnits="userSpaceOnUse" x="-48" y="968.21" width="796.138" height="4065.08">
            <feGaussianBlur in="SourceGraphic" stdDeviation="16"/>
        </filter>
        <linearGradient id="_Linear2" x1="0" y1="0" x2="1" y2="0" gradientUnits="userSpaceOnUse" gradientTransform="matrix(2.00195e-13,3803.8,-2248.76,1.60203e-13,350.069,1114.88)"><stop offset="0" style="stop-color:#01377d;stop-opacity:0.25"/><stop offset="1" style="stop-color:#01377d;stop-opacity:0"/></linearGradient>
        <linearGradient id="_Linear3" x1="0" y1="0" x2="1" y2="0" gradientUnits="userSpaceOnUse" gradientTransform="matrix(2.00195e-13,3803.8,-2248.76,1.60203e-13,350.069,1114.88)"><stop offset="0" style="stop-color:#fff;stop-opacity:1"/><stop offset="1" style="stop-color:#fff;stop-opacity:0"/></linearGradient>
        <filter id="_Effect4" filterUnits="userSpaceOnUse" x="748.155" y="1721.63" width="796.138" height="3311.66">
            <feGaussianBlur in="SourceGraphic" stdDeviation="16"/>
        </filter>
        <linearGradient id="_Linear5" x1="0" y1="0" x2="1" y2="0" gradientUnits="userSpaceOnUse" gradientTransform="matrix(-6.89724e-12,3082.45,-2267.72,-6.86845e-12,1146.22,1836.23)"><stop offset="0" style="stop-color:#01377d;stop-opacity:0.25"/><stop offset="1" style="stop-color:#01377d;stop-opacity:0"/></linearGradient>
        <linearGradient id="_Linear6" x1="0" y1="0" x2="1" y2="0" gradientUnits="userSpaceOnUse" gradientTransform="matrix(-6.89724e-12,3082.45,-2267.72,-6.86845e-12,1146.22,1836.23)"><stop offset="0" style="stop-color:#fff;stop-opacity:1"/><stop offset="1" style="stop-color:#fff;stop-opacity:0"/></linearGradient>
        <filter id="_Effect7" filterUnits="userSpaceOnUse" x="1544.31" y="99.8124" width="796.138" height="4933.48">
            <feGaussianBlur in="SourceGraphic" stdDeviation="16"/>
        </filter>
        <linearGradient id="_Linear8" x1="0" y1="0" x2="1" y2="0" gradientUnits="userSpaceOnUse" gradientTransform="matrix(2.47587e-13,4704.27,-2267.72,1.61553e-13,1942.38,214.417)"><stop offset="0" style="stop-color:#01377d;stop-opacity:0.25"/><stop offset="1" style="stop-color:#01377d;stop-opacity:0"/></linearGradient>
        <linearGradient id="_Linear9" x1="0" y1="0" x2="1" y2="0" gradientUnits="userSpaceOnUse" gradientTransform="matrix(2.47587e-13,4704.27,-2267.72,1.61553e-13,1942.38,214.417)"><stop offset="0" style="stop-color:#fff;stop-opacity:1"/><stop offset="1" style="stop-color:#fff;stop-opacity:0"/></linearGradient>
        <filter id="_Effect10" filterUnits="userSpaceOnUse" x="2340.46" y="1275.81" width="796.138" height="3757.48">
            <feGaussianBlur in="SourceGraphic" stdDeviation="16"/>
        </filter>
        <linearGradient id="_Linear11" x1="0" y1="0" x2="1" y2="0" gradientUnits="userSpaceOnUse" gradientTransform="matrix(1.85694e-13,3528.27,-2267.72,1.61553e-13,2738.53,1390.41)"><stop offset="0" style="stop-color:#01377d;stop-opacity:0.25"/><stop offset="1" style="stop-color:#01377d;stop-opacity:0"/></linearGradient>
        <linearGradient id="_Linear12" x1="0" y1="0" x2="1" y2="0" gradientUnits="userSpaceOnUse" gradientTransform="matrix(1.85694e-13,3528.27,-2267.72,1.61553e-13,2738.53,1390.41)"><stop offset="0" style="stop-color:#fff;stop-opacity:1"/><stop offset="1" style="stop-color:#fff;stop-opacity:0"/></linearGradient>
        <filter id="_Effect13" filterUnits="userSpaceOnUse" x="3136.62" y="368.941" width="796.138" height="4664.35">
            <feGaussianBlur in="SourceGraphic" stdDeviation="16"/>
        </filter>
        <linearGradient id="_Linear14" x1="0" y1="0" x2="1" y2="0" gradientUnits="userSpaceOnUse" gradientTransform="matrix(2.33422e-13,4435.14,-2267.72,1.61553e-13,3534.69,483.546)"><stop offset="0" style="stop-color:#01377d;stop-opacity:0.25"/><stop offset="1" style="stop-color:#01377d;stop-opacity:0"/></linearGradient>
        <linearGradient id="_Linear15" x1="0" y1="0" x2="1" y2="0" gradientUnits="userSpaceOnUse" gradientTransform="matrix(2.33422e-13,4435.14,-2267.72,1.61553e-13,3534.69,483.546)"><stop offset="0" style="stop-color:#fff;stop-opacity:1"/><stop offset="1" style="stop-color:#fff;stop-opacity:0"/></linearGradient>
    </defs>
</svg>
