<?xml version="1.0" encoding="UTF-8" standalone="no"?>
<!DOCTYPE svg PUBLIC "-//W3C//DTD SVG 1.1//EN" "http://www.w3.org/Graphics/SVG/1.1/DTD/svg11.dtd">
<svg width="100%" height="100%" viewBox="0 0 3827 1555" version="1.1" xmlns="http://www.w3.org/2000/svg" xmlns:xlink="http://www.w3.org/1999/xlink" xml:space="preserve" xmlns:serif="http://www.serif.com/" style="fill-rule:evenodd;clip-rule:evenodd;stroke-linejoin:bevel;stroke-miterlimit:0.348837;">
    <rect id="logo" x="0" y="0" width="3826.77" height="1554.86" style="fill:none;"/>
    <clipPath id="_clip1">
        <rect x="0" y="0" width="3826.77" height="1554.86"/>
    </clipPath>
    <g clip-path="url(#_clip1)">
        <g>
            <g style="filter:url(#_Effect2);">
                <path d="M686.344,607.355L686.344,1421.99C686.344,1495.33 626.805,1554.86 553.47,1554.86L287.722,1554.86C214.387,1554.86 154.848,1495.33 154.848,1421.99L154.848,607.355C154.848,534.019 214.387,474.481 287.722,474.481L553.47,474.481C626.805,474.481 686.344,534.019 686.344,607.355Z" style="fill:none;stroke:url(#_Linear3);stroke-width:34.88px;"/>
            </g>
            <path d="M686.344,607.355L686.344,1421.99C686.344,1495.33 626.805,1554.86 553.47,1554.86L287.722,1554.86C214.387,1554.86 154.848,1495.33 154.848,1421.99L154.848,607.355C154.848,534.019 214.387,474.481 287.722,474.481L553.47,474.481C626.805,474.481 686.344,534.019 686.344,607.355Z" style="fill:url(#_Linear4);"/>
        </g>
        <g>
            <circle cx="1913.39" cy="65.731" r="53.15" style="fill:#01377d;"/>
            <path d="M1940.5,90.663L1940.5,102.226L1890.31,102.226L1888.04,94.793C1891.14,91.764 1893.42,88.684 1894.86,85.553C1896.31,82.421 1897.04,78.515 1897.04,73.835C1897.04,73.353 1896.97,72.562 1896.83,71.461L1885.35,71.461L1885.35,61.55L1893.93,61.55C1892.55,56.87 1891.86,52.637 1891.86,48.852C1891.86,44.171 1892.88,40.128 1894.92,36.721C1896.95,33.314 1899.8,30.716 1903.45,28.927C1907.11,27.137 1911.32,26.242 1916.08,26.242C1923.73,26.242 1929.58,28.359 1933.62,32.592C1937.65,36.824 1939.77,42.244 1939.98,48.852L1926.63,48.852C1926.56,45.548 1925.7,42.95 1924.04,41.057C1922.39,39.164 1919.8,38.218 1916.28,38.218C1913.04,38.218 1910.47,39.182 1908.57,41.109C1906.68,43.036 1905.73,45.995 1905.73,49.987C1905.73,51.777 1905.92,53.549 1906.3,55.304C1906.68,57.059 1907.25,59.141 1908.01,61.55L1927.46,61.55L1927.46,71.461L1910.59,71.461C1910.73,72.562 1910.8,73.388 1910.8,73.938C1910.8,76.898 1910.23,79.84 1909.09,82.765C1907.95,85.69 1906.21,88.323 1903.87,90.663L1940.5,90.663Z" style="fill:#fff;fill-rule:nonzero;"/>
        </g>
        <g>
            <circle cx="420.596" cy="305.695" r="53.15" style="fill:#01377d;"/>
            <path d="M447.188,321.129C447.188,324.708 446.274,328.063 444.446,331.195C442.618,334.326 439.928,336.907 436.376,338.937C432.823,340.968 428.632,342.155 423.804,342.499L423.804,350.861L417.181,350.861L417.181,342.396C410.283,341.776 404.73,339.695 400.522,336.15C396.315,332.606 394.142,327.805 394.004,321.748L409.525,321.748C409.938,326.704 412.491,329.698 417.181,330.73L417.181,311.012C412.215,309.773 408.214,308.534 405.179,307.295C402.144,306.056 399.522,304.06 397.315,301.307C395.107,298.554 394.004,294.803 394.004,290.054C394.004,284.066 396.159,279.18 400.471,275.394C404.782,271.609 410.352,269.441 417.181,268.89L417.181,260.528L423.804,260.528L423.804,268.89C430.426,269.441 435.72,271.437 439.687,274.878C443.653,278.319 445.878,283.068 446.361,289.125L430.736,289.125C430.529,287.129 429.822,285.391 428.615,283.912C427.408,282.432 425.804,281.382 423.804,280.763L423.804,300.275C428.977,301.582 433.064,302.839 436.065,304.043C439.066,305.247 441.67,307.209 443.877,309.928C446.085,312.646 447.188,316.38 447.188,321.129ZM409.111,289.332C409.111,291.603 409.8,293.444 411.18,294.855C412.56,296.266 414.56,297.419 417.181,298.313L417.181,280.453C414.698,280.797 412.732,281.726 411.284,283.24C409.835,284.755 409.111,286.785 409.111,289.332ZM423.804,330.936C426.425,330.455 428.477,329.388 429.96,327.736C431.443,326.084 432.185,324.088 432.185,321.748C432.185,319.477 431.461,317.653 430.012,316.277C428.563,314.9 426.494,313.765 423.804,312.87L423.804,330.936Z" style="fill:#fff;fill-rule:nonzero;"/>
        </g>
        <g>
            <circle cx="3406.18" cy="146.178" r="53.15" style="fill:#01377d;"/>
            <path d="M3432.77,161.612C3432.77,165.191 3431.85,168.547 3430.03,171.678C3428.2,174.81 3425.51,177.391 3421.95,179.421C3418.4,181.451 3414.21,182.639 3409.38,182.983L3409.38,191.345L3402.76,191.345L3402.76,182.88C3395.86,182.26 3390.31,180.178 3386.1,176.634C3381.89,173.089 3379.72,168.289 3379.58,162.232L3395.1,162.232C3395.52,167.187 3398.07,170.181 3402.76,171.214L3402.76,151.495C3397.79,150.256 3393.79,149.017 3390.76,147.779C3387.72,146.54 3385.1,144.544 3382.89,141.791C3380.69,139.038 3379.58,135.287 3379.58,130.538C3379.58,124.55 3381.74,119.663 3386.05,115.878C3390.36,112.093 3395.93,109.925 3402.76,109.374L3402.76,101.012L3409.38,101.012L3409.38,109.374C3416.01,109.925 3421.3,111.921 3425.27,115.362C3429.23,118.803 3431.46,123.552 3431.94,129.609L3416.32,129.609C3416.11,127.613 3415.4,125.875 3414.2,124.395C3412.99,122.915 3411.38,121.866 3409.38,121.246L3409.38,140.758C3414.56,142.066 3418.64,143.322 3421.64,144.527C3424.64,145.731 3427.25,147.693 3429.46,150.411C3431.66,153.13 3432.77,156.864 3432.77,161.612ZM3394.69,129.815C3394.69,132.086 3395.38,133.927 3396.76,135.338C3398.14,136.749 3400.14,137.902 3402.76,138.797L3402.76,120.937C3400.28,121.281 3398.31,122.21 3396.86,123.724C3395.41,125.238 3394.69,127.269 3394.69,129.815ZM3409.38,171.42C3412.01,170.938 3414.06,169.872 3415.54,168.22C3417.02,166.568 3417.76,164.572 3417.76,162.232C3417.76,159.961 3417.04,158.137 3415.59,156.76C3414.14,155.384 3412.07,154.248 3409.38,153.353L3409.38,171.42Z" style="fill:#fff;fill-rule:nonzero;"/>
        </g>
        <g>
            <circle cx="2659.78" cy="400.989" r="53.15" style="fill:#7cd24c;"/>
            <path d="M2662.38,424.303C2666.28,424.303 2669.7,423.449 2672.65,421.741C2675.59,420.032 2677.92,417.538 2679.64,414.258L2696.07,414.258C2693.68,421.57 2689.48,427.258 2683.49,431.324C2677.49,435.39 2670.49,437.423 2662.48,437.423C2654.26,437.423 2647.05,435.219 2640.85,430.812C2634.66,426.404 2630.36,420.511 2627.96,413.131L2619.23,413.131L2619.23,404.623L2626.32,404.623C2626.18,402.983 2626.11,401.753 2626.11,400.933C2626.11,399.976 2626.18,398.678 2626.32,397.038L2619.23,397.038L2619.23,388.531L2628.06,388.531C2630.46,381.151 2634.76,375.274 2640.96,370.901C2647.15,366.527 2654.33,364.341 2662.48,364.341C2670.49,364.341 2677.49,366.391 2683.49,370.491C2689.48,374.591 2693.68,380.262 2696.07,387.506L2679.64,387.506C2677.92,384.226 2675.59,381.748 2672.65,380.074C2669.7,378.4 2666.28,377.563 2662.38,377.563C2658.2,377.563 2654.48,378.52 2651.23,380.433C2647.98,382.346 2645.46,385.046 2643.68,388.531L2663.4,388.531L2663.4,397.038L2641.11,397.038C2640.97,398.678 2640.91,399.976 2640.91,400.933C2640.91,401.753 2640.97,402.983 2641.11,404.623L2663.4,404.623L2663.4,413.131L2643.58,413.131C2645.36,416.616 2647.89,419.349 2651.18,421.331C2654.47,423.312 2658.2,424.303 2662.38,424.303Z" style="fill:#fff;fill-rule:nonzero;"/>
        </g>
        <g>
            <circle cx="1166.99" cy="527.63" r="53.15" style="fill:#7cd24c;"/>
            <path d="M1184.2,504.979L1184.2,512.769L1194.58,512.769L1194.58,522.199L1183.58,522.199C1182.49,528.69 1179.8,533.405 1175.52,536.344C1171.24,539.282 1164.78,540.751 1156.15,540.751L1156.15,546.184C1156.15,549.395 1156.82,551.924 1158.16,553.769C1159.49,555.614 1161.77,556.536 1164.99,556.536C1168.07,556.536 1170.3,555.665 1171.66,553.922C1173.04,552.18 1173.72,549.634 1173.72,546.286L1187.08,546.286C1186.94,553.188 1184.99,558.467 1181.22,562.122C1177.45,565.778 1172.08,567.606 1165.09,567.606C1157.83,567.606 1152.28,565.659 1148.45,561.764C1144.61,557.869 1142.69,552.197 1142.69,544.749L1142.69,531.116C1150.02,531.116 1155.43,530.928 1158.93,530.552C1162.42,530.177 1165.02,529.374 1166.73,528.144C1168.45,526.914 1169.58,524.932 1170.12,522.199L1139.41,522.199L1139.41,512.769L1170.64,512.769L1170.64,504.979L1139.41,504.979L1139.41,494.934L1194.58,494.934L1194.58,504.979L1184.2,504.979Z" style="fill:#fff;fill-rule:nonzero;"/>
        </g>
        <g>
            <g style="filter:url(#_Effect5);">
                <path d="M1432.74,819.556L1432.74,1554.86L901.243,1554.86L901.243,819.556C901.243,746.221 960.782,686.682 1034.12,686.682L1299.87,686.682C1373.2,686.682 1432.74,746.221 1432.74,819.556Z" style="fill:none;stroke:url(#_Linear6);stroke-width:34.88px;"/>
            </g>
            <path d="M1432.74,819.556L1432.74,1554.86L901.243,1554.86L901.243,819.556C901.243,746.221 960.782,686.682 1034.12,686.682L1299.87,686.682C1373.2,686.682 1432.74,746.221 1432.74,819.556Z" style="fill:url(#_Linear7);"/>
        </g>
        <g>
            <g style="filter:url(#_Effect8);">
                <path d="M2179.13,362.768L2179.13,1554.86L1647.64,1554.86L1647.64,362.768C1647.64,289.433 1707.18,229.894 1780.51,229.894L2046.26,229.894C2119.6,229.894 2179.13,289.433 2179.13,362.768Z" style="fill:none;stroke:url(#_Linear9);stroke-width:34.88px;"/>
            </g>
            <path d="M2179.13,362.768L2179.13,1554.86L1647.64,1554.86L1647.64,362.768C1647.64,289.433 1707.18,229.894 1780.51,229.894L2046.26,229.894C2119.6,229.894 2179.13,289.433 2179.13,362.768Z" style="fill:url(#_Linear10);"/>
        </g>
        <g>
            <g style="filter:url(#_Effect11);">
                <path d="M2925.53,693.991L2925.53,1554.86L2394.03,1554.86L2394.03,693.991C2394.03,620.656 2453.57,561.117 2526.91,561.117L2792.66,561.117C2865.99,561.117 2925.53,620.656 2925.53,693.991Z" style="fill:none;stroke:url(#_Linear12);stroke-width:34.88px;"/>
            </g>
            <path d="M2925.53,693.991L2925.53,1554.86L2394.03,1554.86L2394.03,693.991C2394.03,620.656 2453.57,561.117 2526.91,561.117L2792.66,561.117C2865.99,561.117 2925.53,620.656 2925.53,693.991Z" style="fill:url(#_Linear13);"/>
        </g>
        <g>
            <g style="filter:url(#_Effect14);">
                <path d="M3671.92,438.569L3671.92,1554.86L3140.43,1554.86L3140.43,438.569C3140.43,365.234 3199.97,305.695 3273.3,305.695L3539.05,305.695C3612.39,305.695 3671.92,365.234 3671.92,438.569Z" style="fill:none;stroke:url(#_Linear15);stroke-width:34.88px;"/>
            </g>
            <path d="M3671.92,438.569L3671.92,1554.86L3140.43,1554.86L3140.43,438.569C3140.43,365.234 3199.97,305.695 3273.3,305.695L3539.05,305.695C3612.39,305.695 3671.92,365.234 3671.92,438.569Z" style="fill:url(#_Linear16);"/>
        </g>
    </g>
    <defs>
        <filter id="_Effect2" filterUnits="userSpaceOnUse" x="47.4061" y="367.039" width="746.38" height="1295.27">
            <feGaussianBlur in="SourceGraphic" stdDeviation="15"/>
        </filter>
        <linearGradient id="_Linear3" x1="0" y1="0" x2="1" y2="0" gradientUnits="userSpaceOnUse" gradientTransform="matrix(1.87683e-13,1071.35,-2108.21,4.51215e-14,420.596,483.512)"><stop offset="0" style="stop-color:#01377d;stop-opacity:0.25"/><stop offset="1" style="stop-color:#01377d;stop-opacity:0"/></linearGradient>
        <linearGradient id="_Linear4" x1="0" y1="0" x2="1" y2="0" gradientUnits="userSpaceOnUse" gradientTransform="matrix(1.87683e-13,1071.35,-2108.21,4.51215e-14,420.596,483.512)"><stop offset="0" style="stop-color:#fff;stop-opacity:1"/><stop offset="1" style="stop-color:#fff;stop-opacity:0"/></linearGradient>
        <filter id="_Effect5" filterUnits="userSpaceOnUse" x="793.801" y="579.24" width="746.38" height="1083.07">
            <feGaussianBlur in="SourceGraphic" stdDeviation="15"/>
        </filter>
        <linearGradient id="_Linear6" x1="0" y1="0" x2="1" y2="0" gradientUnits="userSpaceOnUse" gradientTransform="matrix(-6.46617e-12,868.181,-2125.98,-1.93452e-12,1166.99,686.682)"><stop offset="0" style="stop-color:#01377d;stop-opacity:0.25"/><stop offset="1" style="stop-color:#01377d;stop-opacity:0"/></linearGradient>
        <linearGradient id="_Linear7" x1="0" y1="0" x2="1" y2="0" gradientUnits="userSpaceOnUse" gradientTransform="matrix(-6.46617e-12,868.181,-2125.98,-1.93452e-12,1166.99,686.682)"><stop offset="0" style="stop-color:#fff;stop-opacity:1"/><stop offset="1" style="stop-color:#fff;stop-opacity:0"/></linearGradient>
        <filter id="_Effect8" filterUnits="userSpaceOnUse" x="1540.2" y="122.452" width="746.38" height="1539.85">
            <feGaussianBlur in="SourceGraphic" stdDeviation="15"/>
        </filter>
        <linearGradient id="_Linear9" x1="0" y1="0" x2="1" y2="0" gradientUnits="userSpaceOnUse" gradientTransform="matrix(2.32112e-13,1324.97,-2125.98,4.55019e-14,1913.39,229.894)"><stop offset="0" style="stop-color:#01377d;stop-opacity:0.25"/><stop offset="1" style="stop-color:#01377d;stop-opacity:0"/></linearGradient>
        <linearGradient id="_Linear10" x1="0" y1="0" x2="1" y2="0" gradientUnits="userSpaceOnUse" gradientTransform="matrix(2.32112e-13,1324.97,-2125.98,4.55019e-14,1913.39,229.894)"><stop offset="0" style="stop-color:#fff;stop-opacity:1"/><stop offset="1" style="stop-color:#fff;stop-opacity:0"/></linearGradient>
        <filter id="_Effect11" filterUnits="userSpaceOnUse" x="2286.59" y="453.675" width="746.38" height="1208.63">
            <feGaussianBlur in="SourceGraphic" stdDeviation="15"/>
        </filter>
        <linearGradient id="_Linear12" x1="0" y1="0" x2="1" y2="0" gradientUnits="userSpaceOnUse" gradientTransform="matrix(1.74088e-13,993.747,-2125.98,4.55019e-14,2659.78,561.117)"><stop offset="0" style="stop-color:#01377d;stop-opacity:0.25"/><stop offset="1" style="stop-color:#01377d;stop-opacity:0"/></linearGradient>
        <linearGradient id="_Linear13" x1="0" y1="0" x2="1" y2="0" gradientUnits="userSpaceOnUse" gradientTransform="matrix(1.74088e-13,993.747,-2125.98,4.55019e-14,2659.78,561.117)"><stop offset="0" style="stop-color:#fff;stop-opacity:1"/><stop offset="1" style="stop-color:#fff;stop-opacity:0"/></linearGradient>
        <filter id="_Effect14" filterUnits="userSpaceOnUse" x="3032.99" y="198.253" width="746.38" height="1464.05">
            <feGaussianBlur in="SourceGraphic" stdDeviation="15"/>
        </filter>
        <linearGradient id="_Linear15" x1="0" y1="0" x2="1" y2="0" gradientUnits="userSpaceOnUse" gradientTransform="matrix(2.18833e-13,1249.17,-2125.98,4.55019e-14,3406.18,305.695)"><stop offset="0" style="stop-color:#01377d;stop-opacity:0.25"/><stop offset="1" style="stop-color:#01377d;stop-opacity:0"/></linearGradient>
        <linearGradient id="_Linear16" x1="0" y1="0" x2="1" y2="0" gradientUnits="userSpaceOnUse" gradientTransform="matrix(2.18833e-13,1249.17,-2125.98,4.55019e-14,3406.18,305.695)"><stop offset="0" style="stop-color:#fff;stop-opacity:1"/><stop offset="1" style="stop-color:#fff;stop-opacity:0"/></linearGradient>
    </defs>
</svg>
