<?xml version="1.0" encoding="UTF-8" standalone="no"?>
<!DOCTYPE svg PUBLIC "-//W3C//DTD SVG 1.1//EN" "http://www.w3.org/Graphics/SVG/1.1/DTD/svg11.dtd">
<svg width="100%" height="100%" viewBox="0 0 355 355" version="1.1" xmlns="http://www.w3.org/2000/svg" xmlns:xlink="http://www.w3.org/1999/xlink" xml:space="preserve" xmlns:serif="http://www.serif.com/" style="fill-rule:evenodd;clip-rule:evenodd;stroke-linejoin:round;stroke-miterlimit:0.73;">
    <g>
        <g>
            <path d="M354.549,88.801L354.549,265.966C354.549,314.856 314.856,354.549 265.966,354.549L88.801,354.549C39.91,354.549 0.218,314.856 0.218,265.966L0.218,88.801C0.218,39.91 39.91,0.218 88.801,0.218L265.966,0.218C314.856,0.218 354.549,39.91 354.549,88.801Z" style="fill:white;stroke:white;stroke-width:0.44px;"/>
        </g>
        <g>
            <g>
                <g>
                    <circle cx="175.834" cy="170.644" r="100.169" style="fill:none;stroke:rgb(1,55,125);stroke-width:26.32px;stroke-linecap:round;stroke-miterlimit:0.348837;"/>
                    <circle cx="175.834" cy="170.644" r="100.169" style="fill:white;"/>
                    <path d="M222.239,79.02C220.797,80.912 219.545,82.922 218.485,85.051C220.21,85.911 221.91,86.823 223.581,87.785C224.768,85.725 225.751,83.57 226.53,81.323C240.775,89.408 252.88,100.783 261.834,114.498C259.639,115.415 257.55,116.53 255.567,117.843C256.632,119.451 257.648,121.09 258.613,122.759C260.672,121.569 262.6,120.195 264.399,118.638C272.693,132.762 277.488,148.665 278.385,165.02C276.026,164.717 273.66,164.638 271.286,164.784C271.404,166.708 271.464,168.636 271.465,170.564C273.844,170.562 276.201,170.337 278.537,169.888C278.657,186.266 274.859,202.437 267.458,217.049C265.567,215.607 263.557,214.355 261.428,213.295C260.568,215.02 259.656,216.72 258.693,218.391C260.754,219.578 262.908,220.561 265.155,221.34C257.07,235.585 245.696,247.69 231.98,256.644C231.064,254.449 229.948,252.36 228.635,250.377C227.028,251.442 225.388,252.458 223.719,253.423C224.91,255.482 226.284,257.41 227.841,259.209C213.716,267.503 197.813,272.298 181.458,273.195C181.762,270.836 181.84,268.47 181.695,266.096C179.77,266.214 177.842,266.274 175.914,266.275C175.916,268.654 176.142,271.011 176.591,273.347C160.212,273.467 144.042,269.669 129.429,262.268C130.872,260.377 132.123,258.367 133.184,256.238C131.458,255.378 129.759,254.466 128.088,253.503C126.9,255.564 125.917,257.718 125.138,259.965C110.893,251.88 98.789,240.506 89.835,226.79C92.029,225.874 94.118,224.758 96.101,223.445C95.037,221.838 94.021,220.198 93.055,218.529C90.996,219.72 89.068,221.094 87.27,222.651C78.976,208.526 74.18,192.623 73.283,176.268C75.642,176.572 78.009,176.65 80.383,176.505C80.265,174.58 80.205,172.652 80.203,170.724C77.825,170.726 75.468,170.952 73.132,171.401C73.011,155.022 76.81,138.852 84.21,124.239C86.102,125.682 88.112,126.933 90.241,127.994C91.101,126.268 92.013,124.569 92.975,122.898C90.915,121.71 88.76,120.727 86.513,119.948C94.598,105.703 105.973,93.599 119.688,84.645C120.605,86.839 121.72,88.928 123.033,90.911C124.641,89.847 126.28,88.831 127.949,87.865C126.759,85.806 125.385,83.878 123.828,82.08C137.952,73.786 153.855,68.99 170.21,68.093C169.907,70.452 169.828,72.819 169.974,75.193C171.898,75.075 173.826,75.015 175.754,75.013C175.752,72.635 175.527,70.278 175.078,67.942C191.456,67.821 207.627,71.62 222.239,79.02Z" style="fill:rgb(1,55,125);"/>
                </g>
                <path d="M271.358,253.452L182.657,164.751L308.1,164.751C308.1,198.021 294.883,229.927 271.358,253.452Z" style="fill:none;stroke:white;stroke-width:13.87px;stroke-linecap:round;stroke-miterlimit:0.348837;"/>
                <path d="M271.358,253.452L182.657,164.751L308.1,164.751C308.1,198.021 294.883,229.927 271.358,253.452Z" style="fill:rgb(124,210,76);"/>
            </g>
        </g>
    </g>
</svg>
