<?xml version="1.0" encoding="UTF-8" standalone="no"?>
<!DOCTYPE svg PUBLIC "-//W3C//DTD SVG 1.1//EN" "http://www.w3.org/Graphics/SVG/1.1/DTD/svg11.dtd">
<svg width="100%" height="100%" viewBox="0 0 355 355" version="1.1" xmlns="http://www.w3.org/2000/svg" xmlns:xlink="http://www.w3.org/1999/xlink" xml:space="preserve" xmlns:serif="http://www.serif.com/" style="fill-rule:evenodd;clip-rule:evenodd;stroke-linejoin:round;stroke-miterlimit:0.73;">
    <g>
        <g>
            <path d="M354.549,88.801L354.549,265.966C354.549,314.856 314.856,354.549 265.966,354.549L88.801,354.549C39.91,354.549 0.218,314.856 0.218,265.966L0.218,88.801C0.218,39.91 39.91,0.218 88.801,0.218L265.966,0.218C314.856,0.218 354.549,39.91 354.549,88.801Z" style="fill:white;stroke:white;stroke-width:0.44px;"/>
        </g>
        <g>
            <g>
                <g>
                    <path d="M177.383,73.708C185.604,73.708 202.044,73.708 210.265,83.865C218.485,94.022 218.485,114.337 210.265,134.651C210.264,134.652 210.264,134.652 210.264,134.653C205.098,148.33 192.004,157.381 177.383,157.381C162.762,157.381 149.668,148.33 144.502,134.652C144.502,134.652 144.502,134.652 144.502,134.651C136.281,114.337 136.281,94.022 144.502,83.865C152.722,73.708 169.163,73.708 177.383,73.708Z" style="fill:rgb(1,55,125);"/>
                    <path d="M176.812,107.235C176.945,107.053 177.157,106.946 177.383,106.946C177.609,106.946 177.821,107.053 177.955,107.235C179.363,109.157 182.947,114.048 183.822,115.243C183.946,115.412 183.988,115.626 183.939,115.83C183.353,118.229 179.633,133.459 178.072,139.852C177.994,140.169 177.71,140.392 177.383,140.392C177.057,140.392 176.772,140.169 176.695,139.852C175.134,133.459 171.414,118.229 170.828,115.83C170.778,115.626 170.821,115.412 170.945,115.243C171.82,114.048 175.404,109.157 176.812,107.235Z" style="fill:white;"/>
                    <path d="M177.383,92.981C178.434,92.981 180.536,92.981 181.587,94.279C182.638,95.578 182.638,98.175 181.587,100.772C181.587,100.773 181.587,100.774 181.586,100.775C180.925,102.523 179.252,103.679 177.383,103.679C175.515,103.679 173.841,102.523 173.18,100.775C173.18,100.774 173.18,100.773 173.179,100.772C172.128,98.175 172.128,95.578 173.179,94.279C174.23,92.981 176.332,92.981 177.383,92.981Z" style="fill:white;"/>
                    <path d="M177.383,42.756C181.991,42.756 191.207,42.756 195.815,48.45C200.423,54.143 200.423,65.531 195.815,76.918C195.815,76.919 195.815,76.919 195.815,76.919C192.919,84.586 185.579,89.66 177.383,89.66C169.187,89.66 161.847,84.586 158.951,76.919C158.951,76.919 158.951,76.919 158.951,76.918C154.343,65.531 154.343,54.143 158.951,48.45C163.559,42.756 172.775,42.756 177.383,42.756Z" style="fill:rgb(124,210,76);"/>
                </g>
            </g>
            <g>
                <circle cx="177.383" cy="244.721" r="65.628" style="fill:none;stroke:rgb(124,210,76);stroke-width:17.24px;stroke-linecap:round;stroke-miterlimit:0.348837;"/>
                <circle cx="177.383" cy="244.721" r="65.628" style="fill:white;"/>
                <path d="M193.253,179.33C192.617,180.752 192.12,182.222 191.762,183.739C192.992,184.029 194.212,184.356 195.422,184.719C195.871,183.227 196.175,181.706 196.335,180.156C206.632,183.178 216.057,188.619 223.823,196.026C222.56,196.939 221.395,197.963 220.327,199.098C221.247,199.964 222.14,200.858 223.006,201.777C224.141,200.709 225.165,199.544 226.079,198.282C233.485,206.048 238.926,215.472 241.949,225.769C240.399,225.929 238.877,226.234 237.385,226.682C237.749,227.892 238.076,229.113 238.366,230.342C239.882,229.985 241.352,229.488 242.774,228.851C245.305,239.28 245.305,250.162 242.774,260.591C241.352,259.955 239.882,259.458 238.366,259.1C238.076,260.33 237.749,261.55 237.385,262.76C238.877,263.209 240.399,263.513 241.949,263.673C238.926,273.97 233.485,283.395 226.079,291.161C225.165,289.898 224.141,288.733 223.006,287.665C222.14,288.585 221.247,289.478 220.327,290.344C221.395,291.479 222.56,292.503 223.823,293.417C216.057,300.823 206.632,306.264 196.335,309.287C196.175,307.736 195.871,306.215 195.422,304.723C194.212,305.087 192.992,305.414 191.762,305.704C192.12,307.22 192.617,308.69 193.253,310.112C182.825,312.643 171.942,312.643 161.513,310.112C162.15,308.69 162.647,307.22 163.004,305.704C161.775,305.414 160.554,305.087 159.344,304.723C158.896,306.215 158.591,307.736 158.431,309.287C148.135,306.264 138.71,300.823 130.944,293.417C132.206,292.503 133.372,291.479 134.44,290.344C133.52,289.478 132.626,288.585 131.76,287.665C130.626,288.733 129.601,289.898 128.688,291.161C121.282,283.395 115.84,273.97 112.818,263.673C114.368,263.513 115.889,263.209 117.381,262.76C117.018,261.55 116.691,260.33 116.401,259.1C114.884,259.458 113.414,259.955 111.992,260.591C109.461,250.162 109.461,239.28 111.992,228.851C113.414,229.488 114.884,229.985 116.401,230.342C116.691,229.113 117.018,227.892 117.381,226.682C115.889,226.234 114.368,225.929 112.818,225.769C115.84,215.472 121.282,206.048 128.688,198.282C129.601,199.544 130.626,200.709 131.76,201.777C132.626,200.858 133.52,199.964 134.44,199.098C133.372,197.963 132.206,196.939 130.944,196.026C138.71,188.619 148.135,183.178 158.431,180.156C158.591,181.706 158.896,183.227 159.344,184.719C160.554,184.356 161.775,184.029 163.004,183.739C162.647,182.222 162.15,180.752 161.513,179.33C171.942,176.799 182.825,176.799 193.253,179.33Z" style="fill:rgb(1,55,125);"/>
                <g>
                    <path d="M166.161,219.915L182.766,248.677C184.635,251.913 183.524,256.058 180.288,257.926C177.051,259.795 172.907,258.684 171.038,255.448L154.433,226.686C152.564,223.45 153.675,219.305 156.911,217.437C160.147,215.568 164.292,216.678 166.161,219.915Z" style="fill:white;"/>
                    <path d="M203.198,236.916L182.52,257.593C179.878,260.236 175.587,260.236 172.944,257.593C170.302,254.951 170.302,250.66 172.944,248.017L193.622,227.34C196.264,224.697 200.555,224.697 203.198,227.34C205.84,229.982 205.84,234.273 203.198,236.916Z" style="fill:white;"/>
                </g>
            </g>
            <g>
                <g>
                    <path d="M269.366,136.46C275.89,136.46 288.939,136.46 295.463,144.522C301.988,152.583 301.988,168.706 295.463,184.829C295.463,184.831 295.462,184.832 295.462,184.833C291.361,195.688 280.969,202.871 269.366,202.871C257.762,202.871 247.371,195.688 243.27,184.833C243.27,184.832 243.269,184.831 243.269,184.829C236.745,168.706 236.745,152.583 243.269,144.522C249.793,136.46 262.842,136.46 269.366,136.46Z" style="fill:rgb(1,55,125);"/>
                    <path d="M268.795,163.231C268.928,163.049 269.14,162.941 269.366,162.941C269.592,162.941 269.804,163.049 269.938,163.231C271.103,164.821 273.704,168.371 274.436,169.371C274.56,169.539 274.603,169.754 274.553,169.958C274.058,171.982 271.349,183.077 270.055,188.375C269.977,188.693 269.693,188.916 269.366,188.916C269.04,188.916 268.755,188.693 268.678,188.375C267.384,183.077 264.674,171.982 264.179,169.958C264.13,169.754 264.172,169.539 264.296,169.371C265.028,168.371 267.629,164.821 268.795,163.231Z" style="fill:white;"/>
                    <path d="M269.366,151.757C270.2,151.757 271.869,151.757 272.703,152.787C273.537,153.818 273.537,155.879 272.703,157.941C272.702,157.941 272.702,157.942 272.702,157.942C272.178,159.33 270.849,160.248 269.366,160.248C267.883,160.248 266.554,159.33 266.03,157.942C266.03,157.942 266.03,157.941 266.03,157.941C265.195,155.879 265.195,153.818 266.03,152.787C266.864,151.757 268.532,151.757 269.366,151.757Z" style="fill:white;"/>
                    <path d="M269.366,111.895C273.023,111.895 280.338,111.895 283.995,116.414C287.652,120.933 287.652,129.971 283.995,139.009C283.995,139.01 283.994,139.011 283.994,139.012C281.695,145.096 275.87,149.122 269.366,149.122C262.862,149.122 257.037,145.096 254.738,139.012C254.738,139.011 254.737,139.01 254.737,139.009C251.08,129.971 251.08,120.933 254.737,116.414C258.394,111.895 265.709,111.895 269.366,111.895Z" style="fill:rgb(124,210,76);"/>
                </g>
            </g>
            <g>
                <g>
                    <path d="M85.4,136.46C91.925,136.46 104.973,136.46 111.497,144.522C118.022,152.583 118.022,168.706 111.497,184.829C111.497,184.831 111.496,184.832 111.496,184.833C107.395,195.688 97.004,202.871 85.4,202.871C73.797,202.871 63.405,195.688 59.304,184.833C59.304,184.832 59.304,184.831 59.303,184.829C52.779,168.706 52.779,152.583 59.303,144.522C65.828,136.46 78.876,136.46 85.4,136.46Z" style="fill:rgb(1,55,125);"/>
                    <path d="M84.829,163.231C84.962,163.049 85.175,162.941 85.4,162.941C85.626,162.941 85.839,163.049 85.972,163.231C87.137,164.821 89.738,168.371 90.47,169.371C90.594,169.539 90.637,169.754 90.587,169.958C90.093,171.982 87.383,183.077 86.089,188.375C86.011,188.693 85.727,188.916 85.4,188.916C85.074,188.916 84.789,188.693 84.712,188.375C83.418,183.077 80.708,171.982 80.214,169.958C80.164,169.754 80.207,169.539 80.33,169.371C81.063,168.371 83.664,164.821 84.829,163.231Z" style="fill:white;"/>
                    <path d="M85.4,151.757C86.235,151.757 87.903,151.757 88.737,152.787C89.571,153.818 89.571,155.879 88.737,157.941C88.737,157.941 88.737,157.942 88.736,157.942C88.212,159.33 86.884,160.248 85.4,160.248C83.917,160.248 82.589,159.33 82.064,157.942C82.064,157.942 82.064,157.941 82.064,157.941C81.23,155.879 81.23,153.818 82.064,152.787C82.898,151.757 84.566,151.757 85.4,151.757Z" style="fill:white;"/>
                    <path d="M85.4,111.895C89.058,111.895 96.372,111.895 100.029,116.414C103.687,120.933 103.687,129.971 100.029,139.009C100.029,139.01 100.029,139.011 100.028,139.012C97.73,145.096 91.904,149.122 85.4,149.122C78.896,149.122 73.071,145.096 70.772,139.012C70.772,139.011 70.772,139.01 70.771,139.009C67.114,129.971 67.114,120.933 70.771,116.414C74.429,111.895 81.743,111.895 85.4,111.895Z" style="fill:rgb(124,210,76);"/>
                </g>
            </g>
        </g>
    </g>
</svg>
