<?xml version="1.0" encoding="UTF-8" standalone="no"?>
<!DOCTYPE svg PUBLIC "-//W3C//DTD SVG 1.1//EN" "http://www.w3.org/Graphics/SVG/1.1/DTD/svg11.dtd">
<svg width="100%" height="100%" viewBox="0 0 4082 1659" version="1.1" xmlns="http://www.w3.org/2000/svg" xmlns:xlink="http://www.w3.org/1999/xlink" xml:space="preserve" xmlns:serif="http://www.serif.com/" style="fill-rule:evenodd;clip-rule:evenodd;stroke-linejoin:bevel;stroke-miterlimit:0.348837;">
    <rect id="logo" x="0" y="0" width="4081.89" height="1658.52" style="fill:none;"/>
    <clipPath id="_clip1">
        <rect x="0" y="0" width="4081.89" height="1658.52"/>
    </clipPath>
    <g clip-path="url(#_clip1)">
        <g>
            <g style="filter:url(#_Effect2);">
                <path d="M732.1,647.845L732.1,1516.79C732.1,1595.01 668.592,1658.52 590.368,1658.52L306.903,1658.52C228.679,1658.52 165.171,1595.01 165.171,1516.79L165.171,647.845C165.171,569.621 228.679,506.113 306.903,506.113L590.368,506.113C668.592,506.113 732.1,569.621 732.1,647.845Z" style="fill:none;stroke:url(#_Linear3);stroke-width:37.21px;"/>
            </g>
            <path d="M732.1,647.845L732.1,1516.79C732.1,1595.01 668.592,1658.52 590.368,1658.52L306.903,1658.52C228.679,1658.52 165.171,1595.01 165.171,1516.79L165.171,647.845C165.171,569.621 228.679,506.113 306.903,506.113L590.368,506.113C668.592,506.113 732.1,569.621 732.1,647.845Z" style="fill:url(#_Linear4);"/>
        </g>
        <g>
            <circle cx="2040.94" cy="70.113" r="56.693" style="fill:rgb(1,55,125);"/>
            <path d="M2069.31,86.576C2069.31,90.394 2068.34,93.973 2066.39,97.313C2064.43,100.653 2061.57,103.406 2057.78,105.572C2053.99,107.738 2049.52,109.004 2044.37,109.371L2044.37,118.291L2037.3,118.291L2037.3,109.261C2029.94,108.6 2024.02,106.379 2019.53,102.599C2015.05,98.818 2012.73,93.697 2012.58,87.237L2029.13,87.237C2029.58,92.523 2032.3,95.716 2037.3,96.817L2037.3,75.784C2032.01,74.463 2027.74,73.141 2024.5,71.82C2021.26,70.498 2018.47,68.369 2016.11,65.433C2013.76,62.496 2012.58,58.495 2012.58,53.43C2012.58,47.043 2014.88,41.83 2019.48,37.793C2024.08,33.755 2030.02,31.442 2037.3,30.855L2037.3,21.935L2044.37,21.935L2044.37,30.855C2051.43,31.442 2057.08,33.571 2061.31,37.242C2065.54,40.913 2067.91,45.978 2068.43,52.439L2051.76,52.439C2051.54,50.31 2050.79,48.456 2049.5,46.878C2048.21,45.299 2046.5,44.18 2044.37,43.519L2044.37,64.332C2049.89,65.727 2054.24,67.066 2057.45,68.351C2060.65,69.636 2063.42,71.728 2065.78,74.628C2068.13,77.528 2069.31,81.511 2069.31,86.576ZM2028.69,52.659C2028.69,55.082 2029.43,57.045 2030.9,58.55C2032.37,60.055 2034.51,61.285 2037.3,62.239L2037.3,43.189C2034.65,43.556 2032.56,44.547 2031.01,46.162C2029.47,47.777 2028.69,49.943 2028.69,52.659ZM2044.37,97.038C2047.16,96.524 2049.35,95.386 2050.93,93.624C2052.51,91.862 2053.31,89.733 2053.31,87.237C2053.31,84.814 2052.53,82.869 2050.99,81.4C2049.44,79.932 2047.24,78.721 2044.37,77.766L2044.37,97.038Z" style="fill:white;fill-rule:nonzero;"/>
        </g>
        <g>
            <circle cx="448.636" cy="326.074" r="56.693" style="fill:rgb(1,55,125);"/>
            <path d="M477.001,342.537C477.001,346.355 476.026,349.934 474.076,353.274C472.126,356.615 469.257,359.368 465.467,361.533C461.678,363.699 457.208,364.965 452.057,365.332L452.057,374.252L444.994,374.252L444.994,365.222C437.636,364.562 431.712,362.341 427.224,358.56C422.736,354.779 420.418,349.659 420.271,343.198L436.826,343.198C437.268,348.484 439.99,351.677 444.994,352.779L444.994,331.746C439.696,330.424 435.428,329.103 432.191,327.781C428.953,326.46 426.157,324.331 423.802,321.394C421.448,318.458 420.271,314.457 420.271,309.391C420.271,303.004 422.57,297.792 427.169,293.754C431.768,289.716 437.709,287.404 444.994,286.816L444.994,277.897L452.057,277.897L452.057,286.816C459.121,287.404 464.768,289.533 468.999,293.203C473.23,296.874 475.603,301.94 476.118,308.4L459.452,308.4C459.231,306.271 458.477,304.417 457.189,302.839C455.902,301.261 454.191,300.141 452.057,299.48L452.057,320.293C457.576,321.688 461.935,323.028 465.136,324.312C468.337,325.597 471.114,327.69 473.469,330.589C475.824,333.489 477.001,337.472 477.001,342.537ZM436.385,308.62C436.385,311.043 437.12,313.007 438.592,314.512C440.064,316.017 442.198,317.246 444.994,318.201L444.994,299.15C442.345,299.517 440.248,300.508 438.702,302.123C437.157,303.738 436.385,305.904 436.385,308.62ZM452.057,352.999C454.853,352.485 457.042,351.347 458.624,349.585C460.206,347.823 460.997,345.694 460.997,343.198C460.997,340.776 460.225,338.83 458.679,337.362C457.134,335.894 454.927,334.682 452.057,333.728L452.057,352.999Z" style="fill:white;fill-rule:nonzero;"/>
        </g>
        <g>
            <circle cx="3633.25" cy="155.924" r="56.693" style="fill:rgb(1,55,125);"/>
            <path d="M3661.62,172.387C3661.62,176.204 3660.64,179.783 3658.69,183.123C3656.74,186.464 3653.88,189.217 3650.09,191.382C3646.3,193.548 3641.83,194.815 3636.68,195.182L3636.68,204.101L3629.61,204.101L3629.61,195.071C3622.25,194.411 3616.33,192.19 3611.84,188.409C3607.35,184.628 3605.04,179.508 3604.89,173.047L3621.44,173.047C3621.89,178.333 3624.61,181.527 3629.61,182.628L3629.61,161.595C3624.31,160.273 3620.05,158.952 3616.81,157.63C3613.57,156.309 3610.78,154.18 3608.42,151.243C3606.07,148.307 3604.89,144.306 3604.89,139.24C3604.89,132.853 3607.19,127.641 3611.79,123.603C3616.39,119.565 3622.33,117.253 3629.61,116.666L3629.61,107.746L3636.68,107.746L3636.68,116.666C3643.74,117.253 3649.39,119.382 3653.62,123.053C3657.85,126.723 3660.22,131.789 3660.74,138.249L3644.07,138.249C3643.85,136.12 3643.1,134.267 3641.81,132.688C3640.52,131.11 3638.81,129.99 3636.68,129.329L3636.68,150.142C3642.19,151.537 3646.55,152.877 3649.75,154.162C3652.95,155.446 3655.73,157.539 3658.09,160.439C3660.44,163.338 3661.62,167.321 3661.62,172.387ZM3621,138.469C3621,140.892 3621.74,142.856 3623.21,144.361C3624.68,145.866 3626.82,147.096 3629.61,148.05L3629.61,128.999C3626.96,129.366 3624.87,130.357 3623.32,131.972C3621.78,133.587 3621,135.753 3621,138.469ZM3636.68,182.848C3639.47,182.334 3641.66,181.196 3643.24,179.434C3644.82,177.672 3645.62,175.543 3645.62,173.047C3645.62,170.625 3644.84,168.679 3643.3,167.211C3641.75,165.743 3639.55,164.531 3636.68,163.577L3636.68,182.848Z" style="fill:white;fill-rule:nonzero;"/>
        </g>
        <g>
            <circle cx="2837.1" cy="427.721" r="56.693" style="fill:rgb(124,210,76);"/>
            <path d="M2865.47,444.184C2865.47,448.002 2864.49,451.581 2862.54,454.921C2860.59,458.262 2857.72,461.015 2853.93,463.18C2850.14,465.346 2845.67,466.612 2840.52,466.979L2840.52,475.899L2833.46,475.899L2833.46,466.869C2826.1,466.209 2820.18,463.988 2815.69,460.207C2811.2,456.426 2808.88,451.306 2808.73,444.845L2825.29,444.845C2825.73,450.131 2828.45,453.324 2833.46,454.426L2833.46,433.393C2828.16,432.071 2823.89,430.75 2820.65,429.428C2817.42,428.107 2814.62,425.978 2812.27,423.041C2809.91,420.105 2808.73,416.104 2808.73,411.038C2808.73,404.651 2811.03,399.439 2815.63,395.401C2820.23,391.363 2826.17,389.051 2833.46,388.463L2833.46,379.544L2840.52,379.544L2840.52,388.463C2847.59,389.051 2853.23,391.18 2857.46,394.85C2861.69,398.521 2864.07,403.587 2864.58,410.047L2847.92,410.047C2847.7,407.918 2846.94,406.064 2845.65,404.486C2844.37,402.908 2842.66,401.788 2840.52,401.127L2840.52,421.94C2846.04,423.335 2850.4,424.675 2853.6,425.959C2856.8,427.244 2859.58,429.336 2861.93,432.236C2864.29,435.136 2865.47,439.119 2865.47,444.184ZM2824.85,410.267C2824.85,412.69 2825.58,414.654 2827.06,416.159C2828.53,417.664 2830.66,418.893 2833.46,419.848L2833.46,400.797C2830.81,401.164 2828.71,402.155 2827.17,403.77C2825.62,405.385 2824.85,407.551 2824.85,410.267ZM2840.52,454.646C2843.32,454.132 2845.51,452.994 2847.09,451.232C2848.67,449.47 2849.46,447.341 2849.46,444.845C2849.46,442.422 2848.69,440.477 2847.14,439.009C2845.6,437.54 2843.39,436.329 2840.52,435.375L2840.52,454.646Z" style="fill:white;fill-rule:nonzero;"/>
        </g>
        <g>
            <circle cx="1244.79" cy="562.806" r="56.693" style="fill:rgb(124,210,76);"/>
            <path d="M1273.15,579.269C1273.15,583.086 1272.18,586.665 1270.23,590.005C1268.28,593.346 1265.41,596.099 1261.62,598.264C1257.83,600.43 1253.36,601.696 1248.21,602.064L1248.21,610.983L1241.15,610.983L1241.15,601.953C1233.79,601.293 1227.87,599.072 1223.38,595.291C1218.89,591.51 1216.57,586.39 1216.42,579.929L1232.98,579.929C1233.42,585.215 1236.14,588.409 1241.15,589.51L1241.15,568.477C1235.85,567.155 1231.58,565.834 1228.35,564.512C1225.11,563.191 1222.31,561.062 1219.96,558.125C1217.6,555.189 1216.42,551.188 1216.42,546.122C1216.42,539.735 1218.73,534.523 1223.32,530.485C1227.92,526.447 1233.86,524.135 1241.15,523.548L1241.15,514.628L1248.21,514.628L1248.21,523.548C1255.28,524.135 1260.92,526.264 1265.15,529.935C1269.38,533.605 1271.76,538.671 1272.27,545.131L1255.61,545.131C1255.39,543.002 1254.63,541.148 1253.34,539.57C1252.06,537.992 1250.35,536.872 1248.21,536.211L1248.21,557.024C1253.73,558.419 1258.09,559.759 1261.29,561.044C1264.49,562.328 1267.27,564.421 1269.62,567.32C1271.98,570.22 1273.15,574.203 1273.15,579.269ZM1232.54,545.351C1232.54,547.774 1233.28,549.738 1234.75,551.243C1236.22,552.748 1238.35,553.978 1241.15,554.932L1241.15,535.881C1238.5,536.248 1236.4,537.239 1234.86,538.854C1233.31,540.469 1232.54,542.635 1232.54,545.351ZM1248.21,589.73C1251.01,589.216 1253.2,588.078 1254.78,586.316C1256.36,584.554 1257.15,582.425 1257.15,579.929C1257.15,577.507 1256.38,575.561 1254.83,574.093C1253.29,572.625 1251.08,571.413 1248.21,570.459L1248.21,589.73Z" style="fill:white;fill-rule:nonzero;"/>
        </g>
        <g>
            <g style="filter:url(#_Effect5);">
                <path d="M1528.26,874.193L1528.26,1658.52L961.326,1658.52L961.326,874.193C961.326,795.969 1024.83,732.461 1103.06,732.461L1386.52,732.461C1464.75,732.461 1528.26,795.969 1528.26,874.193Z" style="fill:none;stroke:url(#_Linear6);stroke-width:37.21px;"/>
            </g>
            <path d="M1528.26,874.193L1528.26,1658.52L961.326,1658.52L961.326,874.193C961.326,795.969 1024.83,732.461 1103.06,732.461L1386.52,732.461C1464.75,732.461 1528.26,795.969 1528.26,874.193Z" style="fill:url(#_Linear7);"/>
        </g>
        <g>
            <g style="filter:url(#_Effect8);">
                <path d="M2324.41,386.953L2324.41,1658.52L1757.48,1658.52L1757.48,386.953C1757.48,308.728 1820.99,245.22 1899.21,245.22L2182.68,245.22C2260.9,245.22 2324.41,308.728 2324.41,386.953Z" style="fill:none;stroke:url(#_Linear9);stroke-width:37.21px;"/>
            </g>
            <path d="M2324.41,386.953L2324.41,1658.52L1757.48,1658.52L1757.48,386.953C1757.48,308.728 1820.99,245.22 1899.21,245.22L2182.68,245.22C2260.9,245.22 2324.41,308.728 2324.41,386.953Z" style="fill:url(#_Linear10);"/>
        </g>
        <g>
            <g style="filter:url(#_Effect11);">
                <path d="M3120.56,740.257L3120.56,1658.52L2553.64,1658.52L2553.64,740.257C2553.64,662.033 2617.14,598.524 2695.37,598.524L2978.83,598.524C3057.06,598.524 3120.56,662.033 3120.56,740.257Z" style="fill:none;stroke:url(#_Linear12);stroke-width:37.21px;"/>
            </g>
            <path d="M3120.56,740.257L3120.56,1658.52L2553.64,1658.52L2553.64,740.257C2553.64,662.033 2617.14,598.524 2695.37,598.524L2978.83,598.524C3057.06,598.524 3120.56,662.033 3120.56,740.257Z" style="fill:url(#_Linear13);"/>
        </g>
        <g>
            <g style="filter:url(#_Effect14);">
                <path d="M3916.72,467.807L3916.72,1658.52L3349.79,1658.52L3349.79,467.807C3349.79,389.583 3413.3,326.074 3491.52,326.074L3774.99,326.074C3853.21,326.074 3916.72,389.583 3916.72,467.807Z" style="fill:none;stroke:url(#_Linear15);stroke-width:37.21px;"/>
            </g>
            <path d="M3916.72,467.807L3916.72,1658.52L3349.79,1658.52L3349.79,467.807C3349.79,389.583 3413.3,326.074 3491.52,326.074L3774.99,326.074C3853.21,326.074 3916.72,389.583 3916.72,467.807Z" style="fill:url(#_Linear16);"/>
        </g>
    </g>
    <defs>
        <filter id="_Effect2" filterUnits="userSpaceOnUse" x="50.5665" y="391.508" width="796.138" height="1381.62">
            <feGaussianBlur in="SourceGraphic" stdDeviation="16"/>
        </filter>
        <linearGradient id="_Linear3" x1="0" y1="0" x2="1" y2="0" gradientUnits="userSpaceOnUse" gradientTransform="matrix(2.00195e-13,1142.78,-2248.76,4.81296e-14,448.636,515.746)"><stop offset="0" style="stop-color:rgb(1,55,125);stop-opacity:0.25"/><stop offset="1" style="stop-color:rgb(1,55,125);stop-opacity:0"/></linearGradient>
        <linearGradient id="_Linear4" x1="0" y1="0" x2="1" y2="0" gradientUnits="userSpaceOnUse" gradientTransform="matrix(2.00195e-13,1142.78,-2248.76,4.81296e-14,448.636,515.746)"><stop offset="0" style="stop-color:white;stop-opacity:1"/><stop offset="1" style="stop-color:white;stop-opacity:0"/></linearGradient>
        <filter id="_Effect5" filterUnits="userSpaceOnUse" x="846.721" y="617.856" width="796.138" height="1155.27">
            <feGaussianBlur in="SourceGraphic" stdDeviation="16"/>
        </filter>
        <linearGradient id="_Linear6" x1="0" y1="0" x2="1" y2="0" gradientUnits="userSpaceOnUse" gradientTransform="matrix(-6.89724e-12,926.06,-2267.72,-2.06349e-12,1244.79,732.461)"><stop offset="0" style="stop-color:rgb(1,55,125);stop-opacity:0.25"/><stop offset="1" style="stop-color:rgb(1,55,125);stop-opacity:0"/></linearGradient>
        <linearGradient id="_Linear7" x1="0" y1="0" x2="1" y2="0" gradientUnits="userSpaceOnUse" gradientTransform="matrix(-6.89724e-12,926.06,-2267.72,-2.06349e-12,1244.79,732.461)"><stop offset="0" style="stop-color:white;stop-opacity:1"/><stop offset="1" style="stop-color:white;stop-opacity:0"/></linearGradient>
        <filter id="_Effect8" filterUnits="userSpaceOnUse" x="1642.88" y="130.616" width="796.138" height="1642.51">
            <feGaussianBlur in="SourceGraphic" stdDeviation="16"/>
        </filter>
        <linearGradient id="_Linear9" x1="0" y1="0" x2="1" y2="0" gradientUnits="userSpaceOnUse" gradientTransform="matrix(2.47587e-13,1413.3,-2267.72,4.85353e-14,2040.94,245.22)"><stop offset="0" style="stop-color:rgb(1,55,125);stop-opacity:0.25"/><stop offset="1" style="stop-color:rgb(1,55,125);stop-opacity:0"/></linearGradient>
        <linearGradient id="_Linear10" x1="0" y1="0" x2="1" y2="0" gradientUnits="userSpaceOnUse" gradientTransform="matrix(2.47587e-13,1413.3,-2267.72,4.85353e-14,2040.94,245.22)"><stop offset="0" style="stop-color:white;stop-opacity:1"/><stop offset="1" style="stop-color:white;stop-opacity:0"/></linearGradient>
        <filter id="_Effect11" filterUnits="userSpaceOnUse" x="2439.03" y="483.92" width="796.138" height="1289.21">
            <feGaussianBlur in="SourceGraphic" stdDeviation="16"/>
        </filter>
        <linearGradient id="_Linear12" x1="0" y1="0" x2="1" y2="0" gradientUnits="userSpaceOnUse" gradientTransform="matrix(1.85694e-13,1060,-2267.72,4.85353e-14,2837.1,598.524)"><stop offset="0" style="stop-color:rgb(1,55,125);stop-opacity:0.25"/><stop offset="1" style="stop-color:rgb(1,55,125);stop-opacity:0"/></linearGradient>
        <linearGradient id="_Linear13" x1="0" y1="0" x2="1" y2="0" gradientUnits="userSpaceOnUse" gradientTransform="matrix(1.85694e-13,1060,-2267.72,4.85353e-14,2837.1,598.524)"><stop offset="0" style="stop-color:white;stop-opacity:1"/><stop offset="1" style="stop-color:white;stop-opacity:0"/></linearGradient>
        <filter id="_Effect14" filterUnits="userSpaceOnUse" x="3235.18" y="211.47" width="796.138" height="1561.66">
            <feGaussianBlur in="SourceGraphic" stdDeviation="16"/>
        </filter>
        <linearGradient id="_Linear15" x1="0" y1="0" x2="1" y2="0" gradientUnits="userSpaceOnUse" gradientTransform="matrix(2.33422e-13,1332.45,-2267.72,4.85353e-14,3633.25,326.074)"><stop offset="0" style="stop-color:rgb(1,55,125);stop-opacity:0.25"/><stop offset="1" style="stop-color:rgb(1,55,125);stop-opacity:0"/></linearGradient>
        <linearGradient id="_Linear16" x1="0" y1="0" x2="1" y2="0" gradientUnits="userSpaceOnUse" gradientTransform="matrix(2.33422e-13,1332.45,-2267.72,4.85353e-14,3633.25,326.074)"><stop offset="0" style="stop-color:white;stop-opacity:1"/><stop offset="1" style="stop-color:white;stop-opacity:0"/></linearGradient>
    </defs>
</svg>
