<?xml version="1.0" encoding="UTF-8" standalone="no"?>
<!DOCTYPE svg PUBLIC "-//W3C//DTD SVG 1.1//EN" "http://www.w3.org/Graphics/SVG/1.1/DTD/svg11.dtd">
<svg width="100%" height="100%" viewBox="0 0 355 355" version="1.1" xmlns="http://www.w3.org/2000/svg" xmlns:xlink="http://www.w3.org/1999/xlink" xml:space="preserve" xmlns:serif="http://www.serif.com/" style="fill-rule:evenodd;clip-rule:evenodd;stroke-linejoin:round;stroke-miterlimit:0.73;">
    <g>
        <g>
            <path d="M354.549,88.801L354.549,265.966C354.549,314.856 314.856,354.549 265.966,354.549L88.801,354.549C39.91,354.549 0.218,314.856 0.218,265.966L0.218,88.801C0.218,39.91 39.91,0.218 88.801,0.218L265.966,0.218C314.856,0.218 354.549,39.91 354.549,88.801Z" style="fill:white;stroke:white;stroke-width:0.44px;"/>
        </g>
        <g>
            <g>
                <circle cx="173.496" cy="179.346" r="101.575" style="fill:none;stroke:rgb(1,55,125);stroke-width:26.69px;stroke-linecap:round;stroke-miterlimit:0.348837;"/>
                <circle cx="173.496" cy="179.346" r="101.575" style="fill:white;"/>
                <path d="M198.058,78.138C197.073,80.34 196.304,82.614 195.75,84.962C197.653,85.41 199.543,85.917 201.415,86.479C202.109,84.17 202.58,81.815 202.828,79.416C218.765,84.094 233.352,92.516 245.371,103.979C243.418,105.393 241.614,106.978 239.961,108.734C241.385,110.074 242.768,111.457 244.108,112.881C245.864,111.228 247.449,109.424 248.863,107.47C260.326,119.49 268.748,134.077 273.426,150.014C271.027,150.261 268.672,150.732 266.362,151.427C266.925,153.299 267.432,155.188 267.88,157.091C270.228,156.538 272.502,155.769 274.704,154.784C278.621,170.924 278.621,187.768 274.704,203.908C272.502,202.923 270.228,202.154 267.88,201.601C267.432,203.504 266.925,205.393 266.362,207.265C268.672,207.96 271.027,208.431 273.426,208.678C268.748,224.615 260.326,239.202 248.863,251.222C247.449,249.268 245.864,247.464 244.108,245.811C242.768,247.235 241.385,248.618 239.961,249.958C241.614,251.714 243.418,253.299 245.371,254.714C233.352,266.176 218.765,274.598 202.828,279.276C202.58,276.877 202.109,274.522 201.415,272.213C199.543,272.776 197.653,273.282 195.75,273.73C196.304,276.078 197.073,278.352 198.058,280.554C181.918,284.471 165.074,284.471 148.933,280.554C149.918,278.352 150.688,276.078 151.241,273.73C149.338,273.282 147.449,272.776 145.577,272.213C144.882,274.522 144.411,276.877 144.163,279.276C128.227,274.598 113.64,266.176 101.62,254.714C103.574,253.299 105.377,251.714 107.031,249.958C105.607,248.618 104.224,247.235 102.884,245.811C101.128,247.464 99.542,249.268 98.128,251.222C86.666,239.202 78.244,224.615 73.566,208.678C75.965,208.431 78.319,207.96 80.629,207.265C80.066,205.393 79.56,203.504 79.111,201.601C76.764,202.154 74.489,202.923 72.288,203.908C68.371,187.768 68.371,170.924 72.288,154.784C74.489,155.769 76.764,156.538 79.111,157.091C79.56,155.188 80.066,153.299 80.629,151.427C78.319,150.732 75.965,150.261 73.566,150.014C78.244,134.077 86.666,119.49 98.128,107.47C99.542,109.424 101.128,111.228 102.884,112.881C104.224,111.457 105.607,110.074 107.031,108.734C105.377,106.978 103.574,105.393 101.62,103.979C113.64,92.516 128.227,84.094 144.163,79.416C144.411,81.815 144.882,84.17 145.577,86.479C147.449,85.917 149.338,85.41 151.241,84.962C150.688,82.614 149.918,80.34 148.933,78.138C165.074,74.221 181.918,74.221 198.058,78.138Z" style="fill:rgb(1,55,125);"/>
                <path d="M283.711,232.37L181.53,175.492L181.53,58.548C246.117,58.548 298.474,110.906 298.474,175.492C298.474,195.399 293.393,214.976 283.711,232.37Z" style="fill:none;stroke:white;stroke-width:12.93px;stroke-linecap:round;stroke-miterlimit:0.348837;"/>
                <path d="M283.711,232.37L181.53,175.492L181.53,58.548C246.117,58.548 298.474,110.906 298.474,175.492C298.474,195.399 293.393,214.976 283.711,232.37Z" style="fill:rgb(124,210,76);"/>
            </g>
            <path d="M223.755,131.333L223.755,153.975C223.755,155.188 224.211,155.795 225.122,155.795C225.392,155.795 225.781,155.752 226.287,155.668C226.794,155.584 227.182,155.542 227.452,155.542C229.647,155.542 230.745,156.637 230.745,158.827C230.745,159.972 230.424,160.891 229.782,161.581C229.141,162.272 228.297,162.617 227.25,162.617C227.013,162.617 226.845,162.6 226.743,162.567L223.653,162.213C222.775,162.112 221.239,162.061 219.044,162.061C217.018,162.061 215.751,162.095 215.245,162.162L212.205,162.567C212.07,162.6 211.885,162.617 211.648,162.617C210.5,162.617 209.571,162.272 208.862,161.581C208.153,160.891 207.799,159.989 207.799,158.877C207.799,157.867 208.086,157.058 208.66,156.452C209.234,155.845 209.994,155.542 210.939,155.542C211.243,155.542 211.707,155.584 212.332,155.668C212.957,155.752 213.421,155.795 213.725,155.795C214.536,155.795 215.042,155.255 215.245,154.177C215.279,153.941 215.295,153.065 215.295,151.549L215.295,137.6C215.295,136.017 214.721,135.225 213.573,135.225C213.371,135.225 212.999,135.259 212.459,135.326C211.783,135.494 211.209,135.579 210.737,135.579C208.778,135.579 207.799,134.45 207.799,132.193C207.799,131.047 208.153,130.129 208.862,129.438C209.571,128.747 210.517,128.402 211.699,128.402C212.273,128.402 213.143,128.486 214.308,128.655C215.473,128.823 216.342,128.907 216.916,128.907C217.625,128.907 218.605,128.79 219.854,128.554C220.395,128.453 220.952,128.402 221.526,128.402C222.438,128.402 223.062,128.655 223.4,129.16C223.636,129.565 223.755,130.289 223.755,131.333Z" style="fill:white;fill-rule:nonzero;"/>
            <path d="M247.765,130.07L247.765,139.319C249.217,138.072 250.432,137.238 251.412,136.817C252.391,136.396 253.607,136.185 255.059,136.185C258.199,136.185 260.428,137.162 261.745,139.116C262.623,140.43 263.062,142.519 263.062,145.383L263.062,154.076C263.062,155.761 263.4,156.603 264.075,156.603C264.345,156.603 264.582,156.569 264.784,156.502C264.987,156.435 265.257,156.401 265.595,156.401C267.081,156.401 267.824,157.26 267.824,158.978C267.824,161.337 266.827,162.516 264.835,162.516C264.261,162.516 263.417,162.449 262.302,162.314C261.188,162.179 260.344,162.112 259.77,162.112C259.229,162.112 258.427,162.179 257.364,162.314C256.3,162.449 255.498,162.516 254.958,162.516C254.113,162.516 253.429,162.23 252.906,161.657C252.383,161.084 252.121,160.326 252.121,159.383C252.121,157.664 252.762,156.755 254.046,156.654C254.62,156.62 254.974,156.468 255.109,156.199C255.245,155.929 255.312,155.474 255.312,154.834L255.312,147.102C255.312,144.305 254.248,142.907 252.121,142.907C249.217,142.907 247.765,144.912 247.765,148.921L247.765,154.885C247.765,155.592 247.841,156.039 247.993,156.224C248.145,156.409 248.558,156.553 249.234,156.654C250.28,156.822 250.804,157.664 250.804,159.181C250.804,161.404 249.875,162.516 248.018,162.516C247.613,162.516 246.887,162.449 245.84,162.314C244.793,162.179 243.831,162.112 242.952,162.112C242.243,162.112 241.484,162.162 240.673,162.264C239.322,162.432 238.461,162.516 238.09,162.516C237.178,162.516 236.435,162.205 235.861,161.581C235.287,160.958 235,160.158 235,159.181C235,157.26 235.827,156.3 237.482,156.3C237.684,156.3 237.963,156.359 238.318,156.477C238.672,156.595 238.951,156.654 239.153,156.654C239.728,156.654 240.015,155.71 240.015,153.823L240.015,136.994C240.015,135.107 239.728,134.164 239.153,134.164C238.917,134.164 238.613,134.231 238.242,134.366C238.039,134.433 237.769,134.467 237.431,134.467C235.81,134.467 235,133.54 235,131.687C235,130.676 235.287,129.859 235.861,129.236C236.435,128.613 237.178,128.301 238.09,128.301C238.529,128.301 239.17,128.352 240.015,128.453C240.859,128.554 241.5,128.604 241.939,128.604C242.986,128.604 243.89,128.554 244.649,128.453C245.409,128.352 245.992,128.301 246.397,128.301C247.309,128.301 247.765,128.891 247.765,130.07Z" style="fill:white;fill-rule:nonzero;"/>
        </g>
    </g>
</svg>
