<?xml version="1.0" encoding="UTF-8" standalone="no"?><!DOCTYPE svg PUBLIC "-//W3C//DTD SVG 1.1//EN" "http://www.w3.org/Graphics/SVG/1.1/DTD/svg11.dtd"><svg width="100%" height="100%" viewBox="0 0 150 125" version="1.1" xmlns="http://www.w3.org/2000/svg" xmlns:xlink="http://www.w3.org/1999/xlink" xml:space="preserve" xmlns:serif="http://www.serif.com/" style="fill-rule:evenodd;clip-rule:evenodd;stroke-linejoin:round;stroke-miterlimit:2;"><g><g><clipPath id="_clip1"><rect x="0" y="32.194" width="150" height="39.811"/></clipPath><g clip-path="url(#_clip1)"><g id="Layer_2_1_"><g id="Layer_1-2"><path d="M121.188,32.194l18.052,0c5.939,0 10.76,4.822 10.76,10.759l0,17.854c0,5.938 -4.822,10.76 -10.76,10.76l-28.812,0l0,-28.614c0,-5.938 4.822,-10.759 10.76,-10.759Z" style="fill:#e30613;fill-rule:nonzero;"/><path d="M122.582,41.839l8.966,0c2.51,0 4.504,0.757 5.819,1.992c1.115,1.156 1.714,2.75 1.633,4.344l0,0.079c0,3.308 -1.992,5.3 -4.782,6.097l5.42,7.612l-4.184,0l-4.942,-7.014l-4.424,0l0,7.014l-3.546,0l0.04,-20.124Zm8.688,9.962c2.51,0 4.144,-1.315 4.144,-3.348l0,-0.04c0,-2.152 -1.554,-3.347 -4.184,-3.347l-5.141,0l0,6.774l5.182,-0.04Z" style="fill:#fff;fill-rule:nonzero;"/><g><path d="M14.346,71.568l-5.5,-7.811l-4.94,0l0,7.811l-3.906,0l0,-22.357l9.962,0c1.276,0 2.431,0.16 3.468,0.479c1.036,0.319 1.913,0.797 2.629,1.394c0.718,0.598 1.276,1.355 1.634,2.232c0.398,0.876 0.558,1.873 0.558,2.948c0,1.873 -0.479,3.348 -1.475,4.464c-0.996,1.116 -2.272,1.913 -3.865,2.351l6.058,8.489l-4.624,0Zm-0.04,-15.064c0,-1.236 -0.398,-2.192 -1.235,-2.79c-0.838,-0.598 -1.954,-0.956 -3.427,-0.956l-5.738,0l-0,7.532l5.778,0c1.394,0 2.55,-0.359 3.347,-1.037c0.838,-0.677 1.276,-1.594 1.276,-2.749Z" style="fill:#364150;fill-rule:nonzero;"/></g><g><path d="M23.513,64.514c0.239,1.394 0.797,2.43 1.673,3.187c0.877,0.718 1.954,1.116 3.188,1.116c0.956,0 1.793,-0.16 2.51,-0.517c0.718,-0.359 1.396,-0.838 2.072,-1.514l2.272,2.032c-0.797,0.956 -1.793,1.714 -2.909,2.311c-1.116,0.558 -2.471,0.877 -4.025,0.877c-1.196,0 -2.352,-0.199 -3.388,-0.637c-1.037,-0.439 -1.952,-1.037 -2.75,-1.794c-0.797,-0.757 -1.394,-1.714 -1.832,-2.789c-0.439,-1.076 -0.678,-2.272 -0.678,-3.587c0,-1.195 0.199,-2.352 0.598,-3.427c0.398,-1.076 0.956,-2.033 1.714,-2.83c0.757,-0.797 1.595,-1.435 2.591,-1.873c0.996,-0.438 2.112,-0.677 3.307,-0.677c1.355,0 2.512,0.239 3.547,0.716c0.996,0.479 1.873,1.156 2.51,1.993c0.678,0.836 1.195,1.793 1.514,2.909c0.359,1.116 0.518,2.272 0.518,3.467l0,0.518c0,0.16 -0.04,0.359 -0.04,0.558l-12.394,-0.04Zm8.608,-2.591c-0.08,-0.598 -0.199,-1.195 -0.398,-1.753c-0.199,-0.558 -0.518,-1.037 -0.877,-1.435c-0.359,-0.398 -0.797,-0.716 -1.276,-0.956c-0.517,-0.239 -1.075,-0.318 -1.714,-0.318c-1.195,0 -2.191,0.398 -2.948,1.235c-0.797,0.838 -1.236,1.873 -1.435,3.228l8.648,0Z" style="fill:#364150;fill-rule:nonzero;"/></g><g><path d="M52.802,68.778c-0.398,0.479 -0.836,0.877 -1.315,1.276c-0.478,0.398 -0.996,0.718 -1.513,0.996c-0.558,0.28 -1.157,0.479 -1.834,0.637c-0.678,0.16 -1.394,0.24 -2.232,0.24c-1.276,0 -2.431,-0.24 -3.467,-0.678c-1.076,-0.438 -1.993,-1.076 -2.79,-1.873c-0.797,-0.797 -1.394,-1.714 -1.832,-2.789c-0.439,-1.037 -0.678,-2.192 -0.678,-3.388c0,-1.195 0.239,-2.352 0.678,-3.427c0.438,-1.076 1.036,-1.993 1.832,-2.83c0.797,-0.797 1.714,-1.435 2.79,-1.913c1.076,-0.479 2.232,-0.718 3.506,-0.718c1.595,0 2.91,0.28 3.985,0.797c1.037,0.518 1.993,1.236 2.75,2.112l-2.392,2.591c-0.598,-0.598 -1.235,-1.116 -1.913,-1.514c-0.677,-0.398 -1.514,-0.598 -2.471,-0.598c-0.718,0 -1.355,0.16 -1.952,0.438c-0.598,0.28 -1.116,0.678 -1.514,1.156c-0.438,0.479 -0.757,1.076 -0.996,1.714c-0.24,0.638 -0.359,1.355 -0.359,2.112c0,0.757 0.119,1.475 0.359,2.153c0.239,0.677 0.598,1.235 1.036,1.714c0.438,0.478 0.996,0.876 1.595,1.156c0.598,0.278 1.314,0.438 2.032,0.438c0.917,0 1.714,-0.199 2.431,-0.598c0.678,-0.398 1.355,-0.917 1.952,-1.514l2.311,2.311Z" style="fill:#364150;fill-rule:nonzero;"/></g><g><path d="M70.138,71.568l-4.463,0l-5.101,-7.294l-2.351,2.471l0,4.823l-3.906,0l0,-23.353l3.906,0l0,13.948l7.014,-7.492l4.702,0l-6.695,6.854l6.894,10.043Z" style="fill:#364150;fill-rule:nonzero;"/></g><g><path d="M87.274,63.118c0,1.196 -0.239,2.352 -0.677,3.427c-0.479,1.076 -1.076,1.993 -1.873,2.79c-0.797,0.797 -1.753,1.435 -2.869,1.913c-1.116,0.479 -2.311,0.718 -3.626,0.718c-1.276,0 -2.471,-0.239 -3.547,-0.678c-1.116,-0.438 -2.032,-1.075 -2.83,-1.873c-0.797,-0.797 -1.434,-1.714 -1.872,-2.789c-0.439,-1.037 -0.678,-2.192 -0.678,-3.388c0,-1.195 0.239,-2.351 0.678,-3.427c0.438,-1.076 1.075,-2.033 1.872,-2.83c0.798,-0.797 1.754,-1.434 2.83,-1.913c1.116,-0.478 2.311,-0.718 3.587,-0.718c1.315,0 2.51,0.24 3.587,0.678c1.116,0.478 2.033,1.076 2.83,1.873c0.797,0.797 1.434,1.714 1.873,2.789c0.517,1.076 0.716,2.232 0.716,3.427Zm-3.905,0.08c0,-0.757 -0.12,-1.435 -0.398,-2.112c-0.239,-0.678 -0.598,-1.236 -1.076,-1.754c-0.438,-0.478 -0.996,-0.876 -1.633,-1.156c-0.638,-0.278 -1.315,-0.438 -2.072,-0.438c-0.757,0 -1.475,0.16 -2.072,0.438c-0.637,0.28 -1.156,0.678 -1.595,1.156c-0.438,0.479 -0.797,1.076 -1.036,1.714c-0.239,0.638 -0.359,1.356 -0.359,2.113c0,0.757 0.12,1.434 0.398,2.112c0.24,0.677 0.598,1.235 1.076,1.753c0.438,0.518 0.996,0.877 1.633,1.195c0.638,0.28 1.315,0.438 2.033,0.438c0.797,0 1.475,-0.158 2.112,-0.438c0.638,-0.278 1.156,-0.677 1.595,-1.156c0.438,-0.478 0.797,-1.076 0.996,-1.714c0.319,-0.718 0.398,-1.434 0.398,-2.152Z" style="fill:#364150;fill-rule:nonzero;"/></g><g><path d="M93.292,71.568l-3.905,0l0,-16.897l3.905,0l-0.04,2.63c0.558,-0.838 1.235,-1.514 2.072,-2.112c0.836,-0.598 1.913,-0.877 3.188,-0.877c1.913,0 3.386,0.598 4.423,1.753c1.036,1.156 1.554,2.75 1.554,4.742l0,10.721l-3.906,0l0,-9.565c0,-1.315 -0.318,-2.351 -0.916,-3.029c-0.638,-0.716 -1.514,-1.075 -2.63,-1.075c-1.116,0 -2.033,0.359 -2.71,1.116c-0.678,0.716 -1.037,1.753 -1.037,3.068l0,9.524Z" style="fill:#364150;fill-rule:nonzero;"/></g></g></g></g></g></g></svg>