<?xml version="1.0" encoding="UTF-8" standalone="no"?><!DOCTYPE svg PUBLIC "-//W3C//DTD SVG 1.1//EN" "http://www.w3.org/Graphics/SVG/1.1/DTD/svg11.dtd"><svg width="100%" height="100%" viewBox="0 0 125 125" version="1.1" xmlns="http://www.w3.org/2000/svg" xmlns:xlink="http://www.w3.org/1999/xlink" xml:space="preserve" xmlns:serif="http://www.serif.com/" style="fill-rule:evenodd;clip-rule:evenodd;stroke-linejoin:round;stroke-miterlimit:2;"><g><clipPath id="_clip1"><rect id="Reckon_idJd3rhIWJ_0" x="0" y="43.912" width="125" height="33.176"/></clipPath><g clip-path="url(#_clip1)"><g id="Layer_2_1_"><g id="Layer_1-2"><path d="M100.99,43.912l15.043,0c4.949,0 8.967,4.018 8.967,8.966l0,14.878c0,4.948 -4.018,8.967 -8.967,8.967l-24.01,0l0,-23.845c0,-4.948 4.018,-8.966 8.967,-8.966Z" style="fill:#e30613;fill-rule:nonzero;"/><path d="M102.152,51.949l7.472,0c2.092,0 3.753,0.631 4.849,1.66c0.929,0.963 1.428,2.292 1.361,3.62l0,0.066c0,2.757 -1.66,4.417 -3.985,5.081l4.517,6.343l-3.487,0l-4.118,-5.845l-3.687,0l0,5.845l-2.955,0l0.033,-16.77Zm7.24,8.302c2.092,0 3.453,-1.096 3.453,-2.79l0,-0.033c0,-1.793 -1.295,-2.789 -3.487,-2.789l-4.284,0l0,5.645l4.318,-0.033Z" style="fill:#fff;fill-rule:nonzero;"/><g><path d="M11.955,76.723l-4.583,-6.509l-4.117,0l0,6.509l-3.255,0l0,-18.631l8.302,0c1.063,0 2.026,0.133 2.89,0.399c0.863,0.266 1.594,0.664 2.191,1.162c0.598,0.498 1.063,1.129 1.362,1.86c0.332,0.73 0.465,1.561 0.465,2.457c0,1.561 -0.399,2.79 -1.229,3.72c-0.83,0.93 -1.893,1.594 -3.221,1.959l5.048,7.074l-3.853,0Zm-0.033,-12.553c0,-1.03 -0.332,-1.827 -1.029,-2.325c-0.698,-0.498 -1.628,-0.797 -2.856,-0.797l-4.782,0l0,6.277l4.815,0c1.162,0 2.125,-0.299 2.789,-0.864c0.698,-0.564 1.063,-1.328 1.063,-2.291Z" style="fill:#364150;fill-rule:nonzero;"/></g><g><path d="M19.594,70.845c0.199,1.162 0.664,2.025 1.394,2.656c0.731,0.598 1.628,0.93 2.657,0.93c0.797,0 1.494,-0.133 2.092,-0.431c0.598,-0.299 1.163,-0.698 1.727,-1.262l1.893,1.693c-0.664,0.797 -1.494,1.428 -2.424,1.926c-0.93,0.465 -2.059,0.731 -3.354,0.731c-0.997,0 -1.96,-0.166 -2.823,-0.531c-0.864,-0.366 -1.627,-0.864 -2.292,-1.495c-0.664,-0.631 -1.162,-1.428 -1.527,-2.324c-0.366,-0.897 -0.565,-1.893 -0.565,-2.989c0,-0.996 0.166,-1.96 0.498,-2.856c0.332,-0.897 0.797,-1.694 1.428,-2.358c0.631,-0.664 1.329,-1.196 2.159,-1.561c0.83,-0.365 1.76,-0.564 2.756,-0.564c1.129,0 2.093,0.199 2.956,0.597c0.83,0.399 1.561,0.963 2.092,1.661c0.565,0.697 0.996,1.494 1.262,2.424c0.299,0.93 0.432,1.893 0.432,2.889l0,0.432c0,0.133 -0.033,0.299 -0.033,0.465l-10.328,-0.033Zm7.173,-2.159c-0.067,-0.498 -0.166,-0.996 -0.332,-1.461c-0.166,-0.465 -0.432,-0.864 -0.731,-1.196c-0.299,-0.332 -0.664,-0.597 -1.063,-0.797c-0.431,-0.199 -0.896,-0.265 -1.428,-0.265c-0.996,0 -1.826,0.332 -2.457,1.029c-0.664,0.698 -1.03,1.561 -1.196,2.69l7.207,0Z" style="fill:#364150;fill-rule:nonzero;"/></g><g><path d="M44.002,74.398c-0.332,0.399 -0.697,0.731 -1.096,1.063c-0.398,0.332 -0.83,0.598 -1.261,0.83c-0.465,0.233 -0.964,0.399 -1.528,0.531c-0.565,0.133 -1.162,0.2 -1.86,0.2c-1.063,0 -2.026,-0.2 -2.889,-0.565c-0.897,-0.365 -1.661,-0.897 -2.325,-1.561c-0.664,-0.664 -1.162,-1.428 -1.527,-2.324c-0.366,-0.864 -0.565,-1.827 -0.565,-2.823c0,-0.996 0.199,-1.96 0.565,-2.856c0.365,-0.897 0.863,-1.661 1.527,-2.358c0.664,-0.664 1.428,-1.196 2.325,-1.594c0.897,-0.399 1.86,-0.598 2.922,-0.598c1.329,0 2.425,0.233 3.321,0.664c0.864,0.432 1.661,1.03 2.292,1.76l-1.993,2.159c-0.498,-0.498 -1.029,-0.93 -1.594,-1.262c-0.564,-0.332 -1.262,-0.498 -2.059,-0.498c-0.598,0 -1.129,0.133 -1.627,0.365c-0.498,0.233 -0.93,0.565 -1.262,0.963c-0.365,0.399 -0.631,0.897 -0.83,1.428c-0.2,0.532 -0.299,1.129 -0.299,1.76c0,0.631 0.099,1.229 0.299,1.794c0.199,0.564 0.498,1.029 0.863,1.428c0.365,0.398 0.83,0.73 1.329,0.963c0.498,0.232 1.095,0.365 1.693,0.365c0.764,0 1.428,-0.166 2.026,-0.498c0.565,-0.332 1.129,-0.764 1.627,-1.262l1.926,1.926Z" style="fill:#364150;fill-rule:nonzero;"/></g><g><path d="M58.448,76.723l-3.719,0l-4.251,-6.078l-1.959,2.059l0,4.019l-3.255,0l0,-19.461l3.255,0l0,11.623l5.845,-6.243l3.918,0l-5.579,5.712l5.745,8.369Z" style="fill:#364150;fill-rule:nonzero;"/></g><g><path d="M72.728,69.682c0,0.997 -0.199,1.96 -0.564,2.856c-0.399,0.897 -0.897,1.661 -1.561,2.325c-0.664,0.664 -1.461,1.196 -2.391,1.594c-0.93,0.399 -1.926,0.598 -3.022,0.598c-1.063,0 -2.059,-0.199 -2.956,-0.565c-0.93,-0.365 -1.693,-0.896 -2.358,-1.561c-0.664,-0.664 -1.195,-1.428 -1.56,-2.324c-0.366,-0.864 -0.565,-1.827 -0.565,-2.823c0,-0.996 0.199,-1.959 0.565,-2.856c0.365,-0.897 0.896,-1.694 1.56,-2.358c0.665,-0.664 1.462,-1.195 2.358,-1.594c0.93,-0.398 1.926,-0.598 2.989,-0.598c1.096,0 2.092,0.2 2.989,0.565c0.93,0.398 1.694,0.897 2.358,1.561c0.664,0.664 1.195,1.428 1.561,2.324c0.431,0.897 0.597,1.86 0.597,2.856Zm-3.254,0.067c0,-0.631 -0.1,-1.196 -0.332,-1.76c-0.199,-0.565 -0.498,-1.03 -0.897,-1.462c-0.365,-0.398 -0.83,-0.73 -1.361,-0.963c-0.532,-0.232 -1.096,-0.365 -1.727,-0.365c-0.631,0 -1.229,0.133 -1.727,0.365c-0.531,0.233 -0.963,0.565 -1.329,0.963c-0.365,0.399 -0.664,0.897 -0.863,1.428c-0.199,0.532 -0.299,1.13 -0.299,1.761c0,0.631 0.1,1.195 0.332,1.76c0.2,0.564 0.498,1.029 0.897,1.461c0.365,0.432 0.83,0.731 1.361,0.996c0.532,0.233 1.096,0.365 1.694,0.365c0.664,0 1.229,-0.132 1.76,-0.365c0.532,-0.232 0.963,-0.564 1.329,-0.963c0.365,-0.398 0.664,-0.897 0.83,-1.428c0.266,-0.598 0.332,-1.195 0.332,-1.793Z" style="fill:#364150;fill-rule:nonzero;"/></g><g><path d="M77.743,76.723l-3.254,0l0,-14.081l3.254,0l-0.033,2.192c0.465,-0.698 1.029,-1.262 1.727,-1.76c0.697,-0.498 1.594,-0.731 2.657,-0.731c1.594,0 2.822,0.498 3.686,1.461c0.863,0.963 1.295,2.292 1.295,3.952l0,8.934l-3.255,0l0,-7.971c0,-1.096 -0.265,-1.959 -0.763,-2.524c-0.532,-0.597 -1.262,-0.896 -2.192,-0.896c-0.93,0 -1.694,0.299 -2.258,0.93c-0.565,0.597 -0.864,1.461 -0.864,2.557l0,7.937Z" style="fill:#364150;fill-rule:nonzero;"/></g></g></g></g><g id="Reckon_idJd3rhIWJ_01" serif:id="Reckon_idJd3rhIWJ_0"></g></g></svg>