<?xml version="1.0" encoding="UTF-8" standalone="no"?>
<!DOCTYPE svg PUBLIC "-//W3C//DTD SVG 1.1//EN" "http://www.w3.org/Graphics/SVG/1.1/DTD/svg11.dtd">
<svg width="100%" height="100%" viewBox="0 0 800 800" version="1.1" xmlns="http://www.w3.org/2000/svg" xmlns:xlink="http://www.w3.org/1999/xlink" xml:space="preserve" xmlns:serif="http://www.serif.com/" style="fill-rule:evenodd;clip-rule:evenodd;stroke-linejoin:round;stroke-miterlimit:2;">
    <g transform="matrix(-0.766044,0.642788,-0.416863,-0.496798,668.745,399.73)">
        <path d="M498,146.839C498,129.819 489.038,116 478,116L118,116C106.962,116 98,129.819 98,146.839C98,163.86 106.962,177.679 118,177.679L478,177.679C489.038,177.679 498,163.86 498,146.839Z" style="fill:white;"/>
    </g>
    <g transform="matrix(-0.766044,-0.642788,-0.416863,0.496798,668.745,400.853)">
        <path d="M498,146.839C498,129.819 489.038,116 478,116L118,116C106.962,116 98,129.819 98,146.839C98,163.86 106.962,177.679 118,177.679L478,177.679C489.038,177.679 498,163.86 498,146.839Z" style="fill:white;"/>
    </g>
</svg>
