<?xml version="1.0" encoding="UTF-8" standalone="no"?><!DOCTYPE svg PUBLIC "-//W3C//DTD SVG 1.1//EN" "http://www.w3.org/Graphics/SVG/1.1/DTD/svg11.dtd"><svg width="100%" height="100%" viewBox="0 0 125 125" version="1.1" xmlns="http://www.w3.org/2000/svg" xmlns:xlink="http://www.w3.org/1999/xlink" xml:space="preserve" xmlns:serif="http://www.serif.com/" style="fill-rule:evenodd;clip-rule:evenodd;stroke-linejoin:round;stroke-miterlimit:2;"><g><clipPath id="_clip1"><rect id="Sage_Group_logo_2022" x="3.493" y="29.346" width="118.014" height="66.308"/></clipPath><g clip-path="url(#_clip1)"><g><path id="sagebrilliantgreen" d="M75.815,95.569c-5.473,-0.733 -10.002,-4.19 -11.542,-8.811c-1.293,-3.881 -0.53,-6.881 1.818,-7.146c1.061,-0.12 1.751,0.072 2.413,0.67c0.679,0.613 0.855,1.069 1.004,2.595c0.436,4.469 3.733,7.468 8.207,7.468c1.614,0 2.619,-0.218 3.979,-0.863c2.629,-1.248 4.021,-3.624 3.864,-6.597c-0.105,-1.991 -0.93,-3.507 -2.588,-4.753c-1.295,-0.973 -3.081,-1.79 -6.447,-2.948c-4.659,-1.602 -6.772,-2.629 -8.757,-4.255c-3.692,-3.024 -5.09,-8.579 -3.462,-13.753c0.695,-2.209 1.617,-3.722 3.314,-5.438c2.53,-2.561 5.825,-3.877 9.691,-3.873c6.975,0.008 12.633,4.334 13.91,10.633c0.199,0.981 0.239,1.724 0.172,3.137c-0.139,2.912 -0.858,4.995 -2.181,6.319c-1.487,1.487 -3.77,1.224 -4.66,-0.538c-0.444,-0.879 -0.432,-1.403 0.056,-2.545c0.727,-1.702 0.983,-2.689 0.983,-3.801c0,-2.136 -0.716,-3.923 -2.183,-5.45c-1.075,-1.12 -2.275,-1.801 -3.912,-2.219c-4.209,-1.077 -8.285,1.059 -9.62,5.042c-0.474,1.415 -0.476,3.562 -0.003,4.889c0.443,1.246 1.269,2.407 2.31,3.246c1.173,0.945 3.764,2.195 6.635,3.199c4.636,1.622 6.208,2.356 8.18,3.817c2.015,1.494 3.234,3.221 4.003,5.674c0.31,0.99 0.36,1.469 0.361,3.458c0,1.942 -0.055,2.499 -0.348,3.509c-1.369,4.725 -5.026,8.042 -10.045,9.11c-1.365,0.291 -3.844,0.398 -5.152,0.223l0,0.001Zm-60.94,-20.621c-5.543,-0.875 -9.756,-4.386 -11.046,-9.208c-0.41,-1.531 -0.443,-4.256 -0.071,-5.778c0.543,-2.224 1.854,-4.145 3.112,-4.56c1.065,-0.352 2.466,0.127 3.167,1.081c0.546,0.743 0.527,1.626 -0.068,3.157c-0.663,1.707 -0.793,2.613 -0.572,3.996c0.449,2.811 2.444,4.977 5.378,5.839c1.177,0.345 3.424,0.324 4.608,-0.045c4.151,-1.292 6.003,-5.768 3.977,-9.612c-0.996,-1.889 -3.256,-3.335 -7.871,-5.037c-4.932,-1.819 -6.766,-2.828 -8.793,-4.839c-1.585,-1.573 -2.334,-2.83 -2.861,-4.803c-0.456,-1.709 -0.456,-4.716 0,-6.434c0.939,-3.529 3.275,-6.379 6.556,-8c1.984,-0.981 3.694,-1.362 6.087,-1.359c4.14,0.006 7.236,1.241 9.929,3.958c2.127,2.147 3.123,4.188 3.451,7.071c0.319,2.806 -0.727,4.219 -3.014,4.073c-1.477,-0.094 -2.415,-0.967 -2.585,-2.406c-0.303,-2.557 -0.86,-3.901 -2.153,-5.194c-2.52,-2.52 -6.861,-2.967 -9.878,-1.016c-3.085,1.994 -3.894,6.555 -1.677,9.459c1.155,1.512 3.11,2.627 7.733,4.408c3.582,1.38 4.856,1.974 6.437,3.005c2.32,1.513 3.839,3.348 4.612,5.575c1.718,4.951 0.147,10.676 -3.816,13.908c-1.214,0.99 -3.371,2.063 -4.96,2.467c-1.423,0.361 -4.307,0.511 -5.682,0.294l0,0Zm29.653,-0.017c-4.284,-0.614 -8.426,-3.724 -10.267,-7.708c-0.917,-1.986 -1.22,-3.442 -1.206,-5.814c0.013,-2.474 0.315,-3.816 1.332,-5.926c1.34,-2.78 3.478,-4.886 6.334,-6.242c2.048,-0.972 3.146,-1.236 5.541,-1.332c3.104,-0.125 5.469,0.427 7.83,1.826c1.167,0.692 3.05,2.402 3.86,3.506c0.835,1.137 1.773,3.161 2.207,4.763c0.398,1.469 0.402,1.534 0.458,8.088c0.051,5.903 0.03,6.679 -0.201,7.284c-0.818,2.142 -4.24,2.277 -5.295,0.209c-0.269,-0.528 -0.297,-1.065 -0.358,-6.875c-0.054,-5.259 -0.108,-6.465 -0.324,-7.289c-0.653,-2.492 -2.183,-4.51 -4.155,-5.48c-4.744,-2.335 -10.242,0.527 -11.263,5.863c-0.279,1.458 -0.278,2.017 0.009,3.375c0.309,1.467 1.011,2.831 2.014,3.915c2.028,2.19 4.232,2.869 7.535,2.324c1.592,-0.263 2.223,-0.14 2.978,0.579c1.593,1.52 0.988,3.628 -1.286,4.479c-1.607,0.601 -3.614,0.76 -5.743,0.455l0,0Zm61.965,0.011c-4.865,-0.713 -8.95,-3.742 -10.926,-8.101c-1.504,-3.317 -1.472,-7.674 0.083,-11.038c1.697,-3.673 4.856,-6.369 8.793,-7.504c1.673,-0.482 5.533,-0.516 7.312,-0.065c5.882,1.494 9.697,5.957 9.75,11.405c0.013,1.255 -0.029,1.463 -0.438,2.209c-0.271,0.495 -0.708,1 -1.098,1.268c-1.181,0.813 -1.942,0.91 -7.137,0.91c-4.577,0 -4.725,-0.009 -5.384,-0.346c-0.907,-0.464 -1.271,-1.001 -1.351,-1.995c-0.053,-0.669 -0.001,-0.908 0.295,-1.339c0.797,-1.161 0.794,-1.16 5.078,-1.246c3.624,-0.072 3.863,-0.095 4.077,-0.384c0.467,-0.635 -0.166,-2.285 -1.319,-3.439c-1.405,-1.404 -3.454,-2.183 -5.728,-2.176c-2.392,0.007 -4.052,0.682 -5.673,2.304c-3.329,3.333 -3.397,8.563 -0.154,11.869c1.656,1.689 3.518,2.447 6.006,2.447c2.468,0 3.457,-0.336 7.308,-2.479c3.373,-1.878 5.973,1.598 3.163,4.227c-2.848,2.663 -8.187,4.129 -12.657,3.473l0,0Z" style="fill:#00d639;fill-rule:nonzero;"/></g></g><g id="Sage_Group_logo_20221" serif:id="Sage_Group_logo_2022"></g></g></svg>