<?xml version="1.0" encoding="UTF-8" standalone="no"?>
<!DOCTYPE svg PUBLIC "-//W3C//DTD SVG 1.1//EN" "http://www.w3.org/Graphics/SVG/1.1/DTD/svg11.dtd">
<svg width="100%" height="100%" viewBox="0 0 125 125" version="1.1" xmlns="http://www.w3.org/2000/svg" xmlns:xlink="http://www.w3.org/1999/xlink" xml:space="preserve" xmlns:serif="http://www.serif.com/" style="fill-rule:evenodd;clip-rule:evenodd;stroke-linejoin:round;stroke-miterlimit:2;">
    <g transform="matrix(0.05,0,0,0.05,62.5,62.5)">
        <g id="sage" transform="matrix(1,0,0,1,-1250,-475.5)">
            <clipPath id="_clip1">
                <rect x="0" y="0" width="2500" height="951"/>
            </clipPath>
            <g clip-path="url(#_clip1)">
                <path d="M2178.53,0C1985.51,0 1859.47,132.206 1859.47,350.786C1859.47,622.248 2052.49,699.809 2190.86,699.809C2365.38,699.809 2464.97,582.587 2464.97,582.587L2375.95,493.568C2328.36,535.874 2273.71,561.434 2192.63,561.434C2085.1,561.434 2012.83,498.856 2012.83,412.482L2492.29,412.482C2491.41,411.601 2575.14,0 2178.53,0M2012.83,294.378C2012.83,178.037 2100.96,122.511 2195.27,122.511C2289.58,122.511 2375.07,179.8 2375.07,294.378L2012.83,294.378ZM413.138,282.92C351.442,274.988 174.286,282.039 174.286,200.953C174.286,153.359 248.321,126.918 317.068,126.918C426.358,126.918 499.512,170.986 519.784,185.088L612.328,92.544C585.005,71.391 483.647,0 317.068,0C165.472,0 28.86,79.323 28.86,206.241C28.86,401.024 264.186,401.024 362.018,410.719C421.951,416.889 475.715,420.414 475.715,478.585C475.715,533.23 392.866,563.196 328.526,563.196C223.643,563.196 161.065,528.823 99.369,473.297L0.656,572.892C91.437,661.029 206.897,699.809 320.594,699.809C496.868,699.809 624.667,622.248 624.667,466.246C624.667,362.244 555.038,300.548 413.138,282.92M919.045,0C766.568,0 666.973,77.561 649.345,93.425L741.889,185.969C760.398,170.986 822.975,127.799 920.808,127.799C1038.03,127.799 1073.29,174.512 1073.29,227.394L1073.29,293.497L864.4,293.497C786.839,293.497 635.243,312.887 635.243,482.992C635.243,608.146 706.634,699.809 877.62,699.809C963.114,699.809 1028.34,671.605 1073.29,618.723L1073.29,686.589L1224.88,686.589L1224.88,237.97C1224,81.086 1127.93,0 919.045,0M1074.17,441.567C1074.17,571.129 981.622,564.078 899.655,564.078C815.924,564.078 763.042,542.044 763.042,483.873C763.042,430.109 806.229,411.601 896.129,411.601L1074.17,411.601L1074.17,441.567ZM1692.01,14.102L1692.01,89.019C1640.89,29.967 1579.19,0 1494.58,0C1350.92,0 1276.88,80.205 1252.2,166.579C1242.51,198.309 1239.86,259.123 1239.86,349.023C1239.86,433.635 1240.75,511.196 1269.83,570.247C1311.26,653.096 1410.85,699.809 1494.58,699.809C1575.67,699.809 1644.41,668.08 1692.01,614.316L1692.01,656.622C1692.01,705.979 1675.26,738.589 1643.53,764.149C1611.8,789.709 1572.14,805.574 1516.62,805.574C1466.38,805.574 1418.78,778.251 1391.46,758.861L1289.22,861.1C1355.32,914.864 1434.65,951 1519.26,951.881C1609.16,952.763 1682.31,925.44 1745.77,875.202C1806.59,827.608 1845.37,736.827 1845.37,641.639L1845.37,14.102L1692.01,14.102ZM1692.01,349.023C1692.01,401.024 1691.13,439.804 1686.72,459.195C1677.03,502.382 1627.67,559.671 1537.77,559.671C1514.85,559.671 1400.27,546.45 1387.05,446.855C1384.41,426.584 1382.65,400.143 1382.65,348.142C1382.65,270.581 1386.17,245.903 1389.7,225.631C1397.63,186.851 1448.75,128.68 1537.77,128.68C1646.18,128.68 1681.43,202.715 1686.72,231.801C1691.13,252.954 1692.01,297.022 1692.01,349.023" style="fill:rgb(63,174,42);fill-rule:nonzero;"/>
            </g>
        </g>
        <g id="sage1" serif:id="sage">
        </g>
    </g>
</svg>
