<?xml version="1.0" encoding="UTF-8" standalone="no"?><!DOCTYPE svg PUBLIC "-//W3C//DTD SVG 1.1//EN" "http://www.w3.org/Graphics/SVG/1.1/DTD/svg11.dtd"><svg width="100%" height="100%" viewBox="0 0 125 125" version="1.1" xmlns="http://www.w3.org/2000/svg" xmlns:xlink="http://www.w3.org/1999/xlink" xml:space="preserve" xmlns:serif="http://www.serif.com/" style="fill-rule:evenodd;clip-rule:evenodd;stroke-linejoin:round;stroke-miterlimit:2;"><g><g><clipPath id="_clip1"><rect x="9.158" y="32.529" width="106.685" height="59.942"/></clipPath><g clip-path="url(#_clip1)"><g><path id="sagebrilliantgreen" d="M74.537,92.394c-4.948,-0.663 -9.042,-3.788 -10.434,-7.965c-1.169,-3.508 -0.479,-6.22 1.643,-6.46c0.959,-0.108 1.583,0.065 2.181,0.606c0.614,0.554 0.773,0.966 0.908,2.346c0.394,4.04 3.375,6.751 7.419,6.751c1.459,0 2.368,-0.197 3.597,-0.78c2.377,-1.128 3.635,-3.276 3.493,-5.964c-0.095,-1.8 -0.841,-3.17 -2.34,-4.297c-1.171,-0.88 -2.785,-1.618 -5.828,-2.665c-4.212,-1.448 -6.122,-2.377 -7.916,-3.847c-3.338,-2.734 -4.601,-7.755 -3.13,-12.433c0.628,-1.997 1.462,-3.365 2.996,-4.916c2.287,-2.315 5.266,-3.505 8.761,-3.501c6.305,0.007 11.42,3.918 12.575,9.612c0.18,0.887 0.216,1.558 0.155,2.836c-0.126,2.632 -0.776,4.515 -1.972,5.712c-1.344,1.344 -3.408,1.106 -4.213,-0.486c-0.401,-0.795 -0.391,-1.268 0.051,-2.301c0.657,-1.539 0.889,-2.431 0.889,-3.436c0,-1.931 -0.647,-3.546 -1.973,-4.927c-0.972,-1.012 -2.057,-1.628 -3.536,-2.006c-3.805,-0.974 -7.49,0.957 -8.696,4.558c-0.428,1.279 -0.43,3.22 -0.003,4.42c0.4,1.126 1.147,2.176 2.088,2.934c1.06,0.854 3.403,1.984 5.998,2.892c4.191,1.466 5.612,2.13 7.395,3.451c1.822,1.351 2.924,2.912 3.619,5.129c0.28,0.895 0.325,1.328 0.326,3.126c0,1.756 -0.05,2.259 -0.315,3.172c-1.238,4.271 -4.544,7.27 -9.081,8.235c-1.234,0.263 -3.475,0.36 -4.657,0.202l0,0.001Zm-55.09,-18.641c-5.011,-0.791 -8.819,-3.965 -9.986,-8.324c-0.371,-1.384 -0.4,-3.847 -0.064,-5.223c0.491,-2.01 1.676,-3.747 2.813,-4.122c0.963,-0.318 2.229,0.115 2.863,0.977c0.494,0.672 0.476,1.47 -0.061,2.854c-0.599,1.543 -0.717,2.362 -0.517,3.612c0.406,2.541 2.209,4.499 4.862,5.278c1.064,0.312 3.095,0.293 4.166,-0.041c3.753,-1.168 5.427,-5.214 3.595,-8.689c-0.9,-1.708 -2.943,-3.015 -7.115,-4.553c-4.459,-1.644 -6.116,-2.557 -7.949,-4.374c-1.433,-1.422 -2.11,-2.558 -2.586,-4.342c-0.412,-1.545 -0.412,-4.263 0,-5.816c0.849,-3.19 2.961,-5.767 5.927,-7.232c1.794,-0.887 3.339,-1.231 5.503,-1.229c3.743,0.005 6.541,1.122 8.976,3.578c1.923,1.941 2.823,3.786 3.12,6.392c0.288,2.537 -0.657,3.814 -2.725,3.682c-1.335,-0.085 -2.183,-0.874 -2.337,-2.175c-0.274,-2.312 -0.777,-3.527 -1.946,-4.695c-2.278,-2.278 -6.202,-2.682 -8.93,-0.918c-2.789,1.803 -3.52,5.926 -1.516,8.551c1.044,1.367 2.811,2.375 6.991,3.985c3.238,1.248 4.39,1.784 5.819,2.717c2.097,1.368 3.47,3.027 4.169,5.04c1.553,4.476 0.133,9.651 -3.45,12.573c-1.097,0.895 -3.047,1.865 -4.484,2.23c-1.286,0.326 -3.894,0.462 -5.137,0.266Zm26.806,-0.015c-3.873,-0.555 -7.617,-3.366 -9.281,-6.968c-0.829,-1.795 -1.103,-3.112 -1.09,-5.256c0.012,-2.236 0.285,-3.45 1.204,-5.357c1.211,-2.513 3.144,-4.417 5.726,-5.643c1.851,-0.879 2.844,-1.117 5.009,-1.204c2.806,-0.113 4.944,0.386 7.078,1.651c1.055,0.626 2.757,2.171 3.489,3.169c0.755,1.028 1.603,2.858 1.995,4.306c0.36,1.328 0.363,1.387 0.414,7.312c0.046,5.336 0.027,6.038 -0.182,6.585c-0.739,1.936 -3.833,2.058 -4.787,0.189c-0.243,-0.477 -0.268,-0.963 -0.324,-6.215c-0.049,-4.754 -0.098,-5.844 -0.293,-6.589c-0.59,-2.253 -1.973,-4.077 -3.756,-4.954c-4.289,-2.111 -9.259,0.476 -10.182,5.3c-0.252,1.318 -0.251,1.823 0.008,3.051c0.279,1.326 0.914,2.559 1.821,3.539c1.833,1.98 3.826,2.594 6.812,2.101c1.439,-0.238 2.01,-0.127 2.692,0.523c1.44,1.374 0.893,3.28 -1.163,4.049c-1.453,0.543 -3.267,0.687 -5.192,0.411Zm56.016,0.01c-4.398,-0.645 -8.091,-3.383 -9.877,-7.323c-1.36,-2.999 -1.331,-6.937 0.075,-9.978c1.534,-3.32 4.39,-5.758 7.949,-6.784c1.512,-0.436 5.002,-0.466 6.61,-0.059c5.317,1.351 8.766,5.385 8.814,10.31c0.012,1.135 -0.026,1.323 -0.396,1.997c-0.245,0.447 -0.64,0.904 -0.993,1.146c-1.068,0.735 -1.756,0.823 -6.452,0.823c-4.138,0 -4.271,-0.008 -4.867,-0.313c-0.82,-0.419 -1.149,-0.905 -1.221,-1.803c-0.048,-0.605 -0.001,-0.821 0.267,-1.21c0.72,-1.05 0.718,-1.049 4.591,-1.126c3.276,-0.065 3.492,-0.086 3.686,-0.347c0.422,-0.574 -0.15,-2.066 -1.192,-3.109c-1.27,-1.269 -3.122,-1.973 -5.178,-1.967c-2.162,0.006 -3.663,0.617 -5.128,2.083c-3.009,3.013 -3.071,7.741 -0.139,10.73c1.497,1.527 3.18,2.212 5.429,2.212c2.231,0 3.125,-0.304 6.606,-2.241c3.049,-1.698 5.4,1.445 2.859,3.821c-2.575,2.407 -7.401,3.733 -11.442,3.14Z" style="fill:#00d639;fill-rule:nonzero;"/></g></g></g></g></svg>