<?xml version="1.0" encoding="UTF-8" standalone="no"?>
<!DOCTYPE svg PUBLIC "-//W3C//DTD SVG 1.1//EN" "http://www.w3.org/Graphics/SVG/1.1/DTD/svg11.dtd">
<svg class="size-full w-full m-auto md:hidden" width="100%" height="100%" viewBox="0 0 3974 4478" version="1.1" xmlns="http://www.w3.org/2000/svg" xmlns:xlink="http://www.w3.org/1999/xlink" xml:space="preserve" xmlns:serif="http://www.serif.com/" style="fill-rule:evenodd;clip-rule:evenodd;stroke-linejoin:round;stroke-miterlimit:0.73;">
    <g>
        <g>
            <g>
                <g style="filter:url(#_Effect1);">
                    <path d="M1797.85,352.729L1797.85,919.721C1797.85,1076.17 1670.83,1203.19 1514.38,1203.19L947.452,1203.19C791.004,1203.19 663.988,1076.17 663.988,919.721L663.988,352.729C663.988,196.281 791.004,69.265 947.452,69.265L1514.38,69.265C1670.83,69.265 1797.85,196.281 1797.85,352.729Z" style="fill:none;stroke:rgb(1,55,125);stroke-opacity:0.1;stroke-width:38.11px;"/>
                </g>
                <path d="M1797.85,352.729L1797.85,919.721C1797.85,1076.17 1670.83,1203.19 1514.38,1203.19L947.452,1203.19C791.004,1203.19 663.988,1076.17 663.988,919.721L663.988,352.729C663.988,196.281 791.004,69.265 947.452,69.265L1514.38,69.265C1670.83,69.265 1797.85,196.281 1797.85,352.729Z" style="fill:white;fill-opacity:0.7;stroke:white;stroke-opacity:0.7;stroke-width:1.39px;"/>
            </g>
            <g>
                <path d="M1454.8,629.21L1454.8,803.119C1454.8,851.11 1415.83,890.073 1367.84,890.073L1104.15,890.073C1056.16,890.073 1017.2,851.11 1017.2,803.119L1017.2,629.21C1017.2,581.219 1056.16,542.256 1104.15,542.256L1367.84,542.256C1415.83,542.256 1454.8,581.219 1454.8,629.21Z" style="fill:rgb(124,210,76);"/>
                <path d="M1024.19,281.436L1437.64,281.436C1509.6,281.436 1568.02,339.856 1568.02,411.814L1568.02,672.57C1568.02,744.527 1509.6,802.948 1437.64,802.948L1024.19,802.948C952.231,802.948 893.811,744.527 893.811,672.57L893.811,411.814C893.811,339.856 952.231,281.436 1024.19,281.436Z" style="fill:rgb(1,55,125);"/>
                <clipPath id="_clip2">
                    <path d="M1024.19,281.436L1437.64,281.436C1509.6,281.436 1568.02,339.856 1568.02,411.814L1568.02,672.57C1568.02,744.527 1509.6,802.948 1437.64,802.948L1024.19,802.948C952.231,802.948 893.811,744.527 893.811,672.57L893.811,411.814C893.811,339.856 952.231,281.436 1024.19,281.436Z"/>
                </clipPath>
                <g clip-path="url(#_clip2)">
                    <g>
                        <g style="filter:url(#_Effect3);">
                            <path d="M1454.8,629.21L1454.8,803.119C1454.8,851.11 1415.83,890.073 1367.84,890.073L1104.15,890.073C1056.16,890.073 1017.2,851.11 1017.2,803.119L1017.2,629.21C1017.2,581.219 1056.16,542.256 1104.15,542.256L1367.84,542.256C1415.83,542.256 1454.8,581.219 1454.8,629.21Z" style="fill:none;stroke:white;stroke-width:18.91px;stroke-linejoin:bevel;stroke-miterlimit:0.348837;"/>
                            <path d="M1454.8,629.21L1454.8,803.119C1454.8,851.11 1415.83,890.073 1367.84,890.073L1104.15,890.073C1056.16,890.073 1017.2,851.11 1017.2,803.119L1017.2,629.21C1017.2,581.219 1056.16,542.256 1104.15,542.256L1367.84,542.256C1415.83,542.256 1454.8,581.219 1454.8,629.21Z" style="fill:rgb(157,175,255);"/>
                        </g>
                    </g>
                </g>
                <ellipse cx="1362.33" cy="657.983" rx="24.737" ry="24.772" style="fill:white;"/>
            </g>
            <g transform="matrix(0.998558,0,0,1,-0.1479,-7.27596e-12)">
                <g transform="matrix(73.9191,0,0,73.9191,1486.42,1040.57)">
                </g>
                <text x="981.48px" y="1040.57px" style="font-family:'Poppins-Bold', 'Poppins';font-weight:700;font-size:73.919px;fill:rgb(1,55,125);stroke:rgb(1,55,125);stroke-width:0.32px;stroke-miterlimit:2;">VJC PARTNER</text>
            </g>
        </g>
        <g>
            <g>
                <g style="filter:url(#_Effect4);">
                    <path d="M1674.99,3941.41L1674.99,4272.14C1674.99,4363.39 1600.9,4437.48 1509.65,4437.48L1178.96,4437.48C1087.7,4437.48 1013.61,4363.39 1013.61,4272.14L1013.61,3941.41C1013.61,3850.15 1087.7,3776.06 1178.96,3776.06L1509.65,3776.06C1600.9,3776.06 1674.99,3850.15 1674.99,3941.41Z" style="fill:none;stroke:rgb(1,55,125);stroke-opacity:0.1;stroke-width:22.23px;"/>
                </g>
                <path d="M1674.99,3941.41L1674.99,4272.14C1674.99,4363.39 1600.9,4437.48 1509.65,4437.48L1178.96,4437.48C1087.7,4437.48 1013.61,4363.39 1013.61,4272.14L1013.61,3941.41C1013.61,3850.15 1087.7,3776.06 1178.96,3776.06L1509.65,3776.06C1600.9,3776.06 1674.99,3850.15 1674.99,3941.41Z" style="fill:white;fill-opacity:0.7;stroke:white;stroke-opacity:0.7;stroke-width:0.81px;"/>
            </g>
            <g>
                <path d="M1570.3,4199.42L1570.3,4209.33C1570.3,4224.26 1558.18,4236.38 1543.25,4236.38L1145.35,4236.38C1130.42,4236.38 1118.3,4224.26 1118.3,4209.33L1118.3,4199.42C1118.3,4184.49 1130.42,4172.37 1145.35,4172.37L1543.25,4172.37C1558.18,4172.37 1570.3,4184.49 1570.3,4199.42Z" style="fill:rgb(124,210,76);"/>
                <path d="M1216.48,3914.98L1472.13,3914.98C1512.06,3914.98 1544.48,3947.4 1544.48,3987.33L1544.48,4132.03C1544.48,4171.96 1512.06,4204.38 1472.13,4204.38L1216.48,4204.38C1176.55,4204.38 1144.13,4171.96 1144.13,4132.03L1144.13,3987.33C1144.13,3947.4 1176.55,3914.98 1216.48,3914.98Z" style="fill:rgb(1,55,125);"/>
                <clipPath id="_clip5">
                    <path d="M1216.48,3914.98L1472.13,3914.98C1512.06,3914.98 1544.48,3947.4 1544.48,3987.33L1544.48,4132.03C1544.48,4171.96 1512.06,4204.38 1472.13,4204.38L1216.48,4204.38C1176.55,4204.38 1144.13,4171.96 1144.13,4132.03L1144.13,3987.33C1144.13,3947.4 1176.55,3914.98 1216.48,3914.98Z"/>
                </clipPath>
                <g clip-path="url(#_clip5)">
                    <g>
                        <g style="filter:url(#_Effect6);">
                            <path d="M1570.3,4188.37L1570.3,4220.38C1570.3,4229.21 1563.13,4236.38 1554.3,4236.38L1134.3,4236.38C1125.47,4236.38 1118.3,4229.21 1118.3,4220.38L1118.3,4188.37C1118.3,4179.54 1125.47,4172.37 1134.3,4172.37L1554.3,4172.37C1563.13,4172.37 1570.3,4179.54 1570.3,4188.37Z" style="fill:none;stroke:white;stroke-width:11.23px;stroke-linejoin:bevel;stroke-miterlimit:0.348837;"/>
                            <path d="M1570.3,4188.37L1570.3,4220.38C1570.3,4229.21 1563.13,4236.38 1554.3,4236.38L1134.3,4236.38C1125.47,4236.38 1118.3,4229.21 1118.3,4220.38L1118.3,4188.37C1118.3,4179.54 1125.47,4172.37 1134.3,4172.37L1554.3,4172.37C1563.13,4172.37 1570.3,4179.54 1570.3,4188.37Z" style="fill:rgb(157,175,255);"/>
                        </g>
                    </g>
                </g>
                <ellipse cx="1344.3" cy="3937.11" rx="8.797" ry="8.233" style="fill:white;"/>
            </g>
            <g transform="matrix(0.998558,0,0,1,0.849724,0)">
                <g transform="matrix(43.1171,0,0,43.1171,1467.35,4342.62)">
                </g>
                <text x="1221.8px" y="4342.62px" style="font-family:'Poppins-Bold', 'Poppins';font-weight:700;font-size:43.117px;fill:rgb(1,55,125);stroke:rgb(1,55,125);stroke-width:0.32px;stroke-miterlimit:2;">IT SUPPORT</text>
            </g>
        </g>
        <g>
            <g>
                <g style="filter:url(#_Effect7);">
                    <path d="M824.636,3818.55L824.636,4149.27C824.636,4240.53 750.547,4314.62 659.291,4314.62L328.6,4314.62C237.344,4314.62 163.255,4240.53 163.255,4149.27L163.255,3818.55C163.255,3727.29 237.344,3653.2 328.6,3653.2L659.291,3653.2C750.547,3653.2 824.636,3727.29 824.636,3818.55Z" style="fill:none;stroke:rgb(1,55,125);stroke-opacity:0.1;stroke-width:22.23px;"/>
                </g>
                <path d="M824.636,3818.55L824.636,4149.27C824.636,4240.53 750.547,4314.62 659.291,4314.62L328.6,4314.62C237.344,4314.62 163.255,4240.53 163.255,4149.27L163.255,3818.55C163.255,3727.29 237.344,3653.2 328.6,3653.2L659.291,3653.2C750.547,3653.2 824.636,3727.29 824.636,3818.55Z" style="fill:white;fill-opacity:0.7;stroke:white;stroke-opacity:0.7;stroke-width:0.81px;"/>
            </g>
            <g>
                <path d="M647.275,4031.92C647.275,4087.14 602.437,4131.98 547.21,4131.98L440.681,4131.98C385.454,4131.98 340.616,4087.14 340.616,4031.92C340.616,3976.69 385.454,3931.85 440.681,3931.85L547.21,3931.85C602.437,3931.85 647.275,3976.69 647.275,4031.92Z" style="fill:rgb(124,210,76);"/>
                <g>
                    <path d="M475.519,3893.46L514.302,3893.46C566.181,3893.46 608.301,3935.58 608.301,3987.46L608.301,4045.4C608.301,4066.37 591.28,4083.39 570.315,4083.39L417.576,4083.39C396.611,4083.39 379.59,4066.37 379.59,4045.4L379.59,3989.39C379.59,3936.45 422.575,3893.46 475.519,3893.46Z" style="fill:none;stroke:white;stroke-width:0.11px;stroke-linejoin:bevel;stroke-miterlimit:0.348837;"/>
                    <path d="M475.519,3893.46L514.302,3893.46C566.181,3893.46 608.301,3935.58 608.301,3987.46L608.301,4045.4C608.301,4066.37 591.28,4083.39 570.315,4083.39L417.576,4083.39C396.611,4083.39 379.59,4066.37 379.59,4045.4L379.59,3989.39C379.59,3936.45 422.575,3893.46 475.519,3893.46Z" style="fill:rgb(1,55,125);"/>
                    <clipPath id="_clip8">
                        <path d="M475.519,3893.46L514.302,3893.46C566.181,3893.46 608.301,3935.58 608.301,3987.46L608.301,4045.4C608.301,4066.37 591.28,4083.39 570.315,4083.39L417.576,4083.39C396.611,4083.39 379.59,4066.37 379.59,4045.4L379.59,3989.39C379.59,3936.45 422.575,3893.46 475.519,3893.46Z"/>
                    </clipPath>
                    <g clip-path="url(#_clip8)">
                        <g>
                            <g style="filter:url(#_Effect9);">
                                <path d="M646.481,4029.53L646.481,4109.37C646.481,4115.12 641.815,4119.79 636.068,4119.79L349.743,4119.79C338.111,4119.79 328.666,4110.34 328.666,4098.71L328.666,4029.53C328.666,3993.07 358.27,3963.46 394.732,3963.46L580.415,3963.46C616.878,3963.46 646.481,3993.07 646.481,4029.53Z" style="fill:rgb(157,175,255);"/>
                            </g>
                        </g>
                    </g>
                    <ellipse cx="493.945" cy="3920.25" rx="8.745" ry="9.067" style="fill:white;"/>
                </g>
                <g>
                    <g style="filter:url(#_Effect10);">
                        <ellipse cx="493.945" cy="3824.64" rx="55.189" ry="57.373" style="fill:rgb(1,55,125);fill-opacity:0.53;"/>
                    </g>
                    <ellipse cx="493.945" cy="3824.64" rx="55.189" ry="57.373" style="fill:rgb(1,55,125);"/>
                </g>
            </g>
            <g transform="matrix(0.998558,0,0,1,-0.406642,0)">
                <g transform="matrix(43.1171,0,0,43.1171,638.883,4219.14)">
                </g>
                <text x="350.257px" y="4219.14px" style="font-family:'Poppins-Bold', 'Poppins';font-weight:700;font-size:43.117px;fill:rgb(1,55,125);stroke:rgb(1,55,125);stroke-width:0.32px;stroke-miterlimit:2;">HR MANAGER</text>
            </g>
        </g>
        <g>
            <g>
                <g>
                    <g style="filter:url(#_Effect11);">
                        <path d="M701.783,2968.16L701.783,3298.88C701.783,3390.14 627.694,3464.23 536.438,3464.23L205.747,3464.23C114.491,3464.23 40.402,3390.14 40.402,3298.88L40.402,2968.16C40.402,2876.9 114.491,2802.81 205.747,2802.81L536.438,2802.81C627.694,2802.81 701.783,2876.9 701.783,2968.16Z" style="fill:none;stroke:rgb(1,55,125);stroke-opacity:0.1;stroke-width:22.23px;"/>
                    </g>
                    <path d="M701.783,2968.16L701.783,3298.88C701.783,3390.14 627.694,3464.23 536.438,3464.23L205.747,3464.23C114.491,3464.23 40.402,3390.14 40.402,3298.88L40.402,2968.16C40.402,2876.9 114.491,2802.81 205.747,2802.81L536.438,2802.81C627.694,2802.81 701.783,2876.9 701.783,2968.16Z" style="fill:white;fill-opacity:0.7;stroke:white;stroke-opacity:0.7;stroke-width:0.81px;"/>
                </g>
                <g>
                    <g>
                        <g>
                            <path d="M350.384,3031.08L393.97,3031.08C452.276,3031.08 499.613,3078.42 499.613,3136.73L499.613,3201.85C499.613,3225.41 480.484,3244.54 456.922,3244.54L285.263,3244.54C261.701,3244.54 242.572,3225.41 242.572,3201.85L242.572,3138.9C242.572,3079.39 290.881,3031.08 350.384,3031.08Z" style="fill:none;stroke:white;stroke-width:0.12px;stroke-linejoin:bevel;stroke-miterlimit:0.348837;"/>
                            <path d="M350.384,3031.08L393.97,3031.08C452.276,3031.08 499.613,3078.42 499.613,3136.73L499.613,3201.85C499.613,3225.41 480.484,3244.54 456.922,3244.54L285.263,3244.54C261.701,3244.54 242.572,3225.41 242.572,3201.85L242.572,3138.9C242.572,3079.39 290.881,3031.08 350.384,3031.08Z" style="fill:rgb(1,55,125);"/>
                            <clipPath id="_clip12">
                                <path d="M350.384,3031.08L393.97,3031.08C452.276,3031.08 499.613,3078.42 499.613,3136.73L499.613,3201.85C499.613,3225.41 480.484,3244.54 456.922,3244.54L285.263,3244.54C261.701,3244.54 242.572,3225.41 242.572,3201.85L242.572,3138.9C242.572,3079.39 290.881,3031.08 350.384,3031.08Z"/>
                            </clipPath>
                            <g clip-path="url(#_clip12)">
                                <g>
                                    <g style="filter:url(#_Effect13);">
                                        <path d="M499.841,3194.23L499.841,3243.2C499.841,3249.95 494.356,3255.44 487.598,3255.44L267.125,3255.44C253.448,3255.44 242.344,3244.34 242.344,3230.66L242.344,3206.02C242.344,3131.71 302.677,3071.38 376.99,3071.38C444.794,3071.38 499.841,3126.43 499.841,3194.23Z" style="fill:rgb(157,175,255);"/>
                                    </g>
                                </g>
                            </g>
                            <ellipse cx="370.864" cy="3205.34" rx="105.487" ry="105.639" style="fill:white;"/>
                            <ellipse cx="371.093" cy="3061.19" rx="9.828" ry="10.19" style="fill:white;"/>
                        </g>
                        <g>
                            <g style="filter:url(#_Effect14);">
                                <ellipse cx="371.093" cy="2953.74" rx="62.026" ry="64.48" style="fill:rgb(1,55,125);fill-opacity:0.53;"/>
                            </g>
                            <ellipse cx="371.093" cy="2953.74" rx="62.026" ry="64.48" style="fill:rgb(1,55,125);"/>
                        </g>
                    </g>
                    <path d="M379.366,3117.72L383.132,3131.53C387.896,3132.33 392.571,3133.58 397.093,3135.28L407.248,3125.2C412.42,3127.56 417.351,3130.41 421.974,3133.72L418.341,3147.56C422.07,3150.64 425.493,3154.06 428.561,3157.8L442.385,3154.16C445.688,3158.79 448.535,3163.73 450.887,3168.91L440.829,3179.08C442.524,3183.61 443.777,3188.29 444.57,3193.06L458.358,3196.83C458.907,3202.49 458.907,3208.2 458.358,3213.86L444.57,3217.63C443.777,3222.4 442.524,3227.08 440.829,3231.61L450.887,3241.78C448.535,3246.96 445.688,3251.9 442.385,3256.53L428.561,3252.89C425.493,3256.62 422.07,3260.05 418.341,3263.12L421.974,3276.97C417.351,3280.28 412.42,3283.13 407.248,3285.48L397.093,3275.41C392.571,3277.11 387.896,3278.36 383.132,3279.16L379.366,3292.96C373.711,3293.51 368.017,3293.51 362.362,3292.96L358.596,3279.16C353.833,3278.36 349.157,3277.11 344.636,3275.41L334.48,3285.48C329.308,3283.13 324.377,3280.28 319.755,3276.97L323.387,3263.12C319.658,3260.05 316.236,3256.62 313.167,3252.89L299.343,3256.53C296.04,3251.9 293.193,3246.96 290.842,3241.78L300.899,3231.61C299.204,3227.08 297.951,3222.4 297.158,3217.63L283.371,3213.86C282.821,3208.2 282.821,3202.49 283.371,3196.83L297.158,3193.06C297.951,3188.29 299.204,3183.61 300.899,3179.08L290.842,3168.91C293.193,3163.73 296.04,3158.79 299.343,3154.16L313.167,3157.8C316.236,3154.06 319.658,3150.64 323.387,3147.56L319.755,3133.72C324.377,3130.41 329.308,3127.56 334.48,3125.2L344.636,3135.28C349.157,3133.58 353.833,3132.33 358.596,3131.53L362.362,3117.72C368.017,3117.17 373.711,3117.17 379.366,3117.72ZM370.864,3149.85C401.448,3149.85 426.279,3174.72 426.279,3205.34C426.279,3235.97 401.448,3260.84 370.864,3260.84C340.28,3260.84 315.45,3235.97 315.45,3205.34C315.45,3174.72 340.28,3149.85 370.864,3149.85Z" style="fill:rgb(124,210,76);"/>
                </g>
                <g transform="matrix(0.998558,0,0,1,-0.480276,0)">
                    <g transform="matrix(43.1171,0,0,43.1171,447.025,3369.37)">
                    </g>
                    <text x="299.177px" y="3369.37px" style="font-family:'Poppins-Bold', 'Poppins';font-weight:700;font-size:43.117px;fill:rgb(1,55,125);stroke:rgb(1,55,125);stroke-width:0.32px;stroke-miterlimit:2;">ADMIN</text>
                </g>
            </g>
            <path d="M390.941,3209.36C393.158,3209.36 394.955,3211.16 394.955,3213.38C394.955,3215.44 393.405,3217.14 391.409,3217.38L390.941,3217.4L344.442,3217.4L357.655,3230.64C359.102,3232.09 359.214,3234.37 357.989,3235.94L357.655,3236.32C356.208,3237.77 353.932,3237.88 352.357,3236.66L351.979,3236.32L331.91,3216.22C329.492,3213.8 331.025,3209.74 334.292,3209.39L334.748,3209.36L390.941,3209.36ZM389.379,3174.03L389.757,3174.36L409.826,3194.46C412.245,3196.88 410.711,3200.95 407.444,3201.3L406.988,3201.32L350.795,3201.32C348.579,3201.32 346.782,3199.52 346.782,3197.3C346.782,3195.24 348.331,3193.54 350.327,3193.31L350.795,3193.28L397.295,3193.28L384.081,3180.05C382.634,3178.6 382.523,3176.32 383.747,3174.74L384.081,3174.36C385.528,3172.91 387.805,3172.8 389.379,3174.03Z" style="fill:rgb(1,55,125);fill-rule:nonzero;"/>
        </g>
        <g>
            <g>
                <g style="filter:url(#_Effect15);">
                    <path d="M3933.24,2968.16L3933.24,3298.88C3933.24,3390.14 3859.15,3464.23 3767.9,3464.23L3437.21,3464.23C3345.95,3464.23 3271.86,3390.14 3271.86,3298.88L3271.86,2968.16C3271.86,2876.9 3345.95,2802.81 3437.21,2802.81L3767.9,2802.81C3859.15,2802.81 3933.24,2876.9 3933.24,2968.16Z" style="fill:none;stroke:rgb(1,55,125);stroke-opacity:0.1;stroke-width:22.23px;"/>
                </g>
                <path d="M3933.24,2968.16L3933.24,3298.88C3933.24,3390.14 3859.15,3464.23 3767.9,3464.23L3437.21,3464.23C3345.95,3464.23 3271.86,3390.14 3271.86,3298.88L3271.86,2968.16C3271.86,2876.9 3345.95,2802.81 3437.21,2802.81L3767.9,2802.81C3859.15,2802.81 3933.24,2876.9 3933.24,2968.16Z" style="fill:white;fill-opacity:0.7;stroke:white;stroke-opacity:0.7;stroke-width:0.81px;"/>
            </g>
            <g>
                <path d="M3669.27,2969.05C3669.27,3004.04 3640.87,3032.44 3605.88,3032.44L3599.22,3032.44C3564.24,3032.44 3535.83,3004.04 3535.83,2969.05C3535.83,2934.07 3564.24,2905.66 3599.22,2905.66L3605.88,2905.66C3640.87,2905.66 3669.27,2934.07 3669.27,2969.05Z" style="fill:rgb(1,55,125);"/>
                <clipPath id="_clip16">
                    <path d="M3669.27,2969.05C3669.27,3004.04 3640.87,3032.44 3605.88,3032.44L3599.22,3032.44C3564.24,3032.44 3535.83,3004.04 3535.83,2969.05C3535.83,2934.07 3564.24,2905.66 3599.22,2905.66L3605.88,2905.66C3640.87,2905.66 3669.27,2934.07 3669.27,2969.05Z"/>
                </clipPath>
                <g clip-path="url(#_clip16)">
                    <path d="M3650.84,3087.99L3647.74,3087.99L3647.74,3079.79L3650.84,3079.79L3650.84,3087.99Z" style="fill:rgb(150,140,255);"/>
                </g>
                <path d="M3498.09,3032.54C3498.09,3052.75 3481.68,3069.16 3461.47,3069.16L3457.62,3069.16C3437.41,3069.16 3421.01,3052.75 3421.01,3032.54C3421.01,3012.33 3437.41,2995.92 3457.62,2995.92L3461.47,2995.92C3481.68,2995.92 3498.09,3012.33 3498.09,3032.54Z" style="fill:rgb(1,55,125);"/>
                <clipPath id="_clip17">
                    <path d="M3498.09,3032.54C3498.09,3052.75 3481.68,3069.16 3461.47,3069.16L3457.62,3069.16C3437.41,3069.16 3421.01,3052.75 3421.01,3032.54C3421.01,3012.33 3437.41,2995.92 3457.62,2995.92L3461.47,2995.92C3481.68,2995.92 3498.09,3012.33 3498.09,3032.54Z"/>
                </clipPath>
                <g clip-path="url(#_clip17)">
                    <path d="M3487.44,3101.25L3485.65,3101.25L3485.65,3096.51L3487.44,3096.51L3487.44,3101.25Z" style="fill:rgb(150,140,255);"/>
                </g>
                <path d="M3784.1,3032.54C3784.1,3052.75 3767.69,3069.16 3747.48,3069.16L3743.63,3069.16C3723.42,3069.16 3707.01,3052.75 3707.01,3032.54C3707.01,3012.33 3723.42,2995.92 3743.63,2995.92L3747.48,2995.92C3767.69,2995.92 3784.1,3012.33 3784.1,3032.54Z" style="fill:rgb(1,55,125);"/>
                <clipPath id="_clip18">
                    <path d="M3784.1,3032.54C3784.1,3052.75 3767.69,3069.16 3747.48,3069.16L3743.63,3069.16C3723.42,3069.16 3707.01,3052.75 3707.01,3032.54C3707.01,3012.33 3723.42,2995.92 3743.63,2995.92L3747.48,2995.92C3767.69,2995.92 3784.1,3012.33 3784.1,3032.54Z"/>
                </clipPath>
                <g clip-path="url(#_clip18)">
                    <path d="M3773.45,3101.25L3771.66,3101.25L3771.66,3096.51L3773.45,3096.51L3773.45,3101.25Z" style="fill:rgb(150,140,255);"/>
                </g>
                <path d="M3821.84,3151.78L3821.84,3219.1C3821.84,3251.02 3795.92,3276.94 3764,3276.94L3727.11,3276.94C3695.19,3276.94 3669.27,3251.02 3669.27,3219.1L3669.27,3151.78C3669.27,3119.86 3695.19,3093.94 3727.11,3093.94L3764,3093.94C3795.92,3093.94 3821.84,3119.86 3821.84,3151.78Z" style="fill:rgb(124,210,76);"/>
                <path d="M3535.83,3151.78L3535.83,3219.1C3535.83,3251.02 3509.92,3276.94 3477.99,3276.94L3441.1,3276.94C3409.18,3276.94 3383.27,3251.02 3383.27,3219.1L3383.27,3151.78C3383.27,3119.86 3409.18,3093.94 3441.1,3093.94L3477.99,3093.94C3509.92,3093.94 3535.83,3119.86 3535.83,3151.78Z" style="fill:rgb(124,210,76);"/>
                <path d="M3721.06,3129.95L3721.06,3187.19C3721.06,3236.72 3680.85,3276.94 3631.32,3276.94L3570.98,3276.94C3521.45,3276.94 3481.24,3236.72 3481.24,3187.19L3481.24,3129.95C3481.24,3080.42 3521.45,3040.21 3570.98,3040.21L3631.32,3040.21C3680.85,3040.21 3721.06,3080.42 3721.06,3129.95Z" style="fill:rgb(1,55,125);"/>
                <clipPath id="_clip19">
                    <path d="M3721.06,3129.95L3721.06,3187.19C3721.06,3236.72 3680.85,3276.94 3631.32,3276.94L3570.98,3276.94C3521.45,3276.94 3481.24,3236.72 3481.24,3187.19L3481.24,3129.95C3481.24,3080.42 3521.45,3040.21 3570.98,3040.21L3631.32,3040.21C3680.85,3040.21 3721.06,3080.42 3721.06,3129.95Z"/>
                </clipPath>
                <g clip-path="url(#_clip19)">
                    <g>
                        <g style="filter:url(#_Effect20);">
                            <path d="M3535.83,3151.78L3535.83,3219.1C3535.83,3251.02 3509.92,3276.94 3477.99,3276.94L3441.1,3276.94C3409.18,3276.94 3383.27,3251.02 3383.27,3219.1L3383.27,3151.78C3383.27,3119.86 3409.18,3093.94 3441.1,3093.94L3477.99,3093.94C3509.92,3093.94 3535.83,3119.86 3535.83,3151.78Z" style="fill:none;stroke:white;stroke-width:5.79px;stroke-linejoin:bevel;stroke-miterlimit:0.348837;"/>
                            <path d="M3535.83,3151.78L3535.83,3219.1C3535.83,3251.02 3509.92,3276.94 3477.99,3276.94L3441.1,3276.94C3409.18,3276.94 3383.27,3251.02 3383.27,3219.1L3383.27,3151.78C3383.27,3119.86 3409.18,3093.94 3441.1,3093.94L3477.99,3093.94C3509.92,3093.94 3535.83,3119.86 3535.83,3151.78Z" style="fill:rgb(157,175,255);"/>
                        </g>
                    </g>
                    <g>
                        <g style="filter:url(#_Effect21);">
                            <path d="M3821.84,3151.78L3821.84,3219.1C3821.84,3251.02 3795.92,3276.94 3764,3276.94L3727.11,3276.94C3695.19,3276.94 3669.27,3251.02 3669.27,3219.1L3669.27,3151.78C3669.27,3119.86 3695.19,3093.94 3727.11,3093.94L3764,3093.94C3795.92,3093.94 3821.84,3119.86 3821.84,3151.78Z" style="fill:none;stroke:white;stroke-width:5.79px;stroke-linejoin:bevel;stroke-miterlimit:0.348837;"/>
                            <path d="M3821.84,3151.78L3821.84,3219.1C3821.84,3251.02 3795.92,3276.94 3764,3276.94L3727.11,3276.94C3695.19,3276.94 3669.27,3251.02 3669.27,3219.1L3669.27,3151.78C3669.27,3119.86 3695.19,3093.94 3727.11,3093.94L3764,3093.94C3795.92,3093.94 3821.84,3119.86 3821.84,3151.78Z" style="fill:rgb(157,175,255);"/>
                        </g>
                    </g>
                </g>
            </g>
            <g transform="matrix(0.998558,0,0,1,4.12732,0)">
                <g transform="matrix(43.1171,0,0,43.1171,3714.02,3369.37)">
                </g>
                <text x="3495.46px" y="3369.37px" style="font-family:'Poppins-Bold', 'Poppins';font-weight:700;font-size:43.117px;fill:rgb(1,55,125);stroke:rgb(1,55,125);stroke-width:0.32px;stroke-miterlimit:2;">VJC TEAM</text>
            </g>
        </g>
        <g>
            <g>
                <g style="filter:url(#_Effect22);">
                    <path d="M3810.39,3818.55L3810.39,4149.27C3810.39,4240.53 3736.3,4314.62 3645.04,4314.62L3314.35,4314.62C3223.1,4314.62 3149.01,4240.53 3149.01,4149.27L3149.01,3818.55C3149.01,3727.29 3223.1,3653.2 3314.35,3653.2L3645.04,3653.2C3736.3,3653.2 3810.39,3727.29 3810.39,3818.55Z" style="fill:none;stroke:rgb(1,55,125);stroke-opacity:0.1;stroke-width:22.23px;"/>
                </g>
                <path d="M3810.39,3818.55L3810.39,4149.27C3810.39,4240.53 3736.3,4314.62 3645.04,4314.62L3314.35,4314.62C3223.1,4314.62 3149.01,4240.53 3149.01,4149.27L3149.01,3818.55C3149.01,3727.29 3223.1,3653.2 3314.35,3653.2L3645.04,3653.2C3736.3,3653.2 3810.39,3727.29 3810.39,3818.55Z" style="fill:white;fill-opacity:0.7;stroke:white;stroke-opacity:0.7;stroke-width:0.81px;"/>
            </g>
            <g>
                <path d="M3546.42,3819.45C3546.42,3854.43 3518.01,3882.84 3483.03,3882.84L3476.37,3882.84C3441.38,3882.84 3412.98,3854.43 3412.98,3819.45C3412.98,3784.46 3441.38,3756.06 3476.37,3756.06L3483.03,3756.06C3518.01,3756.06 3546.42,3784.46 3546.42,3819.45Z" style="fill:rgb(1,55,125);"/>
                <clipPath id="_clip23">
                    <path d="M3546.42,3819.45C3546.42,3854.43 3518.01,3882.84 3483.03,3882.84L3476.37,3882.84C3441.38,3882.84 3412.98,3854.43 3412.98,3819.45C3412.98,3784.46 3441.38,3756.06 3476.37,3756.06L3483.03,3756.06C3518.01,3756.06 3546.42,3784.46 3546.42,3819.45Z"/>
                </clipPath>
                <g clip-path="url(#_clip23)">
                    <path d="M3527.99,3938.39L3524.89,3938.39L3524.89,3930.18L3527.99,3930.18L3527.99,3938.39Z" style="fill:rgb(150,140,255);"/>
                </g>
                <path d="M3375.24,3882.93C3375.24,3903.14 3358.83,3919.55 3338.62,3919.55L3334.77,3919.55C3314.56,3919.55 3298.15,3903.14 3298.15,3882.93C3298.15,3862.72 3314.56,3846.31 3334.77,3846.31L3338.62,3846.31C3358.83,3846.31 3375.24,3862.72 3375.24,3882.93Z" style="fill:rgb(1,55,125);"/>
                <clipPath id="_clip24">
                    <path d="M3375.24,3882.93C3375.24,3903.14 3358.83,3919.55 3338.62,3919.55L3334.77,3919.55C3314.56,3919.55 3298.15,3903.14 3298.15,3882.93C3298.15,3862.72 3314.56,3846.31 3334.77,3846.31L3338.62,3846.31C3358.83,3846.31 3375.24,3862.72 3375.24,3882.93Z"/>
                </clipPath>
                <g clip-path="url(#_clip24)">
                    <path d="M3364.59,3951.64L3362.8,3951.64L3362.8,3946.9L3364.59,3946.9L3364.59,3951.64Z" style="fill:rgb(150,140,255);"/>
                </g>
                <path d="M3661.24,3882.93C3661.24,3903.14 3644.84,3919.55 3624.63,3919.55L3620.78,3919.55C3600.57,3919.55 3584.16,3903.14 3584.16,3882.93C3584.16,3862.72 3600.57,3846.31 3620.78,3846.31L3624.63,3846.31C3644.84,3846.31 3661.24,3862.72 3661.24,3882.93Z" style="fill:rgb(1,55,125);"/>
                <clipPath id="_clip25">
                    <path d="M3661.24,3882.93C3661.24,3903.14 3644.84,3919.55 3624.63,3919.55L3620.78,3919.55C3600.57,3919.55 3584.16,3903.14 3584.16,3882.93C3584.16,3862.72 3600.57,3846.31 3620.78,3846.31L3624.63,3846.31C3644.84,3846.31 3661.24,3862.72 3661.24,3882.93Z"/>
                </clipPath>
                <g clip-path="url(#_clip25)">
                    <path d="M3650.6,3951.64L3648.81,3951.64L3648.81,3946.9L3650.6,3946.9L3650.6,3951.64Z" style="fill:rgb(150,140,255);"/>
                </g>
                <path d="M3698.99,4002.17L3698.99,4069.49C3698.99,4101.41 3673.07,4127.33 3641.15,4127.33L3604.26,4127.33C3572.34,4127.33 3546.42,4101.41 3546.42,4069.49L3546.42,4002.17C3546.42,3970.25 3572.34,3944.33 3604.26,3944.33L3641.15,3944.33C3673.07,3944.33 3698.99,3970.25 3698.99,4002.17Z" style="fill:rgb(124,210,76);"/>
                <path d="M3412.98,4002.17L3412.98,4069.49C3412.98,4101.41 3387.06,4127.33 3355.14,4127.33L3318.25,4127.33C3286.33,4127.33 3260.41,4101.41 3260.41,4069.49L3260.41,4002.17C3260.41,3970.25 3286.33,3944.33 3318.25,3944.33L3355.14,3944.33C3387.06,3944.33 3412.98,3970.25 3412.98,4002.17Z" style="fill:rgb(124,210,76);"/>
                <path d="M3598.21,3980.35L3598.21,4037.59C3598.21,4087.12 3557.99,4127.33 3508.46,4127.33L3448.13,4127.33C3398.6,4127.33 3358.38,4087.12 3358.38,4037.59L3358.38,3980.35C3358.38,3930.81 3398.6,3890.6 3448.13,3890.6L3508.46,3890.6C3557.99,3890.6 3598.21,3930.81 3598.21,3980.35Z" style="fill:rgb(1,55,125);"/>
                <clipPath id="_clip26">
                    <path d="M3598.21,3980.35L3598.21,4037.59C3598.21,4087.12 3557.99,4127.33 3508.46,4127.33L3448.13,4127.33C3398.6,4127.33 3358.38,4087.12 3358.38,4037.59L3358.38,3980.35C3358.38,3930.81 3398.6,3890.6 3448.13,3890.6L3508.46,3890.6C3557.99,3890.6 3598.21,3930.81 3598.21,3980.35Z"/>
                </clipPath>
                <g clip-path="url(#_clip26)">
                    <g>
                        <g style="filter:url(#_Effect27);">
                            <path d="M3412.98,4002.17L3412.98,4069.49C3412.98,4101.41 3387.06,4127.33 3355.14,4127.33L3318.25,4127.33C3286.33,4127.33 3260.41,4101.41 3260.41,4069.49L3260.41,4002.17C3260.41,3970.25 3286.33,3944.33 3318.25,3944.33L3355.14,3944.33C3387.06,3944.33 3412.98,3970.25 3412.98,4002.17Z" style="fill:none;stroke:white;stroke-width:5.79px;stroke-linejoin:bevel;stroke-miterlimit:0.348837;"/>
                            <path d="M3412.98,4002.17L3412.98,4069.49C3412.98,4101.41 3387.06,4127.33 3355.14,4127.33L3318.25,4127.33C3286.33,4127.33 3260.41,4101.41 3260.41,4069.49L3260.41,4002.17C3260.41,3970.25 3286.33,3944.33 3318.25,3944.33L3355.14,3944.33C3387.06,3944.33 3412.98,3970.25 3412.98,4002.17Z" style="fill:rgb(157,175,255);"/>
                        </g>
                    </g>
                    <g>
                        <g style="filter:url(#_Effect28);">
                            <path d="M3698.99,4002.17L3698.99,4069.49C3698.99,4101.41 3673.07,4127.33 3641.15,4127.33L3604.26,4127.33C3572.34,4127.33 3546.42,4101.41 3546.42,4069.49L3546.42,4002.17C3546.42,3970.25 3572.34,3944.33 3604.26,3944.33L3641.15,3944.33C3673.07,3944.33 3698.99,3970.25 3698.99,4002.17Z" style="fill:none;stroke:white;stroke-width:5.79px;stroke-linejoin:bevel;stroke-miterlimit:0.348837;"/>
                            <path d="M3698.99,4002.17L3698.99,4069.49C3698.99,4101.41 3673.07,4127.33 3641.15,4127.33L3604.26,4127.33C3572.34,4127.33 3546.42,4101.41 3546.42,4069.49L3546.42,4002.17C3546.42,3970.25 3572.34,3944.33 3604.26,3944.33L3641.15,3944.33C3673.07,3944.33 3698.99,3970.25 3698.99,4002.17Z" style="fill:rgb(157,175,255);"/>
                        </g>
                    </g>
                </g>
            </g>
            <g transform="matrix(0.998558,0,0,1,3.95022,0)">
                <g transform="matrix(43.1171,0,0,43.1171,3591.17,4219.76)">
                </g>
                <text x="3372.61px" y="4219.77px" style="font-family:'Poppins-Bold', 'Poppins';font-weight:700;font-size:43.117px;fill:rgb(1,55,125);stroke:rgb(1,55,125);stroke-width:0.32px;stroke-miterlimit:2;">VJC TEAM</text>
            </g>
        </g>
        <g>
            <g>
                <g style="filter:url(#_Effect29);">
                    <path d="M2960.03,3941.41L2960.03,4272.14C2960.03,4363.39 2885.94,4437.48 2794.69,4437.48L2464,4437.48C2372.74,4437.48 2298.65,4363.39 2298.65,4272.14L2298.65,3941.41C2298.65,3850.15 2372.74,3776.06 2464,3776.06L2794.69,3776.06C2885.94,3776.06 2960.03,3850.15 2960.03,3941.41Z" style="fill:none;stroke:rgb(1,55,125);stroke-opacity:0.1;stroke-width:22.23px;"/>
                </g>
                <path d="M2960.03,3941.41L2960.03,4272.14C2960.03,4363.39 2885.94,4437.48 2794.69,4437.48L2464,4437.48C2372.74,4437.48 2298.65,4363.39 2298.65,4272.14L2298.65,3941.41C2298.65,3850.15 2372.74,3776.06 2464,3776.06L2794.69,3776.06C2885.94,3776.06 2960.03,3850.15 2960.03,3941.41Z" style="fill:white;fill-opacity:0.7;stroke:white;stroke-opacity:0.7;stroke-width:0.81px;"/>
            </g>
            <g>
                <path d="M2696.06,3942.31C2696.06,3977.29 2667.66,4005.7 2632.67,4005.7L2626.01,4005.7C2591.03,4005.7 2562.62,3977.29 2562.62,3942.31C2562.62,3907.32 2591.03,3878.92 2626.01,3878.92L2632.67,3878.92C2667.66,3878.92 2696.06,3907.32 2696.06,3942.31Z" style="fill:rgb(1,55,125);"/>
                <clipPath id="_clip30">
                    <path d="M2696.06,3942.31C2696.06,3977.29 2667.66,4005.7 2632.67,4005.7L2626.01,4005.7C2591.03,4005.7 2562.62,3977.29 2562.62,3942.31C2562.62,3907.32 2591.03,3878.92 2626.01,3878.92L2632.67,3878.92C2667.66,3878.92 2696.06,3907.32 2696.06,3942.31Z"/>
                </clipPath>
                <g clip-path="url(#_clip30)">
                    <path d="M2677.63,4061.25L2674.53,4061.25L2674.53,4053.04L2677.63,4053.04L2677.63,4061.25Z" style="fill:rgb(150,140,255);"/>
                </g>
                <path d="M2524.88,4005.79C2524.88,4026 2508.47,4042.41 2488.26,4042.41L2484.41,4042.41C2464.2,4042.41 2447.8,4026 2447.8,4005.79C2447.8,3985.58 2464.2,3969.17 2484.41,3969.17L2488.26,3969.17C2508.47,3969.17 2524.88,3985.58 2524.88,4005.79Z" style="fill:rgb(1,55,125);"/>
                <clipPath id="_clip31">
                    <path d="M2524.88,4005.79C2524.88,4026 2508.47,4042.41 2488.26,4042.41L2484.41,4042.41C2464.2,4042.41 2447.8,4026 2447.8,4005.79C2447.8,3985.58 2464.2,3969.17 2484.41,3969.17L2488.26,3969.17C2508.47,3969.17 2524.88,3985.58 2524.88,4005.79Z"/>
                </clipPath>
                <g clip-path="url(#_clip31)">
                    <path d="M2514.23,4074.5L2512.44,4074.5L2512.44,4069.76L2514.23,4069.76L2514.23,4074.5Z" style="fill:rgb(150,140,255);"/>
                </g>
                <path d="M2810.89,4005.79C2810.89,4026 2794.48,4042.41 2774.27,4042.41L2770.42,4042.41C2750.21,4042.41 2733.8,4026 2733.8,4005.79C2733.8,3985.58 2750.21,3969.17 2770.42,3969.17L2774.27,3969.17C2794.48,3969.17 2810.89,3985.58 2810.89,4005.79Z" style="fill:rgb(1,55,125);"/>
                <clipPath id="_clip32">
                    <path d="M2810.89,4005.79C2810.89,4026 2794.48,4042.41 2774.27,4042.41L2770.42,4042.41C2750.21,4042.41 2733.8,4026 2733.8,4005.79C2733.8,3985.58 2750.21,3969.17 2770.42,3969.17L2774.27,3969.17C2794.48,3969.17 2810.89,3985.58 2810.89,4005.79Z"/>
                </clipPath>
                <g clip-path="url(#_clip32)">
                    <path d="M2800.24,4074.5L2798.45,4074.5L2798.45,4069.76L2800.24,4069.76L2800.24,4074.5Z" style="fill:rgb(150,140,255);"/>
                </g>
                <path d="M2848.63,4125.03L2848.63,4192.35C2848.63,4224.27 2822.71,4250.19 2790.79,4250.19L2753.9,4250.19C2721.98,4250.19 2696.06,4224.27 2696.06,4192.35L2696.06,4125.03C2696.06,4093.11 2721.98,4067.19 2753.9,4067.19L2790.79,4067.19C2822.71,4067.19 2848.63,4093.11 2848.63,4125.03Z" style="fill:rgb(124,210,76);"/>
                <path d="M2562.62,4125.03L2562.62,4192.35C2562.62,4224.27 2536.71,4250.19 2504.78,4250.19L2467.89,4250.19C2435.97,4250.19 2410.06,4224.27 2410.06,4192.35L2410.06,4125.03C2410.06,4093.11 2435.97,4067.19 2467.89,4067.19L2504.78,4067.19C2536.71,4067.19 2562.62,4093.11 2562.62,4125.03Z" style="fill:rgb(124,210,76);"/>
                <path d="M2747.85,4103.2L2747.85,4160.45C2747.85,4209.98 2707.64,4250.19 2658.11,4250.19L2597.77,4250.19C2548.24,4250.19 2508.03,4209.98 2508.03,4160.45L2508.03,4103.2C2508.03,4053.67 2548.24,4013.46 2597.77,4013.46L2658.11,4013.46C2707.64,4013.46 2747.85,4053.67 2747.85,4103.2Z" style="fill:rgb(1,55,125);"/>
                <clipPath id="_clip33">
                    <path d="M2747.85,4103.2L2747.85,4160.45C2747.85,4209.98 2707.64,4250.19 2658.11,4250.19L2597.77,4250.19C2548.24,4250.19 2508.03,4209.98 2508.03,4160.45L2508.03,4103.2C2508.03,4053.67 2548.24,4013.46 2597.77,4013.46L2658.11,4013.46C2707.64,4013.46 2747.85,4053.67 2747.85,4103.2Z"/>
                </clipPath>
                <g clip-path="url(#_clip33)">
                    <g>
                        <g style="filter:url(#_Effect34);">
                            <path d="M2562.62,4125.03L2562.62,4192.35C2562.62,4224.27 2536.71,4250.19 2504.78,4250.19L2467.89,4250.19C2435.97,4250.19 2410.06,4224.27 2410.06,4192.35L2410.06,4125.03C2410.06,4093.11 2435.97,4067.19 2467.89,4067.19L2504.78,4067.19C2536.71,4067.19 2562.62,4093.11 2562.62,4125.03Z" style="fill:none;stroke:white;stroke-width:5.79px;stroke-linejoin:bevel;stroke-miterlimit:0.348837;"/>
                            <path d="M2562.62,4125.03L2562.62,4192.35C2562.62,4224.27 2536.71,4250.19 2504.78,4250.19L2467.89,4250.19C2435.97,4250.19 2410.06,4224.27 2410.06,4192.35L2410.06,4125.03C2410.06,4093.11 2435.97,4067.19 2467.89,4067.19L2504.78,4067.19C2536.71,4067.19 2562.62,4093.11 2562.62,4125.03Z" style="fill:rgb(157,175,255);"/>
                        </g>
                    </g>
                    <g>
                        <g style="filter:url(#_Effect35);">
                            <path d="M2848.63,4125.03L2848.63,4192.35C2848.63,4224.27 2822.71,4250.19 2790.79,4250.19L2753.9,4250.19C2721.98,4250.19 2696.06,4224.27 2696.06,4192.35L2696.06,4125.03C2696.06,4093.11 2721.98,4067.19 2753.9,4067.19L2790.79,4067.19C2822.71,4067.19 2848.63,4093.11 2848.63,4125.03Z" style="fill:none;stroke:white;stroke-width:5.79px;stroke-linejoin:bevel;stroke-miterlimit:0.348837;"/>
                            <path d="M2848.63,4125.03L2848.63,4192.35C2848.63,4224.27 2822.71,4250.19 2790.79,4250.19L2753.9,4250.19C2721.98,4250.19 2696.06,4224.27 2696.06,4192.35L2696.06,4125.03C2696.06,4093.11 2721.98,4067.19 2753.9,4067.19L2790.79,4067.19C2822.71,4067.19 2848.63,4093.11 2848.63,4125.03Z" style="fill:rgb(157,175,255);"/>
                        </g>
                    </g>
                </g>
            </g>
            <g transform="matrix(0.998558,0,0,1,2.72439,0)">
                <g transform="matrix(43.1171,0,0,43.1171,2740.81,4342.62)">
                </g>
                <text x="2522.25px" y="4342.62px" style="font-family:'Poppins-Bold', 'Poppins';font-weight:700;font-size:43.117px;fill:rgb(1,55,125);stroke:rgb(1,55,125);stroke-width:0.32px;stroke-miterlimit:2;">VJC TEAM</text>
            </g>
        </g>
        <g>
            <g>
                <g style="filter:url(#_Effect36);">
                    <path d="M3082.89,2906.72L3082.89,3360.32C3082.89,3485.47 2981.27,3587.09 2856.11,3587.09L2402.57,3587.09C2277.41,3587.09 2175.8,3485.47 2175.8,3360.32L2175.8,2906.72C2175.8,2781.56 2277.41,2679.95 2402.57,2679.95L2856.11,2679.95C2981.27,2679.95 3082.89,2781.56 3082.89,2906.72Z" style="fill:none;stroke:rgb(1,55,125);stroke-opacity:0.1;stroke-width:30.49px;"/>
                </g>
                <path d="M3082.89,2906.72L3082.89,3360.32C3082.89,3485.47 2981.27,3587.09 2856.11,3587.09L2402.57,3587.09C2277.41,3587.09 2175.8,3485.47 2175.8,3360.32L2175.8,2906.72C2175.8,2781.56 2277.41,2679.95 2402.57,2679.95L2856.11,2679.95C2981.27,2679.95 3082.89,2781.56 3082.89,2906.72Z" style="fill:white;fill-opacity:0.7;stroke:white;stroke-opacity:0.7;stroke-width:1.12px;"/>
            </g>
            <g>
                <g>
                    <path d="M2660.43,2962.44L2660.43,2962.44C2788.15,2962.44 2891.84,3066.14 2891.84,3193.86L2891.84,3263.97C2891.84,3302.57 2860.5,3333.91 2821.9,3333.91L2660.43,3333.91C2617.85,3333.91 2583.29,3299.34 2583.29,3256.77L2583.29,3039.58C2583.29,2997.01 2617.85,2962.44 2660.43,2962.44Z" style="fill:rgb(124,210,76);"/>
                    <path d="M2366.84,3241.23L2366.84,2946.76C2366.84,2895.61 2408.37,2854.08 2459.52,2854.08L2644.89,2854.08C2696.04,2854.08 2737.57,2895.61 2737.57,2946.76L2737.57,3241.23C2737.57,3292.38 2696.04,3333.91 2644.89,3333.91L2459.52,3333.91C2408.37,3333.91 2366.84,3292.38 2366.84,3241.23Z" style="fill:rgb(1,55,125);"/>
                    <clipPath id="_clip37">
                        <path d="M2366.84,3241.23L2366.84,2946.76C2366.84,2895.61 2408.37,2854.08 2459.52,2854.08L2644.89,2854.08C2696.04,2854.08 2737.57,2895.61 2737.57,2946.76L2737.57,3241.23C2737.57,3292.38 2696.04,3333.91 2644.89,3333.91L2459.52,3333.91C2408.37,3333.91 2366.84,3292.38 2366.84,3241.23Z"/>
                    </clipPath>
                    <g clip-path="url(#_clip37)">
                        <g>
                            <g style="filter:url(#_Effect38);">
                                <path d="M2669.63,2982.86L2669.63,2982.86C2783.18,2982.86 2875.38,3075.06 2875.38,3188.61L2875.38,3264.04C2875.38,3302.6 2844.07,3333.91 2805.5,3333.91L2669.63,3333.91C2631.06,3333.91 2599.76,3302.6 2599.76,3264.04L2599.76,3052.73C2599.76,3014.17 2631.06,2982.86 2669.63,2982.86Z" style="fill:none;stroke:white;stroke-width:15.07px;stroke-linejoin:bevel;stroke-miterlimit:0.348837;"/>
                                <path d="M2669.63,2982.86L2669.63,2982.86C2783.18,2982.86 2875.38,3075.06 2875.38,3188.61L2875.38,3264.04C2875.38,3302.6 2844.07,3333.91 2805.5,3333.91L2669.63,3333.91C2631.06,3333.91 2599.76,3302.6 2599.76,3264.04L2599.76,3052.73C2599.76,3014.17 2631.06,2982.86 2669.63,2982.86Z" style="fill:rgb(157,175,255);"/>
                            </g>
                        </g>
                    </g>
                </g>
                <path d="M2498.9,2973.1L2498.9,3052.95C2498.9,3058.83 2494.12,3063.6 2488.24,3063.6L2466.93,3063.6C2461.05,3063.6 2456.28,3058.83 2456.28,3052.95L2456.28,2973.1C2456.28,2967.22 2461.05,2962.44 2466.93,2962.44L2488.24,2962.44C2494.12,2962.44 2498.9,2967.22 2498.9,2973.1Z" style="fill:white;"/>
                <path d="M2498.9,3108.21L2498.9,3135.64C2498.9,3141.52 2494.12,3146.29 2488.24,3146.29L2466.93,3146.29C2461.05,3146.29 2456.28,3141.52 2456.28,3135.64L2456.28,3108.21C2456.28,3102.33 2461.05,3097.55 2466.93,3097.55L2488.24,3097.55C2494.12,3097.55 2498.9,3102.33 2498.9,3108.21Z" style="fill:white;"/>
                <path d="M2818.19,3108.21L2818.19,3135.64C2818.19,3141.52 2813.41,3146.29 2807.53,3146.29L2786.22,3146.29C2780.34,3146.29 2775.57,3141.52 2775.57,3135.64L2775.57,3108.21C2775.57,3102.33 2780.34,3097.55 2786.22,3097.55L2807.53,3097.55C2813.41,3097.55 2818.19,3102.33 2818.19,3108.21Z" style="fill:white;"/>
                <path d="M2498.9,3190.9L2498.9,3218.33C2498.9,3224.21 2494.12,3228.98 2488.24,3228.98L2466.93,3228.98C2461.05,3228.98 2456.28,3224.21 2456.28,3218.33L2456.28,3190.9C2456.28,3185.01 2461.05,3180.24 2466.93,3180.24L2488.24,3180.24C2494.12,3180.24 2498.9,3185.01 2498.9,3190.9Z" style="fill:white;"/>
                <path d="M2818.19,3190.9L2818.19,3218.33C2818.19,3224.21 2813.41,3228.98 2807.53,3228.98L2786.22,3228.98C2780.34,3228.98 2775.57,3224.21 2775.57,3218.33L2775.57,3190.9C2775.57,3185.01 2780.34,3180.24 2786.22,3180.24L2807.53,3180.24C2813.41,3180.24 2818.19,3185.01 2818.19,3190.9Z" style="fill:white;"/>
            </g>
            <g transform="matrix(0.998558,0,0,1,2.17215,-3.63798e-12)">
                <g transform="matrix(59.1353,0,0,59.1353,2887.79,3456.99)">
                </g>
                <text x="2374.08px" y="3456.99px" style="font-family:'Poppins-Bold', 'Poppins';font-weight:700;font-size:59.135px;fill:rgb(1,55,125);stroke:rgb(1,55,125);stroke-width:0.32px;stroke-miterlimit:2;">EXECUTION TEAM</text>
            </g>
        </g>
        <g>
            <g>
                <g style="filter:url(#_Effect39);">
                    <path d="M1797.85,2906.72L1797.85,3360.32C1797.85,3485.47 1696.23,3587.09 1571.07,3587.09L1117.53,3587.09C992.372,3587.09 890.759,3485.47 890.759,3360.32L890.759,2906.72C890.759,2781.56 992.372,2679.95 1117.53,2679.95L1571.07,2679.95C1696.23,2679.95 1797.85,2781.56 1797.85,2906.72Z" style="fill:none;stroke:rgb(1,55,125);stroke-opacity:0.1;stroke-width:30.49px;"/>
                </g>
                <path d="M1797.85,2906.72L1797.85,3360.32C1797.85,3485.47 1696.23,3587.09 1571.07,3587.09L1117.53,3587.09C992.372,3587.09 890.759,3485.47 890.759,3360.32L890.759,2906.72C890.759,2781.56 992.372,2679.95 1117.53,2679.95L1571.07,2679.95C1696.23,2679.95 1797.85,2781.56 1797.85,2906.72Z" style="fill:white;fill-opacity:0.7;stroke:white;stroke-opacity:0.7;stroke-width:1.12px;"/>
            </g>
            <g>
                <g>
                    <path d="M1375.39,2962.44L1375.39,2962.44C1503.11,2962.44 1606.8,3066.14 1606.8,3193.86L1606.8,3263.97C1606.8,3302.57 1575.46,3333.91 1536.86,3333.91L1375.39,3333.91C1332.82,3333.91 1298.25,3299.34 1298.25,3256.77L1298.25,3039.58C1298.25,2997.01 1332.82,2962.44 1375.39,2962.44Z" style="fill:rgb(124,210,76);"/>
                    <path d="M1081.8,3241.23L1081.8,2946.76C1081.8,2895.61 1123.33,2854.08 1174.48,2854.08L1359.85,2854.08C1411,2854.08 1452.53,2895.61 1452.53,2946.76L1452.53,3241.23C1452.53,3292.38 1411,3333.91 1359.85,3333.91L1174.48,3333.91C1123.33,3333.91 1081.8,3292.38 1081.8,3241.23Z" style="fill:rgb(1,55,125);"/>
                    <clipPath id="_clip40">
                        <path d="M1081.8,3241.23L1081.8,2946.76C1081.8,2895.61 1123.33,2854.08 1174.48,2854.08L1359.85,2854.08C1411,2854.08 1452.53,2895.61 1452.53,2946.76L1452.53,3241.23C1452.53,3292.38 1411,3333.91 1359.85,3333.91L1174.48,3333.91C1123.33,3333.91 1081.8,3292.38 1081.8,3241.23Z"/>
                    </clipPath>
                    <g clip-path="url(#_clip40)">
                        <g>
                            <g style="filter:url(#_Effect41);">
                                <path d="M1384.59,2982.86L1384.59,2982.86C1498.14,2982.86 1590.34,3075.06 1590.34,3188.61L1590.34,3264.04C1590.34,3302.6 1559.03,3333.91 1520.46,3333.91L1384.59,3333.91C1346.02,3333.91 1314.72,3302.6 1314.72,3264.04L1314.72,3052.73C1314.72,3014.17 1346.02,2982.86 1384.59,2982.86Z" style="fill:none;stroke:white;stroke-width:15.07px;stroke-linejoin:bevel;stroke-miterlimit:0.348837;"/>
                                <path d="M1384.59,2982.86L1384.59,2982.86C1498.14,2982.86 1590.34,3075.06 1590.34,3188.61L1590.34,3264.04C1590.34,3302.6 1559.03,3333.91 1520.46,3333.91L1384.59,3333.91C1346.02,3333.91 1314.72,3302.6 1314.72,3264.04L1314.72,3052.73C1314.72,3014.17 1346.02,2982.86 1384.59,2982.86Z" style="fill:rgb(157,175,255);"/>
                            </g>
                        </g>
                    </g>
                </g>
                <path d="M1213.86,2973.1L1213.86,3052.95C1213.86,3058.83 1209.08,3063.6 1203.2,3063.6L1181.89,3063.6C1176.01,3063.6 1171.24,3058.83 1171.24,3052.95L1171.24,2973.1C1171.24,2967.22 1176.01,2962.44 1181.89,2962.44L1203.2,2962.44C1209.08,2962.44 1213.86,2967.22 1213.86,2973.1Z" style="fill:white;"/>
                <path d="M1213.86,3108.21L1213.86,3135.64C1213.86,3141.52 1209.08,3146.29 1203.2,3146.29L1181.89,3146.29C1176.01,3146.29 1171.24,3141.52 1171.24,3135.64L1171.24,3108.21C1171.24,3102.33 1176.01,3097.55 1181.89,3097.55L1203.2,3097.55C1209.08,3097.55 1213.86,3102.33 1213.86,3108.21Z" style="fill:white;"/>
                <path d="M1533.15,3108.21L1533.15,3135.64C1533.15,3141.52 1528.37,3146.29 1522.49,3146.29L1501.18,3146.29C1495.3,3146.29 1490.53,3141.52 1490.53,3135.64L1490.53,3108.21C1490.53,3102.33 1495.3,3097.55 1501.18,3097.55L1522.49,3097.55C1528.37,3097.55 1533.15,3102.33 1533.15,3108.21Z" style="fill:white;"/>
                <path d="M1213.86,3190.9L1213.86,3218.33C1213.86,3224.21 1209.08,3228.98 1203.2,3228.98L1181.89,3228.98C1176.01,3228.98 1171.24,3224.21 1171.24,3218.33L1171.24,3190.9C1171.24,3185.01 1176.01,3180.24 1181.89,3180.24L1203.2,3180.24C1209.08,3180.24 1213.86,3185.01 1213.86,3190.9Z" style="fill:white;"/>
                <path d="M1533.15,3190.9L1533.15,3218.33C1533.15,3224.21 1528.37,3228.98 1522.49,3228.98L1501.18,3228.98C1495.3,3228.98 1490.53,3224.21 1490.53,3218.33L1490.53,3190.9C1490.53,3185.01 1495.3,3180.24 1501.18,3180.24L1522.49,3180.24C1528.37,3180.24 1533.15,3185.01 1533.15,3190.9Z" style="fill:white;"/>
            </g>
            <g transform="matrix(0.998558,0,0,1,0.366988,0)">
                <g transform="matrix(59.1353,0,0,59.1353,1571.03,3456.99)">
                </g>
                <text x="1121.84px" y="3456.99px" style="font-family:'Poppins-Bold', 'Poppins';font-weight:700;font-size:59.135px;fill:rgb(1,55,125);stroke:rgb(1,55,125);stroke-width:0.32px;stroke-miterlimit:2;">SUPPORT TEAM</text>
            </g>
        </g>
        <g>
            <g>
                <g style="filter:url(#_Effect42);">
                    <path d="M1797.85,1621.63L1797.85,2075.22C1797.85,2200.38 1696.23,2302 1571.07,2302L1117.53,2302C992.372,2302 890.759,2200.38 890.759,2075.22L890.759,1621.63C890.759,1496.47 992.372,1394.86 1117.53,1394.86L1571.07,1394.86C1696.23,1394.86 1797.85,1496.47 1797.85,1621.63Z" style="fill:none;stroke:rgb(1,55,125);stroke-opacity:0.1;stroke-width:30.49px;"/>
                </g>
                <path d="M1797.85,1621.63L1797.85,2075.22C1797.85,2200.38 1696.23,2302 1571.07,2302L1117.53,2302C992.372,2302 890.759,2200.38 890.759,2075.22L890.759,1621.63C890.759,1496.47 992.372,1394.86 1117.53,1394.86L1571.07,1394.86C1696.23,1394.86 1797.85,1496.47 1797.85,1621.63Z" style="fill:white;fill-opacity:0.7;stroke:white;stroke-opacity:0.7;stroke-width:1.12px;"/>
            </g>
            <g>
                <path d="M1539.65,1922.37L1539.65,1945.49C1539.65,2020.58 1478.68,2081.55 1403.6,2081.55L1285.01,2081.55C1209.92,2081.55 1148.96,2020.58 1148.96,1945.49L1148.96,1922.37C1148.96,1847.28 1209.92,1786.32 1285.01,1786.32L1403.6,1786.32C1478.68,1786.32 1539.65,1847.28 1539.65,1922.37Z" style="fill:rgb(124,210,76);"/>
                <g>
                    <clipPath id="_clip43">
                        <rect id="call-center-operator-svgrepo-com.svg" x="1152.43" y="1505.29" width="383.741" height="390.989"/>
                    </clipPath>
                    <g clip-path="url(#_clip43)">
                        <g>
                            <g style="filter:url(#_Effect44);">
                                <path d="M1474.79,1685.9C1474.79,1663.78 1487.47,1659.83 1497.13,1654.68C1485.66,1578.72 1421.96,1524.86 1344.26,1524.86C1267.36,1524.88 1203.48,1582.1 1191.06,1656.9C1191.85,1656.95 1213.47,1665.76 1213.83,1685.9C1214.24,1699.68 1213.83,1742.1 1213.83,1742.1C1213.83,1754.21 1205.94,1764.34 1195.16,1767.78C1205.72,1804.39 1229.14,1836.02 1261.49,1856.77C1267.46,1854.76 1275,1855.14 1282.31,1859.02C1294.06,1865.24 1300.05,1877.35 1295.6,1885.99C1291.17,1894.64 1278.07,1896.57 1266.26,1890.33C1257.64,1885.75 1252.17,1878.05 1251.6,1870.86C1214.55,1846.72 1188.27,1809.77 1177.43,1767.14C1167.69,1763.16 1160.76,1753.48 1160.76,1742.1L1160.76,1685.9C1160.76,1676.37 1165.63,1668.02 1172.98,1663.22C1182.84,1575.75 1255.85,1507.59 1344.29,1507.59C1432.73,1507.59 1505.76,1575.75 1515.64,1663.22C1522.97,1668.02 1527.84,1676.37 1527.84,1685.9L1527.84,1742.1C1527.84,1757.03 1515.98,1769.13 1501.32,1769.13C1486.65,1769.13 1474.79,1757.03 1474.79,1742.1" style="fill:rgb(1,55,125);fill-opacity:0.3;fill-rule:nonzero;stroke:white;stroke-opacity:0.3;stroke-width:0.48px;stroke-miterlimit:2;"/>
                            </g>
                            <path d="M1474.79,1685.9C1474.79,1663.78 1487.47,1659.83 1497.13,1654.68C1485.66,1578.72 1421.96,1524.86 1344.26,1524.86C1267.36,1524.88 1203.48,1582.1 1191.06,1656.9C1191.85,1656.95 1213.47,1665.76 1213.83,1685.9C1214.24,1699.68 1213.83,1742.1 1213.83,1742.1C1213.83,1754.21 1205.94,1764.34 1195.16,1767.78C1205.72,1804.39 1229.14,1836.02 1261.49,1856.77C1267.46,1854.76 1275,1855.14 1282.31,1859.02C1294.06,1865.24 1300.05,1877.35 1295.6,1885.99C1291.17,1894.64 1278.07,1896.57 1266.26,1890.33C1257.64,1885.75 1252.17,1878.05 1251.6,1870.86C1214.55,1846.72 1188.27,1809.77 1177.43,1767.14C1167.69,1763.16 1160.76,1753.48 1160.76,1742.1L1160.76,1685.9C1160.76,1676.37 1165.63,1668.02 1172.98,1663.22C1182.84,1575.75 1255.85,1507.59 1344.29,1507.59C1432.73,1507.59 1505.76,1575.75 1515.64,1663.22C1522.97,1668.02 1527.84,1676.37 1527.84,1685.9L1527.84,1742.1C1527.84,1757.03 1515.98,1769.13 1501.32,1769.13C1486.65,1769.13 1474.79,1757.03 1474.79,1742.1L1474.79,1685.9Z" style="fill:white;fill-rule:nonzero;stroke:white;stroke-width:0.48px;stroke-miterlimit:2;"/>
                        </g>
                    </g>
                    <g id="call-center-operator-svgrepo-com.svg1" serif:id="call-center-operator-svgrepo-com.svg">
                    </g>
                </g>
                <path d="M1344.3,1563.9C1418.35,1563.9 1478.47,1605.6 1478.47,1691.85C1478.47,1778.1 1418.35,1876.45 1344.3,1876.45C1270.26,1876.45 1210.14,1778.1 1210.14,1691.85C1210.14,1605.6 1270.26,1563.9 1344.3,1563.9Z" style="fill:rgb(1,55,125);"/>
                <clipPath id="_clip45">
                    <path d="M1344.3,1563.9C1418.35,1563.9 1478.47,1605.6 1478.47,1691.85C1478.47,1778.1 1418.35,1876.45 1344.3,1876.45C1270.26,1876.45 1210.14,1778.1 1210.14,1691.85C1210.14,1605.6 1270.26,1563.9 1344.3,1563.9Z"/>
                </clipPath>
                <g clip-path="url(#_clip45)">
                    <g>
                        <g style="filter:url(#_Effect46);">
                            <path d="M1344.3,1786.33C1474.12,1785.85 1465.23,1803.53 1465.23,1803.53C1465.23,1803.53 1395.9,1903.02 1348.43,1903.3C1294.17,1903.63 1226.83,1809.39 1226.83,1809.39C1226.83,1809.39 1195.69,1786.87 1344.3,1786.33Z" style="fill:none;stroke:white;stroke-width:20.29px;stroke-linejoin:bevel;stroke-miterlimit:0.348837;"/>
                            <path d="M1344.3,1786.33C1474.12,1785.85 1465.23,1803.53 1465.23,1803.53C1465.23,1803.53 1395.9,1903.02 1348.43,1903.3C1294.17,1903.63 1226.83,1809.39 1226.83,1809.39C1226.83,1809.39 1195.69,1786.87 1344.3,1786.33Z" style="fill:rgb(157,175,255);"/>
                        </g>
                    </g>
                </g>
            </g>
            <g transform="matrix(0.998558,0,0,1,0.347539,0)">
                <g transform="matrix(44.6304,0,0,44.6304,1585.23,2171.9)">
                </g>
                <text x="1108.35px" y="2171.9px" style="font-family:'Poppins-Bold', 'Poppins';font-weight:700;font-size:44.63px;fill:rgb(1,55,125);stroke:rgb(1,55,125);stroke-width:0.32px;stroke-miterlimit:2;">VJC REPRESENTATIVE</text>
            </g>
        </g>
        <g>
            <g>
                <g style="filter:url(#_Effect47);">
                    <path d="M3082.89,1621.63L3082.89,2075.22C3082.89,2200.38 2981.27,2302 2856.11,2302L2402.57,2302C2277.41,2302 2175.8,2200.38 2175.8,2075.22L2175.8,1621.63C2175.8,1496.47 2277.41,1394.86 2402.57,1394.86L2856.11,1394.86C2981.27,1394.86 3082.89,1496.47 3082.89,1621.63Z" style="fill:none;stroke:rgb(1,55,125);stroke-opacity:0.1;stroke-width:30.49px;"/>
                </g>
                <path d="M3082.89,1621.63L3082.89,2075.22C3082.89,2200.38 2981.27,2302 2856.11,2302L2402.57,2302C2277.41,2302 2175.8,2200.38 2175.8,2075.22L2175.8,1621.63C2175.8,1496.47 2277.41,1394.86 2402.57,1394.86L2856.11,1394.86C2981.27,1394.86 3082.89,1496.47 3082.89,1621.63Z" style="fill:white;fill-opacity:0.7;stroke:white;stroke-opacity:0.7;stroke-width:1.12px;"/>
            </g>
            <g>
                <path d="M2824.69,1922.37L2824.69,1945.49C2824.69,2020.58 2763.72,2081.55 2688.64,2081.55L2570.05,2081.55C2494.96,2081.55 2434,2020.58 2434,1945.49L2434,1922.37C2434,1847.28 2494.96,1786.32 2570.05,1786.32L2688.64,1786.32C2763.72,1786.32 2824.69,1847.28 2824.69,1922.37Z" style="fill:rgb(124,210,76);"/>
                <g>
                    <clipPath id="_clip48">
                        <rect id="call-center-operator-svgrepo-com.svg2" serif:id="call-center-operator-svgrepo-com.svg" x="2437.47" y="1505.29" width="383.741" height="390.989"/>
                    </clipPath>
                    <g clip-path="url(#_clip48)">
                        <g>
                            <g style="filter:url(#_Effect49);">
                                <path d="M2759.83,1685.9C2759.83,1663.78 2772.51,1659.83 2782.17,1654.68C2770.7,1578.72 2707,1524.86 2629.3,1524.86C2552.4,1524.88 2488.52,1582.1 2476.1,1656.9C2476.89,1656.95 2498.51,1665.76 2498.87,1685.9C2499.28,1699.68 2498.87,1742.1 2498.87,1742.1C2498.87,1754.21 2490.98,1764.34 2480.2,1767.78C2490.76,1804.39 2514.18,1836.02 2546.53,1856.77C2552.5,1854.76 2560.04,1855.14 2567.35,1859.02C2579.1,1865.24 2585.09,1877.35 2580.64,1885.99C2576.21,1894.64 2563.11,1896.57 2551.3,1890.33C2542.68,1885.75 2537.21,1878.05 2536.63,1870.86C2499.59,1846.72 2473.31,1809.77 2462.47,1767.14C2452.73,1763.16 2445.8,1753.48 2445.8,1742.1L2445.8,1685.9C2445.8,1676.37 2450.67,1668.02 2458.02,1663.22C2467.88,1575.75 2540.89,1507.59 2629.33,1507.59C2717.77,1507.59 2790.8,1575.75 2800.68,1663.22C2808.01,1668.02 2812.88,1676.37 2812.88,1685.9L2812.88,1742.1C2812.88,1757.03 2801.02,1769.13 2786.36,1769.13C2771.69,1769.13 2759.83,1757.03 2759.83,1742.1" style="fill:rgb(1,55,125);fill-opacity:0.3;fill-rule:nonzero;stroke:white;stroke-opacity:0.3;stroke-width:0.48px;stroke-miterlimit:2;"/>
                            </g>
                            <path d="M2759.83,1685.9C2759.83,1663.78 2772.51,1659.83 2782.17,1654.68C2770.7,1578.72 2707,1524.86 2629.3,1524.86C2552.4,1524.88 2488.52,1582.1 2476.1,1656.9C2476.89,1656.95 2498.51,1665.76 2498.87,1685.9C2499.28,1699.68 2498.87,1742.1 2498.87,1742.1C2498.87,1754.21 2490.98,1764.34 2480.2,1767.78C2490.76,1804.39 2514.18,1836.02 2546.53,1856.77C2552.5,1854.76 2560.04,1855.14 2567.35,1859.02C2579.1,1865.24 2585.09,1877.35 2580.64,1885.99C2576.21,1894.64 2563.11,1896.57 2551.3,1890.33C2542.68,1885.75 2537.21,1878.05 2536.63,1870.86C2499.59,1846.72 2473.31,1809.77 2462.47,1767.14C2452.73,1763.16 2445.8,1753.48 2445.8,1742.1L2445.8,1685.9C2445.8,1676.37 2450.67,1668.02 2458.02,1663.22C2467.88,1575.75 2540.89,1507.59 2629.33,1507.59C2717.77,1507.59 2790.8,1575.75 2800.68,1663.22C2808.01,1668.02 2812.88,1676.37 2812.88,1685.9L2812.88,1742.1C2812.88,1757.03 2801.02,1769.13 2786.36,1769.13C2771.69,1769.13 2759.83,1757.03 2759.83,1742.1L2759.83,1685.9Z" style="fill:white;fill-rule:nonzero;stroke:white;stroke-width:0.48px;stroke-miterlimit:2;"/>
                        </g>
                    </g>
                    <g id="call-center-operator-svgrepo-com.svg3" serif:id="call-center-operator-svgrepo-com.svg">
                    </g>
                </g>
                <path d="M2629.34,1563.9C2703.39,1563.9 2763.51,1605.6 2763.51,1691.85C2763.51,1778.1 2703.39,1876.45 2629.34,1876.45C2555.3,1876.45 2495.18,1778.1 2495.18,1691.85C2495.18,1605.6 2555.3,1563.9 2629.34,1563.9Z" style="fill:rgb(1,55,125);"/>
                <clipPath id="_clip50">
                    <path d="M2629.34,1563.9C2703.39,1563.9 2763.51,1605.6 2763.51,1691.85C2763.51,1778.1 2703.39,1876.45 2629.34,1876.45C2555.3,1876.45 2495.18,1778.1 2495.18,1691.85C2495.18,1605.6 2555.3,1563.9 2629.34,1563.9Z"/>
                </clipPath>
                <g clip-path="url(#_clip50)">
                    <g>
                        <g style="filter:url(#_Effect51);">
                            <path d="M2629.34,1786.33C2759.16,1785.85 2750.27,1803.53 2750.27,1803.53C2750.27,1803.53 2680.94,1903.02 2633.47,1903.3C2579.21,1903.63 2511.87,1809.39 2511.87,1809.39C2511.87,1809.39 2480.72,1786.87 2629.34,1786.33Z" style="fill:none;stroke:white;stroke-width:20.29px;stroke-linejoin:bevel;stroke-miterlimit:0.348837;"/>
                            <path d="M2629.34,1786.33C2759.16,1785.85 2750.27,1803.53 2750.27,1803.53C2750.27,1803.53 2680.94,1903.02 2633.47,1903.3C2579.21,1903.63 2511.87,1809.39 2511.87,1809.39C2511.87,1809.39 2480.72,1786.87 2629.34,1786.33Z" style="fill:rgb(157,175,255);"/>
                        </g>
                    </g>
                </g>
            </g>
            <g transform="matrix(0.998558,0,0,1,2.11068,-3.63798e-12)">
                <g transform="matrix(44.6304,0,0,44.6304,2930.03,2175.25)">
                </g>
                <text x="2331.44px" y="2175.25px" style="font-family:'Poppins-Bold', 'Poppins';font-weight:700;font-size:44.63px;fill:rgb(1,55,125);stroke:rgb(1,55,125);stroke-width:0.32px;stroke-miterlimit:2;">BUSINESS REPRESENTATIVE</text>
            </g>
        </g>
        <g>
            <g>
                <g style="filter:url(#_Effect52);">
                    <path d="M3309.66,352.729L3309.66,919.658C3309.66,1076.11 3182.64,1203.12 3026.19,1203.12L2459.26,1203.12C2302.82,1203.12 2175.8,1076.11 2175.8,919.658L2175.8,352.729C2175.8,196.281 2302.82,69.265 2459.26,69.265L3026.19,69.265C3182.64,69.265 3309.66,196.281 3309.66,352.729Z" style="fill:none;stroke:rgb(1,55,125);stroke-opacity:0.1;stroke-width:38.11px;"/>
                </g>
                <path d="M3309.66,352.729L3309.66,919.658C3309.66,1076.11 3182.64,1203.12 3026.19,1203.12L2459.26,1203.12C2302.82,1203.12 2175.8,1076.11 2175.8,919.658L2175.8,352.729C2175.8,196.281 2302.82,69.265 2459.26,69.265L3026.19,69.265C3182.64,69.265 3309.66,196.281 3309.66,352.729Z" style="fill:white;fill-opacity:0.7;stroke:white;stroke-opacity:0.7;stroke-width:1.39px;"/>
            </g>
            <g>
                <path d="M2981.63,566.816L2981.63,794.979C2981.63,857.942 2930.51,909.06 2867.55,909.06L2620.36,909.06C2557.39,909.06 2506.28,857.942 2506.28,794.979L2506.28,566.816C2506.28,503.853 2557.39,452.735 2620.36,452.735L2867.55,452.735C2930.51,452.735 2981.63,503.853 2981.63,566.816Z" style="fill:rgb(124,210,76);"/>
                <path d="M2658.08,235.516C2710.68,202.9 2777.22,202.9 2829.83,235.516C2887.71,271.406 2964.72,319.152 3027.77,358.244C3094.11,399.379 3121.97,481.78 3094.19,554.732C3073.53,608.991 3049.64,671.747 3029.95,723.471C3005.88,786.676 2945.28,828.449 2877.65,828.449L2610.26,828.449C2542.63,828.449 2482.03,786.676 2457.96,723.471C2438.27,671.747 2414.38,608.991 2393.72,554.732C2365.94,481.78 2393.8,399.379 2460.14,358.244C2523.19,319.152 2600.2,271.406 2658.08,235.516Z" style="fill:rgb(1,55,125);"/>
                <clipPath id="_clip53">
                    <path d="M2658.08,235.516C2710.68,202.9 2777.22,202.9 2829.83,235.516C2887.71,271.406 2964.72,319.152 3027.77,358.244C3094.11,399.379 3121.97,481.78 3094.19,554.732C3073.53,608.991 3049.64,671.747 3029.95,723.471C3005.88,786.676 2945.28,828.449 2877.65,828.449L2610.26,828.449C2542.63,828.449 2482.03,786.676 2457.96,723.471C2438.27,671.747 2414.38,608.991 2393.72,554.732C2365.94,481.78 2393.8,399.379 2460.14,358.244C2523.19,319.152 2600.2,271.406 2658.08,235.516Z"/>
                </clipPath>
                <g clip-path="url(#_clip53)">
                    <g>
                        <g style="filter:url(#_Effect54);">
                            <path d="M2981.63,562.382L2981.63,781.677C2981.63,842.193 2932.5,891.325 2871.99,891.325L2615.92,891.325C2555.41,891.325 2506.28,842.193 2506.28,781.677L2506.28,562.382C2506.28,501.866 2555.41,452.735 2615.92,452.735L2871.99,452.735C2932.5,452.735 2981.63,501.866 2981.63,562.382Z" style="fill:none;stroke:white;stroke-width:21.32px;stroke-linejoin:bevel;stroke-miterlimit:0.348837;"/>
                            <path d="M2981.63,562.382L2981.63,781.677C2981.63,842.193 2932.5,891.325 2871.99,891.325L2615.92,891.325C2555.41,891.325 2506.28,842.193 2506.28,781.677L2506.28,562.382C2506.28,501.866 2555.41,452.735 2615.92,452.735L2871.99,452.735C2932.5,452.735 2981.63,501.866 2981.63,562.382Z" style="fill:rgb(157,175,255);"/>
                        </g>
                    </g>
                </g>
                <ellipse cx="2863.37" cy="672.03" rx="19.507" ry="19.047" style="fill:white;"/>
            </g>
            <g transform="matrix(0.998614,0,0,1,2.05534,0)">
                <g transform="matrix(73.915,0,0,73.915,2921.06,1040.66)">
                </g>
                <text x="2566.49px" y="1040.66px" style="font-family:'Poppins-Bold', 'Poppins';font-weight:700;font-size:73.915px;fill:rgb(1,55,125);stroke:rgb(1,55,125);stroke-width:0.32px;stroke-miterlimit:2;">BUSINESS</text>
            </g>
        </g>
        <g>
            <rect x="1797.85" y="617.296" width="377.953" height="37.795" style="fill:rgb(124,210,76);"/>
            <rect x="1797.85" y="1829.53" width="377.953" height="37.795" style="fill:rgb(124,210,76);"/>
            <path d="M2255.51,2732.05L2227.9,2759.66L1718.28,2250.05L1745.89,2222.43L2255.51,2732.05Z" style="fill:rgb(124,210,76);"/>
            <path d="M1363.2,1394.86L1325.4,1394.86L1325.4,1205.88L1363.2,1205.88L1363.2,1394.86Z" style="fill:rgb(124,210,76);"/>
            <rect x="701.783" y="3114.62" width="188.976" height="37.795" style="fill:rgb(124,210,76);"/>
            <rect x="3082.89" y="3114.62" width="188.976" height="37.795" style="fill:rgb(124,210,76);"/>
            <path d="M1363.2,3776.06L1325.4,3776.06L1325.4,3587.09L1363.2,3587.09L1363.2,3776.06Z" style="fill:rgb(124,210,76);"/>
            <path d="M2648.24,3776.06L2610.44,3776.06L2610.44,3587.09L2648.24,3587.09L2648.24,3776.06Z" style="fill:rgb(124,210,76);"/>
            <path d="M3210.91,3688.38L3184.18,3715.11L3002.71,3533.64L3029.43,3506.91L3210.91,3688.38Z" style="fill:rgb(124,210,76);"/>
            <path d="M789.276,3715.3L762.55,3688.57L944.21,3506.91L970.935,3533.64L789.276,3715.3Z" style="fill:rgb(124,210,76);"/>
            <path d="M2648.24,1394.86L2610.44,1394.86L2610.44,1205.88L2648.24,1205.88L2648.24,1394.86Z" style="fill:rgb(124,210,76);"/>
            <path d="M1363.2,2679.95L1325.4,2679.95L1325.4,2302L1363.2,2302L1363.2,2679.95Z" style="fill:rgb(124,210,76);"/>
        </g>
    </g>
    <defs>
        <filter id="_Effect1" filterUnits="userSpaceOnUse" x="544.514" y="-50.2092" width="1372.81" height="1372.87">
            <feGaussianBlur in="SourceGraphic" stdDeviation="16.7364"/>
        </filter>
        <filter id="_Effect3" filterUnits="userSpaceOnUse" x="911.734" y="436.789" width="648.528" height="558.752">
            <feGaussianBlur in="SourceGraphic" stdDeviation="16.0018"/>
        </filter>
        <filter id="_Effect4" filterUnits="userSpaceOnUse" x="943.923" y="3706.37" width="800.759" height="800.796">
            <feGaussianBlur in="SourceGraphic" stdDeviation="9.76236"/>
        </filter>
        <filter id="_Effect6" filterUnits="userSpaceOnUse" x="1055.67" y="4109.74" width="577.256" height="189.263">
            <feGaussianBlur in="SourceGraphic" stdDeviation="9.50192"/>
        </filter>
        <filter id="_Effect7" filterUnits="userSpaceOnUse" x="93.5658" y="3583.51" width="800.759" height="800.796">
            <feGaussianBlur in="SourceGraphic" stdDeviation="9.76236"/>
        </filter>
        <filter id="_Effect9" filterUnits="userSpaceOnUse" x="228.902" y="3863.7" width="517.344" height="355.853">
            <feGaussianBlur in="SourceGraphic" stdDeviation="16.6274"/>
        </filter>
        <filter id="_Effect10" filterUnits="userSpaceOnUse" x="383.633" y="3712.15" width="220.624" height="224.991">
            <feGaussianBlur in="SourceGraphic" stdDeviation="9.18712"/>
        </filter>
        <filter id="_Effect11" filterUnits="userSpaceOnUse" x="-29.2871" y="2733.12" width="800.759" height="800.796">
            <feGaussianBlur in="SourceGraphic" stdDeviation="9.76236"/>
        </filter>
        <filter id="_Effect13" filterUnits="userSpaceOnUse" x="122.814" y="2951.85" width="496.557" height="423.123">
            <feGaussianBlur in="SourceGraphic" stdDeviation="19.9216"/>
        </filter>
        <filter id="_Effect14" filterUnits="userSpaceOnUse" x="247.116" y="2827.31" width="247.954" height="252.861">
            <feGaussianBlur in="SourceGraphic" stdDeviation="10.3251"/>
        </filter>
        <filter id="_Effect15" filterUnits="userSpaceOnUse" x="3202.17" y="2733.12" width="800.759" height="800.796">
            <feGaussianBlur in="SourceGraphic" stdDeviation="9.76236"/>
        </filter>
        <filter id="_Effect20" filterUnits="userSpaceOnUse" x="3352.58" y="3063.25" width="213.938" height="244.37">
            <feGaussianBlur in="SourceGraphic" stdDeviation="4.63183"/>
        </filter>
        <filter id="_Effect21" filterUnits="userSpaceOnUse" x="3638.59" y="3063.25" width="213.938" height="244.37">
            <feGaussianBlur in="SourceGraphic" stdDeviation="4.63183"/>
        </filter>
        <filter id="_Effect22" filterUnits="userSpaceOnUse" x="3079.32" y="3583.51" width="800.759" height="800.796">
            <feGaussianBlur in="SourceGraphic" stdDeviation="9.76236"/>
        </filter>
        <filter id="_Effect27" filterUnits="userSpaceOnUse" x="3229.73" y="3913.65" width="213.938" height="244.37">
            <feGaussianBlur in="SourceGraphic" stdDeviation="4.63183"/>
        </filter>
        <filter id="_Effect28" filterUnits="userSpaceOnUse" x="3515.73" y="3913.65" width="213.938" height="244.37">
            <feGaussianBlur in="SourceGraphic" stdDeviation="4.63183"/>
        </filter>
        <filter id="_Effect29" filterUnits="userSpaceOnUse" x="2228.96" y="3706.37" width="800.759" height="800.796">
            <feGaussianBlur in="SourceGraphic" stdDeviation="9.76236"/>
        </filter>
        <filter id="_Effect34" filterUnits="userSpaceOnUse" x="2379.37" y="4036.51" width="213.938" height="244.37">
            <feGaussianBlur in="SourceGraphic" stdDeviation="4.63183"/>
        </filter>
        <filter id="_Effect35" filterUnits="userSpaceOnUse" x="2665.38" y="4036.51" width="213.938" height="244.37">
            <feGaussianBlur in="SourceGraphic" stdDeviation="4.63183"/>
        </filter>
        <filter id="_Effect36" filterUnits="userSpaceOnUse" x="2080.22" y="2584.37" width="1098.24" height="1098.29">
            <feGaussianBlur in="SourceGraphic" stdDeviation="13.3891"/>
        </filter>
        <filter id="_Effect38" filterUnits="userSpaceOnUse" x="2515.7" y="2898.81" width="443.723" height="519.149">
            <feGaussianBlur in="SourceGraphic" stdDeviation="12.7526"/>
        </filter>
        <filter id="_Effect39" filterUnits="userSpaceOnUse" x="795.18" y="2584.37" width="1098.24" height="1098.29">
            <feGaussianBlur in="SourceGraphic" stdDeviation="13.3891"/>
        </filter>
        <filter id="_Effect41" filterUnits="userSpaceOnUse" x="1230.66" y="2898.81" width="443.723" height="519.149">
            <feGaussianBlur in="SourceGraphic" stdDeviation="12.7526"/>
        </filter>
        <filter id="_Effect42" filterUnits="userSpaceOnUse" x="795.18" y="1299.28" width="1098.24" height="1098.29">
            <feGaussianBlur in="SourceGraphic" stdDeviation="13.3891"/>
        </filter>
        <filter id="_Effect44" filterUnits="userSpaceOnUse" x="1124.19" y="1470.66" width="440.233" height="460.25">
            <feGaussianBlur in="SourceGraphic" stdDeviation="6.08453"/>
        </filter>
        <filter id="_Effect46" filterUnits="userSpaceOnUse" x="1128.67" y="1690.87" width="432.141" height="307.875">
            <feGaussianBlur in="SourceGraphic" stdDeviation="14.2165"/>
        </filter>
        <filter id="_Effect47" filterUnits="userSpaceOnUse" x="2080.22" y="1299.28" width="1098.24" height="1098.29">
            <feGaussianBlur in="SourceGraphic" stdDeviation="13.3891"/>
        </filter>
        <filter id="_Effect49" filterUnits="userSpaceOnUse" x="2409.23" y="1470.66" width="440.233" height="460.25">
            <feGaussianBlur in="SourceGraphic" stdDeviation="6.08453"/>
        </filter>
        <filter id="_Effect51" filterUnits="userSpaceOnUse" x="2413.71" y="1690.87" width="432.141" height="307.875">
            <feGaussianBlur in="SourceGraphic" stdDeviation="14.2165"/>
        </filter>
        <filter id="_Effect52" filterUnits="userSpaceOnUse" x="2056.32" y="-50.2092" width="1372.81" height="1372.81">
            <feGaussianBlur in="SourceGraphic" stdDeviation="16.7364"/>
        </filter>
        <filter id="_Effect54" filterUnits="userSpaceOnUse" x="2397.81" y="344.274" width="692.279" height="655.512">
            <feGaussianBlur in="SourceGraphic" stdDeviation="16.2999"/>
        </filter>
    </defs>
</svg>
