<?xml version="1.0" encoding="UTF-8" standalone="no"?>
<!DOCTYPE svg PUBLIC "-//W3C//DTD SVG 1.1//EN" "http://www.w3.org/Graphics/SVG/1.1/DTD/svg11.dtd">
<svg width="100%" height="100%" viewBox="0 0 494 494" version="1.1" xmlns="http://www.w3.org/2000/svg" xmlns:xlink="http://www.w3.org/1999/xlink" xml:space="preserve" xmlns:serif="http://www.serif.com/" style="fill-rule:evenodd;clip-rule:evenodd;stroke-linejoin:round;stroke-miterlimit:0.73;">
    <g>
        <g>
            <g style="filter:url(#_Effect1);">
                <path d="M435.953,152.488L435.953,341.465C435.953,393.614 393.614,435.953 341.465,435.953L152.488,435.953C100.339,435.953 58,393.614 58,341.465L58,152.488C58,100.339 100.339,58 152.488,58L341.465,58C393.614,58 435.953,100.339 435.953,152.488Z" style="fill:none;stroke:rgb(1,55,125);stroke-opacity:0.2;stroke-width:20px;"/>
            </g>
            <path d="M435.953,152.488L435.953,341.465C435.953,393.614 393.614,435.953 341.465,435.953L152.488,435.953C100.339,435.953 58,393.614 58,341.465L58,152.488C58,100.339 100.339,58 152.488,58L341.465,58C393.614,58 435.953,100.339 435.953,152.488Z" style="fill:white;stroke:white;stroke-width:0.46px;"/>
        </g>
        <g id="tax">
            <g style="filter:url(#_Effect2);">
                <path d="M354.559,192.164L354.559,339.273C354.559,354.214 342.428,366.344 327.487,366.344L213.09,366.344C198.149,366.344 186.018,354.214 186.018,339.273L186.018,192.164C186.018,177.222 198.149,165.092 213.09,165.092L327.487,165.092C342.428,165.092 354.559,177.222 354.559,192.164Z" style="fill:none;stroke:rgb(1,55,125);stroke-opacity:0.1;stroke-width:26.67px;"/>
            </g>
            <path d="M354.559,192.164L354.559,339.273C354.559,354.214 342.428,366.344 327.487,366.344L213.09,366.344C198.149,366.344 186.018,354.214 186.018,339.273L186.018,192.164C186.018,177.222 198.149,165.092 213.09,165.092L327.487,165.092C342.428,165.092 354.559,177.222 354.559,192.164Z" style="fill:rgb(1,55,125);"/>
            <path d="M336.303,297.491L336.303,297.547C336.303,303.71 331.299,308.714 325.136,308.714L258.296,308.714C252.133,308.714 247.129,303.71 247.129,297.547L247.129,297.491C247.129,291.327 252.133,286.324 258.296,286.324L325.136,286.324C331.299,286.324 336.303,291.327 336.303,297.491Z" style="fill:rgb(126,211,72);"/>
            <path d="M336.303,263.591L336.303,263.647C336.303,269.81 331.299,274.814 325.136,274.814L286.706,274.814C280.542,274.814 275.539,269.81 275.539,263.647L275.539,263.591C275.539,257.428 280.542,252.424 286.706,252.424L325.136,252.424C331.299,252.424 336.303,257.428 336.303,263.591Z" style="fill:rgb(126,211,72);"/>
            <path d="M332.799,331.39L332.799,331.446C332.799,337.609 327.795,342.613 321.632,342.613L229.446,342.613C223.282,342.613 218.279,337.609 218.279,331.446L218.279,331.39C218.279,325.227 223.282,320.223 229.446,320.223L321.632,320.223C327.795,320.223 332.799,325.227 332.799,331.39Z" style="fill:rgb(126,211,72);"/>
            <g>
                <g style="filter:url(#_Effect3);">
                    <ellipse cx="221.075" cy="209.369" rx="81.161" ry="81.76" style="fill:none;stroke:rgb(1,55,125);stroke-opacity:0.1;stroke-width:26.67px;"/>
                </g>
                <ellipse cx="221.075" cy="209.369" rx="81.681" ry="81.76" style="fill:white;"/>
                <g>
                    <g style="filter:url(#_Effect4);">
                        <rect x="199.321" y="179.894" width="111.33" height="124.495" style="fill:rgb(19,159,255);fill-opacity:0.32;"/>
                    </g>
                    <path d="M264.745,183.92L264.779,183.979C268.482,190.441 266.262,198.727 259.824,202.471L195.77,239.726C189.333,243.47 181.099,241.264 177.396,234.802L177.362,234.743C173.659,228.282 175.879,219.996 182.317,216.251L246.371,178.997C252.808,175.252 261.042,177.459 264.745,183.92Z" style="fill:rgb(1,55,125);"/>
                    <path d="M196.203,165.972C202.634,162.232 210.868,164.454 214.581,170.932C218.294,177.41 216.087,185.706 209.657,189.446C203.226,193.186 194.991,190.963 191.279,184.485C187.566,178.007 189.773,169.712 196.203,165.972Z" style="fill:rgb(1,55,125);"/>
                    <path d="M232.493,229.291C238.923,225.551 247.158,227.774 250.87,234.252C254.583,240.73 252.376,249.025 245.946,252.765C239.516,256.505 231.281,254.283 227.568,247.805C223.856,241.327 226.062,233.031 232.493,229.291Z" style="fill:rgb(1,55,125);"/>
                </g>
            </g>
        </g>
    </g>
    <defs>
        <filter id="_Effect1" filterUnits="userSpaceOnUse" x="-48" y="-48" width="589.953" height="589.953">
            <feGaussianBlur in="SourceGraphic" stdDeviation="16"/>
        </filter>
        <filter id="_Effect2" filterUnits="userSpaceOnUse" x="134.282" y="113.356" width="272.014" height="304.725">
            <feGaussianBlur in="SourceGraphic" stdDeviation="6.40038"/>
        </filter>
        <filter id="_Effect3" filterUnits="userSpaceOnUse" x="88.1776" y="75.8719" width="265.794" height="266.993">
            <feGaussianBlur in="SourceGraphic" stdDeviation="6.40038"/>
        </filter>
        <filter id="_Effect4" filterUnits="userSpaceOnUse" x="124.816" y="105.389" width="260.341" height="273.505">
            <feGaussianBlur in="SourceGraphic" stdDeviation="12.4175"/>
        </filter>
    </defs>
</svg>
