<?xml version="1.0" encoding="UTF-8" standalone="no"?>
<!DOCTYPE svg PUBLIC "-//W3C//DTD SVG 1.1//EN" "http://www.w3.org/Graphics/SVG/1.1/DTD/svg11.dtd">
<svg width="100%" height="100%" viewBox="0 0 379 379" version="1.1" xmlns="http://www.w3.org/2000/svg" xmlns:xlink="http://www.w3.org/1999/xlink" xml:space="preserve" xmlns:serif="http://www.serif.com/" style="fill-rule:evenodd;clip-rule:evenodd;stroke-linejoin:round;stroke-miterlimit:0.73;">
    <g>
        <g>
            <path d="M378.185,94.721L378.185,283.697C378.185,335.846 335.846,378.185 283.697,378.185L94.721,378.185C42.571,378.185 0.232,335.846 0.232,283.697L0.232,94.721C0.232,42.571 42.571,0.232 94.721,0.232L283.697,0.232C335.846,0.232 378.185,42.571 378.185,94.721Z" style="fill:white;stroke:white;stroke-width:0.46px;"/>
        </g>
        <g id="tax">
            <g style="filter:url(#_Effect1);">
                <path d="M297.527,128.523L297.527,289.993C297.527,306.393 284.212,319.708 267.812,319.708L142.247,319.708C125.847,319.708 112.533,306.393 112.533,289.993L112.533,128.523C112.533,112.123 125.847,98.809 142.247,98.809L267.812,98.809C284.212,98.809 297.527,112.123 297.527,128.523Z" style="fill:none;stroke:rgb(1,55,125);stroke-opacity:0.1;stroke-width:29.27px;"/>
            </g>
            <path d="M297.527,128.523L297.527,289.993C297.527,306.393 284.212,319.708 267.812,319.708L142.247,319.708C125.847,319.708 112.533,306.393 112.533,289.993L112.533,128.523C112.533,112.123 125.847,98.809 142.247,98.809L267.812,98.809C284.212,98.809 297.527,112.123 297.527,128.523Z" style="fill:rgb(1,55,125);"/>
            <path d="M277.488,244.132L277.488,244.194C277.488,250.959 271.996,256.451 265.231,256.451L191.866,256.451C185.101,256.451 179.609,250.959 179.609,244.194L179.609,244.132C179.609,237.367 185.101,231.875 191.866,231.875L265.231,231.875C271.996,231.875 277.488,237.367 277.488,244.132Z" style="fill:rgb(126,211,72);"/>
            <path d="M277.488,206.923L277.488,206.985C277.488,213.75 271.996,219.242 265.231,219.242L223.05,219.242C216.285,219.242 210.792,213.75 210.792,206.985L210.792,206.923C210.792,200.159 216.285,194.666 223.05,194.666L265.231,194.666C271.996,194.666 277.488,200.159 277.488,206.923Z" style="fill:rgb(126,211,72);"/>
            <path d="M273.642,281.341L273.642,281.403C273.642,288.167 268.15,293.66 261.385,293.66L160.2,293.66C153.435,293.66 147.943,288.167 147.943,281.403L147.943,281.341C147.943,274.576 153.435,269.084 160.2,269.084L261.385,269.084C268.15,269.084 273.642,274.576 273.642,281.341Z" style="fill:rgb(126,211,72);"/>
            <g>
                <g style="filter:url(#_Effect2);">
                    <ellipse cx="151.011" cy="147.408" rx="89.084" ry="89.742" style="fill:none;stroke:rgb(1,55,125);stroke-opacity:0.1;stroke-width:29.27px;"/>
                </g>
                <ellipse cx="151.011" cy="147.408" rx="89.655" ry="89.742" style="fill:white;"/>
                <g>
                    <g style="filter:url(#_Effect3);">
                        <rect x="127.134" y="115.056" width="122.199" height="136.648" style="fill:rgb(19,159,255);fill-opacity:0.32;"/>
                    </g>
                    <path d="M198.945,119.475L198.982,119.54C203.047,126.632 200.61,135.727 193.544,139.837L123.237,180.728C116.171,184.838 107.134,182.417 103.069,175.324L103.032,175.26C98.967,168.167 101.404,159.072 108.47,154.963L178.777,114.071C185.843,109.961 194.88,112.383 198.945,119.475Z" style="fill:rgb(1,55,125);"/>
                    <path d="M123.712,99.774C130.77,95.669 139.809,98.109 143.884,105.219C147.959,112.33 145.537,121.435 138.479,125.54C131.421,129.645 122.382,127.205 118.307,120.095C114.232,112.985 116.654,103.879 123.712,99.774Z" style="fill:rgb(1,55,125);"/>
                    <path d="M163.544,169.275C170.602,165.17 179.641,167.61 183.716,174.72C187.791,181.83 185.369,190.936 178.311,195.041C171.253,199.146 162.214,196.706 158.139,189.596C154.064,182.486 156.486,173.38 163.544,169.275Z" style="fill:rgb(1,55,125);"/>
                </g>
            </g>
        </g>
    </g>
    <defs>
        <filter id="_Effect1" filterUnits="userSpaceOnUse" x="55.7457" y="42.0218" width="298.568" height="334.473">
            <feGaussianBlur in="SourceGraphic" stdDeviation="7.0252"/>
        </filter>
        <filter id="_Effect2" filterUnits="userSpaceOnUse" x="5.14089" y="0.87895" width="291.741" height="293.057">
            <feGaussianBlur in="SourceGraphic" stdDeviation="7.0252"/>
        </filter>
        <filter id="_Effect3" filterUnits="userSpaceOnUse" x="45.3559" y="33.2774" width="285.755" height="300.205">
            <feGaussianBlur in="SourceGraphic" stdDeviation="13.6297"/>
        </filter>
    </defs>
</svg>
