<?xml version="1.0" encoding="UTF-8" standalone="no"?>
<!DOCTYPE svg PUBLIC "-//W3C//DTD SVG 1.1//EN" "http://www.w3.org/Graphics/SVG/1.1/DTD/svg11.dtd">
<svg width="100%" height="100%" viewBox="0 0 379 379" version="1.1" xmlns="http://www.w3.org/2000/svg" xmlns:xlink="http://www.w3.org/1999/xlink" xml:space="preserve" xmlns:serif="http://www.serif.com/" style="fill-rule:evenodd;clip-rule:evenodd;stroke-linejoin:round;stroke-miterlimit:0.73;">
    <g>
        <path d="M378.185,94.721L378.185,283.697C378.185,335.846 335.846,378.185 283.697,378.185L94.721,378.185C42.571,378.185 0.232,335.846 0.232,283.697L0.232,94.721C0.232,42.571 42.571,0.232 94.721,0.232L283.697,0.232C335.846,0.232 378.185,42.571 378.185,94.721Z" style="fill:none;stroke:white;stroke-width:0.46px;"/>
        <g>
            <g>
                <path d="M313.458,139.538L313.458,270.022C313.458,297.654 291.024,320.088 263.392,320.088L163.26,320.088C135.627,320.088 113.194,297.654 113.194,270.022L113.194,139.538C113.194,111.905 135.627,89.472 163.26,89.472L263.392,89.472C291.024,89.472 313.458,111.905 313.458,139.538Z" style="fill:rgb(0,47,112);"/>
                <rect x="158.459" y="192.783" width="155.956" height="7.73" style="fill:rgb(126,211,72);"/>
                <rect x="157.501" y="156.783" width="155.956" height="24.012" style="fill:rgb(126,211,72);"/>
            </g>
            <g style="filter:url(#_Effect1);">
                <path d="M284.474,124.716L284.474,211.403C284.474,248.042 254.727,277.789 218.088,277.789L130.389,277.789C93.749,277.789 64.002,248.042 64.002,211.403L64.002,124.716C64.002,88.076 93.749,58.329 130.389,58.329L218.088,58.329C254.727,58.329 284.474,88.076 284.474,124.716Z" style="fill:rgb(1,54,124);fill-opacity:0.15;"/>
            </g>
            <path d="M284.474,124.716L284.474,211.403C284.474,248.042 254.727,277.789 218.088,277.789L130.389,277.789C93.749,277.789 64.002,248.042 64.002,211.403L64.002,124.716C64.002,88.076 93.749,58.329 130.389,58.329L218.088,58.329C254.727,58.329 284.474,88.076 284.474,124.716Z" style="fill:white;"/>
            <g style="filter:url(#_Effect2);">
                <path d="M270.671,140.573L271.309,140.573C278.701,140.573 284.703,146.575 284.703,153.967L284.703,270.622C284.703,278.014 278.701,284.016 271.309,284.016L170.821,284.016C158.792,284.016 149.025,274.249 149.025,262.219C149.025,195.081 203.533,140.573 270.671,140.573Z" style="fill:rgb(103,193,255);fill-opacity:0.52;"/>
            </g>
            <g id="XMLID_12_">
                <g>
                    <path d="M244.295,171.86C243.826,171.346 243.163,171.051 242.467,171.051L237.597,171.051C237.597,171.051 220.742,138.983 219.87,137.319C218.936,135.536 217.521,133.974 215.405,133.974C205.108,133.974 195.499,131.777 188.347,127.787C184.779,125.796 182.089,123.467 180.445,121.02L180.445,113.946C180.445,110.518 177.666,107.739 174.238,107.739C170.81,107.739 168.03,110.518 168.03,113.946L168.03,121.02C166.387,123.467 163.696,125.796 160.128,127.787C152.977,131.777 143.367,133.974 133.07,133.974C130.954,133.974 129.68,135.272 128.605,137.319C126.091,142.106 110.878,171.051 110.878,171.051L106.009,171.051C105.313,171.051 104.649,171.344 104.181,171.858C103.712,172.373 103.482,173.061 103.546,173.754C104.91,188.56 117.364,200.155 132.527,200.155C147.689,200.155 160.143,188.56 161.507,173.754C161.571,173.061 161.34,172.374 160.871,171.86C160.403,171.346 159.74,171.051 159.044,171.051L154.174,171.051L139.466,143.03C150.926,142.111 160.929,138.749 168.031,133.811L168.031,212.861L139.896,212.861C135.611,212.861 132.137,216.335 132.137,220.62C132.137,224.905 135.611,228.379 139.896,228.379L207.387,228.379C211.672,228.379 215.146,224.905 215.146,220.62C215.146,216.335 211.672,212.861 207.387,212.861L180.446,212.861L180.446,133.811C187.548,138.749 197.551,142.111 209.01,143.03L194.302,171.051L189.432,171.051C188.736,171.051 188.072,171.344 187.604,171.858C187.135,172.373 186.905,173.061 186.969,173.754C188.333,188.56 200.787,200.155 215.95,200.155C231.112,200.155 243.567,188.56 244.93,173.754C244.994,173.061 244.763,172.374 244.295,171.86ZM143.658,171.051L121.394,171.051L132.526,149.843L143.658,171.051ZM204.818,171.051L215.95,149.843L227.082,171.051L204.818,171.051Z" style="fill:rgb(1,55,125);fill-rule:nonzero;"/>
                </g>
            </g>
        </g>
    </g>
    <defs>
        <filter id="_Effect1" filterUnits="userSpaceOnUse" x="2.69271" y="-2.97998" width="343.091" height="342.078">
            <feGaussianBlur in="SourceGraphic" stdDeviation="10.2182"/>
        </filter>
        <filter id="_Effect2" filterUnits="userSpaceOnUse" x="64.8806" y="56.4289" width="303.967" height="311.731">
            <feGaussianBlur in="SourceGraphic" stdDeviation="14.0241"/>
        </filter>
    </defs>
</svg>
