<?xml version="1.0" encoding="UTF-8" standalone="no"?>
<!DOCTYPE svg PUBLIC "-//W3C//DTD SVG 1.1//EN" "http://www.w3.org/Graphics/SVG/1.1/DTD/svg11.dtd">
<svg width="100%" height="100%" viewBox="0 0 494 494" version="1.1" xmlns="http://www.w3.org/2000/svg" xmlns:xlink="http://www.w3.org/1999/xlink" xml:space="preserve" xmlns:serif="http://www.serif.com/" style="fill-rule:evenodd;clip-rule:evenodd;stroke-linejoin:round;stroke-miterlimit:0.73;">
    <g>
        <g>
            <g>
                <g style="filter:url(#_Effect1);">
                    <path d="M435.953,152.488L435.953,341.465C435.953,393.614 393.614,435.953 341.465,435.953L152.488,435.953C100.339,435.953 58,393.614 58,341.465L58,152.488C58,100.339 100.339,58 152.488,58L341.465,58C393.614,58 435.953,100.339 435.953,152.488Z" style="fill:none;stroke:rgb(1,55,125);stroke-opacity:0.2;stroke-width:20px;"/>
                </g>
                <path d="M435.953,152.488L435.953,341.465C435.953,393.614 393.614,435.953 341.465,435.953L152.488,435.953C100.339,435.953 58,393.614 58,341.465L58,152.488C58,100.339 100.339,58 152.488,58L341.465,58C393.614,58 435.953,100.339 435.953,152.488Z" style="fill:white;stroke:white;stroke-width:0.46px;"/>
            </g>
        </g>
        <g id="cloud">
            <g>
                <path d="M259.758,252.682L259.758,341.141C259.758,345.741 256.024,349.476 251.424,349.476L234.754,349.476C230.154,349.476 226.42,345.741 226.42,341.141L226.42,252.682C226.42,248.082 230.154,244.347 234.754,244.347L251.424,244.347C256.024,244.347 259.758,248.082 259.758,252.682Z" style="fill:rgb(0,47,112);"/>
                <path d="M243.089,325.608C246.634,325.608 249.513,328.486 249.513,332.031C249.513,335.577 246.634,338.455 243.089,338.455C239.544,338.455 236.665,335.577 236.665,332.031C236.665,328.486 239.544,325.608 243.089,325.608ZM243.089,328.82C244.862,328.82 246.301,330.259 246.301,332.031C246.301,333.804 244.862,335.243 243.089,335.243C241.316,335.243 239.877,333.804 239.877,332.031C239.877,330.259 241.316,328.82 243.089,328.82Z" style="fill:white;"/>
                <path d="M250.578,294.059L250.578,295.508C250.578,296.283 249.949,296.912 249.175,296.912L237.003,296.912C236.229,296.912 235.6,296.283 235.6,295.508L235.6,294.059C235.6,293.284 236.229,292.655 237.003,292.655L249.175,292.655C249.949,292.655 250.578,293.284 250.578,294.059Z" style="fill:rgb(126,211,72);"/>
                <path d="M250.578,303.229L250.578,304.679C250.578,305.453 249.949,306.082 249.175,306.082L237.003,306.082C236.229,306.082 235.6,305.453 235.6,304.679L235.6,303.229C235.6,302.455 236.229,301.826 237.003,301.826L249.175,301.826C249.949,301.826 250.578,302.455 250.578,303.229Z" style="fill:rgb(126,211,72);"/>
                <path d="M250.578,312.387L250.578,313.837C250.578,314.611 249.949,315.24 249.175,315.24L237.003,315.24C236.229,315.24 235.6,314.611 235.6,313.837L235.6,312.387C235.6,311.612 236.229,310.984 237.003,310.984L249.175,310.984C249.949,310.984 250.578,311.612 250.578,312.387Z" style="fill:rgb(126,211,72);"/>
            </g>
            <g>
                <path d="M295.059,252.682L295.059,341.141C295.059,345.741 291.325,349.476 286.725,349.476L270.055,349.476C265.455,349.476 261.721,345.741 261.721,341.141L261.721,252.682C261.721,248.082 265.455,244.347 270.055,244.347L286.725,244.347C291.325,244.347 295.059,248.082 295.059,252.682Z" style="fill:rgb(0,47,112);"/>
                <path d="M278.39,325.608C281.935,325.608 284.814,328.486 284.814,332.031C284.814,335.577 281.935,338.455 278.39,338.455C274.845,338.455 271.966,335.577 271.966,332.031C271.966,328.486 274.845,325.608 278.39,325.608ZM278.39,328.82C280.163,328.82 281.602,330.259 281.602,332.031C281.602,333.804 280.163,335.243 278.39,335.243C276.617,335.243 275.178,333.804 275.178,332.031C275.178,330.259 276.617,328.82 278.39,328.82Z" style="fill:white;"/>
                <path d="M285.879,294.059L285.879,295.508C285.879,296.283 285.25,296.912 284.476,296.912L272.304,296.912C271.53,296.912 270.901,296.283 270.901,295.508L270.901,294.059C270.901,293.284 271.53,292.655 272.304,292.655L284.476,292.655C285.25,292.655 285.879,293.284 285.879,294.059Z" style="fill:rgb(126,211,72);"/>
                <path d="M285.879,303.229L285.879,304.679C285.879,305.453 285.25,306.082 284.476,306.082L272.304,306.082C271.53,306.082 270.901,305.453 270.901,304.679L270.901,303.229C270.901,302.455 271.53,301.826 272.304,301.826L284.476,301.826C285.25,301.826 285.879,302.455 285.879,303.229Z" style="fill:rgb(126,211,72);"/>
                <path d="M285.879,312.387L285.879,313.837C285.879,314.611 285.25,315.24 284.476,315.24L272.304,315.24C271.53,315.24 270.901,314.611 270.901,313.837L270.901,312.387C270.901,311.612 271.53,310.984 272.304,310.984L284.476,310.984C285.25,310.984 285.879,311.612 285.879,312.387Z" style="fill:rgb(126,211,72);"/>
            </g>
            <g>
                <path d="M330.137,252.682L330.137,341.141C330.137,345.741 326.403,349.476 321.803,349.476L305.134,349.476C300.534,349.476 296.799,345.741 296.799,341.141L296.799,252.682C296.799,248.082 300.534,244.347 305.134,244.347L321.803,244.347C326.403,244.347 330.137,248.082 330.137,252.682Z" style="fill:rgb(0,47,112);"/>
                <path d="M313.468,325.608C317.014,325.608 319.892,328.486 319.892,332.031C319.892,335.577 317.014,338.455 313.468,338.455C309.923,338.455 307.044,335.577 307.044,332.031C307.044,328.486 309.923,325.608 313.468,325.608ZM313.468,328.82C315.241,328.82 316.68,330.259 316.68,332.031C316.68,333.804 315.241,335.243 313.468,335.243C311.695,335.243 310.256,333.804 310.256,332.031C310.256,330.259 311.695,328.82 313.468,328.82Z" style="fill:white;"/>
                <path d="M320.957,294.059L320.957,295.508C320.957,296.283 320.328,296.912 319.554,296.912L307.382,296.912C306.608,296.912 305.979,296.283 305.979,295.508L305.979,294.059C305.979,293.284 306.608,292.655 307.382,292.655L319.554,292.655C320.328,292.655 320.957,293.284 320.957,294.059Z" style="fill:rgb(126,211,72);"/>
                <path d="M320.957,303.229L320.957,304.679C320.957,305.453 320.328,306.082 319.554,306.082L307.382,306.082C306.608,306.082 305.979,305.453 305.979,304.679L305.979,303.229C305.979,302.455 306.608,301.826 307.382,301.826L319.554,301.826C320.328,301.826 320.957,302.455 320.957,303.229Z" style="fill:rgb(126,211,72);"/>
                <path d="M320.957,312.387L320.957,313.837C320.957,314.611 320.328,315.24 319.554,315.24L307.382,315.24C306.608,315.24 305.979,314.611 305.979,313.837L305.979,312.387C305.979,311.612 306.608,310.984 307.382,310.984L319.554,310.984C320.328,310.984 320.957,311.612 320.957,312.387Z" style="fill:rgb(126,211,72);"/>
            </g>
            <g style="filter:url(#_Effect2);">
                <path d="M314.919,280.534L164.996,280.534C144.688,280.534 128.201,264.802 128.201,245.424C128.201,226.046 144.688,210.313 164.996,210.313C165.031,210.313 165.065,210.313 165.1,210.313C166.77,185.657 188.284,166.123 214.541,166.123C218.782,166.123 222.899,166.633 226.828,167.591C237.947,153.554 255.586,144.477 275.429,144.477C303.423,144.477 327.03,162.543 334.133,187.113C352.674,194.35 365.751,211.744 365.751,232.028C365.751,258.8 342.974,280.534 314.919,280.534Z" style="fill:none;stroke:rgb(1,55,125);stroke-opacity:0.32;stroke-width:5.33px;stroke-linecap:round;"/>
            </g>
            <path d="M314.919,280.534L164.996,280.534C144.688,280.534 128.201,264.802 128.201,245.424C128.201,226.046 144.688,210.313 164.996,210.313C165.031,210.313 165.065,210.313 165.1,210.313C166.77,185.657 188.284,166.123 214.541,166.123C218.782,166.123 222.899,166.633 226.828,167.591C237.947,153.554 255.586,144.477 275.429,144.477C303.423,144.477 327.03,162.543 334.133,187.113C352.674,194.35 365.751,211.744 365.751,232.028C365.751,258.8 342.974,280.534 314.919,280.534Z" style="fill:white;stroke:white;stroke-width:0.11px;stroke-linecap:round;"/>
            <g style="filter:url(#_Effect3);">
                <rect x="222.376" y="226.454" width="117.115" height="63.32" style="fill:rgb(19,159,255);fill-opacity:0.32;"/>
            </g>
        </g>
    </g>
    <defs>
        <filter id="_Effect1" filterUnits="userSpaceOnUse" x="-48" y="-48" width="589.953" height="589.953">
            <feGaussianBlur in="SourceGraphic" stdDeviation="16"/>
        </filter>
        <filter id="_Effect2" filterUnits="userSpaceOnUse" x="92.5427" y="108.818" width="308.867" height="207.375">
            <feGaussianBlur in="SourceGraphic" stdDeviation="5.49905"/>
        </filter>
        <filter id="_Effect3" filterUnits="userSpaceOnUse" x="158.363" y="162.442" width="245.141" height="191.346">
            <feGaussianBlur in="SourceGraphic" stdDeviation="10.6688"/>
        </filter>
    </defs>
</svg>
