<?xml version="1.0" encoding="UTF-8" standalone="no"?>
<!DOCTYPE svg PUBLIC "-//W3C//DTD SVG 1.1//EN" "http://www.w3.org/Graphics/SVG/1.1/DTD/svg11.dtd">
<svg width="100%" height="100%" viewBox="0 0 494 494" version="1.1" xmlns="http://www.w3.org/2000/svg" xmlns:xlink="http://www.w3.org/1999/xlink" xml:space="preserve" xmlns:serif="http://www.serif.com/" style="fill-rule:evenodd;clip-rule:evenodd;stroke-linejoin:round;stroke-miterlimit:0.73;">
    <g>
        <g>
            <g>
                <g style="filter:url(#_Effect1);">
                    <path d="M435.953,152.488L435.953,341.465C435.953,393.614 393.614,435.953 341.465,435.953L152.488,435.953C100.339,435.953 58,393.614 58,341.465L58,152.488C58,100.339 100.339,58 152.488,58L341.465,58C393.614,58 435.953,100.339 435.953,152.488Z" style="fill:none;stroke:rgb(1,55,125);stroke-opacity:0.2;stroke-width:20px;"/>
                </g>
                <path d="M435.953,152.488L435.953,341.465C435.953,393.614 393.614,435.953 341.465,435.953L152.488,435.953C100.339,435.953 58,393.614 58,341.465L58,152.488C58,100.339 100.339,58 152.488,58L341.465,58C393.614,58 435.953,100.339 435.953,152.488Z" style="fill:white;stroke:white;stroke-width:0.46px;"/>
            </g>
        </g>
        <g id="audit">
            <g style="filter:url(#_Effect2);">
                <path d="M340.61,161.314L340.61,332.639C340.61,349.24 327.131,362.718 310.53,362.718L183.423,362.718C166.821,362.718 153.343,349.24 153.343,332.639L153.343,161.314C153.343,144.712 166.821,131.234 183.423,131.234L310.53,131.234C327.131,131.234 340.61,144.712 340.61,161.314Z" style="fill:none;stroke:rgb(1,55,125);stroke-opacity:0.11;stroke-width:15.89px;"/>
            </g>
            <path d="M340.61,161.314L340.61,332.639C340.61,349.24 327.131,362.718 310.53,362.718L183.423,362.718C166.821,362.718 153.343,349.24 153.343,332.639L153.343,161.314C153.343,144.712 166.821,131.234 183.423,131.234L310.53,131.234C327.131,131.234 340.61,144.712 340.61,161.314Z" style="fill:white;stroke:rgb(173,246,196);stroke-width:0.13px;"/>
            <g>
                <path d="M304.456,167.903L304.456,167.915C304.456,168.783 303.751,169.487 302.883,169.487L247.207,169.487C246.339,169.487 245.634,168.783 245.634,167.915L245.634,167.903C245.634,167.035 246.339,166.33 247.207,166.33L302.883,166.33C303.751,166.33 304.456,167.035 304.456,167.903Z" style="fill:rgb(124,210,76);stroke:rgb(173,246,196);stroke-width:0.13px;"/>
                <path d="M304.456,179.591L304.456,179.603C304.456,180.471 303.751,181.175 302.883,181.175L247.207,181.175C246.339,181.175 245.634,180.471 245.634,179.603L245.634,179.591C245.634,178.723 246.339,178.018 247.207,178.018L302.883,178.018C303.751,178.018 304.456,178.723 304.456,179.591Z" style="fill:rgb(124,210,76);stroke:rgb(173,246,196);stroke-width:0.13px;"/>
                <path d="M304.456,191.251L304.456,191.263C304.456,192.131 303.751,192.836 302.883,192.836L247.207,192.836C246.339,192.836 245.634,192.131 245.634,191.263L245.634,191.251C245.634,190.383 246.339,189.679 247.207,189.679L302.883,189.679C303.751,189.679 304.456,190.383 304.456,191.251Z" style="fill:rgb(124,210,76);stroke:rgb(173,246,196);stroke-width:0.13px;"/>
            </g>
            <g>
                <path d="M303.217,231.124L303.217,231.135C303.217,232.003 302.512,232.708 301.644,232.708L245.968,232.708C245.1,232.708 244.395,232.003 244.395,231.135L244.395,231.124C244.395,230.256 245.1,229.551 245.968,229.551L301.644,229.551C302.512,229.551 303.217,230.256 303.217,231.124Z" style="fill:rgb(124,210,76);stroke:rgb(173,246,196);stroke-width:0.13px;"/>
                <path d="M303.217,242.812L303.217,242.823C303.217,243.691 302.512,244.396 301.644,244.396L245.968,244.396C245.1,244.396 244.395,243.691 244.395,242.823L244.395,242.812C244.395,241.944 245.1,241.239 245.968,241.239L301.644,241.239C302.512,241.239 303.217,241.944 303.217,242.812Z" style="fill:rgb(124,210,76);stroke:rgb(173,246,196);stroke-width:0.13px;"/>
                <path d="M303.217,254.472L303.217,254.484C303.217,255.352 302.512,256.056 301.644,256.056L245.968,256.056C245.1,256.056 244.395,255.352 244.395,254.484L244.395,254.472C244.395,253.604 245.1,252.899 245.968,252.899L301.644,252.899C302.512,252.899 303.217,253.604 303.217,254.472Z" style="fill:rgb(124,210,76);stroke:rgb(173,246,196);stroke-width:0.13px;"/>
            </g>
            <g>
                <path d="M303.217,309.311L303.217,309.323C303.217,310.191 302.512,310.895 301.644,310.895L212,310.895C211.132,310.895 210.427,310.191 210.427,309.323L210.427,309.311C210.427,308.443 211.132,307.738 212,307.738L301.644,307.738C302.512,307.738 303.217,308.443 303.217,309.311Z" style="fill:rgb(124,210,76);stroke:rgb(173,246,196);stroke-width:0.13px;"/>
                <path d="M303.217,297.473L303.217,297.485C303.217,298.352 302.512,299.057 301.644,299.057L212,299.057C211.132,299.057 210.427,298.352 210.427,297.485L210.427,297.473C210.427,296.605 211.132,295.9 212,295.9L301.644,295.9C302.512,295.9 303.217,296.605 303.217,297.473Z" style="fill:rgb(124,210,76);stroke:rgb(173,246,196);stroke-width:0.13px;"/>
                <path d="M303.217,285.729L303.217,285.741C303.217,286.609 302.512,287.314 301.644,287.314L212,287.314C211.132,287.314 210.427,286.609 210.427,285.741L210.427,285.729C210.427,284.862 211.132,284.157 212,284.157L301.644,284.157C302.512,284.157 303.217,284.862 303.217,285.729Z" style="fill:rgb(124,210,76);stroke:rgb(173,246,196);stroke-width:0.13px;"/>
                <path d="M303.217,320.999L303.217,321.011C303.217,321.879 302.512,322.583 301.644,322.583L212,322.583C211.132,322.583 210.427,321.879 210.427,321.011L210.427,320.999C210.427,320.131 211.132,319.426 212,319.426L301.644,319.426C302.512,319.426 303.217,320.131 303.217,320.999Z" style="fill:rgb(124,210,76);stroke:rgb(173,246,196);stroke-width:0.13px;"/>
                <path d="M303.217,332.659L303.217,332.671C303.217,333.539 302.512,334.244 301.644,334.244L212,334.244C211.132,334.244 210.427,333.539 210.427,332.671L210.427,332.659C210.427,331.791 211.132,331.087 212,331.087L301.644,331.087C302.512,331.087 303.217,331.791 303.217,332.659Z" style="fill:rgb(124,210,76);stroke:rgb(173,246,196);stroke-width:0.13px;"/>
            </g>
            <g style="filter:url(#_Effect3);">
                <path d="M335.574,309.572L335.574,316.151C335.574,329.806 324.487,340.893 310.831,340.893L266.144,340.893L266.144,308.596C266.144,291.31 280.179,277.275 297.466,277.275L303.277,277.275C321.102,277.275 335.574,291.746 335.574,309.572Z" style="fill:rgb(73,128,255);fill-opacity:0.29;"/>
            </g>
            <path d="M308.88,324.922C294.472,329.263 278.437,323.313 270.591,309.705C261.433,293.821 266.876,273.481 282.738,264.31C298.6,255.14 318.914,260.59 328.072,276.474C335.918,290.082 333.047,306.962 322.087,317.286C322.173,317.415 322.255,317.548 322.333,317.683L339.143,346.839C341.25,350.493 339.996,355.174 336.345,357.285C332.693,359.396 328.018,358.143 325.911,354.489L309.101,325.333C309.023,325.197 308.949,325.06 308.88,324.922ZM289.114,275.37C279.348,281.016 275.997,293.54 281.635,303.32C287.274,313.1 299.781,316.455 309.548,310.809C319.315,305.163 322.666,292.639 317.027,282.859C311.388,273.079 298.881,269.723 289.114,275.37Z" style="fill:rgb(1,55,125);"/>
            <path d="M200.855,162.579L200.855,179.597L215.802,171.499C217.146,173.986 217.85,176.769 217.85,179.597C217.85,188.989 210.234,196.614 200.855,196.614C191.475,196.614 183.86,188.989 183.86,179.597C183.86,170.198 191.469,162.579 200.855,162.579Z" style="fill:rgb(1,55,125);"/>
            <path d="M192.191,228.568L192.191,256.248C192.191,257.628 191.071,258.748 189.692,258.748L186.359,258.748C184.98,258.748 183.86,257.628 183.86,256.248L183.86,228.568C183.86,227.188 184.98,226.069 186.359,226.069L189.692,226.069C191.071,226.069 192.191,227.188 192.191,228.568Z" style="fill:rgb(1,55,125);"/>
            <path d="M205.02,242.389L205.02,256.248C205.02,257.628 203.9,258.748 202.521,258.748L199.189,258.748C197.809,258.748 196.689,257.628 196.689,256.248L196.689,242.389C196.689,241.009 197.809,239.889 199.189,239.889L202.521,239.889C203.9,239.889 205.02,241.009 205.02,242.389Z" style="fill:rgb(1,55,125);"/>
            <path d="M217.85,235.34L217.85,256.248C217.85,257.628 216.73,258.748 215.35,258.748L212.018,258.748C210.638,258.748 209.518,257.628 209.518,256.248L209.518,235.34C209.518,233.96 210.638,232.84 212.018,232.84L215.35,232.84C216.73,232.84 217.85,233.96 217.85,235.34Z" style="fill:rgb(1,55,125);"/>
            <ellipse cx="198.482" cy="332.665" rx="3.258" ry="3.262" style="fill:rgb(126,211,72);"/>
            <ellipse cx="198.482" cy="321.005" rx="3.258" ry="3.262" style="fill:rgb(126,211,72);"/>
            <ellipse cx="198.482" cy="309.2" rx="3.258" ry="3.262" style="fill:rgb(126,211,72);"/>
            <ellipse cx="198.482" cy="297.479" rx="3.258" ry="3.262" style="fill:rgb(126,211,72);"/>
            <ellipse cx="198.482" cy="285.735" rx="3.258" ry="3.262" style="fill:rgb(126,211,72);"/>
        </g>
    </g>
    <defs>
        <filter id="_Effect1" filterUnits="userSpaceOnUse" x="-48" y="-48" width="589.953" height="589.953">
            <feGaussianBlur in="SourceGraphic" stdDeviation="16"/>
        </filter>
        <filter id="_Effect2" filterUnits="userSpaceOnUse" x="122.778" y="100.669" width="248.397" height="292.615">
            <feGaussianBlur in="SourceGraphic" stdDeviation="3.76986"/>
        </filter>
        <filter id="_Effect3" filterUnits="userSpaceOnUse" x="191.639" y="202.77" width="218.44" height="212.629">
            <feGaussianBlur in="SourceGraphic" stdDeviation="12.4175"/>
        </filter>
    </defs>
</svg>
