<?xml version="1.0" encoding="UTF-8" standalone="no"?>
<!DOCTYPE svg PUBLIC "-//W3C//DTD SVG 1.1//EN" "http://www.w3.org/Graphics/SVG/1.1/DTD/svg11.dtd">
<svg width="100%" height="100%" viewBox="0 0 494 494" version="1.1" xmlns="http://www.w3.org/2000/svg" xmlns:xlink="http://www.w3.org/1999/xlink" xml:space="preserve" xmlns:serif="http://www.serif.com/" style="fill-rule:evenodd;clip-rule:evenodd;stroke-linejoin:round;stroke-miterlimit:0.73;">
    <g>
        <g>
            <g style="filter:url(#_Effect1);">
                <path d="M435.953,152.488L435.953,341.465C435.953,393.614 393.614,435.953 341.465,435.953L152.488,435.953C100.339,435.953 58,393.614 58,341.465L58,152.488C58,100.339 100.339,58 152.488,58L341.465,58C393.614,58 435.953,100.339 435.953,152.488Z" style="fill:none;stroke:rgb(1,55,125);stroke-opacity:0.2;stroke-width:20px;"/>
            </g>
            <path d="M435.953,152.488L435.953,341.465C435.953,393.614 393.614,435.953 341.465,435.953L152.488,435.953C100.339,435.953 58,393.614 58,341.465L58,152.488C58,100.339 100.339,58 152.488,58L341.465,58C393.614,58 435.953,100.339 435.953,152.488Z" style="fill:white;stroke:white;stroke-width:0.46px;"/>
        </g>
        <g id="vcfo">
            <path d="M287.076,317.761L287.076,332.363C287.076,334.27 285.528,335.818 283.621,335.818L210.332,335.818C208.425,335.818 206.876,334.27 206.876,332.363L206.876,317.761C206.876,315.854 208.425,314.306 210.332,314.306L283.621,314.306C285.528,314.306 287.076,315.854 287.076,317.761Z" style="fill:rgb(1,55,125);"/>
            <path d="M370.208,183.915L370.208,292.855C370.208,307.084 358.656,318.636 344.427,318.636L149.526,318.636C135.297,318.636 123.745,307.084 123.745,292.855L123.745,183.915C123.745,169.687 135.297,158.135 149.526,158.135L344.427,158.135C358.656,158.135 370.208,169.687 370.208,183.915Z" style="fill:rgb(1,54,124);"/>
            <g style="filter:url(#_Effect2);">
                <path d="M370.208,183.915L370.208,292.855C370.208,307.084 358.656,318.636 344.427,318.636L149.526,318.636C135.297,318.636 123.745,307.084 123.745,292.855L123.745,183.915C123.745,169.687 135.297,158.135 149.526,158.135L344.427,158.135C358.656,158.135 370.208,169.687 370.208,183.915Z" style="fill:none;stroke:rgb(1,55,125);stroke-opacity:0.1;stroke-width:14.73px;"/>
            </g>
            <path d="M363.902,187.552L363.902,289.218C363.902,301.985 353.538,312.35 340.771,312.35L153.182,312.35C140.415,312.35 130.05,301.985 130.05,289.218L130.05,187.552C130.05,174.786 140.415,164.421 153.182,164.421L340.771,164.421C353.538,164.421 363.902,174.786 363.902,187.552Z" style="fill:white;"/>
            <path d="M327.754,296.284L327.754,296.361C327.754,297.89 326.513,299.131 324.984,299.131L168.969,299.131C167.44,299.131 166.199,297.89 166.199,296.361L166.199,296.284C166.199,294.755 167.44,293.513 168.969,293.513L324.984,293.513C326.513,293.513 327.754,294.755 327.754,296.284Z" style="fill:rgb(124,210,76);"/>
            <g>
                <path d="M309.322,269.004L309.322,291.452C309.322,292.62 308.374,293.567 307.207,293.567L302.977,293.567C301.81,293.567 300.862,292.62 300.862,291.452L300.862,269.004C300.862,267.837 301.81,266.889 302.977,266.889L307.207,266.889C308.374,266.889 309.322,267.837 309.322,269.004Z" style="fill:rgb(0,47,112);"/>
                <path d="M305.092,287.51C305.992,287.51 306.722,288.241 306.722,289.141C306.722,290.04 305.992,290.771 305.092,290.771C304.192,290.771 303.462,290.04 303.462,289.141C303.462,288.241 304.192,287.51 305.092,287.51ZM305.092,288.325C305.542,288.325 305.907,288.691 305.907,289.141C305.907,289.59 305.542,289.956 305.092,289.956C304.642,289.956 304.277,289.59 304.277,289.141C304.277,288.691 304.642,288.325 305.092,288.325Z" style="fill:white;"/>
                <path d="M306.993,279.504L306.993,279.872C306.993,280.069 306.833,280.228 306.636,280.228L303.548,280.228C303.351,280.228 303.192,280.069 303.192,279.872L303.192,279.504C303.192,279.308 303.351,279.148 303.548,279.148L306.636,279.148C306.833,279.148 306.993,279.308 306.993,279.504Z" style="fill:rgb(126,211,72);"/>
                <path d="M306.993,281.831L306.993,282.199C306.993,282.396 306.833,282.555 306.636,282.555L303.548,282.555C303.351,282.555 303.192,282.396 303.192,282.199L303.192,281.831C303.192,281.635 303.351,281.475 303.548,281.475L306.636,281.475C306.833,281.475 306.993,281.635 306.993,281.831Z" style="fill:rgb(126,211,72);"/>
                <path d="M306.993,284.155L306.993,284.523C306.993,284.72 306.833,284.879 306.636,284.879L303.548,284.879C303.351,284.879 303.192,284.72 303.192,284.523L303.192,284.155C303.192,283.959 303.351,283.799 303.548,283.799L306.636,283.799C306.833,283.799 306.993,283.959 306.993,284.155Z" style="fill:rgb(126,211,72);"/>
            </g>
            <g>
                <path d="M299.68,269.004L299.68,291.452C299.68,292.62 298.733,293.567 297.565,293.567L293.335,293.567C292.168,293.567 291.22,292.62 291.22,291.452L291.22,269.004C291.22,267.837 292.168,266.889 293.335,266.889L297.565,266.889C298.733,266.889 299.68,267.837 299.68,269.004Z" style="fill:rgb(0,47,112);"/>
                <path d="M295.45,287.51C296.35,287.51 297.08,288.241 297.08,289.141C297.08,290.04 296.35,290.771 295.45,290.771C294.55,290.771 293.82,290.04 293.82,289.141C293.82,288.241 294.55,287.51 295.45,287.51ZM295.45,288.325C295.9,288.325 296.265,288.691 296.265,289.141C296.265,289.59 295.9,289.956 295.45,289.956C295,289.956 294.635,289.59 294.635,289.141C294.635,288.691 295,288.325 295.45,288.325Z" style="fill:white;"/>
                <path d="M297.351,279.504L297.351,279.872C297.351,280.069 297.191,280.228 296.995,280.228L293.906,280.228C293.709,280.228 293.55,280.069 293.55,279.872L293.55,279.504C293.55,279.308 293.709,279.148 293.906,279.148L296.995,279.148C297.191,279.148 297.351,279.308 297.351,279.504Z" style="fill:rgb(126,211,72);"/>
                <path d="M297.351,281.831L297.351,282.199C297.351,282.396 297.191,282.555 296.995,282.555L293.906,282.555C293.709,282.555 293.55,282.396 293.55,282.199L293.55,281.831C293.55,281.635 293.709,281.475 293.906,281.475L296.995,281.475C297.191,281.475 297.351,281.635 297.351,281.831Z" style="fill:rgb(126,211,72);"/>
                <path d="M297.351,284.155L297.351,284.523C297.351,284.72 297.191,284.879 296.995,284.879L293.906,284.879C293.709,284.879 293.55,284.72 293.55,284.523L293.55,284.155C293.55,283.959 293.709,283.799 293.906,283.799L296.995,283.799C297.191,283.799 297.351,283.959 297.351,284.155Z" style="fill:rgb(126,211,72);"/>
            </g>
            <g style="filter:url(#_Effect3);">
                <path d="M224.662,184.66L269.291,184.66C299.345,184.66 323.745,209.06 323.745,239.114C323.745,269.167 299.345,293.567 269.291,293.567L224.662,293.567C194.608,293.567 170.208,269.167 170.208,239.114C170.208,209.06 194.608,184.66 224.662,184.66Z" style="fill:rgb(103,193,255);fill-opacity:0.29;"/>
            </g>
            <path d="M280.768,266.889L280.768,293.567L216.252,293.567C214.559,293.567 213.184,292.193 213.184,290.499L213.184,266.889C213.184,252.165 225.139,240.211 239.863,240.211L254.09,240.211C268.814,240.211 280.768,252.165 280.768,266.889Z" style="fill:rgb(1,55,125);"/>
            <circle cx="246.976" cy="227.475" r="14.824" style="fill:rgb(1,55,125);"/>
            <path d="M269.382,272.552L269.382,287.904C269.382,291.03 266.845,293.567 263.719,293.567L230.234,293.567C227.108,293.567 224.571,291.03 224.571,287.904L224.571,272.552C224.571,269.427 227.108,266.889 230.234,266.889L263.719,266.889C266.845,266.889 269.382,269.427 269.382,272.552Z" style="fill:white;"/>
            <circle cx="246.976" cy="280.228" r="4.426" style="fill:rgb(126,211,72);"/>
        </g>
    </g>
    <defs>
        <filter id="_Effect1" filterUnits="userSpaceOnUse" x="-48" y="-48" width="589.953" height="589.953">
            <feGaussianBlur in="SourceGraphic" stdDeviation="16"/>
        </filter>
        <filter id="_Effect2" filterUnits="userSpaceOnUse" x="41.9933" y="76.3829" width="409.966" height="324.005">
            <feGaussianBlur in="SourceGraphic" stdDeviation="12.3979"/>
        </filter>
        <filter id="_Effect3" filterUnits="userSpaceOnUse" x="95.7029" y="110.155" width="302.547" height="257.918">
            <feGaussianBlur in="SourceGraphic" stdDeviation="12.4175"/>
        </filter>
    </defs>
</svg>
