<?xml version="1.0" encoding="UTF-8" standalone="no"?>
<!DOCTYPE svg PUBLIC "-//W3C//DTD SVG 1.1//EN" "http://www.w3.org/Graphics/SVG/1.1/DTD/svg11.dtd">
<svg width="100%" height="100%" viewBox="0 0 399 379" version="1.1" xmlns="http://www.w3.org/2000/svg" xmlns:xlink="http://www.w3.org/1999/xlink" xml:space="preserve" xmlns:serif="http://www.serif.com/" style="fill-rule:evenodd;clip-rule:evenodd;stroke-linejoin:round;stroke-miterlimit:0.73;">
    <g>
        <g>
            <path d="M385.16,94.721L385.16,283.697C385.16,335.846 342.822,378.185 290.672,378.185L101.696,378.185C49.546,378.185 7.208,335.846 7.208,283.697L7.208,94.721C7.208,42.571 49.546,0.232 101.696,0.232L290.672,0.232C342.822,0.232 385.16,42.571 385.16,94.721Z" style="fill:white;stroke:white;stroke-width:0.46px;"/>
        </g>
        <g id="vcfo">
            <path d="M246.582,281.672L246.582,298.991C246.582,301.253 244.746,303.09 242.484,303.09L155.554,303.09C153.292,303.09 151.455,301.253 151.455,298.991L151.455,281.672C151.455,279.41 153.292,277.573 155.554,277.573L242.484,277.573C244.746,277.573 246.582,279.41 246.582,281.672Z" style="fill:rgb(1,55,125);"/>
            <path d="M345.186,122.914L345.186,252.131C345.186,269.008 331.484,282.71 314.607,282.71L83.43,282.71C66.553,282.71 52.851,269.008 52.851,252.131L52.851,122.914C52.851,106.038 66.553,92.336 83.43,92.336L314.607,92.336C331.484,92.336 345.186,106.038 345.186,122.914Z" style="fill:rgb(1,54,124);"/>
            <g style="filter:url(#_Effect1);">
                <path d="M345.186,122.914L345.186,252.131C345.186,269.008 331.484,282.71 314.607,282.71L83.43,282.71C66.553,282.71 52.851,269.008 52.851,252.131L52.851,122.914C52.851,106.038 66.553,92.336 83.43,92.336L314.607,92.336C331.484,92.336 345.186,106.038 345.186,122.914Z" style="fill:none;stroke:rgb(1,55,125);stroke-opacity:0.1;stroke-width:17.47px;"/>
            </g>
            <path d="M337.707,127.229L337.707,247.817C337.707,262.959 325.413,275.253 310.271,275.253L87.767,275.253C72.624,275.253 60.33,262.959 60.33,247.817L60.33,127.229C60.33,112.086 72.624,99.792 87.767,99.792L310.271,99.792C325.413,99.792 337.707,112.086 337.707,127.229Z" style="fill:white;"/>
            <path d="M294.831,256.197L294.831,256.289C294.831,258.103 293.358,259.575 291.545,259.575L106.493,259.575C104.679,259.575 103.207,258.103 103.207,256.289L103.207,256.197C103.207,254.384 104.679,252.911 106.493,252.911L291.545,252.911C293.358,252.911 294.831,254.384 294.831,256.197Z" style="fill:rgb(124,210,76);"/>
            <g>
                <path d="M272.968,223.84L272.968,250.467C272.968,251.851 271.844,252.975 270.46,252.975L265.442,252.975C264.058,252.975 262.933,251.851 262.933,250.467L262.933,223.84C262.933,222.456 264.058,221.332 265.442,221.332L270.46,221.332C271.844,221.332 272.968,222.456 272.968,223.84Z" style="fill:rgb(0,47,112);"/>
                <path d="M267.951,245.791C269.018,245.791 269.885,246.657 269.885,247.725C269.885,248.792 269.018,249.658 267.951,249.658C266.884,249.658 266.017,248.792 266.017,247.725C266.017,246.657 266.884,245.791 267.951,245.791ZM267.951,246.758C268.485,246.758 268.918,247.191 268.918,247.725C268.918,248.258 268.485,248.691 267.951,248.691C267.417,248.691 266.984,248.258 266.984,247.725C266.984,247.191 267.417,246.758 267.951,246.758Z" style="fill:white;"/>
                <path d="M270.205,236.295L270.205,236.731C270.205,236.964 270.016,237.154 269.783,237.154L266.119,237.154C265.886,237.154 265.697,236.964 265.697,236.731L265.697,236.295C265.697,236.062 265.886,235.872 266.119,235.872L269.783,235.872C270.016,235.872 270.205,236.062 270.205,236.295Z" style="fill:rgb(126,211,72);"/>
                <path d="M270.205,239.055L270.205,239.491C270.205,239.725 270.016,239.914 269.783,239.914L266.119,239.914C265.886,239.914 265.697,239.725 265.697,239.491L265.697,239.055C265.697,238.822 265.886,238.633 266.119,238.633L269.783,238.633C270.016,238.633 270.205,238.822 270.205,239.055Z" style="fill:rgb(126,211,72);"/>
                <path d="M270.205,241.812L270.205,242.248C270.205,242.481 270.016,242.67 269.783,242.67L266.119,242.67C265.886,242.67 265.697,242.481 265.697,242.248L265.697,241.812C265.697,241.578 265.886,241.389 266.119,241.389L269.783,241.389C270.016,241.389 270.205,241.578 270.205,241.812Z" style="fill:rgb(126,211,72);"/>
            </g>
            <g>
                <path d="M261.532,223.84L261.532,250.467C261.532,251.851 260.408,252.975 259.023,252.975L254.006,252.975C252.621,252.975 251.497,251.851 251.497,250.467L251.497,223.84C251.497,222.456 252.621,221.332 254.006,221.332L259.023,221.332C260.408,221.332 261.532,222.456 261.532,223.84Z" style="fill:rgb(0,47,112);"/>
                <path d="M256.514,245.791C257.582,245.791 258.448,246.657 258.448,247.725C258.448,248.792 257.582,249.658 256.514,249.658C255.447,249.658 254.581,248.792 254.581,247.725C254.581,246.657 255.447,245.791 256.514,245.791ZM256.514,246.758C257.048,246.758 257.481,247.191 257.481,247.725C257.481,248.258 257.048,248.691 256.514,248.691C255.981,248.691 255.548,248.258 255.548,247.725C255.548,247.191 255.981,246.758 256.514,246.758Z" style="fill:white;"/>
                <path d="M258.769,236.295L258.769,236.731C258.769,236.964 258.579,237.154 258.346,237.154L254.683,237.154C254.45,237.154 254.26,236.964 254.26,236.731L254.26,236.295C254.26,236.062 254.45,235.872 254.683,235.872L258.346,235.872C258.579,235.872 258.769,236.062 258.769,236.295Z" style="fill:rgb(126,211,72);"/>
                <path d="M258.769,239.055L258.769,239.491C258.769,239.725 258.579,239.914 258.346,239.914L254.683,239.914C254.45,239.914 254.26,239.725 254.26,239.491L254.26,239.055C254.26,238.822 254.45,238.633 254.683,238.633L258.346,238.633C258.579,238.633 258.769,238.822 258.769,239.055Z" style="fill:rgb(126,211,72);"/>
                <path d="M258.769,241.812L258.769,242.248C258.769,242.481 258.579,242.67 258.346,242.67L254.683,242.67C254.45,242.67 254.26,242.481 254.26,242.248L254.26,241.812C254.26,241.578 254.45,241.389 254.683,241.389L258.346,241.389C258.579,241.389 258.769,241.578 258.769,241.812Z" style="fill:rgb(126,211,72);"/>
            </g>
            <g style="filter:url(#_Effect2);">
                <path d="M172.551,123.798L225.487,123.798C261.134,123.798 290.075,152.739 290.075,188.387C290.075,224.034 261.134,252.975 225.487,252.975L172.551,252.975C136.903,252.975 107.962,224.034 107.962,188.387C107.962,152.739 136.903,123.798 172.551,123.798Z" style="fill:rgb(103,193,255);fill-opacity:0.29;"/>
            </g>
            <path d="M239.1,221.332L239.1,252.975L162.576,252.975C160.568,252.975 158.937,251.345 158.937,249.336L158.937,221.332C158.937,203.867 173.116,189.688 190.581,189.688L207.456,189.688C224.921,189.688 239.1,203.867 239.1,221.332Z" style="fill:rgb(1,55,125);"/>
            <circle cx="199.019" cy="174.582" r="17.583" style="fill:rgb(1,55,125);"/>
            <path d="M225.595,228.049L225.595,246.258C225.595,249.965 222.585,252.975 218.877,252.975L179.16,252.975C175.453,252.975 172.443,249.965 172.443,246.258L172.443,228.049C172.443,224.342 175.453,221.332 179.16,221.332L218.877,221.332C222.585,221.332 225.595,224.342 225.595,228.049Z" style="fill:white;"/>
            <circle cx="199.019" cy="237.154" r="5.249" style="fill:rgb(126,211,72);"/>
        </g>
    </g>
    <defs>
        <filter id="_Effect1" filterUnits="userSpaceOnUse" x="-44.1163" y="-4.63197" width="486.27" height="384.309">
            <feGaussianBlur in="SourceGraphic" stdDeviation="14.7054"/>
        </filter>
        <filter id="_Effect2" filterUnits="userSpaceOnUse" x="19.5898" y="35.4256" width="358.858" height="305.922">
            <feGaussianBlur in="SourceGraphic" stdDeviation="14.7287"/>
        </filter>
    </defs>
</svg>
