<?xml version="1.0" encoding="UTF-8" standalone="no"?>
<!DOCTYPE svg PUBLIC "-//W3C//DTD SVG 1.1//EN" "http://www.w3.org/Graphics/SVG/1.1/DTD/svg11.dtd">
<svg width="100%" height="100%" viewBox="0 0 524 537" version="1.1" xmlns="http://www.w3.org/2000/svg" xmlns:xlink="http://www.w3.org/1999/xlink" xml:space="preserve" xmlns:serif="http://www.serif.com/" style="fill-rule:evenodd;clip-rule:evenodd;stroke-linejoin:round;stroke-miterlimit:0.73;">
    <g>
        <g>
            <g style="filter:url(#_Effect1);">
                <path d="M435.953,159.933L435.953,348.91C435.953,401.059 393.614,443.398 341.465,443.398L152.488,443.398C100.339,443.398 58,401.059 58,348.91L58,159.933C58,107.784 100.339,65.445 152.488,65.445L341.465,65.445C393.614,65.445 435.953,107.784 435.953,159.933Z" style="fill:none;stroke:rgb(1,55,125);stroke-opacity:0.2;stroke-width:20px;"/>
            </g>
            <path d="M435.953,159.933L435.953,348.91C435.953,401.059 393.614,443.398 341.465,443.398L152.488,443.398C100.339,443.398 58,401.059 58,348.91L58,159.933C58,107.784 100.339,65.445 152.488,65.445L341.465,65.445C393.614,65.445 435.953,107.784 435.953,159.933Z" style="fill:white;stroke:white;stroke-width:0.46px;"/>
        </g>
        <g>
            <g>
                <g style="filter:url(#_Effect2);">
                    <path d="M356.985,210.443L356.985,325.973C356.985,350.438 337.123,370.301 312.657,370.301L224.001,370.301C199.536,370.301 179.673,350.438 179.673,325.973L179.673,210.443C179.673,185.978 199.536,166.115 224.001,166.115L312.657,166.115C337.123,166.115 356.985,185.978 356.985,210.443Z" style="fill:rgb(0,47,112);fill-opacity:0.15;"/>
                </g>
                <path d="M356.985,210.443L356.985,325.973C356.985,350.438 337.123,370.301 312.657,370.301L224.001,370.301C199.536,370.301 179.673,350.438 179.673,325.973L179.673,210.443C179.673,185.978 199.536,166.115 224.001,166.115L312.657,166.115C337.123,166.115 356.985,185.978 356.985,210.443Z" style="fill:rgb(0,47,112);"/>
                <rect x="219.751" y="257.586" width="138.082" height="6.844" style="fill:rgb(126,211,72);"/>
                <rect x="218.903" y="225.712" width="138.082" height="21.26" style="fill:rgb(126,211,72);"/>
            </g>
            <g style="filter:url(#_Effect3);">
                <path d="M331.324,197.32L331.324,274.072C331.324,306.512 304.986,332.85 272.545,332.85L194.898,332.85C162.457,332.85 136.119,306.512 136.119,274.072L136.119,197.32C136.119,164.88 162.457,138.542 194.898,138.542L272.545,138.542C304.986,138.542 331.324,164.88 331.324,197.32Z" style="fill:rgb(1,54,124);fill-opacity:0.15;"/>
            </g>
            <path d="M331.324,197.32L331.324,274.072C331.324,306.512 304.986,332.85 272.545,332.85L194.898,332.85C162.457,332.85 136.119,306.512 136.119,274.072L136.119,197.32C136.119,164.88 162.457,138.542 194.898,138.542L272.545,138.542C304.986,138.542 331.324,164.88 331.324,197.32Z" style="fill:white;"/>
            <g style="filter:url(#_Effect4);">
                <path d="M319.102,211.36L319.667,211.36C326.212,211.36 331.526,216.674 331.526,223.219L331.526,326.504C331.526,333.049 326.212,338.363 319.667,338.363L230.696,338.363C220.045,338.363 211.398,329.715 211.398,319.064C211.398,259.621 259.659,211.36 319.102,211.36Z" style="fill:rgb(103,193,255);fill-opacity:0.52;"/>
            </g>
            <g id="XMLID_12_">
                <g>
                    <path d="M295.749,239.061C295.334,238.606 294.747,238.345 294.131,238.345L289.819,238.345C289.819,238.345 274.896,209.952 274.124,208.479C273.296,206.9 272.044,205.517 270.17,205.517C261.053,205.517 252.545,203.572 246.214,200.039C243.055,198.277 240.673,196.215 239.217,194.048L239.217,187.785C239.217,184.75 236.757,182.289 233.721,182.289C230.686,182.289 228.225,184.75 228.225,187.785L228.225,194.048C226.77,196.215 224.388,198.277 221.229,200.039C214.897,203.572 206.389,205.517 197.272,205.517C195.399,205.517 194.27,206.666 193.318,208.479C191.093,212.718 177.623,238.345 177.623,238.345L173.312,238.345C172.696,238.345 172.108,238.604 171.693,239.06C171.278,239.515 171.075,240.124 171.131,240.738C172.339,253.847 183.366,264.113 196.79,264.113C210.215,264.113 221.242,253.847 222.45,240.738C222.506,240.125 222.301,239.516 221.887,239.061C221.472,238.606 220.885,238.345 220.269,238.345L215.957,238.345L202.935,213.535C213.081,212.721 221.937,209.745 228.226,205.373L228.226,275.363L203.315,275.363C199.521,275.363 196.445,278.439 196.445,282.233C196.445,286.027 199.521,289.103 203.315,289.103L263.071,289.103C266.865,289.103 269.941,286.027 269.941,282.233C269.941,278.439 266.865,275.363 263.071,275.363L239.218,275.363L239.218,205.373C245.506,209.745 254.362,212.722 264.508,213.535L251.486,238.345L247.174,238.345C246.558,238.345 245.97,238.604 245.555,239.06C245.14,239.515 244.937,240.124 244.994,240.738C246.201,253.847 257.228,264.113 270.653,264.113C284.077,264.113 295.104,253.847 296.312,240.738C296.368,240.125 296.163,239.517 295.749,239.061ZM206.646,238.345L186.934,238.345L196.79,219.567L206.646,238.345ZM260.796,238.345L270.652,219.567L280.509,238.345L260.796,238.345Z" style="fill:rgb(1,55,125);fill-rule:nonzero;"/>
                </g>
            </g>
        </g>
    </g>
    <defs>
        <filter id="_Effect1" filterUnits="userSpaceOnUse" x="-48" y="-40.5548" width="589.953" height="589.953">
            <feGaussianBlur in="SourceGraphic" stdDeviation="16"/>
        </filter>
        <filter id="_Effect2" filterUnits="userSpaceOnUse" x="-152.557" y="-166.115" width="841.773" height="868.647">
            <feGaussianBlur in="SourceGraphic" stdDeviation="55.3717"/>
        </filter>
        <filter id="_Effect3" filterUnits="userSpaceOnUse" x="81.8367" y="84.2594" width="303.77" height="302.873">
            <feGaussianBlur in="SourceGraphic" stdDeviation="9.04712"/>
        </filter>
        <filter id="_Effect4" filterUnits="userSpaceOnUse" x="136.897" y="136.859" width="269.129" height="276.004">
            <feGaussianBlur in="SourceGraphic" stdDeviation="12.4168"/>
        </filter>
    </defs>
</svg>
