<?xml version="1.0" encoding="UTF-8" standalone="no"?>
<!DOCTYPE svg PUBLIC "-//W3C//DTD SVG 1.1//EN" "http://www.w3.org/Graphics/SVG/1.1/DTD/svg11.dtd">
<svg width="100%" height="100%" viewBox="0 0 379 379" version="1.1" xmlns="http://www.w3.org/2000/svg" xmlns:xlink="http://www.w3.org/1999/xlink" xml:space="preserve" xmlns:serif="http://www.serif.com/" style="fill-rule:evenodd;clip-rule:evenodd;stroke-linejoin:round;stroke-miterlimit:0.73;">
    <g>
        <g>
            <g>
                <path d="M378.185,94.721L378.185,283.697C378.185,335.846 335.846,378.185 283.697,378.185L94.721,378.185C42.571,378.185 0.232,335.846 0.232,283.697L0.232,94.721C0.232,42.571 42.571,0.232 94.721,0.232L283.697,0.232C335.846,0.232 378.185,42.571 378.185,94.721Z" style="fill:white;stroke:white;stroke-width:0.46px;"/>
            </g>
        </g>
        <g id="audit">
            <g style="filter:url(#_Effect1);">
                <path d="M284.254,102.255L284.254,276.163C284.254,293.014 270.572,306.696 253.72,306.696L124.697,306.696C107.846,306.696 94.164,293.014 94.164,276.163L94.164,102.255C94.164,85.403 107.846,71.722 124.697,71.722L253.72,71.722C270.572,71.722 284.254,85.403 284.254,102.255Z" style="fill:none;stroke:rgb(1,55,125);stroke-opacity:0.11;stroke-width:16.13px;"/>
            </g>
            <path d="M284.254,102.255L284.254,276.163C284.254,293.014 270.572,306.696 253.72,306.696L124.697,306.696C107.846,306.696 94.164,293.014 94.164,276.163L94.164,102.255C94.164,85.403 107.846,71.722 124.697,71.722L253.72,71.722C270.572,71.722 284.254,85.403 284.254,102.255Z" style="fill:white;stroke:rgb(173,246,196);stroke-width:0.14px;"/>
            <g>
                <path d="M247.555,108.943L247.555,108.955C247.555,109.836 246.84,110.551 245.959,110.551L189.443,110.551C188.562,110.551 187.847,109.836 187.847,108.955L187.847,108.943C187.847,108.062 188.562,107.347 189.443,107.347L245.959,107.347C246.84,107.347 247.555,108.062 247.555,108.943Z" style="fill:rgb(124,210,76);stroke:rgb(173,246,196);stroke-width:0.14px;"/>
                <path d="M247.555,120.807L247.555,120.819C247.555,121.7 246.84,122.416 245.959,122.416L189.443,122.416C188.562,122.416 187.847,121.7 187.847,120.819L187.847,120.807C187.847,119.926 188.562,119.211 189.443,119.211L245.959,119.211C246.84,119.211 247.555,119.926 247.555,120.807Z" style="fill:rgb(124,210,76);stroke:rgb(173,246,196);stroke-width:0.14px;"/>
                <path d="M247.555,132.644L247.555,132.656C247.555,133.537 246.84,134.252 245.959,134.252L189.443,134.252C188.562,134.252 187.847,133.537 187.847,132.656L187.847,132.644C187.847,131.763 188.562,131.047 189.443,131.047L245.959,131.047C246.84,131.047 247.555,131.763 247.555,132.644Z" style="fill:rgb(124,210,76);stroke:rgb(173,246,196);stroke-width:0.14px;"/>
            </g>
            <g>
                <path d="M246.297,173.117L246.297,173.129C246.297,174.01 245.582,174.725 244.701,174.725L188.185,174.725C187.304,174.725 186.589,174.01 186.589,173.129L186.589,173.117C186.589,172.236 187.304,171.521 188.185,171.521L244.701,171.521C245.582,171.521 246.297,172.236 246.297,173.117Z" style="fill:rgb(124,210,76);stroke:rgb(173,246,196);stroke-width:0.14px;"/>
                <path d="M246.297,184.981L246.297,184.993C246.297,185.874 245.582,186.59 244.701,186.59L188.185,186.59C187.304,186.59 186.589,185.874 186.589,184.993L186.589,184.981C186.589,184.1 187.304,183.385 188.185,183.385L244.701,183.385C245.582,183.385 246.297,184.1 246.297,184.981Z" style="fill:rgb(124,210,76);stroke:rgb(173,246,196);stroke-width:0.14px;"/>
                <path d="M246.297,196.817L246.297,196.829C246.297,197.71 245.582,198.426 244.701,198.426L188.185,198.426C187.304,198.426 186.589,197.71 186.589,196.829L186.589,196.817C186.589,195.936 187.304,195.221 188.185,195.221L244.701,195.221C245.582,195.221 246.297,195.936 246.297,196.817Z" style="fill:rgb(124,210,76);stroke:rgb(173,246,196);stroke-width:0.14px;"/>
            </g>
            <g>
                <path d="M246.297,252.483L246.297,252.495C246.297,253.376 245.582,254.091 244.701,254.091L153.705,254.091C152.824,254.091 152.109,253.376 152.109,252.495L152.109,252.483C152.109,251.602 152.824,250.887 153.705,250.887L244.701,250.887C245.582,250.887 246.297,251.602 246.297,252.483Z" style="fill:rgb(124,210,76);stroke:rgb(173,246,196);stroke-width:0.14px;"/>
                <path d="M246.297,240.466L246.297,240.478C246.297,241.359 245.582,242.075 244.701,242.075L153.705,242.075C152.824,242.075 152.109,241.359 152.109,240.478L152.109,240.466C152.109,239.585 152.824,238.87 153.705,238.87L244.701,238.87C245.582,238.87 246.297,239.585 246.297,240.466Z" style="fill:rgb(124,210,76);stroke:rgb(173,246,196);stroke-width:0.14px;"/>
                <path d="M246.297,228.546L246.297,228.558C246.297,229.439 245.582,230.154 244.701,230.154L153.705,230.154C152.824,230.154 152.109,229.439 152.109,228.558L152.109,228.546C152.109,227.665 152.824,226.95 153.705,226.95L244.701,226.95C245.582,226.95 246.297,227.665 246.297,228.546Z" style="fill:rgb(124,210,76);stroke:rgb(173,246,196);stroke-width:0.14px;"/>
                <path d="M246.297,264.347L246.297,264.359C246.297,265.24 245.582,265.956 244.701,265.956L153.705,265.956C152.824,265.956 152.109,265.24 152.109,264.359L152.109,264.347C152.109,263.466 152.824,262.751 153.705,262.751L244.701,262.751C245.582,262.751 246.297,263.466 246.297,264.347Z" style="fill:rgb(124,210,76);stroke:rgb(173,246,196);stroke-width:0.14px;"/>
                <path d="M246.297,276.183L246.297,276.196C246.297,277.077 245.582,277.792 244.701,277.792L153.705,277.792C152.824,277.792 152.109,277.077 152.109,276.196L152.109,276.183C152.109,275.302 152.824,274.587 153.705,274.587L244.701,274.587C245.582,274.587 246.297,275.302 246.297,276.183Z" style="fill:rgb(124,210,76);stroke:rgb(173,246,196);stroke-width:0.14px;"/>
            </g>
            <g style="filter:url(#_Effect2);">
                <path d="M279.142,252.748L279.142,259.426C279.142,273.287 267.888,284.541 254.026,284.541L208.665,284.541L208.665,251.758C208.665,234.21 222.912,219.964 240.459,219.964L246.358,219.964C264.452,219.964 279.142,234.654 279.142,252.748Z" style="fill:rgb(73,128,255);fill-opacity:0.29;"/>
            </g>
            <path d="M252.045,268.329C237.42,272.736 221.144,266.697 213.179,252.883C203.883,236.76 209.408,216.113 225.509,206.804C241.611,197.495 262.231,203.028 271.527,219.151C279.491,232.964 276.577,250.099 265.452,260.578C265.539,260.709 265.622,260.844 265.701,260.982L282.765,290.577C284.904,294.286 283.631,299.037 279.924,301.18C276.218,303.323 271.472,302.051 269.334,298.342L252.27,268.747C252.19,268.609 252.116,268.47 252.045,268.329ZM231.982,218.03C222.068,223.762 218.666,236.475 224.39,246.402C230.114,256.329 242.81,259.735 252.724,254.004C262.638,248.272 266.039,235.56 260.316,225.632C254.592,215.705 241.896,212.299 231.982,218.03Z" style="fill:rgb(1,55,125);"/>
            <path d="M142.392,103.539L142.392,120.813L157.565,112.594C158.929,115.118 159.643,117.943 159.643,120.813C159.643,130.347 151.913,138.087 142.392,138.087C132.871,138.087 125.141,130.347 125.141,120.813C125.141,111.273 132.865,103.539 142.392,103.539Z" style="fill:rgb(1,55,125);"/>
            <path d="M133.598,170.523L133.598,198.621C133.598,200.021 132.461,201.158 131.061,201.158L127.678,201.158C126.278,201.158 125.141,200.021 125.141,198.621L125.141,170.523C125.141,169.123 126.278,167.986 127.678,167.986L131.061,167.986C132.461,167.986 133.598,169.123 133.598,170.523Z" style="fill:rgb(1,55,125);"/>
            <path d="M146.62,184.552L146.62,198.621C146.62,200.021 145.484,201.158 144.083,201.158L140.701,201.158C139.3,201.158 138.164,200.021 138.164,198.621L138.164,184.552C138.164,183.152 139.3,182.015 140.701,182.015L144.083,182.015C145.484,182.015 146.62,183.152 146.62,184.552Z" style="fill:rgb(1,55,125);"/>
            <path d="M159.643,177.397L159.643,198.621C159.643,200.021 158.506,201.158 157.106,201.158L153.723,201.158C152.323,201.158 151.186,200.021 151.186,198.621L151.186,177.397C151.186,175.996 152.323,174.86 153.723,174.86L157.106,174.86C158.506,174.86 159.643,175.996 159.643,177.397Z" style="fill:rgb(1,55,125);"/>
            <ellipse cx="139.984" cy="276.19" rx="3.307" ry="3.311" style="fill:rgb(126,211,72);"/>
            <ellipse cx="139.984" cy="264.353" rx="3.307" ry="3.311" style="fill:rgb(126,211,72);"/>
            <ellipse cx="139.984" cy="252.371" rx="3.307" ry="3.311" style="fill:rgb(126,211,72);"/>
            <ellipse cx="139.984" cy="240.472" rx="3.307" ry="3.311" style="fill:rgb(126,211,72);"/>
            <ellipse cx="139.984" cy="228.552" rx="3.307" ry="3.311" style="fill:rgb(126,211,72);"/>
        </g>
    </g>
    <defs>
        <filter id="_Effect1" filterUnits="userSpaceOnUse" x="63.138" y="40.6957" width="252.142" height="297.026">
            <feGaussianBlur in="SourceGraphic" stdDeviation="3.82669"/>
        </filter>
        <filter id="_Effect2" filterUnits="userSpaceOnUse" x="133.037" y="144.336" width="221.733" height="215.834">
            <feGaussianBlur in="SourceGraphic" stdDeviation="12.6047"/>
        </filter>
    </defs>
</svg>
