<?xml version="1.0" encoding="UTF-8" standalone="no"?>
<!DOCTYPE svg PUBLIC "-//W3C//DTD SVG 1.1//EN" "http://www.w3.org/Graphics/SVG/1.1/DTD/svg11.dtd">
<svg width="100%" height="100%" viewBox="0 0 1250 1000" version="1.1" xmlns="http://www.w3.org/2000/svg" xmlns:xlink="http://www.w3.org/1999/xlink" xml:space="preserve" xmlns:serif="http://www.serif.com/" style="fill-rule:evenodd;clip-rule:evenodd;stroke-linejoin:round;stroke-miterlimit:2;">
    <g id="system">
        <g transform="matrix(1.285912,0,0,1.285912,-272.657081,85.119018)">
            <path d="M996.404,202.031L996.404,392.967C996.404,445.658 953.626,488.436 900.936,488.436L495.205,488.436C442.514,488.436 399.737,445.658 399.737,392.967L399.737,202.031C399.737,149.34 442.514,106.562 495.205,106.562L900.936,106.562C953.626,106.562 996.404,149.34 996.404,202.031Z" style="fill:rgb(126,211,72);"/>
        </g>
        <g transform="matrix(1.225374,0,0,1.201618,-230.397354,110.151142)">
            <path d="M996.404,202.031L996.404,392.967C996.404,445.658 954.456,488.436 902.787,488.436L493.354,488.436C441.685,488.436 399.737,445.658 399.737,392.967L399.737,202.031C399.737,149.34 441.685,106.562 493.354,106.562L902.787,106.562C954.456,106.562 996.404,149.34 996.404,202.031Z" style="fill:rgb(1,55,125);"/>
        </g>
        <g transform="matrix(1.285912,0,0,0.130348,-272.657081,714.184815)">
            <path d="M996.404,297.499C996.404,402.88 987.732,488.436 977.05,488.436L419.091,488.436C408.409,488.436 399.737,402.88 399.737,297.499C399.737,192.118 408.409,106.562 419.091,106.562L977.05,106.562C987.732,106.562 996.404,192.118 996.404,297.499Z" style="fill:rgb(1,55,125);"/>
        </g>
        <g transform="matrix(1.350039,0,0,1.285912,-380.807977,-19.56705)">
            <path d="M830.833,314.428L830.833,443.39C830.833,468.252 811.608,488.436 787.927,488.436L702.115,488.436C678.435,488.436 659.209,468.252 659.209,443.39L659.209,314.428C659.209,289.566 678.435,269.382 702.115,269.382L787.927,269.382C811.608,269.382 830.833,289.566 830.833,314.428Z" style="fill:rgb(126,211,72);"/>
        </g>
        <g transform="matrix(0.943738,0,0,0.10592,-78.104756,350.733456)">
            <path d="M830.833,324.145L830.833,433.672C830.833,463.897 828.079,488.436 824.687,488.436L665.355,488.436C661.963,488.436 659.209,463.897 659.209,433.672L659.209,324.145C659.209,293.921 661.963,269.382 665.355,269.382L824.687,269.382C828.079,269.382 830.833,293.921 830.833,324.145Z" style="fill:white;"/>
        </g>
        <g transform="matrix(0.943738,0,0,0.10592,-78.104756,401.939554)">
            <path d="M830.833,324.145L830.833,433.672C830.833,463.897 828.079,488.436 824.687,488.436L665.355,488.436C661.963,488.436 659.209,463.897 659.209,433.672L659.209,324.145C659.209,293.921 661.963,269.382 665.355,269.382L824.687,269.382C828.079,269.382 830.833,293.921 830.833,324.145Z" style="fill:white;"/>
        </g>
        <g transform="matrix(0.943738,0,0,0.10592,-78.104756,453.145651)">
            <path d="M830.833,324.145L830.833,433.672C830.833,463.897 828.079,488.436 824.687,488.436L665.355,488.436C661.963,488.436 659.209,463.897 659.209,433.672L659.209,324.145C659.209,293.921 661.963,269.382 665.355,269.382L824.687,269.382C828.079,269.382 830.833,293.921 830.833,324.145Z" style="fill:white;"/>
        </g>
        <g transform="matrix(0.943738,0,0,0.10592,-78.104756,504.351749)">
            <path d="M830.833,324.145L830.833,433.672C830.833,463.897 828.079,488.436 824.687,488.436L665.355,488.436C661.963,488.436 659.209,463.897 659.209,433.672L659.209,324.145C659.209,293.921 661.963,269.382 665.355,269.382L824.687,269.382C828.079,269.382 830.833,293.921 830.833,324.145Z" style="fill:white;"/>
        </g>
        <g transform="matrix(0.645497,0,0,0.703616,174.448833,160.215668)">
            <ellipse cx="697.991" cy="147.899" rx="20.163" ry="18.498" style="fill:rgb(235,235,235);"/>
        </g>
    </g>
</svg>
