<?xml version="1.0" encoding="UTF-8" standalone="no"?>
<!DOCTYPE svg PUBLIC "-//W3C//DTD SVG 1.1//EN" "http://www.w3.org/Graphics/SVG/1.1/DTD/svg11.dtd">
<svg width="100%" height="100%" viewBox="0 0 1250 1000" version="1.1" xmlns="http://www.w3.org/2000/svg" xmlns:xlink="http://www.w3.org/1999/xlink" xml:space="preserve" xmlns:serif="http://www.serif.com/" style="fill-rule:evenodd;clip-rule:evenodd;stroke-linejoin:round;stroke-miterlimit:2;">
    <g id="accountants">
        <g transform="matrix(1.442596,0,0,1.816127,-243.898813,-278.824599)">
            <path d="M779.655,491.335L779.655,543.961C779.655,573.007 749.968,596.588 713.402,596.588L508.325,596.588C471.76,596.588 442.073,573.007 442.073,543.961L442.073,491.335C442.073,433.245 501.446,386.083 574.578,386.083L647.149,386.083C720.281,386.083 779.655,433.245 779.655,491.335Z" style="fill:rgb(1,55,125);"/>
        </g>
        <g transform="matrix(1.490467,0,0,1.413643,-450.046937,-451.98472)">
            <ellipse cx="729.555" cy="657.507" rx="18.114" ry="17.686" style="fill:white;"/>
        </g>
        <g transform="matrix(1.690001,0,0,2.052808,-624.232375,-886.131133)">
            <path d="M743.147,671.54C743.652,670.378 744.989,669.603 746.487,669.603C747.985,669.603 749.322,670.378 749.827,671.54C755.466,684.507 766.487,709.851 768.789,715.147C769.066,715.783 769.066,716.479 768.789,717.115C766.487,722.411 755.466,747.755 749.827,760.722C749.322,761.884 747.985,762.659 746.487,762.659C744.989,762.659 743.652,761.884 743.147,760.722C737.508,747.755 726.487,722.411 724.184,717.115C723.908,716.479 723.908,715.783 724.184,715.147C726.487,709.851 737.508,684.507 743.147,671.54Z" style="fill:white;"/>
        </g>
        <g transform="matrix(1.925419,0,0,1.862463,-570.609964,-171.726525)">
            <path d="M627.01,174.102C661.939,174.102 684.248,193.716 684.248,228.656C684.248,263.597 661.939,304.427 627.01,304.427C592.081,304.427 570.482,263.597 570.482,228.656C570.482,193.716 592.081,174.102 627.01,174.102Z" style="fill:rgb(1,55,125);"/>
        </g>
        <g transform="matrix(2.195032,0,0,2.195032,-915.373233,-769.948497)">
            <circle cx="832.593" cy="676.827" r="60.026" style="fill:rgb(126,211,72);"/>
            <g transform="matrix(0.641453,0,0,0.60886,290.072467,251.870981)">
                <g transform="matrix(116.728517,0,0,116.728517,885.210223,736.853145)">
                </g>
                <text x="807.353px" y="736.853px" style="font-family:'Arial-Black', 'Arial Black', sans-serif;font-weight:900;font-size:116.729px;fill:white;">$</text>
            </g>
        </g>
        <g transform="matrix(3.123544,0,0,3.123544,-698.943317,-29.597437)">
            <g transform="matrix(0.730228,0,0,0.750969,47.276352,-373.425148)">
                <path d="M439.334,689.845L439.334,782.875C439.334,797.272 427.313,808.961 412.507,808.961L358.853,808.961C344.047,808.961 332.027,797.272 332.027,782.875L332.027,689.845C332.027,675.447 344.047,663.759 358.853,663.759L412.507,663.759C427.313,663.759 439.334,675.447 439.334,689.845Z" style="fill:rgb(126,211,72);"/>
            </g>
            <g transform="matrix(1,0,0,1,-5.359796,-3.251201)">
                <path d="M364.413,146.584L364.413,161.417C364.413,165.51 361.089,168.834 356.996,168.834L311.545,168.834C307.452,168.834 304.129,165.51 304.129,161.417L304.129,146.584C304.129,142.49 307.452,139.167 311.545,139.167L356.996,139.167C361.089,139.167 364.413,142.49 364.413,146.584Z" style="fill:white;"/>
            </g>
            <g transform="matrix(1,0,0,1,4.316142,-0.730342)">
                <g transform="matrix(0.96134,0,0,0.972155,11.55044,1.034186)">
                    <ellipse cx="305.01" cy="185.73" rx="6.241" ry="6.172" style="fill:white;"/>
                </g>
                <g transform="matrix(0.96134,0,0,0.972155,31.376392,1.034186)">
                    <ellipse cx="305.01" cy="185.73" rx="6.241" ry="6.172" style="fill:white;"/>
                </g>
                <g transform="matrix(0.96134,0,0,0.972155,51.202343,1.034186)">
                    <ellipse cx="305.01" cy="185.73" rx="6.241" ry="6.172" style="fill:white;"/>
                </g>
            </g>
            <g transform="matrix(1,0,0,1,4.316142,17.25617)">
                <g transform="matrix(0.96134,0,0,0.972155,11.55044,1.034186)">
                    <ellipse cx="305.01" cy="185.73" rx="6.241" ry="6.172" style="fill:white;"/>
                </g>
                <g transform="matrix(0.96134,0,0,0.972155,31.376392,1.034186)">
                    <ellipse cx="305.01" cy="185.73" rx="6.241" ry="6.172" style="fill:white;"/>
                </g>
                <g transform="matrix(0.96134,0,0,0.972155,51.202343,1.034186)">
                    <ellipse cx="305.01" cy="185.73" rx="6.241" ry="6.172" style="fill:white;"/>
                </g>
            </g>
            <g transform="matrix(1,0,0,1,4.316142,35.242683)">
                <g transform="matrix(0.96134,0,0,0.972155,11.55044,1.034186)">
                    <ellipse cx="305.01" cy="185.73" rx="6.241" ry="6.172" style="fill:white;"/>
                </g>
                <g transform="matrix(0.96134,0,0,0.972155,31.376392,1.034186)">
                    <ellipse cx="305.01" cy="185.73" rx="6.241" ry="6.172" style="fill:white;"/>
                </g>
                <g transform="matrix(0.96134,0,0,0.972155,51.202343,1.034186)">
                    <ellipse cx="305.01" cy="185.73" rx="6.241" ry="6.172" style="fill:white;"/>
                </g>
            </g>
        </g>
    </g>
</svg>
