<?xml version="1.0" encoding="UTF-8" standalone="no"?>
<!DOCTYPE svg PUBLIC "-//W3C//DTD SVG 1.1//EN" "http://www.w3.org/Graphics/SVG/1.1/DTD/svg11.dtd">
<svg width="100%" height="100%" viewBox="0 0 1250 1000" version="1.1" xmlns="http://www.w3.org/2000/svg" xmlns:xlink="http://www.w3.org/1999/xlink" xml:space="preserve" xmlns:serif="http://www.serif.com/" style="fill-rule:evenodd;clip-rule:evenodd;stroke-linejoin:round;stroke-miterlimit:2;">
    <g id="team" transform="matrix(1.23181,0,0,1.23181,-144.881044,-65.270414)">
        <g id="accountants">
            <g transform="matrix(0.840154,0,0,0.840154,89.544279,27.068878)">
                <g transform="matrix(1.442596,0,0,1.816127,-243.898813,-278.824599)">
                    <path d="M779.655,491.335L779.655,543.961C779.655,573.007 749.968,596.588 713.402,596.588L508.325,596.588C471.76,596.588 442.073,573.007 442.073,543.961L442.073,491.335C442.073,433.245 501.446,386.083 574.578,386.083L647.149,386.083C720.281,386.083 779.655,433.245 779.655,491.335Z" style="fill:rgb(1,55,125);"/>
                </g>
                <g transform="matrix(1.490467,0,0,1.413643,-450.046937,-451.98472)">
                    <ellipse cx="729.555" cy="657.507" rx="18.114" ry="17.686" style="fill:white;"/>
                </g>
                <g transform="matrix(1.690001,0,0,2.052808,-624.232375,-886.131133)">
                    <path d="M743.259,671.281C743.747,670.158 745.039,669.41 746.487,669.41C747.935,669.41 749.226,670.158 749.714,671.281C755.33,684.194 766.518,709.923 768.804,715.18C769.071,715.795 769.071,716.467 768.804,717.082C766.518,722.339 755.33,748.068 749.714,760.981C749.226,762.104 747.935,762.852 746.487,762.852C745.039,762.852 743.747,762.104 743.259,760.981C737.644,748.068 726.456,722.339 724.17,717.082C723.902,716.467 723.902,715.795 724.17,715.18C726.456,709.923 737.644,684.194 743.259,671.281Z" style="fill:white;"/>
                </g>
                <g transform="matrix(1.925419,0,0,1.862463,-570.609964,-171.726525)">
                    <path d="M627.01,174.102C661.939,174.102 684.248,193.716 684.248,228.656C684.248,263.597 661.939,304.427 627.01,304.427C592.081,304.427 570.482,263.597 570.482,228.656C570.482,193.716 592.081,174.102 627.01,174.102Z" style="fill:rgb(1,55,125);"/>
                </g>
            </g>
            <g transform="matrix(0.591585,0,0,0.591585,475.379714,171.081756)">
                <g transform="matrix(1.442596,0,0,1.816127,-243.898813,-278.824599)">
                    <path d="M779.655,491.335L779.655,543.961C779.655,573.007 749.968,596.588 713.402,596.588L508.325,596.588C471.76,596.588 442.073,573.007 442.073,543.961L442.073,491.335C442.073,433.245 501.446,386.083 574.578,386.083L647.149,386.083C720.281,386.083 779.655,433.245 779.655,491.335Z" style="fill:rgb(1,55,125);"/>
                </g>
                <g transform="matrix(1.490467,0,0,1.413643,-450.046937,-451.98472)">
                    <ellipse cx="729.555" cy="657.507" rx="18.114" ry="17.686" style="fill:white;"/>
                </g>
                <g transform="matrix(1.690001,0,0,2.052808,-624.232375,-886.131133)">
                    <path d="M741.903,674.399C742.596,672.806 744.431,671.742 746.487,671.742C748.543,671.742 750.377,672.806 751.07,674.399C756.815,687.609 766.203,709.199 768.63,714.78C769.01,715.654 769.01,716.608 768.63,717.482C766.203,723.064 756.815,744.653 751.07,757.863C750.377,759.457 748.543,760.52 746.487,760.52C744.431,760.52 742.596,759.457 741.903,757.863C736.159,744.653 726.771,723.064 724.344,717.482C723.964,716.608 723.964,715.654 724.344,714.78C726.771,709.199 736.159,687.609 741.903,674.399Z" style="fill:white;"/>
                </g>
                <g transform="matrix(1.925419,0,0,1.862463,-570.609964,-171.726525)">
                    <path d="M627.01,174.102C661.939,174.102 684.248,193.716 684.248,228.656C684.248,263.597 661.939,304.427 627.01,304.427C592.081,304.427 570.482,263.597 570.482,228.656C570.482,193.716 592.081,174.102 627.01,174.102Z" style="fill:rgb(1,55,125);"/>
                </g>
            </g>
            <g transform="matrix(0.591585,0,0,0.591585,20.549204,171.081756)">
                <g transform="matrix(1.442596,0,0,1.816127,-243.898813,-278.824599)">
                    <path d="M779.655,491.335L779.655,543.961C779.655,573.007 749.968,596.588 713.402,596.588L508.325,596.588C471.76,596.588 442.073,573.007 442.073,543.961L442.073,491.335C442.073,433.245 501.446,386.083 574.578,386.083L647.149,386.083C720.281,386.083 779.655,433.245 779.655,491.335Z" style="fill:rgb(1,55,125);"/>
                </g>
                <g transform="matrix(1.490467,0,0,1.413643,-450.046937,-451.98472)">
                    <ellipse cx="729.555" cy="657.507" rx="18.114" ry="17.686" style="fill:white;"/>
                </g>
                <g transform="matrix(1.690001,0,0,2.052808,-624.232375,-886.131133)">
                    <path d="M741.903,674.399C742.596,672.806 744.431,671.742 746.487,671.742C748.543,671.742 750.377,672.806 751.07,674.399C756.815,687.609 766.203,709.199 768.63,714.78C769.01,715.654 769.01,716.608 768.63,717.482C766.203,723.064 756.815,744.653 751.07,757.863C750.377,759.457 748.543,760.52 746.487,760.52C744.431,760.52 742.596,759.457 741.903,757.863C736.159,744.653 726.771,723.064 724.344,717.482C723.964,716.608 723.964,715.654 724.344,714.78C726.771,709.199 736.159,687.609 741.903,674.399Z" style="fill:white;"/>
                </g>
                <g transform="matrix(1.925419,0,0,1.862463,-570.609964,-171.726525)">
                    <path d="M627.01,174.102C661.939,174.102 684.248,193.716 684.248,228.656C684.248,263.597 661.939,304.427 627.01,304.427C592.081,304.427 570.482,263.597 570.482,228.656C570.482,193.716 592.081,174.102 627.01,174.102Z" style="fill:rgb(1,55,125);"/>
                </g>
            </g>
            <g transform="matrix(1.248433,0,0,1.248433,-233.717211,-201.810225)">
                <circle cx="832.593" cy="676.827" r="60.026" style="fill:rgb(126,211,72);"/>
                <g transform="matrix(0.641453,0,0,0.60886,290.072467,251.870981)">
                    <g transform="matrix(116.728517,0,0,116.728517,885.210223,736.853145)">
                    </g>
                    <text x="807.353px" y="736.853px" style="font-family:'Arial-Black', 'Arial Black', sans-serif;font-weight:900;font-size:116.729px;fill:white;">$</text>
                </g>
            </g>
            <g transform="matrix(1.782284,0,0,1.782284,-118.798782,345.372374)">
                <g transform="matrix(0.730228,0,0,0.750969,47.276352,-373.425148)">
                    <path d="M439.334,689.845L439.334,782.875C439.334,797.272 427.313,808.961 412.507,808.961L358.853,808.961C344.047,808.961 332.027,797.272 332.027,782.875L332.027,689.845C332.027,675.447 344.047,663.759 358.853,663.759L412.507,663.759C427.313,663.759 439.334,675.447 439.334,689.845Z" style="fill:rgb(126,211,72);"/>
                </g>
                <g transform="matrix(1,0,0,1,-5.359796,-3.251201)">
                    <path d="M364.413,146.584L364.413,161.417C364.413,165.51 361.089,168.834 356.996,168.834L311.545,168.834C307.452,168.834 304.129,165.51 304.129,161.417L304.129,146.584C304.129,142.49 307.452,139.167 311.545,139.167L356.996,139.167C361.089,139.167 364.413,142.49 364.413,146.584Z" style="fill:white;"/>
                </g>
                <g transform="matrix(1,0,0,1,4.316142,-0.730342)">
                    <g transform="matrix(0.96134,0,0,0.972155,11.55044,1.034186)">
                        <ellipse cx="305.01" cy="185.73" rx="6.241" ry="6.172" style="fill:white;"/>
                    </g>
                    <g transform="matrix(0.96134,0,0,0.972155,31.376392,1.034186)">
                        <ellipse cx="305.01" cy="185.73" rx="6.241" ry="6.172" style="fill:white;"/>
                    </g>
                    <g transform="matrix(0.96134,0,0,0.972155,51.202343,1.034186)">
                        <ellipse cx="305.01" cy="185.73" rx="6.241" ry="6.172" style="fill:white;"/>
                    </g>
                </g>
                <g transform="matrix(1,0,0,1,4.316142,17.25617)">
                    <g transform="matrix(0.96134,0,0,0.972155,11.55044,1.034186)">
                        <ellipse cx="305.01" cy="185.73" rx="6.241" ry="6.172" style="fill:white;"/>
                    </g>
                    <g transform="matrix(0.96134,0,0,0.972155,31.376392,1.034186)">
                        <ellipse cx="305.01" cy="185.73" rx="6.241" ry="6.172" style="fill:white;"/>
                    </g>
                    <g transform="matrix(0.96134,0,0,0.972155,51.202343,1.034186)">
                        <ellipse cx="305.01" cy="185.73" rx="6.241" ry="6.172" style="fill:white;"/>
                    </g>
                </g>
                <g transform="matrix(1,0,0,1,4.316142,35.242683)">
                    <g transform="matrix(0.96134,0,0,0.972155,11.55044,1.034186)">
                        <ellipse cx="305.01" cy="185.73" rx="6.241" ry="6.172" style="fill:white;"/>
                    </g>
                    <g transform="matrix(0.96134,0,0,0.972155,31.376392,1.034186)">
                        <ellipse cx="305.01" cy="185.73" rx="6.241" ry="6.172" style="fill:white;"/>
                    </g>
                    <g transform="matrix(0.96134,0,0,0.972155,51.202343,1.034186)">
                        <ellipse cx="305.01" cy="185.73" rx="6.241" ry="6.172" style="fill:white;"/>
                    </g>
                </g>
            </g>
        </g>
    </g>
</svg>
