<?xml version="1.0" encoding="UTF-8" standalone="no"?>
<!DOCTYPE svg PUBLIC "-//W3C//DTD SVG 1.1//EN" "http://www.w3.org/Graphics/SVG/1.1/DTD/svg11.dtd">
<svg width="100%" height="100%" viewBox="0 0 379 379" version="1.1" xmlns="http://www.w3.org/2000/svg" xmlns:xlink="http://www.w3.org/1999/xlink" xml:space="preserve" xmlns:serif="http://www.serif.com/" style="fill-rule:evenodd;clip-rule:evenodd;stroke-linejoin:round;stroke-miterlimit:0.73;">
    <g>
        <g>
            <path d="M378.185,94.721L378.185,283.697C378.185,335.846 335.846,378.185 283.697,378.185L94.721,378.185C42.571,378.185 0.232,335.846 0.232,283.697L0.232,94.721C0.232,42.571 42.571,0.232 94.721,0.232L283.697,0.232C335.846,0.232 378.185,42.571 378.185,94.721Z" style="fill:white;stroke:white;stroke-width:0.46px;"/>
        </g>
        <g>
            <path d="M234.037,173.726L234.037,292.443C234.037,317.697 213.533,338.2 188.279,338.2L96.764,338.2C71.51,338.2 51.007,317.697 51.007,292.443L51.007,173.726C51.007,148.472 71.51,127.969 96.764,127.969L188.279,127.969C213.533,127.969 234.037,148.472 234.037,173.726Z" style="fill:rgb(1,54,124);"/>
            <path d="M128.945,176.336L128.945,192.248C128.945,196.639 125.381,200.204 120.989,200.204L100.329,200.204C95.938,200.204 92.373,196.639 92.373,192.248L92.373,176.336C92.373,171.945 95.938,168.38 100.329,168.38L120.989,168.38C125.381,168.38 128.945,171.945 128.945,176.336Z" style="fill:white;"/>
            <path d="M196.156,176.336L196.156,192.248C196.156,196.639 192.591,200.204 188.2,200.204L167.54,200.204C163.148,200.204 159.584,196.639 159.584,192.248L159.584,176.336C159.584,171.945 163.148,168.38 167.54,168.38L188.2,168.38C192.591,168.38 196.156,171.945 196.156,176.336Z" style="fill:white;"/>
            <path d="M128.945,225.524L128.945,241.436C128.945,245.828 125.381,249.392 120.989,249.392L100.329,249.392C95.938,249.392 92.373,245.828 92.373,241.436L92.373,225.524C92.373,221.133 95.938,217.568 100.329,217.568L120.989,217.568C125.381,217.568 128.945,221.133 128.945,225.524Z" style="fill:white;"/>
            <path d="M196.156,225.524L196.156,241.436C196.156,245.828 192.591,249.392 188.2,249.392L167.54,249.392C163.148,249.392 159.584,245.828 159.584,241.436L159.584,225.524C159.584,221.133 163.148,217.568 167.54,217.568L188.2,217.568C192.591,217.568 196.156,221.133 196.156,225.524Z" style="fill:white;"/>
            <path d="M196.156,277.579L196.156,293.491C196.156,297.882 192.591,301.447 188.2,301.447L167.54,301.447C163.148,301.447 159.584,297.882 159.584,293.491L159.584,277.579C159.584,273.188 163.148,269.623 167.54,269.623L188.2,269.623C192.591,269.623 196.156,273.188 196.156,277.579Z" style="fill:white;"/>
            <path d="M128.945,277.579L128.945,293.491C128.945,297.882 125.381,301.447 120.989,301.447L100.329,301.447C95.938,301.447 92.373,297.882 92.373,293.491L92.373,277.579C92.373,273.188 95.938,269.623 100.329,269.623L120.989,269.623C125.381,269.623 128.945,273.188 128.945,277.579Z" style="fill:white;"/>
            <g>
                <path d="M311.292,216.954L311.292,301.695C311.292,319.721 296.657,334.356 278.63,334.356L213.307,334.356C195.28,334.356 180.645,319.721 180.645,301.695L180.645,216.954C180.645,198.927 195.28,184.292 213.307,184.292L278.63,184.292C296.657,184.292 311.292,198.927 311.292,216.954Z" style="fill:rgb(126,211,79);"/>
                <path d="M239.316,225.341L239.316,241.253C239.316,245.644 235.751,249.209 231.36,249.209L210.7,249.209C206.309,249.209 202.744,245.644 202.744,241.253L202.744,225.341C202.744,220.95 206.309,217.385 210.7,217.385L231.36,217.385C235.751,217.385 239.316,220.95 239.316,225.341Z" style="fill:white;"/>
                <path d="M289.193,225.341L289.193,241.253C289.193,245.644 285.628,249.209 281.237,249.209L260.577,249.209C256.186,249.209 252.621,245.644 252.621,241.253L252.621,225.341C252.621,220.95 256.186,217.385 260.577,217.385L281.237,217.385C285.628,217.385 289.193,220.95 289.193,225.341Z" style="fill:white;"/>
                <path d="M289.193,277.396L289.193,293.308C289.193,297.699 285.628,301.264 281.237,301.264L260.577,301.264C256.186,301.264 252.621,297.699 252.621,293.308L252.621,277.396C252.621,273.005 256.186,269.44 260.577,269.44L281.237,269.44C285.628,269.44 289.193,273.005 289.193,277.396Z" style="fill:white;"/>
                <path d="M239.316,277.396L239.316,293.308C239.316,297.699 235.751,301.264 231.36,301.264L210.7,301.264C206.309,301.264 202.744,297.699 202.744,293.308L202.744,277.396C202.744,273.005 206.309,269.44 210.7,269.44L231.36,269.44C235.751,269.44 239.316,273.005 239.316,277.396Z" style="fill:white;"/>
            </g>
            <g>
                <g>
                    <path d="M278.054,66.19C288.445,66.19 309.227,66.19 319.618,79.029C330.009,91.868 330.009,117.546 319.618,143.224C317.1,149.89 313.213,156.556 308.56,162.955C301.473,172.731 290.129,178.518 278.054,178.518C265.979,178.518 254.636,172.731 247.548,162.955C242.895,156.556 239.009,149.89 236.491,143.224C226.1,117.546 226.1,91.868 236.491,79.029C246.882,66.19 267.664,66.19 278.054,66.19Z" style="fill:rgb(1,55,125);"/>
                    <path d="M278.055,90.552C279.383,90.552 282.04,90.552 283.368,92.193C284.697,93.835 284.697,97.118 283.368,100.401C283.368,100.401 283.368,100.402 283.368,100.403C282.532,102.613 280.417,104.075 278.054,104.075C275.692,104.075 273.576,102.613 272.741,100.403C272.741,100.402 272.741,100.401 272.741,100.401C271.412,97.118 271.412,93.835 272.741,92.193C274.069,90.552 276.726,90.552 278.055,90.552Z" style="fill:white;"/>
                    <ellipse cx="278.055" cy="108.742" rx="1.332" ry="1.355" style="fill:white;"/>
                    <path d="M278.054,27.067C283.879,27.067 295.528,27.067 301.353,34.264C307.178,41.461 307.178,55.855 301.353,70.249C301.353,70.249 301.353,70.249 301.353,70.249C297.692,79.941 288.414,86.355 278.054,86.355C267.694,86.355 258.416,79.941 254.756,70.249C254.756,70.249 254.756,70.249 254.756,70.249C248.931,55.855 248.931,41.461 254.756,34.264C260.58,27.067 272.23,27.067 278.054,27.067Z" style="fill:rgb(124,210,76);"/>
                </g>
            </g>
        </g>
    </g>
</svg>
