<?xml version="1.0" encoding="UTF-8" standalone="no"?>
<!DOCTYPE svg PUBLIC "-//W3C//DTD SVG 1.1//EN" "http://www.w3.org/Graphics/SVG/1.1/DTD/svg11.dtd">
<svg width="100%" height="100%" viewBox="0 0 125 125" version="1.1" xmlns="http://www.w3.org/2000/svg" xmlns:xlink="http://www.w3.org/1999/xlink" xml:space="preserve" xmlns:serif="http://www.serif.com/" style="fill-rule:evenodd;clip-rule:evenodd;stroke-linejoin:round;stroke-miterlimit:2;">
    <g transform="matrix(0.359505,0,0,0.359505,62.5,62.5)">
        <g id="Solarwinds" transform="matrix(1,0,0,1,-173.85,-39.55)">
            <clipPath id="_clip1">
                <rect x="0" y="0" width="347.7" height="79.1"/>
            </clipPath>
            <g clip-path="url(#_clip1)">
                <g>
                    <g>
                        <g>
                            <path d="M9.1,79.1C3.8,79.1 0.1,77.5 0.1,77.5L0.1,72.9C0.1,72.9 5.7,74.7 9,74.7C11.9,74.7 14.8,74.2 14.8,70.6C14.8,67.9 12.8,67.3 10.3,66.6L8,66C5,65.1 0,63.9 0,57.8C0,51 5.5,49.3 11.2,49.3C16.3,49.3 19.2,51 19.2,51L19.2,55.5C19.2,55.5 15.4,53.7 11,53.7C7.4,53.7 5.1,54.4 5.1,57.5C5.1,60.2 7.2,60.8 9.7,61.5L12.5,62.3C15.8,63.2 20,65.1 20,70.5C20.1,77.3 15.1,79.1 9.1,79.1Z" style="fill:rgb(102,102,102);fill-rule:nonzero;"/>
                            <path d="M39.4,79.1C33.8,79.1 26,77.3 26,64.2C26,51.4 33.9,49.3 39.4,49.3C44.6,49.3 52.8,51.1 52.8,64.2C52.8,77.5 44.7,79.1 39.4,79.1ZM39.4,53.3C36.4,53.3 31.4,54.2 31.4,64.2C31.4,74.3 37.2,75 39.4,75C42.1,75 47.4,73.9 47.4,64.2C47.3,54.1 42.3,53.3 39.4,53.3Z" style="fill:rgb(102,102,102);fill-rule:nonzero;"/>
                            <rect x="59.8" y="40.4" width="5.4" height="38.2" style="fill:rgb(102,102,102);fill-rule:nonzero;"/>
                            <path d="M92,78.6L91.5,74.9C91.5,74.9 88.2,79.2 82.1,79.2C77.7,79.2 72.9,77.6 72.9,70.4C72.9,62.4 80.4,60.9 85,60.9L91.3,60.9L91.3,58.4C91.3,54.7 89.1,53.8 85.3,53.8C80.7,53.8 75.3,55.8 75.3,55.8L75.3,51.4C75.3,51.4 80.2,49.4 86.1,49.4C92.4,49.4 96.7,51.7 96.7,59.3L96.7,78.7L92,78.7L92,78.6ZM91.3,64.1L86.1,64.2C81.2,64.3 78.2,65.6 78.2,70.2C78.2,73.9 80.5,75 83.4,75C87.4,75 91.3,71.3 91.3,71.3L91.3,64.1Z" style="fill:rgb(102,102,102);fill-rule:nonzero;"/>
                            <path d="M116.3,54.2C113.1,54.2 110.6,57.7 110.6,57.7L110.6,78.6L105.2,78.6L105.2,49.8L109.5,49.8L110.2,53.8C110.2,53.8 112,49.3 116.9,49.3C119.7,49.3 120.8,50.1 120.8,50.1L120.8,55C120.8,55 119.1,54.2 116.3,54.2Z" style="fill:rgb(102,102,102);fill-rule:nonzero;"/>
                            <path d="M163.6,78.6L156.1,78.6L151.6,63.3C150.4,59.2 148.7,52.5 148.7,52.5C148.7,52.5 146.9,59.3 145.7,63.2L141.3,78.6L133.8,78.6L126.2,49.8L132.4,49.8L135.9,66.3C136.7,70.1 137.6,76.1 137.6,76.1C137.6,76.1 138.7,70.1 139.9,66.3L144.8,49.8L152.6,49.8L157.5,66.3C158.6,70 159.8,76.1 159.8,76.1C159.8,76.1 160.7,70.6 161.6,66.3L165.1,49.8L171.2,49.8L163.6,78.6Z" style="fill:rgb(102,102,102);fill-rule:nonzero;"/>
                            <rect x="178" y="49.7" width="5.4" height="28.9" style="fill:rgb(102,102,102);fill-rule:nonzero;"/>
                            <path d="M212,78.6L212,58.9C212,55.3 210.5,54 206.8,54C202,54 197.3,57.6 197.3,57.6L197.3,78.6L191.9,78.6L191.9,49.8L196.1,49.8L197.2,53.9C197.2,53.9 202,49.3 208.1,49.3C213.4,49.3 217.4,51.6 217.4,59L217.4,78.6L212,78.6Z" style="fill:rgb(102,102,102);fill-rule:nonzero;"/>
                            <path d="M245.6,78.6L245,75C245,75 242,79.2 235.7,79.2C231.2,79.2 223.8,77.2 223.8,64.3C223.8,51.2 233,49.4 236.8,49.4C242,49.4 244.4,52.3 244.4,52.3L244.4,40.4L249.8,40.4L249.8,78.6L245.6,78.6ZM244.4,56.5C244.4,56.5 241.4,53.6 237.3,53.6C233.3,53.6 229.2,55.2 229.2,64.2C229.2,73.7 233.4,74.8 236.8,74.8C240.7,74.8 244.4,71.5 244.4,71.5L244.4,56.5Z" style="fill:rgb(102,102,102);fill-rule:nonzero;"/>
                            <path d="M266.5,79.1C261.2,79.1 257.5,77.5 257.5,77.5L257.5,72.9C257.5,72.9 263.1,74.7 266.4,74.7C269.3,74.7 272.2,74.2 272.2,70.6C272.2,67.9 270.2,67.3 267.7,66.6L265.4,66C262.4,65.1 257.4,63.9 257.4,57.8C257.4,51 262.9,49.3 268.6,49.3C273.7,49.3 276.6,51 276.6,51L276.6,55.5C276.6,55.5 272.8,53.7 268.4,53.7C264.8,53.7 262.5,54.4 262.5,57.5C262.5,60.2 264.6,60.8 267.1,61.5L269.9,62.3C273.2,63.2 277.4,65.1 277.4,70.5C277.5,77.3 272.6,79.1 266.5,79.1Z" style="fill:rgb(102,102,102);fill-rule:nonzero;"/>
                        </g>
                        <g>
                            <path d="M302.8,32.3C303.1,32.2 303.3,32.2 303.5,32.1C309,30.5 314.3,28.4 319.7,26.2C324.9,24 330,21.4 334.6,17.7C339.2,13.9 342.9,9 345,3C345.3,2.2 345.9,0.9 345.9,0C338.7,9.9 310,10.9 310,10.9L316.8,4.7C289.6,4.8 270.6,16.3 261.9,22.5C273,23.7 283.1,28.4 291,35.5C294.9,34.3 298.9,33.4 302.8,32.3Z" style="fill:rgb(249,157,28);fill-rule:nonzero;"/>
                            <path d="M347.7,31.3C347.7,31.3 321.3,29.3 293.8,38.1C297.4,41.9 300.5,46.3 302.9,51C317.3,43.1 337.4,32.8 347.7,31.3Z" style="fill:rgb(249,157,28);fill-rule:nonzero;"/>
                            <path d="M304.7,55.2C306.4,59.5 307.5,64.1 308,68.9L333.2,43L304.7,55.2Z" style="fill:rgb(249,157,28);fill-rule:nonzero;"/>
                        </g>
                    </g>
                </g>
            </g>
        </g>
        <g id="Solarwinds1" serif:id="Solarwinds">
        </g>
    </g>
</svg>
