<?xml version="1.0" encoding="UTF-8" standalone="no"?><!DOCTYPE svg PUBLIC "-//W3C//DTD SVG 1.1//EN" "http://www.w3.org/Graphics/SVG/1.1/DTD/svg11.dtd"><svg width="100%" height="100%" viewBox="0 0 521 521" version="1.1" xmlns="http://www.w3.org/2000/svg" xmlns:xlink="http://www.w3.org/1999/xlink" xml:space="preserve" xmlns:serif="http://www.serif.com/" style="fill-rule:evenodd;clip-rule:evenodd;stroke-linejoin:round;stroke-miterlimit:2;"><g><g><path d="M520.804,264.004c0,-37.035 -17.939,-66.258 -52.225,-66.258c-34.431,0 -55.263,29.223 -55.263,65.969c0,43.545 24.594,65.535 59.893,65.535c17.215,0 30.236,-3.906 40.073,-9.403l0,-28.934c-9.837,4.919 -21.122,7.957 -35.444,7.957c-14.033,0 -26.474,-4.919 -28.066,-21.99l70.743,0c0,-1.881 0.289,-9.403 0.289,-12.875Zm-71.466,-13.743c0,-16.347 9.982,-23.147 19.096,-23.147c8.825,0 18.228,6.799 18.228,23.147l-37.324,0Z" style="fill:#635bff;"/><path d="M357.474,197.747c-14.177,0 -23.292,6.655 -28.355,11.284l-1.881,-8.969l-31.827,0l0,168.683l36.167,-7.667l0.145,-40.941c5.208,3.761 12.875,9.114 25.606,9.114c25.896,0 49.476,-20.832 49.476,-66.692c-0.145,-41.954 -24.015,-64.811 -49.332,-64.811Zm-8.68,99.676c-8.535,0 -13.599,-3.038 -17.071,-6.799l-0.145,-53.672c3.761,-4.195 8.969,-7.089 17.215,-7.089c13.165,0 22.279,14.756 22.279,33.708c0,19.385 -8.969,33.852 -22.279,33.852Z" style="fill:#635bff;"/><path d="M245.646,189.211l36.312,-7.812l0,-29.368l-36.312,7.667l0,29.512Z" style="fill:#635bff;"/><rect x="245.646" y="200.206" width="36.312" height="126.584" style="fill:#635bff;"/><path d="M206.73,210.911l-2.315,-10.705l-31.248,0l0,126.584l36.167,0l0,-85.788c8.535,-11.139 23.002,-9.114 27.487,-7.523l0,-33.274c-4.629,-1.736 -21.556,-4.919 -30.091,10.705Z" style="fill:#635bff;"/><path d="M134.396,168.813l-35.299,7.523l-0.145,115.879c0,21.411 16.058,37.18 37.469,37.18c11.863,0 20.543,-2.17 25.317,-4.774l0,-29.368c-4.629,1.881 -27.487,8.535 -27.487,-12.875l0,-51.357l27.487,0l0,-30.814l-27.487,0l0.145,-31.393Z" style="fill:#635bff;"/><path d="M36.601,236.952c0,-5.642 4.629,-7.812 12.297,-7.812c10.995,0 24.883,3.327 35.878,9.259l0,-33.997c-12.007,-4.774 -23.87,-6.655 -35.878,-6.655c-29.368,-0 -48.898,15.335 -48.898,40.941c0,39.928 54.974,33.563 54.974,50.778c0,6.655 -5.787,8.825 -13.888,8.825c-12.007,0 -27.342,-4.919 -39.494,-11.573l0,34.431c13.454,5.787 27.053,8.246 39.494,8.246c30.091,0 50.778,-14.901 50.778,-40.796c-0.145,-43.111 -55.263,-35.444 -55.263,-51.646Z" style="fill:#635bff;"/></g></g></svg>