<?xml version="1.0" encoding="UTF-8" standalone="no"?>
<!DOCTYPE svg PUBLIC "-//W3C//DTD SVG 1.1//EN" "http://www.w3.org/Graphics/SVG/1.1/DTD/svg11.dtd">
<svg width="100%" height="100%" viewBox="0 0 379 379" version="1.1" xmlns="http://www.w3.org/2000/svg" xmlns:xlink="http://www.w3.org/1999/xlink" xml:space="preserve" xmlns:serif="http://www.serif.com/" style="fill-rule:evenodd;clip-rule:evenodd;stroke-linejoin:round;stroke-miterlimit:0.73;">
    <g>
        <g>
            <g>
                <path d="M378.185,94.721L378.185,283.697C378.185,335.846 335.846,378.185 283.697,378.185L94.721,378.185C42.571,378.185 0.232,335.846 0.232,283.697L0.232,94.721C0.232,42.571 42.571,0.232 94.721,0.232L283.697,0.232C335.846,0.232 378.185,42.571 378.185,94.721Z" style="fill:white;stroke:white;stroke-width:0.46px;"/>
            </g>
        </g>
        <g>
            <path d="M276.101,127.667L276.101,272.117C276.101,300.189 253.311,322.98 225.239,322.98L123.514,322.98C95.442,322.98 72.651,300.189 72.651,272.117L72.651,127.667C72.651,99.595 95.442,76.804 123.514,76.804L225.239,76.804C253.311,76.804 276.101,99.595 276.101,127.667Z" style="fill:rgb(1,55,124);"/>
            <path d="M260.69,133.704L260.69,267.343C260.69,291.161 241.352,310.499 217.533,310.499L131.22,310.499C107.401,310.499 88.063,291.161 88.063,267.343L88.063,133.704C88.063,109.885 107.401,90.547 131.22,90.547L217.533,90.547C241.352,90.547 260.69,109.885 260.69,133.704Z" style="fill:white;"/>
            <path d="M220.192,67.059L220.192,90.299C220.192,96.713 214.985,101.92 208.571,101.92L140.882,101.92C134.469,101.92 129.262,96.713 129.262,90.299L129.262,67.059C129.262,60.645 134.469,55.438 140.882,55.438L208.571,55.438C214.985,55.438 220.192,60.645 220.192,67.059Z" style="fill:rgb(123,210,75);"/>
            <circle cx="129.262" cy="144.323" r="11" style="fill:rgb(157,175,255);"/>
            <circle cx="129.262" cy="181.79" r="11" style="fill:rgb(157,175,255);"/>
            <circle cx="129.262" cy="219.257" r="11" style="fill:rgb(157,175,255);"/>
            <circle cx="129.262" cy="256.723" r="11" style="fill:rgb(157,175,255);"/>
            <path d="M230.491,140.173L230.491,148.474C230.491,150.765 228.631,152.625 226.34,152.625L163.595,152.625C161.305,152.625 159.445,150.765 159.445,148.474L159.445,140.173C159.445,137.882 161.305,136.022 163.595,136.022L226.34,136.022C228.631,136.022 230.491,137.882 230.491,140.173Z" style="fill:rgb(1,55,124);"/>
            <path d="M230.491,177.639L230.491,185.941C230.491,188.231 228.631,190.091 226.34,190.091L163.595,190.091C161.305,190.091 159.445,188.231 159.445,185.941L159.445,177.639C159.445,175.349 161.305,173.489 163.595,173.489L226.34,173.489C228.631,173.489 230.491,175.349 230.491,177.639Z" style="fill:rgb(1,55,124);"/>
            <path d="M230.491,215.106L230.491,223.407C230.491,225.698 228.631,227.558 226.34,227.558L163.595,227.558C161.305,227.558 159.445,225.698 159.445,223.407L159.445,215.106C159.445,212.815 161.305,210.955 163.595,210.955L226.34,210.955C228.631,210.955 230.491,212.815 230.491,215.106Z" style="fill:rgb(1,55,124);"/>
            <path d="M230.491,252.572L230.491,260.874C230.491,263.165 228.631,265.024 226.34,265.024L163.595,265.024C161.305,265.024 159.445,263.165 159.445,260.874L159.445,252.572C159.445,250.282 161.305,248.422 163.595,248.422L226.34,248.422C228.631,248.422 230.491,250.282 230.491,252.572Z" style="fill:rgb(1,55,124);"/>
            <path d="M305.766,120.851L305.766,275.464C305.766,279.152 302.772,282.147 299.084,282.147C295.396,282.147 292.402,279.152 292.402,275.464L292.402,120.851C292.402,117.162 295.396,114.168 299.084,114.168C302.772,114.168 305.766,117.162 305.766,120.851Z" style="fill:rgb(1,55,124);"/>
            <rect x="292.402" y="144.323" width="13.364" height="11" style="fill:rgb(123,210,75);"/>
        </g>
    </g>
</svg>
