<?xml version="1.0" encoding="UTF-8" standalone="no"?>
<!DOCTYPE svg PUBLIC "-//W3C//DTD SVG 1.1//EN" "http://www.w3.org/Graphics/SVG/1.1/DTD/svg11.dtd">
<svg width="100%" height="100%" viewBox="0 0 379 379" version="1.1" xmlns="http://www.w3.org/2000/svg" xmlns:xlink="http://www.w3.org/1999/xlink" xml:space="preserve" xmlns:serif="http://www.serif.com/" style="fill-rule:evenodd;clip-rule:evenodd;stroke-linejoin:round;stroke-miterlimit:0.73;">
    <g>
        <g>
            <path d="M378.185,132.516L378.185,245.902C378.185,318.911 318.911,378.185 245.902,378.185L132.516,378.185C59.507,378.185 0.232,318.911 0.232,245.902L0.232,132.516C0.232,59.507 59.507,0.232 132.516,0.232L245.902,0.232C318.911,0.232 378.185,59.507 378.185,132.516Z" style="fill:white;stroke:white;stroke-width:0.46px;"/>
        </g>
        <g>
            <path d="M193.264,271.019C206.688,268.978 218.251,254.794 224.677,234.479L193.264,234.479L193.264,271.019Z" style="fill:rgb(125,210,78);fill-rule:nonzero;"/>
            <path d="M231.719,234.479C228.495,246.809 222.222,258.133 213.479,267.405C230.401,261.646 244.675,249.944 253.64,234.479L231.719,234.479Z" style="fill:rgb(125,210,78);fill-rule:nonzero;"/>
            <path d="M263.463,201.012L236.725,201.012C236.546,210.023 235.455,218.994 233.469,227.786L257.077,227.786C260.882,219.346 263.049,210.26 263.463,201.012Z" style="fill:rgb(125,210,78);fill-rule:nonzero;"/>
            <path d="M193.264,227.786L226.551,227.786C228.67,219.012 229.837,210.035 230.032,201.012L193.264,201.012L193.264,227.786Z" style="fill:rgb(125,210,78);fill-rule:nonzero;"/>
            <path d="M193.264,124.311L193.264,160.85L224.677,160.85C218.251,140.536 206.688,126.352 193.264,124.311Z" style="fill:rgb(125,210,78);fill-rule:nonzero;"/>
            <path d="M257.077,167.544L233.469,167.544C235.455,176.336 236.546,185.306 236.725,194.318L263.463,194.318C263.049,185.07 260.882,175.984 257.077,167.544Z" style="fill:rgb(125,210,78);fill-rule:nonzero;"/>
            <path d="M253.64,160.85C244.675,145.386 230.401,133.684 213.479,127.925C222.222,137.197 228.495,148.52 231.719,160.85L253.64,160.85Z" style="fill:rgb(125,210,78);fill-rule:nonzero;"/>
            <path d="M193.264,194.318L230.032,194.318C229.837,185.294 228.67,176.318 226.551,167.544L193.264,167.544L193.264,194.318Z" style="fill:rgb(125,210,78);fill-rule:nonzero;"/>
            <path d="M186.571,271.019L186.571,234.479L155.158,234.479C161.584,254.794 173.147,268.978 186.571,271.019Z" style="fill:rgb(125,210,78);fill-rule:nonzero;"/>
            <path d="M186.571,201.012L149.803,201.012C149.998,210.035 151.165,219.012 153.284,227.786L186.571,227.786L186.571,201.012Z" style="fill:rgb(125,210,78);fill-rule:nonzero;"/>
            <path d="M186.571,167.544L153.284,167.544C151.165,176.318 149.998,185.294 149.803,194.318L186.571,194.318L186.571,167.544Z" style="fill:rgb(125,210,78);fill-rule:nonzero;"/>
            <path d="M186.571,124.311C173.147,126.352 161.584,140.536 155.158,160.85L186.571,160.85L186.571,124.311Z" style="fill:rgb(125,210,78);fill-rule:nonzero;"/>
            <path d="M116.372,194.318L143.11,194.318C143.289,185.306 144.38,176.336 146.366,167.544L122.758,167.544C118.953,175.984 116.786,185.07 116.372,194.318Z" style="fill:rgb(125,210,78);fill-rule:nonzero;"/>
            <path d="M166.356,267.405C157.613,258.133 151.34,246.809 148.116,234.479L126.195,234.479C135.16,249.944 149.434,261.646 166.356,267.405Z" style="fill:rgb(125,210,78);fill-rule:nonzero;"/>
            <path d="M166.356,127.925C149.434,133.684 135.16,145.386 126.195,160.85L148.116,160.85C151.34,148.52 157.613,137.197 166.356,127.925Z" style="fill:rgb(125,210,78);fill-rule:nonzero;"/>
            <path d="M122.758,227.786L146.366,227.786C144.38,218.994 143.289,210.023 143.11,201.012L116.372,201.012C116.786,210.26 118.953,219.346 122.758,227.786Z" style="fill:rgb(125,210,78);fill-rule:nonzero;"/>
            <path d="M205.059,42.663L210.047,66.944C219.7,68.422 229.16,70.957 238.258,74.504L254.719,55.969C263.929,60.157 272.713,65.228 280.945,71.111L273.124,94.633C280.744,100.739 287.67,107.664 293.776,115.285L317.298,107.464C323.181,115.696 328.252,124.479 332.44,133.69L313.905,150.151C317.452,159.249 319.987,168.709 321.464,178.362L345.746,183.35C346.725,193.42 346.725,203.562 345.746,213.633L321.464,218.621C319.987,228.273 317.452,237.734 313.905,246.832L332.44,263.292C328.252,272.503 323.181,281.287 317.298,289.519L293.776,281.697C287.67,289.318 280.744,296.244 273.124,302.35L280.945,325.872C272.713,331.755 263.929,336.826 254.719,341.014L238.258,322.479C229.16,326.026 219.7,328.561 210.047,330.038L205.059,354.32C194.988,355.298 184.846,355.298 174.776,354.32L169.788,330.038C160.135,328.561 150.675,326.026 141.577,322.479L125.116,341.014C115.906,336.826 107.122,331.755 98.89,325.872L106.711,302.35C99.091,296.244 92.165,289.318 86.059,281.697L62.537,289.519C56.654,281.287 51.583,272.503 47.395,263.292L65.93,246.832C62.383,237.734 59.848,228.273 58.371,218.621L34.089,213.633C33.11,203.562 33.11,193.42 34.089,183.35L58.371,178.362C59.848,168.709 62.383,159.249 65.93,150.151L47.395,133.69C51.583,124.479 56.654,115.696 62.537,107.464L86.059,115.285C92.165,107.664 99.091,100.739 106.711,94.633L98.89,71.111C107.122,65.228 115.906,60.157 125.116,55.969L141.577,74.504C150.675,70.957 160.135,68.422 169.788,66.944L174.776,42.663C184.846,41.684 194.988,41.684 205.059,42.663ZM189.917,94.259C247.445,94.259 294.15,140.964 294.15,198.491C294.15,256.019 247.445,302.724 189.917,302.724C132.39,302.724 85.685,256.019 85.685,198.491C85.685,140.964 132.39,94.259 189.917,94.259Z" style="fill:rgb(1,54,123);"/>
            <circle cx="259.973" cy="75.27" r="55.82" style="fill:none;stroke:white;stroke-width:13.11px;stroke-linecap:round;stroke-miterlimit:0.348837;"/>
            <circle cx="259.973" cy="75.27" r="55.82" style="fill:rgb(126,211,79);"/>
            <path d="M280.534,87.23C280.534,90.004 279.827,92.604 278.414,95.03C277.001,97.457 274.921,99.457 272.174,101.031C269.427,102.604 266.187,103.524 262.453,103.791L262.453,110.271L257.333,110.271L257.333,103.711C252,103.231 247.706,101.617 244.453,98.871C241.199,96.124 239.519,92.404 239.412,87.71L251.413,87.71C251.733,91.55 253.706,93.87 257.333,94.67L257.333,79.39C253.493,78.43 250.399,77.47 248.053,76.51C245.706,75.55 243.679,74.003 241.972,71.869C240.266,69.736 239.412,66.829 239.412,63.149C239.412,58.509 241.079,54.722 244.413,51.789C247.746,48.855 252.053,47.175 257.333,46.748L257.333,40.268L262.453,40.268L262.453,46.748C267.574,47.175 271.667,48.722 274.734,51.389C277.801,54.055 279.521,57.735 279.894,62.429L267.814,62.429C267.654,60.882 267.107,59.536 266.174,58.389C265.24,57.242 264,56.429 262.453,55.949L262.453,71.069C266.454,72.083 269.614,73.056 271.934,73.99C274.254,74.923 276.267,76.443 277.974,78.55C279.681,80.657 280.534,83.55 280.534,87.23ZM251.093,62.589C251.093,64.349 251.626,65.776 252.693,66.869C253.76,67.963 255.306,68.856 257.333,69.549L257.333,55.709C255.413,55.975 253.893,56.695 252.773,57.869C251.653,59.042 251.093,60.616 251.093,62.589ZM262.453,94.83C264.48,94.457 266.067,93.63 267.214,92.35C268.36,91.07 268.934,89.524 268.934,87.71C268.934,85.95 268.374,84.537 267.254,83.47C266.134,82.403 264.533,81.523 262.453,80.83L262.453,94.83Z" style="fill:rgb(1,54,124);fill-rule:nonzero;"/>
        </g>
    </g>
</svg>
