<?xml version="1.0" encoding="UTF-8" standalone="no"?>
<!DOCTYPE svg PUBLIC "-//W3C//DTD SVG 1.1//EN" "http://www.w3.org/Graphics/SVG/1.1/DTD/svg11.dtd">
<svg width="100%" height="100%" viewBox="0 0 379 379" version="1.1" xmlns="http://www.w3.org/2000/svg" xmlns:xlink="http://www.w3.org/1999/xlink" xml:space="preserve" xmlns:serif="http://www.serif.com/" style="fill-rule:evenodd;clip-rule:evenodd;stroke-linejoin:round;stroke-miterlimit:0.73;">
    <g>
        <g>
            <path d="M378.185,132.516L378.185,245.902C378.185,318.911 318.911,378.185 245.902,378.185L132.516,378.185C59.507,378.185 0.232,318.911 0.232,245.902L0.232,132.516C0.232,59.507 59.507,0.232 132.516,0.232L245.902,0.232C318.911,0.232 378.185,59.507 378.185,132.516Z" style="fill:white;stroke:white;stroke-width:0.46px;"/>
        </g>
        <g>
            <path d="M179.279,57.016C176.043,57.314 173.173,54.928 172.875,51.692C172.577,48.455 174.963,45.586 178.2,45.288C182.497,44.892 186.85,44.69 191.25,44.69C195.649,44.69 200.002,44.892 204.3,45.288C207.536,45.586 209.922,48.455 209.624,51.692C209.326,54.928 206.456,57.314 203.22,57.016C199.278,56.653 195.285,56.467 191.25,56.467C187.214,56.467 183.221,56.653 179.279,57.016ZM221.682,60.08C218.523,59.316 216.579,56.13 217.344,52.971C218.108,49.812 221.293,47.868 224.452,48.633C233.017,50.705 241.278,53.561 249.154,57.12C252.115,58.458 253.433,61.95 252.095,64.911C250.757,67.873 247.266,69.191 244.304,67.853C237.091,64.594 229.526,61.978 221.682,60.08ZM260.755,76.78C258.018,75.026 257.219,71.381 258.973,68.644C260.726,65.908 264.371,65.109 267.108,66.863C274.465,71.576 281.357,76.955 287.696,82.913C290.065,85.139 290.18,88.869 287.954,91.237C285.729,93.606 281.999,93.721 279.63,91.495C273.818,86.032 267.5,81.101 260.755,76.78ZM292.316,105.267C290.292,102.724 290.713,99.017 293.256,96.993C295.799,94.968 299.507,95.39 301.531,97.932C306.942,104.73 311.738,112.039 315.835,119.774C317.356,122.647 316.259,126.213 313.387,127.735C310.515,129.256 306.948,128.159 305.427,125.287C301.672,118.197 297.276,111.498 292.316,105.267ZM312.958,142.418C311.871,139.355 313.474,135.985 316.537,134.898C319.6,133.81 322.969,135.414 324.057,138.477C326.942,146.601 329.102,155.068 330.459,163.798C330.959,167.01 328.757,170.023 325.545,170.522C322.334,171.021 319.321,168.819 318.821,165.608C317.578,157.612 315.6,149.858 312.958,142.418ZM320.352,184.268C320.32,181.018 322.932,178.353 326.182,178.321C329.432,178.289 332.097,180.901 332.129,184.151C332.134,184.626 332.136,185.101 332.136,185.576C332.136,193.964 331.401,202.182 329.992,210.169C329.428,213.369 326.371,215.51 323.17,214.945C319.969,214.381 317.829,211.324 318.394,208.123C319.685,200.801 320.358,193.267 320.358,185.576C320.358,185.14 320.356,184.704 320.352,184.268ZM313.807,226.263C314.832,223.179 318.168,221.507 321.253,222.532C324.337,223.556 326.009,226.893 324.984,229.977C322.213,238.319 318.682,246.316 314.474,253.885C312.895,256.726 309.307,257.75 306.466,256.171C303.625,254.592 302.601,251.004 304.18,248.163C308.034,241.229 311.269,233.904 313.807,226.263ZM293.924,263.823C295.896,261.24 299.595,260.744 302.178,262.717C304.761,264.689 305.257,268.388 303.284,270.971C297.989,277.905 292.066,284.334 285.599,290.171C283.186,292.349 279.46,292.159 277.282,289.746C275.104,287.334 275.294,283.607 277.707,281.429C283.637,276.076 289.069,270.181 293.924,263.823ZM262.942,292.941C265.642,291.132 269.303,291.857 271.111,294.558C272.919,297.258 272.195,300.919 269.494,302.727C262.285,307.554 254.606,311.733 246.542,315.181C243.554,316.459 240.09,315.07 238.812,312.081C237.534,309.093 238.923,305.629 241.912,304.352C249.301,301.192 256.336,297.363 262.942,292.941ZM224.216,310.432C227.358,309.603 230.583,311.482 231.411,314.625C232.24,317.767 230.362,320.992 227.219,321.82C218.906,324.012 210.294,325.463 201.457,326.098C198.216,326.33 195.395,323.887 195.162,320.646C194.929,317.404 197.372,314.583 200.614,314.35C208.71,313.769 216.6,312.44 224.216,310.432ZM181.885,314.35C185.127,314.583 187.57,317.404 187.337,320.646C187.105,323.887 184.284,326.33 181.042,326.098C172.205,325.463 163.593,324.013 155.281,321.821C152.138,320.992 150.259,317.768 151.088,314.625C151.917,311.482 155.141,309.603 158.284,310.432C165.899,312.44 173.789,313.769 181.885,314.35ZM140.588,304.352C143.576,305.629 144.965,309.093 143.687,312.081C142.409,315.07 138.946,316.459 135.957,315.181C127.893,311.733 120.215,307.554 113.006,302.727C110.305,300.919 109.58,297.259 111.388,294.558C113.196,291.857 116.857,291.132 119.558,292.941C126.163,297.363 133.199,301.192 140.588,304.352ZM104.792,281.429C107.205,283.607 107.396,287.334 105.218,289.746C103.04,292.159 99.313,292.349 96.901,290.172C90.433,284.334 84.51,277.905 79.215,270.971C77.243,268.388 77.738,264.689 80.322,262.717C82.905,260.744 86.603,261.24 88.576,263.823C93.431,270.181 98.863,276.076 104.792,281.429ZM78.319,248.163C79.898,251.004 78.874,254.592 76.033,256.171C73.193,257.75 69.604,256.726 68.025,253.885C63.817,246.316 60.287,238.319 57.515,229.977C56.49,226.893 58.162,223.556 61.247,222.532C64.331,221.507 67.667,223.179 68.692,226.263C71.231,233.904 74.465,241.229 78.319,248.163ZM64.106,208.123C64.67,211.324 62.53,214.381 59.329,214.945C56.128,215.51 53.072,213.369 52.507,210.169C51.098,202.182 50.363,193.964 50.363,185.576C50.363,185.101 50.366,184.626 50.37,184.151C50.403,180.901 53.067,178.289 56.317,178.321C59.567,178.353 62.18,181.018 62.147,184.268C62.143,184.704 62.141,185.14 62.141,185.576C62.141,193.267 62.814,200.801 64.106,208.123ZM63.678,165.608C63.178,168.82 60.166,171.022 56.954,170.522C53.743,170.023 51.541,167.01 52.04,163.799C53.397,155.068 55.558,146.602 58.442,138.477C59.53,135.414 62.899,133.811 65.962,134.898C69.025,135.986 70.629,139.355 69.541,142.418C66.899,149.859 64.921,157.613 63.678,165.608ZM77.073,125.287C75.551,128.159 71.985,129.256 69.112,127.735C66.24,126.214 65.143,122.647 66.665,119.775C70.761,112.039 75.558,104.73 80.969,97.932C82.993,95.39 86.701,94.968 89.244,96.992C91.786,99.017 92.208,102.724 90.183,105.267C85.224,111.498 80.828,118.197 77.073,125.287ZM102.869,91.495C100.501,93.721 96.771,93.606 94.545,91.237C92.319,88.869 92.435,85.139 94.803,82.913C101.143,76.955 108.034,71.576 115.391,66.863C118.128,65.109 121.773,65.908 123.527,68.644C125.28,71.381 124.481,75.026 121.745,76.78C114.999,81.101 108.681,86.032 102.869,91.495ZM138.195,67.853C135.233,69.191 131.742,67.873 130.404,64.911C129.066,61.95 130.384,58.458 133.345,57.12C141.221,53.561 149.482,50.705 158.047,48.633C161.206,47.868 164.391,49.812 165.155,52.971C165.92,56.13 163.976,59.316 160.817,60.08C152.973,61.978 145.408,64.594 138.195,67.853Z" style="fill:rgb(126,211,79);"/>
            <circle cx="111.048" cy="70.568" r="35.926" style="fill:rgb(1,54,123);"/>
            <circle cx="55.607" cy="183.868" r="35.926" style="fill:rgb(1,54,123);"/>
            <path d="M68.931,187.055L59.056,187.055L59.056,197.192L52.159,197.192L52.159,187.055L42.284,187.055L42.284,180.681L52.159,180.681L52.159,170.545L59.056,170.545L59.056,180.681L68.931,180.681L68.931,187.055Z" style="fill:white;fill-rule:nonzero;"/>
            <circle cx="328.952" cy="183.868" r="35.926" style="fill:rgb(1,54,123);"/>
            <path d="M336.107,173.182L336.107,176.348L340.422,176.348L340.422,180.181L335.851,180.181C335.395,182.82 334.278,184.736 332.498,185.931C330.718,187.125 328.034,187.722 324.445,187.722L324.445,189.93C324.445,191.236 324.723,192.264 325.278,193.013C325.834,193.763 326.781,194.138 328.119,194.138C329.401,194.138 330.326,193.784 330.896,193.076C331.465,192.368 331.75,191.333 331.75,189.972L337.303,189.972C337.246,192.777 336.435,194.923 334.869,196.409C333.302,197.895 331.067,198.638 328.162,198.638C325.143,198.638 322.836,197.846 321.241,196.263C319.647,194.68 318.849,192.375 318.849,189.347L318.849,183.806C321.897,183.806 324.146,183.729 325.599,183.577C327.051,183.424 328.133,183.097 328.845,182.598C329.557,182.098 330.027,181.292 330.255,180.181L317.482,180.181L317.482,176.348L330.469,176.348L330.469,173.182L317.482,173.182L317.482,169.098L340.422,169.098L340.422,173.182L336.107,173.182Z" style="fill:white;fill-rule:nonzero;"/>
            <circle cx="111.048" cy="295.094" r="35.926" style="fill:rgb(1,54,123);"/>
            <circle cx="275.355" cy="295.094" r="35.926" style="fill:rgb(1,54,123);"/>
            <path d="M289.201,285.897L289.201,292.096L261.51,292.096L261.51,285.897L289.201,285.897ZM289.201,298.092L289.201,304.29L261.51,304.29L261.51,298.092L289.201,298.092Z" style="fill:white;fill-rule:nonzero;"/>
            <circle cx="275.355" cy="70.568" r="35.926" style="fill:rgb(1,54,123);"/>
            <path d="M121.621,301.244C121.621,302.67 121.257,304.007 120.531,305.255C119.804,306.503 118.734,307.531 117.322,308.34C115.909,309.149 114.243,309.622 112.324,309.759L112.324,313.092L109.691,313.092L109.691,309.718C106.948,309.472 104.741,308.642 103.068,307.23C101.395,305.817 100.531,303.904 100.476,301.491L106.647,301.491C106.811,303.465 107.826,304.658 109.691,305.07L109.691,297.212C107.716,296.719 106.126,296.225 104.919,295.731C103.712,295.238 102.67,294.442 101.792,293.345C100.915,292.248 100.476,290.754 100.476,288.861C100.476,286.475 101.333,284.528 103.047,283.02C104.761,281.511 106.976,280.648 109.691,280.428L109.691,277.096L112.324,277.096L112.324,280.428C114.956,280.648 117.061,281.443 118.638,282.814C120.215,284.185 121.1,286.078 121.292,288.491L115.08,288.491C114.998,287.696 114.716,287.003 114.237,286.414C113.757,285.824 113.119,285.406 112.324,285.159L112.324,292.934C114.381,293.455 116.005,293.956 117.198,294.436C118.391,294.916 119.427,295.697 120.304,296.78C121.182,297.864 121.621,299.352 121.621,301.244ZM106.482,288.573C106.482,289.479 106.756,290.212 107.305,290.774C107.853,291.337 108.649,291.796 109.691,292.152L109.691,285.036C108.703,285.173 107.922,285.543 107.346,286.146C106.77,286.75 106.482,287.559 106.482,288.573ZM112.324,305.152C113.366,304.96 114.182,304.535 114.771,303.877C115.361,303.219 115.656,302.423 115.656,301.491C115.656,300.586 115.368,299.859 114.792,299.31C114.216,298.762 113.393,298.309 112.324,297.953L112.324,305.152Z" style="fill:white;fill-rule:nonzero;"/>
            <circle cx="191.25" cy="183.868" r="77.374" style="fill:rgb(1,54,123);"/>
            <path d="M258.548,61.69C258.548,59.441 259.208,57.68 260.529,56.408C261.85,55.135 263.549,54.499 265.627,54.499C267.705,54.499 269.404,55.135 270.725,56.408C272.046,57.68 272.706,59.441 272.706,61.69C272.706,63.969 272.046,65.744 270.725,67.017C269.404,68.289 267.705,68.925 265.627,68.925C263.549,68.925 261.85,68.289 260.529,67.017C259.208,65.744 258.548,63.969 258.548,61.69ZM287.132,55.031L269.634,86.104L263.579,86.104L281.032,55.031L287.132,55.031ZM265.583,58.228C263.95,58.228 263.134,59.382 263.134,61.69C263.134,64.028 263.95,65.197 265.583,65.197C266.384,65.197 267.007,64.908 267.453,64.331C267.898,63.754 268.12,62.874 268.12,61.69C268.12,59.382 267.274,58.228 265.583,58.228ZM278.094,79.401C278.094,77.123 278.754,75.355 280.075,74.097C281.396,72.839 283.095,72.21 285.173,72.21C287.251,72.21 288.935,72.839 290.226,74.097C291.517,75.355 292.163,77.123 292.163,79.401C292.163,81.68 291.517,83.456 290.226,84.728C288.935,86.001 287.251,86.637 285.173,86.637C283.065,86.637 281.359,86.001 280.053,84.728C278.747,83.456 278.094,81.68 278.094,79.401ZM285.128,75.939C283.436,75.939 282.59,77.093 282.59,79.401C282.59,81.739 283.436,82.908 285.128,82.908C286.791,82.908 287.622,81.739 287.622,79.401C287.622,77.093 286.791,75.939 285.128,75.939Z" style="fill:white;fill-rule:nonzero;"/>
            <path d="M122.506,79.48L122.506,84.295L101.654,84.295L100.709,81.199C101.998,79.938 102.944,78.656 103.546,77.352C104.148,76.047 104.449,74.421 104.449,72.472C104.449,72.271 104.42,71.942 104.363,71.483L99.591,71.483L99.591,67.356L103.159,67.356C102.586,65.407 102.299,63.644 102.299,62.068C102.299,60.119 102.722,58.435 103.568,57.016C104.413,55.597 105.595,54.515 107.114,53.77C108.634,53.025 110.382,52.652 112.36,52.652C115.541,52.652 117.97,53.534 119.647,55.296C121.324,57.059 122.205,59.316 122.291,62.068L116.745,62.068C116.716,60.692 116.358,59.61 115.67,58.822C114.982,58.033 113.907,57.639 112.446,57.639C111.099,57.639 110.031,58.041 109.243,58.843C108.454,59.646 108.06,60.878 108.06,62.541C108.06,63.286 108.139,64.024 108.297,64.755C108.454,65.486 108.691,66.353 109.006,67.356L117.089,67.356L117.089,71.483L110.081,71.483C110.138,71.942 110.167,72.286 110.167,72.515C110.167,73.747 109.931,74.973 109.458,76.191C108.985,77.409 108.261,78.505 107.286,79.48L122.506,79.48Z" style="fill:white;fill-rule:nonzero;"/>
            <path d="M198.157,140.464L198.157,191.087C198.157,195.262 194.767,198.651 190.592,198.651C186.418,198.651 183.028,195.262 183.028,191.087L183.028,140.464C183.028,136.289 186.418,132.9 190.592,132.9C194.767,132.9 198.157,136.289 198.157,140.464Z" style="fill:white;"/>
            <path d="M231.735,160.641L195.94,196.437C192.988,199.389 188.194,199.389 185.242,196.437C182.29,193.485 182.29,188.692 185.242,185.74L221.038,149.944C223.99,146.992 228.783,146.992 231.735,149.944C234.687,152.896 234.687,157.689 231.735,160.641Z" style="fill:white;"/>
        </g>
    </g>
</svg>
