<?xml version="1.0" encoding="UTF-8" standalone="no"?>
<!DOCTYPE svg PUBLIC "-//W3C//DTD SVG 1.1//EN" "http://www.w3.org/Graphics/SVG/1.1/DTD/svg11.dtd">
<svg width="100%" height="100%" viewBox="0 0 494 494" version="1.1" xmlns="http://www.w3.org/2000/svg" xmlns:xlink="http://www.w3.org/1999/xlink" xml:space="preserve" xmlns:serif="http://www.serif.com/" style="fill-rule:evenodd;clip-rule:evenodd;stroke-linejoin:round;stroke-miterlimit:0.73;">
    <g>
        <g>
            <g style="filter:url(#_Effect1);">
                <path d="M435.953,152.488L435.953,341.465C435.953,393.614 393.614,435.953 341.465,435.953L152.488,435.953C100.339,435.953 58,393.614 58,341.465L58,152.488C58,100.339 100.339,58 152.488,58L341.465,58C393.614,58 435.953,100.339 435.953,152.488Z" style="fill:none;stroke:rgb(1,55,125);stroke-opacity:0.2;stroke-width:20px;"/>
            </g>
            <path d="M435.953,152.488L435.953,341.465C435.953,393.614 393.614,435.953 341.465,435.953L152.488,435.953C100.339,435.953 58,393.614 58,341.465L58,152.488C58,100.339 100.339,58 152.488,58L341.465,58C393.614,58 435.953,100.339 435.953,152.488Z" style="fill:white;stroke:white;stroke-width:0.46px;"/>
        </g>
        <g>
            <path d="M236.162,142.32C233.47,142.568 231.083,140.583 230.835,137.891C230.588,135.199 232.572,132.812 235.264,132.564C238.839,132.235 242.46,132.067 246.12,132.067C249.779,132.067 253.4,132.235 256.975,132.564C259.667,132.812 261.652,135.199 261.404,137.891C261.156,140.583 258.769,142.568 256.077,142.32C252.798,142.018 249.477,141.864 246.12,141.864C242.762,141.864 239.441,142.018 236.162,142.32ZM271.434,144.869C268.807,144.233 267.19,141.583 267.825,138.956C268.461,136.328 271.111,134.711 273.739,135.347C280.863,137.071 287.734,139.446 294.286,142.407C296.749,143.52 297.846,146.424 296.733,148.888C295.619,151.351 292.715,152.448 290.251,151.334C284.252,148.623 277.959,146.448 271.434,144.869ZM303.936,158.76C301.659,157.302 300.995,154.269 302.453,151.993C303.912,149.716 306.944,149.052 309.221,150.511C315.341,154.431 321.073,158.906 326.347,163.862C328.317,165.714 328.413,168.816 326.561,170.786C324.71,172.756 321.607,172.852 319.637,171.001C314.802,166.457 309.547,162.355 303.936,158.76ZM330.189,182.457C328.506,180.342 328.856,177.257 330.971,175.574C333.086,173.89 336.171,174.24 337.854,176.356C342.355,182.01 346.345,188.09 349.753,194.524C351.018,196.913 350.106,199.88 347.717,201.146C345.328,202.411 342.361,201.499 341.095,199.11C337.972,193.212 334.315,187.64 330.189,182.457ZM347.36,213.36C346.455,210.812 347.789,208.009 350.337,207.104C352.885,206.2 355.688,207.534 356.592,210.082C358.992,216.84 360.789,223.882 361.918,231.145C362.333,233.816 360.502,236.322 357.83,236.738C355.159,237.153 352.653,235.321 352.237,232.65C351.203,225.999 349.558,219.549 347.36,213.36ZM353.51,248.172C353.484,245.468 355.657,243.252 358.36,243.225C361.063,243.198 363.28,245.371 363.307,248.075C363.311,248.469 363.313,248.864 363.313,249.26C363.313,256.238 362.701,263.073 361.53,269.717C361.06,272.379 358.517,274.16 355.855,273.69C353.192,273.22 351.412,270.678 351.882,268.015C352.956,261.924 353.516,255.657 353.516,249.26C353.516,248.897 353.514,248.534 353.51,248.172ZM348.066,283.105C348.919,280.539 351.694,279.148 354.26,280.001C356.825,280.853 358.216,283.628 357.364,286.194C355.058,293.133 352.121,299.785 348.621,306.081C347.308,308.444 344.323,309.296 341.96,307.983C339.597,306.669 338.745,303.684 340.058,301.321C343.264,295.554 345.955,289.461 348.066,283.105ZM331.527,314.348C333.167,312.199 336.244,311.787 338.393,313.428C340.541,315.068 340.954,318.145 339.313,320.294C334.909,326.062 329.981,331.409 324.602,336.265C322.595,338.077 319.495,337.918 317.683,335.912C315.872,333.905 316.03,330.805 318.037,328.993C322.97,324.54 327.488,319.637 331.527,314.348ZM305.755,338.569C308.001,337.065 311.046,337.667 312.551,339.914C314.055,342.16 313.452,345.205 311.205,346.71C305.209,350.724 298.821,354.201 292.113,357.069C289.627,358.132 286.746,356.976 285.683,354.491C284.62,352.005 285.776,349.124 288.262,348.061C294.408,345.433 300.26,342.247 305.755,338.569ZM273.542,353.119C276.156,352.429 278.838,353.992 279.527,356.606C280.217,359.22 278.654,361.902 276.04,362.592C269.125,364.415 261.961,365.622 254.611,366.15C251.914,366.343 249.568,364.311 249.374,361.615C249.18,358.918 251.213,356.571 253.909,356.378C260.644,355.895 267.207,354.789 273.542,353.119ZM238.33,356.378C241.027,356.571 243.059,358.918 242.865,361.615C242.672,364.311 240.325,366.343 237.629,366.15C230.278,365.622 223.114,364.415 216.199,362.592C213.585,361.902 212.023,359.22 212.712,356.606C213.401,353.992 216.083,352.429 218.698,353.119C225.032,354.789 231.596,355.895 238.33,356.378ZM203.978,348.061C206.463,349.124 207.619,352.005 206.556,354.491C205.493,356.976 202.612,358.132 200.126,357.069C193.418,354.201 187.031,350.724 181.034,346.71C178.787,345.206 178.185,342.16 179.689,339.914C181.193,337.667 184.238,337.065 186.484,338.569C191.979,342.247 197.831,345.433 203.978,348.061ZM174.202,328.993C176.209,330.805 176.367,333.905 174.556,335.912C172.744,337.918 169.644,338.077 167.637,336.265C162.258,331.409 157.33,326.062 152.926,320.294C151.285,318.145 151.698,315.069 153.846,313.428C155.995,311.787 159.072,312.199 160.713,314.348C164.751,319.637 169.269,324.54 174.202,328.993ZM152.181,301.321C153.494,303.684 152.642,306.669 150.279,307.983C147.916,309.296 144.932,308.444 143.618,306.081C140.118,299.785 137.181,293.133 134.875,286.194C134.023,283.628 135.414,280.853 137.98,280.001C140.545,279.148 143.32,280.539 144.173,283.105C146.284,289.461 148.975,295.554 152.181,301.321ZM140.358,268.015C140.827,270.678 139.047,273.22 136.384,273.69C133.722,274.16 131.179,272.379 130.71,269.717C129.538,263.073 128.926,256.238 128.926,249.26C128.926,248.864 128.928,248.469 128.932,248.075C128.959,245.371 131.176,243.198 133.879,243.225C136.583,243.252 138.756,245.468 138.729,248.172C138.725,248.534 138.723,248.897 138.723,249.26C138.723,255.657 139.283,261.924 140.358,268.015ZM140.002,232.65C139.586,235.322 137.08,237.153 134.409,236.738C131.737,236.322 129.906,233.816 130.321,231.145C131.45,223.883 133.247,216.84 135.647,210.082C136.551,207.534 139.354,206.2 141.902,207.105C144.45,208.009 145.784,210.812 144.879,213.36C142.681,219.549 141.036,225.999 140.002,232.65ZM151.144,199.11C149.879,201.499 146.912,202.411 144.522,201.146C142.133,199.88 141.221,196.913 142.486,194.524C145.894,188.09 149.884,182.01 154.385,176.355C156.068,174.24 159.153,173.89 161.268,175.574C163.383,177.257 163.734,180.342 162.05,182.457C157.924,187.64 154.267,193.212 151.144,199.11ZM172.602,171.001C170.632,172.852 167.529,172.756 165.678,170.786C163.826,168.816 163.922,165.714 165.892,163.862C171.166,158.906 176.898,154.431 183.019,150.511C185.295,149.052 188.327,149.716 189.786,151.993C191.244,154.269 190.58,157.302 188.303,158.76C182.692,162.355 177.437,166.457 172.602,171.001ZM201.987,151.334C199.524,152.448 196.62,151.351 195.506,148.888C194.393,146.424 195.489,143.52 197.953,142.407C204.505,139.446 211.376,137.071 218.5,135.347C221.128,134.711 223.778,136.328 224.414,138.956C225.049,141.583 223.432,144.233 220.805,144.869C214.28,146.448 207.987,148.623 201.987,151.334Z" style="fill:rgb(126,211,79);"/>
            <circle cx="179.406" cy="153.593" r="29.884" style="fill:rgb(1,54,123);"/>
            <circle cx="133.288" cy="247.839" r="29.884" style="fill:rgb(1,54,123);"/>
            <path d="M144.371,250.491L136.157,250.491L136.157,258.922L130.42,258.922L130.42,250.491L122.206,250.491L122.206,245.188L130.42,245.188L130.42,236.756L136.157,236.756L136.157,245.188L144.371,245.188L144.371,250.491Z" style="fill:white;fill-rule:nonzero;"/>
            <circle cx="360.664" cy="247.839" r="29.884" style="fill:rgb(1,54,123);"/>
            <path d="M366.616,238.95L366.616,241.584L370.205,241.584L370.205,244.772L366.403,244.772C366.024,246.967 365.094,248.561 363.614,249.555C362.133,250.548 359.9,251.045 356.915,251.045L356.915,252.882C356.915,253.968 357.146,254.823 357.608,255.447C358.07,256.07 358.858,256.382 359.971,256.382C361.037,256.382 361.807,256.088 362.281,255.499C362.755,254.909 362.992,254.049 362.992,252.917L367.611,252.917C367.564,255.25 366.889,257.035 365.586,258.271C364.283,259.507 362.423,260.125 360.007,260.125C357.496,260.125 355.577,259.467 354.25,258.15C352.924,256.833 352.261,254.915 352.261,252.397L352.261,247.787C354.795,247.787 356.667,247.724 357.875,247.597C359.083,247.47 359.983,247.198 360.575,246.782C361.168,246.366 361.559,245.696 361.748,244.772L351.123,244.772L351.123,241.584L361.926,241.584L361.926,238.95L351.123,238.95L351.123,235.553L370.205,235.553L370.205,238.95L366.616,238.95Z" style="fill:white;fill-rule:nonzero;"/>
            <circle cx="179.406" cy="340.36" r="29.884" style="fill:rgb(1,54,123);"/>
            <circle cx="316.081" cy="340.36" r="29.884" style="fill:rgb(1,54,123);"/>
            <path d="M327.598,332.71L327.598,337.866L304.564,337.866L304.564,332.71L327.598,332.71ZM327.598,342.853L327.598,348.01L304.564,348.01L304.564,342.853L327.598,342.853Z" style="fill:white;fill-rule:nonzero;"/>
            <circle cx="316.081" cy="153.593" r="29.884" style="fill:rgb(1,54,123);"/>
            <path d="M188.2,345.476C188.2,346.662 187.898,347.774 187.294,348.812C186.689,349.85 185.799,350.706 184.624,351.379C183.449,352.052 182.064,352.445 180.467,352.559L180.467,355.331L178.277,355.331L178.277,352.525C175.995,352.32 174.159,351.63 172.767,350.455C171.376,349.28 170.657,347.689 170.611,345.681L175.744,345.681C175.881,347.324 176.725,348.316 178.277,348.658L178.277,342.122C176.634,341.712 175.311,341.301 174.307,340.89C173.303,340.48 172.436,339.818 171.706,338.906C170.976,337.993 170.611,336.75 170.611,335.176C170.611,333.191 171.324,331.571 172.75,330.316C174.176,329.062 176.018,328.343 178.277,328.161L178.277,325.389L180.467,325.389L180.467,328.161C182.657,328.343 184.408,329.005 185.719,330.145C187.031,331.286 187.767,332.86 187.927,334.868L182.759,334.868C182.691,334.206 182.457,333.63 182.058,333.14C181.659,332.649 181.128,332.301 180.467,332.096L180.467,338.563C182.178,338.997 183.529,339.413 184.522,339.812C185.514,340.212 186.375,340.862 187.105,341.763C187.835,342.664 188.2,343.902 188.2,345.476ZM175.607,334.936C175.607,335.689 175.836,336.299 176.292,336.767C176.748,337.234 177.41,337.617 178.277,337.913L178.277,331.993C177.455,332.107 176.805,332.415 176.326,332.917C175.847,333.419 175.607,334.092 175.607,334.936ZM180.467,348.727C181.334,348.567 182.012,348.213 182.503,347.666C182.993,347.118 183.238,346.457 183.238,345.681C183.238,344.928 182.999,344.324 182.52,343.867C182.041,343.411 181.356,343.035 180.467,342.738L180.467,348.727Z" style="fill:white;fill-rule:nonzero;"/>
            <circle cx="246.12" cy="247.839" r="64.362" style="fill:rgb(1,54,123);"/>
            <path d="M302.1,146.208C302.1,144.337 302.649,142.872 303.748,141.814C304.847,140.755 306.26,140.226 307.989,140.226C309.717,140.226 311.131,140.755 312.229,141.814C313.328,142.872 313.877,144.337 313.877,146.208C313.877,148.103 313.328,149.58 312.229,150.639C311.131,151.697 309.717,152.227 307.989,152.227C306.26,152.227 304.847,151.697 303.748,150.639C302.649,149.58 302.1,148.103 302.1,146.208ZM325.877,140.669L311.322,166.517L306.285,166.517L320.803,140.669L325.877,140.669ZM307.952,143.328C306.594,143.328 305.915,144.288 305.915,146.208C305.915,148.153 306.594,149.125 307.952,149.125C308.618,149.125 309.137,148.885 309.507,148.405C309.878,147.925 310.063,147.193 310.063,146.208C310.063,144.288 309.359,143.328 307.952,143.328ZM318.359,160.941C318.359,159.045 318.908,157.575 320.007,156.528C321.106,155.482 322.519,154.959 324.248,154.959C325.976,154.959 327.377,155.482 328.451,156.528C329.525,157.575 330.062,159.045 330.062,160.941C330.062,162.836 329.525,164.313 328.451,165.372C327.377,166.43 325.976,166.96 324.248,166.96C322.494,166.96 321.075,166.43 319.988,165.372C318.902,164.313 318.359,162.836 318.359,160.941ZM324.21,158.061C322.803,158.061 322.099,159.021 322.099,160.941C322.099,162.886 322.803,163.858 324.21,163.858C325.593,163.858 326.284,162.886 326.284,160.941C326.284,159.021 325.593,158.061 324.21,158.061Z" style="fill:white;fill-rule:nonzero;"/>
            <path d="M188.937,161.006L188.937,165.011L171.592,165.011L170.805,162.437C171.878,161.387 172.665,160.321 173.165,159.236C173.666,158.151 173.916,156.798 173.916,155.177C173.916,155.01 173.892,154.736 173.845,154.354L169.875,154.354L169.875,150.921L172.843,150.921C172.367,149.3 172.128,147.833 172.128,146.522C172.128,144.901 172.48,143.5 173.183,142.32C173.887,141.14 174.87,140.24 176.134,139.62C177.397,139 178.852,138.69 180.497,138.69C183.143,138.69 185.164,139.423 186.558,140.89C187.953,142.356 188.686,144.233 188.758,146.522L184.144,146.522C184.121,145.378 183.823,144.478 183.25,143.822C182.678,143.166 181.784,142.839 180.568,142.839C179.448,142.839 178.559,143.172 177.904,143.84C177.248,144.507 176.92,145.533 176.92,146.916C176.92,147.535 176.986,148.149 177.117,148.757C177.248,149.365 177.445,150.086 177.707,150.921L184.431,150.921L184.431,154.354L178.601,154.354C178.649,154.736 178.673,155.022 178.673,155.212C178.673,156.238 178.476,157.257 178.083,158.27C177.689,159.283 177.087,160.195 176.277,161.006L188.937,161.006Z" style="fill:white;fill-rule:nonzero;"/>
            <path d="M251.865,211.734L251.865,253.844C251.865,257.317 249.046,260.136 245.573,260.136C242.1,260.136 239.281,257.317 239.281,253.844L239.281,211.734C239.281,208.262 242.1,205.442 245.573,205.442C249.046,205.442 251.865,208.262 251.865,211.734Z" style="fill:white;"/>
            <path d="M279.797,228.518L250.021,258.294C247.565,260.75 243.578,260.75 241.122,258.294C238.667,255.839 238.667,251.851 241.122,249.396L270.898,219.62C273.354,217.164 277.341,217.164 279.797,219.62C282.252,222.076 282.252,226.063 279.797,228.518Z" style="fill:white;"/>
        </g>
    </g>
    <defs>
        <filter id="_Effect1" filterUnits="userSpaceOnUse" x="-48" y="-48" width="589.953" height="589.953">
            <feGaussianBlur in="SourceGraphic" stdDeviation="16"/>
        </filter>
    </defs>
</svg>
