<?xml version="1.0" encoding="UTF-8" standalone="no"?>
<!DOCTYPE svg PUBLIC "-//W3C//DTD SVG 1.1//EN" "http://www.w3.org/Graphics/SVG/1.1/DTD/svg11.dtd">
<svg width="100%" height="100%" viewBox="0 0 494 494" version="1.1" xmlns="http://www.w3.org/2000/svg" xmlns:xlink="http://www.w3.org/1999/xlink" xml:space="preserve" xmlns:serif="http://www.serif.com/" style="fill-rule:evenodd;clip-rule:evenodd;stroke-linejoin:round;stroke-miterlimit:0.73;">
    <g>
        <g>
            <g style="filter:url(#_Effect1);">
                <path d="M435.953,152.488L435.953,341.465C435.953,393.614 393.614,435.953 341.465,435.953L152.488,435.953C100.339,435.953 58,393.614 58,341.465L58,152.488C58,100.339 100.339,58 152.488,58L341.465,58C393.614,58 435.953,100.339 435.953,152.488Z" style="fill:none;stroke:rgb(1,55,125);stroke-opacity:0.2;stroke-width:20px;"/>
            </g>
            <path d="M435.953,152.488L435.953,341.465C435.953,393.614 393.614,435.953 341.465,435.953L152.488,435.953C100.339,435.953 58,393.614 58,341.465L58,152.488C58,100.339 100.339,58 152.488,58L341.465,58C393.614,58 435.953,100.339 435.953,152.488Z" style="fill:white;stroke:white;stroke-width:0.46px;"/>
        </g>
        <g>
            <path d="M250.784,337.773C250.784,349.129 241.564,358.348 230.209,358.348L159.627,358.348C148.272,358.348 139.053,349.129 139.053,337.773C139.053,326.417 148.272,317.198 159.627,317.198L230.209,317.198C241.564,317.198 250.784,326.417 250.784,337.773Z" style="fill:rgb(1,54,123);"/>
            <path d="M276.818,291.97C276.818,303.325 267.598,312.545 256.243,312.545L185.661,312.545C174.306,312.545 165.087,303.325 165.087,291.97C165.087,280.614 174.306,271.395 185.661,271.395L256.243,271.395C267.598,271.395 276.818,280.614 276.818,291.97Z" style="fill:rgb(126,211,79);"/>
            <path d="M250.784,246.166C250.784,257.522 241.564,266.741 230.209,266.741L159.627,266.741C148.272,266.741 139.053,257.522 139.053,246.166C139.053,234.811 148.272,225.592 159.627,225.592L230.209,225.592C241.564,225.592 250.784,234.811 250.784,246.166Z" style="fill:rgb(1,54,123);"/>
            <path d="M276.818,200.363C276.818,211.719 267.598,220.938 256.243,220.938L185.661,220.938C174.306,220.938 165.087,211.719 165.087,200.363C165.087,189.008 174.306,179.788 185.661,179.788L256.243,179.788C267.598,179.788 276.818,189.008 276.818,200.363Z" style="fill:rgb(126,211,79);"/>
            <path d="M250.784,154.56C250.784,165.916 241.564,175.135 230.209,175.135L159.627,175.135C148.272,175.135 139.053,165.916 139.053,154.56C139.053,143.204 148.272,133.985 159.627,133.985L230.209,133.985C241.564,133.985 250.784,143.204 250.784,154.56Z" style="fill:rgb(1,54,123);"/>
            <g>
                <circle cx="300.545" cy="177.589" r="51.66" style="fill:none;stroke:white;stroke-width:15.35px;stroke-linecap:round;stroke-miterlimit:0.348837;"/>
                <circle cx="300.545" cy="177.589" r="51.66" style="fill:rgb(1,54,124);"/>
                <path d="M320.608,189.26C320.608,191.966 319.918,194.504 318.539,196.872C317.16,199.24 315.13,201.191 312.45,202.727C309.77,204.262 306.608,205.16 302.965,205.42L302.965,211.743L297.968,211.743L297.968,205.342C292.764,204.873 288.574,203.299 285.4,200.619C282.225,197.939 280.586,194.308 280.481,189.729L292.192,189.729C292.504,193.476 294.429,195.74 297.968,196.52L297.968,181.61C294.221,180.673 291.203,179.736 288.913,178.799C286.623,177.862 284.645,176.353 282.98,174.271C281.314,172.19 280.481,169.353 280.481,165.762C280.481,161.234 282.108,157.539 285.361,154.677C288.613,151.814 292.816,150.175 297.968,149.758L297.968,143.435L302.965,143.435L302.965,149.758C307.961,150.175 311.955,151.684 314.948,154.286C317.941,156.888 319.619,160.48 319.983,165.059L308.195,165.059C308.039,163.55 307.506,162.236 306.595,161.117C305.684,159.998 304.474,159.204 302.965,158.736L302.965,173.491C306.868,174.479 309.952,175.429 312.216,176.34C314.48,177.251 316.444,178.734 318.11,180.79C319.775,182.846 320.608,185.669 320.608,189.26ZM291.879,165.216C291.879,166.933 292.4,168.325 293.441,169.392C294.481,170.459 295.991,171.331 297.968,172.007L297.968,158.502C296.095,158.762 294.612,159.465 293.519,160.61C292.426,161.755 291.879,163.29 291.879,165.216ZM302.965,196.676C304.942,196.312 306.491,195.505 307.61,194.256C308.729,193.007 309.288,191.498 309.288,189.729C309.288,188.011 308.742,186.632 307.649,185.591C306.556,184.55 304.994,183.691 302.965,183.015L302.965,196.676Z" style="fill:white;fill-rule:nonzero;"/>
            </g>
            <g>
                <circle cx="280.091" cy="289.646" r="51.66" style="fill:none;stroke:white;stroke-width:16.4px;stroke-linecap:round;stroke-miterlimit:0.348837;"/>
                <circle cx="280.091" cy="289.646" r="51.66" style="fill:rgb(1,54,124);"/>
                <path d="M300.545,308.499L300.545,317.243L262.682,317.243L260.965,311.622C263.307,309.332 265.024,307.003 266.117,304.635C267.21,302.267 267.757,299.314 267.757,295.775C267.757,295.41 267.705,294.812 267.6,293.979L258.935,293.979L258.935,286.485L265.415,286.485C264.374,282.946 263.853,279.745 263.853,276.882C263.853,273.343 264.621,270.286 266.156,267.71C267.692,265.133 269.838,263.169 272.597,261.815C275.355,260.462 278.53,259.786 282.121,259.786C287.898,259.786 292.309,261.386 295.353,264.587C298.398,267.788 299.998,271.886 300.154,276.882L290.084,276.882C290.032,274.384 289.381,272.42 288.132,270.988C286.883,269.557 284.931,268.841 282.277,268.841C279.831,268.841 277.892,269.57 276.461,271.027C275.03,272.485 274.314,274.723 274.314,277.741C274.314,279.094 274.457,280.434 274.744,281.762C275.03,283.089 275.459,284.663 276.032,286.485L290.708,286.485L290.708,293.979L277.983,293.979C278.087,294.812 278.139,295.436 278.139,295.853C278.139,298.09 277.71,300.315 276.851,302.527C275.993,304.739 274.679,306.73 272.909,308.499L300.545,308.499Z" style="fill:white;fill-rule:nonzero;"/>
            </g>
        </g>
    </g>
    <defs>
        <filter id="_Effect1" filterUnits="userSpaceOnUse" x="-48" y="-48" width="589.953" height="589.953">
            <feGaussianBlur in="SourceGraphic" stdDeviation="16"/>
        </filter>
    </defs>
</svg>
