<?xml version="1.0" encoding="UTF-8" standalone="no"?>
<!DOCTYPE svg PUBLIC "-//W3C//DTD SVG 1.1//EN" "http://www.w3.org/Graphics/SVG/1.1/DTD/svg11.dtd">
<svg width="100%" height="100%" viewBox="0 0 494 494" version="1.1" xmlns="http://www.w3.org/2000/svg" xmlns:xlink="http://www.w3.org/1999/xlink" xml:space="preserve" xmlns:serif="http://www.serif.com/" style="fill-rule:evenodd;clip-rule:evenodd;stroke-linejoin:round;stroke-miterlimit:0.73;">
    <g>
        <g>
            <g style="filter:url(#_Effect1);">
                <path d="M435.953,152.488L435.953,341.465C435.953,393.614 393.614,435.953 341.465,435.953L152.488,435.953C100.339,435.953 58,393.614 58,341.465L58,152.488C58,100.339 100.339,58 152.488,58L341.465,58C393.614,58 435.953,100.339 435.953,152.488Z" style="fill:none;stroke:rgb(1,55,125);stroke-opacity:0.2;stroke-width:20px;"/>
            </g>
            <path d="M435.953,152.488L435.953,341.465C435.953,393.614 393.614,435.953 341.465,435.953L152.488,435.953C100.339,435.953 58,393.614 58,341.465L58,152.488C58,100.339 100.339,58 152.488,58L341.465,58C393.614,58 435.953,100.339 435.953,152.488Z" style="fill:white;stroke:white;stroke-width:0.46px;"/>
        </g>
        <g>
            <g>
                <path d="M301.611,220.262L301.611,274.387C301.611,289.324 289.485,301.45 274.549,301.45L197.307,301.45C182.371,301.45 170.244,289.324 170.244,274.387L170.244,220.262C170.244,205.325 182.371,193.199 197.307,193.199L274.549,193.199C289.485,193.199 301.611,205.325 301.611,220.262Z" style="fill:rgb(1,54,124);"/>
                <ellipse cx="190.544" cy="210.191" rx="6.829" ry="6.884" style="fill:white;"/>
                <ellipse cx="280.208" cy="210.191" rx="6.829" ry="6.884" style="fill:white;"/>
                <g>
                    <ellipse cx="235.989" cy="238.288" rx="3.316" ry="3.342" style="fill:white;"/>
                    <ellipse cx="254.24" cy="238.288" rx="3.316" ry="3.342" style="fill:white;"/>
                    <ellipse cx="272.491" cy="238.288" rx="3.316" ry="3.342" style="fill:white;"/>
                </g>
                <g>
                    <ellipse cx="199.343" cy="252.502" rx="3.316" ry="3.342" style="fill:white;"/>
                    <ellipse cx="217.594" cy="252.502" rx="3.316" ry="3.342" style="fill:white;"/>
                    <ellipse cx="235.845" cy="252.502" rx="3.316" ry="3.342" style="fill:white;"/>
                    <ellipse cx="254.096" cy="252.502" rx="3.316" ry="3.342" style="fill:white;"/>
                    <ellipse cx="272.347" cy="252.502" rx="3.316" ry="3.342" style="fill:white;"/>
                </g>
                <g>
                    <ellipse cx="199.509" cy="265.066" rx="3.316" ry="3.342" style="fill:white;"/>
                    <ellipse cx="217.76" cy="265.066" rx="3.316" ry="3.342" style="fill:white;"/>
                    <ellipse cx="236.011" cy="265.066" rx="3.316" ry="3.342" style="fill:white;"/>
                    <ellipse cx="254.262" cy="265.066" rx="3.316" ry="3.342" style="fill:white;"/>
                    <ellipse cx="272.513" cy="265.066" rx="3.316" ry="3.342" style="fill:white;"/>
                </g>
                <g>
                    <ellipse cx="199.404" cy="278.52" rx="3.316" ry="3.342" style="fill:white;"/>
                    <ellipse cx="217.656" cy="278.52" rx="3.316" ry="3.342" style="fill:white;"/>
                    <ellipse cx="235.907" cy="278.52" rx="3.316" ry="3.342" style="fill:white;"/>
                    <ellipse cx="254.158" cy="278.52" rx="3.316" ry="3.342" style="fill:white;"/>
                </g>
                <path d="M226.551,203.329L226.551,205.742L222.61,205.742L222.61,218.237L219.643,218.237L219.643,205.742L215.702,205.742L215.702,203.329L226.551,203.329Z" style="fill:rgb(124,210,76);fill-rule:nonzero;"/>
                <path d="M237.782,215.397L231.891,215.397L230.916,218.237L227.802,218.237L233.12,203.308L236.574,203.308L241.893,218.237L238.757,218.237L237.782,215.397ZM236.977,213.004L234.837,206.768L232.696,213.004L236.977,213.004Z" style="fill:rgb(124,210,76);fill-rule:nonzero;"/>
                <path d="M252.742,218.237L249.542,213.218L246.639,218.237L243.291,218.237L247.953,210.719L243.228,203.329L246.639,203.329L249.839,208.327L252.721,203.329L256.069,203.329L251.428,210.826L256.153,218.237L252.742,218.237Z" style="fill:rgb(124,210,76);fill-rule:nonzero;"/>
            </g>
            <path d="M183.715,347.095C183.715,347.095 184.042,346.536 184.582,345.613C189.8,336.689 200.638,332.751 210.368,336.242C220.5,339.858 231.217,341.725 242.061,341.725C294.162,341.725 336.462,299.426 336.462,247.325C336.462,195.223 294.162,152.924 242.061,152.924C225.312,152.924 208.864,157.38 194.406,165.835L183.715,147.554C201.417,137.202 221.554,131.746 242.061,131.746C305.85,131.746 357.639,183.535 357.639,247.325C357.639,311.114 305.85,362.903 242.061,362.903C221.554,362.903 201.417,357.447 183.715,347.095Z" style="fill:rgb(126,211,79);"/>
            <path d="M163.054,174.255C161.688,174.27 160.421,173.548 159.738,172.365C159.056,171.183 159.064,169.724 159.76,168.55C163.984,161.418 171.115,149.377 175.279,142.347C175.963,141.192 177.209,140.486 178.552,140.494C179.894,140.501 181.132,141.221 181.804,142.383C185.839,149.373 192.701,161.258 196.736,168.247C197.408,169.41 197.412,170.842 196.747,172.009C196.082,173.175 194.848,173.901 193.505,173.916C185.336,174.007 171.342,174.163 163.054,174.255Z" style="fill:rgb(1,54,123);"/>
            <circle cx="168.566" cy="321.346" r="9.661" style="fill:rgb(1,54,123);"/>
            <path d="M262.644,285.634L263.073,287.724C263.904,287.851 264.718,288.069 265.502,288.375L266.918,286.779C267.711,287.14 268.467,287.576 269.176,288.083L268.503,290.107C269.159,290.633 269.755,291.229 270.281,291.885L272.305,291.212C272.812,291.921 273.248,292.677 273.609,293.47L272.013,294.886C272.319,295.67 272.537,296.484 272.664,297.315L274.754,297.744C274.838,298.611 274.838,299.484 274.754,300.351L272.664,300.78C272.537,301.611 272.319,302.426 272.013,303.209L273.609,304.626C273.248,305.419 272.812,306.175 272.305,306.883L270.281,306.21C269.755,306.866 269.159,307.462 268.503,307.988L269.176,310.013C268.467,310.519 267.711,310.956 266.918,311.316L265.502,309.721C264.718,310.026 263.904,310.244 263.073,310.371L262.644,312.461C261.777,312.546 260.904,312.546 260.037,312.461L259.608,310.371C258.777,310.244 257.962,310.026 257.179,309.721L255.762,311.316C254.969,310.956 254.213,310.519 253.505,310.013L254.178,307.988C253.522,307.462 252.926,306.866 252.4,306.21L250.375,306.883C249.869,306.175 249.432,305.419 249.072,304.626L250.667,303.209C250.362,302.426 250.144,301.611 250.017,300.78L247.927,300.351C247.842,299.484 247.842,298.611 247.927,297.744L250.017,297.315C250.144,296.484 250.362,295.67 250.667,294.886L249.072,293.47C249.432,292.677 249.869,291.921 250.375,291.212L252.4,291.885C252.926,291.229 253.522,290.633 254.178,290.107L253.505,288.083C254.213,287.576 254.969,287.14 255.762,286.779L257.179,288.375C257.962,288.069 258.777,287.851 259.608,287.724L260.037,285.634C260.904,285.55 261.777,285.55 262.644,285.634ZM261.34,292.64C264.877,292.64 267.748,295.511 267.748,299.048C267.748,302.584 264.877,305.455 261.34,305.455C257.804,305.455 254.933,302.584 254.933,299.048C254.933,295.511 257.804,292.64 261.34,292.64Z" style="fill:white;"/>
            <path d="M226.252,161.573L226.681,163.663C227.512,163.79 228.326,164.008 229.109,164.314L230.526,162.718C231.319,163.079 232.075,163.515 232.784,164.021L232.111,166.046C232.767,166.572 233.363,167.168 233.888,167.824L235.913,167.151C236.42,167.859 236.856,168.615 237.217,169.408L235.621,170.825C235.927,171.608 236.145,172.423 236.272,173.254L238.362,173.683C238.446,174.55 238.446,175.423 238.362,176.29L236.272,176.719C236.145,177.55 235.927,178.365 235.621,179.148L237.217,180.565C236.856,181.357 236.42,182.114 235.913,182.822L233.888,182.149C233.363,182.805 232.767,183.401 232.111,183.927L232.784,185.951C232.075,186.458 231.319,186.894 230.526,187.255L229.109,185.659C228.326,185.965 227.512,186.183 226.681,186.31L226.252,188.4C225.385,188.485 224.512,188.485 223.645,188.4L223.215,186.31C222.385,186.183 221.57,185.965 220.787,185.659L219.37,187.255C218.577,186.894 217.821,186.458 217.113,185.951L217.786,183.927C217.13,183.401 216.534,182.805 216.008,182.149L213.983,182.822C213.477,182.114 213.04,181.357 212.68,180.565L214.275,179.148C213.97,178.365 213.752,177.55 213.625,176.719L211.534,176.29C211.45,175.423 211.45,174.55 211.534,173.683L213.625,173.254C213.752,172.423 213.97,171.608 214.275,170.825L212.68,169.408C213.04,168.615 213.477,167.859 213.983,167.151L216.008,167.824C216.534,167.168 217.13,166.572 217.786,166.046L217.113,164.021C217.821,163.515 218.577,163.079 219.37,162.718L220.787,164.314C221.57,164.008 222.385,163.79 223.215,163.663L223.645,161.573C224.512,161.488 225.385,161.488 226.252,161.573ZM224.948,168.579C228.485,168.579 231.356,171.45 231.356,174.986C231.356,178.523 228.485,181.394 224.948,181.394C221.412,181.394 218.541,178.523 218.541,174.986C218.541,171.45 221.412,168.579 224.948,168.579Z" style="fill:rgb(1,54,123);"/>
            <path d="M296.224,136.616L297.053,140.653C298.658,140.898 300.231,141.319 301.743,141.909L304.479,138.828C306.011,139.524 307.471,140.367 308.839,141.345L307.539,145.255C308.806,146.27 309.957,147.422 310.972,148.688L314.882,147.388C315.86,148.757 316.703,150.217 317.399,151.748L314.318,154.484C314.908,155.997 315.329,157.569 315.575,159.174L319.611,160.003C319.774,161.677 319.774,163.363 319.611,165.037L315.575,165.866C315.329,167.471 314.908,169.044 314.318,170.556L317.399,173.292C316.703,174.823 315.86,176.284 314.882,177.652L310.972,176.352C309.957,177.619 308.806,178.77 307.539,179.785L308.839,183.695C307.471,184.673 306.011,185.516 304.479,186.212L301.743,183.131C300.231,183.721 298.658,184.142 297.053,184.388L296.224,188.424C294.55,188.587 292.864,188.587 291.19,188.424L290.361,184.388C288.756,184.142 287.184,183.721 285.671,183.131L282.935,186.212C281.404,185.516 279.944,184.673 278.575,183.695L279.876,179.785C278.609,178.77 277.457,177.619 276.442,176.352L272.532,177.652C271.554,176.284 270.711,174.823 270.015,173.292L273.096,170.556C272.507,169.044 272.085,167.471 271.84,165.866L267.803,165.037C267.641,163.363 267.641,161.677 267.803,160.003L271.84,159.174C272.085,157.569 272.507,155.997 273.096,154.484L270.015,151.748C270.711,150.217 271.554,148.757 272.532,147.388L276.442,148.688C277.457,147.422 278.609,146.27 279.876,145.255L278.575,141.345C279.944,140.367 281.404,139.524 282.935,138.828L285.671,141.909C287.184,141.319 288.756,140.898 290.361,140.653L291.19,136.616C292.864,136.453 294.55,136.453 296.224,136.616ZM293.707,150.146C300.537,150.146 306.081,155.691 306.081,162.52C306.081,169.35 300.537,174.894 293.707,174.894C286.878,174.894 281.333,169.35 281.333,162.52C281.333,155.691 286.878,150.146 293.707,150.146Z" style="fill:rgb(1,54,123);"/>
            <path d="M323.184,285.738L324.32,291.271C326.52,291.608 328.676,292.185 330.749,292.994L334.5,288.77C336.599,289.724 338.6,290.88 340.476,292.22L338.694,297.58C340.43,298.972 342.008,300.55 343.4,302.287L348.76,300.504C350.1,302.38 351.256,304.382 352.21,306.481L347.987,310.231C348.795,312.305 349.373,314.46 349.709,316.66L355.242,317.796C355.465,320.091 355.465,322.402 355.242,324.697L349.709,325.834C349.373,328.033 348.795,330.189 347.987,332.262L352.21,336.013C351.256,338.112 350.1,340.114 348.76,341.989L343.4,340.207C342.008,341.944 340.43,343.522 338.694,344.913L340.476,350.273C338.6,351.614 336.599,352.769 334.5,353.724L330.749,349.5C328.676,350.309 326.52,350.886 324.32,351.223L323.184,356.756C320.889,356.979 318.578,356.979 316.283,356.756L315.146,351.223C312.947,350.886 310.791,350.309 308.718,349.5L304.967,353.724C302.868,352.769 300.867,351.614 298.991,350.273L300.773,344.913C299.036,343.522 297.458,341.944 296.067,340.207L290.707,341.989C289.366,340.114 288.211,338.112 287.256,336.013L291.48,332.262C290.672,330.189 290.094,328.033 289.757,325.834L284.224,324.697C284.001,322.402 284.001,320.091 284.224,317.796L289.757,316.66C290.094,314.46 290.672,312.305 291.48,310.231L287.256,306.481C288.211,304.382 289.366,302.38 290.707,300.504L296.067,302.287C297.458,300.55 299.036,298.972 300.773,297.58L298.991,292.22C300.867,290.88 302.868,289.724 304.967,288.77L308.718,292.994C310.791,292.185 312.947,291.608 315.146,291.271L316.283,285.738C318.578,285.515 320.889,285.515 323.184,285.738ZM319.733,304.285C329.095,304.285 336.695,311.885 336.695,321.247C336.695,330.608 329.095,338.209 319.733,338.209C310.372,338.209 302.771,330.608 302.771,321.247C302.771,311.885 310.372,304.285 319.733,304.285Z" style="fill:rgb(1,54,123);"/>
        </g>
    </g>
    <defs>
        <filter id="_Effect1" filterUnits="userSpaceOnUse" x="-48" y="-48" width="589.953" height="589.953">
            <feGaussianBlur in="SourceGraphic" stdDeviation="16"/>
        </filter>
    </defs>
</svg>
