<?xml version="1.0" encoding="UTF-8" standalone="no"?>
<!DOCTYPE svg PUBLIC "-//W3C//DTD SVG 1.1//EN" "http://www.w3.org/Graphics/SVG/1.1/DTD/svg11.dtd">
<svg width="100%" height="100%" viewBox="0 0 379 379" version="1.1" xmlns="http://www.w3.org/2000/svg" xmlns:xlink="http://www.w3.org/1999/xlink" xml:space="preserve" xmlns:serif="http://www.serif.com/" style="fill-rule:evenodd;clip-rule:evenodd;stroke-linejoin:round;stroke-miterlimit:0.73;">
    <g>
        <g>
            <g>
                <path d="M378.185,94.721L378.185,283.697C378.185,335.846 335.846,378.185 283.697,378.185L94.721,378.185C42.571,378.185 0.232,335.846 0.232,283.697L0.232,94.721C0.232,42.571 42.571,0.232 94.721,0.232L283.697,0.232C335.846,0.232 378.185,42.571 378.185,94.721Z" style="fill:white;stroke:white;stroke-width:0.46px;"/>
            </g>
        </g>
        <g>
            <circle cx="189.209" cy="180.574" r="91.576" style="fill:none;stroke:white;stroke-width:21.51px;stroke-linecap:round;stroke-miterlimit:0.348837;"/>
            <circle cx="189.209" cy="180.574" r="91.576" style="fill:rgb(126,211,79);"/>
            <path d="M202.21,125.26C203.206,123.976 204.74,123.224 206.365,123.224C207.991,123.224 209.525,123.976 210.52,125.26C217.319,134.033 230.876,151.524 238.988,161.991C240.217,163.577 240.437,165.724 239.554,167.525C238.671,169.326 236.839,170.468 234.833,170.468L177.897,170.468C175.891,170.468 174.06,169.326 173.177,167.525C172.294,165.724 172.513,163.577 173.742,161.991C181.855,151.524 195.411,134.033 202.21,125.26Z" style="fill:rgb(254,254,254);"/>
            <path d="M168.957,230.335C169.953,231.62 171.487,232.371 173.112,232.371C174.737,232.371 176.271,231.62 177.267,230.335C184.066,221.562 197.622,204.071 205.735,193.604C206.964,192.019 207.183,189.872 206.3,188.07C205.417,186.269 203.586,185.127 201.58,185.127L144.644,185.127C142.638,185.127 140.806,186.269 139.924,188.07C139.041,189.872 139.26,192.019 140.489,193.604C148.601,204.071 162.158,221.562 168.957,230.335Z" style="fill:rgb(1,54,124);"/>
        </g>
        <circle cx="88.396" cy="79.761" r="9.237" style="fill:rgb(1,54,123);"/>
        <circle cx="290.022" cy="79.761" r="9.237" style="fill:rgb(1,54,123);"/>
        <circle cx="59.876" cy="180.574" r="9.237" style="fill:rgb(1,54,123);"/>
        <circle cx="318.008" cy="180.574" r="9.237" style="fill:rgb(1,54,123);"/>
        <circle cx="290.022" cy="281.387" r="9.237" style="fill:rgb(1,54,123);"/>
        <circle cx="189.209" cy="309.704" r="9.237" style="fill:rgb(1,54,123);"/>
        <circle cx="88.396" cy="281.387" r="9.237" style="fill:rgb(1,54,123);"/>
        <circle cx="189.209" cy="52.479" r="9.237" style="fill:rgb(1,54,123);"/>
    </g>
</svg>
