<?xml version="1.0" encoding="UTF-8" standalone="no"?>
<!DOCTYPE svg PUBLIC "-//W3C//DTD SVG 1.1//EN" "http://www.w3.org/Graphics/SVG/1.1/DTD/svg11.dtd">
<svg width="100%" height="100%" viewBox="0 0 379 379" version="1.1" xmlns="http://www.w3.org/2000/svg" xmlns:xlink="http://www.w3.org/1999/xlink" xml:space="preserve" xmlns:serif="http://www.serif.com/" style="fill-rule:evenodd;clip-rule:evenodd;stroke-linejoin:round;stroke-miterlimit:0.73;">
    <g>
        <g>
            <g>
                <path d="M378.185,94.721L378.185,283.697C378.185,335.846 335.846,378.185 283.697,378.185L94.721,378.185C42.571,378.185 0.232,335.846 0.232,283.697L0.232,94.721C0.232,42.571 42.571,0.232 94.721,0.232L283.697,0.232C335.846,0.232 378.185,42.571 378.185,94.721Z" style="fill:white;stroke:white;stroke-width:0.46px;"/>
            </g>
        </g>
        <g>
            <path d="M202.29,51.81L206.599,72.787C214.938,74.063 223.111,76.253 230.97,79.317L245.19,63.305C253.148,66.923 260.735,71.304 267.847,76.386L261.091,96.707C267.674,101.981 273.657,107.965 278.932,114.548L299.253,107.791C304.335,114.903 308.716,122.491 312.334,130.448L296.322,144.668C299.386,152.528 301.576,160.701 302.852,169.04L323.829,173.349C324.674,182.049 324.674,190.811 323.829,199.511L302.852,203.82C301.576,212.159 299.386,220.332 296.322,228.191L312.334,242.411C308.716,250.369 304.335,257.957 299.253,265.068L278.932,258.312C273.657,264.895 267.674,270.878 261.091,276.153L267.847,296.474C260.735,301.556 253.148,305.937 245.19,309.555L230.97,293.543C223.111,296.607 214.938,298.797 206.599,300.073L202.29,321.05C193.59,321.895 184.828,321.895 176.128,321.05L171.819,300.073C163.48,298.797 155.307,296.607 147.447,293.543L133.227,309.555C125.27,305.937 117.682,301.556 110.57,296.474L117.327,276.153C110.743,270.878 104.76,264.895 99.486,258.312L79.165,265.068C74.083,257.957 69.702,250.369 66.084,242.411L82.096,228.191C79.032,220.332 76.842,212.159 75.566,203.82L54.589,199.511C53.743,190.811 53.743,182.049 54.589,173.349L75.566,169.04C76.842,160.701 79.032,152.528 82.096,144.668L66.084,130.448C69.702,122.491 74.083,114.903 79.165,107.791L99.486,114.548C104.76,107.965 110.743,101.981 117.327,96.707L110.57,76.386C117.682,71.304 125.27,66.923 133.227,63.305L147.447,79.317C155.307,76.253 163.48,74.063 171.819,72.787L176.128,51.81C184.828,50.964 193.59,50.964 202.29,51.81ZM189.209,100.664C236.544,100.664 274.974,139.095 274.974,186.43C274.974,233.765 236.544,272.195 189.209,272.195C141.874,272.195 103.443,233.765 103.443,186.43C103.443,139.095 141.874,100.664 189.209,100.664Z" style="fill:rgb(124,210,76);"/>
            <path d="M227.35,164.67C227.35,170.38 222.713,175.017 217.002,175.017L144.967,175.017C139.256,175.017 134.62,170.38 134.62,164.67C134.62,158.959 139.256,154.322 144.967,154.322L217.002,154.322C222.713,154.322 227.35,158.959 227.35,164.67Z" style="fill:rgb(1,55,125);"/>
            <path d="M151.068,213.748C151.068,208.037 155.704,203.401 161.415,203.401L233.451,203.401C239.162,203.401 243.798,208.037 243.798,213.748C243.798,219.459 239.162,224.095 233.451,224.095L161.415,224.095C155.704,224.095 151.068,219.459 151.068,213.748Z" style="fill:rgb(1,55,125);"/>
            <path d="M192.776,133.972C192.776,132.491 193.641,131.146 194.99,130.532C196.338,129.919 197.921,130.149 199.038,131.122C209.505,140.24 230.516,158.542 241.82,168.387C243.008,169.422 243.429,171.087 242.877,172.563C242.324,174.039 240.913,175.017 239.337,175.017L196.555,175.017C194.468,175.017 192.776,173.325 192.776,171.237C192.776,163.315 192.776,144.807 192.776,133.972Z" style="fill:rgb(124,210,76);"/>
            <path d="M185.642,244.445C185.642,245.927 184.776,247.272 183.428,247.885C182.08,248.499 180.497,248.268 179.38,247.295C168.913,238.178 147.901,219.876 136.598,210.03C135.41,208.995 134.988,207.331 135.541,205.855C136.094,204.379 137.504,203.401 139.081,203.401C151.856,203.401 173.236,203.401 181.862,203.401C183.95,203.401 185.642,205.093 185.642,207.18L185.642,244.445Z" style="fill:rgb(124,210,76);"/>
            <path d="M202.29,51.81L206.599,72.787C214.938,74.063 223.111,76.253 230.97,79.317L245.19,63.305C253.148,66.923 260.735,71.304 267.847,76.386L261.091,96.707C267.674,101.981 273.657,107.965 278.932,114.548L299.253,107.791C304.335,114.903 308.716,122.491 312.334,130.448L296.322,144.668C299.386,152.528 301.576,160.701 302.852,169.04L323.829,173.349C324.674,182.049 324.674,190.811 323.829,199.511L302.852,203.82C301.576,212.159 299.386,220.332 296.322,228.191L312.334,242.411C308.716,250.369 304.335,257.957 299.253,265.068L278.932,258.312C273.657,264.895 267.674,270.878 261.091,276.153L267.847,296.474C260.735,301.556 253.148,305.937 245.19,309.555L230.97,293.543C223.111,296.607 214.938,298.797 206.599,300.073L202.29,321.05C193.59,321.895 184.828,321.895 176.128,321.05L171.819,300.073C163.48,298.797 155.307,296.607 147.447,293.543L133.227,309.555C125.27,305.937 117.682,301.556 110.57,296.474L117.327,276.153C110.743,270.878 104.76,264.895 99.486,258.312L79.165,265.068C74.083,257.957 69.702,250.369 66.084,242.411L82.096,228.191C79.032,220.332 76.842,212.159 75.566,203.82L54.589,199.511C53.743,190.811 53.743,182.049 54.589,173.349L75.566,169.04C76.842,160.701 79.032,152.528 82.096,144.668L66.084,130.448C69.702,122.491 74.083,114.903 79.165,107.791L99.486,114.548C104.76,107.965 110.743,101.981 117.327,96.707L110.57,76.386C117.682,71.304 125.27,66.923 133.227,63.305L147.447,79.317C155.307,76.253 163.48,74.063 171.819,72.787L176.128,51.81C184.828,50.964 193.59,50.964 202.29,51.81ZM189.209,85.102C245.133,85.102 290.536,130.506 290.536,186.43C290.536,242.354 245.133,287.758 189.209,287.758C133.285,287.758 87.881,242.354 87.881,186.43C87.881,130.506 133.285,85.102 189.209,85.102Z" style="fill:rgb(1,55,125);"/>
        </g>
    </g>
</svg>
