<?xml version="1.0" encoding="UTF-8" standalone="no"?>
<!DOCTYPE svg PUBLIC "-//W3C//DTD SVG 1.1//EN" "http://www.w3.org/Graphics/SVG/1.1/DTD/svg11.dtd">
<svg width="100%" height="100%" viewBox="0 0 494 494" version="1.1" xmlns="http://www.w3.org/2000/svg" xmlns:xlink="http://www.w3.org/1999/xlink" xml:space="preserve" xmlns:serif="http://www.serif.com/" style="fill-rule:evenodd;clip-rule:evenodd;stroke-linejoin:round;stroke-miterlimit:0.73;">
    <g>
        <g>
            <g style="filter:url(#_Effect1);">
                <path d="M435.953,152.488L435.953,341.465C435.953,393.614 393.614,435.953 341.465,435.953L152.488,435.953C100.339,435.953 58,393.614 58,341.465L58,152.488C58,100.339 100.339,58 152.488,58L341.465,58C393.614,58 435.953,100.339 435.953,152.488Z" style="fill:none;stroke:rgb(1,55,125);stroke-opacity:0.2;stroke-width:20px;"/>
            </g>
            <path d="M435.953,152.488L435.953,341.465C435.953,393.614 393.614,435.953 341.465,435.953L152.488,435.953C100.339,435.953 58,393.614 58,341.465L58,152.488C58,100.339 100.339,58 152.488,58L341.465,58C393.614,58 435.953,100.339 435.953,152.488Z" style="fill:white;stroke:white;stroke-width:0.46px;"/>
        </g>
        <g>
            <circle cx="252.545" cy="251.319" r="94.617" style="fill:rgb(126,211,79);"/>
            <circle cx="218.31" cy="181.633" r="47.35" style="fill:none;stroke:white;stroke-width:25.44px;stroke-linecap:round;stroke-miterlimit:0.348837;"/>
            <circle cx="218.31" cy="181.633" r="47.35" style="fill:rgb(1,54,123);"/>
            <circle cx="188.15" cy="312.977" r="46.694" style="fill:none;stroke:white;stroke-width:25.09px;stroke-linecap:round;stroke-miterlimit:0.348837;"/>
            <circle cx="188.15" cy="312.977" r="46.694" style="fill:rgb(1,54,123);"/>
            <circle cx="324.09" cy="277.337" r="48.354" style="fill:none;stroke:white;stroke-width:25.98px;stroke-linecap:round;stroke-miterlimit:0.348837;"/>
            <circle cx="324.09" cy="277.337" r="48.354" style="fill:rgb(1,54,123);"/>
            <path d="M311.413,272.877C310.933,271.998 310.274,271.328 309.435,270.869C308.596,270.409 307.617,270.179 306.498,270.179C305.26,270.179 304.161,270.459 303.202,271.019C302.243,271.578 301.493,272.377 300.954,273.416C300.415,274.455 300.145,275.654 300.145,277.012C300.145,278.411 300.42,279.629 300.969,280.668C301.518,281.707 302.283,282.506 303.262,283.066C304.241,283.625 305.379,283.905 306.678,283.905C308.276,283.905 309.585,283.48 310.604,282.631C311.623,281.782 312.292,280.598 312.612,279.08L305.419,279.08L305.419,275.873L316.747,275.873L316.747,279.53C316.468,280.988 315.868,282.337 314.949,283.575C314.03,284.814 312.846,285.808 311.398,286.557C309.95,287.306 308.326,287.681 306.528,287.681C304.51,287.681 302.687,287.226 301.059,286.317C299.431,285.408 298.152,284.145 297.223,282.526C296.294,280.908 295.829,279.07 295.829,277.012C295.829,274.954 296.294,273.111 297.223,271.483C298.152,269.855 299.431,268.586 301.059,267.677C302.687,266.768 304.5,266.314 306.498,266.314C308.856,266.314 310.904,266.888 312.642,268.037C314.38,269.186 315.579,270.799 316.238,272.877L311.413,272.877Z" style="fill:rgb(124,210,76);fill-rule:nonzero;"/>
            <path d="M327.086,287.711C325.628,287.711 324.314,287.461 323.146,286.962C321.977,286.462 321.053,285.743 320.374,284.804C319.694,283.865 319.345,282.756 319.325,281.478L323.82,281.478C323.88,282.337 324.184,283.016 324.734,283.515C325.283,284.015 326.038,284.265 326.996,284.265C327.975,284.265 328.745,284.03 329.304,283.56C329.863,283.091 330.143,282.476 330.143,281.717C330.143,281.098 329.953,280.588 329.574,280.189C329.194,279.789 328.72,279.475 328.15,279.245C327.581,279.015 326.797,278.76 325.798,278.481C324.439,278.081 323.335,277.687 322.486,277.297C321.637,276.907 320.908,276.318 320.299,275.529C319.689,274.74 319.385,273.686 319.385,272.367C319.385,271.128 319.694,270.05 320.314,269.131C320.933,268.212 321.802,267.507 322.921,267.018C324.04,266.528 325.318,266.284 326.757,266.284C328.914,266.284 330.668,266.808 332.016,267.857C333.365,268.906 334.109,270.369 334.249,272.247L329.634,272.247C329.594,271.528 329.289,270.934 328.72,270.464C328.15,269.995 327.396,269.76 326.457,269.76C325.638,269.76 324.984,269.97 324.494,270.389C324.005,270.809 323.76,271.418 323.76,272.217C323.76,272.777 323.945,273.241 324.314,273.611C324.684,273.98 325.143,274.28 325.693,274.51C326.242,274.74 327.016,275.004 328.015,275.304C329.374,275.704 330.483,276.103 331.342,276.503C332.201,276.902 332.94,277.502 333.56,278.301C334.179,279.1 334.489,280.149 334.489,281.448C334.489,282.566 334.199,283.605 333.619,284.564C333.04,285.523 332.191,286.287 331.072,286.857C329.953,287.426 328.625,287.711 327.086,287.711Z" style="fill:rgb(124,210,76);fill-rule:nonzero;"/>
            <path d="M352.35,266.583L352.35,269.97L346.776,269.97L346.776,287.501L342.58,287.501L342.58,269.97L337.006,269.97L337.006,266.583L352.35,266.583Z" style="fill:rgb(124,210,76);fill-rule:nonzero;"/>
            <g transform="matrix(0.187171,0,0,0.187171,-5074.37,-31271.9)">
                <g transform="matrix(94.0002,0,0,94.0002,27983.1,168738)">
                    <path d="M0.31,0.007C0.261,0.007 0.218,-0.001 0.179,-0.018C0.139,-0.035 0.109,-0.059 0.086,-0.09C0.063,-0.121 0.052,-0.158 0.051,-0.201L0.201,-0.201C0.203,-0.172 0.213,-0.15 0.232,-0.133C0.25,-0.116 0.275,-0.108 0.307,-0.108C0.34,-0.108 0.365,-0.116 0.384,-0.132C0.403,-0.147 0.412,-0.168 0.412,-0.193C0.412,-0.214 0.406,-0.231 0.393,-0.244C0.38,-0.257 0.365,-0.268 0.346,-0.276C0.327,-0.283 0.3,-0.292 0.267,-0.301C0.222,-0.314 0.185,-0.328 0.157,-0.341C0.128,-0.354 0.104,-0.373 0.084,-0.4C0.063,-0.426 0.053,-0.461 0.053,-0.505C0.053,-0.546 0.063,-0.582 0.084,-0.613C0.105,-0.644 0.134,-0.667 0.171,-0.684C0.208,-0.7 0.251,-0.708 0.299,-0.708C0.371,-0.708 0.43,-0.691 0.475,-0.656C0.52,-0.62 0.544,-0.572 0.549,-0.509L0.395,-0.509C0.394,-0.533 0.384,-0.553 0.365,-0.569C0.345,-0.584 0.32,-0.592 0.289,-0.592C0.262,-0.592 0.24,-0.585 0.224,-0.571C0.207,-0.557 0.199,-0.537 0.199,-0.51C0.199,-0.491 0.205,-0.476 0.218,-0.464C0.23,-0.451 0.245,-0.441 0.264,-0.434C0.282,-0.426 0.308,-0.417 0.341,-0.407C0.386,-0.394 0.423,-0.38 0.452,-0.367C0.481,-0.354 0.505,-0.334 0.526,-0.307C0.547,-0.28 0.557,-0.245 0.557,-0.202C0.557,-0.165 0.547,-0.13 0.528,-0.098C0.509,-0.066 0.48,-0.041 0.443,-0.022C0.406,-0.003 0.361,0.007 0.31,0.007Z" style="fill:rgb(124,210,76);fill-rule:nonzero;"/>
                </g>
                <g transform="matrix(94.0002,0,0,94.0002,28040.3,168738)">
                    <path d="M0.497,-0.133L0.219,-0.133L0.173,-0L0.026,-0L0.277,-0.699L0.44,-0.699L0.691,-0L0.543,-0L0.497,-0.133ZM0.459,-0.245L0.358,-0.537L0.257,-0.245L0.459,-0.245Z" style="fill:rgb(124,210,76);fill-rule:nonzero;"/>
                </g>
                <g transform="matrix(94.0002,0,0,94.0002,28107.6,168738)">
                    <path d="M0.209,-0.111L0.439,-0.111L0.439,-0L0.069,-0L0.069,-0.698L0.209,-0.698L0.209,-0.111Z" style="fill:rgb(124,210,76);fill-rule:nonzero;"/>
                </g>
                <g transform="matrix(94.0002,0,0,94.0002,28150.8,168738)">
                    <path d="M0.209,-0.585L0.209,-0.41L0.444,-0.41L0.444,-0.299L0.209,-0.299L0.209,-0.114L0.474,-0.114L0.474,-0L0.069,-0L0.069,-0.699L0.474,-0.699L0.474,-0.585L0.209,-0.585Z" style="fill:rgb(124,210,76);fill-rule:nonzero;"/>
                </g>
                <g transform="matrix(94.0002,0,0,94.0002,28200.8,168738)">
                    <path d="M0.31,0.007C0.261,0.007 0.218,-0.001 0.179,-0.018C0.139,-0.035 0.109,-0.059 0.086,-0.09C0.063,-0.121 0.052,-0.158 0.051,-0.201L0.201,-0.201C0.203,-0.172 0.213,-0.15 0.232,-0.133C0.25,-0.116 0.275,-0.108 0.307,-0.108C0.34,-0.108 0.365,-0.116 0.384,-0.132C0.403,-0.147 0.412,-0.168 0.412,-0.193C0.412,-0.214 0.406,-0.231 0.393,-0.244C0.38,-0.257 0.365,-0.268 0.346,-0.276C0.327,-0.283 0.3,-0.292 0.267,-0.301C0.222,-0.314 0.185,-0.328 0.157,-0.341C0.128,-0.354 0.104,-0.373 0.084,-0.4C0.063,-0.426 0.053,-0.461 0.053,-0.505C0.053,-0.546 0.063,-0.582 0.084,-0.613C0.105,-0.644 0.134,-0.667 0.171,-0.684C0.208,-0.7 0.251,-0.708 0.299,-0.708C0.371,-0.708 0.43,-0.691 0.475,-0.656C0.52,-0.62 0.544,-0.572 0.549,-0.509L0.395,-0.509C0.394,-0.533 0.384,-0.553 0.365,-0.569C0.345,-0.584 0.32,-0.592 0.289,-0.592C0.262,-0.592 0.24,-0.585 0.224,-0.571C0.207,-0.557 0.199,-0.537 0.199,-0.51C0.199,-0.491 0.205,-0.476 0.218,-0.464C0.23,-0.451 0.245,-0.441 0.264,-0.434C0.282,-0.426 0.308,-0.417 0.341,-0.407C0.386,-0.394 0.423,-0.38 0.452,-0.367C0.481,-0.354 0.505,-0.334 0.526,-0.307C0.547,-0.28 0.557,-0.245 0.557,-0.202C0.557,-0.165 0.547,-0.13 0.528,-0.098C0.509,-0.066 0.48,-0.041 0.443,-0.022C0.406,-0.003 0.361,0.007 0.31,0.007Z" style="fill:rgb(124,210,76);fill-rule:nonzero;"/>
                </g>
                <g transform="matrix(94.0002,0,0,94.0002,28027.6,168854)">
                    <path d="M0.544,-0.698L0.544,-0.585L0.358,-0.585L0.358,-0L0.218,-0L0.218,-0.585L0.032,-0.585L0.032,-0.698L0.544,-0.698Z" style="fill:rgb(124,210,76);fill-rule:nonzero;"/>
                </g>
                <g transform="matrix(94.0002,0,0,94.0002,28081.8,168854)">
                    <path d="M0.497,-0.133L0.219,-0.133L0.173,-0L0.026,-0L0.277,-0.699L0.44,-0.699L0.691,-0L0.543,-0L0.497,-0.133ZM0.459,-0.245L0.358,-0.537L0.257,-0.245L0.459,-0.245Z" style="fill:rgb(124,210,76);fill-rule:nonzero;"/>
                </g>
                <g transform="matrix(94.0002,0,0,94.0002,28149.1,168854)">
                    <path d="M0.487,-0L0.336,-0.235L0.199,-0L0.041,-0L0.261,-0.352L0.038,-0.698L0.199,-0.698L0.35,-0.464L0.486,-0.698L0.644,-0.698L0.425,-0.347L0.648,-0L0.487,-0Z" style="fill:rgb(124,210,76);fill-rule:nonzero;"/>
                </g>
            </g>
            <path d="M209.412,170.774L201.74,191.692L196.645,191.692L188.973,170.774L193.469,170.774L199.222,187.406L204.946,170.774L209.412,170.774Z" style="fill:rgb(124,210,76);fill-rule:nonzero;"/>
            <path d="M224.755,187.706L216.424,187.706L215.046,191.692L210.64,191.692L218.162,170.744L223.047,170.744L230.569,191.692L226.134,191.692L224.755,187.706ZM223.617,184.35L220.59,175.599L217.563,184.35L223.617,184.35Z" style="fill:rgb(124,210,76);fill-rule:nonzero;"/>
            <path d="M247.621,170.774L247.621,174.16L242.047,174.16L242.047,191.692L237.852,191.692L237.852,174.16L232.277,174.16L232.277,170.774L247.621,170.774Z" style="fill:rgb(124,210,76);fill-rule:nonzero;"/>
        </g>
    </g>
    <defs>
        <filter id="_Effect1" filterUnits="userSpaceOnUse" x="-48" y="-48" width="589.953" height="589.953">
            <feGaussianBlur in="SourceGraphic" stdDeviation="16"/>
        </filter>
    </defs>
</svg>
