<?xml version="1.0" encoding="UTF-8" standalone="no"?>
<!DOCTYPE svg PUBLIC "-//W3C//DTD SVG 1.1//EN" "http://www.w3.org/Graphics/SVG/1.1/DTD/svg11.dtd">
<svg width="100%" height="100%" viewBox="0 0 379 379" version="1.1" xmlns="http://www.w3.org/2000/svg" xmlns:xlink="http://www.w3.org/1999/xlink" xml:space="preserve" xmlns:serif="http://www.serif.com/" style="fill-rule:evenodd;clip-rule:evenodd;stroke-linejoin:round;stroke-miterlimit:0.73;">
    <g>
        <g>
            <g>
                <path d="M378.185,94.721L378.185,283.697C378.185,335.846 335.846,378.185 283.697,378.185L94.721,378.185C42.571,378.185 0.232,335.846 0.232,283.697L0.232,94.721C0.232,42.571 42.571,0.232 94.721,0.232L283.697,0.232C335.846,0.232 378.185,42.571 378.185,94.721Z" style="fill:white;stroke:white;stroke-width:0.46px;"/>
            </g>
        </g>
        <g>
            <path d="M171.071,100.663C166.783,101.353 162.742,98.431 162.053,94.143C161.364,89.855 164.286,85.814 168.574,85.125C174.494,84.174 180.566,83.679 186.753,83.679C192.94,83.679 199.013,84.174 204.933,85.125C209.221,85.814 212.143,89.855 211.454,94.143C210.765,98.431 206.724,101.353 202.436,100.663C197.329,99.843 192.091,99.417 186.753,99.417C181.416,99.417 176.178,99.843 171.071,100.663ZM225.977,107.574C221.997,105.835 220.177,101.193 221.915,97.213C223.653,93.233 228.296,91.413 232.276,93.152C243.53,98.067 253.839,104.747 262.852,112.843C266.082,115.745 266.349,120.724 263.447,123.955C260.545,127.186 255.566,127.453 252.335,124.551C244.565,117.571 235.679,111.811 225.977,107.574ZM268.428,143.106C266.013,139.496 266.982,134.605 270.591,132.19C274.2,129.774 279.091,130.743 281.507,134.352C288.213,144.373 293.373,155.514 296.645,167.434C297.794,171.622 295.327,175.955 291.139,177.105C286.951,178.254 282.618,175.787 281.468,171.599C278.65,161.333 274.205,151.737 268.428,143.106ZM284.943,195.901C284.868,191.559 288.333,187.973 292.675,187.898C297.017,187.824 300.603,191.289 300.678,195.631C300.689,196.293 300.695,196.956 300.695,197.621C300.695,209.465 298.882,220.89 295.522,231.633C294.225,235.778 289.808,238.09 285.663,236.794C281.518,235.497 279.205,231.08 280.502,226.935C283.398,217.676 284.957,207.829 284.957,197.621C284.957,197.046 284.952,196.473 284.943,195.901ZM270.289,249.248C272.577,245.557 277.431,244.418 281.122,246.706C284.814,248.994 285.953,253.848 283.665,257.54C277.228,267.923 269.169,277.198 259.843,285.008C256.513,287.796 251.547,287.356 248.758,284.027C245.97,280.697 246.41,275.73 249.739,272.942C257.784,266.205 264.736,258.205 270.289,249.248ZM229.098,286.238C233.015,284.361 237.718,286.017 239.595,289.934C241.472,293.85 239.816,298.553 235.9,300.43C225.093,305.609 213.347,309.135 200.988,310.679C196.678,311.217 192.743,308.156 192.204,303.846C191.666,299.537 194.727,295.601 199.037,295.063C209.679,293.733 219.793,290.698 229.098,286.238ZM174.47,295.063C178.779,295.601 181.841,299.537 181.303,303.846C180.764,308.156 176.829,311.217 172.519,310.679C160.16,309.135 148.413,305.609 137.607,300.43C133.691,298.553 132.035,293.85 133.912,289.934C135.789,286.017 140.492,284.361 144.409,286.238C153.713,290.698 163.828,293.733 174.47,295.063ZM123.768,272.942C127.098,275.73 127.537,280.697 124.749,284.027C121.961,287.357 116.994,287.796 113.664,285.008C104.338,277.198 96.279,267.923 89.842,257.54C87.554,253.849 88.693,248.994 92.385,246.706C96.076,244.418 100.93,245.557 103.218,249.248C108.771,258.205 115.723,266.205 123.768,272.942ZM93.005,226.935C94.301,231.079 91.989,235.497 87.844,236.794C83.699,238.09 79.281,235.777 77.985,231.633C74.625,220.89 72.812,209.465 72.812,197.621C72.812,196.956 72.818,196.292 72.829,195.63C72.904,191.288 76.49,187.823 80.832,187.898C85.174,187.973 88.639,191.559 88.564,195.901C88.554,196.473 88.55,197.046 88.55,197.621C88.55,207.829 90.109,217.676 93.005,226.935ZM92.038,171.6C90.889,175.788 86.555,178.254 82.367,177.105C78.179,175.955 75.713,171.622 76.862,167.434C80.134,155.515 85.293,144.373 92,134.353C94.415,130.743 99.307,129.774 102.916,132.19C106.525,134.605 107.494,139.497 105.079,143.106C99.302,151.737 94.856,161.333 92.038,171.6ZM121.172,124.551C117.941,127.453 112.962,127.186 110.06,123.955C107.158,120.724 107.424,115.745 110.655,112.843C119.668,104.747 129.977,98.067 141.231,93.152C145.211,91.413 149.853,93.233 151.592,97.213C153.33,101.193 151.51,105.836 147.53,107.574C137.828,111.811 128.942,117.571 121.172,124.551Z" style="fill:rgb(124,210,76);"/>
            <g>
                <circle cx="187.685" cy="92.48" r="35.447" style="fill:rgb(1,55,125);"/>
                <g>
                    <path d="M193.8,80.63L197.113,77.317C198.539,75.89 200.983,76.017 202.565,77.599C204.148,79.182 204.275,81.625 202.848,83.052L199.535,86.365L193.8,80.63Z" style="fill:white;"/>
                    <path d="M173.368,101.065L173.369,101.06L173.371,101.062L173.368,101.065ZM179.103,106.794L179.104,106.796L179.1,106.797L179.103,106.794Z" style="fill:rgb(124,210,76);"/>
                    <path d="M194.779,79.651L200.514,85.386L199.535,86.365L193.8,80.63L194.779,79.651Z" style="fill:rgb(124,210,76);"/>
                    <path d="M179.193,106.707C179.17,106.73 174.542,108.011 172.359,108.614C172.129,108.687 171.879,108.626 171.709,108.456C171.539,108.286 171.478,108.035 171.551,107.806C172.154,105.623 173.435,100.995 173.457,100.972L193.8,80.63L199.535,86.365L179.193,106.707Z" style="fill:white;"/>
                </g>
            </g>
            <g>
                <circle cx="94.064" cy="255.432" r="35.447" style="fill:rgb(1,55,125);"/>
                <g>
                    <path d="M89.09,235.184L89.09,248.424L102.33,248.424C102.33,255.737 96.402,261.664 89.09,261.664C81.782,261.664 75.85,255.732 75.85,248.424C75.85,241.112 81.777,235.184 89.09,235.184Z" style="fill:white;"/>
                    <path d="M102.858,263.753L102.858,273.473C102.858,274.22 102.253,274.825 101.506,274.825L98.803,274.825C98.057,274.825 97.451,274.22 97.451,273.473L97.451,263.753C97.451,263.007 98.057,262.401 98.803,262.401L101.506,262.401C102.253,262.401 102.858,263.007 102.858,263.753Z" style="fill:white;"/>
                    <path d="M111.423,258.787L111.423,273.473C111.423,274.22 110.817,274.825 110.071,274.825L107.367,274.825C106.621,274.825 106.016,274.22 106.016,273.473L106.016,258.787C106.016,258.041 106.621,257.435 107.367,257.435L110.071,257.435C110.817,257.435 111.423,258.041 111.423,258.787Z" style="fill:white;"/>
                    <path d="M94.497,267.89L94.497,273.473C94.497,274.22 93.891,274.825 93.145,274.825L90.441,274.825C89.695,274.825 89.09,274.22 89.09,273.473L89.09,267.89C89.09,267.144 89.695,266.538 90.441,266.538L93.145,266.538C93.891,266.538 94.497,267.144 94.497,267.89Z" style="fill:white;"/>
                </g>
            </g>
            <g>
                <circle cx="284.354" cy="244.368" r="35.447" style="fill:rgb(1,55,125);"/>
                <g>
                    <path d="M298.98,233.409L298.98,255.328C298.98,259.364 295.703,262.641 291.667,262.641L277.04,262.641C273.004,262.641 269.727,259.364 269.727,255.328L269.727,233.409C269.727,229.373 273.004,226.096 277.04,226.096L291.667,226.096C295.703,226.096 298.98,229.373 298.98,233.409Z" style="fill:white;"/>
                    <g>
                        <circle cx="277.64" cy="244.59" r="2.029" style="fill:rgb(124,210,76);"/>
                        <circle cx="284.546" cy="244.59" r="2.029" style="fill:rgb(124,210,76);"/>
                        <circle cx="291.452" cy="244.59" r="2.029" style="fill:rgb(124,210,76);"/>
                    </g>
                    <g>
                        <circle cx="277.64" cy="250.547" r="2.029" style="fill:rgb(124,210,76);"/>
                        <circle cx="284.546" cy="250.547" r="2.029" style="fill:rgb(124,210,76);"/>
                        <circle cx="291.452" cy="250.547" r="2.029" style="fill:rgb(124,210,76);"/>
                    </g>
                    <g>
                        <circle cx="277.64" cy="256.504" r="2.029" style="fill:rgb(124,210,76);"/>
                        <circle cx="284.546" cy="256.504" r="2.029" style="fill:rgb(124,210,76);"/>
                        <circle cx="291.452" cy="256.504" r="2.029" style="fill:rgb(124,210,76);"/>
                    </g>
                    <path d="M295.246,233.716L295.246,237.757C295.246,239.309 293.986,240.569 292.434,240.569L276.274,240.569C274.721,240.569 273.461,239.309 273.461,237.757L273.461,233.716C273.461,232.163 274.721,230.903 276.274,230.903L292.434,230.903C293.986,230.903 295.246,232.163 295.246,233.716Z" style="fill:rgb(1,55,125);"/>
                </g>
            </g>
            <g>
                <path d="M221.269,179.241L221.269,227.11C221.269,236.635 213.536,244.368 204.011,244.368L169.496,244.368C159.971,244.368 152.238,236.635 152.238,227.11L152.238,179.241C152.238,169.716 159.971,161.983 169.496,161.983L204.011,161.983C213.536,161.983 221.269,169.716 221.269,179.241Z" style="fill:rgb(1,55,125);"/>
                <circle cx="186.753" cy="161.983" r="11.11" style="fill:rgb(124,210,76);"/>
                <path d="M206.412,187.767C206.412,189.305 205.164,190.553 203.626,190.553L169.88,190.553C168.343,190.553 167.095,189.305 167.095,187.767C167.095,186.23 168.343,184.982 169.88,184.982L203.626,184.982C205.164,184.982 206.412,186.23 206.412,187.767Z" style="fill:white;"/>
                <path d="M206.412,203.176C206.412,204.713 205.164,205.961 203.626,205.961L169.88,205.961C168.343,205.961 167.095,204.713 167.095,203.176C167.095,201.638 168.343,200.39 169.88,200.39L203.626,200.39C205.164,200.39 206.412,201.638 206.412,203.176Z" style="fill:white;"/>
                <path d="M206.412,219.985C206.412,221.522 205.164,222.77 203.626,222.77L169.88,222.77C168.343,222.77 167.095,221.522 167.095,219.985C167.095,218.447 168.343,217.199 169.88,217.199L203.626,217.199C205.164,217.199 206.412,218.447 206.412,219.985Z" style="fill:white;"/>
            </g>
        </g>
    </g>
</svg>
