<?xml version="1.0" encoding="UTF-8" standalone="no"?>
<!DOCTYPE svg PUBLIC "-//W3C//DTD SVG 1.1//EN" "http://www.w3.org/Graphics/SVG/1.1/DTD/svg11.dtd">
<svg width="100%" height="100%" viewBox="0 0 379 379" version="1.1" xmlns="http://www.w3.org/2000/svg" xmlns:xlink="http://www.w3.org/1999/xlink" xml:space="preserve" xmlns:serif="http://www.serif.com/" style="fill-rule:evenodd;clip-rule:evenodd;stroke-linejoin:round;stroke-miterlimit:0.73;">
    <g>
        <g>
            <g>
                <path d="M378.185,94.721L378.185,283.697C378.185,335.846 335.846,378.185 283.697,378.185L94.721,378.185C42.571,378.185 0.232,335.846 0.232,283.697L0.232,94.721C0.232,42.571 42.571,0.232 94.721,0.232L283.697,0.232C335.846,0.232 378.185,42.571 378.185,94.721Z" style="fill:white;stroke:white;stroke-width:0.46px;"/>
            </g>
        </g>
        <g>
            <path d="M202.884,48.477L207.388,70.406C216.106,71.74 224.65,74.029 232.866,77.233L247.732,60.494C256.051,64.276 263.983,68.856 271.418,74.169L264.354,95.412C271.237,100.926 277.492,107.181 283.006,114.064L304.249,107C309.562,114.435 314.142,122.367 317.924,130.686L301.185,145.551C304.388,153.768 306.678,162.312 308.012,171.029L329.941,175.534C330.825,184.629 330.825,193.789 329.941,202.884L308.012,207.388C306.678,216.106 304.388,224.65 301.185,232.866L317.924,247.732C314.142,256.051 309.562,263.983 304.249,271.418L283.006,264.354C277.492,271.237 271.237,277.492 264.354,283.006L271.418,304.249C263.983,309.562 256.051,314.142 247.732,317.924L232.866,301.185C224.65,304.388 216.106,306.678 207.388,308.012L202.884,329.941C193.789,330.825 184.629,330.825 175.534,329.941L171.029,308.012C162.312,306.678 153.768,304.388 145.551,301.185L130.686,317.924C122.367,314.142 114.435,309.562 107,304.249L114.064,283.006C107.181,277.492 100.926,271.237 95.412,264.354L74.169,271.418C68.856,263.983 64.276,256.051 60.494,247.732L77.233,232.866C74.029,224.65 71.74,216.106 70.406,207.388L48.477,202.884C47.593,193.789 47.593,184.629 48.477,175.534L70.406,171.029C71.74,162.312 74.029,153.768 77.233,145.551L60.494,130.686C64.276,122.367 68.856,114.435 74.169,107L95.412,114.064C100.926,107.181 107.181,100.926 114.064,95.412L107,74.169C114.435,68.856 122.367,64.276 130.686,60.494L145.551,77.233C153.768,74.029 162.312,71.74 171.029,70.406L175.534,48.477C184.629,47.593 193.789,47.593 202.884,48.477ZM189.209,93.368C242.105,93.368 285.05,136.313 285.05,189.209C285.05,242.105 242.105,285.05 189.209,285.05C136.313,285.05 93.368,242.105 93.368,189.209C93.368,136.313 136.313,93.368 189.209,93.368Z" style="fill:rgb(126,211,79);"/>
            <path d="M189.209,115.385C151.882,115.385 121.343,145.924 121.343,183.251L121.343,200.217C121.343,216.053 133.785,228.495 149.62,228.495C153.014,228.495 155.276,226.233 155.276,222.839L155.276,177.595C155.276,174.202 153.014,171.94 149.62,171.94C143.399,171.94 137.744,174.202 133.219,177.595C136.047,149.318 160.366,126.696 189.209,126.696C218.052,126.696 242.371,148.752 245.198,177.595C240.674,174.202 235.018,171.94 228.797,171.94C225.404,171.94 223.142,174.202 223.142,177.595L223.142,222.839C223.142,226.233 225.404,228.495 228.797,228.495C232.191,228.495 236.15,227.929 238.977,226.233C232.756,237.544 223.142,246.592 211.265,251.682C210.134,244.896 204.479,239.24 197.127,239.24C189.774,239.24 183.553,245.461 183.553,252.814C183.553,256.772 185.25,260.731 188.643,263.559C191.471,265.821 194.299,266.952 197.692,266.952L199.954,266.952C232.191,262.428 257.075,233.585 257.075,200.217L257.075,183.251C257.075,145.924 226.535,115.385 189.209,115.385Z" style="fill:rgb(1,55,125);fill-rule:nonzero;"/>
        </g>
    </g>
</svg>
