<?xml version="1.0" encoding="UTF-8" standalone="no"?>
<!DOCTYPE svg PUBLIC "-//W3C//DTD SVG 1.1//EN" "http://www.w3.org/Graphics/SVG/1.1/DTD/svg11.dtd">
<svg width="100%" height="100%" viewBox="0 0 379 379" version="1.1" xmlns="http://www.w3.org/2000/svg" xmlns:xlink="http://www.w3.org/1999/xlink" xml:space="preserve" xmlns:serif="http://www.serif.com/" style="fill-rule:evenodd;clip-rule:evenodd;stroke-linejoin:round;stroke-miterlimit:0.73;">
    <g>
        <g>
            <path d="M378.185,132.516L378.185,245.902C378.185,318.911 318.911,378.185 245.902,378.185L132.516,378.185C59.507,378.185 0.232,318.911 0.232,245.902L0.232,132.516C0.232,59.507 59.507,0.232 132.516,0.232L245.902,0.232C318.911,0.232 378.185,59.507 378.185,132.516Z" style="fill:white;stroke:white;stroke-width:0.46px;"/>
        </g>
        <g>
            <circle cx="189.234" cy="187.971" r="127.441" style="fill:rgb(126,211,79);"/>
            <circle cx="143.123" cy="94.11" r="63.777" style="fill:none;stroke:white;stroke-width:34.27px;stroke-linecap:round;stroke-miterlimit:0.348837;"/>
            <circle cx="143.123" cy="94.11" r="63.777" style="fill:rgb(1,54,123);"/>
            <circle cx="102.499" cy="271.019" r="62.892" style="fill:none;stroke:white;stroke-width:33.8px;stroke-linecap:round;stroke-miterlimit:0.348837;"/>
            <circle cx="102.499" cy="271.019" r="62.892" style="fill:rgb(1,54,123);"/>
            <circle cx="285.598" cy="223.016" r="65.129" style="fill:none;stroke:white;stroke-width:35px;stroke-linecap:round;stroke-miterlimit:0.348837;"/>
            <circle cx="285.598" cy="223.016" r="65.129" style="fill:rgb(1,54,123);"/>
            <path d="M268.523,217.007C267.877,215.823 266.989,214.922 265.859,214.303C264.729,213.684 263.41,213.375 261.904,213.375C260.235,213.375 258.755,213.751 257.463,214.505C256.172,215.258 255.163,216.335 254.436,217.734C253.71,219.133 253.346,220.748 253.346,222.578C253.346,224.461 253.716,226.103 254.456,227.502C255.196,228.902 256.226,229.978 257.544,230.731C258.863,231.485 260.397,231.862 262.146,231.862C264.299,231.862 266.061,231.29 267.433,230.146C268.806,229.002 269.707,227.408 270.138,225.363L260.45,225.363L260.45,221.044L275.708,221.044L275.708,225.968C275.331,227.933 274.524,229.749 273.286,231.418C272.048,233.086 270.454,234.425 268.503,235.434C266.552,236.443 264.366,236.948 261.944,236.948C259.226,236.948 256.771,236.335 254.577,235.111C252.384,233.887 250.662,232.185 249.411,230.005C248.159,227.825 247.534,225.349 247.534,222.578C247.534,219.806 248.159,217.324 249.411,215.131C250.662,212.937 252.384,211.229 254.577,210.004C256.771,208.78 259.213,208.168 261.904,208.168C265.079,208.168 267.837,208.941 270.178,210.489C272.519,212.036 274.134,214.209 275.022,217.007L268.523,217.007Z" style="fill:rgb(124,210,76);fill-rule:nonzero;"/>
            <path d="M289.634,236.988C287.67,236.988 285.9,236.652 284.326,235.979C282.752,235.306 281.507,234.337 280.592,233.073C279.677,231.808 279.206,230.314 279.18,228.592L285.234,228.592C285.315,229.749 285.725,230.664 286.465,231.337C287.205,232.01 288.221,232.346 289.513,232.346C290.831,232.346 291.867,232.03 292.621,231.397C293.374,230.765 293.751,229.938 293.751,228.915C293.751,228.081 293.495,227.395 292.984,226.856C292.473,226.318 291.834,225.894 291.067,225.585C290.3,225.275 289.244,224.932 287.898,224.556C286.068,224.017 284.582,223.486 283.438,222.961C282.294,222.436 281.312,221.643 280.491,220.58C279.671,219.517 279.26,218.097 279.26,216.321C279.26,214.653 279.677,213.2 280.512,211.962C281.346,210.724 282.516,209.775 284.023,209.116C285.53,208.457 287.252,208.127 289.19,208.127C292.096,208.127 294.458,208.834 296.274,210.246C298.09,211.659 299.093,213.63 299.281,216.16L293.065,216.16C293.011,215.191 292.601,214.39 291.834,213.758C291.067,213.126 290.051,212.81 288.786,212.81C287.683,212.81 286.802,213.092 286.142,213.657C285.483,214.222 285.153,215.043 285.153,216.119C285.153,216.873 285.402,217.499 285.9,217.996C286.398,218.494 287.017,218.898 287.757,219.207C288.497,219.517 289.54,219.873 290.885,220.277C292.715,220.815 294.209,221.353 295.366,221.892C296.523,222.43 297.518,223.237 298.353,224.313C299.187,225.39 299.604,226.803 299.604,228.552C299.604,230.059 299.214,231.458 298.433,232.75C297.653,234.041 296.509,235.071 295.002,235.838C293.495,236.604 291.706,236.988 289.634,236.988Z" style="fill:rgb(124,210,76);fill-rule:nonzero;"/>
            <path d="M323.661,208.531L323.661,213.092L316.153,213.092L316.153,236.705L310.502,236.705L310.502,213.092L302.995,213.092L302.995,208.531L323.661,208.531Z" style="fill:rgb(124,210,76);fill-rule:nonzero;"/>
            <g transform="matrix(0.252102,0,0,0.252102,-6985.62,-42270.9)">
                <g transform="matrix(94.0002,0,0,94.0002,27983.1,168738)">
                    <path d="M0.31,0.007C0.261,0.007 0.218,-0.001 0.179,-0.018C0.139,-0.035 0.109,-0.059 0.086,-0.09C0.063,-0.121 0.052,-0.158 0.051,-0.201L0.201,-0.201C0.203,-0.172 0.213,-0.15 0.232,-0.133C0.25,-0.116 0.275,-0.108 0.307,-0.108C0.34,-0.108 0.365,-0.116 0.384,-0.132C0.403,-0.147 0.412,-0.168 0.412,-0.193C0.412,-0.214 0.406,-0.231 0.393,-0.244C0.38,-0.257 0.365,-0.268 0.346,-0.276C0.327,-0.283 0.3,-0.292 0.267,-0.301C0.222,-0.314 0.185,-0.328 0.157,-0.341C0.128,-0.354 0.104,-0.373 0.084,-0.4C0.063,-0.426 0.053,-0.461 0.053,-0.505C0.053,-0.546 0.063,-0.582 0.084,-0.613C0.105,-0.644 0.134,-0.667 0.171,-0.684C0.208,-0.7 0.251,-0.708 0.299,-0.708C0.371,-0.708 0.43,-0.691 0.475,-0.656C0.52,-0.62 0.544,-0.572 0.549,-0.509L0.395,-0.509C0.394,-0.533 0.384,-0.553 0.365,-0.569C0.345,-0.584 0.32,-0.592 0.289,-0.592C0.262,-0.592 0.24,-0.585 0.224,-0.571C0.207,-0.557 0.199,-0.537 0.199,-0.51C0.199,-0.491 0.205,-0.476 0.218,-0.464C0.23,-0.451 0.245,-0.441 0.264,-0.434C0.282,-0.426 0.308,-0.417 0.341,-0.407C0.386,-0.394 0.423,-0.38 0.452,-0.367C0.481,-0.354 0.505,-0.334 0.526,-0.307C0.547,-0.28 0.557,-0.245 0.557,-0.202C0.557,-0.165 0.547,-0.13 0.528,-0.098C0.509,-0.066 0.48,-0.041 0.443,-0.022C0.406,-0.003 0.361,0.007 0.31,0.007Z" style="fill:rgb(124,210,76);fill-rule:nonzero;"/>
                </g>
                <g transform="matrix(94.0002,0,0,94.0002,28040.3,168738)">
                    <path d="M0.497,-0.133L0.219,-0.133L0.173,-0L0.026,-0L0.277,-0.699L0.44,-0.699L0.691,-0L0.543,-0L0.497,-0.133ZM0.459,-0.245L0.358,-0.537L0.257,-0.245L0.459,-0.245Z" style="fill:rgb(124,210,76);fill-rule:nonzero;"/>
                </g>
                <g transform="matrix(94.0002,0,0,94.0002,28107.6,168738)">
                    <path d="M0.209,-0.111L0.439,-0.111L0.439,-0L0.069,-0L0.069,-0.698L0.209,-0.698L0.209,-0.111Z" style="fill:rgb(124,210,76);fill-rule:nonzero;"/>
                </g>
                <g transform="matrix(94.0002,0,0,94.0002,28150.8,168738)">
                    <path d="M0.209,-0.585L0.209,-0.41L0.444,-0.41L0.444,-0.299L0.209,-0.299L0.209,-0.114L0.474,-0.114L0.474,-0L0.069,-0L0.069,-0.699L0.474,-0.699L0.474,-0.585L0.209,-0.585Z" style="fill:rgb(124,210,76);fill-rule:nonzero;"/>
                </g>
                <g transform="matrix(94.0002,0,0,94.0002,28200.8,168738)">
                    <path d="M0.31,0.007C0.261,0.007 0.218,-0.001 0.179,-0.018C0.139,-0.035 0.109,-0.059 0.086,-0.09C0.063,-0.121 0.052,-0.158 0.051,-0.201L0.201,-0.201C0.203,-0.172 0.213,-0.15 0.232,-0.133C0.25,-0.116 0.275,-0.108 0.307,-0.108C0.34,-0.108 0.365,-0.116 0.384,-0.132C0.403,-0.147 0.412,-0.168 0.412,-0.193C0.412,-0.214 0.406,-0.231 0.393,-0.244C0.38,-0.257 0.365,-0.268 0.346,-0.276C0.327,-0.283 0.3,-0.292 0.267,-0.301C0.222,-0.314 0.185,-0.328 0.157,-0.341C0.128,-0.354 0.104,-0.373 0.084,-0.4C0.063,-0.426 0.053,-0.461 0.053,-0.505C0.053,-0.546 0.063,-0.582 0.084,-0.613C0.105,-0.644 0.134,-0.667 0.171,-0.684C0.208,-0.7 0.251,-0.708 0.299,-0.708C0.371,-0.708 0.43,-0.691 0.475,-0.656C0.52,-0.62 0.544,-0.572 0.549,-0.509L0.395,-0.509C0.394,-0.533 0.384,-0.553 0.365,-0.569C0.345,-0.584 0.32,-0.592 0.289,-0.592C0.262,-0.592 0.24,-0.585 0.224,-0.571C0.207,-0.557 0.199,-0.537 0.199,-0.51C0.199,-0.491 0.205,-0.476 0.218,-0.464C0.23,-0.451 0.245,-0.441 0.264,-0.434C0.282,-0.426 0.308,-0.417 0.341,-0.407C0.386,-0.394 0.423,-0.38 0.452,-0.367C0.481,-0.354 0.505,-0.334 0.526,-0.307C0.547,-0.28 0.557,-0.245 0.557,-0.202C0.557,-0.165 0.547,-0.13 0.528,-0.098C0.509,-0.066 0.48,-0.041 0.443,-0.022C0.406,-0.003 0.361,0.007 0.31,0.007Z" style="fill:rgb(124,210,76);fill-rule:nonzero;"/>
                </g>
                <g transform="matrix(94.0002,0,0,94.0002,28027.6,168854)">
                    <path d="M0.544,-0.698L0.544,-0.585L0.358,-0.585L0.358,-0L0.218,-0L0.218,-0.585L0.032,-0.585L0.032,-0.698L0.544,-0.698Z" style="fill:rgb(124,210,76);fill-rule:nonzero;"/>
                </g>
                <g transform="matrix(94.0002,0,0,94.0002,28081.8,168854)">
                    <path d="M0.497,-0.133L0.219,-0.133L0.173,-0L0.026,-0L0.277,-0.699L0.44,-0.699L0.691,-0L0.543,-0L0.497,-0.133ZM0.459,-0.245L0.358,-0.537L0.257,-0.245L0.459,-0.245Z" style="fill:rgb(124,210,76);fill-rule:nonzero;"/>
                </g>
                <g transform="matrix(94.0002,0,0,94.0002,28149.1,168854)">
                    <path d="M0.487,-0L0.336,-0.235L0.199,-0L0.041,-0L0.261,-0.352L0.038,-0.698L0.199,-0.698L0.35,-0.464L0.486,-0.698L0.644,-0.698L0.425,-0.347L0.648,-0L0.487,-0Z" style="fill:rgb(124,210,76);fill-rule:nonzero;"/>
                </g>
            </g>
            <path d="M131.137,79.485L120.804,107.659L113.942,107.659L103.608,79.485L109.663,79.485L117.413,101.887L125.123,79.485L131.137,79.485Z" style="fill:rgb(124,210,76);fill-rule:nonzero;"/>
            <path d="M151.804,102.291L140.582,102.291L138.726,107.659L132.792,107.659L142.923,79.444L149.503,79.444L159.634,107.659L153.66,107.659L151.804,102.291ZM150.27,97.77L146.193,85.983L142.116,97.77L150.27,97.77Z" style="fill:rgb(124,210,76);fill-rule:nonzero;"/>
            <path d="M182.602,79.485L182.602,84.046L175.094,84.046L175.094,107.659L169.443,107.659L169.443,84.046L161.935,84.046L161.935,79.485L182.602,79.485Z" style="fill:rgb(124,210,76);fill-rule:nonzero;"/>
        </g>
    </g>
</svg>
