<?xml version="1.0" encoding="UTF-8" standalone="no"?>
<!DOCTYPE svg PUBLIC "-//W3C//DTD SVG 1.1//EN" "http://www.w3.org/Graphics/SVG/1.1/DTD/svg11.dtd">
<svg width="100%" height="100%" viewBox="0 0 379 379" version="1.1" xmlns="http://www.w3.org/2000/svg" xmlns:xlink="http://www.w3.org/1999/xlink" xml:space="preserve" xmlns:serif="http://www.serif.com/" style="fill-rule:evenodd;clip-rule:evenodd;stroke-linejoin:round;stroke-miterlimit:0.73;">
    <g>
        <g>
            <path d="M378.185,132.516L378.185,245.902C378.185,318.911 318.911,378.185 245.902,378.185L132.516,378.185C59.507,378.185 0.232,318.911 0.232,245.902L0.232,132.516C0.232,59.507 59.507,0.232 132.516,0.232L245.902,0.232C318.911,0.232 378.185,59.507 378.185,132.516Z" style="fill:white;stroke:white;stroke-width:0.46px;"/>
        </g>
        <g>
            <path d="M199.176,52.713L203.68,74.642C212.398,75.976 220.942,78.265 229.159,81.469L244.024,64.73C252.343,68.512 260.275,73.092 267.71,78.405L260.646,99.648C267.529,105.162 273.784,111.417 279.298,118.3L300.541,111.236C305.854,118.671 310.434,126.603 314.216,134.922L297.477,149.787C300.681,158.004 302.97,166.548 304.304,175.266L326.233,179.77C327.117,188.865 327.117,198.025 326.233,207.12L304.304,211.624C302.97,220.342 300.681,228.886 297.477,237.103L314.216,251.968C310.434,260.287 305.854,268.219 300.541,275.654L279.298,268.59C273.784,275.473 267.529,281.728 260.646,287.242L267.71,308.485C260.275,313.798 252.343,318.378 244.024,322.16L229.159,305.421C220.942,308.625 212.398,310.914 203.68,312.248L199.176,334.177C190.081,335.061 180.921,335.061 171.826,334.177L167.322,312.248C158.604,310.914 150.06,308.625 141.843,305.421L126.978,322.16C118.659,318.378 110.727,313.798 103.292,308.485L110.356,287.242C103.473,281.728 97.218,275.473 91.704,268.59L70.461,275.654C65.148,268.219 60.568,260.287 56.786,251.968L73.525,237.103C70.321,228.886 68.032,220.342 66.698,211.624L44.769,207.12C43.885,198.025 43.885,188.865 44.769,179.77L66.698,175.266C68.032,166.548 70.321,158.004 73.525,149.787L56.786,134.922C60.568,126.603 65.148,118.671 70.461,111.236L91.704,118.3C97.218,111.417 103.473,105.162 110.356,99.648L103.292,78.405C110.727,73.092 118.659,68.512 126.978,64.73L141.843,81.469C150.06,78.265 158.604,75.976 167.322,74.642L171.826,52.713C180.921,51.829 190.081,51.829 199.176,52.713ZM185.501,97.604C238.397,97.604 281.342,140.549 281.342,193.445C281.342,246.341 238.397,289.286 185.501,289.286C132.605,289.286 89.66,246.341 89.66,193.445C89.66,140.549 132.605,97.604 185.501,97.604Z" style="fill:rgb(126,211,79);"/>
            <g>
                <circle cx="95.013" cy="290.741" r="57.36" style="fill:rgb(1,55,125);"/>
                <path d="M110.454,299.724C110.454,301.807 109.924,303.759 108.862,305.582C107.801,307.404 106.239,308.907 104.176,310.088C102.113,311.27 99.679,311.961 96.875,312.161L96.875,317.028L93.03,317.028L93.03,312.101C89.025,311.74 85.8,310.529 83.357,308.466C80.913,306.403 79.652,303.609 79.571,300.084L88.584,300.084C88.824,302.968 90.306,304.711 93.03,305.312L93.03,293.836C90.146,293.115 87.823,292.394 86.06,291.673C84.298,290.952 82.776,289.79 81.494,288.188C80.212,286.585 79.571,284.402 79.571,281.639C79.571,278.154 80.823,275.31 83.327,273.107C85.83,270.904 89.065,269.642 93.03,269.321L93.03,264.455L96.875,264.455L96.875,269.321C100.721,269.642 103.795,270.804 106.098,272.806C108.402,274.809 109.693,277.573 109.974,281.098L100.901,281.098C100.781,279.936 100.37,278.925 99.669,278.064C98.968,277.202 98.037,276.592 96.875,276.231L96.875,287.587C99.88,288.348 102.253,289.079 103.995,289.78C105.738,290.481 107.25,291.622 108.532,293.205C109.813,294.787 110.454,296.96 110.454,299.724ZM88.344,281.218C88.344,282.54 88.744,283.611 89.545,284.432C90.346,285.254 91.508,285.925 93.03,286.445L93.03,276.051C91.588,276.251 90.447,276.792 89.605,277.673C88.764,278.554 88.344,279.736 88.344,281.218ZM96.875,305.432C98.398,305.151 99.589,304.53 100.45,303.569C101.312,302.608 101.742,301.446 101.742,300.084C101.742,298.762 101.322,297.701 100.48,296.9C99.639,296.099 98.438,295.438 96.875,294.917L96.875,305.432Z" style="fill:white;fill-rule:nonzero;"/>
            </g>
            <g>
                <circle cx="284.408" cy="83.869" r="57.36" style="fill:rgb(1,55,125);"/>
                <path d="M261.727,71.853C261.727,68.808 262.618,66.425 264.401,64.703C266.183,62.98 268.476,62.119 271.28,62.119C274.084,62.119 276.377,62.98 278.16,64.703C279.942,66.425 280.833,68.808 280.833,71.853C280.833,74.937 279.942,77.34 278.16,79.063C276.377,80.785 274.084,81.646 271.28,81.646C268.476,81.646 266.183,80.785 264.401,79.063C262.618,77.34 261.727,74.937 261.727,71.853ZM300.3,62.84L276.688,104.899L268.516,104.899L292.069,62.84L300.3,62.84ZM271.22,67.166C269.017,67.166 267.915,68.728 267.915,71.853C267.915,75.017 269.017,76.599 271.22,76.599C272.302,76.599 273.143,76.209 273.744,75.428C274.344,74.646 274.645,73.455 274.645,71.853C274.645,68.728 273.503,67.166 271.22,67.166ZM288.104,95.826C288.104,92.742 288.995,90.348 290.777,88.646C292.56,86.944 294.853,86.092 297.657,86.092C300.461,86.092 302.734,86.944 304.476,88.646C306.219,90.348 307.09,92.742 307.09,95.826C307.09,98.91 306.219,101.314 304.476,103.036C302.734,104.758 300.461,105.62 297.657,105.62C294.813,105.62 292.51,104.758 290.747,103.036C288.985,101.314 288.104,98.91 288.104,95.826ZM297.597,91.139C295.314,91.139 294.172,92.702 294.172,95.826C294.172,98.99 295.314,100.573 297.597,100.573C299.84,100.573 300.961,98.99 300.961,95.826C300.961,92.702 299.84,91.139 297.597,91.139Z" style="fill:white;fill-rule:nonzero;"/>
            </g>
            <path d="M185.501,114.268C148.175,114.268 117.635,144.808 117.635,182.134L117.635,199.1C117.635,214.936 130.077,227.378 145.912,227.378C149.306,227.378 151.568,225.116 151.568,221.722L151.568,176.478C151.568,173.085 149.306,170.823 145.912,170.823C139.691,170.823 134.036,173.085 129.511,176.478C132.339,148.201 156.658,125.579 185.501,125.579C214.344,125.579 238.663,147.635 241.49,176.478C236.966,173.085 231.311,170.823 225.09,170.823C221.696,170.823 219.434,173.085 219.434,176.478L219.434,221.722C219.434,225.116 221.696,227.378 225.09,227.378C228.483,227.378 232.442,226.812 235.269,225.116C229.048,236.427 219.434,245.476 207.557,250.566C206.426,243.779 200.771,238.123 193.419,238.123C186.067,238.123 179.845,244.344 179.845,251.697C179.845,255.655 181.542,259.614 184.935,262.442C187.763,264.704 190.591,265.835 193.984,265.835L196.246,265.835C228.483,261.311 253.367,232.468 253.367,199.1L253.367,182.134C253.367,144.808 222.827,114.268 185.501,114.268Z" style="fill:rgb(1,55,125);fill-rule:nonzero;"/>
        </g>
    </g>
</svg>
