<?xml version="1.0" encoding="UTF-8" standalone="no"?>
<!DOCTYPE svg PUBLIC "-//W3C//DTD SVG 1.1//EN" "http://www.w3.org/Graphics/SVG/1.1/DTD/svg11.dtd">
<svg width="100%" height="100%" viewBox="0 0 379 379" version="1.1" xmlns="http://www.w3.org/2000/svg" xmlns:xlink="http://www.w3.org/1999/xlink" xml:space="preserve" xmlns:serif="http://www.serif.com/" style="fill-rule:evenodd;clip-rule:evenodd;stroke-linejoin:round;stroke-miterlimit:0.73;">
    <g>
        <g>
            <path d="M378.185,132.516L378.185,245.902C378.185,318.911 318.911,378.185 245.902,378.185L132.516,378.185C59.507,378.185 0.232,318.911 0.232,245.902L0.232,132.516C0.232,59.507 59.507,0.232 132.516,0.232L245.902,0.232C318.911,0.232 378.185,59.507 378.185,132.516Z" style="fill:white;stroke:white;stroke-width:0.46px;"/>
        </g>
        <g>
            <path d="M206.209,315.595C206.209,331.036 193.673,343.572 178.232,343.572L82.256,343.572C66.815,343.572 54.278,331.036 54.278,315.595C54.278,300.154 66.815,287.618 82.256,287.618L178.232,287.618C193.673,287.618 206.209,300.154 206.209,315.595Z" style="fill:rgb(1,54,123);"/>
            <path d="M241.61,253.312C241.61,268.753 229.074,281.29 213.633,281.29L117.657,281.29C102.216,281.29 89.679,268.753 89.679,253.312C89.679,237.871 102.216,225.335 117.657,225.335L213.633,225.335C229.074,225.335 241.61,237.871 241.61,253.312Z" style="fill:rgb(126,211,79);"/>
            <path d="M206.209,191.029C206.209,206.47 193.673,219.007 178.232,219.007L82.256,219.007C66.815,219.007 54.278,206.47 54.278,191.029C54.278,175.588 66.815,163.052 82.256,163.052L178.232,163.052C193.673,163.052 206.209,175.588 206.209,191.029Z" style="fill:rgb(1,54,123);"/>
            <path d="M241.61,128.747C241.61,144.188 229.074,156.724 213.633,156.724L117.657,156.724C102.216,156.724 89.679,144.188 89.679,128.747C89.679,113.305 102.216,100.769 117.657,100.769L213.633,100.769C229.074,100.769 241.61,113.305 241.61,128.747Z" style="fill:rgb(126,211,79);"/>
            <path d="M206.209,66.464C206.209,81.905 193.673,94.441 178.232,94.441L82.256,94.441C66.815,94.441 54.278,81.905 54.278,66.464C54.278,51.023 66.815,38.486 82.256,38.486L178.232,38.486C193.673,38.486 206.209,51.023 206.209,66.464Z" style="fill:rgb(1,54,123);"/>
            <g>
                <circle cx="273.874" cy="97.779" r="70.247" style="fill:none;stroke:white;stroke-width:20.88px;stroke-linecap:round;stroke-miterlimit:0.348837;"/>
                <circle cx="273.874" cy="97.779" r="70.247" style="fill:rgb(1,54,124);"/>
                <path d="M301.156,113.649C301.156,117.329 300.218,120.779 298.342,123.999C296.467,127.219 293.707,129.873 290.062,131.96C286.418,134.048 282.119,135.269 277.165,135.623L277.165,144.221L270.371,144.221L270.371,135.516C263.294,134.879 257.597,132.739 253.28,129.094C248.963,125.449 246.734,120.513 246.592,114.286L262.515,114.286C262.94,119.381 265.558,122.459 270.371,123.521L270.371,103.245C265.275,101.972 261.171,100.698 258.057,99.424C254.943,98.15 252.254,96.098 249.989,93.267C247.725,90.436 246.592,86.579 246.592,81.696C246.592,75.539 248.804,70.515 253.227,66.622C257.65,62.73 263.365,60.501 270.371,59.934L270.371,51.336L277.165,51.336L277.165,59.934C283.959,60.501 289.39,62.553 293.459,66.091C297.529,69.63 299.811,74.513 300.306,80.741L284.277,80.741C284.065,78.688 283.339,76.901 282.101,75.38C280.862,73.858 279.217,72.779 277.165,72.142L277.165,92.205C282.472,93.55 286.666,94.842 289.744,96.08C292.822,97.319 295.494,99.335 297.759,102.131C300.023,104.926 301.156,108.765 301.156,113.649ZM262.091,80.953C262.091,83.288 262.798,85.182 264.214,86.632C265.629,88.083 267.682,89.268 270.371,90.188L270.371,71.824C267.823,72.178 265.806,73.133 264.32,74.69C262.834,76.247 262.091,78.335 262.091,80.953ZM277.165,123.733C279.854,123.238 281.959,122.141 283.481,120.442C285.002,118.744 285.763,116.692 285.763,114.286C285.763,111.95 285.02,110.075 283.534,108.659C282.048,107.244 279.925,106.076 277.165,105.156L277.165,123.733Z" style="fill:white;fill-rule:nonzero;"/>
            </g>
            <g>
                <circle cx="246.061" cy="250.153" r="70.247" style="fill:none;stroke:white;stroke-width:22.3px;stroke-linecap:round;stroke-miterlimit:0.348837;"/>
                <circle cx="246.061" cy="250.153" r="70.247" style="fill:rgb(1,54,124);"/>
                <path d="M273.874,275.789L273.874,287.678L222.389,287.678L220.054,280.035C223.238,276.921 225.574,273.754 227.06,270.534C228.546,267.314 229.289,263.298 229.289,258.486C229.289,257.99 229.218,257.177 229.077,256.044L217.294,256.044L217.294,245.853L226.104,245.853C224.689,241.041 223.981,236.689 223.981,232.796C223.981,227.984 225.025,223.826 227.113,220.323C229.201,216.82 232.12,214.149 235.871,212.309C239.621,210.469 243.938,209.549 248.821,209.549C256.677,209.549 262.675,211.725 266.815,216.077C270.955,220.429 273.131,226.003 273.343,232.796L259.649,232.796C259.578,229.4 258.694,226.728 256.995,224.782C255.297,222.836 252.643,221.863 249.034,221.863C245.708,221.863 243.071,222.853 241.125,224.835C239.179,226.816 238.206,229.86 238.206,233.964C238.206,235.804 238.401,237.627 238.79,239.431C239.179,241.236 239.763,243.377 240.541,245.853L260.498,245.853L260.498,256.044L243.195,256.044C243.337,257.177 243.408,258.026 243.408,258.592C243.408,261.635 242.824,264.66 241.656,267.668C240.488,270.676 238.701,273.383 236.295,275.789L273.874,275.789Z" style="fill:white;fill-rule:nonzero;"/>
            </g>
        </g>
    </g>
</svg>
