<?xml version="1.0" encoding="UTF-8" standalone="no"?>
<!DOCTYPE svg PUBLIC "-//W3C//DTD SVG 1.1//EN" "http://www.w3.org/Graphics/SVG/1.1/DTD/svg11.dtd">
<svg width="100%" height="100%" viewBox="0 0 379 379" version="1.1" xmlns="http://www.w3.org/2000/svg" xmlns:xlink="http://www.w3.org/1999/xlink" xml:space="preserve" xmlns:serif="http://www.serif.com/" style="fill-rule:evenodd;clip-rule:evenodd;stroke-linejoin:round;stroke-miterlimit:0.73;">
    <g>
        <g>
            <g>
                <path d="M378.185,94.721L378.185,283.697C378.185,335.846 335.846,378.185 283.697,378.185L94.721,378.185C42.571,378.185 0.232,335.846 0.232,283.697L0.232,94.721C0.232,42.571 42.571,0.232 94.721,0.232L283.697,0.232C335.846,0.232 378.185,42.571 378.185,94.721Z" style="fill:white;stroke:white;stroke-width:0.46px;"/>
            </g>
        </g>
        <g>
            <path d="M192.239,254.879C204.394,253.03 214.863,240.188 220.682,221.794L192.239,221.794L192.239,254.879Z" style="fill:rgb(125,210,78);fill-rule:nonzero;"/>
            <path d="M227.057,221.794C224.139,232.958 218.459,243.211 210.542,251.606C225.864,246.392 238.789,235.796 246.906,221.794L227.057,221.794Z" style="fill:rgb(125,210,78);fill-rule:nonzero;"/>
            <path d="M255.8,191.491L231.591,191.491C231.428,199.65 230.44,207.773 228.642,215.733L250.018,215.733C253.463,208.092 255.426,199.865 255.8,191.491Z" style="fill:rgb(125,210,78);fill-rule:nonzero;"/>
            <path d="M192.239,215.733L222.379,215.733C224.297,207.789 225.353,199.661 225.53,191.491L192.239,191.491L192.239,215.733Z" style="fill:rgb(125,210,78);fill-rule:nonzero;"/>
            <path d="M192.239,122.042L192.239,155.127L220.682,155.127C214.863,136.733 204.394,123.891 192.239,122.042Z" style="fill:rgb(125,210,78);fill-rule:nonzero;"/>
            <path d="M250.018,161.188L228.642,161.188C230.44,169.148 231.428,177.271 231.591,185.43L255.8,185.43C255.426,177.056 253.463,168.829 250.018,161.188Z" style="fill:rgb(125,210,78);fill-rule:nonzero;"/>
            <path d="M246.906,155.127C238.789,141.125 225.864,130.529 210.542,125.315C218.459,133.71 224.139,143.963 227.057,155.127L246.906,155.127Z" style="fill:rgb(125,210,78);fill-rule:nonzero;"/>
            <path d="M192.239,185.43L225.53,185.43C225.353,177.26 224.297,169.132 222.379,161.188L192.239,161.188L192.239,185.43Z" style="fill:rgb(125,210,78);fill-rule:nonzero;"/>
            <path d="M186.179,254.879L186.179,221.794L157.736,221.794C163.554,240.188 174.024,253.03 186.179,254.879Z" style="fill:rgb(125,210,78);fill-rule:nonzero;"/>
            <path d="M186.179,191.491L152.888,191.491C153.064,199.661 154.121,207.789 156.039,215.733L186.179,215.733L186.179,191.491Z" style="fill:rgb(125,210,78);fill-rule:nonzero;"/>
            <path d="M186.179,161.188L156.039,161.188C154.121,169.132 153.064,177.26 152.888,185.43L186.179,185.43L186.179,161.188Z" style="fill:rgb(125,210,78);fill-rule:nonzero;"/>
            <path d="M186.179,122.042C174.024,123.891 163.554,136.733 157.736,155.127L186.179,155.127L186.179,122.042Z" style="fill:rgb(125,210,78);fill-rule:nonzero;"/>
            <path d="M122.618,185.43L146.827,185.43C146.99,177.271 147.978,169.148 149.775,161.188L128.4,161.188C124.954,168.829 122.992,177.056 122.618,185.43Z" style="fill:rgb(125,210,78);fill-rule:nonzero;"/>
            <path d="M167.875,251.606C159.959,243.211 154.279,232.958 151.36,221.794L131.512,221.794C139.629,235.796 152.553,246.392 167.875,251.606Z" style="fill:rgb(125,210,78);fill-rule:nonzero;"/>
            <path d="M167.875,125.315C152.553,130.529 139.629,141.125 131.512,155.127L151.36,155.127C154.279,143.963 159.959,133.71 167.875,125.315Z" style="fill:rgb(125,210,78);fill-rule:nonzero;"/>
            <path d="M128.4,215.733L149.775,215.733C147.978,207.773 146.99,199.65 146.827,191.491L122.618,191.491C122.992,199.865 124.954,208.092 128.4,215.733Z" style="fill:rgb(125,210,78);fill-rule:nonzero;"/>
            <path d="M202.919,48.115L207.435,70.1C216.175,71.438 224.741,73.733 232.979,76.945L247.883,60.163C256.223,63.955 264.175,68.546 271.629,73.873L264.547,95.171C271.448,100.699 277.718,106.97 283.247,113.87L304.545,106.788C309.871,114.242 314.463,122.195 318.255,130.535L301.473,145.439C304.685,153.677 306.98,162.243 308.317,170.983L330.303,175.499C331.189,184.617 331.189,193.8 330.303,202.919L308.317,207.435C306.98,216.175 304.685,224.741 301.473,232.979L318.255,247.883C314.463,256.223 309.871,264.175 304.545,271.629L283.247,264.547C277.718,271.448 271.448,277.718 264.547,283.247L271.629,304.545C264.175,309.871 256.223,314.463 247.883,318.255L232.979,301.473C224.741,304.685 216.175,306.98 207.435,308.317L202.919,330.303C193.8,331.189 184.617,331.189 175.499,330.303L170.983,308.317C162.243,306.98 153.677,304.685 145.439,301.473L130.535,318.255C122.195,314.463 114.242,309.871 106.788,304.545L113.87,283.247C106.97,277.718 100.699,271.448 95.171,264.547L73.873,271.629C68.546,264.175 63.955,256.223 60.163,247.883L76.945,232.979C73.733,224.741 71.438,216.175 70.1,207.435L48.115,202.919C47.229,193.8 47.229,184.617 48.115,175.499L70.1,170.983C71.438,162.243 73.733,153.677 76.945,145.439L60.163,130.535C63.955,122.195 68.546,114.242 73.873,106.788L95.171,113.87C100.699,106.97 106.97,100.699 113.87,95.171L106.788,73.873C114.242,68.546 122.195,63.955 130.535,60.163L145.439,76.945C153.677,73.733 162.243,71.438 170.983,70.1L175.499,48.115C184.617,47.229 193.8,47.229 202.919,48.115ZM189.209,94.832C241.297,94.832 283.585,137.121 283.585,189.209C283.585,241.297 241.297,283.585 189.209,283.585C137.121,283.585 94.832,241.297 94.832,189.209C94.832,137.121 137.121,94.832 189.209,94.832Z" style="fill:rgb(1,54,123);"/>
            <path d="M207.826,200.038C207.826,202.55 207.186,204.904 205.906,207.101C204.626,209.299 202.743,211.11 200.256,212.534C197.769,213.959 194.835,214.792 191.454,215.033L191.454,220.901L186.818,220.901L186.818,214.961C181.989,214.526 178.102,213.065 175.156,210.578C172.21,208.091 170.689,204.723 170.592,200.473L181.458,200.473C181.748,203.95 183.534,206.051 186.818,206.775L186.818,192.939C183.341,192.07 180.54,191.201 178.415,190.332C176.291,189.462 174.455,188.062 172.91,186.13C171.365,184.198 170.592,181.567 170.592,178.234C170.592,174.033 172.101,170.604 175.119,167.948C178.138,165.292 182.037,163.771 186.818,163.384L186.818,157.517L191.454,157.517L191.454,163.384C196.091,163.771 199.797,165.171 202.574,167.586C205.351,170 206.908,173.333 207.246,177.582L196.308,177.582C196.163,176.182 195.668,174.963 194.823,173.924C193.978,172.886 192.855,172.149 191.454,171.715L191.454,185.406C195.076,186.323 197.938,187.205 200.038,188.05C202.139,188.895 203.962,190.271 205.508,192.179C207.053,194.086 207.826,196.706 207.826,200.038ZM181.168,177.727C181.168,179.321 181.651,180.613 182.617,181.603C183.583,182.593 184.983,183.402 186.818,184.029L186.818,171.498C185.08,171.739 183.703,172.391 182.689,173.453C181.675,174.516 181.168,175.94 181.168,177.727ZM191.454,206.92C193.29,206.582 194.726,205.834 195.765,204.675C196.803,203.516 197.322,202.115 197.322,200.473C197.322,198.879 196.815,197.6 195.801,196.634C194.787,195.668 193.338,194.871 191.454,194.243L191.454,206.92Z" style="fill:rgb(1,54,124);fill-rule:nonzero;"/>
        </g>
    </g>
</svg>
