<?xml version="1.0" encoding="UTF-8" standalone="no"?>
<!DOCTYPE svg PUBLIC "-//W3C//DTD SVG 1.1//EN" "http://www.w3.org/Graphics/SVG/1.1/DTD/svg11.dtd">
<svg width="100%" height="100%" viewBox="0 0 494 494" version="1.1" xmlns="http://www.w3.org/2000/svg" xmlns:xlink="http://www.w3.org/1999/xlink" xml:space="preserve" xmlns:serif="http://www.serif.com/" style="fill-rule:evenodd;clip-rule:evenodd;stroke-linejoin:round;stroke-miterlimit:0.73;">
    <g>
        <g>
            <g style="filter:url(#_Effect1);">
                <path d="M435.953,152.488L435.953,341.465C435.953,393.614 393.614,435.953 341.465,435.953L152.488,435.953C100.339,435.953 58,393.614 58,341.465L58,152.488C58,100.339 100.339,58 152.488,58L341.465,58C393.614,58 435.953,100.339 435.953,152.488Z" style="fill:none;stroke:rgb(1,55,125);stroke-opacity:0.2;stroke-width:20px;"/>
            </g>
            <path d="M435.953,152.488L435.953,341.465C435.953,393.614 393.614,435.953 341.465,435.953L152.488,435.953C100.339,435.953 58,393.614 58,341.465L58,152.488C58,100.339 100.339,58 152.488,58L341.465,58C393.614,58 435.953,100.339 435.953,152.488Z" style="fill:white;stroke:white;stroke-width:0.46px;"/>
        </g>
        <g>
            <path d="M321.071,186.397L321.071,305.162C321.071,328.105 302.445,346.731 279.502,346.731L196.364,346.731C173.422,346.731 154.795,328.105 154.795,305.162L154.795,186.397C154.795,163.455 173.422,144.828 196.364,144.828L279.502,144.828C302.445,144.828 321.071,163.455 321.071,186.397Z" style="fill:rgb(1,54,124);"/>
            <path d="M286.783,197.91C286.783,204.649 281.312,210.12 274.573,210.12L201.136,210.12C194.397,210.12 188.925,204.649 188.925,197.91C188.925,191.171 194.397,185.699 201.136,185.699L274.573,185.699C281.312,185.699 286.783,191.171 286.783,197.91Z" style="fill:white;"/>
            <path d="M286.783,245.78C286.783,252.519 281.312,257.99 274.573,257.99L201.136,257.99C194.397,257.99 188.925,252.519 188.925,245.78C188.925,239.041 194.397,233.57 201.136,233.57L274.573,233.57C281.312,233.57 286.783,239.041 286.783,245.78Z" style="fill:white;"/>
            <path d="M286.941,293.65C286.941,300.389 281.47,305.86 274.731,305.86L201.293,305.86C194.554,305.86 189.083,300.389 189.083,293.65C189.083,286.911 194.554,281.44 201.293,281.44L274.731,281.44C281.47,281.44 286.941,286.911 286.941,293.65Z" style="fill:white;"/>
            <path d="M203.259,342.695C203.259,350.133 197.22,356.171 189.782,356.171L150.69,356.171C143.252,356.171 137.213,350.133 137.213,342.695C137.213,335.256 143.252,329.218 150.69,329.218L189.782,329.218C197.22,329.218 203.259,335.256 203.259,342.695Z" style="fill:rgb(126,211,79);"/>
            <path d="M210.06,313.751C210.06,321.189 204.021,327.228 196.583,327.228L157.491,327.228C150.053,327.228 144.014,321.189 144.014,313.751C144.014,306.313 150.053,300.275 157.491,300.275L196.583,300.275C204.021,300.275 210.06,306.313 210.06,313.751Z" style="fill:rgb(126,211,79);"/>
            <path d="M203.259,285.464C203.259,292.902 197.22,298.941 189.782,298.941L150.69,298.941C143.252,298.941 137.213,292.902 137.213,285.464C137.213,278.026 143.252,271.988 150.69,271.988L189.782,271.988C197.22,271.988 203.259,278.026 203.259,285.464Z" style="fill:rgb(126,211,79);"/>
            <ellipse cx="237.933" cy="144.828" rx="25.507" ry="23.822" style="fill:rgb(126,211,79);"/>
            <g>
                <circle cx="309.07" cy="257.789" r="47.67" style="fill:rgb(126,211,79);"/>
                <path d="M288.97,244.938C288.97,241.682 289.923,239.133 291.83,237.291C293.736,235.449 296.188,234.528 299.187,234.528C302.186,234.528 304.638,235.449 306.545,237.291C308.451,239.133 309.404,241.682 309.404,244.938C309.404,248.236 308.451,250.807 306.545,252.649C304.638,254.491 302.186,255.412 299.187,255.412C296.188,255.412 293.736,254.491 291.83,252.649C289.923,250.807 288.97,248.236 288.97,244.938ZM330.224,235.299L304.97,280.28L296.231,280.28L321.421,235.299L330.224,235.299ZM299.123,239.925C296.767,239.925 295.589,241.596 295.589,244.938C295.589,248.322 296.767,250.014 299.123,250.014C300.28,250.014 301.179,249.596 301.822,248.761C302.464,247.926 302.786,246.651 302.786,244.938C302.786,241.596 301.565,239.925 299.123,239.925ZM317.18,270.577C317.18,267.278 318.133,264.719 320.039,262.898C321.946,261.077 324.398,260.167 327.397,260.167C330.396,260.167 332.827,261.077 334.69,262.898C336.554,264.719 337.485,267.278 337.485,270.577C337.485,273.876 336.554,276.446 334.69,278.288C332.827,280.13 330.396,281.051 327.397,281.051C324.355,281.051 321.892,280.13 320.007,278.288C318.122,276.446 317.18,273.876 317.18,270.577ZM327.333,265.565C324.891,265.565 323.67,267.235 323.67,270.577C323.67,273.961 324.891,275.653 327.333,275.653C329.732,275.653 330.931,273.961 330.931,270.577C330.931,267.235 329.732,265.565 327.333,265.565Z" style="fill:white;fill-rule:nonzero;"/>
            </g>
        </g>
    </g>
    <defs>
        <filter id="_Effect1" filterUnits="userSpaceOnUse" x="-48" y="-48" width="589.953" height="589.953">
            <feGaussianBlur in="SourceGraphic" stdDeviation="16"/>
        </filter>
    </defs>
</svg>
