<?xml version="1.0" encoding="UTF-8" standalone="no"?>
<!DOCTYPE svg PUBLIC "-//W3C//DTD SVG 1.1//EN" "http://www.w3.org/Graphics/SVG/1.1/DTD/svg11.dtd">
<svg width="100%" height="100%" viewBox="0 0 36 36" version="1.1" xmlns="http://www.w3.org/2000/svg" xmlns:xlink="http://www.w3.org/1999/xlink" xml:space="preserve" xmlns:serif="http://www.serif.com/" style="fill-rule:evenodd;clip-rule:evenodd;stroke-linejoin:round;stroke-miterlimit:0.73;">
    <g>
        <g>
            <path d="M35.455,12.423L35.455,23.053C35.455,29.898 29.898,35.455 23.053,35.455L12.423,35.455C5.579,35.455 0.022,29.898 0.022,23.053L0.022,12.423C0.022,5.579 5.579,0.022 12.423,0.022L23.053,0.022C29.898,0.022 35.455,5.579 35.455,12.423Z" style="fill:white;stroke:white;stroke-width:0.04px;"/>
        </g>
        <g>
            <g>
                <path d="M24.698,14.053L24.698,21.357C24.698,23.372 23.061,25.009 21.046,25.009L10.622,25.009C8.607,25.009 6.97,23.372 6.97,21.357L6.97,14.053C6.97,12.037 8.607,10.401 10.622,10.401L21.046,10.401C23.061,10.401 24.698,12.037 24.698,14.053Z" style="fill:rgb(1,54,124);"/>
                <ellipse cx="9.709" cy="12.694" rx="0.922" ry="0.929" style="fill:white;"/>
                <ellipse cx="21.809" cy="12.694" rx="0.922" ry="0.929" style="fill:white;"/>
                <g>
                    <ellipse cx="15.842" cy="16.485" rx="0.447" ry="0.451" style="fill:white;"/>
                    <ellipse cx="18.305" cy="16.485" rx="0.447" ry="0.451" style="fill:white;"/>
                    <ellipse cx="20.768" cy="16.485" rx="0.447" ry="0.451" style="fill:white;"/>
                </g>
                <g>
                    <ellipse cx="10.897" cy="18.403" rx="0.447" ry="0.451" style="fill:white;"/>
                    <ellipse cx="13.36" cy="18.403" rx="0.447" ry="0.451" style="fill:white;"/>
                    <ellipse cx="15.823" cy="18.403" rx="0.447" ry="0.451" style="fill:white;"/>
                    <ellipse cx="18.286" cy="18.403" rx="0.447" ry="0.451" style="fill:white;"/>
                    <ellipse cx="20.748" cy="18.403" rx="0.447" ry="0.451" style="fill:white;"/>
                </g>
                <g>
                    <ellipse cx="10.919" cy="20.099" rx="0.447" ry="0.451" style="fill:white;"/>
                    <ellipse cx="13.382" cy="20.099" rx="0.447" ry="0.451" style="fill:white;"/>
                    <ellipse cx="15.845" cy="20.099" rx="0.447" ry="0.451" style="fill:white;"/>
                    <ellipse cx="18.308" cy="20.099" rx="0.447" ry="0.451" style="fill:white;"/>
                    <ellipse cx="20.771" cy="20.099" rx="0.447" ry="0.451" style="fill:white;"/>
                </g>
                <g>
                    <ellipse cx="10.905" cy="21.914" rx="0.447" ry="0.451" style="fill:white;"/>
                    <ellipse cx="13.368" cy="21.914" rx="0.447" ry="0.451" style="fill:white;"/>
                    <ellipse cx="15.831" cy="21.914" rx="0.447" ry="0.451" style="fill:white;"/>
                    <ellipse cx="18.294" cy="21.914" rx="0.447" ry="0.451" style="fill:white;"/>
                </g>
                <path d="M14.569,11.768L14.569,12.093L14.037,12.093L14.037,13.779L13.636,13.779L13.636,12.093L13.104,12.093L13.104,11.768L14.569,11.768Z" style="fill:rgb(124,210,76);fill-rule:nonzero;"/>
                <path d="M16.084,13.396L15.289,13.396L15.158,13.779L14.737,13.779L15.455,11.765L15.921,11.765L16.639,13.779L16.216,13.779L16.084,13.396ZM15.975,13.073L15.687,12.232L15.398,13.073L15.975,13.073Z" style="fill:rgb(124,210,76);fill-rule:nonzero;"/>
                <path d="M18.103,13.779L17.671,13.102L17.279,13.779L16.828,13.779L17.457,12.765L16.819,11.768L17.279,11.768L17.711,12.442L18.1,11.768L18.552,11.768L17.926,12.779L18.563,13.779L18.103,13.779Z" style="fill:rgb(124,210,76);fill-rule:nonzero;"/>
            </g>
            <path d="M8.788,31.168C8.788,31.168 8.919,30.944 9.102,30.632C9.703,29.603 10.962,29.161 12.075,29.589C13.533,30.152 15.087,30.443 16.661,30.443C23.692,30.443 29.4,24.735 29.4,17.705C29.4,10.674 23.692,4.966 16.661,4.966C14.401,4.966 12.182,5.567 10.231,6.708L8.788,4.241C11.177,2.844 13.894,2.108 16.661,2.108C25.27,2.108 32.258,9.096 32.258,17.705C32.258,26.313 25.27,33.301 16.661,33.301C13.894,33.301 11.177,32.565 8.788,31.168Z" style="fill:rgb(126,211,79);"/>
            <path d="M5.723,7.847C5.595,7.849 5.476,7.781 5.412,7.67C5.348,7.559 5.349,7.422 5.414,7.312C5.995,6.332 7.213,4.275 7.785,3.309C7.849,3.201 7.966,3.135 8.092,3.135C8.218,3.136 8.334,3.204 8.397,3.313C8.951,4.273 10.124,6.303 10.678,7.264C10.741,7.373 10.742,7.507 10.679,7.617C10.617,7.726 10.501,7.794 10.375,7.795C9.253,7.808 6.863,7.835 5.723,7.847Z" style="fill:rgb(1,54,123);"/>
            <circle cx="6.744" cy="27.693" r="1.304" style="fill:rgb(1,54,123);"/>
            <path d="M19.439,22.874L19.497,23.156C19.609,23.173 19.719,23.203 19.825,23.244L20.016,23.029C20.123,23.077 20.225,23.136 20.321,23.205L20.23,23.478C20.318,23.549 20.399,23.629 20.47,23.718L20.743,23.627C20.811,23.723 20.87,23.825 20.919,23.932L20.703,24.123C20.745,24.228 20.774,24.338 20.791,24.45L21.073,24.508C21.085,24.625 21.085,24.743 21.073,24.86L20.791,24.918C20.774,25.03 20.745,25.14 20.703,25.246L20.919,25.437C20.87,25.544 20.811,25.646 20.743,25.742L20.47,25.651C20.399,25.739 20.318,25.82 20.23,25.891L20.321,26.164C20.225,26.232 20.123,26.291 20.016,26.34L19.825,26.125C19.719,26.166 19.609,26.195 19.497,26.212L19.439,26.494C19.322,26.506 19.204,26.506 19.087,26.494L19.029,26.212C18.917,26.195 18.807,26.166 18.702,26.125L18.51,26.34C18.403,26.291 18.301,26.232 18.206,26.164L18.297,25.891C18.208,25.82 18.128,25.739 18.057,25.651L17.783,25.742C17.715,25.646 17.656,25.544 17.608,25.437L17.823,25.246C17.782,25.14 17.752,25.03 17.735,24.918L17.453,24.86C17.442,24.743 17.442,24.625 17.453,24.508L17.735,24.45C17.752,24.338 17.782,24.228 17.823,24.123L17.608,23.932C17.656,23.825 17.715,23.723 17.783,23.627L18.057,23.718C18.128,23.629 18.208,23.549 18.297,23.478L18.206,23.205C18.301,23.136 18.403,23.077 18.51,23.029L18.702,23.244C18.807,23.203 18.917,23.173 19.029,23.156L19.087,22.874C19.204,22.863 19.322,22.863 19.439,22.874ZM19.263,23.82C19.74,23.82 20.128,24.207 20.128,24.684C20.128,25.162 19.74,25.549 19.263,25.549C18.786,25.549 18.398,25.162 18.398,24.684C18.398,24.207 18.786,23.82 19.263,23.82Z" style="fill:white;"/>
            <path d="M14.528,6.133L14.586,6.415C14.698,6.432 14.808,6.461 14.914,6.503L15.105,6.287C15.212,6.336 15.314,6.395 15.41,6.463L15.319,6.736C15.407,6.807 15.488,6.888 15.559,6.976L15.832,6.885C15.9,6.981 15.959,7.083 16.008,7.19L15.792,7.381C15.834,7.487 15.863,7.597 15.88,7.709L16.162,7.767C16.174,7.884 16.174,8.002 16.162,8.119L15.88,8.177C15.863,8.289 15.834,8.399 15.792,8.504L16.008,8.696C15.959,8.803 15.9,8.905 15.832,9L15.559,8.909C15.488,8.998 15.407,9.078 15.319,9.149L15.41,9.423C15.314,9.491 15.212,9.55 15.105,9.598L14.914,9.383C14.808,9.424 14.698,9.454 14.586,9.471L14.528,9.753C14.411,9.764 14.293,9.764 14.176,9.753L14.118,9.471C14.006,9.454 13.896,9.424 13.791,9.383L13.599,9.598C13.492,9.55 13.39,9.491 13.295,9.423L13.386,9.149C13.297,9.078 13.217,8.998 13.146,8.909L12.873,9C12.804,8.905 12.745,8.803 12.697,8.696L12.912,8.504C12.871,8.399 12.841,8.289 12.824,8.177L12.542,8.119C12.531,8.002 12.531,7.884 12.542,7.767L12.824,7.709C12.841,7.597 12.871,7.487 12.912,7.381L12.697,7.19C12.745,7.083 12.804,6.981 12.873,6.885L13.146,6.976C13.217,6.888 13.297,6.807 13.386,6.736L13.295,6.463C13.39,6.395 13.492,6.336 13.599,6.287L13.791,6.503C13.896,6.461 14.006,6.432 14.118,6.415L14.176,6.133C14.293,6.121 14.411,6.121 14.528,6.133ZM14.352,7.078C14.829,7.078 15.217,7.466 15.217,7.943C15.217,8.42 14.829,8.808 14.352,8.808C13.875,8.808 13.488,8.42 13.488,7.943C13.488,7.466 13.875,7.078 14.352,7.078Z" style="fill:rgb(1,54,123);"/>
            <path d="M23.971,2.765L24.082,3.31C24.299,3.343 24.511,3.4 24.715,3.479L25.085,3.063C25.291,3.157 25.488,3.271 25.673,3.403L25.497,3.931C25.668,4.068 25.824,4.223 25.961,4.394L26.488,4.219C26.62,4.403 26.734,4.6 26.828,4.807L26.412,5.176C26.492,5.38 26.549,5.592 26.582,5.809L27.127,5.921C27.149,6.147 27.149,6.374 27.127,6.6L26.582,6.712C26.549,6.929 26.492,7.141 26.412,7.345L26.828,7.714C26.734,7.921 26.62,8.118 26.488,8.303L25.961,8.127C25.824,8.298 25.668,8.453 25.497,8.59L25.673,9.118C25.488,9.25 25.291,9.364 25.085,9.458L24.715,9.042C24.511,9.121 24.299,9.178 24.082,9.211L23.971,9.756C23.745,9.778 23.517,9.778 23.291,9.756L23.179,9.211C22.963,9.178 22.751,9.121 22.547,9.042L22.177,9.458C21.971,9.364 21.774,9.25 21.589,9.118L21.764,8.59C21.593,8.453 21.438,8.298 21.301,8.127L20.773,8.303C20.641,8.118 20.528,7.921 20.434,7.714L20.85,7.345C20.77,7.141 20.713,6.929 20.68,6.712L20.135,6.6C20.113,6.374 20.113,6.147 20.135,5.921L20.68,5.809C20.713,5.592 20.77,5.38 20.85,5.176L20.434,4.807C20.528,4.6 20.641,4.403 20.773,4.219L21.301,4.394C21.438,4.223 21.593,4.068 21.764,3.931L21.589,3.403C21.774,3.271 21.971,3.157 22.177,3.063L22.547,3.479C22.751,3.4 22.963,3.343 23.179,3.31L23.291,2.765C23.517,2.743 23.745,2.743 23.971,2.765ZM23.631,4.591C24.553,4.591 25.301,5.339 25.301,6.261C25.301,7.182 24.553,7.93 23.631,7.93C22.709,7.93 21.961,7.182 21.961,6.261C21.961,5.339 22.709,4.591 23.631,4.591Z" style="fill:rgb(1,54,123);"/>
            <path d="M27.609,22.888L27.762,23.635C28.059,23.68 28.35,23.758 28.63,23.867L29.136,23.297C29.419,23.426 29.689,23.582 29.942,23.763L29.702,24.486C29.936,24.674 30.149,24.887 30.337,25.121L31.06,24.881C31.241,25.134 31.397,25.404 31.526,25.687L30.956,26.194C31.065,26.473 31.143,26.764 31.188,27.061L31.935,27.214C31.965,27.524 31.965,27.836 31.935,28.146L31.188,28.299C31.143,28.596 31.065,28.887 30.956,29.167L31.526,29.673C31.397,29.956 31.241,30.226 31.06,30.479L30.337,30.239C30.149,30.473 29.936,30.686 29.702,30.874L29.942,31.597C29.689,31.778 29.419,31.934 29.136,32.063L28.63,31.493C28.35,31.602 28.059,31.68 27.762,31.725L27.609,32.472C27.299,32.502 26.987,32.502 26.677,32.472L26.524,31.725C26.227,31.68 25.936,31.602 25.657,31.493L25.15,32.063C24.867,31.934 24.597,31.778 24.344,31.597L24.584,30.874C24.35,30.686 24.137,30.473 23.949,30.239L23.226,30.479C23.045,30.226 22.889,29.956 22.76,29.673L23.33,29.167C23.221,28.887 23.143,28.596 23.098,28.299L22.351,28.146C22.321,27.836 22.321,27.524 22.351,27.214L23.098,27.061C23.143,26.764 23.221,26.473 23.33,26.194L22.76,25.687C22.889,25.404 23.045,25.134 23.226,24.881L23.949,25.121C24.137,24.887 24.35,24.674 24.584,24.486L24.344,23.763C24.597,23.582 24.867,23.426 25.15,23.297L25.657,23.867C25.936,23.758 26.227,23.68 26.524,23.635L26.677,22.888C26.987,22.858 27.299,22.858 27.609,22.888ZM27.143,25.391C28.406,25.391 29.432,26.417 29.432,27.68C29.432,28.943 28.406,29.969 27.143,29.969C25.88,29.969 24.854,28.943 24.854,27.68C24.854,26.417 25.88,25.391 27.143,25.391Z" style="fill:rgb(1,54,123);"/>
        </g>
    </g>
</svg>
