<?xml version="1.0" encoding="UTF-8" standalone="no"?>
<!DOCTYPE svg PUBLIC "-//W3C//DTD SVG 1.1//EN" "http://www.w3.org/Graphics/SVG/1.1/DTD/svg11.dtd">
<svg width="100%" height="100%" viewBox="0 0 379 379" version="1.1" xmlns="http://www.w3.org/2000/svg" xmlns:xlink="http://www.w3.org/1999/xlink" xml:space="preserve" xmlns:serif="http://www.serif.com/" style="fill-rule:evenodd;clip-rule:evenodd;stroke-linejoin:round;stroke-miterlimit:0.73;">
    <g>
        <g>
            <path d="M378.185,132.516L378.185,245.902C378.185,318.911 318.911,378.185 245.902,378.185L132.516,378.185C59.507,378.185 0.232,318.911 0.232,245.902L0.232,132.516C0.232,59.507 59.507,0.232 132.516,0.232L245.902,0.232C318.911,0.232 378.185,59.507 378.185,132.516Z" style="fill:white;stroke:white;stroke-width:0.46px;"/>
        </g>
        <g>
            <path d="M300.789,112.901L300.789,266.382C300.789,296.031 276.718,320.102 247.069,320.102L139.629,320.102C109.981,320.102 85.91,296.031 85.91,266.382L85.91,112.901C85.91,83.252 109.981,59.181 139.629,59.181L247.069,59.181C276.718,59.181 300.789,83.252 300.789,112.901Z" style="fill:rgb(1,54,124);"/>
            <path d="M256.478,127.779C256.478,136.488 249.408,143.558 240.699,143.558L145.795,143.558C137.086,143.558 130.016,136.488 130.016,127.779C130.016,119.07 137.086,111.999 145.795,111.999L240.699,111.999C249.408,111.999 256.478,119.07 256.478,127.779Z" style="fill:white;"/>
            <path d="M256.478,189.642C256.478,198.351 249.408,205.421 240.699,205.421L145.795,205.421C137.086,205.421 130.016,198.351 130.016,189.642C130.016,180.933 137.086,173.862 145.795,173.862L240.699,173.862C249.408,173.862 256.478,180.933 256.478,189.642Z" style="fill:white;"/>
            <path d="M256.682,251.505C256.682,260.213 249.612,267.284 240.903,267.284L145.999,267.284C137.29,267.284 130.22,260.213 130.22,251.505C130.22,242.796 137.29,235.725 145.999,235.725L240.903,235.725C249.612,235.725 256.682,242.796 256.682,251.505Z" style="fill:white;"/>
            <path d="M148.539,314.885C148.539,324.498 140.735,332.301 131.123,332.301L80.604,332.301C70.991,332.301 63.187,324.498 63.187,314.885C63.187,305.273 70.991,297.469 80.604,297.469L131.123,297.469C140.735,297.469 148.539,305.273 148.539,314.885Z" style="fill:rgb(126,211,79);"/>
            <path d="M157.328,277.482C157.328,287.094 149.524,294.898 139.912,294.898L89.393,294.898C79.78,294.898 71.976,287.094 71.976,277.482C71.976,267.87 79.78,260.066 89.393,260.066L139.912,260.066C149.524,260.066 157.328,267.87 157.328,277.482Z" style="fill:rgb(126,211,79);"/>
            <path d="M148.539,240.926C148.539,250.539 140.735,258.343 131.123,258.343L80.604,258.343C70.991,258.343 63.187,250.539 63.187,240.926C63.187,231.314 70.991,223.51 80.604,223.51L131.123,223.51C140.735,223.51 148.539,231.314 148.539,240.926Z" style="fill:rgb(126,211,79);"/>
            <ellipse cx="193.349" cy="59.181" rx="32.963" ry="30.785" style="fill:rgb(126,211,79);"/>
            <g>
                <circle cx="285.28" cy="205.162" r="61.604" style="fill:rgb(126,211,79);"/>
                <path d="M259.304,188.553C259.304,184.346 260.536,181.052 263,178.671C265.463,176.291 268.633,175.101 272.508,175.101C276.383,175.101 279.553,176.291 282.016,178.671C284.48,181.052 285.712,184.346 285.712,188.553C285.712,192.816 284.48,196.138 282.016,198.518C279.553,200.899 276.383,202.089 272.508,202.089C268.633,202.089 265.463,200.899 263,198.518C260.536,196.138 259.304,192.816 259.304,188.553ZM312.617,176.097L279.982,234.227L268.688,234.227L301.241,176.097L312.617,176.097ZM272.425,182.076C269.38,182.076 267.858,184.235 267.858,188.553C267.858,192.927 269.38,195.114 272.425,195.114C273.92,195.114 275.082,194.574 275.913,193.494C276.743,192.415 277.158,190.768 277.158,188.553C277.158,184.235 275.581,182.076 272.425,182.076ZM295.76,221.687C295.76,217.424 296.992,214.116 299.455,211.764C301.919,209.411 305.088,208.234 308.963,208.234C312.839,208.234 315.98,209.411 318.389,211.764C320.797,214.116 322.001,217.424 322.001,221.687C322.001,225.95 320.797,229.272 318.389,231.652C315.98,234.033 312.839,235.223 308.963,235.223C305.033,235.223 301.85,234.033 299.414,231.652C296.978,229.272 295.76,225.95 295.76,221.687ZM308.88,215.21C305.725,215.21 304.147,217.369 304.147,221.687C304.147,226.061 305.725,228.247 308.88,228.247C311.981,228.247 313.531,226.061 313.531,221.687C313.531,217.369 311.981,215.21 308.88,215.21Z" style="fill:white;fill-rule:nonzero;"/>
            </g>
        </g>
    </g>
</svg>
