<?xml version="1.0" encoding="UTF-8" standalone="no"?>
<!DOCTYPE svg PUBLIC "-//W3C//DTD SVG 1.1//EN" "http://www.w3.org/Graphics/SVG/1.1/DTD/svg11.dtd">
<svg width="100%" height="100%" viewBox="0 0 379 379" version="1.1" xmlns="http://www.w3.org/2000/svg" xmlns:xlink="http://www.w3.org/1999/xlink" xml:space="preserve" xmlns:serif="http://www.serif.com/" style="fill-rule:evenodd;clip-rule:evenodd;stroke-linejoin:round;stroke-miterlimit:0.73;">
    <g>
        <g>
            <g>
                <path d="M378.185,94.721L378.185,283.697C378.185,335.846 335.846,378.185 283.697,378.185L94.721,378.185C42.571,378.185 0.232,335.846 0.232,283.697L0.232,94.721C0.232,42.571 42.571,0.232 94.721,0.232L283.697,0.232C335.846,0.232 378.185,42.571 378.185,94.721Z" style="fill:white;stroke:white;stroke-width:0.46px;"/>
            </g>
        </g>
        <g>
            <path d="M183.735,90.662C182.346,90.733 181.161,89.663 181.09,88.274C181.019,86.885 182.089,85.7 183.478,85.629C185.258,85.538 187.05,85.492 188.852,85.492C190.655,85.492 192.447,85.538 194.227,85.629C195.616,85.7 196.686,86.885 196.615,88.274C196.544,89.663 195.358,90.733 193.969,90.662C192.274,90.576 190.568,90.532 188.852,90.532C187.136,90.532 185.43,90.576 183.735,90.662ZM201.936,91.393C200.557,91.21 199.586,89.942 199.769,88.563C199.952,87.184 201.22,86.214 202.599,86.396C206.184,86.872 209.711,87.531 213.171,88.364C214.523,88.689 215.357,90.051 215.032,91.404C214.706,92.756 213.344,93.59 211.992,93.264C208.701,92.472 205.346,91.845 201.936,91.393ZM219.685,95.452C218.363,95.017 217.644,93.591 218.078,92.27C218.513,90.949 219.939,90.229 221.26,90.664C224.684,91.791 228.029,93.091 231.286,94.555C232.555,95.125 233.122,96.618 232.551,97.886C231.981,99.155 230.488,99.722 229.22,99.152C226.123,97.76 222.941,96.523 219.685,95.452ZM236.376,102.725C235.158,102.054 234.714,100.52 235.385,99.302C236.057,98.083 237.591,97.639 238.809,98.311C241.957,100.046 245.006,101.94 247.944,103.982C249.086,104.776 249.369,106.347 248.575,107.49C247.782,108.632 246.21,108.915 245.068,108.121C242.272,106.178 239.372,104.376 236.376,102.725ZM251.448,112.948C250.373,112.065 250.218,110.475 251.101,109.401C251.985,108.326 253.574,108.171 254.649,109.054C257.42,111.332 260.071,113.751 262.591,116.3C263.569,117.289 263.56,118.886 262.571,119.864C261.582,120.842 259.985,120.833 259.007,119.844C256.609,117.418 254.085,115.116 251.448,112.948ZM264.399,125.755C263.504,124.69 263.641,123.099 264.706,122.204C265.77,121.309 267.361,121.446 268.257,122.51C270.562,125.251 272.728,128.113 274.743,131.084C275.524,132.235 275.224,133.804 274.073,134.585C272.922,135.365 271.353,135.065 270.572,133.914C268.654,131.086 266.593,128.363 264.399,125.755ZM274.792,140.71C274.106,139.5 274.533,137.961 275.743,137.276C276.954,136.591 278.493,137.017 279.178,138.228C280.939,141.338 282.543,144.549 283.981,147.848C284.537,149.123 283.953,150.61 282.678,151.166C281.403,151.721 279.917,151.137 279.361,149.862C277.993,146.723 276.466,143.669 274.792,140.71ZM282.254,157.318C281.804,156.002 282.508,154.568 283.824,154.118C285.14,153.668 286.574,154.372 287.024,155.688C288.177,159.061 289.161,162.513 289.965,166.032C290.275,167.388 289.426,168.741 288.07,169.051C286.714,169.361 285.362,168.512 285.052,167.156C284.287,163.809 283.351,160.526 282.254,157.318ZM286.515,175.019C286.316,173.643 287.273,172.364 288.65,172.165C290.026,171.966 291.305,172.923 291.504,174.3C292.011,177.815 292.341,181.387 292.486,185.006C292.541,186.396 291.458,187.569 290.068,187.625C288.678,187.68 287.505,186.597 287.449,185.207C287.312,181.763 286.997,178.364 286.515,175.019ZM287.449,193.21C287.505,191.82 288.678,190.737 290.068,190.793C291.458,190.848 292.541,192.022 292.486,193.411C292.341,197.031 292.011,200.603 291.504,204.118C291.305,205.495 290.026,206.451 288.65,206.253C287.273,206.054 286.316,204.775 286.515,203.399C286.997,200.054 287.312,196.654 287.449,193.21ZM285.052,211.262C285.362,209.906 286.714,209.057 288.07,209.367C289.426,209.677 290.275,211.029 289.965,212.385C289.161,215.905 288.177,219.356 287.024,222.729C286.574,224.046 285.14,224.749 283.824,224.299C282.508,223.849 281.805,222.416 282.254,221.099C283.351,217.891 284.287,214.609 285.052,211.262ZM279.361,228.556C279.917,227.28 281.403,226.696 282.678,227.252C283.953,227.808 284.537,229.294 283.981,230.569C282.543,233.869 280.939,237.079 279.178,240.19C278.493,241.401 276.954,241.827 275.743,241.142C274.533,240.457 274.106,238.918 274.792,237.707C276.466,234.748 277.993,231.694 279.361,228.556ZM270.572,244.504C271.353,243.353 272.922,243.052 274.073,243.833C275.224,244.614 275.524,246.182 274.743,247.333C272.728,250.305 270.562,253.167 268.257,255.907C267.361,256.972 265.77,257.109 264.706,256.214C263.641,255.319 263.504,253.728 264.399,252.663C266.593,250.055 268.654,247.332 270.572,244.504ZM259.007,258.574C259.985,257.585 261.582,257.576 262.571,258.554C263.56,259.532 263.569,261.129 262.591,262.118C260.071,264.667 257.42,267.085 254.649,269.363C253.574,270.247 251.985,270.091 251.101,269.017C250.218,267.942 250.374,266.353 251.448,265.47C254.085,263.302 256.609,261 259.007,258.574ZM245.068,270.297C246.21,269.503 247.782,269.786 248.575,270.928C249.369,272.07 249.086,273.642 247.944,274.436C245.006,276.478 241.957,278.372 238.809,280.107C237.591,280.778 236.057,280.334 235.385,279.116C234.714,277.898 235.158,276.364 236.376,275.693C239.371,274.042 242.272,272.24 245.068,270.297ZM229.22,279.266C230.489,278.695 231.981,279.263 232.552,280.531C233.122,281.8 232.555,283.293 231.286,283.863C228.03,285.326 224.684,286.627 221.26,287.754C219.939,288.188 218.513,287.469 218.079,286.148C217.644,284.826 218.363,283.401 219.685,282.966C222.941,281.894 226.123,280.657 229.22,279.266ZM211.992,285.153C213.344,284.828 214.706,285.662 215.032,287.014C215.357,288.366 214.523,289.728 213.171,290.054C209.711,290.886 206.184,291.546 202.599,292.021C201.22,292.204 199.952,291.233 199.769,289.854C199.586,288.476 200.557,287.208 201.936,287.025C205.346,286.572 208.701,285.945 211.992,285.153ZM193.969,287.755C195.358,287.684 196.544,288.754 196.615,290.143C196.686,291.532 195.616,292.718 194.227,292.789C192.447,292.88 190.655,292.926 188.852,292.926C187.05,292.926 185.258,292.88 183.478,292.789C182.089,292.718 181.019,291.532 181.09,290.143C181.161,288.754 182.346,287.684 183.736,287.755C185.43,287.842 187.136,287.886 188.852,287.886C190.568,287.886 192.274,287.842 193.969,287.755ZM175.769,287.025C177.148,287.208 178.118,288.476 177.936,289.854C177.753,291.233 176.485,292.204 175.106,292.021C171.521,291.546 167.994,290.886 164.533,290.054C163.181,289.728 162.348,288.366 162.673,287.014C162.998,285.662 164.36,284.828 165.713,285.153C169.004,285.945 172.359,286.572 175.769,287.025ZM158.02,282.966C159.341,283.401 160.061,284.826 159.626,286.148C159.191,287.469 157.766,288.188 156.444,287.754C153.021,286.627 149.675,285.326 146.419,283.863C145.15,283.293 144.583,281.8 145.153,280.531C145.723,279.263 147.216,278.695 148.485,279.266C151.582,280.658 154.764,281.894 158.02,282.966ZM141.328,275.693C142.546,276.364 142.99,277.898 142.319,279.116C141.648,280.334 140.114,280.778 138.895,280.107C135.747,278.372 132.699,276.478 129.76,274.436C128.618,273.642 128.335,272.07 129.129,270.928C129.923,269.786 131.495,269.503 132.637,270.297C135.432,272.24 138.333,274.042 141.328,275.693ZM126.257,265.47C127.331,266.353 127.486,267.942 126.603,269.017C125.72,270.091 124.13,270.247 123.056,269.363C120.285,267.085 117.634,264.667 115.113,262.118C114.135,261.129 114.144,259.532 115.133,258.554C116.122,257.576 117.719,257.585 118.697,258.574C121.096,261 123.619,263.302 126.257,265.47ZM113.305,252.663C114.2,253.728 114.063,255.319 112.999,256.214C111.934,257.109 110.343,256.972 109.448,255.907C107.143,253.166 104.977,250.305 102.961,247.333C102.18,246.182 102.481,244.614 103.632,243.833C104.783,243.052 106.351,243.353 107.132,244.504C109.05,247.332 111.112,250.055 113.305,252.663ZM102.913,237.707C103.598,238.918 103.172,240.457 101.961,241.142C100.751,241.827 99.212,241.401 98.527,240.19C96.766,237.079 95.161,233.869 93.723,230.569C93.167,229.294 93.751,227.808 95.027,227.252C96.302,226.696 97.788,227.28 98.344,228.556C99.712,231.694 101.238,234.748 102.913,237.707ZM95.45,221.1C95.9,222.416 95.197,223.849 93.881,224.299C92.564,224.749 91.131,224.046 90.681,222.73C89.528,219.356 88.544,215.905 87.739,212.385C87.429,211.029 88.278,209.677 89.634,209.367C90.99,209.057 92.343,209.906 92.653,211.262C93.418,214.609 94.354,217.891 95.45,221.1ZM91.19,203.398C91.388,204.775 90.432,206.054 89.055,206.253C87.678,206.451 86.399,205.495 86.201,204.118C85.694,200.603 85.363,197.031 85.219,193.411C85.163,192.022 86.246,190.848 87.636,190.793C89.026,190.737 90.199,191.82 90.255,193.21C90.393,196.654 90.707,200.053 91.19,203.398ZM90.255,185.207C90.199,186.597 89.026,187.68 87.636,187.625C86.246,187.569 85.163,186.396 85.219,185.006C85.363,181.387 85.694,177.815 86.201,174.3C86.399,172.923 87.678,171.966 89.055,172.165C90.432,172.364 91.388,173.642 91.19,175.019C90.707,178.364 90.393,181.763 90.255,185.207ZM92.653,167.156C92.343,168.512 90.99,169.361 89.634,169.051C88.278,168.741 87.429,167.389 87.739,166.033C88.544,162.513 89.528,159.062 90.681,155.688C91.131,154.372 92.564,153.669 93.88,154.119C95.197,154.568 95.9,156.002 95.45,157.318C94.354,160.526 93.418,163.809 92.653,167.156ZM98.344,149.862C97.788,151.137 96.302,151.721 95.027,151.166C93.751,150.61 93.167,149.123 93.723,147.848C95.161,144.549 96.766,141.338 98.527,138.228C99.212,137.017 100.751,136.591 101.961,137.276C103.172,137.961 103.598,139.5 102.913,140.71C101.238,143.669 99.712,146.723 98.344,149.862ZM107.132,133.914C106.351,135.065 104.783,135.365 103.632,134.585C102.481,133.804 102.18,132.235 102.961,131.084C104.977,128.113 107.143,125.251 109.448,122.51C110.343,121.446 111.934,121.308 112.999,122.204C114.063,123.099 114.201,124.69 113.305,125.755C111.112,128.363 109.051,131.086 107.132,133.914ZM118.697,119.844C117.719,120.833 116.122,120.842 115.133,119.864C114.144,118.886 114.135,117.289 115.113,116.3C117.633,113.751 120.285,111.332 123.056,109.054C124.13,108.171 125.72,108.326 126.603,109.401C127.486,110.475 127.331,112.065 126.257,112.948C123.619,115.116 121.096,117.418 118.697,119.844ZM132.637,108.121C131.495,108.915 129.923,108.632 129.129,107.49C128.335,106.347 128.618,104.776 129.76,103.982C132.699,101.94 135.747,100.046 138.896,98.311C140.114,97.639 141.648,98.083 142.319,99.301C142.99,100.52 142.547,102.054 141.328,102.725C138.333,104.376 135.432,106.178 132.637,108.121ZM148.485,99.152C147.216,99.722 145.723,99.155 145.153,97.886C144.583,96.618 145.15,95.125 146.418,94.555C149.675,93.091 153.02,91.791 156.444,90.664C157.766,90.229 159.191,90.949 159.626,92.27C160.061,93.591 159.341,95.017 158.02,95.452C154.764,96.523 151.582,97.76 148.485,99.152ZM165.713,93.264C164.36,93.59 162.998,92.756 162.673,91.404C162.347,90.051 163.181,88.689 164.533,88.364C167.993,87.531 171.521,86.872 175.106,86.396C176.484,86.214 177.752,87.184 177.935,88.563C178.118,89.942 177.147,91.21 175.769,91.393C172.359,91.845 169.004,92.472 165.713,93.264Z" style="fill:rgb(126,211,79);"/>
            <circle cx="188.852" cy="88.012" r="36.891" style="fill:rgb(1,54,124);"/>
            <circle cx="87.655" cy="189.209" r="36.891" style="fill:rgb(1,54,124);"/>
            <path d="M70.188,178.034C70.188,175.691 70.874,173.856 72.246,172.53C73.618,171.204 75.384,170.541 77.542,170.541C79.701,170.541 81.466,171.204 82.838,172.53C84.211,173.856 84.897,175.691 84.897,178.034C84.897,180.409 84.211,182.259 82.838,183.585C81.466,184.911 79.701,185.574 77.542,185.574C75.384,185.574 73.618,184.911 72.246,183.585C70.874,182.259 70.188,180.409 70.188,178.034ZM99.883,171.096L81.705,203.474L75.415,203.474L93.546,171.096L99.883,171.096ZM77.496,174.427C75.8,174.427 74.952,175.629 74.952,178.034C74.952,180.47 75.8,181.688 77.496,181.688C78.329,181.688 78.976,181.388 79.439,180.787C79.901,180.185 80.132,179.268 80.132,178.034C80.132,175.629 79.254,174.427 77.496,174.427ZM90.494,196.49C90.494,194.116 91.18,192.273 92.552,190.963C93.924,189.652 95.689,188.997 97.848,188.997C100.007,188.997 101.757,189.652 103.098,190.963C104.439,192.273 105.11,194.116 105.11,196.49C105.11,198.864 104.439,200.715 103.098,202.041C101.757,203.366 100.007,204.029 97.848,204.029C95.659,204.029 93.886,203.366 92.529,202.041C91.172,200.715 90.494,198.864 90.494,196.49ZM97.802,192.882C96.044,192.882 95.165,194.085 95.165,196.49C95.165,198.926 96.044,200.144 97.802,200.144C99.529,200.144 100.392,198.926 100.392,196.49C100.392,194.085 99.529,192.882 97.802,192.882Z" style="fill:white;fill-rule:nonzero;"/>
            <circle cx="188.852" cy="290.406" r="36.891" style="fill:rgb(1,54,124);"/>
            <path d="M184.208,296.183L184.206,296.183C184.206,295.079 184.298,295.588 178.403,283.799C177.199,281.391 173.751,281.387 172.545,283.799C166.601,295.689 166.742,295.114 166.742,296.183L166.741,296.183C166.741,299.198 170.651,301.642 175.474,301.642C180.298,301.642 184.208,299.198 184.208,296.183ZM175.474,285.267L180.387,295.092L170.562,295.092L175.474,285.267ZM210.406,296.183C210.406,295.079 210.498,295.588 204.603,283.799C203.399,281.391 199.951,281.387 198.745,283.799C192.8,295.689 192.942,295.114 192.942,296.183L192.941,296.183C192.941,299.198 196.851,301.642 201.674,301.642C206.497,301.642 210.408,299.198 210.408,296.183L210.406,296.183ZM196.762,295.092L201.674,285.267L206.587,295.092L196.762,295.092ZM202.766,303.825L190.758,303.825L190.758,283.715C192.362,283.012 193.566,281.567 193.923,279.808L202.766,279.808C203.369,279.808 203.858,279.32 203.858,278.717L203.858,276.533C203.858,275.93 203.369,275.442 202.766,275.442L192.916,275.442C191.92,274.124 190.354,273.258 188.574,273.258C186.794,273.258 185.228,274.124 184.232,275.442L174.383,275.442C173.78,275.442 173.291,275.93 173.291,276.533L173.291,278.717C173.291,279.32 173.78,279.808 174.383,279.808L183.226,279.808C183.583,281.566 184.786,283.012 186.391,283.715L186.391,303.825L174.383,303.825C173.78,303.825 173.291,304.314 173.291,304.917L173.291,307.1C173.291,307.703 173.78,308.192 174.383,308.192L202.766,308.192C203.369,308.192 203.858,307.703 203.858,307.1L203.858,304.917C203.858,304.314 203.369,303.825 202.766,303.825Z" style="fill:white;fill-rule:nonzero;"/>
            <circle cx="290.763" cy="185.337" r="36.891" style="fill:rgb(1,54,124);"/>
            <path d="M303.82,192.171C303.82,193.883 303.375,195.488 302.485,196.985C301.595,198.483 300.285,199.718 298.555,200.689C296.825,201.66 294.785,202.228 292.434,202.392L292.434,206.392L289.209,206.392L289.209,202.343C285.85,202.046 283.146,201.051 281.098,199.356C279.049,197.66 277.991,195.364 277.923,192.468L285.481,192.468C285.682,194.838 286.925,196.27 289.209,196.763L289.209,187.333C286.791,186.74 284.843,186.148 283.365,185.555C281.887,184.963 280.611,184.008 279.536,182.691C278.461,181.375 277.923,179.581 277.923,177.309C277.923,174.446 278.973,172.108 281.072,170.298C283.172,168.488 285.884,167.451 289.209,167.187L289.209,163.188L292.434,163.188L292.434,167.187C295.658,167.451 298.236,168.405 300.167,170.051C302.099,171.697 303.182,173.968 303.417,176.865L295.809,176.865C295.709,175.91 295.364,175.079 294.777,174.371C294.189,173.664 293.408,173.162 292.434,172.866L292.434,182.198C294.953,182.823 296.943,183.424 298.404,184C299.865,184.576 301.133,185.514 302.208,186.814C303.283,188.114 303.82,189.9 303.82,192.171ZM285.279,176.964C285.279,178.05 285.615,178.93 286.287,179.605C286.959,180.28 287.933,180.831 289.209,181.259L289.209,172.717C288,172.882 287.043,173.326 286.337,174.051C285.632,174.775 285.279,175.746 285.279,176.964ZM292.434,196.862C293.71,196.632 294.709,196.121 295.431,195.331C296.154,194.541 296.515,193.587 296.515,192.468C296.515,191.381 296.162,190.509 295.457,189.851C294.751,189.192 293.744,188.649 292.434,188.221L292.434,196.862Z" style="fill:white;fill-rule:nonzero;"/>
            <g>
                <g>
                    <path d="M185.829,167.244C192.506,167.244 205.86,167.244 212.537,175.494C219.215,183.744 219.215,200.245 212.537,216.746C212.537,216.747 212.536,216.748 212.536,216.749C208.339,227.858 197.704,235.209 185.829,235.209C173.954,235.209 163.319,227.858 159.122,216.749C159.122,216.748 159.121,216.747 159.121,216.746C152.444,200.245 152.444,183.744 159.121,175.494C165.798,167.244 179.152,167.244 185.829,167.244Z" style="fill:rgb(1,55,125);"/>
                    <path d="M185.219,194.675C185.362,194.481 185.588,194.366 185.829,194.366C186.07,194.366 186.297,194.481 186.439,194.675C187.639,196.313 190.254,199.882 191.01,200.913C191.141,201.093 191.187,201.322 191.134,201.539C190.623,203.632 187.896,214.796 186.564,220.253C186.481,220.591 186.178,220.829 185.829,220.829C185.481,220.829 185.178,220.591 185.095,220.253C183.762,214.796 181.035,203.632 180.524,201.539C180.471,201.322 180.517,201.093 180.649,200.913C181.404,199.882 184.02,196.313 185.219,194.675Z" style="fill:white;"/>
                    <path d="M185.829,182.898C186.683,182.898 188.39,182.898 189.244,183.953C190.098,185.008 190.098,187.118 189.244,189.227C189.244,189.228 189.244,189.228 189.243,189.229C188.707,190.649 187.347,191.588 185.829,191.588C184.311,191.588 182.952,190.649 182.415,189.229C182.415,189.228 182.415,189.228 182.415,189.227C181.561,187.118 181.561,185.008 182.415,183.953C183.268,182.898 184.976,182.898 185.829,182.898Z" style="fill:white;"/>
                    <path d="M185.829,142.103C189.572,142.103 197.058,142.103 200.801,146.728C204.544,151.353 204.544,160.602 200.801,169.852C200.8,169.853 200.8,169.855 200.799,169.856C198.447,176.082 192.485,180.203 185.829,180.203C179.173,180.203 173.212,176.082 170.859,169.856C170.859,169.854 170.858,169.853 170.858,169.852C167.115,160.602 167.115,151.353 170.858,146.728C174.601,142.103 182.086,142.103 185.829,142.103Z" style="fill:rgb(124,210,76);"/>
                </g>
            </g>
            <g id="Guides">
                <path id="path1278" d="M185.736,74.414C184.914,74.414 184.163,74.681 183.559,75.195C182.955,75.708 182.485,76.538 182.485,77.5C182.485,77.54 182.497,77.576 182.498,77.615L174.555,77.615C173.886,77.615 173.439,78.066 173.372,78.734L173.372,82.641L185.313,87.16C185.837,86.156 186.862,85.462 188.051,85.44C188.072,85.433 188.088,85.426 188.109,85.426L189.515,85.426C189.538,85.426 189.559,85.44 189.582,85.44C190.77,85.466 191.793,86.162 192.313,87.167L204.363,82.398L204.363,78.798C204.333,78.095 203.852,77.615 203.153,77.615L195.217,77.615C195.218,77.576 195.23,77.54 195.23,77.5C195.23,76.538 194.759,75.709 194.155,75.195C193.551,74.682 192.801,74.414 191.979,74.414L185.736,74.414ZM185.736,76.753L191.979,76.753C192.421,76.753 192.784,76.924 192.993,77.101C193.201,77.279 193.229,77.399 193.229,77.5C193.229,77.543 193.212,77.577 193.206,77.615C193.805,77.615 194.152,77.614 194.963,77.615C194.773,77.946 194.497,78.236 194.169,78.45C193.559,78.846 192.801,79.038 191.979,79.038L185.736,79.038C184.914,79.038 184.155,78.847 183.546,78.45C183.217,78.236 182.942,77.946 182.752,77.615C183.764,77.615 183.767,77.615 184.509,77.615C184.503,77.577 184.485,77.543 184.485,77.5C184.485,77.399 184.514,77.279 184.722,77.101C184.93,76.924 185.294,76.753 185.736,76.753ZM204.373,84.497L192.685,89.127L192.685,90.134C192.685,91.892 191.252,93.342 189.511,93.342L188.109,93.342C186.368,93.342 184.938,91.892 184.938,90.134L184.938,89.12L173.335,84.72L173.335,99.916C173.335,100.517 173.875,101.16 174.552,101.16L203.156,101.16C203.833,101.16 204.373,100.517 204.373,99.916L204.373,84.497ZM188.109,87.386L188.109,87.39C187.998,87.39 187.903,87.424 187.804,87.444C187.75,87.457 187.689,87.448 187.639,87.474C187.222,87.637 186.95,88.022 186.909,88.529C186.903,88.592 186.892,88.654 186.875,88.715L186.875,90.141C186.875,90.871 187.386,91.385 188.109,91.385L189.511,91.385C190.234,91.385 190.745,90.871 190.745,90.141L190.745,88.718C190.73,88.661 190.719,88.602 190.715,88.542C190.678,88.026 190.41,87.637 189.988,87.474C189.847,87.422 189.686,87.386 189.515,87.386L188.109,87.386Z" style="fill:white;fill-rule:nonzero;"/>
            </g>
        </g>
    </g>
</svg>
