<?xml version="1.0" encoding="UTF-8" standalone="no"?>
<!DOCTYPE svg PUBLIC "-//W3C//DTD SVG 1.1//EN" "http://www.w3.org/Graphics/SVG/1.1/DTD/svg11.dtd">
<svg width="100%" height="100%" viewBox="0 0 125 125" version="1.1" xmlns="http://www.w3.org/2000/svg" xmlns:xlink="http://www.w3.org/1999/xlink" xml:space="preserve" xmlns:serif="http://www.serif.com/" style="fill-rule:evenodd;clip-rule:evenodd;stroke-linejoin:round;stroke-miterlimit:2;">
    <g transform="matrix(0.787402,0,0,0.787402,62.5,62.5)">
        <g id="taxcalc-logo" transform="matrix(0.573022,0,0,0.573022,4.44089e-15,2.86164e-14)">
            <g transform="matrix(1,0,0,1,-138.52,-34)">
                <path d="M90,49.18C91.846,49.119 93.673,48.782 95.42,48.18L95.42,54.59C92.884,55.622 90.156,56.103 87.42,56C84.027,56 81.553,55.14 80,53.42C78.447,51.7 77.66,49.09 77.64,45.59L77.64,30.39L73.49,30.39L73.49,26.75L78.23,23.87L80.71,17.21L86.21,17.21L86.21,23.92L95,23.92L95,30.38L86.21,30.38L86.21,45.59C86.121,46.597 86.488,47.592 87.21,48.3C87.98,48.913 88.947,49.226 89.93,49.18" style="fill:rgb(41,48,51);fill-rule:nonzero;"/>
                <path d="M118,40.85L114.67,40.96C112.691,40.88 110.727,41.351 109,42.32C107.77,43.17 107.074,44.608 107.17,46.1C107.17,48.533 108.57,49.75 111.37,49.75C113.139,49.834 114.87,49.203 116.17,48C117.405,46.809 118.072,45.144 118,43.43L118,40.85ZM120.54,55.47L118.88,51.18L118.65,51.18C117.487,52.785 115.963,54.094 114.2,55C112.299,55.779 110.253,56.141 108.2,56.06C105.57,56.2 102.993,55.26 101.07,53.46C99.303,51.72 98.417,49.233 98.41,46C98.403,42.767 99.573,40.297 101.92,38.59C104.26,36.977 107.79,36.113 112.51,36L117.98,35.83L117.98,34.45C117.98,31.25 116.343,29.65 113.07,29.65C109.98,29.79 106.953,30.57 104.18,31.94L101.32,26.13C105.052,24.204 109.201,23.225 113.4,23.28C117.627,23.28 120.87,24.2 123.13,26.04C125.39,27.88 126.52,30.683 126.52,34.45L126.52,55.45L120.54,55.47Z" style="fill:rgb(41,48,51);fill-rule:nonzero;"/>
                <path d="M139.72,39.35L129.57,23.92L139.33,23.92L145.45,33.97L151.63,23.92L161.39,23.92L151.12,39.35L161.87,55.47L152.08,55.47L145.45,44.66L138.79,55.47L129.03,55.47L139.72,39.35Z" style="fill:rgb(41,48,51);fill-rule:nonzero;"/>
                <path d="M176.75,56C166.917,56 162,50.62 162,39.86C162,34.527 163.333,30.433 166,27.58C168.667,24.727 172.493,23.31 177.48,23.33C180.876,23.271 184.239,24.008 187.3,25.48L184.76,32.14C183.531,31.628 182.276,31.181 181,30.8C179.865,30.458 178.686,30.282 177.5,30.28C173.027,30.28 170.787,33.46 170.78,39.82C170.78,45.993 173.02,49.077 177.5,49.07C179.058,49.086 180.609,48.864 182.1,48.41C183.603,47.929 185.028,47.231 186.33,46.34L186.33,53.7C185.036,54.542 183.609,55.16 182.11,55.53C180.345,55.905 178.544,56.076 176.74,56.04" style="fill:rgb(41,48,51);fill-rule:nonzero;"/>
                <path d="M209.16,40.85L205.83,40.96C203.879,40.891 201.945,41.358 200.24,42.31C199.01,43.16 198.314,44.598 198.41,46.09C198.41,48.517 199.8,49.73 202.58,49.73C204.339,49.811 206.06,49.188 207.36,48C208.58,46.802 209.232,45.138 209.15,43.43L209.16,40.85ZM211.7,55.47L210,51.18L209.77,51.18C208.606,52.784 207.082,54.092 205.32,55C203.419,55.779 201.373,56.141 199.32,56.06C196.682,56.209 194.096,55.268 192.17,53.46C190.43,51.727 189.56,49.263 189.56,46.07C189.56,42.737 190.73,40.267 193.07,38.66C195.41,37.053 198.94,36.167 203.66,36L209.13,35.83L209.13,34.45C209.13,31.25 207.493,29.65 204.22,29.65C201.13,29.79 198.103,30.57 195.33,31.94L192.48,26.13C196.21,24.209 200.355,23.23 204.55,23.28C208.777,23.28 212.023,24.2 214.29,26.04C216.557,27.88 217.683,30.683 217.67,34.45L217.67,55.45L211.7,55.47Z" style="fill:rgb(41,48,51);fill-rule:nonzero;"/>
                <rect x="223.68" y="11.56" width="8.6" height="43.9" style="fill:rgb(41,48,51);"/>
                <path d="M252.3,56C242.48,56 237.57,50.61 237.57,39.83C237.57,34.497 238.903,30.403 241.57,27.55C244.237,24.697 248.047,23.29 253,23.33C256.396,23.271 259.759,24.008 262.82,25.48L260.28,32.14C259.044,31.63 257.782,31.182 256.5,30.8C255.365,30.458 254.186,30.282 253,30.28C248.52,30.28 246.28,33.46 246.28,39.82C246.28,45.993 248.52,49.077 253,49.07C254.558,49.086 256.109,48.864 257.6,48.41C259.103,47.929 260.528,47.231 261.83,46.34L261.83,53.7C260.536,54.542 259.109,55.16 257.61,55.53C255.845,55.905 254.044,56.076 252.24,56.04" style="fill:rgb(41,48,51);fill-rule:nonzero;"/>
                <path d="M271,21.53L271.74,21.53C272.055,21.549 272.365,21.449 272.61,21.25C272.824,21.077 272.946,20.815 272.94,20.54C272.97,20.264 272.861,19.99 272.65,19.81C272.373,19.644 272.052,19.567 271.73,19.59L271,19.59L271,21.53ZM274,20.53C274.012,20.886 273.91,21.236 273.71,21.53C273.509,21.814 273.226,22.03 272.9,22.15L274.53,24.75L273.39,24.75L272,22.35L271,22.35L271,24.75L270,24.75L270,18.75L271.77,18.75C272.354,18.703 272.937,18.858 273.42,19.19C273.808,19.516 274.022,20.004 274,20.51M267.5,21.75C267.511,24.154 269.486,26.129 271.89,26.14C272.66,26.147 273.418,25.943 274.08,25.55C275.432,24.766 276.268,23.316 276.268,21.752C276.268,19.344 274.286,17.362 271.878,17.362C270.314,17.362 268.864,18.198 268.08,19.55C267.685,20.216 267.477,20.976 267.48,21.75M266.77,21.75C266.775,18.95 269.08,16.648 271.88,16.648C272.775,16.648 273.654,16.883 274.43,17.33C275.212,17.772 275.858,18.418 276.3,19.2C276.771,19.99 277.02,20.893 277.02,21.813C277.02,23.612 276.068,25.283 274.52,26.2C273.735,26.662 272.841,26.905 271.93,26.905C269.129,26.905 266.823,24.601 266.82,21.8" style="fill:rgb(41,48,51);fill-rule:nonzero;"/>
                <path d="M0.21,48.54L0,48.54L9.03,58.82L55.01,50.04L55.01,55.86L9.03,68L0,53.8L0.21,53.8L0.21,48.54Z" style="fill:rgb(11,69,120);fill-rule:nonzero;"/>
                <path d="M0.21,48.55L0,48.55L9.02,58.83L55.01,50.04L55.01,55.87L9.02,68L0,53.81L0.21,53.81L0.21,48.55Z" style="fill:rgb(36,46,84);fill-rule:nonzero;"/>
                <path d="M0.21,41.97L0,41.97L13.47,47.46L55.01,42.75L55.02,48.56L55.01,48.58L13.47,56.72L0,47.23L0.21,47.23L0.21,41.97Z" style="fill:rgb(185,23,85);fill-rule:nonzero;"/>
                <path d="M0,35.4L17.99,35.91L55.01,35.47L55.01,41.3L17.99,45.24L0,40.66L0.21,40.66L0.21,35.4L0,35.4Z" style="fill:rgb(6,170,208);fill-rule:nonzero;"/>
                <path d="M55.01,28.18L55.01,34.01L22.59,33.56L0,34.08L0.21,34.08L0.21,28.82L0,28.82L22.59,24.15L55.01,28.18Z" style="fill:rgb(156,25,117);fill-rule:nonzero;"/>
                <path d="M0,22.25L27.27,12.18L55.01,20.9L55.02,20.9L55.01,26.73L27.27,21.68L0,27.51L0.21,27.51L0.21,22.25L0,22.25Z" style="fill:rgb(225,83,17);fill-rule:nonzero;"/>
                <path d="M32.04,0L32.04,9.58L0,20.93L0,15.68" style="fill:rgb(72,187,184);fill-rule:nonzero;"/>
                <path d="M9.03,68L9.03,58.82L55.01,50.04L55.01,55.86L9.03,68Z" style="fill:rgb(15,69,120);fill-rule:nonzero;"/>
                <path d="M13.47,56.72L13.47,47.46L55.01,42.75L55.01,48.58L13.47,56.72Z" style="fill:rgb(241,143,166);fill-rule:nonzero;"/>
                <path d="M17.99,45.24L17.99,35.91L55.01,35.47L55.01,41.3L17.99,45.24Z" style="fill:rgb(131,198,228);fill-rule:nonzero;"/>
                <path d="M22.59,33.56L22.59,24.15L55.01,28.18L55.01,34.01L22.59,33.56Z" style="fill:rgb(183,122,170);fill-rule:nonzero;"/>
                <path d="M55.01,26.73L27.27,21.68L27.27,12.18L55.01,20.9L55.01,26.73Z" style="fill:rgb(238,157,114);fill-rule:nonzero;"/>
                <path d="M55.01,19.44L32.04,9.58L32.04,0L55.01,13.61L55.01,19.44Z" style="fill:rgb(155,211,218);fill-rule:nonzero;"/>
            </g>
            <g>
            </g>
        </g>
    </g>
</svg>
