<?xml version="1.0" encoding="UTF-8" standalone="no"?><!DOCTYPE svg PUBLIC "-//W3C//DTD SVG 1.1//EN" "http://www.w3.org/Graphics/SVG/1.1/DTD/svg11.dtd"><svg width="100%" height="100%" viewBox="0 0 125 125" version="1.1" xmlns="http://www.w3.org/2000/svg" xmlns:xlink="http://www.w3.org/1999/xlink" xml:space="preserve" xmlns:serif="http://www.serif.com/" style="fill-rule:evenodd;clip-rule:evenodd;stroke-linejoin:round;stroke-miterlimit:2;"><g><path d="M17.249,79.749c9.527,0 17.25,-7.722 17.25,-17.249c0,-9.527 -7.723,-17.249 -17.25,-17.249c-9.526,0 -17.249,7.722 -17.249,17.249c0,9.527 7.723,17.249 17.249,17.249Z" style="fill:#d52b1e;fill-rule:nonzero;"/><path d="M13.401,68.825c-1.982,-1.43 -3.887,-2.956 -5.712,-4.573c-0.67,1.472 -1.272,2.978 -1.805,4.519c2.909,2.469 6.8,5.298 9.468,6.888c3.461,-8.962 8.862,-14.807 14.029,-18.886c-0.663,-1.403 -1.564,-2.675 -2.648,-3.76c-5.509,4.224 -10.078,9.621 -13.332,15.812Z" style="fill:#fff;fill-rule:nonzero;"/><path d="M39.382,70.063l0,-2.135l1.867,0l0,-3.09l2.622,0l0,3.09l2.668,0l0,2.135l-2.668,0l0,4.956c0,0.955 0.222,1.645 1.399,1.645c0.356,0 0.824,-0.066 1.134,-0.223l0.089,2.089c-0.468,0.177 -1.177,0.288 -1.779,0.288c-2.825,0 -3.469,-1.733 -3.469,-3.78l0,-4.975l-1.863,0Z" style="fill-rule:nonzero;"/><path d="M58.146,78.599l-2.534,0l0,-1.713l-0.046,0c-0.468,1.066 -1.733,2.024 -3.312,2.024c-2.779,0 -3.937,-2.135 -3.937,-4.312l0,-6.67l2.668,0l0,5.914c0,1.269 0.288,2.845 2.001,2.845c1.691,0 2.492,-1.469 2.492,-2.891l0,-5.868l2.668,0l0,10.671Z" style="fill-rule:nonzero;"/><path d="M60.906,67.728l2.556,0l0,1.779l0.046,0c0.579,-1.223 1.713,-2.089 3.113,-2.089c0.199,0 0.467,0.023 0.644,0.065l0,2.446c-0.357,-0.088 -0.579,-0.111 -0.825,-0.111c-2.399,0 -2.867,2.089 -2.867,2.867l0,5.715l-2.667,0l0,-10.672Z" style="fill-rule:nonzero;"/><path d="M71.665,61.791l0,7.494l0.065,0c0.556,-0.69 1.622,-1.668 3.58,-1.668c3.048,0 5.179,2.446 5.179,5.604c0,3.113 -2.001,5.693 -5.248,5.693c-1.49,0 -2.936,-0.69 -3.668,-1.913l-0.046,0l0,1.602l-2.534,0l0,-16.808l2.672,0l0,-0.004Zm3.043,8.004c-1.954,0 -3.135,1.801 -3.135,3.469c0,1.667 1.177,3.423 3.135,3.423c2.067,0 3.067,-1.802 3.067,-3.469c0.004,-1.668 -0.997,-3.423 -3.067,-3.423Z" style="fill-rule:nonzero;"/><path d="M87.45,67.617c3.224,0 5.804,2.247 5.804,5.604c0,3.358 -2.58,5.693 -5.804,5.693c-3.223,0 -5.803,-2.335 -5.803,-5.693c0,-3.357 2.58,-5.604 5.803,-5.604Zm0,9.07c2.112,0 3.09,-1.802 3.09,-3.469c0,-1.668 -0.978,-3.423 -3.09,-3.423c-2.112,0 -3.089,1.755 -3.089,3.423c0,1.667 0.977,3.469 3.089,3.469Z" style="fill-rule:nonzero;"/><path d="M93.806,70.063l0,-2.135l1.866,0l0,-3.09l2.622,0l0,3.09l2.668,0l0,2.135l-2.668,0l0,4.956c0,0.955 0.223,1.645 1.4,1.645c0.356,0 0.823,-0.066 1.134,-0.223l0.088,2.089c-0.468,0.177 -1.176,0.288 -1.778,0.288c-2.825,0 -3.469,-1.733 -3.469,-3.78l0,-4.975l-1.863,0Z" style="fill-rule:nonzero;"/><path d="M109.748,77.242l-0.065,0c-0.533,0.936 -1.802,1.622 -3.312,1.622c-1.714,0 -4.002,-0.824 -4.002,-3.312c0,-3.178 4.002,-3.622 7.337,-3.622l0,-0.269c0,-1.311 -1.112,-1.955 -2.446,-1.955c-1.135,0 -2.223,0.533 -2.913,1.223l-1.38,-1.621c1.2,-1.112 2.89,-1.691 4.512,-1.691c3.825,0 4.757,2.358 4.757,4.493l0,6.493l-2.492,0l0,-1.361l0.004,0Zm-0.046,-3.511l-0.602,0c-1.69,0 -4.067,0.2 -4.067,1.779c0,1.023 0.954,1.334 1.867,1.334c1.824,0 2.802,-1.047 2.802,-2.733l0,-0.38Z" style="fill-rule:nonzero;"/><path d="M117.33,72.93l-3.845,-5.002l3.201,0l2.311,3.312l2.381,-3.312l3.066,0l-3.825,5.002l4.358,5.669l-3.247,0l-2.779,-3.89l-2.802,3.89l-3.159,0l4.34,-5.669Z" style="fill-rule:nonzero;"/><path d="M68.614,53.258c0,2.706 2.166,4.684 4.918,4.684c2.752,0 4.922,-1.974 4.922,-4.684l0,-6.213l-2.668,0l0,5.895c0,1.461 -0.977,2.438 -2.262,2.438c-1.288,0 -2.261,-0.977 -2.261,-2.438l0,-5.895l-2.664,0l0.015,6.213Z" style="fill-rule:nonzero;"/><path d="M85.576,49.54l3.181,0l0,8.188l2.664,0l0,-8.188l3.178,0l0,-2.495l-9.023,0l0,2.495Z" style="fill-rule:nonzero;"/><rect x="81.191" y="47.048" width="2.664" height="10.683" style="fill-rule:nonzero;"/><path d="M57.85,49.54l3.182,0l0,8.188l2.664,0l0,-8.188l3.178,0l0,-2.495l-9.024,0l0,2.495Z" style="fill-rule:nonzero;"/><path d="M43.871,47.048l-2.664,0l0,10.684l2.664,0l0,-10.684Z" style="fill-rule:nonzero;"/><path d="M56.447,51.514c0,-2.706 -2.169,-4.684 -4.921,-4.684c-2.753,0 -4.922,1.974 -4.922,4.684l0,6.214l2.664,0l0,-5.896c0,-1.46 0.977,-2.438 2.261,-2.438c1.285,0 2.262,0.978 2.262,2.438l0,5.896l2.664,0l-0.008,-6.214Z" style="fill-rule:nonzero;"/><g id="tt-logo-50-50-color"></g></g></svg>