<?xml version="1.0" encoding="UTF-8" standalone="no"?>
<!DOCTYPE svg PUBLIC "-//W3C//DTD SVG 1.1//EN" "http://www.w3.org/Graphics/SVG/1.1/DTD/svg11.dtd">
<svg width="100%" height="100%" viewBox="0 0 125 125" version="1.1" xmlns="http://www.w3.org/2000/svg" xmlns:xlink="http://www.w3.org/1999/xlink" xml:space="preserve" xmlns:serif="http://www.serif.com/" style="fill-rule:evenodd;clip-rule:evenodd;stroke-linejoin:round;stroke-miterlimit:2;">
    <g transform="matrix(0.05,0,0,0.05,62.5,62.5)">
        <g id="quicken-turbotax" transform="matrix(1,0,0,1,-1250,-1250)">
            <g>
                <rect x="0" y="0" width="2500" height="2500" style="fill:white;"/>
                <rect x="36.756" y="801.506" width="2426.49" height="658.332" style="fill:rgb(194,60,64);"/>
                <path d="M343.621,1417.27L230.447,1417.27L289.641,1089.76L193.976,1089.76L212.691,989.36L515.509,989.36L496.781,1089.76L402.802,1089.76L343.621,1417.27Z" style="fill:white;"/>
                <path d="M563.718,1417.27L573.225,1366.16L572.096,1366.16C552.72,1406.31 511.061,1423.33 473.708,1423.33C449.947,1423.33 427.898,1417.27 413.632,1399.62C397.355,1377.71 400.195,1350.32 405.642,1321.11L445.693,1106.36L557.739,1106.36L522.656,1294.37C518.933,1314.46 514.381,1335.73 539.841,1335.73C551.176,1335.73 563.147,1329.04 570.307,1318.08C577.31,1307.74 579.917,1296.8 582.07,1285.25L615.454,1106.37L727.5,1106.37L669.512,1417.28L563.718,1417.28L563.718,1417.27ZM839.572,1170.25C857.25,1127.06 883.877,1096.63 927.896,1100.28L962.927,1099.6L942.604,1208.5C925.873,1205.94 922.384,1205.94 908.441,1205.94C890.335,1205.94 864.227,1211.01 851.88,1228.65C841.128,1243.87 837.393,1263.94 833.969,1282.2L808.795,1417.27L696.736,1417.27L754.724,1106.36L850.363,1106.36L838.456,1170.25L839.572,1170.25ZM1006.05,989.36L1118.1,989.36L1091.26,1143.49L1092.96,1143.49C1114.7,1111.86 1141.2,1100.28 1175.14,1100.28C1256.07,1100.28 1268.24,1183.63 1254.4,1257.86C1238.3,1344.26 1189.59,1423.33 1099.05,1423.33C1041.23,1423.33 1019.15,1379.93 1019.15,1379.93L1012.49,1417.27L928.155,1417.27L1006.05,989.36ZM1063.78,1293.76C1059.24,1318.08 1056.52,1347.9 1085.94,1347.9C1124.41,1347.9 1133.61,1292.52 1139.17,1262.74C1144.74,1232.93 1156.77,1177.58 1116.59,1177.58C1106.4,1177.58 1097.45,1183.05 1089.64,1191.56C1079.79,1201.89 1079.11,1211.65 1076.71,1224.41L1063.78,1293.76ZM1596.69,1264.55C1579.13,1358.84 1496.36,1423.33 1408.08,1423.33C1319.79,1423.33 1261.1,1358.84 1278.71,1264.55C1297.31,1164.78 1377.82,1100.28 1468.37,1100.28C1558.88,1100.28 1615.32,1164.78 1596.69,1264.55ZM1399.44,1260.3C1383.89,1343.64 1401.43,1349.73 1421.84,1349.73C1442.17,1349.73 1462.02,1343.64 1477.54,1260.3C1483.12,1230.49 1492.66,1176.35 1454.16,1176.35C1415.68,1176.35 1405.04,1230.49 1399.44,1260.3Z" style="fill:white;"/>
                <path d="M1712.04,1417.27L1598.85,1417.27L1658.06,1089.76L1562.35,1089.76L1581.09,989.36L1883.91,989.36L1865.21,1089.76L1771.2,1089.76L1712.04,1417.27Z" style="fill:white;"/>
                <path d="M1936.72,1417.27C1936.52,1403.24 1938.09,1388.65 1940.82,1374.08C1911.48,1409.96 1876.74,1423.33 1837.14,1423.33C1783.37,1423.33 1742.31,1391.71 1753.88,1329.65C1763.07,1280.38 1804.85,1247.51 1847.53,1234.14C1886.6,1221.97 1926.52,1217.11 1964.89,1214.67L1965.37,1212.23C1970.56,1184.24 1965.83,1173.3 1938.64,1173.3C1916.61,1173.3 1896.36,1181.83 1888.06,1207.98L1786.99,1197.63C1818.4,1120.38 1890.62,1100.29 1955.7,1100.29C1989.64,1100.29 2032.3,1105.17 2056.49,1127.07C2089.09,1155.66 2077.06,1195.81 2068.77,1240.22L2048.46,1349.14C2044.15,1372.21 2040.4,1395.33 2044.79,1417.28L1936.72,1417.28L1936.72,1417.27ZM1954.23,1271.84C1926.52,1274.88 1879.53,1284.02 1872.48,1321.72C1868.79,1341.81 1879.05,1350.32 1896.57,1350.32C1939.02,1350.32 1946.72,1312.02 1953.1,1277.92L1954.23,1271.84Z" style="fill:white;"/>
                <path d="M2244.04,1417.27L2209.37,1318.08L2134.29,1417.27L2042.05,1417.27L2174.08,1252.39L2112.48,1106.36L2239.23,1106.36L2257.98,1163.56L2259.58,1170.25L2263.78,1181.19L2270.67,1171.48L2275.34,1164.78L2317.92,1106.36L2411.26,1106.36L2300.62,1247.52L2371.95,1417.27L2244.04,1417.27Z" style="fill:white;"/>
                <path d="M2372.61,1400.1C2372.61,1391.54 2379.68,1384.57 2388.39,1384.57C2396.97,1384.57 2404.02,1391.63 2404.02,1400.2C2404.02,1408.78 2396.97,1415.83 2388.39,1415.83C2388.37,1415.83 2388.35,1415.83 2388.33,1415.83C2379.71,1415.83 2372.61,1408.74 2372.61,1400.11C2372.61,1400.11 2372.61,1400.1 2372.61,1400.1ZM2375.57,1400.1C2375.57,1407.22 2381.26,1412.77 2388.38,1412.77C2395.4,1412.77 2401.09,1407.22 2401.09,1400.1C2401.03,1393.19 2395.29,1387.55 2388.38,1387.61C2388.33,1387.61 2388.27,1387.61 2388.21,1387.61C2381.33,1387.61 2375.65,1393.22 2375.57,1400.1ZM2396.24,1408.92L2393.26,1408.92L2388.21,1400.86L2385.13,1400.86L2385.13,1408.92L2382.55,1408.92L2382.55,1391.41L2390.22,1391.41C2391.66,1391.41 2393.19,1391.49 2394.5,1392.24C2395.8,1393.01 2396.45,1394.57 2396.45,1396.01C2396.45,1399.52 2394.04,1400.75 2390.92,1400.85L2396.24,1408.92ZM2388.01,1398.68C2390.46,1398.68 2393.83,1399.11 2393.83,1395.98C2393.83,1393.74 2391.91,1393.45 2389.68,1393.45L2385.11,1393.45L2385.11,1398.68L2388.01,1398.68ZM263.144,969.425L266.295,951.994L265.919,951.994C259.382,965.703 245.232,971.5 232.535,971.5C224.442,971.5 216.906,969.425 212.03,963.407C206.427,955.911 207.361,946.572 209.137,936.612L222.367,863.319L260.524,863.319L248.942,927.494C247.71,934.342 246.205,941.592 254.882,941.592C258.721,941.592 262.819,939.335 265.206,935.574C267.579,932.059 268.448,928.324 269.162,924.368L280.173,863.319L318.317,863.319L299.187,969.412L263.144,969.412L263.144,969.425ZM349.911,969.425L311.767,969.425L330.911,863.332L369.055,863.332L349.911,969.425ZM370.883,853.164L332.739,853.164L337.836,824.903L375.993,824.903L370.883,853.164ZM463.111,929.569C454.707,956.974 433.994,971.5 408.937,971.5C394.657,971.5 383.749,967.972 375.332,956.974C367.252,946.183 365.216,931.852 367.939,916.69C373.711,884.72 398.366,861.257 428.625,861.257C452.904,861.257 469.402,876.626 467.495,903.188L433.203,906.314L433.203,905.264C433.177,898.014 433.125,889.7 424.656,889.7C412.503,889.7 409.391,906.95 407.705,916.275C405.902,926.236 403.165,942.448 415.694,942.448C423.982,942.448 428.521,934.355 430.894,926.651L463.111,929.569ZM550.061,899.855L570.657,969.425L530.762,969.425L519.932,926.871L507.922,940.152L502.63,969.425L464.486,969.425L490.166,826.978L528.31,826.978L514.472,903.798L524.873,891.996L553.16,863.332L586.311,863.332L550.061,899.855Z" style="fill:white;"/>
                <path d="M673.961,933.927C663.339,959.685 640.019,971.5 616.699,971.5C602.251,971.5 588.775,968.206 579.528,957.597C570.76,947.428 567.79,932.889 570.527,917.715C573.108,903.396 581.11,887.806 592.199,877.664C604.248,866.432 620.201,861.257 634.273,861.257C667.035,861.257 682.962,884.097 676.659,918.986L675.647,924.576L609.761,924.576C607.115,936.015 609.462,944.316 621.031,944.316C629.708,944.316 635.207,940.567 638.385,931.437L673.961,933.927ZM640.862,903.798C642.73,893.448 641.057,885.55 630.266,885.55C620.266,885.55 614.663,894.058 613.288,903.798L640.862,903.798ZM731.858,863.332L729.173,878.274L729.549,878.274C736.332,866.238 748.615,861.257 760.547,861.257C769.807,861.257 779.872,864.175 784.204,872.256C788.795,880.971 786.616,893.033 784.645,904.032L772.842,969.425L734.685,969.425L746.306,905.082C747.461,898.636 749.069,889.7 740.781,889.7C730.185,889.7 727.448,899.453 725.892,908.169L714.842,969.425L676.697,969.425L695.841,863.332L731.858,863.332ZM81.645,898.831C74.719,937.26 90.114,971.513 128.466,971.513C134.237,971.513 139.944,970.904 145.832,969.243C146.584,988.543 155.961,995.404 173.86,995.404L190.046,994.366L195.882,961.954C192.238,962.992 188.658,963.628 184.988,963.628C180.176,963.628 173.419,962.577 173.587,956.365C193.12,944.316 204.391,920.231 208.191,899.051C215.765,857.12 199.41,824.903 158.542,824.903C139.295,824.903 122.824,830.739 107.195,846.926C93.253,861.257 85.004,880.154 81.645,898.831ZM138.361,939.115C117.752,939.115 123.122,913.577 125.962,897.793C128.725,882.424 132.72,857.107 152.563,857.107C162.394,857.107 166.052,863.514 166.674,872.865C167.077,881.386 165.546,893.02 164.029,901.528C161.305,916.495 157.038,939.115 138.361,939.115ZM788.523,867.95C788.523,862.969 792.673,858.871 797.757,858.871C797.92,858.862 798.082,858.858 798.244,858.858C803.268,858.858 807.401,862.991 807.401,868.014C807.401,873.038 803.268,877.171 798.244,877.171C798.082,877.171 797.92,877.167 797.757,877.158C797.749,877.158 797.74,877.158 797.731,877.158C792.68,877.158 788.523,873.001 788.523,867.95C788.523,867.95 788.523,867.95 788.523,867.95ZM790.287,867.95C790.287,872.152 793.594,875.381 797.77,875.381C801.692,875.217 804.828,871.946 804.828,868.021C804.828,864.096 801.692,860.825 797.77,860.661C797.727,860.66 797.684,860.659 797.64,860.659C793.63,860.659 790.321,863.94 790.287,867.95ZM802.362,873.125L800.611,873.125L797.666,868.404L795.864,868.404L795.864,873.125L794.333,873.125L794.333,862.891L798.808,862.891C799.675,862.831 800.543,863.001 801.324,863.384C802.102,863.812 802.478,864.72 802.478,865.576C802.478,867.612 801.065,868.352 799.236,868.404L802.362,873.125ZM797.563,867.133C798.989,867.133 800.974,867.392 800.974,865.55C800.974,864.214 799.832,864.033 798.535,864.033L795.877,864.033L795.877,867.12L797.563,867.12L797.563,867.133Z" style="fill:white;"/>
                <path d="M990.021,1554.37L952.72,1554.37L925.328,1695.34L900.659,1695.34L928.064,1554.37L899.622,1554.37L903.422,1534.76L931.878,1534.76C937.195,1500.95 954.588,1471.54 992.745,1475.34L1014.43,1477.54L1010.57,1497.45C1004.18,1496.18 997.777,1494.95 990.825,1494.95C963.628,1494.95 960.152,1514.53 956.52,1534.76L993.821,1534.76L990.021,1554.37ZM1039.02,1677.96C1024.48,1677.96 1012.42,1670.07 1007.87,1657.72C1003.37,1645.07 1004.42,1628.33 1007.25,1613.79C1009.76,1600.82 1014.68,1585.32 1022.95,1573.63C1032.61,1559.73 1048.24,1550.89 1063.73,1550.89C1077.64,1550.89 1089.5,1558.14 1094.8,1569.83C1100.51,1582.8 1099.33,1598.61 1096.39,1613.79C1093.69,1627.69 1089.59,1642.23 1080.49,1654.88C1070.07,1669.43 1055.45,1677.96 1039.02,1677.96ZM1032.81,1698.51C1081.48,1698.51 1115.09,1658.99 1123.82,1614.1C1132.05,1571.74 1116.64,1530.65 1069.54,1530.65C1021.17,1530.65 988.387,1569.21 979.723,1613.79C971.5,1656.15 984.768,1698.51 1032.81,1698.51ZM1185.38,1534.76L1178.07,1572.38L1178.7,1572.38C1190.55,1550.56 1208.07,1530.33 1233.98,1530.33L1243.01,1530.96L1238.42,1554.67L1233.36,1554.67C1214.4,1554.67 1199.34,1563.84 1187.03,1579.95C1178.11,1591.65 1174.89,1601.77 1172.44,1614.42L1156.71,1695.33L1132.05,1695.33L1163.26,1534.75L1185.38,1534.75L1185.38,1534.76ZM1378.34,1696.6L1354.28,1698.49C1319.19,1698.49 1312.76,1677.95 1318.96,1646.01L1337.03,1553.06L1308.58,1553.06L1312.38,1533.48L1340.85,1533.48L1348.58,1493.66L1373.73,1491.13L1365.5,1533.49L1401.21,1533.49L1397.41,1553.08L1361.67,1553.08L1342.83,1650.14C1339.18,1668.79 1342.67,1678.59 1362.91,1678.59L1382.16,1676.99L1378.34,1696.6ZM1492.4,1695.34L1510.59,1601.77C1512.48,1591.99 1514.95,1579.34 1513.3,1569.85C1511.22,1557.84 1501.18,1550.9 1488.24,1550.9C1475.57,1550.9 1462.1,1558.47 1452.34,1567.94C1438.71,1581.21 1434.56,1596.09 1431.29,1612.83L1415.26,1695.33L1390.62,1695.33L1432.77,1478.49L1457.41,1478.49L1440.69,1564.47L1441.63,1564.47C1455.95,1542.96 1473.2,1530.65 1498.16,1530.65C1515.23,1530.65 1529.82,1538.53 1536.16,1553.08C1542.91,1568.91 1538.67,1584.06 1535.23,1601.77L1517.05,1695.34L1492.4,1695.34ZM1586.14,1598.63C1591.99,1573.32 1613.97,1549.62 1640.86,1549.62C1669.3,1549.62 1679.79,1572.08 1674.32,1598.63L1586.14,1598.63ZM1666.24,1646.65C1655.6,1665.63 1638.09,1677.64 1617.25,1677.64C1600.48,1677.64 1585.52,1668.47 1580.87,1653.3C1577.2,1641.31 1578.85,1629.61 1581.3,1616.97L1697.95,1616.97C1707.88,1572.38 1694.47,1530.67 1644.53,1530.67C1596.5,1530.67 1562.45,1570.82 1553.84,1615.05C1545.13,1659.93 1562.61,1698.52 1611.27,1698.52C1641.95,1698.52 1673.52,1680.82 1688.72,1651.4L1666.24,1646.65ZM1999.76,1695.34L1943.82,1695.34L1937.01,1575.85L1936.37,1575.85L1885,1695.34L1826.84,1695.34L1811.16,1478.5L1873.73,1478.5L1879.42,1603.66L1880.06,1603.66L1933.79,1478.5L1985.94,1478.5L1993.54,1603.66L1994.18,1603.66L2048.53,1478.5L2099.43,1478.5L1999.76,1695.34ZM2119.41,1595.46C2121.7,1580.6 2130.84,1567.64 2147.27,1567.64C2164.98,1567.64 2167.69,1579.65 2164.63,1595.46L2119.41,1595.46ZM2160.55,1637.51C2155.34,1651.39 2146.32,1657.1 2132.11,1657.1C2113.14,1657.1 2109.26,1644.45 2113.62,1627.08L2221.71,1627.08L2223.38,1618.55C2233.69,1565.42 2207.57,1530.68 2153.85,1530.68C2130.78,1530.68 2104.58,1538.55 2084.82,1555.63C2066.64,1571.13 2053.49,1594.84 2049.26,1616.65C2044.77,1639.73 2049.64,1661.87 2064.01,1677.35C2079.24,1693.46 2101.32,1698.53 2125.03,1698.53C2163.28,1698.53 2201.53,1680.52 2218.96,1641.34L2160.55,1637.51ZM2299.05,1595.12C2300.34,1588.51 2300.69,1583.45 2306.17,1578.06C2310.5,1573.65 2315.47,1570.81 2321.16,1570.81C2343.6,1570.81 2337.07,1599.56 2334.05,1615.03C2331.04,1630.53 2326.08,1659.31 2304.6,1659.31C2288.15,1659.31 2289.58,1643.81 2292.03,1631.17L2299.05,1595.12ZM2216.64,1695.34L2252.36,1695.34C2256.05,1687.77 2260.06,1680.17 2265.22,1673.23C2274.09,1690.93 2290.63,1698.51 2312.13,1698.51C2362.69,1698.51 2389.65,1657.39 2398.38,1612.53C2405.88,1573.95 2398.81,1530.67 2353.6,1530.67C2334.62,1530.67 2319.88,1536.67 2307.83,1553.09L2306.89,1553.09L2321.38,1478.51L2258.81,1478.51L2216.64,1695.34Z"/>
            </g>
        </g>
        <g id="quicken-turbotax1" serif:id="quicken-turbotax">
        </g>
    </g>
</svg>
