<?xml version="1.0" encoding="UTF-8" standalone="no"?>
<!DOCTYPE svg PUBLIC "-//W3C//DTD SVG 1.1//EN" "http://www.w3.org/Graphics/SVG/1.1/DTD/svg11.dtd">
<svg width="100%" height="100%" viewBox="0 0 494 494" version="1.1" xmlns="http://www.w3.org/2000/svg" xmlns:xlink="http://www.w3.org/1999/xlink" xml:space="preserve" xmlns:serif="http://www.serif.com/" style="fill-rule:evenodd;clip-rule:evenodd;stroke-linejoin:round;stroke-miterlimit:0.73;">
    <g>
        <g>
            <g style="filter:url(#_Effect1);">
                <path d="M435.953,152.488L435.953,341.465C435.953,393.614 393.614,435.953 341.465,435.953L152.488,435.953C100.339,435.953 58,393.614 58,341.465L58,152.488C58,100.339 100.339,58 152.488,58L341.465,58C393.614,58 435.953,100.339 435.953,152.488Z" style="fill:none;stroke:rgb(1,55,125);stroke-opacity:0.2;stroke-width:20px;"/>
            </g>
            <path d="M435.953,152.488L435.953,341.465C435.953,393.614 393.614,435.953 341.465,435.953L152.488,435.953C100.339,435.953 58,393.614 58,341.465L58,152.488C58,100.339 100.339,58 152.488,58L341.465,58C393.614,58 435.953,100.339 435.953,152.488Z" style="fill:white;stroke:white;stroke-width:0.46px;"/>
            <path d="M251.949,160.974C277.789,133.54 329.467,133.54 355.306,155.614C381.147,177.688 381.147,221.836 355.306,265.983C337.219,299.094 290.708,332.205 251.949,354.279C213.19,332.205 166.68,299.094 148.592,265.983C122.753,221.836 122.753,177.688 148.592,155.614C174.432,133.54 226.11,133.54 251.949,160.974Z" style="fill:none;stroke:white;stroke-width:17.05px;stroke-linecap:round;stroke-miterlimit:0.348837;"/>
            <path d="M251.949,160.974C277.789,133.54 329.467,133.54 355.306,155.614C381.147,177.688 381.147,221.836 355.306,265.983C337.219,299.094 290.708,332.205 251.949,354.279C213.19,332.205 166.68,299.094 148.592,265.983C122.753,221.836 122.753,177.688 148.592,155.614C174.432,133.54 226.11,133.54 251.949,160.974Z" style="fill:rgb(1,54,124);"/>
            <path d="M101.523,236.729L124.427,236.729L141.19,208.915L161.495,236.205L175.956,213.321L190.978,236.729L211.909,194.713C211.909,194.713 225.706,241.167 228.005,246.446C230.305,251.726 242.909,215.824 242.909,215.824L256.271,240.363L271.808,203.784L288.97,233.879L314.842,188.721L327.786,236.729L349.888,206.745L374.948,225.663L402.376,225.663" style="fill:none;stroke:rgb(126,211,79);stroke-width:7.23px;stroke-linecap:round;stroke-miterlimit:0.348837;"/>
            <ellipse cx="251.95" cy="299.1" rx="34.773" ry="34.695" style="fill:white;"/>
            <path d="M263.858,306.011C263.858,307.614 263.448,309.116 262.63,310.518C261.811,311.921 260.607,313.076 259.016,313.986C257.425,314.895 255.548,315.427 253.386,315.581L253.386,319.325L250.421,319.325L250.421,315.534C247.332,315.257 244.845,314.325 242.961,312.737C241.077,311.15 240.104,309.001 240.042,306.288L246.992,306.288C247.177,308.507 248.32,309.848 250.421,310.31L250.421,301.481C248.197,300.926 246.405,300.371 245.046,299.816C243.687,299.261 242.513,298.368 241.524,297.135C240.536,295.902 240.042,294.222 240.042,292.096C240.042,289.415 241.007,287.226 242.938,285.531C244.868,283.836 247.363,282.865 250.421,282.619L250.421,278.874L253.386,278.874L253.386,282.619C256.352,282.865 258.722,283.759 260.499,285.3C262.275,286.841 263.271,288.968 263.487,291.68L256.491,291.68C256.398,290.786 256.081,290.008 255.541,289.345C255,288.683 254.282,288.213 253.386,287.935L253.386,296.673C255.703,297.258 257.533,297.821 258.877,298.36C260.221,298.899 261.387,299.778 262.375,300.995C263.364,302.212 263.858,303.884 263.858,306.011ZM246.807,291.772C246.807,292.789 247.116,293.614 247.733,294.246C248.351,294.877 249.247,295.394 250.421,295.794L250.421,287.796C249.309,287.951 248.428,288.367 247.78,289.045C247.131,289.723 246.807,290.632 246.807,291.772ZM253.386,310.403C254.56,310.187 255.479,309.709 256.143,308.97C256.807,308.23 257.139,307.336 257.139,306.288C257.139,305.271 256.815,304.455 256.166,303.838C255.518,303.222 254.591,302.713 253.386,302.313L253.386,310.403Z" style="fill:rgb(1,54,124);fill-rule:nonzero;"/>
            <circle cx="211.909" cy="194.713" r="9.925" style="fill:white;"/>
            <circle cx="288.97" cy="233.879" r="9.925" style="fill:white;"/>
            <circle cx="314.842" cy="188.721" r="9.925" style="fill:white;"/>
            <circle cx="161.495" cy="236.205" r="9.925" style="fill:white;"/>
            <circle cx="349.888" cy="206.745" r="9.925" style="fill:white;"/>
        </g>
    </g>
    <defs>
        <filter id="_Effect1" filterUnits="userSpaceOnUse" x="-48" y="-48" width="589.953" height="589.953">
            <feGaussianBlur in="SourceGraphic" stdDeviation="16"/>
        </filter>
    </defs>
</svg>
