<?xml version="1.0" encoding="UTF-8" standalone="no"?>
<!DOCTYPE svg PUBLIC "-//W3C//DTD SVG 1.1//EN" "http://www.w3.org/Graphics/SVG/1.1/DTD/svg11.dtd">
<svg width="100%" height="100%" viewBox="0 0 379 379" version="1.1" xmlns="http://www.w3.org/2000/svg" xmlns:xlink="http://www.w3.org/1999/xlink" xml:space="preserve" xmlns:serif="http://www.serif.com/" style="fill-rule:evenodd;clip-rule:evenodd;stroke-linejoin:round;stroke-miterlimit:0.73;">
    <g>
        <g>
            <path d="M378.185,94.721L378.185,283.697C378.185,335.846 335.846,378.185 283.697,378.185L94.721,378.185C42.571,378.185 0.232,335.846 0.232,283.697L0.232,94.721C0.232,42.571 42.571,0.232 94.721,0.232L283.697,0.232C335.846,0.232 378.185,42.571 378.185,94.721Z" style="fill:white;stroke:white;stroke-width:0.46px;"/>
        </g>
        <g>
            <g>
                <path d="M207.819,146.587L207.819,172.952C207.819,191.796 192.52,207.095 173.676,207.095L125.092,207.095L108.62,226.259L108.273,207.095L96.455,207.095C77.611,207.095 62.313,191.796 62.313,172.952L62.313,146.587C62.313,127.743 77.611,112.444 96.455,112.444L173.676,112.444C192.52,112.444 207.819,127.743 207.819,146.587Z" style="fill:rgb(1,54,124);"/>
                <path d="M173.989,141.279C173.989,144.296 171.539,146.746 168.522,146.746L101.61,146.746C98.592,146.746 96.143,144.296 96.143,141.279C96.143,138.261 98.592,135.812 101.61,135.812L168.522,135.812C171.539,135.812 173.989,138.261 173.989,141.279Z" style="fill:white;"/>
                <path d="M190.085,159.484C190.085,162.501 187.635,164.951 184.618,164.951L117.706,164.951C114.688,164.951 112.239,162.501 112.239,159.484C112.239,156.467 114.688,154.017 117.706,154.017L184.618,154.017C187.635,154.017 190.085,156.467 190.085,159.484Z" style="fill:white;"/>
                <path d="M168.479,177.689C168.479,180.706 166.03,183.156 163.013,183.156L96.1,183.156C93.083,183.156 90.633,180.706 90.633,177.689C90.633,174.672 93.083,172.222 96.1,172.222L163.013,172.222C166.03,172.222 168.479,174.672 168.479,177.689Z" style="fill:white;"/>
            </g>
            <g>
                <path d="M146.257,93.181L146.257,115.491C146.257,131.436 159.202,144.382 175.148,144.382L216.259,144.382L230.197,160.598L230.491,144.382L240.491,144.382C256.436,144.382 269.382,131.436 269.382,115.491L269.382,93.181C269.382,77.236 256.436,64.29 240.491,64.29L175.148,64.29C159.202,64.29 146.257,77.236 146.257,93.181Z" style="fill:rgb(124,210,76);"/>
                <path d="M174.883,88.689C174.883,91.243 176.956,93.315 179.509,93.315L236.129,93.315C238.682,93.315 240.755,91.243 240.755,88.689C240.755,86.136 238.682,84.063 236.129,84.063L179.509,84.063C176.956,84.063 174.883,86.136 174.883,88.689Z" style="fill:white;"/>
                <path d="M161.263,104.094C161.263,106.647 163.336,108.72 165.889,108.72L222.509,108.72C225.062,108.72 227.135,106.647 227.135,104.094C227.135,101.541 225.062,99.468 222.509,99.468L165.889,99.468C163.336,99.468 161.263,101.541 161.263,104.094Z" style="fill:white;"/>
                <path d="M179.545,119.499C179.545,122.052 181.618,124.125 184.171,124.125L240.791,124.125C243.345,124.125 245.417,122.052 245.417,119.499C245.417,116.946 243.345,114.873 240.791,114.873L184.171,114.873C181.618,114.873 179.545,116.946 179.545,119.499Z" style="fill:white;"/>
            </g>
            <g>
                <path d="M257.331,188.967L259.397,199.009C263.395,199.62 267.314,200.668 271.082,202.136L277.9,194.47C281.715,196.202 285.353,198.299 288.763,200.732L285.523,210.461C288.679,212.986 291.548,215.85 294.077,219.002L303.82,215.767C306.256,219.172 308.357,222.805 310.091,226.614L302.414,233.422C303.884,237.185 304.934,241.097 305.545,245.09L315.603,247.152C316.008,251.317 316.008,255.512 315.603,259.677L305.545,261.74C304.934,265.732 303.884,269.645 302.414,273.408L310.091,280.215C308.357,284.025 306.256,287.657 303.82,291.062L294.077,287.827C291.548,290.979 288.679,293.844 285.523,296.369L288.763,306.097C285.353,308.53 281.715,310.628 277.9,312.36L271.082,304.694C267.314,306.161 263.395,307.209 259.397,307.82L257.331,317.863C253.16,318.267 248.959,318.267 244.788,317.863L242.722,307.82C238.724,307.209 234.806,306.161 231.037,304.694L224.22,312.36C220.405,310.628 216.767,308.53 213.357,306.097L216.597,296.369C213.44,293.844 210.572,290.979 208.043,287.827L198.3,291.062C195.863,287.657 193.763,284.025 192.028,280.215L199.705,273.408C198.236,269.645 197.186,265.732 196.574,261.74L186.517,259.677C186.112,255.512 186.112,251.317 186.517,247.152L196.574,245.09C197.186,241.097 198.236,237.185 199.705,233.422L192.028,226.614C193.763,222.805 195.863,219.172 198.3,215.767L208.043,219.002C210.572,215.85 213.44,212.986 216.597,210.461L213.357,200.732C216.767,198.299 220.405,196.202 224.22,194.47L231.037,202.136C234.806,200.668 238.724,199.62 242.722,199.009L244.788,188.967C248.959,188.562 253.16,188.562 257.331,188.967ZM251.06,217.897C270.691,217.897 286.63,233.812 286.63,253.415C286.63,273.017 270.691,288.932 251.06,288.932C231.428,288.932 215.49,273.017 215.49,253.415C215.49,233.812 231.428,217.897 251.06,217.897Z" style="fill:rgb(1,55,125);"/>
            </g>
            <g>
                <g>
                    <path d="M250.768,241.014C254.686,241.014 262.524,241.014 266.443,245.856C270.361,250.698 270.361,260.382 266.443,270.066C266.442,270.067 266.442,270.068 266.441,270.069C263.978,276.589 257.737,280.903 250.767,280.903C243.798,280.903 237.557,276.589 235.094,270.069C235.093,270.068 235.093,270.067 235.093,270.066C231.174,260.382 231.174,250.698 235.093,245.856C239.011,241.014 246.849,241.014 250.768,241.014Z" style="fill:rgb(1,55,125);"/>
                    <path d="M250.158,257.457C250.3,257.262 250.527,257.148 250.768,257.148C251.009,257.148 251.235,257.262 251.377,257.457C252.096,258.438 253.253,260.016 253.722,260.657C253.854,260.837 253.899,261.066 253.847,261.283C253.519,262.622 252.304,267.597 251.502,270.882C251.419,271.221 251.116,271.459 250.768,271.459C250.419,271.459 250.116,271.221 250.033,270.882C249.231,267.597 248.016,262.622 247.689,261.283C247.636,261.066 247.681,260.837 247.813,260.657C248.283,260.016 249.439,258.438 250.158,257.457Z" style="fill:white;"/>
                    <path d="M250.768,250.201C251.269,250.201 252.271,250.201 252.772,250.82C253.273,251.439 253.273,252.677 252.772,253.915C252.772,253.916 252.771,253.916 252.771,253.917C252.456,254.75 251.658,255.301 250.768,255.301C249.877,255.301 249.079,254.75 248.764,253.917C248.764,253.916 248.764,253.916 248.764,253.915C248.263,252.677 248.263,251.439 248.764,250.82C249.265,250.201 250.267,250.201 250.768,250.201Z" style="fill:white;"/>
                    <path d="M250.768,226.259C252.964,226.259 257.358,226.259 259.554,228.973C261.751,231.687 261.751,237.116 259.554,242.544C259.554,242.545 259.553,242.547 259.553,242.548C258.172,246.202 254.674,248.619 250.768,248.619C246.861,248.619 243.363,246.202 241.982,242.548C241.982,242.546 241.981,242.545 241.981,242.544C239.784,237.116 239.784,231.687 241.981,228.973C244.178,226.259 248.571,226.259 250.768,226.259Z" style="fill:rgb(124,210,76);"/>
                </g>
            </g>
        </g>
    </g>
</svg>
