<?xml version="1.0" encoding="UTF-8" standalone="no"?>
<!DOCTYPE svg PUBLIC "-//W3C//DTD SVG 1.1//EN" "http://www.w3.org/Graphics/SVG/1.1/DTD/svg11.dtd">
<svg width="100%" height="100%" viewBox="0 0 494 494" version="1.1" xmlns="http://www.w3.org/2000/svg" xmlns:xlink="http://www.w3.org/1999/xlink" xml:space="preserve" xmlns:serif="http://www.serif.com/" style="fill-rule:evenodd;clip-rule:evenodd;stroke-linejoin:round;stroke-miterlimit:0.73;">
    <g>
        <g>
            <g style="filter:url(#_Effect1);">
                <path d="M435.953,152.488L435.953,341.465C435.953,393.614 393.614,435.953 341.465,435.953L152.488,435.953C100.339,435.953 58,393.614 58,341.465L58,152.488C58,100.339 100.339,58 152.488,58L341.465,58C393.614,58 435.953,100.339 435.953,152.488Z" style="fill:none;stroke:#01377d;stroke-opacity:0.2;stroke-width:20px;"/>
            </g>
            <path d="M433.79,152.368L433.79,341.344C433.79,393.494 391.451,435.832 339.302,435.832L150.325,435.832C98.176,435.832 55.837,393.494 55.837,341.344L55.837,152.368C55.837,100.218 98.176,57.88 150.325,57.88L339.302,57.88C391.451,57.88 433.79,100.218 433.79,152.368Z" style="fill:#fff;stroke:#fff;stroke-width:0.46px;"/>
        </g>
        <path d="M138.925,333.687C138.037,335.298 136.007,335.884 134.396,334.996C132.785,334.108 132.199,332.079 133.087,330.468L196.58,215.311C197.288,214.028 198.749,213.357 200.183,213.658C200.183,213.658 329.452,240.74 329.452,240.74L356.186,145.169C356.682,143.397 358.523,142.361 360.294,142.857C362.066,143.352 363.102,145.193 362.607,146.965L335.032,245.54C334.559,247.231 332.856,248.265 331.138,247.905L201.228,220.688L138.925,333.687Z" style="fill:#9dafff;"/>
        <circle cx="136.006" cy="332.077" r="15.118" style="fill:#01377c;"/>
        <circle cx="199.499" cy="216.92" r="15.118" style="fill:#7bd24b;"/>
        <circle cx="331.822" cy="244.642" r="15.118" style="fill:#01377c;"/>
        <circle cx="359.396" cy="146.067" r="15.118" style="fill:#7bd24b;"/>
        <ellipse cx="230.917" cy="207.437" rx="58.446" ry="58.763" style="fill:#9dafff;fill-opacity:0.33;"/>
        <path d="M230.917,130.949C273.132,130.949 307.405,165.222 307.405,207.437C307.405,249.651 273.132,283.924 230.917,283.924C188.702,283.924 154.429,249.651 154.429,207.437C154.429,165.222 188.702,130.949 230.917,130.949ZM230.917,150.071C262.578,150.071 288.283,175.775 288.283,207.437C288.283,239.098 262.578,264.802 230.917,264.802C199.256,264.802 173.551,239.098 173.551,207.437C173.551,175.775 199.256,150.071 230.917,150.071Z" style="fill:#01377c;"/>
        <path d="M291.666,275.002L345.886,368.915C348.056,372.673 346.767,377.486 343.008,379.656L329.389,387.518C325.631,389.688 320.818,388.399 318.648,384.64L264.428,290.728C262.258,286.97 263.548,282.157 267.306,279.987L280.925,272.124C284.684,269.955 289.496,271.244 291.666,275.002Z" style="fill:#01377c;"/>
    </g>
    <defs>
        <filter id="_Effect1" filterUnits="userSpaceOnUse" x="-48" y="-48" width="589.953" height="589.953">
            <feGaussianBlur in="SourceGraphic" stdDeviation="16"/>
        </filter>
    </defs>
</svg>
