<?xml version="1.0" encoding="UTF-8" standalone="no"?>
<!DOCTYPE svg PUBLIC "-//W3C//DTD SVG 1.1//EN" "http://www.w3.org/Graphics/SVG/1.1/DTD/svg11.dtd">
<svg width="100%" height="100%" viewBox="0 0 494 494" version="1.1" xmlns="http://www.w3.org/2000/svg" xmlns:xlink="http://www.w3.org/1999/xlink" xml:space="preserve" xmlns:serif="http://www.serif.com/" style="fill-rule:evenodd;clip-rule:evenodd;stroke-linejoin:round;stroke-miterlimit:0.73;">
    <g>
        <g>
            <g style="filter:url(#_Effect1);">
                <path d="M435.953,152.488L435.953,341.465C435.953,393.614 393.614,435.953 341.465,435.953L152.488,435.953C100.339,435.953 58,393.614 58,341.465L58,152.488C58,100.339 100.339,58 152.488,58L341.465,58C393.614,58 435.953,100.339 435.953,152.488Z" style="fill:none;stroke:rgb(1,55,125);stroke-opacity:0.2;stroke-width:20px;"/>
            </g>
            <path d="M435.953,152.488L435.953,341.465C435.953,393.614 393.614,435.953 341.465,435.953L152.488,435.953C100.339,435.953 58,393.614 58,341.465L58,152.488C58,100.339 100.339,58 152.488,58L341.465,58C393.614,58 435.953,100.339 435.953,152.488Z" style="fill:white;stroke:white;stroke-width:0.46px;"/>
        </g>
        <g>
            <path d="M284.982,214.083L284.982,313.478C284.982,334.622 267.816,351.789 246.672,351.789L170.051,351.789C148.907,351.789 131.741,334.622 131.741,313.478L131.741,214.083C131.741,192.939 148.907,175.772 170.051,175.772L246.672,175.772C267.816,175.772 284.982,192.939 284.982,214.083Z" style="fill:rgb(1,54,124);"/>
            <path d="M196.995,216.268L196.995,229.59C196.995,233.267 194.01,236.251 190.334,236.251L173.036,236.251C169.36,236.251 166.375,233.267 166.375,229.59L166.375,216.268C166.375,212.592 169.36,209.607 173.036,209.607L190.334,209.607C194.01,209.607 196.995,212.592 196.995,216.268Z" style="fill:white;"/>
            <path d="M253.267,216.268L253.267,229.59C253.267,233.267 250.282,236.251 246.606,236.251L229.308,236.251C225.631,236.251 222.647,233.267 222.647,229.59L222.647,216.268C222.647,212.592 225.631,209.607 229.308,209.607L246.606,209.607C250.282,209.607 253.267,212.592 253.267,216.268Z" style="fill:white;"/>
            <path d="M196.995,257.451L196.995,270.773C196.995,274.449 194.01,277.434 190.334,277.434L173.036,277.434C169.36,277.434 166.375,274.449 166.375,270.773L166.375,257.451C166.375,253.774 169.36,250.79 173.036,250.79L190.334,250.79C194.01,250.79 196.995,253.774 196.995,257.451Z" style="fill:white;"/>
            <path d="M253.267,257.451L253.267,270.773C253.267,274.449 250.282,277.434 246.606,277.434L229.308,277.434C225.631,277.434 222.647,274.449 222.647,270.773L222.647,257.451C222.647,253.774 225.631,250.79 229.308,250.79L246.606,250.79C250.282,250.79 253.267,253.774 253.267,257.451Z" style="fill:white;"/>
            <path d="M253.267,301.033L253.267,314.356C253.267,318.032 250.282,321.017 246.606,321.017L229.308,321.017C225.631,321.017 222.647,318.032 222.647,314.356L222.647,301.033C222.647,297.357 225.631,294.372 229.308,294.372L246.606,294.372C250.282,294.372 253.267,297.357 253.267,301.033Z" style="fill:white;"/>
            <path d="M196.995,301.033L196.995,314.356C196.995,318.032 194.01,321.017 190.334,321.017L173.036,321.017C169.36,321.017 166.375,318.032 166.375,314.356L166.375,301.033C166.375,297.357 169.36,294.372 173.036,294.372L190.334,294.372C194.01,294.372 196.995,297.357 196.995,301.033Z" style="fill:white;"/>
            <g>
                <path d="M349.664,250.275L349.664,321.224C349.664,336.317 337.411,348.57 322.318,348.57L267.626,348.57C252.533,348.57 240.28,336.317 240.28,321.224L240.28,250.275C240.28,235.183 252.533,222.929 267.626,222.929L322.318,222.929C337.411,222.929 349.664,235.183 349.664,250.275Z" style="fill:rgb(126,211,79);"/>
                <path d="M289.403,257.297L289.403,270.62C289.403,274.296 286.418,277.281 282.741,277.281L265.444,277.281C261.767,277.281 258.782,274.296 258.782,270.62L258.782,257.297C258.782,253.621 261.767,250.636 265.444,250.636L282.741,250.636C286.418,250.636 289.403,253.621 289.403,257.297Z" style="fill:white;"/>
                <path d="M331.162,257.297L331.162,270.62C331.162,274.296 328.177,277.281 324.501,277.281L307.203,277.281C303.527,277.281 300.542,274.296 300.542,270.62L300.542,257.297C300.542,253.621 303.527,250.636 307.203,250.636L324.501,250.636C328.177,250.636 331.162,253.621 331.162,257.297Z" style="fill:white;"/>
                <path d="M331.162,300.88L331.162,314.202C331.162,317.878 328.177,320.863 324.501,320.863L307.203,320.863C303.527,320.863 300.542,317.878 300.542,314.202L300.542,300.88C300.542,297.203 303.527,294.219 307.203,294.219L324.501,294.219C328.177,294.219 331.162,297.203 331.162,300.88Z" style="fill:white;"/>
                <path d="M289.403,300.88L289.403,314.202C289.403,317.878 286.418,320.863 282.741,320.863L265.444,320.863C261.767,320.863 258.782,317.878 258.782,314.202L258.782,300.88C258.782,297.203 261.767,294.219 265.444,294.219L282.741,294.219C286.418,294.219 289.403,297.203 289.403,300.88Z" style="fill:white;"/>
            </g>
            <ellipse cx="286.689" cy="173.368" rx="46.409" ry="46.366" style="fill:none;stroke:rgb(1,54,124);stroke-width:16.33px;stroke-linecap:round;stroke-miterlimit:0.348837;"/>
            <ellipse cx="286.689" cy="173.368" rx="46.409" ry="46.366" style="fill:white;"/>
            <path d="M332.493,209.567L369.962,247C370.944,247.981 370.944,249.574 369.962,250.555L366.403,254.111C365.421,255.092 363.826,255.092 362.844,254.111L325.375,216.677C324.393,215.696 324.393,214.103 325.375,213.122L328.934,209.567C329.916,208.585 331.511,208.585 332.493,209.567Z" style="fill:none;stroke:rgb(1,54,124);stroke-width:10.53px;stroke-linecap:round;stroke-miterlimit:0.348837;"/>
            <path d="M332.493,209.567L369.962,247C370.944,247.981 370.944,249.574 369.962,250.555L366.403,254.111C365.421,255.092 363.826,255.092 362.844,254.111L325.375,216.677C324.393,215.696 324.393,214.103 325.375,213.122L328.934,209.567C329.916,208.585 331.511,208.585 332.493,209.567Z" style="fill:white;"/>
        </g>
    </g>
    <defs>
        <filter id="_Effect1" filterUnits="userSpaceOnUse" x="-48" y="-48" width="589.953" height="589.953">
            <feGaussianBlur in="SourceGraphic" stdDeviation="16"/>
        </filter>
    </defs>
</svg>
