<?xml version="1.0" encoding="UTF-8" standalone="no"?>
<!DOCTYPE svg PUBLIC "-//W3C//DTD SVG 1.1//EN" "http://www.w3.org/Graphics/SVG/1.1/DTD/svg11.dtd">
<svg width="100%" height="100%" viewBox="0 0 494 494" version="1.1" xmlns="http://www.w3.org/2000/svg" xmlns:xlink="http://www.w3.org/1999/xlink" xml:space="preserve" xmlns:serif="http://www.serif.com/" style="fill-rule:evenodd;clip-rule:evenodd;stroke-linejoin:round;stroke-miterlimit:0.73;">
    <g>
        <g>
            <g style="filter:url(#_Effect1);">
                <path d="M435.953,152.488L435.953,341.465C435.953,393.614 393.614,435.953 341.465,435.953L152.488,435.953C100.339,435.953 58,393.614 58,341.465L58,152.488C58,100.339 100.339,58 152.488,58L341.465,58C393.614,58 435.953,100.339 435.953,152.488Z" style="fill:none;stroke:rgb(1,55,125);stroke-opacity:0.2;stroke-width:20px;"/>
            </g>
            <path d="M435.953,152.488L435.953,341.465C435.953,393.614 393.614,435.953 341.465,435.953L152.488,435.953C100.339,435.953 58,393.614 58,341.465L58,152.488C58,100.339 100.339,58 152.488,58L341.465,58C393.614,58 435.953,100.339 435.953,152.488Z" style="fill:white;stroke:white;stroke-width:0.46px;"/>
        </g>
        <circle cx="246.976" cy="246.976" r="92.241" style="fill:none;stroke:rgb(126,211,79);stroke-width:39.15px;stroke-linecap:round;stroke-miterlimit:0.348837;"/>
        <circle cx="246.976" cy="246.976" r="92.241" style="fill:rgb(1,54,124);"/>
        <circle cx="246.976" cy="246.976" r="53.279" style="fill:none;stroke:rgb(126,211,79);stroke-width:36.82px;stroke-linecap:round;stroke-miterlimit:0.348837;"/>
        <circle cx="246.976" cy="246.976" r="53.279" style="fill:rgb(1,54,124);"/>
        <circle cx="246.976" cy="246.976" r="28.259" style="fill:rgb(126,211,79);"/>
        <path d="M256.653,252.593C256.653,253.895 256.32,255.116 255.655,256.255C254.99,257.395 254.011,258.334 252.718,259.073C251.426,259.812 249.901,260.244 248.144,260.369L248.144,263.412L245.734,263.412L245.734,260.331C243.224,260.106 241.203,259.348 239.672,258.059C238.141,256.769 237.35,255.022 237.3,252.818L242.948,252.818C243.098,254.621 244.027,255.711 245.734,256.086L245.734,248.911C243.927,248.46 242.471,248.009 241.366,247.559C240.262,247.108 239.308,246.382 238.505,245.38C237.701,244.378 237.3,243.013 237.3,241.285C237.3,239.106 238.084,237.328 239.653,235.95C241.222,234.573 243.249,233.784 245.734,233.584L245.734,230.541L248.144,230.541L248.144,233.584C250.553,233.784 252.48,234.51 253.923,235.763C255.367,237.015 256.176,238.743 256.352,240.947L250.666,240.947C250.591,240.221 250.334,239.588 249.894,239.05C249.455,238.511 248.872,238.129 248.144,237.904L248.144,245.004C250.026,245.48 251.513,245.937 252.605,246.375C253.697,246.814 254.645,247.527 255.448,248.517C256.251,249.506 256.653,250.865 256.653,252.593ZM242.797,241.022C242.797,241.848 243.048,242.518 243.55,243.032C244.052,243.545 244.78,243.965 245.734,244.29L245.734,237.791C244.83,237.916 244.115,238.255 243.588,238.806C243.061,239.357 242.797,240.095 242.797,241.022ZM248.144,256.161C249.097,255.986 249.844,255.598 250.384,254.997C250.924,254.396 251.193,253.67 251.193,252.818C251.193,251.992 250.93,251.328 250.403,250.827C249.876,250.326 249.123,249.913 248.144,249.587L248.144,256.161Z" style="fill:white;fill-rule:nonzero;"/>
        <path d="M251.815,100.119L251.815,112.599C251.815,115.269 249.647,117.437 246.976,117.437C244.306,117.437 242.138,115.269 242.138,112.599L242.138,100.119C242.138,97.449 244.306,95.281 246.976,95.281C249.647,95.281 251.815,97.449 251.815,100.119Z" style="fill:rgb(1,54,124);"/>
        <path d="M91.665,242.138L104.144,242.138C106.815,242.138 108.983,244.306 108.983,246.976C108.983,249.647 106.815,251.815 104.144,251.815L91.665,251.815C88.995,251.815 86.827,249.647 86.827,246.976C86.827,244.306 88.995,242.138 91.665,242.138Z" style="fill:rgb(1,54,124);"/>
        <path d="M402.288,251.815L389.808,251.815C387.138,251.815 384.97,249.647 384.97,246.976C384.97,244.306 387.138,242.138 389.808,242.138L402.288,242.138C404.958,242.138 407.126,244.306 407.126,246.976C407.126,249.647 404.958,251.815 402.288,251.815Z" style="fill:rgb(1,54,124);"/>
        <path d="M251.815,381.354L251.815,393.833C251.815,396.504 249.647,398.672 246.976,398.672C244.306,398.672 242.138,396.504 242.138,393.833L242.138,381.354C242.138,378.684 244.306,376.516 246.976,376.516C249.647,376.516 251.815,378.684 251.815,381.354Z" style="fill:rgb(1,54,124);"/>
    </g>
    <defs>
        <filter id="_Effect1" filterUnits="userSpaceOnUse" x="-48" y="-48" width="589.953" height="589.953">
            <feGaussianBlur in="SourceGraphic" stdDeviation="16"/>
        </filter>
    </defs>
</svg>
