<?xml version="1.0" encoding="UTF-8" standalone="no"?>
<!DOCTYPE svg PUBLIC "-//W3C//DTD SVG 1.1//EN" "http://www.w3.org/Graphics/SVG/1.1/DTD/svg11.dtd">
<svg width="100%" height="100%" viewBox="0 0 494 494" version="1.1" xmlns="http://www.w3.org/2000/svg" xmlns:xlink="http://www.w3.org/1999/xlink" xml:space="preserve" xmlns:serif="http://www.serif.com/" style="fill-rule:evenodd;clip-rule:evenodd;stroke-linejoin:round;stroke-miterlimit:0.73;">
    <g>
        <g>
            <g style="filter:url(#_Effect1);">
                <path d="M435.953,152.488L435.953,341.465C435.953,393.614 393.614,435.953 341.465,435.953L152.488,435.953C100.339,435.953 58,393.614 58,341.465L58,152.488C58,100.339 100.339,58 152.488,58L341.465,58C393.614,58 435.953,100.339 435.953,152.488Z" style="fill:none;stroke:rgb(1,55,125);stroke-opacity:0.2;stroke-width:20px;"/>
            </g>
            <path d="M435.953,152.488L435.953,341.465C435.953,393.614 393.614,435.953 341.465,435.953L152.488,435.953C100.339,435.953 58,393.614 58,341.465L58,152.488C58,100.339 100.339,58 152.488,58L341.465,58C393.614,58 435.953,100.339 435.953,152.488Z" style="fill:white;stroke:white;stroke-width:0.46px;"/>
        </g>
        <g>
            <path d="M349.576,179.93L349.576,314.023C349.576,340.139 328.373,361.342 302.257,361.342L207.618,361.342C181.502,361.342 160.299,340.139 160.299,314.023L160.299,179.93C160.299,153.814 181.502,132.611 207.618,132.611L302.257,132.611C328.373,132.611 349.576,153.814 349.576,179.93Z" style="fill:rgb(1,55,125);"/>
            <path d="M150.448,170.496L150.448,213.347L187.545,191.899C191.314,198.418 193.299,205.816 193.299,213.347C193.299,236.997 174.098,256.198 150.448,256.198C126.798,256.198 107.597,236.997 107.597,213.347C107.597,189.681 126.782,170.496 150.448,170.496Z" style="fill:rgb(124,210,76);"/>
            <path d="M287.802,292.71L287.802,335.649C287.802,338.396 285.572,340.625 282.826,340.625L272.874,340.625C270.128,340.625 267.898,338.396 267.898,335.649L267.898,292.71C267.898,289.964 270.128,287.734 272.874,287.734L282.826,287.734C285.572,287.734 287.802,289.964 287.802,292.71Z" style="fill:rgb(124,210,76);"/>
            <path d="M320.48,267.685L320.48,335.649C320.48,338.396 318.25,340.625 315.504,340.625L305.552,340.625C302.806,340.625 300.576,338.396 300.576,335.649L300.576,267.685C300.576,264.939 302.806,262.71 305.552,262.71L315.504,262.71C318.25,262.71 320.48,264.939 320.48,267.685Z" style="fill:rgb(124,210,76);"/>
            <path d="M354.34,299.63L354.34,335.649C354.34,338.396 352.111,340.625 349.364,340.625L339.412,340.625C336.666,340.625 334.437,338.396 334.437,335.649L334.437,299.63C334.437,296.883 336.666,294.654 339.412,294.654L349.364,294.654C352.111,294.654 354.34,296.883 354.34,299.63Z" style="fill:rgb(124,210,76);"/>
            <path d="M386.356,280.848L386.356,335.649C386.356,338.396 384.126,340.625 381.38,340.625L371.428,340.625C368.682,340.625 366.452,338.396 366.452,335.649L366.452,280.848C366.452,278.102 368.682,275.872 371.428,275.872L381.38,275.872C384.126,275.872 386.356,278.102 386.356,280.848Z" style="fill:rgb(124,210,76);"/>
            <g>
                <path d="M315.716,173.991C315.716,177.966 312.488,181.194 308.513,181.194L205.764,181.194C201.789,181.194 198.561,177.966 198.561,173.991C198.561,170.016 201.789,166.788 205.764,166.788L308.513,166.788C312.488,166.788 315.716,170.016 315.716,173.991Z" style="fill:white;"/>
                <path d="M315.716,203.185C315.716,207.16 312.488,210.388 308.513,210.388L222.866,210.388C218.891,210.388 215.663,207.16 215.663,203.185C215.663,199.21 218.891,195.983 222.866,195.983L308.513,195.983C312.488,195.983 315.716,199.21 315.716,203.185Z" style="fill:white;"/>
                <path d="M315.716,232.379C315.716,236.355 312.488,239.582 308.513,239.582L216.401,239.582C212.426,239.582 209.198,236.355 209.198,232.379C209.198,228.404 212.426,225.177 216.401,225.177L308.513,225.177C312.488,225.177 315.716,228.404 315.716,232.379Z" style="fill:white;"/>
                <path d="M283.037,261.573C283.037,265.549 279.81,268.776 275.835,268.776L202.025,268.776C198.05,268.776 194.823,265.549 194.823,261.573C194.823,257.598 198.05,254.371 202.025,254.371L275.835,254.371C279.81,254.371 283.037,257.598 283.037,261.573Z" style="fill:white;"/>
                <path d="M249.114,290.768C249.114,294.743 245.886,297.97 241.911,297.97L202.025,297.97C198.05,297.97 194.823,294.743 194.823,290.768C194.823,286.792 198.05,283.565 202.025,283.565L241.911,283.565C245.886,283.565 249.114,286.792 249.114,290.768Z" style="fill:white;"/>
                <path d="M249.114,319.962C249.114,323.937 245.886,327.164 241.911,327.164L201.362,327.164C197.387,327.164 194.159,323.937 194.159,319.962C194.159,315.987 197.387,312.759 201.362,312.759L241.911,312.759C245.886,312.759 249.114,315.987 249.114,319.962Z" style="fill:white;"/>
            </g>
        </g>
    </g>
    <defs>
        <filter id="_Effect1" filterUnits="userSpaceOnUse" x="-48" y="-48" width="589.953" height="589.953">
            <feGaussianBlur in="SourceGraphic" stdDeviation="16"/>
        </filter>
    </defs>
</svg>
