<?xml version="1.0" encoding="UTF-8" standalone="no"?>
<!DOCTYPE svg PUBLIC "-//W3C//DTD SVG 1.1//EN" "http://www.w3.org/Graphics/SVG/1.1/DTD/svg11.dtd">
<svg width="100%" height="100%" viewBox="0 0 494 494" version="1.1" xmlns="http://www.w3.org/2000/svg" xmlns:xlink="http://www.w3.org/1999/xlink" xml:space="preserve" xmlns:serif="http://www.serif.com/" style="fill-rule:evenodd;clip-rule:evenodd;stroke-linejoin:round;stroke-miterlimit:0.73;">
    <g>
        <g>
            <g style="filter:url(#_Effect1);">
                <path d="M435.953,152.488L435.953,341.465C435.953,393.614 393.614,435.953 341.465,435.953L152.488,435.953C100.339,435.953 58,393.614 58,341.465L58,152.488C58,100.339 100.339,58 152.488,58L341.465,58C393.614,58 435.953,100.339 435.953,152.488Z" style="fill:none;stroke:rgb(1,55,125);stroke-opacity:0.2;stroke-width:20px;"/>
            </g>
            <path d="M435.953,152.488L435.953,341.465C435.953,393.614 393.614,435.953 341.465,435.953L152.488,435.953C100.339,435.953 58,393.614 58,341.465L58,152.488C58,100.339 100.339,58 152.488,58L341.465,58C393.614,58 435.953,100.339 435.953,152.488Z" style="fill:white;stroke:white;stroke-width:0.46px;"/>
        </g>
        <g>
            <g>
                <g>
                    <path d="M246.976,248.02C258.555,248.02 281.712,248.02 293.29,262.326C304.869,276.633 304.869,305.246 293.29,333.859C289.669,343.446 283.507,353.033 276.247,361.982C269.092,370.808 258.338,375.934 246.976,375.934C235.615,375.934 224.86,370.808 217.705,361.982C210.446,353.033 204.283,343.446 200.662,333.859C189.084,305.246 189.084,276.633 200.662,262.326C212.241,248.02 235.398,248.02 246.976,248.02Z" style="fill:rgb(1,55,125);"/>
                    <path d="M246.367,294.977C246.509,294.783 246.735,294.668 246.976,294.668C247.217,294.668 247.444,294.783 247.586,294.977C249.443,297.511 254.97,305.054 256.112,306.613C256.244,306.793 256.29,307.023 256.237,307.24C255.478,310.344 249.766,333.731 247.711,342.148C247.628,342.486 247.325,342.724 246.976,342.724C246.628,342.724 246.325,342.486 246.242,342.148C244.186,333.731 238.474,310.344 237.716,307.24C237.663,307.023 237.709,306.793 237.841,306.613C238.983,305.054 244.51,297.511 246.367,294.977Z" style="fill:white;"/>
                    <path d="M246.976,275.166C248.457,275.166 251.417,275.166 252.898,276.995C254.378,278.824 254.378,282.482 252.898,286.141C252.897,286.142 252.897,286.143 252.896,286.145C251.965,288.606 249.608,290.235 246.976,290.235C244.344,290.235 241.987,288.607 241.056,286.145C241.056,286.143 241.056,286.142 241.055,286.141C239.575,282.482 239.575,278.824 241.055,276.995C242.535,275.166 245.496,275.166 246.976,275.166Z" style="fill:white;"/>
                    <path d="M246.976,204.424C253.467,204.424 266.448,204.424 272.938,212.444C279.429,220.463 279.429,236.503 272.938,252.542C272.938,252.542 272.938,252.543 272.938,252.543C268.859,263.342 258.52,270.489 246.976,270.489C235.432,270.489 225.093,263.342 221.015,252.543C221.015,252.543 221.015,252.542 221.015,252.542C214.524,236.503 214.524,220.463 221.015,212.444C227.505,204.424 240.486,204.424 246.976,204.424Z" style="fill:rgb(124,210,76);"/>
                </g>
            </g>
            <path d="M246.976,118.019L254.642,141.612L279.449,141.612L259.38,156.193L267.045,179.785L246.976,165.204L226.907,179.785L234.573,156.193L214.504,141.612L239.311,141.612L246.976,118.019Z" style="fill:rgb(1,54,124);"/>
            <path d="M182.747,159.196L187.857,174.925L204.395,174.925L191.016,184.645L196.126,200.374L182.747,190.653L169.368,200.374L174.478,184.645L161.099,174.925L177.637,174.925L182.747,159.196Z" style="fill:rgb(1,54,124);"/>
            <path d="M311.206,159.196L316.316,174.925L332.854,174.925L319.475,184.645L324.585,200.374L311.206,190.653L297.826,200.374L302.937,184.645L289.557,174.925L306.095,174.925L311.206,159.196Z" style="fill:rgb(1,54,124);"/>
            <path d="M145.78,207.06L149.869,219.643L163.099,219.643L152.396,227.419L156.484,240.002L145.78,232.226L135.077,240.002L139.165,227.419L128.462,219.643L141.692,219.643L145.78,207.06Z" style="fill:rgb(1,54,124);"/>
            <path d="M348.172,207.06L352.261,219.643L365.491,219.643L354.787,227.419L358.876,240.002L348.172,232.226L337.469,240.002L341.557,227.419L330.854,219.643L344.084,219.643L348.172,207.06Z" style="fill:rgb(1,54,124);"/>
        </g>
    </g>
    <defs>
        <filter id="_Effect1" filterUnits="userSpaceOnUse" x="-48" y="-48" width="589.953" height="589.953">
            <feGaussianBlur in="SourceGraphic" stdDeviation="16"/>
        </filter>
    </defs>
</svg>
