<?xml version="1.0" encoding="UTF-8" standalone="no"?>
<!DOCTYPE svg PUBLIC "-//W3C//DTD SVG 1.1//EN" "http://www.w3.org/Graphics/SVG/1.1/DTD/svg11.dtd">
<svg width="100%" height="100%" viewBox="0 0 379 379" version="1.1" xmlns="http://www.w3.org/2000/svg" xmlns:xlink="http://www.w3.org/1999/xlink" xml:space="preserve" xmlns:serif="http://www.serif.com/" style="fill-rule:evenodd;clip-rule:evenodd;stroke-linejoin:round;stroke-miterlimit:0.73;">
    <g>
        <g>
            <path d="M378.185,94.721L378.185,283.697C378.185,335.846 335.846,378.185 283.697,378.185L94.721,378.185C42.571,378.185 0.232,335.846 0.232,283.697L0.232,94.721C0.232,42.571 42.571,0.232 94.721,0.232L283.697,0.232C335.846,0.232 378.185,42.571 378.185,94.721Z" style="fill:white;stroke:white;stroke-width:0.46px;"/>
        </g>
        <g>
            <path d="M240.489,150.223L240.489,289.31C240.489,318.897 216.468,342.919 186.88,342.919L79.663,342.919C50.075,342.919 26.054,318.897 26.054,289.31L26.054,150.223C26.054,120.636 50.075,96.614 79.663,96.614L186.88,96.614C216.468,96.614 240.489,120.636 240.489,150.223Z" style="fill:rgb(1,54,124);"/>
            <path d="M117.366,153.281L117.366,171.923C117.366,177.068 113.189,181.244 108.045,181.244L83.839,181.244C78.695,181.244 74.518,177.068 74.518,171.923L74.518,153.281C74.518,148.136 78.695,143.96 83.839,143.96L108.045,143.96C113.189,143.96 117.366,148.136 117.366,153.281Z" style="fill:white;"/>
            <path d="M196.109,153.281L196.109,171.923C196.109,177.068 191.932,181.244 186.787,181.244L162.582,181.244C157.438,181.244 153.261,177.068 153.261,171.923L153.261,153.281C153.261,148.136 157.438,143.96 162.582,143.96L186.787,143.96C191.932,143.96 196.109,148.136 196.109,153.281Z" style="fill:white;"/>
            <path d="M117.366,210.909L117.366,229.551C117.366,234.696 113.189,238.873 108.045,238.873L83.839,238.873C78.695,238.873 74.518,234.696 74.518,229.551L74.518,210.909C74.518,205.765 78.695,201.588 83.839,201.588L108.045,201.588C113.189,201.588 117.366,205.765 117.366,210.909Z" style="fill:white;"/>
            <path d="M196.109,210.909L196.109,229.551C196.109,234.696 191.932,238.873 186.787,238.873L162.582,238.873C157.438,238.873 153.261,234.696 153.261,229.551L153.261,210.909C153.261,205.765 157.438,201.588 162.582,201.588L186.787,201.588C191.932,201.588 196.109,205.765 196.109,210.909Z" style="fill:white;"/>
            <path d="M196.109,271.895L196.109,290.538C196.109,295.682 191.932,299.859 186.787,299.859L162.582,299.859C157.438,299.859 153.261,295.682 153.261,290.538L153.261,271.895C153.261,266.751 157.438,262.574 162.582,262.574L186.787,262.574C191.932,262.574 196.109,266.751 196.109,271.895Z" style="fill:white;"/>
            <path d="M117.366,271.895L117.366,290.538C117.366,295.682 113.189,299.859 108.045,299.859L83.839,299.859C78.695,299.859 74.518,295.682 74.518,290.538L74.518,271.895C74.518,266.751 78.695,262.574 83.839,262.574L108.045,262.574C113.189,262.574 117.366,266.751 117.366,271.895Z" style="fill:white;"/>
            <g>
                <path d="M331,200.868L331,300.149C331,321.269 313.854,338.415 292.734,338.415L216.202,338.415C195.082,338.415 177.936,321.269 177.936,300.149L177.936,200.868C177.936,179.748 195.082,162.602 216.202,162.602L292.734,162.602C313.854,162.602 331,179.748 331,200.868Z" style="fill:rgb(126,211,79);"/>
                <path d="M246.674,210.694L246.674,229.336C246.674,234.481 242.498,238.658 237.353,238.658L213.148,238.658C208.003,238.658 203.827,234.481 203.827,229.336L203.827,210.694C203.827,205.55 208.003,201.373 213.148,201.373L237.353,201.373C242.498,201.373 246.674,205.55 246.674,210.694Z" style="fill:white;"/>
                <path d="M305.11,210.694L305.11,229.336C305.11,234.481 300.933,238.658 295.788,238.658L271.583,238.658C266.439,238.658 262.262,234.481 262.262,229.336L262.262,210.694C262.262,205.55 266.439,201.373 271.583,201.373L295.788,201.373C300.933,201.373 305.11,205.55 305.11,210.694Z" style="fill:white;"/>
                <path d="M305.11,271.68L305.11,290.323C305.11,295.467 300.933,299.644 295.788,299.644L271.583,299.644C266.439,299.644 262.262,295.467 262.262,290.323L262.262,271.68C262.262,266.536 266.439,262.359 271.583,262.359L295.788,262.359C300.933,262.359 305.11,266.536 305.11,271.68Z" style="fill:white;"/>
                <path d="M246.674,271.68L246.674,290.323C246.674,295.467 242.498,299.644 237.353,299.644L213.148,299.644C208.003,299.644 203.827,295.467 203.827,290.323L203.827,271.68C203.827,266.536 208.003,262.359 213.148,262.359L237.353,262.359C242.498,262.359 246.674,266.536 246.674,271.68Z" style="fill:white;"/>
            </g>
            <ellipse cx="242.878" cy="93.249" rx="64.942" ry="64.881" style="fill:none;stroke:rgb(1,54,124);stroke-width:22.85px;stroke-linecap:round;stroke-miterlimit:0.348837;"/>
            <ellipse cx="242.878" cy="93.249" rx="64.942" ry="64.881" style="fill:white;"/>
            <path d="M306.972,143.903L359.403,196.285C360.777,197.658 360.777,199.887 359.403,201.26L354.423,206.235C353.049,207.608 350.817,207.608 349.443,206.235L297.012,153.854C295.638,152.481 295.638,150.251 297.012,148.878L301.992,143.903C303.366,142.53 305.598,142.53 306.972,143.903Z" style="fill:none;stroke:rgb(1,54,124);stroke-width:14.74px;stroke-linecap:round;stroke-miterlimit:0.348837;"/>
            <path d="M306.972,143.903L359.403,196.285C360.777,197.658 360.777,199.887 359.403,201.26L354.423,206.235C353.049,207.608 350.817,207.608 349.443,206.235L297.012,153.854C295.638,152.481 295.638,150.251 297.012,148.878L301.992,143.903C303.366,142.53 305.598,142.53 306.972,143.903Z" style="fill:white;"/>
        </g>
    </g>
</svg>
