<?xml version="1.0" encoding="UTF-8" standalone="no"?>
<!DOCTYPE svg PUBLIC "-//W3C//DTD SVG 1.1//EN" "http://www.w3.org/Graphics/SVG/1.1/DTD/svg11.dtd">
<svg width="100%" height="100%" viewBox="0 0 379 379" version="1.1" xmlns="http://www.w3.org/2000/svg" xmlns:xlink="http://www.w3.org/1999/xlink" xml:space="preserve" xmlns:serif="http://www.serif.com/" style="fill-rule:evenodd;clip-rule:evenodd;stroke-linejoin:round;stroke-miterlimit:0.73;">
    <g>
        <g>
            <path d="M378.28,132.516L378.28,245.902C378.28,318.911 319.006,378.185 245.997,378.185L132.611,378.185C59.602,378.185 0.327,318.911 0.327,245.902L0.327,132.516C0.327,59.507 59.602,0.232 132.611,0.232L245.997,0.232C319.006,0.232 378.28,59.507 378.28,132.516Z" style="fill:white;stroke:white;stroke-width:0.46px;"/>
            <g>
                <path d="M189.316,86.576C221.073,52.859 284.586,52.859 316.343,79.988C348.101,107.117 348.101,161.375 316.343,215.633C294.113,256.326 236.951,297.02 189.316,324.149C141.681,297.02 84.519,256.326 62.29,215.633C30.533,161.375 30.533,107.117 62.29,79.988C94.046,52.859 157.56,52.859 189.316,86.576Z" style="fill:none;stroke:white;stroke-width:20.96px;stroke-linecap:round;stroke-miterlimit:0.348837;"/>
                <path d="M189.316,86.576C221.073,52.859 284.586,52.859 316.343,79.988C348.101,107.117 348.101,161.375 316.343,215.633C294.113,256.326 236.951,297.02 189.316,324.149C141.681,297.02 84.519,256.326 62.29,215.633C30.533,161.375 30.533,107.117 62.29,79.988C94.046,52.859 157.56,52.859 189.316,86.576Z" style="fill:rgb(1,54,124);"/>
                <path d="M4.441,179.679L32.589,179.679L53.192,145.496L78.147,179.036L95.919,150.911L114.382,179.679L140.106,128.042C140.106,128.042 157.062,185.133 159.889,191.622C162.715,198.111 178.205,153.986 178.205,153.986L194.627,184.145L213.723,139.19L234.815,176.176L266.612,120.677L282.521,179.679L309.683,142.829L340.483,166.079L374.192,166.079" style="fill:none;stroke:rgb(126,211,79);stroke-width:8.88px;stroke-linecap:round;stroke-miterlimit:0.348837;"/>
                <ellipse cx="189.317" cy="256.333" rx="42.737" ry="42.64" style="fill:white;"/>
                <path d="M203.952,264.828C203.952,266.797 203.449,268.644 202.443,270.367C201.437,272.091 199.956,273.511 198.001,274.628C196.046,275.746 193.739,276.399 191.082,276.589L191.082,281.191L187.437,281.191L187.437,276.532C183.641,276.191 180.585,275.045 178.269,273.094C175.953,271.144 174.758,268.502 174.682,265.168L183.223,265.168C183.451,267.896 184.856,269.543 187.437,270.112L187.437,259.259C184.704,258.578 182.502,257.896 180.832,257.214C179.161,256.532 177.719,255.434 176.504,253.919C175.289,252.404 174.682,250.339 174.682,247.726C174.682,244.43 175.868,241.741 178.241,239.658C180.613,237.574 183.679,236.381 187.437,236.078L187.437,231.476L191.082,231.476L191.082,236.078C194.726,236.381 197.64,237.48 199.823,239.374C202.006,241.267 203.23,243.881 203.496,247.214L194.897,247.214C194.783,246.116 194.394,245.159 193.73,244.345C193.066,243.531 192.183,242.953 191.082,242.612L191.082,253.351C193.929,254.07 196.179,254.761 197.83,255.424C199.481,256.087 200.915,257.167 202.129,258.663C203.344,260.159 203.952,262.214 203.952,264.828ZM182.996,247.328C182.996,248.578 183.375,249.591 184.135,250.368C184.894,251.144 185.995,251.779 187.437,252.271L187.437,242.442C186.071,242.631 184.989,243.142 184.192,243.976C183.394,244.809 182.996,245.926 182.996,247.328ZM191.082,270.225C192.525,269.96 193.654,269.373 194.47,268.464C195.286,267.555 195.695,266.456 195.695,265.168C195.695,263.918 195.296,262.915 194.499,262.157C193.701,261.4 192.563,260.775 191.082,260.282L191.082,270.225Z" style="fill:rgb(1,54,124);fill-rule:nonzero;"/>
                <circle cx="140.106" cy="128.042" r="12.198" style="fill:white;"/>
                <circle cx="234.815" cy="176.176" r="12.198" style="fill:white;"/>
                <circle cx="266.612" cy="120.677" r="12.198" style="fill:white;"/>
                <circle cx="78.147" cy="179.036" r="12.198" style="fill:white;"/>
                <circle cx="309.683" cy="142.829" r="12.198" style="fill:white;"/>
            </g>
        </g>
    </g>
</svg>
