<?xml version="1.0" encoding="UTF-8" standalone="no"?>
<!DOCTYPE svg PUBLIC "-//W3C//DTD SVG 1.1//EN" "http://www.w3.org/Graphics/SVG/1.1/DTD/svg11.dtd">
<svg width="100%" height="100%" viewBox="0 0 494 494" version="1.1" xmlns="http://www.w3.org/2000/svg" xmlns:xlink="http://www.w3.org/1999/xlink" xml:space="preserve" xmlns:serif="http://www.serif.com/" style="fill-rule:evenodd;clip-rule:evenodd;stroke-linejoin:round;stroke-miterlimit:0.73;">
    <g>
        <g>
            <g style="filter:url(#_Effect1);">
                <path d="M435.953,152.488L435.953,341.465C435.953,393.614 393.614,435.953 341.465,435.953L152.488,435.953C100.339,435.953 58,393.614 58,341.465L58,152.488C58,100.339 100.339,58 152.488,58L341.465,58C393.614,58 435.953,100.339 435.953,152.488Z" style="fill:none;stroke:#01377d;stroke-opacity:0.2;stroke-width:20px;"/>
            </g>
            <path d="M433.79,152.368L433.79,341.344C433.79,393.494 391.451,435.832 339.302,435.832L150.325,435.832C98.176,435.832 55.837,393.494 55.837,341.344L55.837,152.368C55.837,100.218 98.176,57.88 150.325,57.88L339.302,57.88C391.451,57.88 433.79,100.218 433.79,152.368Z" style="fill:#fff;stroke:#fff;stroke-width:0.46px;"/>
        </g>
        <g>
            <path d="M250.395,271.197L251.934,278.691C254.913,279.147 257.833,279.93 260.641,281.025L265.722,275.304C268.565,276.596 271.276,278.162 273.817,279.977L271.403,287.238C273.755,289.122 275.892,291.26 277.777,293.612L285.037,291.198C286.853,293.739 288.418,296.45 289.711,299.293L283.99,304.373C285.085,307.181 285.867,310.101 286.323,313.08L293.817,314.62C294.12,317.728 294.12,320.858 293.817,323.967L286.323,325.506C285.867,328.486 285.085,331.406 283.99,334.214L289.711,339.294C288.418,342.137 286.853,344.848 285.037,347.389L277.777,344.975C275.892,347.327 273.755,349.465 271.403,351.349L273.817,358.609C271.276,360.425 268.565,361.99 265.722,363.283L260.641,357.562C257.833,358.657 254.913,359.439 251.934,359.895L250.395,367.39C247.286,367.692 244.156,367.692 241.048,367.39L239.508,359.895C236.529,359.439 233.609,358.657 230.801,357.562L225.72,363.283C222.877,361.99 220.166,360.425 217.625,358.609L220.04,351.349C217.687,349.465 215.55,347.327 213.665,344.975L206.405,347.389C204.589,344.848 203.024,342.137 201.732,339.294L207.452,334.214C206.358,331.406 205.575,328.486 205.119,325.506L197.625,323.967C197.323,320.858 197.323,317.728 197.625,314.62L205.119,313.08C205.575,310.101 206.358,307.181 207.452,304.373L201.732,299.293C203.024,296.45 204.589,293.739 206.405,291.198L213.665,293.612C215.55,291.26 217.687,289.122 220.04,287.238L217.625,279.977C220.166,278.162 222.877,276.596 225.72,275.304L230.801,281.025C233.609,279.93 236.529,279.147 239.508,278.691L241.048,271.197C244.156,270.895 247.286,270.895 250.395,271.197ZM245.721,292.906C260.284,292.906 272.108,304.73 272.108,319.293C272.108,333.857 260.284,345.68 245.721,345.68C231.158,345.68 219.334,333.857 219.334,319.293C219.334,304.73 231.158,292.906 245.721,292.906Z" style="fill:#01377c;"/>
            <path d="M178.891,215.55L180.431,223.044C183.41,223.5 186.33,224.282 189.138,225.377L194.219,219.657C197.062,220.949 199.773,222.514 202.313,224.33L199.899,231.59C202.252,233.475 204.389,235.612 206.274,237.964L213.534,235.55C215.35,238.091 216.915,240.802 218.207,243.645L212.487,248.726C213.581,251.534 214.364,254.454 214.82,257.433L222.314,258.972C222.616,262.081 222.616,265.211 222.314,268.319L214.82,269.859C214.364,272.838 213.581,275.758 212.487,278.566L218.207,283.647C216.915,286.49 215.35,289.201 213.534,291.742L206.274,289.328C204.389,291.68 202.252,293.817 199.899,295.702L202.313,302.962C199.773,304.778 197.062,306.343 194.219,307.635L189.138,301.915C186.33,303.01 183.41,303.792 180.431,304.248L178.891,311.742C175.783,312.044 172.653,312.044 169.544,311.742L168.005,304.248C165.026,303.792 162.106,303.01 159.298,301.915L154.217,307.635C151.374,306.343 148.663,304.778 146.122,302.962L148.536,295.702C146.184,293.817 144.047,291.68 142.162,289.328L134.902,291.742C133.086,289.201 131.521,286.49 130.228,283.647L135.949,278.566C134.854,275.758 134.072,272.838 133.616,269.859L126.121,268.319C125.819,265.211 125.819,262.081 126.121,258.972L133.616,257.433C134.072,254.454 134.854,251.534 135.949,248.726L130.228,243.645C131.521,240.802 133.086,238.091 134.902,235.55L142.162,237.964C144.047,235.612 146.184,233.475 148.536,231.59L146.122,224.33C148.663,222.514 151.374,220.949 154.217,219.657L159.298,225.377C162.106,224.282 165.026,223.5 168.005,223.044L169.544,215.55C172.653,215.248 175.783,215.248 178.891,215.55ZM174.218,237.259C188.781,237.259 200.605,249.083 200.605,263.646C200.605,278.209 188.781,290.033 174.218,290.033C159.655,290.033 147.831,278.209 147.831,263.646C147.831,249.083 159.655,237.259 174.218,237.259Z" style="fill:#01377c;"/>
            <path d="M322.246,215.742L323.785,223.237C326.764,223.693 329.684,224.475 332.492,225.57L337.573,219.849C340.416,221.142 343.127,222.707 345.668,224.523L343.254,231.783C345.606,233.667 347.743,235.805 349.628,238.157L356.888,235.743C358.704,238.284 360.269,240.995 361.561,243.838L355.841,248.918C356.936,251.726 357.718,254.646 358.174,257.626L365.668,259.165C365.97,262.274 365.97,265.404 365.668,268.512L358.174,270.052C357.718,273.031 356.936,275.951 355.841,278.759L361.561,283.84C360.269,286.682 358.704,289.393 356.888,291.934L349.628,289.52C347.743,291.872 345.606,294.01 343.254,295.895L345.668,303.155C343.127,304.97 340.416,306.536 337.573,307.828L332.492,302.107C329.684,303.202 326.764,303.985 323.785,304.441L322.246,311.935C319.137,312.237 316.007,312.237 312.898,311.935L311.359,304.441C308.38,303.985 305.46,303.202 302.652,302.107L297.571,307.828C294.728,306.536 292.017,304.97 289.476,303.155L291.89,295.895C289.538,294.01 287.401,291.872 285.516,289.52L278.256,291.934C276.44,289.393 274.875,286.682 273.583,283.84L279.303,278.759C278.208,275.951 277.426,273.031 276.97,270.052L269.476,268.512C269.174,265.404 269.174,262.274 269.476,259.165L276.97,257.626C277.426,254.646 278.208,251.726 279.303,248.918L273.583,243.838C274.875,240.995 276.44,238.284 278.256,235.743L285.516,238.157C287.401,235.805 289.538,233.667 291.89,231.783L289.476,224.523C292.017,222.707 294.728,221.142 297.571,219.849L302.652,225.57C305.46,224.475 308.38,223.693 311.359,223.237L312.898,215.742C316.007,215.44 319.137,215.44 322.246,215.742ZM317.572,237.452C332.135,237.452 343.959,249.275 343.959,263.839C343.959,278.402 332.135,290.226 317.572,290.226C303.009,290.226 291.185,278.402 291.185,263.839C291.185,249.275 303.009,237.452 317.572,237.452Z" style="fill:#01377c;"/>
            <circle cx="246.807" cy="203.46" r="41.565" style="fill:#01377c;"/>
            <g transform="matrix(29.1969,0,0,29.1969,326.346,273.897)">
            </g>
            <text x="308.506px" y="273.897px" style="font-family:'Poppins-SemiBold', 'Poppins';font-weight:600;font-size:29.197px;fill:#7bd24b;">₹</text>
            <g transform="matrix(29.1969,0,0,29.1969,255.896,329.95)">
            </g>
            <text x="236.801px" y="329.95px" style="font-family:'Poppins-SemiBold', 'Poppins';font-weight:600;font-size:29.197px;fill:#7bd24b;">£</text>
            <g transform="matrix(29.1969,0,0,29.1969,185.955,273.897)">
            </g>
            <text x="162.627px" y="273.897px" style="font-family:'Poppins-SemiBold', 'Poppins';font-weight:600;font-size:29.197px;fill:#7bd24b;">€</text>
            <g transform="matrix(47.1373,0,0,47.1373,263.023,219.981)">
            </g>
            <text x="232.195px" y="219.981px" style="font-family:'Poppins-SemiBold', 'Poppins';font-weight:600;font-size:47.137px;fill:#7bd24b;stroke:#01377d;stroke-width:0.32px;stroke-miterlimit:2;">$</text>
            <path d="M325.936,207.971L314.094,207.317C314.166,206.076 314.202,204.834 314.202,203.591C314.202,167.261 283.909,137.765 246.596,137.765C209.283,137.765 178.99,167.261 178.99,203.591C178.99,204.834 179.026,206.076 179.098,207.317L167.255,207.971C167.17,206.512 167.128,205.052 167.128,203.591C167.128,160.887 202.736,126.216 246.596,126.216C290.455,126.216 326.064,160.887 326.064,203.591C326.064,205.052 326.021,206.512 325.936,207.971Z" style="fill:#01377c;"/>
        </g>
    </g>
    <defs>
        <filter id="_Effect1" filterUnits="userSpaceOnUse" x="-48" y="-48" width="589.953" height="589.953">
            <feGaussianBlur in="SourceGraphic" stdDeviation="16"/>
        </filter>
    </defs>
</svg>
