<?xml version="1.0" encoding="UTF-8" standalone="no"?>
<!DOCTYPE svg PUBLIC "-//W3C//DTD SVG 1.1//EN" "http://www.w3.org/Graphics/SVG/1.1/DTD/svg11.dtd">
<svg width="100%" height="100%" viewBox="0 0 379 379" version="1.1" xmlns="http://www.w3.org/2000/svg" xmlns:xlink="http://www.w3.org/1999/xlink" xml:space="preserve" xmlns:serif="http://www.serif.com/" style="fill-rule:evenodd;clip-rule:evenodd;stroke-linejoin:round;stroke-miterlimit:0.73;">
    <g>
        <g>
            <path d="M378.185,94.721L378.185,283.697C378.185,335.846 335.846,378.185 283.697,378.185L94.721,378.185C42.571,378.185 0.232,335.846 0.232,283.697L0.232,94.721C0.232,42.571 42.571,0.232 94.721,0.232L283.697,0.232C335.846,0.232 378.185,42.571 378.185,94.721Z" style="fill:white;stroke:white;stroke-width:0.46px;"/>
        </g>
        <g>
            <path d="M259.59,119.27L259.59,174.084C259.59,189.21 247.309,201.491 232.183,201.491L114.46,201.491C99.333,201.491 87.053,189.21 87.053,174.084L87.053,119.27C87.053,104.144 99.333,91.863 114.46,91.863L232.183,91.863C247.309,91.863 259.59,104.144 259.59,119.27Z" style="fill:none;stroke:rgb(1,55,125);stroke-width:42.44px;stroke-linecap:round;stroke-miterlimit:0.348837;"/>
            <path d="M259.59,119.27L259.59,174.084C259.59,189.21 247.309,201.491 232.183,201.491L114.46,201.491C99.333,201.491 87.053,189.21 87.053,174.084L87.053,119.27C87.053,104.144 99.333,91.863 114.46,91.863L232.183,91.863C247.309,91.863 259.59,104.144 259.59,119.27Z" style="fill:white;"/>
            <path d="M183.058,213.07L155.414,260.951C153.284,264.64 148.559,265.906 144.869,263.776C141.179,261.646 139.913,256.921 142.043,253.231L169.687,205.351C171.817,201.661 176.543,200.395 180.232,202.525C183.922,204.655 185.188,209.381 183.058,213.07Z" style="fill:rgb(1,55,125);"/>
            <path d="M176.955,205.351L204.599,253.231C206.73,256.921 205.463,261.646 201.774,263.776C198.084,265.906 193.359,264.64 191.229,260.951L163.585,213.07C161.455,209.381 162.721,204.655 166.41,202.525C170.1,200.395 174.825,201.661 176.955,205.351Z" style="fill:rgb(1,55,125);"/>
            <path d="M121.499,132.874L122.07,135.654C123.175,135.823 124.258,136.113 125.3,136.519L127.184,134.397C128.239,134.876 129.244,135.457 130.187,136.131L129.291,138.824C130.164,139.523 130.957,140.316 131.656,141.188L134.349,140.293C135.023,141.235 135.603,142.241 136.083,143.295L133.961,145.18C134.367,146.222 134.657,147.305 134.826,148.41L137.606,148.981C137.718,150.134 137.718,151.295 137.606,152.448L134.826,153.019C134.657,154.124 134.367,155.207 133.961,156.249L136.083,158.134C135.603,159.188 135.023,160.194 134.349,161.136L131.656,160.241C130.957,161.113 130.164,161.906 129.291,162.605L130.187,165.298C129.244,165.972 128.239,166.552 127.184,167.032L125.3,164.91C124.258,165.316 123.175,165.606 122.07,165.775L121.499,168.555C120.346,168.667 119.185,168.667 118.032,168.555L117.46,165.775C116.355,165.606 115.272,165.316 114.231,164.91L112.346,167.032C111.291,166.552 110.286,165.972 109.343,165.298L110.239,162.605C109.366,161.906 108.573,161.113 107.874,160.241L105.181,161.136C104.508,160.194 103.927,159.188 103.448,158.134L105.57,156.249C105.164,155.207 104.873,154.124 104.704,153.019L101.924,152.448C101.812,151.295 101.812,150.134 101.924,148.981L104.704,148.41C104.873,147.305 105.164,146.222 105.57,145.18L103.448,143.295C103.927,142.241 104.508,141.235 105.181,140.293L107.874,141.188C108.573,140.316 109.366,139.523 110.239,138.824L109.343,136.131C110.286,135.457 111.291,134.876 112.346,134.397L114.231,136.519C115.272,136.113 116.355,135.823 117.46,135.654L118.032,132.874C119.185,132.762 120.346,132.762 121.499,132.874ZM119.765,143.66C123.659,143.66 126.82,146.821 126.82,150.714C126.82,154.608 123.659,157.769 119.765,157.769C115.872,157.769 112.71,154.608 112.71,150.714C112.71,146.821 115.872,143.66 119.765,143.66Z" style="fill:rgb(1,55,125);"/>
            <path d="M211.123,105.584L211.694,108.364C212.799,108.533 213.883,108.823 214.924,109.229L216.809,107.107C217.863,107.587 218.869,108.167 219.812,108.841L218.916,111.534C219.789,112.233 220.581,113.026 221.281,113.898L223.974,113.003C224.647,113.945 225.228,114.951 225.707,116.005L223.585,117.89C223.991,118.932 224.281,120.015 224.451,121.12L227.231,121.691C227.343,122.844 227.343,124.005 227.231,125.158L224.451,125.729C224.281,126.834 223.991,127.917 223.585,128.959L225.707,130.844C225.228,131.898 224.647,132.904 223.974,133.846L221.281,132.951C220.581,133.823 219.789,134.616 218.916,135.315L219.812,138.008C218.869,138.682 217.863,139.263 216.809,139.742L214.924,137.62C213.883,138.026 212.799,138.316 211.694,138.485L211.123,141.265C209.97,141.377 208.809,141.377 207.656,141.265L207.085,138.485C205.98,138.316 204.897,138.026 203.855,137.62L201.971,139.742C200.916,139.263 199.91,138.682 198.968,138.008L199.863,135.315C198.991,134.616 198.198,133.823 197.499,132.951L194.806,133.846C194.132,132.904 193.552,131.898 193.072,130.844L195.194,128.959C194.788,127.917 194.498,126.834 194.329,125.729L191.549,125.158C191.437,124.005 191.437,122.844 191.549,121.691L194.329,121.12C194.498,120.015 194.788,118.932 195.194,117.89L193.072,116.005C193.552,114.951 194.132,113.945 194.806,113.003L197.499,113.898C198.198,113.026 198.991,112.233 199.863,111.534L198.968,108.841C199.91,108.167 200.916,107.587 201.971,107.107L203.855,109.229C204.897,108.823 205.98,108.533 207.085,108.364L207.656,105.584C208.809,105.472 209.97,105.472 211.123,105.584ZM209.39,116.37C213.283,116.37 216.444,119.531 216.444,123.425C216.444,127.318 213.283,130.479 209.39,130.479C205.496,130.479 202.335,127.318 202.335,123.425C202.335,119.531 205.496,116.37 209.39,116.37Z" style="fill:rgb(124,210,76);"/>
            <path d="M225.809,150.798L226.38,153.578C227.485,153.748 228.569,154.038 229.61,154.444L231.495,152.322C232.549,152.801 233.555,153.382 234.497,154.055L233.602,156.749C234.474,157.448 235.267,158.241 235.966,159.113L238.659,158.218C239.333,159.16 239.914,160.166 240.393,161.22L238.271,163.105C238.677,164.146 238.967,165.23 239.136,166.335L241.916,166.906C242.029,168.059 242.029,169.22 241.916,170.373L239.136,170.944C238.967,172.049 238.677,173.132 238.271,174.174L240.393,176.058C239.914,177.113 239.333,178.119 238.659,179.061L235.966,178.166C235.267,179.038 234.474,179.831 233.602,180.53L234.497,183.223C233.555,183.897 232.549,184.477 231.495,184.957L229.61,182.835C228.569,183.241 227.485,183.531 226.38,183.7L225.809,186.48C224.656,186.592 223.495,186.592 222.342,186.48L221.771,183.7C220.666,183.531 219.583,183.241 218.541,182.835L216.656,184.957C215.602,184.477 214.596,183.897 213.654,183.223L214.549,180.53C213.677,179.831 212.884,179.038 212.185,178.166L209.492,179.061C208.818,178.119 208.238,177.113 207.758,176.058L209.88,174.174C209.474,173.132 209.184,172.049 209.015,170.944L206.235,170.373C206.123,169.22 206.123,168.059 206.235,166.906L209.015,166.335C209.184,165.23 209.474,164.146 209.88,163.105L207.758,161.22C208.238,160.166 208.818,159.16 209.492,158.218L212.185,159.113C212.884,158.241 213.677,157.448 214.549,156.749L213.654,154.055C214.596,153.382 215.602,152.801 216.656,152.322L218.541,154.444C219.583,154.038 220.666,153.748 221.771,153.578L222.342,150.798C223.495,150.686 224.656,150.686 225.809,150.798ZM224.076,161.585C227.969,161.585 231.13,164.746 231.13,168.639C231.13,172.533 227.969,175.694 224.076,175.694C220.182,175.694 217.021,172.533 217.021,168.639C217.021,164.746 220.182,161.585 224.076,161.585Z" style="fill:rgb(1,55,125);"/>
            <path d="M170.773,150.798L171.344,153.578C172.449,153.748 173.532,154.038 174.574,154.444L176.458,152.322C177.513,152.801 178.519,153.382 179.461,154.055L178.566,156.749C179.438,157.448 180.231,158.241 180.93,159.113L183.623,158.218C184.297,159.16 184.877,160.166 185.357,161.22L183.235,163.105C183.641,164.146 183.931,165.23 184.1,166.335L186.88,166.906C186.992,168.059 186.992,169.22 186.88,170.373L184.1,170.944C183.931,172.049 183.641,173.132 183.235,174.174L185.357,176.058C184.877,177.113 184.297,178.119 183.623,179.061L180.93,178.166C180.231,179.038 179.438,179.831 178.566,180.53L179.461,183.223C178.519,183.897 177.513,184.477 176.458,184.957L174.574,182.835C173.532,183.241 172.449,183.531 171.344,183.7L170.773,186.48C169.62,186.592 168.459,186.592 167.306,186.48L166.735,183.7C165.63,183.531 164.546,183.241 163.505,182.835L161.62,184.957C160.566,184.477 159.56,183.897 158.618,183.223L159.513,180.53C158.641,179.831 157.848,179.038 157.149,178.166L154.455,179.061C153.782,178.119 153.201,177.113 152.722,176.058L154.844,174.174C154.438,173.132 154.148,172.049 153.978,170.944L151.198,170.373C151.086,169.22 151.086,168.059 151.198,166.906L153.978,166.335C154.148,165.23 154.438,164.146 154.844,163.105L152.722,161.22C153.201,160.166 153.782,159.16 154.455,158.218L157.149,159.113C157.848,158.241 158.641,157.448 159.513,156.749L158.618,154.055C159.56,153.382 160.566,152.801 161.62,152.322L163.505,154.444C164.546,154.038 165.63,153.748 166.735,153.578L167.306,150.798C168.459,150.686 169.62,150.686 170.773,150.798ZM169.039,161.585C172.933,161.585 176.094,164.746 176.094,168.639C176.094,172.533 172.933,175.694 169.039,175.694C165.146,175.694 161.985,172.533 161.985,168.639C161.985,164.746 165.146,161.585 169.039,161.585Z" style="fill:rgb(124,210,76);"/>
            <path d="M159.903,98.529L160.474,101.309C161.579,101.478 162.662,101.768 163.704,102.174L165.588,100.052C166.643,100.532 167.648,101.112 168.591,101.786L167.695,104.479C168.568,105.178 169.361,105.971 170.06,106.844L172.753,105.948C173.427,106.891 174.007,107.896 174.487,108.951L172.365,110.835C172.771,111.877 173.061,112.96 173.23,114.065L176.01,114.636C176.122,115.789 176.122,116.95 176.01,118.103L173.23,118.675C173.061,119.78 172.771,120.863 172.365,121.904L174.487,123.789C174.007,124.844 173.427,125.849 172.753,126.792L170.06,125.896C169.361,126.769 168.568,127.562 167.695,128.261L168.591,130.954C167.648,131.627 166.643,132.208 165.588,132.687L163.704,130.565C162.662,130.971 161.579,131.262 160.474,131.431L159.903,134.211C158.75,134.323 157.589,134.323 156.436,134.211L155.864,131.431C154.759,131.262 153.676,130.971 152.635,130.565L150.75,132.687C149.695,132.208 148.69,131.627 147.747,130.954L148.643,128.261C147.77,127.562 146.977,126.769 146.278,125.896L143.585,126.792C142.912,125.849 142.331,124.844 141.852,123.789L143.974,121.904C143.568,120.863 143.277,119.78 143.108,118.675L140.328,118.103C140.216,116.95 140.216,115.789 140.328,114.636L143.108,114.065C143.277,112.96 143.568,111.877 143.974,110.835L141.852,108.951C142.331,107.896 142.912,106.891 143.585,105.948L146.278,106.844C146.977,105.971 147.77,105.178 148.643,104.479L147.747,101.786C148.69,101.112 149.695,100.532 150.75,100.052L152.635,102.174C153.676,101.768 154.759,101.478 155.864,101.309L156.436,98.529C157.589,98.417 158.75,98.417 159.903,98.529ZM158.169,109.315C162.063,109.315 165.224,112.476 165.224,116.37C165.224,120.263 162.063,123.425 158.169,123.425C154.276,123.425 151.114,120.263 151.114,116.37C151.114,112.476 154.276,109.315 158.169,109.315Z" style="fill:rgb(124,210,76);"/>
        </g>
        <g>
            <g>
                <path d="M276.517,188.246C287.557,188.246 309.638,188.246 320.678,201.888C331.719,215.53 331.719,242.813 320.678,270.096C317.528,278.438 312.359,286.78 306.219,294.66C299.079,303.808 288.122,309.156 276.517,309.156C264.912,309.156 253.955,303.808 246.816,294.66C240.675,286.78 235.506,278.438 232.356,270.096C221.315,242.813 221.315,215.53 232.356,201.888C243.396,188.246 265.477,188.246 276.517,188.246Z" style="fill:rgb(1,55,125);"/>
                <path d="M275.907,233.06C276.05,232.866 276.276,232.751 276.517,232.751C276.758,232.751 276.985,232.866 277.127,233.06C278.919,235.506 284.114,242.596 285.219,244.103C285.351,244.283 285.396,244.513 285.343,244.729C284.609,247.736 279.236,269.733 277.252,277.86C277.169,278.198 276.866,278.436 276.517,278.436C276.169,278.436 275.866,278.198 275.783,277.86C273.798,269.733 268.425,247.736 267.691,244.729C267.638,244.513 267.684,244.283 267.816,244.103C268.921,242.596 274.115,235.506 275.907,233.06Z" style="fill:white;"/>
                <path d="M276.517,214.131C277.929,214.131 280.752,214.131 282.163,215.875C283.575,217.619 283.575,221.107 282.163,224.595C282.163,224.596 282.163,224.596 282.163,224.597C281.275,226.945 279.027,228.499 276.517,228.499C274.007,228.499 271.759,226.945 270.871,224.597C270.872,224.596 270.871,224.596 270.871,224.595C269.46,221.107 269.46,217.619 270.871,215.875C272.283,214.131 275.106,214.131 276.517,214.131Z" style="fill:white;"/>
                <path d="M276.517,146.677C282.706,146.677 295.083,146.677 301.272,154.324C307.461,161.971 307.461,177.265 301.272,192.559C301.272,192.559 301.272,192.56 301.271,192.561C297.382,202.858 287.524,209.672 276.517,209.672C265.51,209.672 255.652,202.858 251.763,192.561C251.763,192.56 251.762,192.559 251.762,192.559C245.573,177.265 245.573,161.971 251.762,154.324C257.951,146.677 270.328,146.677 276.517,146.677Z" style="fill:rgb(124,210,76);"/>
            </g>
        </g>
    </g>
</svg>
