<?xml version="1.0" encoding="UTF-8" standalone="no"?>
<!DOCTYPE svg PUBLIC "-//W3C//DTD SVG 1.1//EN" "http://www.w3.org/Graphics/SVG/1.1/DTD/svg11.dtd">
<svg width="100%" height="100%" viewBox="0 0 379 379" version="1.1" xmlns="http://www.w3.org/2000/svg" xmlns:xlink="http://www.w3.org/1999/xlink" xml:space="preserve" xmlns:serif="http://www.serif.com/" style="fill-rule:evenodd;clip-rule:evenodd;stroke-linejoin:round;stroke-miterlimit:0.73;">
    <g>
        <path d="M378.185,94.721L378.185,283.697C378.185,335.846 335.846,378.185 283.697,378.185L94.721,378.185C42.571,378.185 0.232,335.846 0.232,283.697L0.232,94.721C0.232,42.571 42.571,0.232 94.721,0.232L283.697,0.232C335.846,0.232 378.185,42.571 378.185,94.721Z" style="fill:white;stroke:white;stroke-width:0.46px;"/>
        <g>
            <path d="M189.208,52.033C214.472,52.033 264.998,52.033 290.261,79.468C315.525,106.903 315.525,161.774 290.261,216.644C272.577,257.797 227.103,298.95 189.208,326.385C151.314,298.95 105.84,257.797 88.156,216.644C62.893,161.774 62.893,106.903 88.156,79.468C113.419,52.033 163.945,52.033 189.208,52.033Z" style="fill:rgb(123,210,75);"/>
            <path d="M189.208,62.93C212.465,62.93 258.977,62.93 282.234,88.185C305.491,113.441 305.491,163.953 282.234,214.465C265.954,252.348 224.093,290.232 189.208,315.488C154.324,290.232 112.463,252.348 96.183,214.465C72.927,163.953 72.927,113.441 96.183,88.185C119.44,62.93 165.952,62.93 189.208,62.93Z" style="fill:white;"/>
            <path d="M189.209,74.994C209.785,74.994 250.938,74.994 271.515,97.837C292.092,120.68 292.092,166.366 271.515,212.052C257.111,246.316 220.073,280.58 189.209,303.423C158.344,280.58 121.306,246.316 106.902,212.052C86.326,166.366 86.326,120.68 106.902,97.837C127.479,74.994 168.632,74.994 189.209,74.994Z" style="fill:rgb(1,55,124);"/>
            <path d="M159.025,167.083L191.682,199.739C196.147,204.204 196.147,211.453 191.682,215.918C187.218,220.382 179.968,220.382 175.504,215.918L142.847,183.261C138.382,178.796 138.382,171.547 142.847,167.083C147.311,162.618 154.561,162.618 159.025,167.083Z" style="fill:white;"/>
            <path d="M255.162,153.155L192.399,215.918C187.934,220.382 180.685,220.382 176.221,215.918C171.756,211.453 171.756,204.204 176.221,199.739L238.984,136.976C243.448,132.512 250.697,132.512 255.162,136.976C259.627,141.441 259.627,148.69 255.162,153.155Z" style="fill:white;"/>
        </g>
    </g>
</svg>
