<?xml version="1.0" encoding="UTF-8" standalone="no"?>
<!DOCTYPE svg PUBLIC "-//W3C//DTD SVG 1.1//EN" "http://www.w3.org/Graphics/SVG/1.1/DTD/svg11.dtd">
<svg width="100%" height="100%" viewBox="0 0 494 494" version="1.1" xmlns="http://www.w3.org/2000/svg" xmlns:xlink="http://www.w3.org/1999/xlink" xml:space="preserve" xmlns:serif="http://www.serif.com/" style="fill-rule:evenodd;clip-rule:evenodd;stroke-linejoin:round;stroke-miterlimit:0.73;">
    <g>
        <g>
            <g style="filter:url(#_Effect1);">
                <path d="M435.953,152.488L435.953,341.465C435.953,393.614 393.614,435.953 341.465,435.953L152.488,435.953C100.339,435.953 58,393.614 58,341.465L58,152.488C58,100.339 100.339,58 152.488,58L341.465,58C393.614,58 435.953,100.339 435.953,152.488Z" style="fill:none;stroke:rgb(1,55,125);stroke-opacity:0.2;stroke-width:20px;"/>
            </g>
            <path d="M435.953,152.488L435.953,341.465C435.953,393.614 393.614,435.953 341.465,435.953L152.488,435.953C100.339,435.953 58,393.614 58,341.465L58,152.488C58,100.339 100.339,58 152.488,58L341.465,58C393.614,58 435.953,100.339 435.953,152.488Z" style="fill:white;stroke:white;stroke-width:0.46px;"/>
        </g>
        <g>
            <path d="M178.492,228.801L178.492,289.951C178.492,293.932 175.26,297.165 171.278,297.165L156.851,297.165C152.87,297.165 149.638,293.932 149.638,289.951L149.638,228.801C149.638,224.819 152.87,221.587 156.851,221.587L171.278,221.587C175.26,221.587 178.492,224.819 178.492,228.801Z" style="fill:rgb(1,54,124);"/>
            <path d="M233.766,228.801L233.766,289.951C233.766,293.932 230.534,297.165 226.553,297.165L212.126,297.165C208.144,297.165 204.912,293.932 204.912,289.951L204.912,228.801C204.912,224.819 208.144,221.587 212.126,221.587L226.553,221.587C230.534,221.587 233.766,224.819 233.766,228.801Z" style="fill:rgb(1,54,124);"/>
            <path d="M289.041,228.801L289.041,289.951C289.041,293.932 285.808,297.165 281.827,297.165L267.4,297.165C263.419,297.165 260.186,293.932 260.186,289.951L260.186,228.801C260.186,224.819 263.419,221.587 267.4,221.587L281.827,221.587C285.808,221.587 289.041,224.819 289.041,228.801Z" style="fill:rgb(1,54,124);"/>
            <path d="M344.315,228.801L344.315,289.951C344.315,293.932 341.083,297.165 337.101,297.165L322.674,297.165C318.693,297.165 315.461,293.932 315.461,289.951L315.461,228.801C315.461,224.819 318.693,221.587 322.674,221.587L337.101,221.587C341.083,221.587 344.315,224.819 344.315,228.801Z" style="fill:rgb(1,54,124);"/>
            <path d="M243.103,128.765C245.451,127.208 248.502,127.208 250.85,128.765C266.028,138.829 322.096,176.005 352.182,195.954C354.759,197.663 355.912,200.858 355.02,203.819C354.128,206.779 351.401,208.805 348.309,208.805L145.644,208.805C142.552,208.805 139.825,206.779 138.933,203.819C138.041,200.858 139.194,197.663 141.771,195.954C171.857,176.005 227.925,138.829 243.103,128.765Z" style="fill:rgb(1,54,124);"/>
            <path d="M350.592,313.874L350.592,325.672C350.592,328.928 347.949,331.571 344.693,331.571L149.26,331.571C146.004,331.571 143.361,328.928 143.361,325.672L143.361,313.874C143.361,310.618 146.004,307.975 149.26,307.975L344.693,307.975C347.949,307.975 350.592,310.618 350.592,313.874Z" style="fill:rgb(1,54,124);"/>
            <path d="M350.88,338.605L350.88,341.877C350.88,342.78 350.147,343.513 349.244,343.513L145.285,343.513C144.382,343.513 143.649,342.78 143.649,341.877L143.649,338.605C143.649,337.702 144.382,336.969 145.285,336.969L349.244,336.969C350.147,336.969 350.88,337.702 350.88,338.605Z" style="fill:rgb(126,211,79);"/>
            <circle cx="246.976" cy="174.424" r="21.5" style="fill:white;"/>
            <path d="M255.917,179.614C255.917,180.817 255.61,181.945 254.996,182.998C254.381,184.051 253.476,184.919 252.282,185.601C251.087,186.284 249.678,186.683 248.055,186.799L248.055,189.611L245.828,189.611L245.828,186.764C243.509,186.556 241.642,185.856 240.227,184.664C238.812,183.473 238.082,181.858 238.035,179.822L243.254,179.822C243.393,181.488 244.251,182.495 245.828,182.842L245.828,176.212C244.158,175.795 242.813,175.379 241.793,174.962C240.772,174.546 239.891,173.875 239.149,172.949C238.406,172.023 238.035,170.762 238.035,169.166C238.035,167.152 238.76,165.509 240.21,164.237C241.659,162.964 243.532,162.235 245.828,162.05L245.828,159.238L248.055,159.238L248.055,162.05C250.281,162.235 252.062,162.906 253.395,164.063C254.729,165.22 255.477,166.817 255.639,168.853L250.386,168.853C250.316,168.182 250.079,167.598 249.673,167.1C249.267,166.603 248.727,166.25 248.055,166.042L248.055,172.602C249.794,173.042 251.169,173.464 252.178,173.869C253.186,174.274 254.062,174.933 254.804,175.848C255.546,176.762 255.917,178.017 255.917,179.614ZM243.115,168.923C243.115,169.686 243.347,170.305 243.81,170.78C244.274,171.254 244.947,171.642 245.828,171.942L245.828,165.937C244.993,166.053 244.332,166.365 243.845,166.875C243.358,167.384 243.115,168.066 243.115,168.923ZM248.055,182.911C248.936,182.749 249.626,182.391 250.125,181.835C250.624,181.28 250.873,180.609 250.873,179.822C250.873,179.058 250.629,178.445 250.142,177.982C249.655,177.519 248.959,177.138 248.055,176.837L248.055,182.911Z" style="fill:rgb(126,211,79);fill-rule:nonzero;"/>
        </g>
    </g>
    <defs>
        <filter id="_Effect1" filterUnits="userSpaceOnUse" x="-48" y="-48" width="589.953" height="589.953">
            <feGaussianBlur in="SourceGraphic" stdDeviation="16"/>
        </filter>
    </defs>
</svg>
