<?xml version="1.0" encoding="UTF-8" standalone="no"?>
<!DOCTYPE svg PUBLIC "-//W3C//DTD SVG 1.1//EN" "http://www.w3.org/Graphics/SVG/1.1/DTD/svg11.dtd">
<svg width="100%" height="100%" viewBox="0 0 494 494" version="1.1" xmlns="http://www.w3.org/2000/svg" xmlns:xlink="http://www.w3.org/1999/xlink" xml:space="preserve" xmlns:serif="http://www.serif.com/" style="fill-rule:evenodd;clip-rule:evenodd;stroke-linejoin:round;stroke-miterlimit:0.73;">
    <g>
        <g>
            <g style="filter:url(#_Effect1);">
                <path d="M435.953,152.488L435.953,341.465C435.953,393.614 393.614,435.953 341.465,435.953L152.488,435.953C100.339,435.953 58,393.614 58,341.465L58,152.488C58,100.339 100.339,58 152.488,58L341.465,58C393.614,58 435.953,100.339 435.953,152.488Z" style="fill:none;stroke:rgb(1,55,125);stroke-opacity:0.2;stroke-width:20px;"/>
            </g>
            <path d="M435.953,152.488L435.953,341.465C435.953,393.614 393.614,435.953 341.465,435.953L152.488,435.953C100.339,435.953 58,393.614 58,341.465L58,152.488C58,100.339 100.339,58 152.488,58L341.465,58C393.614,58 435.953,100.339 435.953,152.488Z" style="fill:white;stroke:white;stroke-width:0.46px;"/>
        </g>
        <g>
            <g>
                <path d="M265.587,204.354L265.587,230.719C265.587,249.563 250.288,264.862 231.444,264.862L182.86,264.862L166.388,284.026L166.041,264.862L154.223,264.862C135.379,264.862 120.08,249.563 120.08,230.719L120.08,204.354C120.08,185.51 135.379,170.211 154.223,170.211L231.444,170.211C250.288,170.211 265.587,185.51 265.587,204.354Z" style="fill:rgb(1,54,124);"/>
                <path d="M231.757,199.046C231.757,202.064 229.307,204.513 226.29,204.513L159.377,204.513C156.36,204.513 153.91,202.064 153.91,199.046C153.91,196.029 156.36,193.579 159.377,193.579L226.29,193.579C229.307,193.579 231.757,196.029 231.757,199.046Z" style="fill:white;"/>
                <path d="M247.853,217.251C247.853,220.269 245.403,222.718 242.386,222.718L175.473,222.718C172.456,222.718 170.006,220.269 170.006,217.251C170.006,214.234 172.456,211.785 175.473,211.785L242.386,211.785C245.403,211.785 247.853,214.234 247.853,217.251Z" style="fill:white;"/>
                <path d="M226.247,235.457C226.247,238.474 223.797,240.924 220.78,240.924L153.867,240.924C150.85,240.924 148.401,238.474 148.401,235.457C148.401,232.439 150.85,229.99 153.867,229.99L220.78,229.99C223.797,229.99 226.247,232.439 226.247,235.457Z" style="fill:white;"/>
            </g>
            <g>
                <path d="M204.024,150.949L204.024,173.258C204.024,189.204 216.97,202.149 232.915,202.149L274.027,202.149L287.965,218.365L288.258,202.149L298.258,202.149C314.204,202.149 327.149,189.204 327.149,173.258L327.149,150.949C327.149,135.003 314.204,122.057 298.258,122.057L232.915,122.057C216.97,122.057 204.024,135.003 204.024,150.949Z" style="fill:rgb(124,210,76);"/>
                <path d="M232.651,146.457C232.651,149.01 234.724,151.083 237.277,151.083L293.897,151.083C296.45,151.083 298.523,149.01 298.523,146.457C298.523,143.904 296.45,141.831 293.897,141.831L237.277,141.831C234.724,141.831 232.651,143.904 232.651,146.457Z" style="fill:white;"/>
                <path d="M219.031,161.862C219.031,164.415 221.103,166.488 223.657,166.488L280.277,166.488C282.83,166.488 284.903,164.415 284.903,161.862C284.903,159.309 282.83,157.236 280.277,157.236L223.657,157.236C221.103,157.236 219.031,159.309 219.031,161.862Z" style="fill:white;"/>
                <path d="M237.313,177.267C237.313,179.82 239.386,181.893 241.939,181.893L298.559,181.893C301.112,181.893 303.185,179.82 303.185,177.267C303.185,174.714 301.112,172.641 298.559,172.641L241.939,172.641C239.386,172.641 237.313,174.714 237.313,177.267Z" style="fill:white;"/>
            </g>
            <g>
                <path d="M315.099,246.734L317.165,256.777C321.163,257.388 325.081,258.436 328.85,259.903L335.667,252.237C339.482,253.97 343.12,256.067 346.53,258.5L343.291,268.228C346.447,270.753 349.316,273.618 351.844,276.77L361.587,273.535C364.024,276.94 366.124,280.572 367.859,284.382L360.182,291.189C361.651,294.952 362.701,298.865 363.313,302.857L373.37,304.92C373.775,309.085 373.775,313.28 373.37,317.445L363.313,319.508C362.701,323.5 361.651,327.412 360.182,331.175L367.859,337.983C366.124,341.792 364.024,345.425 361.587,348.83L351.844,345.595C349.316,348.747 346.447,351.611 343.291,354.136L346.53,363.865C343.12,366.298 339.482,368.395 335.667,370.127L328.85,362.461C325.081,363.929 321.163,364.977 317.165,365.588L315.099,375.63C310.928,376.035 306.727,376.035 302.556,375.63L300.49,365.588C296.492,364.977 292.573,363.929 288.805,362.461L281.987,370.127C278.172,368.395 274.534,366.298 271.125,363.865L274.364,354.136C271.208,351.611 268.339,348.747 265.81,345.595L256.068,348.83C253.631,345.425 251.531,341.792 249.796,337.983L257.473,331.175C256.004,327.412 254.954,323.5 254.342,319.508L244.285,317.445C243.879,313.28 243.879,309.085 244.285,304.92L254.342,302.857C254.954,298.865 256.004,294.952 257.473,291.189L249.796,284.382C251.531,280.572 253.631,276.94 256.068,273.535L265.81,276.77C268.339,273.618 271.208,270.753 274.364,268.228L271.125,258.5C274.534,256.067 278.172,253.97 281.987,252.237L288.805,259.903C292.573,258.436 296.492,257.388 300.49,256.777L302.556,246.734C306.727,246.33 310.928,246.33 315.099,246.734ZM308.827,275.665C328.459,275.665 344.397,291.58 344.397,311.182C344.397,330.785 328.459,346.7 308.827,346.7C289.196,346.7 273.257,330.785 273.257,311.182C273.257,291.58 289.196,275.665 308.827,275.665Z" style="fill:rgb(1,55,125);"/>
            </g>
            <g>
                <g>
                    <path d="M308.535,298.781C312.454,298.781 320.291,298.781 324.21,303.623C328.129,308.465 328.129,318.149 324.21,327.833C324.21,327.835 324.209,327.836 324.209,327.837C321.746,334.356 315.504,338.67 308.535,338.67C301.566,338.67 295.324,334.356 292.861,327.837C292.861,327.836 292.861,327.835 292.86,327.833C288.941,318.149 288.941,308.465 292.86,303.623C296.779,298.781 304.616,298.781 308.535,298.781Z" style="fill:rgb(1,55,125);"/>
                    <path d="M307.925,315.224C308.068,315.03 308.294,314.915 308.535,314.915C308.776,314.915 309.003,315.03 309.145,315.224C309.864,316.205 311.02,317.783 311.49,318.424C311.621,318.604 311.667,318.833 311.614,319.05C311.287,320.39 310.072,325.365 309.27,328.65C309.187,328.988 308.884,329.226 308.535,329.226C308.187,329.226 307.884,328.988 307.801,328.65C306.999,325.365 305.783,320.39 305.456,319.05C305.403,318.833 305.449,318.604 305.581,318.424C306.05,317.783 307.207,316.205 307.925,315.224Z" style="fill:white;"/>
                    <path d="M308.535,307.969C309.036,307.969 310.038,307.969 310.539,308.588C311.04,309.207 311.04,310.445 310.539,311.683C310.539,311.683 310.539,311.684 310.539,311.684C310.224,312.518 309.426,313.069 308.535,313.069C307.644,313.069 306.846,312.518 306.531,311.684C306.531,311.684 306.531,311.683 306.531,311.683C306.03,310.445 306.03,309.207 306.531,308.588C307.032,307.969 308.034,307.969 308.535,307.969Z" style="fill:white;"/>
                    <path d="M308.535,284.026C310.732,284.026 315.125,284.026 317.322,286.74C319.519,289.455 319.519,294.883 317.322,300.312C317.321,300.313 317.321,300.314 317.321,300.315C315.94,303.969 312.441,306.387 308.535,306.387C304.629,306.387 301.131,303.969 299.75,300.315C299.749,300.314 299.749,300.313 299.748,300.312C297.552,294.883 297.552,289.455 299.748,286.74C301.945,284.026 306.338,284.026 308.535,284.026Z" style="fill:rgb(124,210,76);"/>
                </g>
            </g>
        </g>
    </g>
    <defs>
        <filter id="_Effect1" filterUnits="userSpaceOnUse" x="-48" y="-48" width="589.953" height="589.953">
            <feGaussianBlur in="SourceGraphic" stdDeviation="16"/>
        </filter>
    </defs>
</svg>
