<?xml version="1.0" encoding="UTF-8" standalone="no"?>
<!DOCTYPE svg PUBLIC "-//W3C//DTD SVG 1.1//EN" "http://www.w3.org/Graphics/SVG/1.1/DTD/svg11.dtd">
<svg width="100%" height="100%" viewBox="0 0 379 379" version="1.1" xmlns="http://www.w3.org/2000/svg" xmlns:xlink="http://www.w3.org/1999/xlink" xml:space="preserve" xmlns:serif="http://www.serif.com/" style="fill-rule:evenodd;clip-rule:evenodd;stroke-linejoin:round;stroke-miterlimit:0.73;">
    <g>
        <g>
            <path d="M378.185,94.721L378.185,283.697C378.185,335.846 335.846,378.185 283.697,378.185L94.721,378.185C42.571,378.185 0.232,335.846 0.232,283.697L0.232,94.721C0.232,42.571 42.571,0.232 94.721,0.232L283.697,0.232C335.846,0.232 378.185,42.571 378.185,94.721Z" style="fill:white;stroke:white;stroke-width:0.46px;"/>
        </g>
        <g>
            <path d="M195.805,219.025L197.691,228.21C201.342,228.768 204.921,229.727 208.362,231.069L214.588,224.058C218.072,225.642 221.395,227.56 224.509,229.786L221.55,238.683C224.433,240.992 227.052,243.612 229.362,246.495L238.259,243.536C240.484,246.65 242.402,249.972 243.987,253.456L236.976,259.682C238.317,263.124 239.276,266.702 239.835,270.353L249.02,272.24C249.39,276.049 249.39,279.886 249.02,283.695L239.835,285.581C239.276,289.233 238.317,292.811 236.976,296.252L243.987,302.479C242.402,305.963 240.484,309.285 238.259,312.399L229.362,309.44C227.052,312.323 224.433,314.943 221.55,317.252L224.509,326.149C221.395,328.375 218.072,330.293 214.588,331.877L208.362,324.866C204.921,326.208 201.342,327.167 197.691,327.725L195.805,336.91C191.995,337.28 188.159,337.28 184.35,336.91L182.463,327.725C178.812,327.167 175.234,326.208 171.792,324.866L165.566,331.877C162.082,330.293 158.76,328.375 155.646,326.149L158.604,317.252C155.722,314.943 153.102,312.323 150.793,309.44L141.895,312.399C139.67,309.285 137.752,305.963 136.168,302.479L143.179,296.252C141.837,292.811 140.878,289.233 140.319,285.581L131.135,283.695C130.765,279.886 130.765,276.049 131.135,272.24L140.319,270.353C140.878,266.702 141.837,263.124 143.179,259.682L136.168,253.456C137.752,249.972 139.67,246.65 141.895,243.536L150.793,246.495C153.102,243.612 155.722,240.992 158.604,238.683L155.646,229.786C158.76,227.56 162.082,225.642 165.566,224.058L171.792,231.069C175.234,229.727 178.812,228.768 182.463,228.21L184.35,219.025C188.159,218.655 191.995,218.655 195.805,219.025ZM190.077,245.63C207.925,245.63 222.415,260.12 222.415,277.967C222.415,295.815 207.925,310.305 190.077,310.305C172.23,310.305 157.74,295.815 157.74,277.967C157.74,260.12 172.23,245.63 190.077,245.63Z" style="fill:rgb(1,55,124);"/>
            <path d="M108.177,150.829L110.064,160.014C113.715,160.572 117.293,161.531 120.735,162.873L126.961,155.862C130.445,157.446 133.767,159.364 136.881,161.589L133.922,170.487C136.805,172.796 139.425,175.416 141.734,178.299L150.632,175.34C152.857,178.454 154.775,181.776 156.359,185.26L149.348,191.486C150.69,194.928 151.649,198.506 152.207,202.157L161.392,204.044C161.762,207.853 161.762,211.689 161.392,215.499L152.207,217.385C151.649,221.036 150.69,224.615 149.348,228.056L156.359,234.282C154.775,237.766 152.857,241.089 150.632,244.203L141.734,241.244C139.425,244.127 136.805,246.746 133.922,249.056L136.881,257.953C133.767,260.178 130.445,262.097 126.961,263.681L120.735,256.67C117.293,258.012 113.715,258.97 110.064,259.529L108.177,268.714C104.368,269.084 100.532,269.084 96.722,268.714L94.836,259.529C91.184,258.97 87.606,258.012 84.165,256.67L77.939,263.681C74.454,262.097 71.132,260.178 68.018,257.953L70.977,249.056C68.094,246.746 65.475,244.127 63.165,241.244L54.268,244.203C52.043,241.089 50.124,237.766 48.54,234.282L55.551,228.056C54.209,224.615 53.251,221.036 52.692,217.385L43.507,215.499C43.137,211.689 43.137,207.853 43.507,204.044L52.692,202.157C53.251,198.506 54.209,194.928 55.551,191.486L48.54,185.26C50.124,181.776 52.043,178.454 54.268,175.34L63.165,178.299C65.475,175.416 68.094,172.796 70.977,170.487L68.018,161.589C71.132,159.364 74.454,157.446 77.939,155.862L84.165,162.873C87.606,161.531 91.184,160.572 94.836,160.014L96.722,150.829C100.532,150.459 104.368,150.459 108.177,150.829ZM102.45,177.434C120.297,177.434 134.787,191.924 134.787,209.771C134.787,227.619 120.297,242.109 102.45,242.109C84.602,242.109 70.112,227.619 70.112,209.771C70.112,191.924 84.602,177.434 102.45,177.434Z" style="fill:rgb(1,55,124);"/>
            <path d="M283.858,151.065L285.745,160.25C289.396,160.808 292.975,161.767 296.416,163.109L302.642,156.098C306.126,157.682 309.448,159.6 312.562,161.826L309.604,170.723C312.486,173.032 315.106,175.652 317.415,178.535L326.313,175.576C328.538,178.69 330.456,182.012 332.04,185.496L325.029,191.723C326.371,195.164 327.33,198.742 327.889,202.394L337.073,204.28C337.443,208.089 337.443,211.926 337.073,215.735L327.889,217.622C327.33,221.273 326.371,224.851 325.029,228.293L332.04,234.519C330.456,238.003 328.538,241.325 326.313,244.439L317.415,241.48C315.106,244.363 312.486,246.983 309.604,249.292L312.562,258.189C309.448,260.415 306.126,262.333 302.642,263.917L296.416,256.906C292.975,258.248 289.396,259.207 285.745,259.765L283.858,268.95C280.049,269.32 276.213,269.32 272.403,268.95L270.517,259.765C266.866,259.207 263.287,258.248 259.846,256.906L253.62,263.917C250.136,262.333 246.814,260.415 243.7,258.189L246.658,249.292C243.775,246.983 241.156,244.363 238.846,241.48L229.949,244.439C227.724,241.325 225.806,238.003 224.222,234.519L231.232,228.293C229.891,224.851 228.932,221.273 228.373,217.622L219.189,215.735C218.818,211.926 218.818,208.089 219.189,204.28L228.373,202.394C228.932,198.742 229.891,195.164 231.232,191.723L224.222,185.496C225.806,182.012 227.724,178.69 229.949,175.576L238.846,178.535C241.156,175.652 243.775,173.032 246.658,170.723L243.7,161.826C246.814,159.6 250.136,157.682 253.62,156.098L259.846,163.109C263.287,161.767 266.866,160.808 270.517,160.25L272.403,151.065C276.213,150.695 280.049,150.695 283.858,151.065ZM278.131,177.67C295.978,177.67 310.468,192.16 310.468,210.008C310.468,227.855 295.978,242.345 278.131,242.345C260.283,242.345 245.794,227.855 245.794,210.008C245.794,192.16 260.283,177.67 278.131,177.67Z" style="fill:rgb(1,55,124);"/>
            <circle cx="191.409" cy="136.013" r="50.938" style="fill:rgb(1,55,124);"/>
            <path d="M284.124,200.83L284.124,203.549L287.738,203.549L287.738,206.841L283.91,206.841C283.528,209.107 282.592,210.753 281.101,211.779C279.61,212.804 277.362,213.317 274.356,213.317L274.356,215.214C274.356,216.335 274.589,217.217 275.054,217.861C275.519,218.506 276.312,218.828 277.433,218.828C278.507,218.828 279.282,218.523 279.759,217.915C280.236,217.307 280.475,216.418 280.475,215.249L285.126,215.249C285.078,217.659 284.399,219.501 283.087,220.778C281.775,222.054 279.902,222.692 277.469,222.692C274.94,222.692 273.008,222.012 271.672,220.652C270.337,219.293 269.669,217.313 269.669,214.713L269.669,209.954C272.221,209.954 274.106,209.888 275.322,209.757C276.539,209.626 277.445,209.346 278.041,208.916C278.638,208.487 279.031,207.795 279.222,206.841L268.524,206.841L268.524,203.549L279.401,203.549L279.401,200.83L268.524,200.83L268.524,197.323L287.738,197.323L287.738,200.83L284.124,200.83Z" style="fill:rgb(123,210,75);fill-rule:nonzero;"/>
            <path d="M199.613,287.127L199.613,291.135L182.259,291.135L181.472,288.559C182.545,287.509 183.333,286.442 183.833,285.356C184.334,284.271 184.585,282.917 184.585,281.295C184.585,281.128 184.561,280.854 184.513,280.472L180.542,280.472L180.542,277.037L183.511,277.037C183.034,275.415 182.796,273.948 182.796,272.636C182.796,271.014 183.148,269.613 183.851,268.432C184.555,267.251 185.539,266.351 186.803,265.73C188.068,265.11 189.523,264.8 191.169,264.8C193.816,264.8 195.838,265.534 197.233,267.001C198.629,268.468 199.362,270.346 199.434,272.636L194.818,272.636C194.794,271.491 194.496,270.591 193.924,269.935C193.351,269.279 192.457,268.951 191.24,268.951C190.119,268.951 189.23,269.285 188.574,269.953C187.918,270.62 187.59,271.646 187.59,273.03C187.59,273.65 187.656,274.264 187.787,274.872C187.918,275.481 188.115,276.202 188.378,277.037L195.104,277.037L195.104,280.472L189.272,280.472C189.32,280.854 189.344,281.14 189.344,281.331C189.344,282.357 189.147,283.376 188.753,284.39C188.36,285.404 187.757,286.316 186.946,287.127L199.613,287.127Z" style="fill:rgb(123,210,75);fill-rule:nonzero;"/>
            <path d="M104.096,217.969C105.455,217.969 106.648,217.671 107.674,217.074C108.699,216.478 109.51,215.607 110.107,214.462L115.832,214.462C114.997,217.015 113.536,219.001 111.449,220.42C109.361,221.839 106.922,222.549 104.131,222.549C101.269,222.549 98.758,221.779 96.599,220.241C94.441,218.702 92.944,216.645 92.109,214.069L89.068,214.069L89.068,211.099L91.536,211.099C91.489,210.526 91.465,210.097 91.465,209.811C91.465,209.477 91.489,209.024 91.536,208.451L89.068,208.451L89.068,205.481L92.145,205.481C92.98,202.905 94.476,200.854 96.635,199.327C98.794,197.8 101.293,197.037 104.131,197.037C106.922,197.037 109.361,197.753 111.449,199.184C113.536,200.615 114.997,202.595 115.832,205.123L110.107,205.123C109.51,203.978 108.699,203.114 107.674,202.529C106.648,201.945 105.455,201.653 104.096,201.653C102.64,201.653 101.346,201.987 100.213,202.655C99.08,203.322 98.204,204.265 97.583,205.481L104.453,205.481L104.453,208.451L96.689,208.451C96.641,209.024 96.617,209.477 96.617,209.811C96.617,210.097 96.641,210.526 96.689,211.099L104.453,211.099L104.453,214.069L97.548,214.069C98.168,215.285 99.05,216.239 100.195,216.931C101.34,217.623 102.64,217.969 104.096,217.969Z" style="fill:rgb(123,210,75);fill-rule:nonzero;"/>
            <path d="M206.255,144.649C206.255,146.652 205.744,148.529 204.724,150.281C203.703,152.034 202.201,153.478 200.218,154.614C198.235,155.75 195.895,156.414 193.199,156.607L193.199,161.286L189.502,161.286L189.502,156.549C185.651,156.202 182.551,155.037 180.202,153.054C177.853,151.071 176.639,148.385 176.562,144.996L185.227,144.996C185.459,147.768 186.883,149.444 189.502,150.021L189.502,138.988C186.729,138.295 184.496,137.601 182.801,136.908C181.107,136.215 179.643,135.098 178.411,133.558C177.179,132.017 176.562,129.918 176.562,127.261C176.562,123.911 177.766,121.176 180.173,119.058C182.58,116.94 185.69,115.727 189.502,115.419L189.502,110.74L193.199,110.74L193.199,115.419C196.896,115.727 199.852,116.844 202.067,118.769C204.281,120.695 205.523,123.352 205.793,126.741L197.07,126.741C196.954,125.624 196.559,124.652 195.885,123.824C195.212,122.996 194.316,122.409 193.199,122.062L193.199,132.98C196.088,133.712 198.369,134.415 200.045,135.089C201.72,135.762 203.174,136.86 204.406,138.381C205.638,139.902 206.255,141.992 206.255,144.649ZM184.996,126.857C184.996,128.128 185.382,129.158 186.152,129.947C186.922,130.737 188.039,131.382 189.502,131.882L189.502,121.889C188.116,122.081 187.018,122.601 186.21,123.449C185.401,124.296 184.996,125.432 184.996,126.857ZM193.199,150.137C194.663,149.867 195.808,149.27 196.636,148.346C197.464,147.422 197.878,146.305 197.878,144.996C197.878,143.725 197.474,142.704 196.665,141.934C195.857,141.164 194.701,140.528 193.199,140.028L193.199,150.137Z" style="fill:rgb(123,210,75);fill-rule:nonzero;stroke:rgb(1,55,125);stroke-width:0.32px;stroke-miterlimit:2;"/>
            <path d="M288.381,141.541L273.868,140.74C273.957,139.219 274.001,137.697 274.001,136.174C274.001,91.651 236.876,55.504 191.149,55.504C145.422,55.504 108.297,91.651 108.297,136.174C108.297,137.697 108.342,139.219 108.43,140.74L93.917,141.541C93.813,139.754 93.761,137.964 93.761,136.174C93.761,83.839 137.399,41.35 191.149,41.35C244.899,41.35 288.537,83.839 288.537,136.174C288.537,137.964 288.485,139.754 288.381,141.541Z" style="fill:rgb(1,55,124);"/>
        </g>
    </g>
</svg>
