<?xml version="1.0" encoding="UTF-8" standalone="no"?>
<!DOCTYPE svg PUBLIC "-//W3C//DTD SVG 1.1//EN" "http://www.w3.org/Graphics/SVG/1.1/DTD/svg11.dtd">
<svg width="100%" height="100%" viewBox="0 0 494 494" version="1.1" xmlns="http://www.w3.org/2000/svg" xmlns:xlink="http://www.w3.org/1999/xlink" xml:space="preserve" xmlns:serif="http://www.serif.com/" style="fill-rule:evenodd;clip-rule:evenodd;stroke-linejoin:round;stroke-miterlimit:0.73;">
    <g>
        <g>
            <g style="filter:url(#_Effect1);">
                <path d="M435.953,152.488L435.953,341.465C435.953,393.614 393.614,435.953 341.465,435.953L152.488,435.953C100.339,435.953 58,393.614 58,341.465L58,152.488C58,100.339 100.339,58 152.488,58L341.465,58C393.614,58 435.953,100.339 435.953,152.488Z" style="fill:none;stroke:rgb(1,55,125);stroke-opacity:0.2;stroke-width:20px;"/>
            </g>
            <path d="M435.953,152.488L435.953,341.465C435.953,393.614 393.614,435.953 341.465,435.953L152.488,435.953C100.339,435.953 58,393.614 58,341.465L58,152.488C58,100.339 100.339,58 152.488,58L341.465,58C393.614,58 435.953,100.339 435.953,152.488Z" style="fill:white;stroke:white;stroke-width:0.46px;"/>
        </g>
        <g>
            <path d="M241.375,146.138C239.954,146.211 238.741,145.116 238.668,143.694C238.596,142.273 239.691,141.06 241.112,140.987C242.933,140.894 244.767,140.847 246.612,140.847C248.456,140.847 250.29,140.894 252.111,140.987C253.533,141.06 254.627,142.273 254.555,143.694C254.482,145.116 253.269,146.211 251.848,146.138C250.113,146.049 248.368,146.004 246.612,146.004C244.855,146.004 243.11,146.049 241.375,146.138ZM259.999,146.885C258.588,146.698 257.595,145.401 257.782,143.99C257.969,142.579 259.267,141.585 260.678,141.773C264.346,142.259 267.955,142.934 271.496,143.786C272.88,144.119 273.733,145.513 273.4,146.896C273.067,148.28 271.673,149.133 270.289,148.8C266.922,147.99 263.488,147.348 259.999,146.885ZM278.161,151.039C276.809,150.594 276.073,149.135 276.517,147.783C276.962,146.431 278.421,145.695 279.773,146.14C283.277,147.293 286.7,148.623 290.032,150.121C291.33,150.704 291.911,152.232 291.327,153.53C290.744,154.828 289.216,155.408 287.918,154.825C284.749,153.401 281.493,152.135 278.161,151.039ZM295.241,158.481C293.994,157.794 293.54,156.224 294.227,154.978C294.914,153.731 296.484,153.277 297.73,153.964C300.952,155.74 304.071,157.678 307.078,159.767C308.247,160.579 308.536,162.188 307.724,163.356C306.912,164.525 305.303,164.815 304.135,164.002C301.274,162.014 298.306,160.17 295.241,158.481ZM310.663,168.942C309.564,168.038 309.405,166.412 310.309,165.312C311.212,164.213 312.839,164.054 313.938,164.957C316.774,167.288 319.487,169.763 322.065,172.371C323.066,173.383 323.057,175.017 322.045,176.018C321.033,177.019 319.399,177.01 318.398,175.998C315.944,173.516 313.362,171.16 310.663,168.942ZM323.916,182.046C323,180.957 323.14,179.329 324.229,178.413C325.319,177.497 326.947,177.637 327.863,178.727C330.222,181.531 332.438,184.459 334.5,187.5C335.299,188.678 334.992,190.283 333.814,191.082C332.636,191.881 331.031,191.573 330.232,190.395C328.269,187.502 326.16,184.715 323.916,182.046ZM334.55,197.35C333.849,196.111 334.285,194.536 335.524,193.835C336.762,193.134 338.337,193.571 339.038,194.809C340.84,197.992 342.482,201.278 343.953,204.654C344.522,205.959 343.924,207.48 342.62,208.048C341.315,208.617 339.794,208.019 339.225,206.714C337.826,203.503 336.264,200.378 334.55,197.35ZM342.186,214.344C341.726,212.997 342.445,211.53 343.792,211.07C345.139,210.609 346.606,211.329 347.066,212.676C348.246,216.128 349.253,219.66 350.076,223.261C350.394,224.648 349.525,226.032 348.137,226.35C346.75,226.667 345.366,225.798 345.049,224.41C344.265,220.986 343.308,217.627 342.186,214.344ZM346.546,232.457C346.343,231.048 347.321,229.739 348.73,229.536C350.139,229.333 351.447,230.312 351.65,231.72C352.169,235.317 352.507,238.972 352.655,242.676C352.712,244.098 351.604,245.299 350.182,245.356C348.76,245.412 347.559,244.304 347.502,242.882C347.361,239.358 347.039,235.879 346.546,232.457ZM347.502,251.071C347.559,249.649 348.76,248.54 350.182,248.597C351.604,248.654 352.712,249.855 352.655,251.277C352.507,254.98 352.169,258.635 351.65,262.232C351.447,263.641 350.139,264.62 348.73,264.417C347.321,264.213 346.343,262.905 346.546,261.496C347.039,258.073 347.361,254.595 347.502,251.071ZM345.049,269.542C345.366,268.155 346.75,267.286 348.137,267.603C349.525,267.92 350.394,269.304 350.076,270.692C349.253,274.293 348.246,277.825 347.066,281.277C346.606,282.623 345.139,283.343 343.792,282.883C342.445,282.423 341.726,280.955 342.186,279.609C343.308,276.326 344.266,272.967 345.049,269.542ZM339.225,287.238C339.794,285.934 341.315,285.336 342.62,285.905C343.924,286.473 344.522,287.994 343.953,289.299C342.482,292.675 340.84,295.96 339.038,299.143C338.337,300.382 336.762,300.818 335.524,300.117C334.285,299.416 333.849,297.842 334.55,296.603C336.264,293.575 337.826,290.45 339.225,287.238ZM330.232,303.558C331.031,302.38 332.636,302.072 333.814,302.871C334.992,303.67 335.299,305.275 334.5,306.453C332.438,309.494 330.221,312.422 327.863,315.226C326.947,316.315 325.319,316.456 324.229,315.54C323.14,314.624 323,312.996 323.916,311.907C326.16,309.238 328.269,306.451 330.232,303.558ZM318.398,317.955C319.399,316.943 321.033,316.934 322.045,317.934C323.057,318.935 323.066,320.569 322.066,321.581C319.487,324.189 316.774,326.664 313.938,328.995C312.839,329.899 311.212,329.74 310.309,328.641C309.405,327.541 309.564,325.915 310.663,325.011C313.362,322.793 315.944,320.437 318.398,317.955ZM304.135,329.95C305.303,329.138 306.912,329.428 307.724,330.596C308.536,331.765 308.247,333.373 307.078,334.186C304.071,336.275 300.952,338.213 297.73,339.989C296.484,340.676 294.914,340.221 294.227,338.975C293.54,337.728 293.994,336.159 295.241,335.472C298.306,333.782 301.274,331.938 304.135,329.95ZM287.918,339.128C289.216,338.544 290.744,339.125 291.327,340.423C291.911,341.721 291.33,343.249 290.032,343.832C286.7,345.33 283.277,346.66 279.773,347.813C278.421,348.258 276.962,347.522 276.518,346.17C276.073,344.818 276.809,343.359 278.161,342.914C281.493,341.818 284.749,340.552 287.918,339.128ZM270.289,345.153C271.673,344.819 273.067,345.673 273.4,347.056C273.733,348.44 272.88,349.834 271.496,350.167C267.956,351.019 264.346,351.693 260.678,352.18C259.267,352.367 257.969,351.374 257.782,349.963C257.595,348.552 258.589,347.255 259.999,347.067C263.489,346.604 266.922,345.963 270.289,345.153ZM251.848,347.815C253.269,347.742 254.482,348.837 254.555,350.258C254.627,351.68 253.533,352.893 252.111,352.966C250.29,353.059 248.456,353.106 246.612,353.106C244.767,353.106 242.934,353.059 241.112,352.966C239.691,352.893 238.596,351.68 238.669,350.259C238.741,348.837 239.954,347.742 241.376,347.815C243.11,347.904 244.856,347.949 246.612,347.949C248.368,347.949 250.113,347.904 251.848,347.815ZM233.224,347.067C234.635,347.255 235.628,348.552 235.441,349.963C235.254,351.374 233.956,352.367 232.545,352.18C228.877,351.693 225.268,351.019 221.727,350.167C220.343,349.834 219.49,348.44 219.823,347.056C220.156,345.673 221.55,344.82 222.934,345.153C226.301,345.963 229.735,346.604 233.224,347.067ZM215.062,342.914C216.414,343.359 217.15,344.818 216.706,346.17C216.261,347.522 214.802,348.258 213.45,347.813C209.946,346.66 206.523,345.33 203.191,343.832C201.893,343.249 201.312,341.721 201.896,340.423C202.479,339.125 204.007,338.544 205.305,339.128C208.474,340.552 211.73,341.818 215.062,342.914ZM197.982,335.472C199.229,336.159 199.683,337.728 198.996,338.975C198.309,340.221 196.739,340.676 195.493,339.989C192.271,338.213 189.152,336.275 186.145,334.186C184.976,333.373 184.687,331.765 185.499,330.596C186.311,329.428 187.92,329.138 189.088,329.95C191.949,331.938 194.917,333.782 197.982,335.472ZM182.56,325.011C183.659,325.915 183.818,327.541 182.915,328.641C182.011,329.74 180.384,329.899 179.285,328.995C176.449,326.664 173.736,324.189 171.158,321.581C170.157,320.569 170.166,318.935 171.178,317.935C172.19,316.934 173.824,316.943 174.825,317.955C177.279,320.437 179.861,322.793 182.56,325.011ZM169.307,311.906C170.223,312.996 170.083,314.624 168.994,315.54C167.904,316.456 166.276,316.315 165.36,315.226C163.001,312.422 160.785,309.493 158.723,306.453C157.924,305.275 158.231,303.67 159.409,302.871C160.587,302.072 162.192,302.38 162.991,303.557C164.954,306.451 167.063,309.238 169.307,311.906ZM158.673,296.603C159.374,297.842 158.938,299.416 157.699,300.117C156.461,300.818 154.886,300.382 154.185,299.143C152.383,295.96 150.741,292.675 149.27,289.299C148.701,287.994 149.299,286.473 150.603,285.905C151.908,285.336 153.429,285.934 153.998,287.238C155.397,290.45 156.959,293.575 158.673,296.603ZM151.037,279.609C151.497,280.956 150.778,282.423 149.431,282.883C148.084,283.343 146.617,282.624 146.157,281.277C144.977,277.825 143.97,274.293 143.147,270.692C142.83,269.304 143.698,267.92 145.086,267.603C146.473,267.286 147.857,268.155 148.175,269.542C148.958,272.967 149.915,276.326 151.037,279.609ZM146.677,261.496C146.88,262.905 145.902,264.213 144.493,264.417C143.084,264.62 141.776,263.641 141.573,262.232C141.054,258.635 140.716,254.98 140.568,251.277C140.511,249.855 141.619,248.654 143.041,248.597C144.463,248.54 145.664,249.649 145.721,251.071C145.862,254.595 146.184,258.073 146.677,261.496ZM145.721,242.882C145.664,244.304 144.463,245.412 143.041,245.356C141.619,245.299 140.511,244.098 140.568,242.676C140.716,238.972 141.054,235.317 141.573,231.72C141.776,230.312 143.084,229.333 144.493,229.536C145.902,229.739 146.88,231.048 146.677,232.457C146.184,235.879 145.862,239.358 145.721,242.882ZM148.174,224.411C147.857,225.798 146.473,226.667 145.086,226.35C143.698,226.033 142.829,224.649 143.147,223.261C143.97,219.66 144.977,216.128 146.157,212.676C146.617,211.329 148.084,210.61 149.431,211.07C150.778,211.53 151.497,212.997 151.037,214.344C149.915,217.627 148.958,220.986 148.174,224.411ZM153.998,206.714C153.429,208.019 151.908,208.617 150.603,208.048C149.299,207.48 148.701,205.959 149.27,204.654C150.741,201.278 152.383,197.992 154.185,194.809C154.886,193.571 156.461,193.134 157.699,193.835C158.938,194.536 159.374,196.111 158.673,197.35C156.959,200.378 155.397,203.503 153.998,206.714ZM162.991,190.395C162.192,191.573 160.587,191.881 159.409,191.082C158.231,190.283 157.924,188.678 158.723,187.5C160.785,184.459 163.002,181.531 165.36,178.727C166.276,177.637 167.904,177.497 168.994,178.413C170.083,179.329 170.223,180.957 169.307,182.046C167.063,184.715 164.954,187.502 162.991,190.395ZM174.825,175.998C173.824,177.01 172.19,177.019 171.178,176.018C170.166,175.018 170.157,173.384 171.157,172.371C173.736,169.764 176.449,167.289 179.285,164.958C180.384,164.054 182.011,164.213 182.914,165.312C183.818,166.412 183.659,168.038 182.56,168.942C179.861,171.16 177.279,173.516 174.825,175.998ZM189.089,164.002C187.92,164.815 186.311,164.525 185.499,163.356C184.687,162.188 184.976,160.579 186.145,159.767C189.152,157.678 192.271,155.74 195.493,153.964C196.739,153.277 198.309,153.731 198.996,154.978C199.683,156.224 199.229,157.794 197.982,158.481C194.917,160.17 191.949,162.014 189.089,164.002ZM205.305,154.825C204.007,155.408 202.479,154.828 201.896,153.53C201.312,152.232 201.893,150.704 203.191,150.121C206.523,148.623 209.946,147.293 213.45,146.14C214.802,145.695 216.261,146.431 216.705,147.783C217.15,149.135 216.414,150.594 215.062,151.039C211.73,152.135 208.474,153.401 205.305,154.825ZM222.934,148.8C221.55,149.133 220.156,148.28 219.823,146.896C219.49,145.513 220.343,144.119 221.727,143.786C225.268,142.934 228.877,142.259 232.545,141.773C233.956,141.585 235.254,142.579 235.441,143.99C235.628,145.401 234.634,146.698 233.224,146.885C229.734,147.348 226.301,147.99 222.934,148.8Z" style="fill:rgb(126,211,79);"/>
            <circle cx="246.612" cy="143.425" r="37.749" style="fill:rgb(1,54,124);"/>
            <circle cx="143.061" cy="246.976" r="37.749" style="fill:rgb(1,54,124);"/>
            <rect x="140.105" y="254.857" width="6.212" height="4.97" style="fill:white;"/>
            <rect x="140.105" y="254.857" width="6.212" height="4.97" style="fill:white;"/>
            <rect x="140.105" y="254.857" width="6.212" height="4.97" style="fill:white;"/>
            <path d="M159.985,243.675L159.985,259.827L147.56,259.827L147.56,254.236C147.56,253.895 147.279,253.614 146.939,253.614L139.484,253.614C139.143,253.614 138.863,253.895 138.863,254.236L138.863,259.827L126.438,259.827L126.438,243.675L159.985,243.675Z" style="fill:white;fill-rule:nonzero;"/>
            <rect x="140.105" y="254.857" width="6.212" height="4.97" style="fill:white;"/>
            <path d="M159.985,243.675L159.985,259.827L147.56,259.827L147.56,254.236C147.56,253.895 147.279,253.614 146.939,253.614L139.484,253.614C139.143,253.614 138.863,253.895 138.863,254.236L138.863,259.827L126.438,259.827L126.438,243.675L159.985,243.675Z" style="fill:white;fill-rule:nonzero;"/>
            <path d="M137.558,242.432L132.712,242.432L133.831,231.25L136.44,231.25L137.558,242.432Z" style="fill:white;fill-rule:nonzero;"/>
            <path d="M137.558,242.432L132.712,242.432L133.831,231.25L136.44,231.25L137.558,242.432Z" style="fill:white;fill-rule:nonzero;"/>
            <path d="M136.378,246.16L136.378,249.887C136.378,250.23 136.099,250.508 135.756,250.508L132.029,250.508C131.686,250.508 131.408,250.23 131.408,249.887L131.408,246.16C131.408,245.817 131.686,245.538 132.029,245.538L135.756,245.538C136.099,245.538 136.378,245.817 136.378,246.16Z" style="fill:white;"/>
            <rect x="132.65" y="246.781" width="2.485" height="2.485" style="fill:white;"/>
            <path d="M145.696,246.16L145.696,249.887C145.696,250.23 145.418,250.508 145.075,250.508L141.348,250.508C141.005,250.508 140.726,250.23 140.726,249.887L140.726,246.16C140.726,245.817 141.005,245.538 141.348,245.538L145.075,245.538C145.418,245.538 145.696,245.817 145.696,246.16Z" style="fill:white;"/>
            <rect x="141.969" y="246.781" width="2.485" height="2.485" style="fill:white;"/>
            <path d="M155.015,246.16L155.015,249.887C155.015,250.23 154.736,250.508 154.393,250.508L150.666,250.508C150.323,250.508 150.045,250.23 150.045,249.887L150.045,246.16C150.045,245.817 150.323,245.538 150.666,245.538L154.393,245.538C154.736,245.538 155.015,245.817 155.015,246.16Z" style="fill:white;"/>
            <rect x="151.287" y="246.781" width="2.485" height="2.485" style="fill:white;"/>
            <path d="M159.413,242.432L152.53,242.432L152.53,232.598L159.413,242.432Z" style="fill:white;fill-rule:nonzero;"/>
            <path d="M159.413,242.432L152.53,242.432L152.53,232.598L159.413,242.432Z" style="fill:white;fill-rule:nonzero;"/>
            <path d="M150.716,242.432L143.832,242.432L143.832,232.598L150.716,242.432Z" style="fill:white;fill-rule:nonzero;"/>
            <path d="M150.716,242.432L143.832,242.432L143.832,232.598L150.716,242.432Z" style="fill:white;fill-rule:nonzero;"/>
            <circle cx="246.612" cy="350.527" r="37.749" style="fill:rgb(1,54,124);"/>
            <circle cx="350.892" cy="243.014" r="37.749" style="fill:rgb(1,54,124);"/>
            <g>
                <g>
                    <path d="M243.518,224.501C250.35,224.501 264.015,224.501 270.848,232.943C277.68,241.385 277.68,258.269 270.848,275.154C270.847,275.154 270.847,275.155 270.847,275.155C266.553,286.523 255.67,294.046 243.518,294.046C231.366,294.046 220.483,286.523 216.189,275.155C216.189,275.155 216.189,275.154 216.189,275.154C209.356,258.269 209.356,241.385 216.189,232.943C223.021,224.501 236.686,224.501 243.518,224.501Z" style="fill:rgb(1,55,125);"/>
                    <path d="M242.908,252.551C243.051,252.356 243.277,252.242 243.518,252.242C243.759,252.242 243.986,252.356 244.128,252.551C245.351,254.221 248.054,257.909 248.824,258.96C248.956,259.14 249.001,259.369 248.948,259.586C248.428,261.715 245.612,273.248 244.252,278.812C244.17,279.151 243.867,279.389 243.518,279.389C243.17,279.389 242.867,279.151 242.784,278.812C241.425,273.248 238.608,261.715 238.088,259.586C238.035,259.369 238.081,259.14 238.213,258.96C238.982,257.909 241.685,254.221 242.908,252.551Z" style="fill:white;"/>
                    <path d="M243.518,240.519C244.392,240.519 246.139,240.519 247.012,241.598C247.886,242.678 247.886,244.837 247.012,246.995C247.012,246.997 247.011,246.998 247.011,247C246.461,248.452 245.071,249.412 243.518,249.412C241.966,249.412 240.575,248.452 240.025,247C240.025,246.998 240.025,246.997 240.024,246.995C239.151,244.837 239.151,242.678 240.024,241.598C240.898,240.519 242.645,240.519 243.518,240.519Z" style="fill:white;"/>
                    <path d="M243.518,198.775C247.348,198.775 255.008,198.775 258.838,203.507C262.668,208.24 262.668,217.704 258.838,227.169C258.838,227.17 258.837,227.171 258.837,227.172C256.43,233.544 250.329,237.76 243.518,237.76C236.707,237.76 230.606,233.544 228.199,227.172C228.199,227.171 228.199,227.17 228.198,227.169C224.368,217.704 224.368,208.24 228.198,203.507C232.028,198.775 239.688,198.775 243.518,198.775Z" style="fill:rgb(124,210,76);"/>
                </g>
            </g>
            <g>
                <path d="M355.112,248.285L355.112,250.29C355.112,250.844 354.663,251.293 354.11,251.293L347.776,251.293C347.222,251.293 346.773,250.844 346.773,250.29L346.773,248.285C346.773,247.731 347.222,247.282 347.776,247.282L354.11,247.282C354.663,247.282 355.112,247.731 355.112,248.285Z" style="fill:white;"/>
                <path d="M364.855,248.285L364.855,250.29C364.855,250.844 364.405,251.293 363.852,251.293L357.518,251.293C356.965,251.293 356.515,250.844 356.515,250.29L356.515,248.285C356.515,247.731 356.965,247.282 357.518,247.282L363.852,247.282C364.405,247.282 364.855,247.731 364.855,248.285Z" style="fill:white;"/>
                <path d="M335.656,248.285L335.656,250.29C335.656,250.844 335.207,251.293 334.653,251.293L328.32,251.293C327.766,251.293 327.317,250.844 327.317,250.29L327.317,248.285C327.317,247.731 327.766,247.282 328.32,247.282L334.653,247.282C335.207,247.282 335.656,247.731 335.656,248.285Z" style="fill:white;"/>
                <path d="M359.711,243.155L359.711,245.16C359.711,245.714 359.262,246.163 358.709,246.163L352.375,246.163C351.821,246.163 351.372,245.714 351.372,245.16L351.372,243.155C351.372,242.601 351.821,242.152 352.375,242.152L358.709,242.152C359.262,242.152 359.711,242.601 359.711,243.155Z" style="fill:white;"/>
                <path d="M350.137,243.155L350.137,245.16C350.137,245.714 349.688,246.163 349.134,246.163L342.8,246.163C342.247,246.163 341.798,245.714 341.798,245.16L341.798,243.155C341.798,242.601 342.247,242.152 342.8,242.152L349.134,242.152C349.688,242.152 350.137,242.601 350.137,243.155Z" style="fill:white;"/>
                <path d="M369.02,243.155L369.02,245.16C369.02,245.714 368.571,246.163 368.017,246.163L361.684,246.163C361.13,246.163 360.681,245.714 360.681,245.16L360.681,243.155C360.681,242.601 361.13,242.152 361.684,242.152L368.017,242.152C368.571,242.152 369.02,242.601 369.02,243.155Z" style="fill:white;"/>
                <path d="M374.468,248.285L374.468,250.29C374.468,250.844 374.018,251.293 373.465,251.293L367.131,251.293C366.577,251.293 366.128,250.844 366.128,250.29L366.128,248.285C366.128,247.731 366.577,247.282 367.131,247.282L373.465,247.282C374.018,247.282 374.468,247.731 374.468,248.285Z" style="fill:white;"/>
                <path d="M364.403,238.034L364.403,240.039C364.403,240.593 363.954,241.042 363.4,241.042L357.066,241.042C356.513,241.042 356.064,240.593 356.064,240.039L356.064,238.034C356.064,237.48 356.513,237.031 357.066,237.031L363.4,237.031C363.954,237.031 364.403,237.48 364.403,238.034Z" style="fill:white;"/>
                <path d="M354.93,238.034L354.93,240.039C354.93,240.593 354.481,241.042 353.927,241.042L347.594,241.042C347.04,241.042 346.591,240.593 346.591,240.039L346.591,238.034C346.591,237.48 347.04,237.031 347.594,237.031L353.927,237.031C354.481,237.031 354.93,237.48 354.93,238.034Z" style="fill:white;"/>
                <path d="M340.424,243.155L340.424,245.16C340.424,245.714 339.975,246.163 339.422,246.163L333.088,246.163C332.534,246.163 332.085,245.714 332.085,245.16L332.085,243.155C332.085,242.601 332.534,242.152 333.088,242.152L339.422,242.152C339.975,242.152 340.424,242.601 340.424,243.155Z" style="fill:white;"/>
                <path d="M345.32,248.285L345.32,250.29C345.32,250.844 344.87,251.293 344.317,251.293L337.983,251.293C337.43,251.293 336.98,250.844 336.98,250.29L336.98,248.285C336.98,247.731 337.43,247.282 337.983,247.282L344.317,247.282C344.87,247.282 345.32,247.731 345.32,248.285Z" style="fill:white;"/>
                <path d="M359.711,232.918L359.711,234.923C359.711,235.477 359.262,235.926 358.709,235.926L352.375,235.926C351.821,235.926 351.372,235.477 351.372,234.923L351.372,232.918C351.372,232.364 351.821,231.915 352.375,231.915L358.709,231.915C359.262,231.915 359.711,232.364 359.711,232.918Z" style="fill:white;"/>
            </g>
            <path d="M253.748,335.456L253.748,366.46C253.748,368.429 252.149,370.028 250.18,370.028L243.043,370.028C241.074,370.028 239.475,368.429 239.475,366.46L239.475,335.456C239.475,333.486 241.074,331.888 243.043,331.888L250.18,331.888C252.149,331.888 253.748,333.486 253.748,335.456Z" style="fill:white;"/>
            <path d="M262.114,358.094L231.109,358.094C229.14,358.094 227.541,356.495 227.541,354.526L227.541,347.39C227.541,345.42 229.14,343.822 231.109,343.822L262.114,343.822C264.083,343.822 265.682,345.42 265.682,347.39L265.682,354.526C265.682,356.495 264.083,358.094 262.114,358.094Z" style="fill:white;"/>
            <g id="Guides">
                <path id="path1278" d="M243.423,129.512C242.582,129.512 241.814,129.785 241.195,130.311C240.577,130.836 240.096,131.685 240.096,132.669C240.096,132.71 240.108,132.747 240.109,132.787L231.982,132.787C231.297,132.787 230.84,133.249 230.771,133.932L230.771,137.93L242.99,142.554C243.526,141.527 244.575,140.816 245.792,140.794C245.813,140.787 245.83,140.78 245.851,140.78L247.289,140.78C247.313,140.78 247.335,140.794 247.359,140.794C248.574,140.82 249.62,141.533 250.153,142.561L262.483,137.681L262.483,133.998C262.452,133.278 261.96,132.787 261.245,132.787L253.124,132.787C253.125,132.747 253.138,132.71 253.138,132.669C253.138,131.685 252.656,130.837 252.038,130.311C251.42,129.785 250.652,129.512 249.811,129.512L243.423,129.512ZM243.423,131.905L249.811,131.905C250.263,131.905 250.635,132.08 250.848,132.261C251.062,132.443 251.09,132.566 251.09,132.669C251.09,132.714 251.072,132.748 251.066,132.787C251.679,132.787 252.034,132.786 252.865,132.787C252.67,133.126 252.388,133.422 252.052,133.641C251.428,134.047 250.652,134.243 249.811,134.243L243.423,134.243C242.582,134.243 241.805,134.048 241.182,133.641C240.846,133.422 240.564,133.126 240.369,132.787C241.405,132.787 241.407,132.787 242.167,132.787C242.161,132.748 242.143,132.714 242.143,132.669C242.143,132.566 242.172,132.443 242.385,132.261C242.598,132.08 242.97,131.905 243.423,131.905ZM262.493,139.829L250.533,144.567L250.533,145.597C250.533,147.396 249.067,148.88 247.286,148.88L245.851,148.88C244.069,148.88 242.607,147.396 242.607,145.597L242.607,144.56L230.733,140.057L230.733,155.606C230.733,156.222 231.286,156.879 231.979,156.879L261.248,156.879C261.94,156.879 262.493,156.222 262.493,155.606L262.493,139.829ZM245.851,142.786L245.851,142.789C245.737,142.789 245.64,142.824 245.539,142.844C245.483,142.858 245.422,142.849 245.37,142.876C244.943,143.042 244.665,143.436 244.623,143.955C244.617,144.019 244.606,144.083 244.588,144.145L244.588,145.604C244.588,146.351 245.111,146.877 245.851,146.877L247.286,146.877C248.026,146.877 248.548,146.352 248.548,145.604L248.548,144.148C248.533,144.089 248.522,144.029 248.517,143.968C248.48,143.44 248.206,143.042 247.774,142.876C247.629,142.822 247.465,142.786 247.289,142.786L245.851,142.786Z" style="fill:white;fill-rule:nonzero;"/>
            </g>
        </g>
    </g>
    <defs>
        <filter id="_Effect1" filterUnits="userSpaceOnUse" x="-48" y="-48" width="589.953" height="589.953">
            <feGaussianBlur in="SourceGraphic" stdDeviation="16"/>
        </filter>
    </defs>
</svg>
