<?xml version="1.0" encoding="UTF-8" standalone="no"?>
<!DOCTYPE svg PUBLIC "-//W3C//DTD SVG 1.1//EN" "http://www.w3.org/Graphics/SVG/1.1/DTD/svg11.dtd">
<svg width="100%" height="100%" viewBox="0 0 379 379" version="1.1" xmlns="http://www.w3.org/2000/svg" xmlns:xlink="http://www.w3.org/1999/xlink" xml:space="preserve" xmlns:serif="http://www.serif.com/" style="fill-rule:evenodd;clip-rule:evenodd;stroke-linejoin:round;stroke-miterlimit:0.73;">
    <g>
        <g>
            <path d="M378.185,94.721L378.185,283.697C378.185,335.846 335.846,378.185 283.697,378.185L94.721,378.185C42.571,378.185 0.232,335.846 0.232,283.697L0.232,94.721C0.232,42.571 42.571,0.232 94.721,0.232L283.697,0.232C335.846,0.232 378.185,42.571 378.185,94.721Z" style="fill:white;stroke:white;stroke-width:0.46px;"/>
        </g>
        <circle cx="189.209" cy="189.209" r="92.241" style="fill:none;stroke:rgb(126,211,79);stroke-width:39.15px;stroke-linecap:round;stroke-miterlimit:0.348837;"/>
        <circle cx="189.209" cy="189.209" r="92.241" style="fill:rgb(1,54,124);"/>
        <circle cx="189.209" cy="189.209" r="53.279" style="fill:none;stroke:rgb(126,211,79);stroke-width:36.82px;stroke-linecap:round;stroke-miterlimit:0.348837;"/>
        <circle cx="189.209" cy="189.209" r="53.279" style="fill:rgb(1,54,124);"/>
        <circle cx="189.209" cy="189.209" r="28.259" style="fill:rgb(126,211,79);"/>
        <path d="M198.885,194.825C198.885,196.127 198.553,197.348 197.888,198.488C197.222,199.627 196.243,200.567 194.951,201.305C193.658,202.044 192.133,202.476 190.376,202.601L190.376,205.644L187.966,205.644L187.966,202.564C185.456,202.338 183.436,201.581 181.904,200.291C180.373,199.001 179.582,197.254 179.532,195.05L185.18,195.05C185.331,196.854 186.259,197.943 187.966,198.319L187.966,191.144C186.159,190.693 184.703,190.242 183.599,189.791C182.494,189.34 181.54,188.614 180.737,187.612C179.934,186.61 179.532,185.246 179.532,183.517C179.532,181.339 180.317,179.56 181.886,178.183C183.454,176.805 185.481,176.017 187.966,175.816L187.966,172.773L190.376,172.773L190.376,175.816C192.786,176.017 194.712,176.743 196.156,177.995C197.599,179.247 198.408,180.975 198.584,183.179L192.899,183.179C192.823,182.453 192.566,181.821 192.127,181.282C191.688,180.744 191.104,180.362 190.376,180.136L190.376,187.237C192.259,187.712 193.746,188.169 194.838,188.608C195.93,189.046 196.877,189.76 197.681,190.749C198.484,191.738 198.885,193.097 198.885,194.825ZM185.029,183.254C185.029,184.081 185.28,184.751 185.782,185.264C186.285,185.778 187.012,186.197 187.966,186.523L187.966,180.024C187.063,180.149 186.347,180.487 185.82,181.038C185.293,181.589 185.029,182.328 185.029,183.254ZM190.376,198.394C191.33,198.219 192.077,197.83 192.616,197.229C193.156,196.628 193.426,195.902 193.426,195.05C193.426,194.224 193.162,193.56 192.635,193.059C192.108,192.559 191.355,192.145 190.376,191.82L190.376,198.394Z" style="fill:white;fill-rule:nonzero;"/>
        <path d="M194.047,42.352L194.047,54.831C194.047,57.501 191.879,59.669 189.209,59.669C186.539,59.669 184.371,57.501 184.371,54.831L184.371,42.352C184.371,39.682 186.539,37.514 189.209,37.514C191.879,37.514 194.047,39.682 194.047,42.352Z" style="fill:rgb(1,54,124);"/>
        <path d="M33.898,184.371L46.377,184.371C49.047,184.371 51.215,186.539 51.215,189.209C51.215,191.879 49.047,194.047 46.377,194.047L33.898,194.047C31.227,194.047 29.059,191.879 29.059,189.209C29.059,186.539 31.227,184.371 33.898,184.371Z" style="fill:rgb(1,54,124);"/>
        <path d="M344.52,194.047L332.041,194.047C329.371,194.047 327.203,191.879 327.203,189.209C327.203,186.539 329.371,184.371 332.041,184.371L344.52,184.371C347.19,184.371 349.358,186.539 349.358,189.209C349.358,191.879 347.19,194.047 344.52,194.047Z" style="fill:rgb(1,54,124);"/>
        <path d="M194.047,323.587L194.047,336.066C194.047,338.736 191.879,340.904 189.209,340.904C186.539,340.904 184.371,338.736 184.371,336.066L184.371,323.587C184.371,320.916 186.539,318.748 189.209,318.748C191.879,318.748 194.047,320.916 194.047,323.587Z" style="fill:rgb(1,54,124);"/>
    </g>
</svg>
