<?xml version="1.0" encoding="UTF-8" standalone="no"?>
<!DOCTYPE svg PUBLIC "-//W3C//DTD SVG 1.1//EN" "http://www.w3.org/Graphics/SVG/1.1/DTD/svg11.dtd">
<svg width="100%" height="100%" viewBox="0 0 379 379" version="1.1" xmlns="http://www.w3.org/2000/svg" xmlns:xlink="http://www.w3.org/1999/xlink" xml:space="preserve" xmlns:serif="http://www.serif.com/" style="fill-rule:evenodd;clip-rule:evenodd;stroke-linejoin:round;stroke-miterlimit:0.73;">
    <g>
        <g>
            <path d="M378.185,132.516L378.185,245.902C378.185,318.911 318.911,378.185 245.902,378.185L132.516,378.185C59.507,378.185 0.232,318.911 0.232,245.902L0.232,132.516C0.232,59.507 59.507,0.232 132.516,0.232L245.902,0.232C318.911,0.232 378.185,59.507 378.185,132.516Z" style="fill:white;stroke:white;stroke-width:0.46px;"/>
        </g>
        <g>
            <path d="M317.859,104.367L317.859,274.05C317.859,307.098 291.028,333.929 257.98,333.929L138.223,333.929C105.176,333.929 78.345,307.098 78.345,274.05L78.345,104.367C78.345,71.32 105.176,44.489 138.223,44.489L257.98,44.489C291.028,44.489 317.859,71.32 317.859,104.367Z" style="fill:rgb(1,55,125);"/>
            <path d="M65.879,92.43L65.879,146.654L112.822,119.512C117.592,127.763 120.104,137.124 120.104,146.654C120.104,176.581 95.807,200.878 65.879,200.878C35.952,200.878 11.655,176.581 11.655,146.654C11.655,116.707 35.932,92.43 65.879,92.43Z" style="fill:rgb(124,210,76);"/>
            <path d="M239.688,247.081L239.688,301.417C239.688,304.892 236.867,307.713 233.392,307.713L220.799,307.713C217.324,307.713 214.502,304.892 214.502,301.417L214.502,247.081C214.502,243.606 217.324,240.784 220.799,240.784L233.392,240.784C236.867,240.784 239.688,243.606 239.688,247.081Z" style="fill:rgb(124,210,76);"/>
            <path d="M281.04,215.414L281.04,301.417C281.04,304.892 278.219,307.713 274.744,307.713L262.15,307.713C258.675,307.713 255.854,304.892 255.854,301.417L255.854,215.414C255.854,211.939 258.675,209.118 262.15,209.118L274.744,209.118C278.219,209.118 281.04,211.939 281.04,215.414Z" style="fill:rgb(124,210,76);"/>
            <path d="M323.888,255.837L323.888,301.417C323.888,304.892 321.066,307.713 317.591,307.713L304.998,307.713C301.523,307.713 298.701,304.892 298.701,301.417L298.701,255.837C298.701,252.362 301.523,249.54 304.998,249.54L317.591,249.54C321.066,249.54 323.888,252.362 323.888,255.837Z" style="fill:rgb(124,210,76);"/>
            <path d="M364.401,232.071L364.401,301.417C364.401,304.892 361.579,307.713 358.104,307.713L345.511,307.713C342.036,307.713 339.214,304.892 339.214,301.417L339.214,232.071C339.214,228.595 342.036,225.774 345.511,225.774L358.104,225.774C361.579,225.774 364.401,228.595 364.401,232.071Z" style="fill:rgb(124,210,76);"/>
            <g>
                <path d="M275.011,96.852C275.011,101.882 270.927,105.966 265.897,105.966L135.877,105.966C130.847,105.966 126.763,101.882 126.763,96.852C126.763,91.822 130.847,87.738 135.877,87.738L265.897,87.738C270.927,87.738 275.011,91.822 275.011,96.852Z" style="fill:white;"/>
                <path d="M275.011,133.795C275.011,138.825 270.927,142.909 265.897,142.909L157.518,142.909C152.488,142.909 148.404,138.825 148.404,133.795C148.404,128.764 152.488,124.68 157.518,124.68L265.897,124.68C270.927,124.68 275.011,128.764 275.011,133.795Z" style="fill:white;"/>
                <path d="M275.011,170.737C275.011,175.768 270.927,179.852 265.897,179.852L149.337,179.852C144.307,179.852 140.223,175.768 140.223,170.737C140.223,165.707 144.307,161.623 149.337,161.623L265.897,161.623C270.927,161.623 275.011,165.707 275.011,170.737Z" style="fill:white;"/>
                <path d="M233.66,207.68C233.66,212.711 229.576,216.795 224.545,216.795L131.146,216.795C126.116,216.795 122.032,212.711 122.032,207.68C122.032,202.65 126.116,198.566 131.146,198.566L224.545,198.566C229.576,198.566 233.66,202.65 233.66,207.68Z" style="fill:white;"/>
                <path d="M190.732,244.623C190.732,249.653 186.648,253.737 181.618,253.737L131.146,253.737C126.116,253.737 122.032,249.653 122.032,244.623C122.032,239.593 126.116,235.509 131.146,235.509L181.618,235.509C186.648,235.509 190.732,239.593 190.732,244.623Z" style="fill:white;"/>
                <path d="M190.732,281.566C190.732,286.596 186.648,290.68 181.618,290.68L130.307,290.68C125.276,290.68 121.192,286.596 121.192,281.566C121.192,276.535 125.276,272.451 130.307,272.451L181.618,272.451C186.648,272.451 190.732,276.535 190.732,281.566Z" style="fill:white;"/>
            </g>
        </g>
    </g>
</svg>
