<?xml version="1.0" encoding="UTF-8" standalone="no"?>
<!DOCTYPE svg PUBLIC "-//W3C//DTD SVG 1.1//EN" "http://www.w3.org/Graphics/SVG/1.1/DTD/svg11.dtd">
<svg width="100%" height="100%" viewBox="0 0 379 379" version="1.1" xmlns="http://www.w3.org/2000/svg" xmlns:xlink="http://www.w3.org/1999/xlink" xml:space="preserve" xmlns:serif="http://www.serif.com/" style="fill-rule:evenodd;clip-rule:evenodd;stroke-linejoin:round;stroke-miterlimit:0.73;">
    <g>
        <g>
            <path d="M378.185,94.721L378.185,283.697C378.185,335.846 335.846,378.185 283.697,378.185L94.721,378.185C42.571,378.185 0.232,335.846 0.232,283.697L0.232,94.721C0.232,42.571 42.571,0.232 94.721,0.232L283.697,0.232C335.846,0.232 378.185,42.571 378.185,94.721Z" style="fill:white;stroke:white;stroke-width:0.46px;"/>
        </g>
        <g>
            <path d="M83.32,276.039C82.432,277.65 80.403,278.237 78.792,277.349C77.181,276.461 76.594,274.431 77.482,272.82L140.976,157.663C141.683,156.381 143.145,155.71 144.578,156.01C144.578,156.01 254.041,178.943 273.847,183.093L300.582,87.522C301.077,85.75 302.918,84.714 304.69,85.209C306.461,85.705 307.497,87.546 307.002,89.317L279.427,187.893C278.954,189.583 277.252,190.617 275.534,190.257L145.624,163.041L83.32,276.039Z" style="fill:rgb(157,175,255);"/>
            <circle cx="80.401" cy="274.43" r="15.118" style="fill:rgb(1,55,124);"/>
            <circle cx="143.895" cy="159.273" r="15.118" style="fill:rgb(123,210,75);"/>
            <circle cx="276.217" cy="186.995" r="15.118" style="fill:rgb(1,55,124);"/>
            <circle cx="303.792" cy="88.42" r="15.118" style="fill:rgb(123,210,75);"/>
            <ellipse cx="175.312" cy="149.789" rx="58.446" ry="58.763" style="fill:rgb(157,175,255);fill-opacity:0.33;"/>
            <path d="M175.312,73.301C217.527,73.301 251.8,107.574 251.8,149.789C251.8,192.004 217.527,226.277 175.312,226.277C133.098,226.277 98.825,192.004 98.825,149.789C98.825,107.574 133.098,73.301 175.312,73.301ZM175.312,92.423C206.974,92.423 232.678,118.128 232.678,149.789C232.678,181.45 206.974,207.155 175.312,207.155C143.651,207.155 117.947,181.45 117.947,149.789C117.947,118.128 143.651,92.423 175.312,92.423Z" style="fill:rgb(1,55,124);"/>
            <path d="M236.062,217.355L290.282,311.267C292.452,315.026 291.162,319.838 287.404,322.008L273.785,329.871C270.027,332.041 265.214,330.751 263.044,326.993L208.824,233.081C206.654,229.323 207.943,224.51 211.702,222.34L225.321,214.477C229.079,212.307 233.892,213.597 236.062,217.355Z" style="fill:rgb(1,55,124);"/>
        </g>
    </g>
</svg>
