<?xml version="1.0" encoding="UTF-8" standalone="no"?>
<!DOCTYPE svg PUBLIC "-//W3C//DTD SVG 1.1//EN" "http://www.w3.org/Graphics/SVG/1.1/DTD/svg11.dtd">
<svg width="100%" height="100%" viewBox="0 0 494 494" version="1.1" xmlns="http://www.w3.org/2000/svg" xmlns:xlink="http://www.w3.org/1999/xlink" xml:space="preserve" xmlns:serif="http://www.serif.com/" style="fill-rule:evenodd;clip-rule:evenodd;stroke-linejoin:round;stroke-miterlimit:0.73;">
    <g>
        <g>
            <g style="filter:url(#_Effect1);">
                <path d="M435.953,152.488L435.953,341.465C435.953,393.614 393.614,435.953 341.465,435.953L152.488,435.953C100.339,435.953 58,393.614 58,341.465L58,152.488C58,100.339 100.339,58 152.488,58L341.465,58C393.614,58 435.953,100.339 435.953,152.488Z" style="fill:none;stroke:rgb(1,55,125);stroke-opacity:0.2;stroke-width:20px;"/>
            </g>
            <path d="M435.953,152.488L435.953,341.465C435.953,393.614 393.614,435.953 341.465,435.953L152.488,435.953C100.339,435.953 58,393.614 58,341.465L58,152.488C58,100.339 100.339,58 152.488,58L341.465,58C393.614,58 435.953,100.339 435.953,152.488Z" style="fill:white;stroke:white;stroke-width:0.46px;"/>
            <path d="M262.449,365.547L232.02,365.547C232.02,334.398 206.769,309.147 175.62,309.147L175.62,278.718C223.574,278.718 262.449,317.593 262.449,365.547Z" style="fill:rgb(124,210,76);"/>
            <path d="M319.029,278.718L319.029,309.147C287.88,309.147 262.629,334.398 262.629,365.547L232.2,365.547C232.2,317.593 271.075,278.718 319.029,278.718Z" style="fill:rgb(1,55,125);"/>
            <path d="M252.83,128.729L255.035,139.448C259.303,140.1 263.485,141.219 267.507,142.785L274.784,134.603C278.856,136.452 282.739,138.69 286.378,141.287L282.92,151.671C286.289,154.366 289.351,157.423 292.05,160.787L302.449,157.335C305.05,160.969 307.292,164.846 309.143,168.912L300.949,176.178C302.517,180.194 303.638,184.371 304.291,188.632L315.025,190.833C315.458,195.279 315.458,199.756 315.025,204.201L304.291,206.403C303.638,210.664 302.517,214.84 300.949,218.857L309.143,226.123C307.292,230.189 305.05,234.066 302.449,237.7L292.05,234.247C289.351,237.611 286.289,240.669 282.92,243.364L286.378,253.747C282.739,256.344 278.856,258.583 274.784,260.431L267.507,252.25C263.485,253.815 259.303,254.934 255.035,255.586L252.83,266.305C248.378,266.737 243.895,266.737 239.443,266.305L237.238,255.586C232.97,254.934 228.788,253.815 224.766,252.25L217.489,260.431C213.417,258.583 209.534,256.344 205.895,253.747L209.353,243.364C205.984,240.669 202.922,237.611 200.223,234.247L189.824,237.7C187.223,234.066 184.981,230.189 183.13,226.123L191.324,218.857C189.756,214.84 188.635,210.664 187.982,206.403L177.248,204.201C176.815,199.756 176.815,195.279 177.248,190.833L187.982,188.632C188.635,184.371 189.756,180.194 191.324,176.178L183.13,168.912C184.981,164.846 187.223,160.969 189.824,157.335L200.223,160.787C202.922,157.423 205.984,154.366 209.353,151.671L205.895,141.287C209.534,138.69 213.417,136.452 217.489,134.603L224.766,142.785C228.788,141.219 232.97,140.1 237.238,139.448L239.443,128.729C243.895,128.297 248.378,128.297 252.83,128.729ZM246.137,159.608C267.09,159.608 284.102,176.595 284.102,197.517C284.102,218.44 267.09,235.427 246.137,235.427C225.183,235.427 208.171,218.44 208.171,197.517C208.171,176.595 225.183,159.608 246.137,159.608Z" style="fill:rgb(1,55,125);"/>
            <path d="M246.136,184.104C250.319,184.104 258.684,184.104 262.867,189.272C267.05,194.44 267.05,204.776 262.867,215.113C262.867,215.114 262.866,215.115 262.866,215.116C260.237,222.075 253.575,226.679 246.136,226.679C238.698,226.679 232.036,222.075 229.407,215.116C229.407,215.115 229.406,215.114 229.406,215.113C225.223,204.776 225.223,194.44 229.406,189.272C233.589,184.104 241.954,184.104 246.136,184.104Z" style="fill:rgb(1,55,125);"/>
            <path d="M245.527,201.599C245.669,201.404 245.896,201.289 246.137,201.289C246.377,201.289 246.604,201.404 246.746,201.599C247.517,202.65 248.803,204.406 249.304,205.089C249.436,205.269 249.481,205.498 249.428,205.715C249.081,207.137 247.73,212.667 246.871,216.186C246.788,216.525 246.485,216.763 246.137,216.763C245.788,216.763 245.485,216.525 245.402,216.186C244.543,212.667 243.192,207.137 242.845,205.715C242.792,205.498 242.837,205.269 242.969,205.089C243.47,204.406 244.756,202.65 245.527,201.599Z" style="fill:white;"/>
            <path d="M246.137,193.91C246.671,193.91 247.741,193.91 248.276,194.571C248.81,195.232 248.81,196.553 248.276,197.875C248.275,197.876 248.275,197.877 248.275,197.877C247.938,198.766 247.087,199.354 246.136,199.354C245.186,199.354 244.335,198.766 243.998,197.878C243.998,197.877 243.998,197.876 243.998,197.875C243.463,196.553 243.463,195.232 243.998,194.571C244.532,193.91 245.602,193.91 246.137,193.91Z" style="fill:white;"/>
            <path d="M246.137,168.355C248.481,168.355 253.17,168.355 255.515,171.253C257.86,174.15 257.86,179.944 255.515,185.738C255.515,185.738 255.515,185.738 255.515,185.738C254.041,189.639 250.307,192.221 246.136,192.221C241.966,192.221 238.232,189.639 236.758,185.738C236.758,185.738 236.758,185.738 236.758,185.738C234.413,179.944 234.413,174.15 236.758,171.253C239.103,168.355 243.792,168.355 246.137,168.355Z" style="fill:rgb(124,210,76);"/>
            <path d="M356.116,287.128C358.521,288.985 359.91,291.867 359.863,294.905C359.816,297.943 358.34,300.781 355.879,302.563C348.586,307.844 338.722,314.985 330.502,320.938C327.547,323.077 323.638,323.365 320.402,321.681C317.165,319.997 315.157,316.631 315.213,312.983C315.39,301.494 315.614,286.951 315.79,275.462C315.846,271.815 317.957,268.511 321.244,266.928C324.53,265.345 328.429,265.752 331.317,267.982C339.35,274.184 348.989,281.626 356.116,287.128Z" style="fill:rgb(124,210,76);"/>
            <path d="M137.837,287.128C135.432,288.985 134.043,291.867 134.09,294.905C134.137,297.943 135.613,300.781 138.074,302.563C145.367,307.844 155.23,314.985 163.451,320.938C166.405,323.077 170.315,323.365 173.551,321.681C176.787,319.997 178.796,316.631 178.739,312.983C178.563,301.494 178.339,286.951 178.162,275.462C178.106,271.815 175.995,268.511 172.709,266.928C169.423,265.345 165.524,265.752 162.636,267.982C154.603,274.184 144.964,281.626 137.837,287.128Z" style="fill:rgb(1,55,125);"/>
        </g>
    </g>
    <defs>
        <filter id="_Effect1" filterUnits="userSpaceOnUse" x="-48" y="-48" width="589.953" height="589.953">
            <feGaussianBlur in="SourceGraphic" stdDeviation="16"/>
        </filter>
    </defs>
</svg>
