<?xml version="1.0" encoding="UTF-8" standalone="no"?>
<!DOCTYPE svg PUBLIC "-//W3C//DTD SVG 1.1//EN" "http://www.w3.org/Graphics/SVG/1.1/DTD/svg11.dtd">
<svg width="100%" height="100%" viewBox="0 0 494 494" version="1.1" xmlns="http://www.w3.org/2000/svg" xmlns:xlink="http://www.w3.org/1999/xlink" xml:space="preserve" xmlns:serif="http://www.serif.com/" style="fill-rule:evenodd;clip-rule:evenodd;stroke-linejoin:round;stroke-miterlimit:0.73;">
    <g>
        <g>
            <g style="filter:url(#_Effect1);">
                <path d="M435.953,152.488L435.953,341.465C435.953,393.614 393.614,435.953 341.465,435.953L152.488,435.953C100.339,435.953 58,393.614 58,341.465L58,152.488C58,100.339 100.339,58 152.488,58L341.465,58C393.614,58 435.953,100.339 435.953,152.488Z" style="fill:none;stroke:rgb(1,55,125);stroke-opacity:0.2;stroke-width:20px;"/>
            </g>
            <path d="M435.953,152.488L435.953,341.465C435.953,393.614 393.614,435.953 341.465,435.953L152.488,435.953C100.339,435.953 58,393.614 58,341.465L58,152.488C58,100.339 100.339,58 152.488,58L341.465,58C393.614,58 435.953,100.339 435.953,152.488Z" style="fill:white;stroke:white;stroke-width:0.46px;"/>
        </g>
        <g>
            <circle cx="241.59" cy="236.726" r="99.434" style="fill:none;stroke:rgb(1,55,125);stroke-width:26.13px;stroke-linecap:round;stroke-miterlimit:0.348837;"/>
            <circle cx="241.59" cy="236.726" r="99.434" style="fill:white;"/>
            <path d="M265.635,137.651C264.671,139.806 263.918,142.033 263.376,144.331C265.239,144.77 267.088,145.266 268.921,145.817C269.601,143.556 270.062,141.251 270.304,138.902C285.905,143.482 300.185,151.726 311.951,162.947C310.038,164.331 308.273,165.883 306.655,167.602C308.048,168.914 309.402,170.268 310.714,171.662C312.433,170.043 313.985,168.278 315.369,166.365C326.591,178.132 334.835,192.411 339.414,208.012C337.066,208.255 334.761,208.716 332.5,209.395C333.051,211.228 333.546,213.078 333.986,214.941C336.284,214.399 338.51,213.646 340.665,212.682C344.5,228.482 344.5,244.971 340.665,260.771C338.51,259.807 336.284,259.054 333.986,258.512C333.546,260.375 333.051,262.224 332.5,264.057C334.761,264.737 337.066,265.198 339.414,265.44C334.835,281.041 326.591,295.321 315.369,307.087C313.985,305.175 312.433,303.409 310.714,301.791C309.402,303.185 308.048,304.538 306.655,305.85C308.273,307.57 310.038,309.121 311.951,310.506C300.185,321.727 285.905,329.971 270.304,334.55C270.062,332.202 269.601,329.897 268.921,327.636C267.088,328.187 265.239,328.682 263.376,329.122C263.918,331.42 264.671,333.646 265.635,335.801C249.834,339.636 233.346,339.636 217.545,335.801C218.51,333.646 219.263,331.42 219.805,329.122C217.942,328.682 216.092,328.187 214.259,327.636C213.579,329.897 213.118,332.202 212.876,334.55C197.275,329.971 182.995,321.727 171.229,310.506C173.142,309.121 174.907,307.57 176.526,305.85C175.132,304.538 173.778,303.185 172.466,301.791C170.747,303.409 169.195,305.175 167.811,307.087C156.59,295.321 148.345,281.041 143.766,265.44C146.115,265.198 148.419,264.737 150.681,264.057C150.129,262.224 149.634,260.375 149.195,258.512C146.897,259.054 144.67,259.807 142.515,260.771C138.68,244.971 138.68,228.482 142.515,212.682C144.67,213.646 146.897,214.399 149.195,214.941C149.634,213.078 150.129,211.228 150.681,209.395C148.419,208.716 146.115,208.255 143.766,208.012C148.345,192.411 156.59,178.132 167.811,166.365C169.195,168.278 170.747,170.043 172.466,171.662C173.778,170.268 175.132,168.914 176.526,167.602C174.907,165.883 173.142,164.331 171.229,162.947C182.995,151.726 197.275,143.482 212.876,138.902C213.118,141.251 213.579,143.556 214.259,145.817C216.092,145.266 217.942,144.77 219.805,144.331C219.263,142.033 218.51,139.806 217.545,137.651C233.346,133.816 249.834,133.816 265.635,137.651Z" style="fill:rgb(1,55,125);"/>
            <path d="M266.147,359.178L253.562,248.682L354.314,295.764C337.946,330.79 304.561,354.802 266.147,359.178Z" style="fill:none;stroke:white;stroke-width:12.3px;stroke-linecap:round;stroke-miterlimit:0.348837;"/>
            <path d="M266.147,359.178L253.562,248.682L354.314,295.764C337.946,330.79 304.561,354.802 266.147,359.178Z" style="fill:rgb(124,210,76);"/>
            <path d="M220.365,199.142L245.524,242.719C248.355,247.623 246.673,253.902 241.769,256.733C236.865,259.564 230.586,257.882 227.755,252.978L202.596,209.401C199.764,204.498 201.447,198.218 206.351,195.387C211.254,192.556 217.534,194.238 220.365,199.142Z" style="fill:white;"/>
            <path d="M276.48,224.9L245.151,256.229C241.148,260.233 234.647,260.233 230.643,256.229C226.639,252.225 226.639,245.724 230.643,241.721L261.972,210.391C265.976,206.388 272.477,206.388 276.48,210.391C280.484,214.395 280.484,220.896 276.48,224.9Z" style="fill:white;"/>
        </g>
    </g>
    <defs>
        <filter id="_Effect1" filterUnits="userSpaceOnUse" x="-48" y="-48" width="589.953" height="589.953">
            <feGaussianBlur in="SourceGraphic" stdDeviation="16"/>
        </filter>
    </defs>
</svg>
