<?xml version="1.0" encoding="UTF-8" standalone="no"?>
<!DOCTYPE svg PUBLIC "-//W3C//DTD SVG 1.1//EN" "http://www.w3.org/Graphics/SVG/1.1/DTD/svg11.dtd">
<svg width="100%" height="100%" viewBox="0 0 379 379" version="1.1" xmlns="http://www.w3.org/2000/svg" xmlns:xlink="http://www.w3.org/1999/xlink" xml:space="preserve" xmlns:serif="http://www.serif.com/" style="fill-rule:evenodd;clip-rule:evenodd;stroke-linejoin:round;stroke-miterlimit:0.73;">
    <g>
        <g>
            <path d="M378.185,94.721L378.185,283.697C378.185,335.846 335.846,378.185 283.697,378.185L94.721,378.185C42.571,378.185 0.232,335.846 0.232,283.697L0.232,94.721C0.232,42.571 42.571,0.232 94.721,0.232L283.697,0.232C335.846,0.232 378.185,42.571 378.185,94.721Z" style="fill:white;stroke:white;stroke-width:0.46px;"/>
        </g>
        <g>
            <path d="M183.608,88.37C182.187,88.443 180.973,87.348 180.901,85.927C180.828,84.505 181.923,83.292 183.344,83.22C185.166,83.126 186.999,83.079 188.844,83.079C190.688,83.079 192.522,83.126 194.344,83.22C195.765,83.292 196.86,84.505 196.787,85.927C196.714,87.348 195.501,88.443 194.08,88.37C192.346,88.282 190.6,88.237 188.844,88.237C187.088,88.237 185.342,88.282 183.608,88.37ZM202.232,89.118C200.821,88.931 199.827,87.633 200.015,86.222C200.202,84.811 201.499,83.818 202.91,84.005C206.578,84.492 210.188,85.166 213.728,86.018C215.112,86.351 215.965,87.745 215.632,89.129C215.299,90.513 213.905,91.366 212.522,91.033C209.154,90.222 205.721,89.581 202.232,89.118ZM220.393,93.271C219.041,92.826 218.305,91.367 218.75,90.015C219.195,88.663 220.654,87.927 222.006,88.372C225.509,89.525 228.932,90.856 232.265,92.353C233.563,92.937 234.143,94.464 233.56,95.762C232.976,97.061 231.449,97.641 230.15,97.057C226.981,95.633 223.725,94.368 220.393,93.271ZM237.473,100.714C236.227,100.027 235.773,98.457 236.46,97.21C237.147,95.964 238.716,95.51 239.963,96.197C243.184,97.972 246.304,99.91 249.31,102C250.479,102.812 250.768,104.42 249.956,105.589C249.144,106.758 247.536,107.047 246.367,106.235C243.506,104.247 240.538,102.403 237.473,100.714ZM252.896,111.174C251.796,110.27 251.637,108.644 252.541,107.544C253.445,106.445 255.071,106.286 256.171,107.19C259.006,109.521 261.719,111.996 264.298,114.604C265.299,115.616 265.289,117.25 264.277,118.251C263.265,119.251 261.631,119.242 260.631,118.23C258.176,115.748 255.594,113.393 252.896,111.174ZM266.148,124.279C265.232,123.189 265.373,121.561 266.462,120.645C267.551,119.729 269.179,119.87 270.095,120.959C272.454,123.764 274.67,126.692 276.733,129.732C277.532,130.91 277.224,132.515 276.046,133.314C274.869,134.113 273.264,133.806 272.465,132.628C270.502,129.734 268.393,126.948 266.148,124.279ZM276.782,139.582C276.081,138.344 276.518,136.769 277.756,136.068C278.995,135.367 280.57,135.803 281.271,137.042C283.072,140.225 284.714,143.51 286.186,146.886C286.754,148.191 286.157,149.712 284.852,150.281C283.547,150.849 282.026,150.252 281.458,148.947C280.058,145.735 278.496,142.61 276.782,139.582ZM284.418,156.576C283.958,155.23 284.678,153.762 286.025,153.302C287.371,152.842 288.838,153.562 289.299,154.908C290.479,158.36 291.485,161.892 292.309,165.493C292.626,166.881 291.757,168.265 290.37,168.582C288.982,168.899 287.598,168.03 287.281,166.643C286.498,163.218 285.54,159.859 284.418,156.576ZM288.778,174.689C288.575,173.28 289.554,171.972 290.962,171.769C292.371,171.565 293.68,172.544 293.883,173.953C294.402,177.55 294.74,181.205 294.888,184.908C294.945,186.331 293.836,187.531 292.414,187.588C290.992,187.645 289.791,186.536 289.734,185.114C289.594,181.59 289.272,178.112 288.778,174.689ZM289.734,193.303C289.791,191.881 290.992,190.773 292.414,190.83C293.836,190.886 294.945,192.087 294.888,193.509C294.74,197.213 294.402,200.868 293.883,204.465C293.68,205.874 292.371,206.852 290.962,206.649C289.554,206.446 288.575,205.137 288.778,203.729C289.272,200.306 289.594,196.828 289.734,193.303ZM287.281,211.775C287.598,210.387 288.982,209.518 290.37,209.835C291.757,210.153 292.626,211.537 292.309,212.924C291.485,216.525 290.479,220.057 289.299,223.509C288.839,224.856 287.371,225.576 286.025,225.115C284.678,224.655 283.958,223.188 284.419,221.841C285.541,218.558 286.498,215.2 287.281,211.775ZM281.458,229.471C282.026,228.166 283.547,227.568 284.852,228.137C286.157,228.706 286.754,230.227 286.186,231.531C284.714,234.908 283.072,238.193 281.271,241.376C280.57,242.615 278.995,243.051 277.756,242.35C276.518,241.649 276.081,240.074 276.782,238.835C278.496,235.807 280.058,232.682 281.458,229.471ZM272.465,245.79C273.264,244.612 274.869,244.305 276.046,245.104C277.224,245.903 277.532,247.507 276.733,248.685C274.67,251.726 272.454,254.654 270.095,257.459C269.179,258.548 267.551,258.689 266.462,257.772C265.373,256.856 265.232,255.228 266.148,254.139C268.393,251.47 270.502,248.684 272.465,245.79ZM260.631,260.187C261.631,259.175 263.265,259.166 264.277,260.167C265.29,261.168 265.299,262.802 264.298,263.814C261.719,266.422 259.006,268.897 256.171,271.228C255.071,272.131 253.445,271.973 252.541,270.873C251.637,269.774 251.796,268.147 252.896,267.243C255.594,265.025 258.176,262.669 260.631,260.187ZM246.367,272.183C247.536,271.371 249.144,271.66 249.956,272.829C250.768,273.998 250.479,275.606 249.31,276.418C246.304,278.508 243.184,280.446 239.963,282.221C238.716,282.908 237.146,282.454 236.459,281.207C235.772,279.961 236.227,278.391 237.473,277.704C240.538,276.015 243.506,274.171 246.367,272.183ZM230.151,281.36C231.449,280.777 232.976,281.357 233.56,282.655C234.143,283.953 233.563,285.481 232.265,286.064C228.932,287.562 225.509,288.893 222.006,290.046C220.654,290.491 219.195,289.754 218.75,288.402C218.305,287.05 219.041,285.592 220.393,285.147C223.726,284.05 226.981,282.785 230.151,281.36ZM212.522,287.385C213.905,287.052 215.299,287.905 215.632,289.289C215.965,290.673 215.112,292.066 213.728,292.399C210.188,293.251 206.579,293.926 202.91,294.412C201.499,294.6 200.202,293.606 200.015,292.195C199.828,290.784 200.821,289.487 202.232,289.3C205.721,288.837 209.154,288.195 212.522,287.385ZM194.08,290.047C195.501,289.975 196.714,291.07 196.787,292.491C196.86,293.912 195.765,295.125 194.344,295.198C192.522,295.291 190.688,295.338 188.844,295.338C187,295.338 185.166,295.291 183.345,295.198C181.923,295.125 180.828,293.912 180.901,292.491C180.974,291.07 182.187,289.975 183.608,290.047C185.342,290.136 187.088,290.181 188.844,290.181C190.6,290.181 192.346,290.136 194.08,290.047ZM175.456,289.3C176.867,289.487 177.861,290.784 177.673,292.195C177.486,293.606 176.189,294.6 174.778,294.413C171.109,293.926 167.5,293.251 163.96,292.399C162.576,292.066 161.723,290.673 162.056,289.289C162.389,287.905 163.783,287.052 165.166,287.385C168.534,288.195 171.967,288.837 175.456,289.3ZM157.295,285.147C158.647,285.592 159.383,287.05 158.938,288.402C158.493,289.754 157.034,290.491 155.682,290.046C152.179,288.893 148.756,287.562 145.423,286.065C144.125,285.481 143.545,283.954 144.128,282.655C144.712,281.357 146.239,280.777 147.538,281.36C150.707,282.785 153.962,284.05 157.295,285.147ZM140.215,277.704C141.461,278.391 141.915,279.961 141.228,281.207C140.541,282.454 138.972,282.908 137.725,282.221C134.504,280.445 131.384,278.507 128.378,276.418C127.209,275.606 126.919,273.998 127.732,272.829C128.544,271.66 130.152,271.371 131.321,272.183C134.182,274.171 137.15,276.015 140.215,277.704ZM124.792,267.244C125.892,268.147 126.051,269.774 125.147,270.873C124.243,271.973 122.617,272.132 121.517,271.228C118.682,268.897 115.969,266.422 113.39,263.814C112.389,262.802 112.399,261.168 113.411,260.167C114.423,259.166 116.057,259.175 117.057,260.187C119.512,262.669 122.094,265.025 124.792,267.244ZM111.54,254.139C112.456,255.228 112.315,256.856 111.226,257.772C110.137,258.688 108.509,258.548 107.593,257.459C105.234,254.654 103.018,251.726 100.955,248.685C100.156,247.507 100.464,245.902 101.641,245.104C102.819,244.305 104.424,244.612 105.223,245.79C107.186,248.684 109.295,251.47 111.54,254.139ZM100.906,238.835C101.607,240.074 101.17,241.649 99.932,242.35C98.693,243.051 97.118,242.615 96.417,241.376C94.616,238.193 92.974,234.908 91.502,231.531C90.934,230.227 91.531,228.706 92.836,228.137C94.141,227.568 95.662,228.166 96.23,229.471C97.63,232.682 99.192,235.807 100.906,238.835ZM93.269,221.841C93.73,223.188 93.01,224.655 91.663,225.115C90.317,225.576 88.849,224.856 88.389,223.509C87.209,220.057 86.203,216.526 85.379,212.924C85.062,211.537 85.931,210.153 87.318,209.836C88.706,209.518 90.09,210.387 90.407,211.775C91.19,215.2 92.147,218.559 93.269,221.841ZM88.91,203.729C89.113,205.137 88.134,206.446 86.726,206.649C85.317,206.852 84.008,205.874 83.805,204.465C83.286,200.868 82.948,197.213 82.8,193.509C82.743,192.087 83.852,190.886 85.274,190.83C86.696,190.773 87.897,191.881 87.953,193.303C88.094,196.828 88.416,200.306 88.91,203.729ZM87.953,185.114C87.897,186.536 86.696,187.645 85.274,187.588C83.852,187.531 82.743,186.331 82.8,184.908C82.948,181.205 83.286,177.55 83.805,173.953C84.008,172.544 85.317,171.565 86.726,171.769C88.134,171.972 89.113,173.28 88.91,174.689C88.416,178.112 88.094,181.59 87.953,185.114ZM90.407,166.643C90.09,168.031 88.706,168.899 87.318,168.582C85.931,168.265 85.062,166.881 85.379,165.494C86.203,161.892 87.209,158.36 88.389,154.909C88.849,153.562 90.316,152.842 91.663,153.302C93.01,153.763 93.73,155.23 93.269,156.577C92.147,159.859 91.19,163.218 90.407,166.643ZM96.23,148.947C95.662,150.252 94.141,150.849 92.836,150.281C91.531,149.712 90.934,148.191 91.502,146.886C92.974,143.51 94.616,140.225 96.417,137.042C97.118,135.803 98.693,135.367 99.932,136.068C101.17,136.769 101.607,138.344 100.906,139.582C99.192,142.61 97.63,145.735 96.23,148.947ZM105.223,132.628C104.424,133.806 102.819,134.113 101.641,133.314C100.464,132.515 100.156,130.91 100.955,129.732C103.018,126.692 105.234,123.763 107.593,120.959C108.509,119.87 110.137,119.729 111.226,120.645C112.315,121.561 112.456,123.189 111.54,124.279C109.295,126.948 107.186,129.734 105.223,132.628ZM117.057,118.23C116.057,119.242 114.422,119.252 113.41,118.251C112.398,117.25 112.389,115.616 113.39,114.604C115.969,111.996 118.682,109.521 121.517,107.19C122.617,106.286 124.243,106.445 125.147,107.545C126.051,108.644 125.892,110.27 124.792,111.174C122.093,113.393 119.512,115.748 117.057,118.23ZM131.321,106.235C130.152,107.047 128.544,106.758 127.732,105.589C126.919,104.42 127.209,102.812 128.378,102C131.384,99.91 134.504,97.972 137.725,96.197C138.972,95.51 140.541,95.964 141.228,97.21C141.915,98.457 141.461,100.027 140.215,100.714C137.15,102.403 134.182,104.247 131.321,106.235ZM147.537,97.057C146.239,97.641 144.712,97.061 144.128,95.762C143.545,94.464 144.125,92.937 145.423,92.353C148.755,90.856 152.179,89.525 155.682,88.372C157.034,87.927 158.493,88.663 158.938,90.015C159.383,91.367 158.646,92.826 157.295,93.271C153.962,94.368 150.707,95.633 147.537,97.057ZM165.166,91.033C163.782,91.366 162.389,90.513 162.056,89.129C161.723,87.745 162.576,86.351 163.959,86.018C167.5,85.166 171.109,84.492 174.778,84.005C176.189,83.818 177.486,84.811 177.673,86.222C177.86,87.633 176.867,88.931 175.456,89.118C171.967,89.581 168.534,90.222 165.166,91.033Z" style="fill:rgb(126,211,79);"/>
            <circle cx="188.844" cy="85.658" r="37.749" style="fill:rgb(1,54,124);"/>
            <circle cx="85.293" cy="189.209" r="37.749" style="fill:rgb(1,54,124);"/>
            <rect x="82.337" y="197.089" width="6.212" height="4.97" style="fill:white;"/>
            <rect x="82.337" y="197.089" width="6.212" height="4.97" style="fill:white;"/>
            <rect x="82.337" y="197.089" width="6.212" height="4.97" style="fill:white;"/>
            <path d="M102.217,185.907L102.217,202.059L89.792,202.059L89.792,196.468C89.792,196.127 89.512,195.847 89.171,195.847L81.716,195.847C81.375,195.847 81.095,196.127 81.095,196.468L81.095,202.059L68.67,202.059L68.67,185.907L102.217,185.907Z" style="fill:white;fill-rule:nonzero;"/>
            <rect x="82.337" y="197.089" width="6.212" height="4.97" style="fill:white;"/>
            <path d="M102.217,185.907L102.217,202.059L89.792,202.059L89.792,196.468C89.792,196.127 89.512,195.847 89.171,195.847L81.716,195.847C81.375,195.847 81.095,196.127 81.095,196.468L81.095,202.059L68.67,202.059L68.67,185.907L102.217,185.907Z" style="fill:white;fill-rule:nonzero;"/>
            <path d="M79.79,184.665L74.945,184.665L76.063,173.482L78.672,173.482L79.79,184.665Z" style="fill:white;fill-rule:nonzero;"/>
            <path d="M79.79,184.665L74.945,184.665L76.063,173.482L78.672,173.482L79.79,184.665Z" style="fill:white;fill-rule:nonzero;"/>
            <path d="M78.61,188.392L78.61,192.119C78.61,192.462 78.332,192.741 77.989,192.741L74.261,192.741C73.919,192.741 73.64,192.462 73.64,192.119L73.64,188.392C73.64,188.049 73.919,187.771 74.261,187.771L77.989,187.771C78.332,187.771 78.61,188.049 78.61,188.392Z" style="fill:white;"/>
            <rect x="74.883" y="189.013" width="2.485" height="2.485" style="fill:white;"/>
            <path d="M87.929,188.392L87.929,192.119C87.929,192.462 87.65,192.741 87.307,192.741L83.58,192.741C83.237,192.741 82.959,192.462 82.959,192.119L82.959,188.392C82.959,188.049 83.237,187.771 83.58,187.771L87.307,187.771C87.65,187.771 87.929,188.049 87.929,188.392Z" style="fill:white;"/>
            <rect x="84.201" y="189.013" width="2.485" height="2.485" style="fill:white;"/>
            <path d="M97.247,188.392L97.247,192.119C97.247,192.462 96.969,192.741 96.626,192.741L92.899,192.741C92.556,192.741 92.277,192.462 92.277,192.119L92.277,188.392C92.277,188.049 92.556,187.771 92.899,187.771L96.626,187.771C96.969,187.771 97.247,188.049 97.247,188.392Z" style="fill:white;"/>
            <rect x="93.52" y="189.013" width="2.485" height="2.485" style="fill:white;"/>
            <path d="M101.646,184.665L94.762,184.665L94.762,174.83L101.646,184.665Z" style="fill:white;fill-rule:nonzero;"/>
            <path d="M101.646,184.665L94.762,184.665L94.762,174.83L101.646,184.665Z" style="fill:white;fill-rule:nonzero;"/>
            <path d="M92.948,184.665L86.065,184.665L86.065,174.83L92.948,184.665Z" style="fill:white;fill-rule:nonzero;"/>
            <path d="M92.948,184.665L86.065,184.665L86.065,174.83L92.948,184.665Z" style="fill:white;fill-rule:nonzero;"/>
            <circle cx="188.844" cy="292.76" r="37.749" style="fill:rgb(1,54,124);"/>
            <circle cx="293.125" cy="185.247" r="37.749" style="fill:rgb(1,54,124);"/>
            <g>
                <g>
                    <path d="M185.751,166.733C192.583,166.733 206.248,166.733 213.08,175.175C219.913,183.617 219.913,200.502 213.08,217.386C213.08,217.387 213.079,217.387 213.079,217.388C208.785,228.756 197.902,236.279 185.75,236.279C173.598,236.279 162.716,228.756 158.422,217.388C158.422,217.387 158.421,217.387 158.421,217.386C151.589,200.502 151.589,183.617 158.421,175.175C165.253,166.733 178.918,166.733 185.751,166.733Z" style="fill:rgb(1,55,125);"/>
                    <path d="M185.141,194.783C185.283,194.589 185.51,194.474 185.751,194.474C185.992,194.474 186.218,194.589 186.36,194.783C187.584,196.453 190.287,200.142 191.056,201.192C191.188,201.372 191.234,201.601 191.181,201.818C190.661,203.948 187.844,215.48 186.485,221.045C186.402,221.383 186.099,221.621 185.751,221.621C185.402,221.621 185.099,221.383 185.016,221.045C183.657,215.48 180.841,203.948 180.32,201.818C180.267,201.601 180.313,201.372 180.445,201.192C181.215,200.142 183.917,196.453 185.141,194.783Z" style="fill:white;"/>
                    <path d="M185.751,182.752C186.624,182.752 188.371,182.752 189.245,183.831C190.118,184.91 190.118,187.069 189.245,189.228C189.244,189.229 189.244,189.231 189.243,189.232C188.694,190.684 187.303,191.645 185.75,191.645C184.198,191.645 182.807,190.684 182.258,189.232C182.258,189.231 182.257,189.229 182.256,189.228C181.383,187.069 181.383,184.91 182.256,183.831C183.13,182.752 184.877,182.752 185.751,182.752Z" style="fill:white;"/>
                    <path d="M185.751,141.008C189.58,141.008 197.24,141.008 201.07,145.74C204.9,150.472 204.9,159.937 201.07,169.402C201.07,169.402 201.07,169.403 201.069,169.404C198.662,175.776 192.562,179.993 185.75,179.993C178.939,179.993 172.839,175.776 170.432,169.404C170.431,169.403 170.431,169.402 170.431,169.402C166.601,159.937 166.601,150.472 170.431,145.74C174.261,141.008 181.921,141.008 185.751,141.008Z" style="fill:rgb(124,210,76);"/>
                </g>
            </g>
            <g>
                <path d="M297.345,190.517L297.345,192.523C297.345,193.076 296.896,193.526 296.342,193.526L290.008,193.526C289.455,193.526 289.005,193.076 289.005,192.523L289.005,190.517C289.005,189.964 289.455,189.514 290.008,189.514L296.342,189.514C296.896,189.514 297.345,189.964 297.345,190.517Z" style="fill:white;"/>
                <path d="M307.087,190.517L307.087,192.523C307.087,193.076 306.638,193.526 306.084,193.526L299.75,193.526C299.197,193.526 298.748,193.076 298.748,192.523L298.748,190.517C298.748,189.964 299.197,189.514 299.75,189.514L306.084,189.514C306.638,189.514 307.087,189.964 307.087,190.517Z" style="fill:white;"/>
                <path d="M277.889,190.517L277.889,192.523C277.889,193.076 277.439,193.526 276.886,193.526L270.552,193.526C269.999,193.526 269.549,193.076 269.549,192.523L269.549,190.517C269.549,189.964 269.999,189.514 270.552,189.514L276.886,189.514C277.439,189.514 277.889,189.964 277.889,190.517Z" style="fill:white;"/>
                <path d="M301.944,185.387L301.944,187.393C301.944,187.946 301.495,188.396 300.941,188.396L294.607,188.396C294.054,188.396 293.604,187.946 293.604,187.393L293.604,185.387C293.604,184.834 294.054,184.384 294.607,184.384L300.941,184.384C301.495,184.384 301.944,184.834 301.944,185.387Z" style="fill:white;"/>
                <path d="M292.37,185.387L292.37,187.393C292.37,187.946 291.92,188.396 291.367,188.396L285.033,188.396C284.479,188.396 284.03,187.946 284.03,187.393L284.03,185.387C284.03,184.834 284.479,184.384 285.033,184.384L291.367,184.384C291.92,184.384 292.37,184.834 292.37,185.387Z" style="fill:white;"/>
                <path d="M311.253,185.387L311.253,187.393C311.253,187.946 310.803,188.396 310.25,188.396L303.916,188.396C303.362,188.396 302.913,187.946 302.913,187.393L302.913,185.387C302.913,184.834 303.362,184.384 303.916,184.384L310.25,184.384C310.803,184.384 311.253,184.834 311.253,185.387Z" style="fill:white;"/>
                <path d="M316.7,190.517L316.7,192.523C316.7,193.076 316.251,193.526 315.697,193.526L309.363,193.526C308.81,193.526 308.36,193.076 308.36,192.523L308.36,190.517C308.36,189.964 308.81,189.514 309.363,189.514L315.697,189.514C316.251,189.514 316.7,189.964 316.7,190.517Z" style="fill:white;"/>
                <path d="M306.635,180.266L306.635,182.272C306.635,182.825 306.186,183.275 305.633,183.275L299.299,183.275C298.745,183.275 298.296,182.825 298.296,182.272L298.296,180.266C298.296,179.713 298.745,179.263 299.299,179.263L305.633,179.263C306.186,179.263 306.635,179.713 306.635,180.266Z" style="fill:white;"/>
                <path d="M297.163,180.266L297.163,182.272C297.163,182.825 296.713,183.275 296.16,183.275L289.826,183.275C289.273,183.275 288.823,182.825 288.823,182.272L288.823,180.266C288.823,179.713 289.273,179.263 289.826,179.263L296.16,179.263C296.713,179.263 297.163,179.713 297.163,180.266Z" style="fill:white;"/>
                <path d="M282.657,185.387L282.657,187.393C282.657,187.946 282.208,188.396 281.654,188.396L275.32,188.396C274.767,188.396 274.317,187.946 274.317,187.393L274.317,185.387C274.317,184.834 274.767,184.384 275.32,184.384L281.654,184.384C282.208,184.384 282.657,184.834 282.657,185.387Z" style="fill:white;"/>
                <path d="M287.552,190.517L287.552,192.523C287.552,193.076 287.103,193.526 286.549,193.526L280.216,193.526C279.662,193.526 279.213,193.076 279.213,192.523L279.213,190.517C279.213,189.964 279.662,189.514 280.216,189.514L286.549,189.514C287.103,189.514 287.552,189.964 287.552,190.517Z" style="fill:white;"/>
                <path d="M301.944,175.15L301.944,177.156C301.944,177.709 301.495,178.159 300.941,178.159L294.607,178.159C294.054,178.159 293.604,177.709 293.604,177.156L293.604,175.15C293.604,174.597 294.054,174.147 294.607,174.147L300.941,174.147C301.495,174.147 301.944,174.597 301.944,175.15Z" style="fill:white;"/>
            </g>
            <path d="M195.98,277.688L195.98,308.693C195.98,310.662 194.381,312.261 192.412,312.261L185.276,312.261C183.307,312.261 181.708,310.662 181.708,308.693L181.708,277.688C181.708,275.719 183.307,274.12 185.276,274.12L192.412,274.12C194.381,274.12 195.98,275.719 195.98,277.688Z" style="fill:white;"/>
            <path d="M204.346,300.327L173.342,300.327C171.372,300.327 169.774,298.728 169.774,296.758L169.774,289.622C169.774,287.653 171.372,286.054 173.342,286.054L204.346,286.054C206.315,286.054 207.914,287.653 207.914,289.622L207.914,296.758C207.914,298.728 206.315,300.327 204.346,300.327Z" style="fill:white;"/>
            <g id="Guides">
                <path id="path1278" d="M185.655,71.744C184.814,71.744 184.046,72.017 183.428,72.543C182.81,73.069 182.328,73.918 182.328,74.902C182.328,74.942 182.34,74.979 182.342,75.02L174.214,75.02C173.53,75.02 173.072,75.481 173.004,76.164L173.004,80.162L185.223,84.786C185.759,83.759 186.808,83.049 188.024,83.026C188.045,83.019 188.062,83.012 188.083,83.012L189.522,83.012C189.546,83.012 189.568,83.026 189.591,83.026C190.806,83.053 191.853,83.765 192.385,84.793L204.715,79.913L204.715,76.23C204.684,75.511 204.192,75.02 203.477,75.02L195.356,75.02C195.358,74.979 195.37,74.942 195.37,74.902C195.37,73.918 194.888,73.069 194.27,72.543C193.652,72.018 192.884,71.744 192.043,71.744L185.655,71.744ZM185.655,74.138L192.043,74.138C192.495,74.138 192.867,74.312 193.081,74.494C193.294,74.675 193.323,74.798 193.323,74.902C193.323,74.946 193.305,74.98 193.299,75.02C193.912,75.02 194.267,75.019 195.097,75.02C194.902,75.358 194.62,75.655 194.284,75.874C193.661,76.279 192.884,76.476 192.043,76.476L185.655,76.476C184.814,76.476 184.038,76.28 183.414,75.874C183.078,75.655 182.796,75.358 182.601,75.02C183.637,75.02 183.64,75.02 184.4,75.02C184.394,74.98 184.376,74.946 184.376,74.902C184.376,74.798 184.404,74.675 184.618,74.494C184.831,74.312 185.203,74.138 185.655,74.138ZM204.725,82.061L192.766,86.799L192.766,87.83C192.766,89.629 191.3,91.112 189.518,91.112L188.083,91.112C186.302,91.112 184.839,89.629 184.839,87.83L184.839,86.792L172.966,82.289L172.966,97.839C172.966,98.455 173.519,99.112 174.211,99.112L203.48,99.112C204.173,99.112 204.725,98.454 204.725,97.839L204.725,82.061ZM188.083,85.018L188.083,85.022C187.97,85.022 187.873,85.057 187.772,85.077C187.716,85.09 187.654,85.081 187.602,85.108C187.175,85.275 186.897,85.668 186.855,86.187C186.85,86.251 186.838,86.315 186.821,86.377L186.821,87.837C186.821,88.584 187.343,89.11 188.083,89.11L189.518,89.11C190.258,89.11 190.781,88.584 190.781,87.837L190.781,86.381C190.765,86.322 190.755,86.262 190.75,86.201C190.712,85.673 190.438,85.274 190.006,85.108C189.862,85.054 189.697,85.018 189.522,85.018L188.083,85.018Z" style="fill:white;fill-rule:nonzero;"/>
            </g>
        </g>
    </g>
</svg>
