<?xml version="1.0" encoding="UTF-8" standalone="no"?>
<!DOCTYPE svg PUBLIC "-//W3C//DTD SVG 1.1//EN" "http://www.w3.org/Graphics/SVG/1.1/DTD/svg11.dtd">
<svg width="100%" height="100%" viewBox="0 0 379 379" version="1.1" xmlns="http://www.w3.org/2000/svg" xmlns:xlink="http://www.w3.org/1999/xlink" xml:space="preserve" xmlns:serif="http://www.serif.com/" style="fill-rule:evenodd;clip-rule:evenodd;stroke-linejoin:round;stroke-miterlimit:0.73;">
    <g>
        <g>
            <path d="M378.185,94.721L378.185,283.697C378.185,335.846 335.846,378.185 283.697,378.185L94.721,378.185C42.571,378.185 0.232,335.846 0.232,283.697L0.232,94.721C0.232,42.571 42.571,0.232 94.721,0.232L283.697,0.232C335.846,0.232 378.185,42.571 378.185,94.721Z" style="fill:white;stroke:white;stroke-width:0.46px;"/>
            <path d="M204.681,307.78L174.252,307.78C174.252,276.631 149.001,251.379 117.852,251.379L117.852,220.95C165.806,220.95 204.681,259.825 204.681,307.78Z" style="fill:rgb(124,210,76);"/>
            <path d="M261.262,220.95L261.262,251.379C230.113,251.379 204.861,276.631 204.861,307.78L174.432,307.78C174.432,259.825 213.307,220.95 261.262,220.95Z" style="fill:rgb(1,55,125);"/>
            <path d="M195.063,70.962L197.268,81.681C201.535,82.333 205.718,83.452 209.74,85.018L217.016,76.836C221.088,78.684 224.971,80.923 228.611,83.52L225.153,93.903C228.522,96.599 231.584,99.656 234.283,103.02L244.682,99.567C247.282,103.201 249.524,107.078 251.376,111.144L243.182,118.411C244.75,122.427 245.87,126.603 246.523,130.864L257.258,133.066C257.691,137.511 257.691,141.988 257.258,146.434L246.523,148.636C245.87,152.897 244.75,157.073 243.182,161.089L251.376,168.355C249.524,172.421 247.282,176.298 244.682,179.932L234.283,176.48C231.584,179.844 228.522,182.901 225.153,185.596L228.611,195.98C224.971,198.577 221.088,200.815 217.016,202.664L209.74,194.482C205.718,196.048 201.535,197.167 197.268,197.819L195.063,208.538C190.611,208.97 186.127,208.97 181.675,208.538L179.47,197.819C175.203,197.167 171.02,196.048 166.998,194.482L159.722,202.664C155.65,200.815 151.767,198.577 148.127,195.98L151.585,185.596C148.216,182.901 145.154,179.844 142.455,176.48L132.056,179.932C129.456,176.298 127.214,172.421 125.362,168.355L133.556,161.089C131.988,157.073 130.868,152.897 130.215,148.636L119.48,146.434C119.047,141.988 119.047,137.511 119.48,133.066L130.215,130.864C130.868,126.603 131.988,122.427 133.556,118.411L125.362,111.144C127.214,107.078 129.456,103.201 132.056,99.567L142.455,103.02C145.154,99.656 148.216,96.599 151.585,93.903L148.127,83.52C151.767,80.923 155.65,78.684 159.722,76.836L166.998,85.018C171.02,83.452 175.203,82.333 179.47,81.681L181.675,70.962C186.127,70.53 190.611,70.53 195.063,70.962ZM188.369,101.84C209.323,101.84 226.334,118.827 226.334,139.75C226.334,160.673 209.323,177.659 188.369,177.659C167.415,177.659 150.404,160.673 150.404,139.75C150.404,118.827 167.415,101.84 188.369,101.84Z" style="fill:rgb(1,55,125);"/>
            <path d="M188.369,126.336C192.552,126.336 200.917,126.336 205.099,131.505C209.282,136.673 209.282,147.009 205.099,157.345C205.099,157.346 205.099,157.347 205.098,157.348C202.469,164.307 195.807,168.912 188.369,168.912C180.93,168.912 174.268,164.307 171.639,157.348C171.639,157.347 171.639,157.346 171.638,157.345C167.456,147.009 167.456,136.673 171.638,131.505C175.821,126.336 184.186,126.336 188.369,126.336Z" style="fill:rgb(1,55,125);"/>
            <path d="M187.759,143.831C187.902,143.637 188.128,143.522 188.369,143.522C188.61,143.522 188.836,143.637 188.979,143.831C189.749,144.883 191.036,146.638 191.536,147.321C191.668,147.501 191.714,147.731 191.661,147.948C191.314,149.369 189.963,154.899 189.103,158.419C189.021,158.757 188.717,158.995 188.369,158.995C188.021,158.995 187.717,158.757 187.635,158.419C186.775,154.899 185.424,149.369 185.077,147.948C185.024,147.731 185.07,147.501 185.202,147.321C185.702,146.638 186.989,144.883 187.759,143.831Z" style="fill:white;"/>
            <path d="M188.369,136.143C188.904,136.143 189.973,136.143 190.508,136.803C191.043,137.464 191.043,138.786 190.508,140.107C190.508,140.108 190.507,140.109 190.507,140.11C190.171,140.999 189.319,141.587 188.369,141.587C187.419,141.587 186.567,140.999 186.231,140.11C186.231,140.109 186.23,140.108 186.23,140.107C185.695,138.786 185.695,137.464 186.23,136.803C186.765,136.143 187.834,136.143 188.369,136.143Z" style="fill:white;"/>
            <path d="M188.369,110.588C190.714,110.588 195.403,110.588 197.747,113.485C200.092,116.382 200.092,122.176 197.747,127.97C197.747,127.97 197.747,127.971 197.747,127.971C196.274,131.872 192.539,134.453 188.369,134.453C184.199,134.453 180.464,131.872 178.991,127.971C178.991,127.971 178.991,127.97 178.991,127.97C176.646,122.176 176.646,116.382 178.991,113.485C181.335,110.588 186.024,110.588 188.369,110.588Z" style="fill:rgb(124,210,76);"/>
            <path d="M298.348,229.361C300.753,231.217 302.142,234.1 302.095,237.137C302.049,240.175 300.572,243.014 298.111,244.795C290.818,250.076 280.955,257.218 272.734,263.17C269.78,265.31 265.87,265.597 262.634,263.914C259.398,262.23 257.39,258.863 257.446,255.216C257.622,243.727 257.846,229.184 258.023,217.695C258.079,214.047 260.19,210.744 263.476,209.16C266.763,207.577 270.661,207.985 273.549,210.214C281.583,216.416 291.222,223.858 298.348,229.361Z" style="fill:rgb(124,210,76);"/>
            <path d="M80.069,229.361C77.664,231.217 76.276,234.1 76.322,237.137C76.369,240.175 77.846,243.014 80.307,244.795C87.599,250.076 97.463,257.218 105.683,263.17C108.638,265.31 112.547,265.597 115.784,263.914C119.02,262.23 121.028,258.863 120.972,255.216C120.795,243.727 120.572,229.184 120.395,217.695C120.339,214.047 118.228,210.744 114.941,209.16C111.655,207.577 107.756,207.985 104.869,210.214C96.835,216.416 87.196,223.858 80.069,229.361Z" style="fill:rgb(1,55,125);"/>
        </g>
    </g>
</svg>
