<?xml version="1.0" encoding="UTF-8" standalone="no"?>
<!DOCTYPE svg PUBLIC "-//W3C//DTD SVG 1.1//EN" "http://www.w3.org/Graphics/SVG/1.1/DTD/svg11.dtd">
<svg width="100%" height="100%" viewBox="0 0 494 494" version="1.1" xmlns="http://www.w3.org/2000/svg" xmlns:xlink="http://www.w3.org/1999/xlink" xml:space="preserve" xmlns:serif="http://www.serif.com/" style="fill-rule:evenodd;clip-rule:evenodd;stroke-linejoin:round;stroke-miterlimit:0.73;">
    <g>
        <g>
            <g style="filter:url(#_Effect1);">
                <path d="M435.953,152.488L435.953,341.465C435.953,393.614 393.614,435.953 341.465,435.953L152.488,435.953C100.339,435.953 58,393.614 58,341.465L58,152.488C58,100.339 100.339,58 152.488,58L341.465,58C393.614,58 435.953,100.339 435.953,152.488Z" style="fill:none;stroke:rgb(1,55,125);stroke-opacity:0.2;stroke-width:20px;"/>
            </g>
            <path d="M435.953,152.488L435.953,341.465C435.953,393.614 393.614,435.953 341.465,435.953L152.488,435.953C100.339,435.953 58,393.614 58,341.465L58,152.488C58,100.339 100.339,58 152.488,58L341.465,58C393.614,58 435.953,100.339 435.953,152.488Z" style="fill:white;stroke:white;stroke-width:0.46px;"/>
        </g>
        <g>
            <path d="M317.357,177.038L317.357,231.851C317.357,246.978 305.077,259.258 289.95,259.258L172.227,259.258C157.101,259.258 144.82,246.978 144.82,231.851L144.82,177.038C144.82,161.911 157.101,149.631 172.227,149.631L289.95,149.631C305.077,149.631 317.357,161.911 317.357,177.038Z" style="fill:none;stroke:rgb(1,55,125);stroke-width:42.44px;stroke-linecap:round;stroke-miterlimit:0.348837;"/>
            <path d="M317.357,177.038L317.357,231.851C317.357,246.978 305.077,259.258 289.95,259.258L172.227,259.258C157.101,259.258 144.82,246.978 144.82,231.851L144.82,177.038C144.82,161.911 157.101,149.631 172.227,149.631L289.95,149.631C305.077,149.631 317.357,161.911 317.357,177.038Z" style="fill:white;"/>
            <path d="M240.825,270.838L213.181,318.718C211.051,322.408 206.326,323.674 202.636,321.544C198.947,319.414 197.681,314.688 199.811,310.999L227.455,263.118C229.585,259.429 234.31,258.162 238,260.293C241.689,262.423 242.956,267.148 240.825,270.838Z" style="fill:rgb(1,55,125);"/>
            <path d="M234.723,263.118L262.367,310.999C264.497,314.688 263.231,319.414 259.541,321.544C255.852,323.674 251.127,322.408 248.996,318.718L221.352,270.838C219.222,267.148 220.488,262.423 224.178,260.293C227.868,258.162 232.593,259.429 234.723,263.118Z" style="fill:rgb(1,55,125);"/>
            <path d="M179.266,190.641L179.837,193.421C180.942,193.59 182.026,193.88 183.067,194.287L184.952,192.165C186.006,192.644 187.012,193.225 187.954,193.898L187.059,196.591C187.931,197.29 188.724,198.083 189.423,198.956L192.117,198.06C192.79,199.003 193.371,200.008 193.85,201.063L191.728,202.947C192.134,203.989 192.424,205.072 192.594,206.177L195.374,206.748C195.486,207.901 195.486,209.063 195.374,210.216L192.594,210.787C192.424,211.892 192.134,212.975 191.728,214.017L193.85,215.901C193.371,216.956 192.79,217.961 192.117,218.904L189.423,218.008C188.724,218.881 187.931,219.674 187.059,220.373L187.954,223.066C187.012,223.739 186.006,224.32 184.952,224.799L183.067,222.677C182.026,223.084 180.942,223.374 179.837,223.543L179.266,226.323C178.113,226.435 176.952,226.435 175.799,226.323L175.228,223.543C174.123,223.374 173.04,223.084 171.998,222.677L170.114,224.799C169.059,224.32 168.053,223.739 167.111,223.066L168.006,220.373C167.134,219.674 166.341,218.881 165.642,218.008L162.949,218.904C162.275,217.961 161.695,216.956 161.215,215.901L163.337,214.017C162.931,212.975 162.641,211.892 162.472,210.787L159.692,210.216C159.58,209.063 159.58,207.901 159.692,206.748L162.472,206.177C162.641,205.072 162.931,203.989 163.337,202.947L161.215,201.063C161.695,200.008 162.275,199.003 162.949,198.06L165.642,198.956C166.341,198.083 167.134,197.29 168.006,196.591L167.111,193.898C168.053,193.225 169.059,192.644 170.114,192.165L171.998,194.287C173.04,193.88 174.123,193.59 175.228,193.421L175.799,190.641C176.952,190.529 178.113,190.529 179.266,190.641ZM177.533,201.427C181.426,201.427 184.587,204.588 184.587,208.482C184.587,212.376 181.426,215.537 177.533,215.537C173.639,215.537 170.478,212.376 170.478,208.482C170.478,204.588 173.639,201.427 177.533,201.427Z" style="fill:rgb(1,55,125);"/>
            <path d="M268.891,163.351L269.462,166.131C270.567,166.3 271.65,166.591 272.692,166.997L274.576,164.875C275.631,165.354 276.637,165.935 277.579,166.608L276.684,169.301C277.556,170 278.349,170.793 279.048,171.666L281.741,170.77C282.415,171.713 282.995,172.718 283.475,173.773L281.353,175.658C281.759,176.699 282.049,177.782 282.218,178.887L284.998,179.459C285.11,180.612 285.11,181.773 284.998,182.926L282.218,183.497C282.049,184.602 281.759,185.685 281.353,186.727L283.475,188.611C282.995,189.666 282.415,190.671 281.741,191.614L279.048,190.718C278.349,191.591 277.556,192.384 276.684,193.083L277.579,195.776C276.637,196.45 275.631,197.03 274.576,197.51L272.692,195.388C271.65,195.794 270.567,196.084 269.462,196.253L268.891,199.033C267.738,199.145 266.577,199.145 265.424,199.033L264.853,196.253C263.748,196.084 262.664,195.794 261.623,195.388L259.738,197.51C258.684,197.03 257.678,196.45 256.735,195.776L257.631,193.083C256.758,192.384 255.966,191.591 255.266,190.718L252.573,191.614C251.9,190.671 251.319,189.666 250.84,188.611L252.962,186.727C252.556,185.685 252.266,184.602 252.096,183.497L249.316,182.926C249.204,181.773 249.204,180.612 249.316,179.459L252.096,178.887C252.266,177.782 252.556,176.699 252.962,175.658L250.84,173.773C251.319,172.718 251.9,171.713 252.573,170.77L255.266,171.666C255.966,170.793 256.758,170 257.631,169.301L256.735,166.608C257.678,165.935 258.684,165.354 259.738,164.875L261.623,166.997C262.664,166.591 263.748,166.3 264.853,166.131L265.424,163.351C266.577,163.239 267.738,163.239 268.891,163.351ZM267.157,174.137C271.051,174.137 274.212,177.299 274.212,181.192C274.212,185.086 271.051,188.247 267.157,188.247C263.264,188.247 260.103,185.086 260.103,181.192C260.103,177.299 263.264,174.137 267.157,174.137Z" style="fill:rgb(124,210,76);"/>
            <path d="M283.577,208.566L284.148,211.346C285.253,211.515 286.336,211.805 287.378,212.211L289.262,210.089C290.317,210.569 291.322,211.15 292.265,211.823L291.369,214.516C292.242,215.215 293.035,216.008 293.734,216.881L296.427,215.985C297.101,216.928 297.681,217.933 298.161,218.988L296.039,220.872C296.445,221.914 296.735,222.997 296.904,224.102L299.684,224.673C299.796,225.826 299.796,226.987 299.684,228.141L296.904,228.712C296.735,229.817 296.445,230.9 296.039,231.941L298.161,233.826C297.681,234.881 297.101,235.886 296.427,236.829L293.734,235.933C293.035,236.806 292.242,237.599 291.369,238.298L292.265,240.991C291.322,241.664 290.317,242.245 289.262,242.724L287.378,240.602C286.336,241.008 285.253,241.299 284.148,241.468L283.577,244.248C282.424,244.36 281.263,244.36 280.11,244.248L279.538,241.468C278.433,241.299 277.35,241.008 276.309,240.602L274.424,242.724C273.369,242.245 272.364,241.664 271.421,240.991L272.317,238.298C271.444,237.599 270.651,236.806 269.952,235.933L267.259,236.829C266.586,235.886 266.005,234.881 265.526,233.826L267.648,231.941C267.242,230.9 266.951,229.817 266.782,228.712L264.002,228.141C263.89,226.987 263.89,225.826 264.002,224.673L266.782,224.102C266.951,222.997 267.242,221.914 267.648,220.872L265.526,218.988C266.005,217.933 266.586,216.928 267.259,215.985L269.952,216.881C270.651,216.008 271.444,215.215 272.317,214.516L271.421,211.823C272.364,211.15 273.369,210.569 274.424,210.089L276.309,212.211C277.35,211.805 278.433,211.515 279.538,211.346L280.11,208.566C281.263,208.454 282.424,208.454 283.577,208.566ZM281.843,219.352C285.737,219.352 288.898,222.513 288.898,226.407C288.898,230.3 285.737,233.462 281.843,233.462C277.95,233.462 274.788,230.3 274.788,226.407C274.788,222.513 277.95,219.352 281.843,219.352Z" style="fill:rgb(1,55,125);"/>
            <path d="M228.541,208.566L229.112,211.346C230.217,211.515 231.3,211.805 232.341,212.211L234.226,210.089C235.281,210.569 236.286,211.15 237.229,211.823L236.333,214.516C237.206,215.215 237.999,216.008 238.698,216.881L241.391,215.985C242.064,216.928 242.645,217.933 243.124,218.988L241.002,220.872C241.408,221.914 241.699,222.997 241.868,224.102L244.648,224.673C244.76,225.826 244.76,226.987 244.648,228.141L241.868,228.712C241.699,229.817 241.408,230.9 241.002,231.941L243.124,233.826C242.645,234.881 242.064,235.886 241.391,236.829L238.698,235.933C237.999,236.806 237.206,237.599 236.333,238.298L237.229,240.991C236.286,241.664 235.281,242.245 234.226,242.724L232.341,240.602C231.3,241.008 230.217,241.299 229.112,241.468L228.541,244.248C227.387,244.36 226.226,244.36 225.073,244.248L224.502,241.468C223.397,241.299 222.314,241.008 221.272,240.602L219.388,242.724C218.333,242.245 217.328,241.664 216.385,240.991L217.281,238.298C216.408,237.599 215.615,236.806 214.916,235.933L212.223,236.829C211.55,235.886 210.969,234.881 210.489,233.826L212.611,231.941C212.205,230.9 211.915,229.817 211.746,228.712L208.966,228.141C208.854,226.987 208.854,225.826 208.966,224.673L211.746,224.102C211.915,222.997 212.205,221.914 212.611,220.872L210.489,218.988C210.969,217.933 211.55,216.928 212.223,215.985L214.916,216.881C215.615,216.008 216.408,215.215 217.281,214.516L216.385,211.823C217.328,211.15 218.333,210.569 219.388,210.089L221.272,212.211C222.314,211.805 223.397,211.515 224.502,211.346L225.073,208.566C226.226,208.454 227.387,208.454 228.541,208.566ZM226.807,219.352C230.7,219.352 233.862,222.513 233.862,226.407C233.862,230.3 230.7,233.462 226.807,233.462C222.913,233.462 219.752,230.3 219.752,226.407C219.752,222.513 222.913,219.352 226.807,219.352Z" style="fill:rgb(124,210,76);"/>
            <path d="M217.67,156.297L218.241,159.077C219.346,159.246 220.43,159.536 221.471,159.942L223.356,157.82C224.41,158.299 225.416,158.88 226.358,159.554L225.463,162.247C226.335,162.946 227.128,163.739 227.827,164.611L230.521,163.716C231.194,164.658 231.775,165.664 232.254,166.718L230.132,168.603C230.538,169.645 230.828,170.728 230.998,171.833L233.778,172.404C233.89,173.557 233.89,174.718 233.778,175.871L230.998,176.442C230.828,177.547 230.538,178.63 230.132,179.672L232.254,181.557C231.775,182.611 231.194,183.617 230.521,184.559L227.827,183.664C227.128,184.536 226.335,185.329 225.463,186.028L226.358,188.721C225.416,189.395 224.41,189.975 223.356,190.455L221.471,188.333C220.43,188.739 219.346,189.029 218.241,189.198L217.67,191.978C216.517,192.09 215.356,192.09 214.203,191.978L213.632,189.198C212.527,189.029 211.444,188.739 210.402,188.333L208.518,190.455C207.463,189.975 206.457,189.395 205.515,188.721L206.41,186.028C205.538,185.329 204.745,184.536 204.046,183.664L201.353,184.559C200.679,183.617 200.099,182.611 199.619,181.557L201.741,179.672C201.335,178.63 201.045,177.547 200.876,176.442L198.096,175.871C197.984,174.718 197.984,173.557 198.096,172.404L200.876,171.833C201.045,170.728 201.335,169.645 201.741,168.603L199.619,166.718C200.099,165.664 200.679,164.658 201.353,163.716L204.046,164.611C204.745,163.739 205.538,162.946 206.41,162.247L205.515,159.554C206.457,158.88 207.463,158.299 208.518,157.82L210.402,159.942C211.444,159.536 212.527,159.246 213.632,159.077L214.203,156.297C215.356,156.185 216.517,156.185 217.67,156.297ZM215.937,167.083C219.83,167.083 222.991,170.244 222.991,174.137C222.991,178.031 219.83,181.192 215.937,181.192C212.043,181.192 208.882,178.031 208.882,174.137C208.882,170.244 212.043,167.083 215.937,167.083Z" style="fill:rgb(124,210,76);"/>
        </g>
        <g>
            <g>
                <path d="M334.285,246.014C345.325,246.014 367.405,246.014 378.446,259.656C389.487,273.297 389.487,300.58 378.446,327.863C375.295,336.205 370.126,344.548 363.986,352.427C356.846,361.576 345.889,366.923 334.285,366.923C322.68,366.923 311.723,361.576 304.583,352.427C298.443,344.547 293.274,336.205 290.123,327.863C279.083,300.58 279.083,273.297 290.123,259.656C301.164,246.014 323.244,246.014 334.285,246.014Z" style="fill:rgb(1,55,125);"/>
                <path d="M333.675,290.827C333.817,290.633 334.044,290.518 334.285,290.518C334.526,290.518 334.752,290.633 334.895,290.827C336.687,293.273 341.881,300.363 342.986,301.871C343.118,302.051 343.164,302.28 343.111,302.497C342.377,305.503 337.004,327.5 335.019,335.627C334.936,335.966 334.633,336.204 334.285,336.204C333.936,336.204 333.633,335.966 333.55,335.627C331.566,327.5 326.193,305.503 325.459,302.497C325.406,302.28 325.451,302.051 325.583,301.871C326.688,300.363 331.883,293.273 333.675,290.827Z" style="fill:white;"/>
                <path d="M334.285,271.898C335.696,271.898 338.519,271.898 339.931,273.642C341.342,275.386 341.342,278.875 339.931,282.363C339.931,282.363 339.93,282.364 339.93,282.364C339.043,284.713 336.795,286.266 334.285,286.266C331.774,286.266 329.526,284.713 328.639,282.364C328.639,282.364 328.639,282.363 328.639,282.363C327.227,278.875 327.227,275.386 328.639,273.642C330.05,271.898 332.873,271.898 334.285,271.898Z" style="fill:white;"/>
                <path d="M334.285,204.445C340.473,204.445 352.851,204.445 359.04,212.091C365.229,219.738 365.229,235.032 359.04,250.326C359.039,250.327 359.039,250.328 359.039,250.329C355.149,260.625 345.292,267.439 334.285,267.439C323.278,267.439 313.42,260.625 309.53,250.329C309.53,250.328 309.53,250.327 309.53,250.326C303.341,235.032 303.341,219.738 309.53,212.091C315.718,204.445 328.096,204.445 334.285,204.445Z" style="fill:rgb(124,210,76);"/>
            </g>
        </g>
    </g>
    <defs>
        <filter id="_Effect1" filterUnits="userSpaceOnUse" x="-48" y="-48" width="589.953" height="589.953">
            <feGaussianBlur in="SourceGraphic" stdDeviation="16"/>
        </filter>
    </defs>
</svg>
