<?xml version="1.0" encoding="UTF-8" standalone="no"?>
<!DOCTYPE svg PUBLIC "-//W3C//DTD SVG 1.1//EN" "http://www.w3.org/Graphics/SVG/1.1/DTD/svg11.dtd">
<svg width="100%" height="100%" viewBox="0 0 379 379" version="1.1" xmlns="http://www.w3.org/2000/svg" xmlns:xlink="http://www.w3.org/1999/xlink" xml:space="preserve" xmlns:serif="http://www.serif.com/" style="fill-rule:evenodd;clip-rule:evenodd;stroke-linejoin:round;stroke-miterlimit:0.73;">
    <g>
        <g>
            <path d="M378.185,94.721L378.185,283.697C378.185,335.846 335.846,378.185 283.697,378.185L94.721,378.185C42.571,378.185 0.232,335.846 0.232,283.697L0.232,94.721C0.232,42.571 42.571,0.232 94.721,0.232L283.697,0.232C335.846,0.232 378.185,42.571 378.185,94.721Z" style="fill:white;stroke:white;stroke-width:0.46px;"/>
        </g>
        <g>
            <circle cx="183.823" cy="178.959" r="99.434" style="fill:none;stroke:rgb(1,55,125);stroke-width:26.13px;stroke-linecap:round;stroke-miterlimit:0.348837;"/>
            <circle cx="183.823" cy="178.959" r="99.434" style="fill:white;"/>
            <path d="M207.867,79.884C206.903,82.039 206.15,84.265 205.608,86.563C207.471,87.003 209.32,87.498 211.153,88.049C211.833,85.788 212.294,83.483 212.537,81.135C228.138,85.714 242.417,93.958 254.184,105.18C252.271,106.564 250.505,108.116 248.887,109.835C250.281,111.147 251.635,112.5 252.947,113.894C254.666,112.276 256.218,110.51 257.602,108.598C268.823,120.364 277.067,134.644 281.647,150.245C279.298,150.487 276.993,150.948 274.732,151.628C275.283,153.461 275.779,155.31 276.218,157.173C278.516,156.631 280.743,155.878 282.898,154.914C286.732,170.714 286.732,187.203 282.898,203.004C280.743,202.039 278.516,201.286 276.218,200.744C275.779,202.607 275.283,204.457 274.732,206.29C276.993,206.969 279.298,207.43 281.647,207.673C277.067,223.274 268.823,237.553 257.602,249.32C256.218,247.407 254.666,245.642 252.947,244.023C251.635,245.417 250.281,246.771 248.887,248.083C250.505,249.802 252.271,251.354 254.184,252.738C242.417,263.959 228.138,272.203 212.537,276.783C212.294,274.434 211.833,272.129 211.153,269.868C209.32,270.419 207.471,270.915 205.608,271.354C206.15,273.652 206.903,275.879 207.867,278.034C192.067,281.869 175.578,281.869 159.778,278.034C160.742,275.879 161.495,273.652 162.037,271.354C160.174,270.915 158.325,270.419 156.492,269.868C155.812,272.129 155.351,274.434 155.108,276.783C139.507,272.203 125.228,263.959 113.462,252.738C115.374,251.354 117.14,249.802 118.758,248.083C117.364,246.771 116.01,245.417 114.699,244.023C112.979,245.642 111.428,247.407 110.043,249.32C98.822,237.553 90.578,223.274 85.999,207.673C88.347,207.43 90.652,206.969 92.913,206.29C92.362,204.457 91.866,202.607 91.427,200.744C89.129,201.286 86.903,202.039 84.747,203.004C80.913,187.203 80.913,170.714 84.747,154.914C86.903,155.878 89.129,156.631 91.427,157.173C91.866,155.31 92.362,153.461 92.913,151.628C90.652,150.948 88.347,150.487 85.999,150.245C90.578,134.644 98.822,120.364 110.043,108.598C111.428,110.51 112.979,112.276 114.699,113.894C116.01,112.5 117.364,111.147 118.758,109.835C117.14,108.116 115.374,106.564 113.462,105.18C125.228,93.958 139.507,85.714 155.108,81.135C155.351,83.483 155.812,85.788 156.492,88.049C158.325,87.498 160.174,87.003 162.037,86.563C161.495,84.265 160.742,82.039 159.778,79.884C175.578,76.049 192.067,76.049 207.867,79.884Z" style="fill:rgb(1,55,125);"/>
            <path d="M208.38,301.41L195.794,190.914L296.546,237.996C280.178,273.023 246.794,297.035 208.38,301.41Z" style="fill:none;stroke:white;stroke-width:12.3px;stroke-linecap:round;stroke-miterlimit:0.348837;"/>
            <path d="M208.38,301.41L195.794,190.914L296.546,237.996C280.178,273.023 246.794,297.035 208.38,301.41Z" style="fill:rgb(124,210,76);"/>
            <path d="M162.597,141.375L187.757,184.952C190.588,189.855 188.905,196.135 184.001,198.966C179.098,201.797 172.818,200.114 169.987,195.211L144.828,151.634C141.997,146.73 143.68,140.451 148.583,137.619C153.487,134.788 159.766,136.471 162.597,141.375Z" style="fill:white;"/>
            <path d="M218.713,167.132L187.384,198.462C183.38,202.465 176.879,202.465 172.875,198.462C168.871,194.458 168.871,187.957 172.875,183.953L204.204,152.624C208.208,148.62 214.709,148.62 218.713,152.624C222.717,156.628 222.717,163.129 218.713,167.132Z" style="fill:white;"/>
        </g>
    </g>
</svg>
