<?xml version="1.0" encoding="UTF-8" standalone="no"?>
<!DOCTYPE svg PUBLIC "-//W3C//DTD SVG 1.1//EN" "http://www.w3.org/Graphics/SVG/1.1/DTD/svg11.dtd">
<svg width="100%" height="100%" viewBox="0 0 379 379" version="1.1" xmlns="http://www.w3.org/2000/svg" xmlns:xlink="http://www.w3.org/1999/xlink" xml:space="preserve" xmlns:serif="http://www.serif.com/" style="fill-rule:evenodd;clip-rule:evenodd;stroke-linejoin:round;stroke-miterlimit:0.73;">
    <g>
        <g>
            <path d="M378.185,94.721L378.185,283.697C378.185,335.846 335.846,378.185 283.697,378.185L94.721,378.185C42.571,378.185 0.232,335.846 0.232,283.697L0.232,94.721C0.232,42.571 42.571,0.232 94.721,0.232L283.697,0.232C335.846,0.232 378.185,42.571 378.185,94.721Z" style="fill:white;stroke:white;stroke-width:0.46px;"/>
        </g>
        <g>
            <g>
                <g>
                    <path d="M189.209,190.252C200.787,190.252 223.944,190.252 235.523,204.559C247.102,218.865 247.102,247.479 235.523,276.092C231.902,285.679 225.739,295.266 218.48,304.215C211.325,313.04 200.57,318.166 189.209,318.166C177.847,318.166 167.092,313.04 159.938,304.215C152.678,295.266 146.516,285.679 142.895,276.092C131.316,247.479 131.316,218.865 142.895,204.559C154.473,190.252 177.63,190.252 189.209,190.252Z" style="fill:rgb(1,55,125);"/>
                    <path d="M188.599,237.21C188.741,237.015 188.968,236.901 189.209,236.901C189.45,236.901 189.676,237.015 189.819,237.21C191.675,239.744 197.202,247.286 198.345,248.846C198.477,249.026 198.522,249.255 198.469,249.472C197.711,252.577 191.999,275.964 189.943,284.38C189.86,284.719 189.557,284.957 189.209,284.957C188.86,284.957 188.557,284.719 188.475,284.38C186.419,275.964 180.707,252.577 179.948,249.472C179.896,249.255 179.941,249.026 180.073,248.846C181.216,247.286 186.742,239.744 188.599,237.21Z" style="fill:white;"/>
                    <path d="M189.209,217.398C190.689,217.398 193.65,217.398 195.13,219.227C196.61,221.057 196.61,224.715 195.13,228.373C195.13,228.374 195.129,228.376 195.129,228.377C194.198,230.839 191.841,232.468 189.209,232.468C186.577,232.468 184.22,230.839 183.289,228.377C183.289,228.376 183.288,228.374 183.288,228.373C181.807,224.715 181.807,221.057 183.288,219.227C184.768,217.398 187.728,217.398 189.209,217.398Z" style="fill:white;"/>
                    <path d="M189.209,146.657C195.699,146.657 208.68,146.657 215.17,154.676C221.661,162.696 221.661,178.735 215.17,194.775C215.17,194.775 215.17,194.775 215.17,194.775C211.091,205.575 200.753,212.721 189.209,212.721C177.664,212.721 167.326,205.575 163.247,194.775C163.247,194.775 163.247,194.775 163.247,194.775C156.757,178.735 156.757,162.696 163.247,154.676C169.737,146.657 182.718,146.657 189.209,146.657Z" style="fill:rgb(124,210,76);"/>
                </g>
            </g>
            <path d="M189.209,60.251L196.875,83.844L221.681,83.844L201.612,98.425L209.278,122.018L189.209,107.437L169.14,122.018L176.805,98.425L156.736,83.844L181.543,83.844L189.209,60.251Z" style="fill:rgb(1,54,124);"/>
            <path d="M124.979,101.429L130.09,117.157L146.628,117.157L133.248,126.878L138.359,142.606L124.979,132.886L111.6,142.606L116.711,126.878L103.331,117.157L119.869,117.157L124.979,101.429Z" style="fill:rgb(1,54,124);"/>
            <path d="M253.438,101.429L258.549,117.157L275.087,117.157L261.707,126.878L266.818,142.606L253.438,132.886L240.059,142.606L245.169,126.878L231.79,117.157L248.328,117.157L253.438,101.429Z" style="fill:rgb(1,54,124);"/>
            <path d="M88.013,149.293L92.101,161.875L105.332,161.875L94.628,169.652L98.716,182.235L88.013,174.458L77.309,182.235L81.398,169.652L70.694,161.875L83.925,161.875L88.013,149.293Z" style="fill:rgb(1,54,124);"/>
            <path d="M290.405,149.293L294.493,161.875L307.723,161.875L297.02,169.652L301.108,182.235L290.405,174.458L279.701,182.235L283.79,169.652L273.086,161.875L286.316,161.875L290.405,149.293Z" style="fill:rgb(1,54,124);"/>
        </g>
    </g>
</svg>
