<?xml version="1.0" encoding="UTF-8" standalone="no"?>
<!DOCTYPE svg PUBLIC "-//W3C//DTD SVG 1.1//EN" "http://www.w3.org/Graphics/SVG/1.1/DTD/svg11.dtd">
<svg width="100%" height="100%" viewBox="0 0 494 494" version="1.1" xmlns="http://www.w3.org/2000/svg" xmlns:xlink="http://www.w3.org/1999/xlink" xml:space="preserve" xmlns:serif="http://www.serif.com/" style="fill-rule:evenodd;clip-rule:evenodd;stroke-linejoin:round;stroke-miterlimit:0.73;">
    <g>
        <g>
            <g style="filter:url(#_Effect1);">
                <path d="M435.953,152.488L435.953,341.465C435.953,393.614 393.614,435.953 341.465,435.953L152.488,435.953C100.339,435.953 58,393.614 58,341.465L58,152.488C58,100.339 100.339,58 152.488,58L341.465,58C393.614,58 435.953,100.339 435.953,152.488Z" style="fill:none;stroke:#01377d;stroke-opacity:0.2;stroke-width:20px;"/>
            </g>
            <path d="M433.79,152.368L433.79,341.344C433.79,393.494 391.451,435.832 339.302,435.832L150.325,435.832C98.176,435.832 55.837,393.494 55.837,341.344L55.837,152.368C55.837,100.218 98.176,57.88 150.325,57.88L339.302,57.88C391.451,57.88 433.79,100.218 433.79,152.368Z" style="fill:#fff;stroke:#fff;stroke-width:0.46px;"/>
        </g>
        <g>
            <path d="M251.409,276.672L253.296,285.857C256.947,286.416 260.526,287.374 263.967,288.716L270.193,281.705C273.677,283.29 276.999,285.208 280.113,287.433L277.155,296.33C280.037,298.64 282.657,301.259 284.966,304.142L293.864,301.183C296.089,304.297 298.007,307.62 299.591,311.104L292.58,317.33C293.922,320.771 294.881,324.35 295.44,328.001L304.624,329.887C304.994,333.697 304.994,337.533 304.624,341.342L295.44,343.229C294.881,346.88 293.922,350.458 292.58,353.9L299.591,360.126C298.007,363.61 296.089,366.932 293.864,370.046L284.966,367.088C282.657,369.97 280.037,372.59 277.155,374.899L280.113,383.797C276.999,386.022 273.677,387.94 270.193,389.524L263.967,382.513C260.526,383.855 256.947,384.814 253.296,385.373L251.409,394.557C247.6,394.927 243.764,394.927 239.954,394.557L238.068,385.373C234.417,384.814 230.838,383.855 227.397,382.513L221.171,389.524C217.687,387.94 214.364,386.022 211.251,383.797L214.209,374.899C211.326,372.59 208.707,369.97 206.397,367.088L197.5,370.046C195.275,366.932 193.357,363.61 191.773,360.126L198.783,353.9C197.442,350.458 196.483,346.88 195.924,343.229L186.739,341.342C186.369,337.533 186.369,333.697 186.739,329.887L195.924,328.001C196.483,324.35 197.442,320.771 198.783,317.33L191.773,311.104C193.357,307.62 195.275,304.297 197.5,301.183L206.397,304.142C208.707,301.259 211.326,298.64 214.209,296.33L211.251,287.433C214.364,285.208 217.687,283.29 221.171,281.705L227.397,288.716C230.838,287.374 234.417,286.416 238.068,285.857L239.954,276.672C243.764,276.302 247.6,276.302 251.409,276.672ZM245.682,303.277C263.529,303.277 278.019,317.767 278.019,335.615C278.019,353.462 263.529,367.952 245.682,367.952C227.834,367.952 213.345,353.462 213.345,335.615C213.345,317.767 227.834,303.277 245.682,303.277Z" style="fill:#01377c;"/>
            <path d="M163.782,208.476L165.668,217.661C169.319,218.219 172.898,219.178 176.339,220.52L182.565,213.509C186.049,215.093 189.372,217.012 192.486,219.237L189.527,228.134C192.41,230.443 195.029,233.063 197.339,235.946L206.236,232.987C208.461,236.101 210.38,239.423 211.964,242.908L204.953,249.134C206.295,252.575 207.253,256.153 207.812,259.805L216.997,261.691C217.367,265.501 217.367,269.337 216.997,273.146L207.812,275.033C207.253,278.684 206.295,282.262 204.953,285.704L211.964,291.93C210.38,295.414 208.461,298.736 206.236,301.85L197.339,298.891C195.029,301.774 192.41,304.394 189.527,306.703L192.486,315.601C189.372,317.826 186.049,319.744 182.565,321.328L176.339,314.317C172.898,315.659 169.319,316.618 165.668,317.176L163.782,326.361C159.972,326.731 156.136,326.731 152.327,326.361L150.44,317.176C146.789,316.618 143.211,315.659 139.769,314.317L133.543,321.328C130.059,319.744 126.737,317.826 123.623,315.601L126.581,306.703C123.699,304.394 121.079,301.774 118.77,298.891L109.872,301.85C107.647,298.736 105.729,295.414 104.145,291.93L111.156,285.704C109.814,282.262 108.855,278.684 108.296,275.033L99.112,273.146C98.742,269.337 98.742,265.501 99.112,261.691L108.296,259.805C108.855,256.153 109.814,252.575 111.156,249.134L104.145,242.908C105.729,239.423 107.647,236.101 109.872,232.987L118.77,235.946C121.079,233.063 123.699,230.443 126.581,228.134L123.623,219.237C126.737,217.012 130.059,215.093 133.543,213.509L139.769,220.52C143.211,219.178 146.789,218.219 150.44,217.661L152.327,208.476C156.136,208.106 159.972,208.106 163.782,208.476ZM158.054,235.081C175.902,235.081 190.392,249.571 190.392,267.419C190.392,285.266 175.902,299.756 158.054,299.756C140.207,299.756 125.717,285.266 125.717,267.419C125.717,249.571 140.207,235.081 158.054,235.081Z" style="fill:#01377c;"/>
            <path d="M339.463,208.712L341.35,217.897C345.001,218.456 348.579,219.415 352.021,220.756L358.247,213.746C361.731,215.33 365.053,217.248 368.167,219.473L365.208,228.37C368.091,230.68 370.711,233.299 373.02,236.182L381.917,233.224C384.143,236.337 386.061,239.66 387.645,243.144L380.634,249.37C381.976,252.811 382.935,256.39 383.493,260.041L392.678,261.927C393.048,265.737 393.048,269.573 392.678,273.382L383.493,275.269C382.935,278.92 381.976,282.499 380.634,285.94L387.645,292.166C386.061,295.65 384.143,298.972 381.917,302.086L373.02,299.128C370.711,302.01 368.091,304.63 365.208,306.939L368.167,315.837C365.053,318.062 361.731,319.98 358.247,321.564L352.021,314.553C348.579,315.895 345.001,316.854 341.35,317.413L339.463,326.597C335.654,326.967 331.817,326.967 328.008,326.597L326.122,317.413C322.47,316.854 318.892,315.895 315.451,314.553L309.224,321.564C305.74,319.98 302.418,318.062 299.304,315.837L302.263,306.939C299.38,304.63 296.76,302.01 294.451,299.128L285.554,302.086C283.328,298.972 281.41,295.65 279.826,292.166L286.837,285.94C285.495,282.499 284.536,278.92 283.978,275.269L274.793,273.382C274.423,269.573 274.423,265.737 274.793,261.927L283.978,260.041C284.536,256.39 285.495,252.811 286.837,249.37L279.826,243.144C281.41,239.66 283.328,236.337 285.554,233.224L294.451,236.182C296.76,233.299 299.38,230.68 302.263,228.37L299.304,219.473C302.418,217.248 305.74,215.33 309.224,213.746L315.451,220.756C318.892,219.415 322.47,218.456 326.122,217.897L328.008,208.712C331.817,208.342 335.654,208.342 339.463,208.712ZM333.736,235.317C351.583,235.317 366.073,249.807 366.073,267.655C366.073,285.502 351.583,299.992 333.736,299.992C315.888,299.992 301.398,285.502 301.398,267.655C301.398,249.807 315.888,235.317 333.736,235.317Z" style="fill:#01377c;"/>
            <circle cx="247.013" cy="193.66" r="50.938" style="fill:#01377c;"/>
            <path d="M339.729,258.477L339.729,261.196L343.343,261.196L343.343,264.488L339.514,264.488C339.133,266.754 338.196,268.4 336.705,269.426C335.215,270.452 332.966,270.965 329.961,270.965L329.961,272.861C329.961,273.982 330.193,274.865 330.658,275.509C331.124,276.153 331.917,276.475 333.038,276.475C334.111,276.475 334.887,276.171 335.364,275.562C335.841,274.954 336.079,274.066 336.079,272.897L340.731,272.897C340.683,275.306 340.003,277.149 338.691,278.425C337.379,279.701 335.507,280.339 333.074,280.339C330.545,280.339 328.613,279.659 327.277,278.3C325.941,276.94 325.273,274.96 325.273,272.36L325.273,267.601C327.826,267.601 329.71,267.536 330.927,267.404C332.143,267.273 333.05,266.993 333.646,266.564C334.242,266.134 334.636,265.442 334.827,264.488L324.128,264.488L324.128,261.196L335.006,261.196L335.006,258.477L324.128,258.477L324.128,254.97L343.343,254.97L343.343,258.477L339.729,258.477Z" style="fill:#7bd24b;fill-rule:nonzero;"/>
            <path d="M255.217,344.775L255.217,348.782L237.864,348.782L237.077,346.206C238.15,345.156 238.937,344.089 239.438,343.004C239.939,341.918 240.19,340.564 240.19,338.942C240.19,338.775 240.166,338.501 240.118,338.119L236.146,338.119L236.146,334.684L239.116,334.684C238.639,333.062 238.4,331.595 238.4,330.283C238.4,328.661 238.752,327.26 239.456,326.079C240.16,324.898 241.144,323.998 242.408,323.378C243.672,322.757 245.127,322.447 246.773,322.447C249.421,322.447 251.443,323.181 252.838,324.648C254.234,326.115 254.967,327.993 255.039,330.283L250.423,330.283C250.399,329.138 250.101,328.238 249.528,327.582C248.956,326.926 248.061,326.598 246.845,326.598C245.724,326.598 244.835,326.932 244.179,327.6C243.523,328.268 243.195,329.293 243.195,330.677C243.195,331.297 243.261,331.911 243.392,332.52C243.523,333.128 243.72,333.85 243.982,334.684L250.709,334.684L250.709,338.119L244.877,338.119C244.925,338.501 244.948,338.787 244.948,338.978C244.948,340.004 244.752,341.024 244.358,342.037C243.964,343.051 243.362,343.964 242.551,344.775L255.217,344.775Z" style="fill:#7bd24b;fill-rule:nonzero;"/>
            <path d="M159.7,275.616C161.06,275.616 162.253,275.318 163.278,274.722C164.304,274.125 165.115,273.255 165.711,272.11L171.436,272.11C170.601,274.662 169.14,276.648 167.053,278.067C164.966,279.486 162.527,280.196 159.736,280.196C156.874,280.196 154.363,279.427 152.204,277.888C150.045,276.35 148.548,274.292 147.714,271.716L144.672,271.716L144.672,268.746L147.141,268.746C147.093,268.174 147.07,267.744 147.07,267.458C147.07,267.124 147.093,266.671 147.141,266.098L144.672,266.098L144.672,263.129L147.749,263.129C148.584,260.552 150.081,258.501 152.24,256.974C154.399,255.448 156.897,254.684 159.736,254.684C162.527,254.684 164.966,255.4 167.053,256.831C169.14,258.262 170.601,260.242 171.436,262.771L165.711,262.771C165.115,261.626 164.304,260.761 163.278,260.177C162.253,259.592 161.06,259.3 159.7,259.3C158.245,259.3 156.951,259.634 155.818,260.302C154.685,260.97 153.808,261.912 153.188,263.129L160.058,263.129L160.058,266.098L152.294,266.098C152.246,266.671 152.222,267.124 152.222,267.458C152.222,267.744 152.246,268.174 152.294,268.746L160.058,268.746L160.058,271.716L153.152,271.716C153.773,272.933 154.655,273.887 155.8,274.578C156.945,275.27 158.245,275.616 159.7,275.616Z" style="fill:#7bd24b;fill-rule:nonzero;"/>
            <path d="M261.859,202.296C261.859,204.299 261.349,206.176 260.328,207.929C259.308,209.681 257.806,211.125 255.823,212.261C253.839,213.397 251.5,214.061 248.804,214.254L248.804,218.933L245.107,218.933L245.107,214.196C241.256,213.85 238.156,212.685 235.806,210.701C233.457,208.718 232.244,206.032 232.167,202.643L240.832,202.643C241.063,205.416 242.488,207.091 245.107,207.669L245.107,196.635C242.334,195.942 240.1,195.249 238.406,194.555C236.711,193.862 235.248,192.745 234.016,191.205C232.783,189.665 232.167,187.566 232.167,184.908C232.167,181.558 233.371,178.824 235.778,176.705C238.184,174.587 241.294,173.374 245.107,173.066L245.107,168.387L248.804,168.387L248.804,173.066C252.501,173.374 255.457,174.491 257.671,176.417C259.886,178.342 261.128,181 261.397,184.388L252.674,184.388C252.559,183.272 252.164,182.299 251.49,181.471C250.816,180.643 249.921,180.056 248.804,179.709L248.804,190.627C251.692,191.359 253.974,192.062 255.649,192.736C257.325,193.41 258.778,194.507 260.011,196.029C261.243,197.55 261.859,199.639 261.859,202.296ZM240.601,184.504C240.601,185.775 240.986,186.805 241.756,187.595C242.527,188.384 243.643,189.029 245.107,189.53L245.107,179.536C243.72,179.729 242.623,180.249 241.814,181.096C241.005,181.943 240.601,183.079 240.601,184.504ZM248.804,207.784C250.267,207.515 251.413,206.918 252.241,205.993C253.069,205.069 253.483,203.952 253.483,202.643C253.483,201.372 253.079,200.351 252.27,199.581C251.461,198.811 250.306,198.176 248.804,197.675L248.804,207.784Z" style="fill:#7bd24b;fill-rule:nonzero;stroke:#01377d;stroke-width:0.32px;stroke-miterlimit:2;"/>
            <path d="M343.986,199.188L329.473,198.387C329.561,196.867 329.606,195.344 329.606,193.821C329.606,149.298 292.481,113.151 246.754,113.151C201.027,113.151 163.902,149.298 163.902,193.821C163.902,195.344 163.946,196.867 164.035,198.387L149.522,199.188C149.418,197.401 149.366,195.611 149.366,193.821C149.366,141.487 193.004,98.998 246.754,98.998C300.504,98.998 344.142,141.487 344.142,193.821C344.142,195.611 344.09,197.401 343.986,199.188Z" style="fill:#01377c;"/>
        </g>
    </g>
    <defs>
        <filter id="_Effect1" filterUnits="userSpaceOnUse" x="-48" y="-48" width="589.953" height="589.953">
            <feGaussianBlur in="SourceGraphic" stdDeviation="16"/>
        </filter>
    </defs>
</svg>
