<?xml version="1.0" encoding="UTF-8" standalone="no"?>
<!DOCTYPE svg PUBLIC "-//W3C//DTD SVG 1.1//EN" "http://www.w3.org/Graphics/SVG/1.1/DTD/svg11.dtd">
<svg width="100%" height="100%" viewBox="0 0 494 494" version="1.1" xmlns="http://www.w3.org/2000/svg" xmlns:xlink="http://www.w3.org/1999/xlink" xml:space="preserve" xmlns:serif="http://www.serif.com/" style="fill-rule:evenodd;clip-rule:evenodd;stroke-linejoin:round;stroke-miterlimit:0.73;">
    <g>
        <g style="filter:url(#_Effect1);">
            <path d="M435.953,152.488L435.953,341.465C435.953,393.614 393.614,435.953 341.465,435.953L152.488,435.953C100.339,435.953 58,393.614 58,341.465L58,152.488C58,100.339 100.339,58 152.488,58L341.465,58C393.614,58 435.953,100.339 435.953,152.488Z" style="fill:none;stroke:#01377d;stroke-opacity:0.2;stroke-width:20px;"/>
        </g>
        <path d="M433.79,152.368L433.79,341.344C433.79,393.494 391.451,435.832 339.302,435.832L150.325,435.832C98.176,435.832 55.837,393.494 55.837,341.344L55.837,152.368C55.837,100.218 98.176,57.88 150.325,57.88L339.302,57.88C391.451,57.88 433.79,100.218 433.79,152.368Z" style="fill:#fff;stroke:#fff;stroke-width:0.46px;"/>
        <g>
            <path d="M244.813,109.68C270.076,109.68 320.602,109.68 345.866,137.115C371.13,164.55 371.13,219.421 345.866,274.291C328.181,315.444 282.708,356.597 244.813,384.032C206.918,356.597 161.445,315.444 143.76,274.291C118.497,219.421 118.497,164.55 143.76,137.115C169.024,109.68 219.55,109.68 244.813,109.68Z" style="fill:#7bd24b;"/>
            <path d="M244.813,120.577C268.069,120.577 314.582,120.577 337.838,145.833C361.095,171.089 361.095,221.6 337.838,272.112C321.559,309.996 279.698,347.879 244.813,373.135C209.929,347.879 168.068,309.996 151.788,272.112C128.532,221.6 128.532,171.089 151.788,145.833C175.044,120.577 221.557,120.577 244.813,120.577Z" style="fill:#fff;"/>
            <path d="M244.813,132.642C265.39,132.642 306.543,132.642 327.12,155.484C347.697,178.327 347.697,224.013 327.12,269.699C312.716,303.963 275.678,338.228 244.813,361.071C213.948,338.228 176.91,303.963 162.507,269.699C141.93,224.013 141.93,178.327 162.507,155.484C183.083,132.642 224.237,132.642 244.813,132.642Z" style="fill:#01377c;"/>
            <path d="M214.63,224.73L247.287,257.387C251.752,261.851 251.752,269.101 247.287,273.565C242.822,278.03 235.573,278.03 231.108,273.565L198.452,240.908C193.987,236.444 193.987,229.194 198.452,224.73C202.916,220.265 210.165,220.265 214.63,224.73Z" style="fill:#fff;"/>
            <path d="M310.767,210.802L248.004,273.565C243.539,278.03 236.29,278.03 231.825,273.565C227.361,269.101 227.361,261.851 231.825,257.387L294.588,194.624C299.053,190.159 306.302,190.159 310.767,194.624C315.231,199.088 315.231,206.338 310.767,210.802Z" style="fill:#fff;"/>
        </g>
    </g>
    <defs>
        <filter id="_Effect1" filterUnits="userSpaceOnUse" x="-48" y="-48" width="589.953" height="589.953">
            <feGaussianBlur in="SourceGraphic" stdDeviation="16"/>
        </filter>
    </defs>
</svg>
