<?xml version="1.0" encoding="UTF-8" standalone="no"?>
<!DOCTYPE svg PUBLIC "-//W3C//DTD SVG 1.1//EN" "http://www.w3.org/Graphics/SVG/1.1/DTD/svg11.dtd">
<svg width="100%" height="100%" viewBox="0 0 494 494" version="1.1" xmlns="http://www.w3.org/2000/svg" xmlns:xlink="http://www.w3.org/1999/xlink" xml:space="preserve" xmlns:serif="http://www.serif.com/" style="fill-rule:evenodd;clip-rule:evenodd;stroke-linejoin:round;stroke-miterlimit:0.73;">
    <g>
        <g>
            <g style="filter:url(#_Effect1);">
                <path d="M435.953,152.488L435.953,341.465C435.953,393.614 393.614,435.953 341.465,435.953L152.488,435.953C100.339,435.953 58,393.614 58,341.465L58,152.488C58,100.339 100.339,58 152.488,58L341.465,58C393.614,58 435.953,100.339 435.953,152.488Z" style="fill:none;stroke:rgb(1,55,125);stroke-opacity:0.2;stroke-width:20px;"/>
            </g>
            <path d="M435.953,152.488L435.953,341.465C435.953,393.614 393.614,435.953 341.465,435.953L152.488,435.953C100.339,435.953 58,393.614 58,341.465L58,152.488C58,100.339 100.339,58 152.488,58L341.465,58C393.614,58 435.953,100.339 435.953,152.488Z" style="fill:white;stroke:white;stroke-width:0.46px;"/>
        </g>
        <path d="M218.762,151.874C208.824,155.529 197.788,150.428 194.133,140.49C190.477,130.552 195.578,119.516 205.516,115.86C220.104,110.495 235.867,107.559 252.31,107.559C268.753,107.559 284.515,110.495 299.103,115.86C309.042,119.516 314.142,130.552 310.487,140.49C306.832,150.428 295.795,155.529 285.857,151.874C275.399,148.027 264.098,145.931 252.31,145.931C240.522,145.931 229.22,148.027 218.762,151.874ZM328.663,182.962C322.099,174.652 323.517,162.577 331.827,156.014C340.136,149.45 352.211,150.868 358.775,159.178C376.988,182.236 387.864,211.341 387.864,242.961C387.864,244.703 387.83,246.437 387.765,248.162C387.363,258.743 378.446,267.008 367.865,266.606C357.283,266.205 349.019,257.288 349.42,246.706C349.468,245.464 349.491,244.215 349.491,242.961C349.491,220.317 341.706,199.475 328.663,182.962ZM333.068,296.922C338.976,288.134 350.907,285.796 359.695,291.704C368.483,297.612 370.821,309.543 364.913,318.33C347.209,344.664 320.485,364.449 289.182,373.282C278.991,376.157 268.382,370.218 265.507,360.027C262.631,349.836 268.57,339.227 278.762,336.352C301.214,330.016 320.37,315.81 333.068,296.922ZM225.858,336.352C236.049,339.227 241.989,349.836 239.113,360.027C236.238,370.218 225.629,376.157 215.438,373.282C184.135,364.449 157.411,344.665 139.707,318.331C133.799,309.543 136.137,297.612 144.925,291.704C153.713,285.796 165.644,288.134 171.552,296.922C184.25,315.81 203.406,330.017 225.858,336.352ZM155.199,246.706C155.601,257.288 147.336,266.205 136.755,266.606C126.173,267.008 117.256,258.743 116.855,248.162C116.789,246.437 116.756,244.703 116.756,242.961C116.756,211.341 127.631,182.236 145.845,159.178C152.408,150.868 164.484,149.45 172.793,156.014C181.103,162.577 182.52,174.652 175.957,182.962C162.914,199.475 155.128,220.317 155.128,242.961C155.128,244.215 155.152,245.464 155.199,246.706Z" style="fill:rgb(124,210,76);"/>
        <path d="M305.45,257.841L305.45,273.96C305.45,286.182 295.531,300.53 283.308,300.53L221.311,300.53C209.089,300.53 199.17,286.182 199.17,273.96L199.17,257.841C202.942,260.469 207.254,262.224 211.79,262.978L231.408,266.255C233.577,270.941 238.289,273.955 243.453,273.96L261.167,273.96C266.33,273.955 271.043,270.941 273.212,266.255L292.829,262.978C297.365,262.224 301.677,260.469 305.45,257.841Z" style="fill:rgb(1,51,125);fill-rule:nonzero;"/>
        <path d="M287.737,203.106L274.452,203.106L274.452,198.678C274.43,191.398 268.446,185.415 261.167,185.393L243.453,185.393C236.173,185.415 230.19,191.398 230.168,198.678L230.168,203.106L216.883,203.106C204.661,203.106 194.741,217.454 194.741,229.676L194.741,232.378C194.706,243.169 202.6,252.48 213.252,254.209L230.168,257.044L230.168,251.818C230.19,244.538 236.173,238.555 243.453,238.533L261.167,238.533C268.446,238.555 274.43,244.538 274.452,251.818L274.452,257.044L291.368,254.209C302.02,252.48 309.914,243.169 309.878,232.378L309.878,229.676C309.878,217.454 299.959,203.106 287.737,203.106ZM239.025,203.106L239.025,198.678C239.025,196.249 241.024,194.25 243.453,194.25L261.167,194.25C263.596,194.25 265.595,196.249 265.595,198.678L265.595,203.106L239.025,203.106Z" style="fill:rgb(1,51,125);fill-rule:nonzero;"/>
        <path d="M265.595,251.818L265.595,260.675C265.595,263.119 263.611,265.103 261.167,265.103L243.453,265.103C241.009,265.103 239.025,263.119 239.025,260.675L239.025,251.818C239.025,249.374 241.009,247.39 243.453,247.39L261.167,247.39C263.611,247.39 265.595,249.374 265.595,251.818Z" style="fill:rgb(12,209,42);"/>
    </g>
    <defs>
        <filter id="_Effect1" filterUnits="userSpaceOnUse" x="-48" y="-48" width="589.953" height="589.953">
            <feGaussianBlur in="SourceGraphic" stdDeviation="16"/>
        </filter>
    </defs>
</svg>
