<?xml version="1.0" encoding="UTF-8" standalone="no"?>
<!DOCTYPE svg PUBLIC "-//W3C//DTD SVG 1.1//EN" "http://www.w3.org/Graphics/SVG/1.1/DTD/svg11.dtd">
<svg width="100%" height="100%" viewBox="0 0 379 379" version="1.1" xmlns="http://www.w3.org/2000/svg" xmlns:xlink="http://www.w3.org/1999/xlink" xml:space="preserve" xmlns:serif="http://www.serif.com/" style="fill-rule:evenodd;clip-rule:evenodd;stroke-linejoin:round;stroke-miterlimit:0.73;">
    <g>
        <g>
            <path d="M378.185,94.721L378.185,283.697C378.185,335.846 335.846,378.185 283.697,378.185L94.721,378.185C42.571,378.185 0.232,335.846 0.232,283.697L0.232,94.721C0.232,42.571 42.571,0.232 94.721,0.232L283.697,0.232C335.846,0.232 378.185,42.571 378.185,94.721Z" style="fill:white;stroke:white;stroke-width:0.46px;"/>
        </g>
        <g>
            <path d="M280.545,122.023L280.545,260.831C280.545,287.806 258.645,309.706 231.669,309.706L133.918,309.706C106.943,309.706 85.043,287.806 85.043,260.831L85.043,122.023C85.043,95.048 106.943,73.147 133.918,73.147L231.669,73.147C258.645,73.147 280.545,95.048 280.545,122.023Z" style="fill:rgb(1,55,124);"/>
            <path d="M265.736,127.824L265.736,256.243C265.736,279.131 247.153,297.714 224.265,297.714L141.323,297.714C118.434,297.714 99.852,279.131 99.852,256.243L99.852,127.824C99.852,104.936 118.434,86.353 141.323,86.353L224.265,86.353C247.153,86.353 265.736,104.936 265.736,127.824Z" style="fill:white;"/>
            <path d="M226.819,63.782L226.819,86.116C226.819,92.278 221.816,97.282 215.653,97.282L150.608,97.282C144.445,97.282 139.442,92.278 139.442,86.116L139.442,63.782C139.442,57.619 144.445,52.616 150.608,52.616L215.653,52.616C221.816,52.616 226.819,57.619 226.819,63.782Z" style="fill:rgb(123,210,75);"/>
            <circle cx="139.442" cy="138.029" r="10.571" style="fill:rgb(157,175,255);"/>
            <circle cx="139.442" cy="174.032" r="10.571" style="fill:rgb(157,175,255);"/>
            <circle cx="139.442" cy="210.035" r="10.571" style="fill:rgb(157,175,255);"/>
            <circle cx="139.442" cy="246.038" r="10.571" style="fill:rgb(157,175,255);"/>
            <path d="M236.716,134.041L236.716,142.018C236.716,144.219 234.929,146.006 232.728,146.006L172.434,146.006C170.233,146.006 168.446,144.219 168.446,142.018L168.446,134.041C168.446,131.839 170.233,130.052 172.434,130.052L232.728,130.052C234.929,130.052 236.716,131.839 236.716,134.041Z" style="fill:rgb(1,55,124);"/>
            <path d="M236.716,170.044L236.716,178.021C236.716,180.222 234.929,182.009 232.728,182.009L172.434,182.009C170.233,182.009 168.446,180.222 168.446,178.021L168.446,170.044C168.446,167.842 170.233,166.055 172.434,166.055L232.728,166.055C234.929,166.055 236.716,167.842 236.716,170.044Z" style="fill:rgb(1,55,124);"/>
            <path d="M236.716,206.047L236.716,214.024C236.716,216.225 234.929,218.012 232.728,218.012L172.434,218.012C170.233,218.012 168.446,216.225 168.446,214.024L168.446,206.047C168.446,203.845 170.233,202.058 172.434,202.058L232.728,202.058C234.929,202.058 236.716,203.845 236.716,206.047Z" style="fill:rgb(1,55,124);"/>
            <path d="M236.716,242.05L236.716,250.027C236.716,252.228 234.929,254.015 232.728,254.015L172.434,254.015C170.233,254.015 168.446,252.228 168.446,250.027L168.446,242.05C168.446,239.848 170.233,238.061 172.434,238.061L232.728,238.061C234.929,238.061 236.716,239.848 236.716,242.05Z" style="fill:rgb(1,55,124);"/>
            <path d="M309.051,115.473L309.051,264.047C309.051,267.591 306.174,270.468 302.63,270.468C299.086,270.468 296.209,267.591 296.209,264.047L296.209,115.473C296.209,111.929 299.086,109.052 302.63,109.052C306.174,109.052 309.051,111.929 309.051,115.473Z" style="fill:rgb(1,55,124);"/>
            <rect x="296.209" y="138.029" width="12.842" height="10.571" style="fill:rgb(123,210,75);"/>
        </g>
    </g>
</svg>
