<?xml version="1.0" encoding="UTF-8" standalone="no"?>
<!DOCTYPE svg PUBLIC "-//W3C//DTD SVG 1.1//EN" "http://www.w3.org/Graphics/SVG/1.1/DTD/svg11.dtd">
<svg width="100%" height="100%" viewBox="0 0 1250 1000" version="1.1" xmlns="http://www.w3.org/2000/svg" xmlns:xlink="http://www.w3.org/1999/xlink" xml:space="preserve" xmlns:serif="http://www.serif.com/" style="fill-rule:evenodd;clip-rule:evenodd;stroke-linejoin:round;stroke-miterlimit:2;">
    <g id="legacy" transform="matrix(0.813609,0,0,0.813609,142.152991,160.953019)">
        <g transform="matrix(1.058997,0,0,1.067794,7.173844,-37.169117)">
            <g transform="matrix(0.384219,-0,-0,0.933991,317.704058,201.637001)">
                <path d="M760.988,340.56L760.988,621.943L110.318,621.943L110.318,340.56C110.318,318.583 154.052,300.741 207.919,300.741L663.388,300.741C717.255,300.741 760.988,318.583 760.988,340.56Z" style="fill:rgb(126,211,72);"/>
            </g>
            <g transform="matrix(0.230532,-0,-0,0.466995,183.950851,493.418336)">
                <path d="M760.988,348.524L760.988,621.943L110.318,621.943L110.318,348.524C110.318,322.152 154.052,300.741 207.919,300.741L663.388,300.741C717.255,300.741 760.988,322.152 760.988,348.524Z" style="fill:rgb(1,55,125);"/>
            </g>
            <g transform="matrix(0.089186,-0,-0,0.180668,245.52831,633.570629)">
                <path d="M760.988,380.38L760.988,542.304C760.988,586.258 688.099,621.943 598.321,621.943L272.986,621.943C183.207,621.943 110.318,586.258 110.318,542.304L110.318,380.38C110.318,336.426 183.207,300.741 272.986,300.741L598.321,300.741C688.099,300.741 760.988,336.426 760.988,380.38Z" style="fill:white;"/>
            </g>
            <g transform="matrix(0.537907,-0,-0,1.400986,551.457264,-87.470955)">
                <path d="M760.988,337.906L760.988,621.943L110.318,621.943L110.318,337.906C110.318,317.394 154.052,300.741 207.919,300.741L663.388,300.741C717.255,300.741 760.988,317.394 760.988,337.906Z" style="fill:rgb(1,55,125);"/>
            </g>
            <g>
                <g transform="matrix(0.089186,-0,-0,0.180668,493.931098,633.570629)">
                    <path d="M760.988,380.38L760.988,542.304C760.988,586.258 688.099,621.943 598.321,621.943L272.986,621.943C183.207,621.943 110.318,586.258 110.318,542.304L110.318,380.38C110.318,336.426 183.207,300.741 272.986,300.741L598.321,300.741C688.099,300.741 760.988,336.426 760.988,380.38Z" style="fill:white;"/>
                </g>
                <g transform="matrix(0.089186,-0,-0,0.180668,398.541059,633.570629)">
                    <path d="M760.988,380.38L760.988,542.304C760.988,586.258 688.099,621.943 598.321,621.943L272.986,621.943C183.207,621.943 110.318,586.258 110.318,542.304L110.318,380.38C110.318,336.426 183.207,300.741 272.986,300.741L598.321,300.741C688.099,300.741 760.988,336.426 760.988,380.38Z" style="fill:white;"/>
                </g>
            </g>
            <g transform="matrix(1,0,0,1,255.99434,0)">
                <g>
                    <g transform="matrix(0.089186,-0,-0,0.180668,493.931098,633.570629)">
                        <path d="M760.988,380.38L760.988,542.304C760.988,586.258 688.099,621.943 598.321,621.943L272.986,621.943C183.207,621.943 110.318,586.258 110.318,542.304L110.318,380.38C110.318,336.426 183.207,300.741 272.986,300.741L598.321,300.741C688.099,300.741 760.988,336.426 760.988,380.38Z" style="fill:white;"/>
                    </g>
                    <g transform="matrix(0.089186,-0,-0,0.180668,589.321137,633.570629)">
                        <path d="M760.988,380.38L760.988,542.304C760.988,586.258 688.099,621.943 598.321,621.943L272.986,621.943C183.207,621.943 110.318,586.258 110.318,542.304L110.318,380.38C110.318,336.426 183.207,300.741 272.986,300.741L598.321,300.741C688.099,300.741 760.988,336.426 760.988,380.38Z" style="fill:white;"/>
                    </g>
                    <g transform="matrix(0.089186,-0,-0,0.180668,398.541059,633.570629)">
                        <path d="M760.988,380.38L760.988,542.304C760.988,586.258 688.099,621.943 598.321,621.943L272.986,621.943C183.207,621.943 110.318,586.258 110.318,542.304L110.318,380.38C110.318,336.426 183.207,300.741 272.986,300.741L598.321,300.741C688.099,300.741 760.988,336.426 760.988,380.38Z" style="fill:white;"/>
                    </g>
                </g>
            </g>
            <g transform="matrix(1,0,0,1,253.012749,-83.927815)">
                <g>
                    <g transform="matrix(0.089186,-0,-0,0.180668,493.931098,633.570629)">
                        <path d="M760.988,380.38L760.988,542.304C760.988,586.258 688.099,621.943 598.321,621.943L272.986,621.943C183.207,621.943 110.318,586.258 110.318,542.304L110.318,380.38C110.318,336.426 183.207,300.741 272.986,300.741L598.321,300.741C688.099,300.741 760.988,336.426 760.988,380.38Z" style="fill:white;"/>
                    </g>
                    <g transform="matrix(0.089186,-0,-0,0.180668,589.321137,633.570629)">
                        <path d="M760.988,380.38L760.988,542.304C760.988,586.258 688.099,621.943 598.321,621.943L272.986,621.943C183.207,621.943 110.318,586.258 110.318,542.304L110.318,380.38C110.318,336.426 183.207,300.741 272.986,300.741L598.321,300.741C688.099,300.741 760.988,336.426 760.988,380.38Z" style="fill:white;"/>
                    </g>
                    <g transform="matrix(0.089186,-0,-0,0.180668,398.541059,633.570629)">
                        <path d="M760.988,380.38L760.988,542.304C760.988,586.258 688.099,621.943 598.321,621.943L272.986,621.943C183.207,621.943 110.318,586.258 110.318,542.304L110.318,380.38C110.318,336.426 183.207,300.741 272.986,300.741L598.321,300.741C688.099,300.741 760.988,336.426 760.988,380.38Z" style="fill:white;"/>
                    </g>
                </g>
            </g>
            <g transform="matrix(1,0,0,1,253.012749,-167.855629)">
                <g>
                    <g transform="matrix(0.089186,-0,-0,0.180668,493.931098,633.570629)">
                        <path d="M760.988,380.38L760.988,542.304C760.988,586.258 688.099,621.943 598.321,621.943L272.986,621.943C183.207,621.943 110.318,586.258 110.318,542.304L110.318,380.38C110.318,336.426 183.207,300.741 272.986,300.741L598.321,300.741C688.099,300.741 760.988,336.426 760.988,380.38Z" style="fill:white;"/>
                    </g>
                    <g transform="matrix(0.089186,-0,-0,0.180668,589.321137,633.570629)">
                        <path d="M760.988,380.38L760.988,542.304C760.988,586.258 688.099,621.943 598.321,621.943L272.986,621.943C183.207,621.943 110.318,586.258 110.318,542.304L110.318,380.38C110.318,336.426 183.207,300.741 272.986,300.741L598.321,300.741C688.099,300.741 760.988,336.426 760.988,380.38Z" style="fill:white;"/>
                    </g>
                    <g transform="matrix(0.089186,-0,-0,0.180668,398.541059,633.570629)">
                        <path d="M760.988,380.38L760.988,542.304C760.988,586.258 688.099,621.943 598.321,621.943L272.986,621.943C183.207,621.943 110.318,586.258 110.318,542.304L110.318,380.38C110.318,336.426 183.207,300.741 272.986,300.741L598.321,300.741C688.099,300.741 760.988,336.426 760.988,380.38Z" style="fill:white;"/>
                    </g>
                </g>
            </g>
            <g transform="matrix(1,0,0,1,253.012749,-251.783444)">
                <g>
                    <g transform="matrix(0.089186,-0,-0,0.180668,493.931098,633.570629)">
                        <path d="M760.988,380.38L760.988,542.304C760.988,586.258 688.099,621.943 598.321,621.943L272.986,621.943C183.207,621.943 110.318,586.258 110.318,542.304L110.318,380.38C110.318,336.426 183.207,300.741 272.986,300.741L598.321,300.741C688.099,300.741 760.988,336.426 760.988,380.38Z" style="fill:white;"/>
                    </g>
                    <g transform="matrix(0.089186,-0,-0,0.180668,589.321137,633.570629)">
                        <path d="M760.988,380.38L760.988,542.304C760.988,586.258 688.099,621.943 598.321,621.943L272.986,621.943C183.207,621.943 110.318,586.258 110.318,542.304L110.318,380.38C110.318,336.426 183.207,300.741 272.986,300.741L598.321,300.741C688.099,300.741 760.988,336.426 760.988,380.38Z" style="fill:white;"/>
                    </g>
                    <g transform="matrix(0.089186,-0,-0,0.180668,398.541059,633.570629)">
                        <path d="M760.988,380.38L760.988,542.304C760.988,586.258 688.099,621.943 598.321,621.943L272.986,621.943C183.207,621.943 110.318,586.258 110.318,542.304L110.318,380.38C110.318,336.426 183.207,300.741 272.986,300.741L598.321,300.741C688.099,300.741 760.988,336.426 760.988,380.38Z" style="fill:white;"/>
                    </g>
                </g>
            </g>
            <g transform="matrix(1,0,0,1,-0,-83.927815)">
                <g transform="matrix(0.089186,-0,-0,0.180668,493.931098,633.570629)">
                    <path d="M760.988,380.38L760.988,542.304C760.988,586.258 688.099,621.943 598.321,621.943L272.986,621.943C183.207,621.943 110.318,586.258 110.318,542.304L110.318,380.38C110.318,336.426 183.207,300.741 272.986,300.741L598.321,300.741C688.099,300.741 760.988,336.426 760.988,380.38Z" style="fill:white;"/>
                </g>
                <g transform="matrix(0.089186,-0,-0,0.180668,398.541059,633.570629)">
                    <path d="M760.988,380.38L760.988,542.304C760.988,586.258 688.099,621.943 598.321,621.943L272.986,621.943C183.207,621.943 110.318,586.258 110.318,542.304L110.318,380.38C110.318,336.426 183.207,300.741 272.986,300.741L598.321,300.741C688.099,300.741 760.988,336.426 760.988,380.38Z" style="fill:white;"/>
                </g>
            </g>
            <g transform="matrix(1,0,0,1,0,-167.855629)">
                <g transform="matrix(0.089186,-0,-0,0.180668,493.931098,633.570629)">
                    <path d="M760.988,380.38L760.988,542.304C760.988,586.258 688.099,621.943 598.321,621.943L272.986,621.943C183.207,621.943 110.318,586.258 110.318,542.304L110.318,380.38C110.318,336.426 183.207,300.741 272.986,300.741L598.321,300.741C688.099,300.741 760.988,336.426 760.988,380.38Z" style="fill:white;"/>
                </g>
                <g transform="matrix(0.089186,-0,-0,0.180668,398.541059,633.570629)">
                    <path d="M760.988,380.38L760.988,542.304C760.988,586.258 688.099,621.943 598.321,621.943L272.986,621.943C183.207,621.943 110.318,586.258 110.318,542.304L110.318,380.38C110.318,336.426 183.207,300.741 272.986,300.741L598.321,300.741C688.099,300.741 760.988,336.426 760.988,380.38Z" style="fill:white;"/>
                </g>
            </g>
        </g>
        <g transform="matrix(1.495635,-0,-0,0.197228,-24.795715,739.093526)">
            <path d="M760.988,461.342C760.988,549.98 751.499,621.943 739.81,621.943L131.497,621.943C119.808,621.943 110.318,549.98 110.318,461.342C110.318,372.704 119.808,300.741 131.497,300.741L739.81,300.741C751.499,300.741 760.988,372.704 760.988,461.342Z" style="fill:rgb(1,55,125);"/>
        </g>
        <g transform="matrix(0.185533,-0.024628,0.024425,0.187074,426.817285,366.836718)">
            <g transform="matrix(1,0,0,1,-1666.666667,-1666.666667)">
                <clipPath id="_clip1">
                    <rect x="0" y="0" width="3333.333" height="3333.333"/>
                </clipPath>
                <g clip-path="url(#_clip1)">
                    <g id="path734" transform="matrix(572.674427,0,0,595.708497,-0.480839,459.758113)">
                        <g id="layer1">
                            <path id="path7341" serif:id="path734" d="M4.621,0C4.476,0.001 4.357,0.119 4.356,0.264C4.356,0.264 4.356,0.264 4.356,0.265C4.356,0.41 4.476,0.529 4.621,0.529L4.894,0.529C3.397,1.816 1.831,2.615 0.216,2.914C0.074,2.941 -0.021,3.08 0.005,3.223C0.031,3.365 0.169,3.461 0.312,3.436C2.05,3.114 3.723,2.25 5.292,0.888C5.292,0.888 5.292,1.2 5.292,1.2C5.292,1.345 5.411,1.464 5.556,1.465C5.556,1.465 5.557,1.465 5.557,1.465C5.702,1.465 5.821,1.345 5.821,1.2C5.821,1.2 5.821,0.42 5.821,0.42C5.822,0.192 5.628,0 5.4,0L4.621,0Z" style="fill:rgb(126,211,72);fill-rule:nonzero;"/>
                        </g>
                    </g>
                </g>
            </g>
        </g>
    </g>
    <g transform="matrix(1.756924,0,0,1.756924,256.384356,-85.421144)">
        <circle cx="94.064" cy="255.432" r="35.447" style="fill:rgb(1,55,125);"/>
        <g>
            <path d="M89.09,235.184L89.09,248.424L102.33,248.424C102.33,255.737 96.402,261.664 89.09,261.664C81.782,261.664 75.85,255.732 75.85,248.424C75.85,241.112 81.777,235.184 89.09,235.184Z" style="fill:white;"/>
            <path d="M102.858,263.753L102.858,273.473C102.858,274.22 102.253,274.825 101.506,274.825L98.803,274.825C98.057,274.825 97.451,274.22 97.451,273.473L97.451,263.753C97.451,263.007 98.057,262.401 98.803,262.401L101.506,262.401C102.253,262.401 102.858,263.007 102.858,263.753Z" style="fill:white;"/>
            <path d="M111.423,258.787L111.423,273.473C111.423,274.22 110.817,274.825 110.071,274.825L107.367,274.825C106.621,274.825 106.016,274.22 106.016,273.473L106.016,258.787C106.016,258.041 106.621,257.435 107.367,257.435L110.071,257.435C110.817,257.435 111.423,258.041 111.423,258.787Z" style="fill:white;"/>
            <path d="M94.497,267.89L94.497,273.473C94.497,274.22 93.891,274.825 93.145,274.825L90.441,274.825C89.695,274.825 89.09,274.22 89.09,273.473L89.09,267.89C89.09,267.144 89.695,266.538 90.441,266.538L93.145,266.538C93.891,266.538 94.497,267.144 94.497,267.89Z" style="fill:white;"/>
        </g>
    </g>
    <g transform="matrix(0.045536,0,0,0.045536,504.134479,201.159729)">
        <g transform="matrix(1,0,0,1,-1666.666667,-1666.666667)">
            <path d="M2577.708,1597.307L2577.708,2289.697C2577.708,2480.768 2422.583,2635.892 2231.513,2635.892L1132.434,2635.892C941.364,2635.892 786.239,2480.768 786.239,2289.697L786.239,1597.307C786.239,1406.237 941.364,1251.112 1132.434,1251.112L2231.513,1251.112C2422.583,1251.112 2577.708,1406.237 2577.708,1597.307Z" style="fill:white;"/>
            <g transform="matrix(138.888889,0,0,138.888889,0,0)">
                <path d="M4,4.694L4,18.694C4,20.351 5.343,21.694 7,21.694L17,21.694C18.657,21.694 20,20.351 20,18.694L20,8.694C20,7.037 18.657,5.694 17,5.694L5,5.694C4.448,5.694 4,5.247 4,4.694ZM7.25,11.694C7.25,11.28 7.586,10.944 8,10.944L16,10.944C16.414,10.944 16.75,11.28 16.75,11.694C16.75,12.108 16.414,12.444 16,12.444L8,12.444C7.586,12.444 7.25,12.108 7.25,11.694ZM7.25,15.194C7.25,14.78 7.586,14.444 8,14.444L13.5,14.444C13.914,14.444 14.25,14.78 14.25,15.194C14.25,15.608 13.914,15.944 13.5,15.944L8,15.944C7.586,15.944 7.25,15.608 7.25,15.194Z" style="fill:rgb(1,55,125);"/>
            </g>
            <g transform="matrix(138.888889,0,0,138.888889,0,0)">
                <path d="M18,4L18,5.865C17.687,5.754 17.351,5.694 17,5.694L5,5.694C4.448,5.694 4,5.247 4,4.694L4,4.623C4,4.09 4.392,3.638 4.92,3.563L15.717,2.02C16.922,1.848 18,2.783 18,4Z" style="fill:rgb(1,55,125);fill-opacity:0.6;fill-rule:nonzero;"/>
            </g>
        </g>
    </g>
    <g transform="matrix(0.037925,0,0,0.037925,254.676611,445.3027)">
        <g transform="matrix(1,0,0,1,-1666.666667,-1666.666667)">
            <path d="M2841.986,1131.144L2841.986,2222.021C2841.986,2523.057 2597.583,2767.46 2296.548,2767.46L1143.856,2767.46C842.821,2767.46 598.418,2523.057 598.418,2222.021L598.418,1131.144C598.418,830.109 842.821,585.706 1143.856,585.706L2296.548,585.706C2597.583,585.706 2841.986,830.109 2841.986,1131.144Z" style="fill:white;"/>
            <g transform="matrix(138.888889,0,0,138.888889,0,0)">
                <path d="M12,22C7.286,22 4.929,22 3.464,20.535C2,19.071 2,16.714 2,12C2,7.286 2,4.929 3.464,3.464C4.929,2 7.286,2 12,2C16.714,2 19.071,2 20.535,3.464C22,4.929 22,7.286 22,12C22,16.714 22,19.071 20.535,20.535C19.071,22 16.714,22 12,22ZM8.75,6.5C8.75,6.086 8.414,5.75 8,5.75C7.586,5.75 7.25,6.086 7.25,6.5L7.25,7.75L6,7.75C5.586,7.75 5.25,8.086 5.25,8.5C5.25,8.914 5.586,9.25 6,9.25L7.25,9.25L7.25,10.5C7.25,10.914 7.586,11.25 8,11.25C8.414,11.25 8.75,10.914 8.75,10.5L8.75,9.25L10,9.25C10.414,9.25 10.75,8.914 10.75,8.5C10.75,8.086 10.414,7.75 10,7.75L8.75,7.75L8.75,6.5ZM14,7.75C13.586,7.75 13.25,8.086 13.25,8.5C13.25,8.914 13.586,9.25 14,9.25L18,9.25C18.414,9.25 18.75,8.914 18.75,8.5C18.75,8.086 18.414,7.75 18,7.75L14,7.75ZM14,13.75C13.586,13.75 13.25,14.086 13.25,14.5C13.25,14.914 13.586,15.25 14,15.25L18,15.25C18.414,15.25 18.75,14.914 18.75,14.5C18.75,14.086 18.414,13.75 18,13.75L14,13.75ZM7.03,13.97C6.737,13.677 6.263,13.677 5.97,13.97C5.677,14.263 5.677,14.737 5.97,15.03L6.939,16L5.97,16.97C5.677,17.263 5.677,17.737 5.97,18.03C6.263,18.323 6.737,18.323 7.03,18.03L8,17.061L8.97,18.03C9.263,18.323 9.737,18.323 10.03,18.03C10.323,17.737 10.323,17.263 10.03,16.97L9.061,16L10.03,15.03C10.323,14.737 10.323,14.263 10.03,13.97C9.737,13.677 9.263,13.677 8.97,13.97L8,14.939L7.03,13.97ZM14,16.75C13.586,16.75 13.25,17.086 13.25,17.5C13.25,17.914 13.586,18.25 14,18.25L18,18.25C18.414,18.25 18.75,17.914 18.75,17.5C18.75,17.086 18.414,16.75 18,16.75L14,16.75Z" style="fill:rgb(1,55,125);"/>
            </g>
        </g>
    </g>
    <g transform="matrix(0.960633,0,0,0.960633,-498.10952,-406.769609)">
        <circle cx="832.593" cy="676.827" r="60.026" style="fill:rgb(1,55,125);"/>
        <g transform="matrix(0.641453,0,0,0.60886,290.072467,251.870981)">
            <g transform="matrix(116.728517,0,0,116.728517,885.210223,736.853145)">
            </g>
            <text x="807.353px" y="736.853px" style="font-family:'Arial-Black', 'Arial Black', sans-serif;font-weight:900;font-size:116.729px;fill:white;">$</text>
        </g>
    </g>
</svg>
