<?xml version="1.0" encoding="UTF-8" standalone="no"?>
<!DOCTYPE svg PUBLIC "-//W3C//DTD SVG 1.1//EN" "http://www.w3.org/Graphics/SVG/1.1/DTD/svg11.dtd">
<svg width="100%" height="100%" viewBox="0 0 1250 1000" version="1.1" xmlns="http://www.w3.org/2000/svg" xmlns:xlink="http://www.w3.org/1999/xlink" xml:space="preserve" xmlns:serif="http://www.serif.com/" style="fill-rule:evenodd;clip-rule:evenodd;stroke-linejoin:round;stroke-miterlimit:2;">
    <g transform="matrix(2.541704,0,0,2.541704,144.08802,29.357826)">
        <path d="M206.39,244.079C206.39,246.87 204.124,249.137 201.332,249.137L171.539,249.137C168.747,249.137 166.481,246.87 166.481,244.079C166.481,241.287 168.747,239.021 171.539,239.021L201.332,239.021C204.124,239.021 206.39,241.287 206.39,244.079Z" style="fill:rgb(1,55,125);"/>
        <path d="M173.56,268.07C173.56,265.278 175.826,263.012 178.618,263.012L208.411,263.012C211.203,263.012 213.469,265.278 213.469,268.07C213.469,270.862 211.203,273.128 208.411,273.128L178.618,273.128C175.826,273.128 173.56,270.862 173.56,268.07Z" style="fill:rgb(1,55,125);"/>
        <path d="M191.51,234.069C191.51,232.544 192.427,231.169 193.834,230.581C195.241,229.994 196.864,230.31 197.948,231.383C201.469,234.866 205.821,239.172 209.357,242.67C210.447,243.748 210.777,245.377 210.195,246.794C209.612,248.212 208.231,249.137 206.699,249.137L195.29,249.137C194.287,249.137 193.326,248.739 192.617,248.03C191.908,247.321 191.51,246.36 191.51,245.357L191.51,234.069Z" style="fill:rgb(124,210,76);"/>
        <path d="M188.44,278.079C188.44,279.604 187.523,280.98 186.116,281.567C184.709,282.155 183.086,281.839 182.002,280.766C178.481,277.283 174.129,272.977 170.593,269.478C169.503,268.401 169.173,266.772 169.755,265.354C170.338,263.937 171.719,263.012 173.251,263.012L184.66,263.012C185.663,263.012 186.624,263.41 187.333,264.119C188.042,264.828 188.44,265.789 188.44,266.791L188.44,278.079Z" style="fill:rgb(124,210,76);"/>
        <g>
            <path d="M273.612,218.729C282.945,218.729 301.611,218.729 310.944,230.134C320.277,241.54 320.277,264.35 310.944,287.16C309.638,290.581 307.921,294.002 305.898,297.378C299.084,308.706 286.832,315.635 273.612,315.635C260.393,315.635 248.14,308.706 241.327,297.378C239.304,294.002 237.587,290.581 236.281,287.16C226.948,264.35 226.948,241.54 236.281,230.134C245.614,218.729 264.279,218.729 273.612,218.729Z" style="fill:rgb(1,55,125);"/>
            <path d="M273.612,240.37C274.806,240.37 277.192,240.37 278.385,241.828C279.579,243.286 279.579,246.203 278.385,249.119C278.385,249.12 278.384,249.122 278.384,249.123C277.627,251.101 275.73,252.407 273.612,252.407C271.495,252.407 269.597,251.101 268.841,249.123C268.841,249.122 268.84,249.12 268.839,249.119C267.646,246.203 267.646,243.286 268.839,241.828C270.033,240.37 272.419,240.37 273.612,240.37Z" style="fill:white;"/>
            <ellipse cx="273.612" cy="256.529" rx="1.197" ry="1.204" style="fill:white;"/>
            <path d="M273.612,183.975C278.844,183.975 289.307,183.975 294.539,190.368C299.771,196.761 299.771,209.548 294.539,222.335C291.225,231.012 282.9,236.744 273.612,236.744C264.324,236.744 255.999,231.012 252.686,222.335C247.454,209.548 247.454,196.761 252.686,190.368C257.917,183.975 268.381,183.975 273.612,183.975Z" style="fill:rgb(124,210,76);"/>
        </g>
        <g>
            <path d="M104.805,218.729C114.138,218.729 132.804,218.729 142.137,230.134C151.47,241.54 151.47,264.35 142.137,287.16C140.83,290.581 139.113,294.002 137.091,297.378C130.277,308.706 118.025,315.635 104.805,315.635C91.585,315.635 79.333,308.706 72.52,297.378C70.497,294.002 68.78,290.581 67.473,287.16C58.14,264.35 58.14,241.54 67.473,230.134C76.806,218.729 95.472,218.729 104.805,218.729Z" style="fill:rgb(1,55,125);"/>
            <path d="M104.805,240.37C105.998,240.37 108.385,240.37 109.578,241.828C110.771,243.286 110.771,246.203 109.578,249.119C109.578,249.12 109.577,249.122 109.577,249.123C108.82,251.101 106.922,252.407 104.805,252.407C102.688,252.407 100.79,251.101 100.034,249.123C100.033,249.122 100.033,249.12 100.032,249.119C98.839,246.203 98.839,243.286 100.032,241.828C101.226,240.37 103.612,240.37 104.805,240.37Z" style="fill:white;"/>
            <ellipse cx="104.805" cy="256.529" rx="1.197" ry="1.204" style="fill:white;"/>
            <path d="M104.805,183.975C110.037,183.975 120.5,183.975 125.732,190.368C130.964,196.761 130.964,209.548 125.732,222.335C122.418,231.012 114.093,236.744 104.805,236.744C95.517,236.744 87.192,231.012 83.879,222.335C78.647,209.548 78.647,196.761 83.879,190.368C89.11,183.975 99.574,183.975 104.805,183.975Z" style="fill:rgb(124,210,76);"/>
        </g>
        <path d="M155.261,131.009C158.054,145.171 148.823,158.936 134.661,161.728C120.499,164.521 106.734,155.29 103.941,141.128C102.881,135.754 102.324,130.203 102.324,124.524C102.324,77.019 141.177,38.307 189.209,38.307C237.241,38.307 276.093,77.019 276.093,124.524C276.093,130.203 275.536,135.754 274.477,141.128C271.684,155.29 257.919,164.521 243.757,161.728C229.595,158.936 220.364,145.171 223.156,131.009C223.57,128.91 223.785,126.742 223.785,124.524C223.785,105.729 208.213,90.615 189.209,90.615C170.205,90.615 154.632,105.729 154.632,124.524C154.632,126.742 154.847,128.91 155.261,131.009Z" style="fill:rgb(124,210,76);"/>
        <ellipse cx="189.209" cy="124.524" rx="60.73" ry="60.063" style="fill:rgb(1,55,125);"/>
        <g transform="matrix(0.235164,0,0,0.235164,146.602106,80.029005)">
            <path d="M306.446,108.884L306.446,269.534C306.446,301.42 280.558,327.308 248.672,327.308L133.123,327.308C101.237,327.308 75.349,301.42 75.349,269.534L75.349,108.884C75.349,76.997 101.237,51.109 133.123,51.109L248.672,51.109C280.558,51.109 306.446,76.997 306.446,108.884Z" style="fill:white;"/>
            <path d="M63.321,96.857L63.321,148.601L108.614,122.701C113.217,130.574 115.64,139.507 115.64,148.601C115.64,177.159 92.197,200.345 63.321,200.345C34.446,200.345 11.003,177.159 11.003,148.601C11.003,120.024 34.427,96.857 63.321,96.857Z" style="fill:rgb(124,210,76);"/>
            <path d="M231.023,244.5L231.023,296.217C231.023,299.57 228.3,302.292 224.947,302.292L212.797,302.292C209.444,302.292 206.721,299.57 206.721,296.217L206.721,244.5C206.721,241.147 209.444,238.425 212.797,238.425L224.947,238.425C228.3,238.425 231.023,241.147 231.023,244.5Z" style="fill:rgb(124,210,76);"/>
            <path d="M270.921,214.282L270.921,296.217C270.921,299.57 268.199,302.292 264.846,302.292L252.695,302.292C249.342,302.292 246.62,299.57 246.62,296.217L246.62,214.282C246.62,210.929 249.342,208.207 252.695,208.207L264.846,208.207C268.199,208.207 270.921,210.929 270.921,214.282Z" style="fill:rgb(124,210,76);"/>
            <path d="M312.263,252.856L312.263,296.217C312.263,299.57 309.54,302.292 306.187,302.292L294.037,302.292C290.684,302.292 287.961,299.57 287.961,296.217L287.961,252.856C287.961,249.503 290.684,246.781 294.037,246.781L306.187,246.781C309.54,246.781 312.263,249.503 312.263,252.856Z" style="fill:rgb(124,210,76);"/>
            <path d="M351.352,230.177L351.352,296.217C351.352,299.57 348.63,302.292 345.277,302.292L333.126,302.292C329.773,302.292 327.051,299.57 327.051,296.217L327.051,230.177C327.051,226.823 329.773,224.101 333.126,224.101L345.277,224.101C348.63,224.101 351.352,226.823 351.352,230.177Z" style="fill:rgb(124,210,76);"/>
            <g>
                <path d="M265.104,101.077C265.104,105.877 261.207,109.774 256.407,109.774L130.763,109.774C125.962,109.774 122.065,105.877 122.065,101.077C122.065,96.277 125.962,92.38 130.763,92.38L256.407,92.38C261.207,92.38 265.104,96.277 265.104,101.077Z" style="fill:rgb(1,55,125);"/>
                <path d="M265.104,136.33C265.104,141.13 261.207,145.027 256.407,145.027L151.643,145.027C146.843,145.027 142.946,141.13 142.946,136.33C142.946,131.53 146.843,127.632 151.643,127.632L256.407,127.632C261.207,127.632 265.104,131.53 265.104,136.33Z" style="fill:rgb(1,55,125);"/>
                <path d="M265.104,171.582C265.104,176.383 261.207,180.28 256.407,180.28L143.75,180.28C138.95,180.28 135.052,176.383 135.052,171.582C135.052,166.782 138.95,162.885 143.75,162.885L256.407,162.885C261.207,162.885 265.104,166.782 265.104,171.582Z" style="fill:rgb(1,55,125);"/>
                <path d="M225.206,206.835C225.206,211.635 221.309,215.533 216.508,215.533L126.198,215.533C121.398,215.533 117.501,211.635 117.501,206.835C117.501,202.035 121.398,198.138 126.198,198.138L216.508,198.138C221.309,198.138 225.206,202.035 225.206,206.835Z" style="fill:rgb(1,55,125);"/>
                <path d="M183.787,242.088C183.787,246.888 179.89,250.785 175.09,250.785L126.198,250.785C121.398,250.785 117.501,246.888 117.501,242.088C117.501,237.288 121.398,233.391 126.198,233.391L175.09,233.391C179.89,233.391 183.787,237.288 183.787,242.088Z" style="fill:rgb(1,55,125);"/>
                <path d="M183.787,277.341C183.787,282.141 179.89,286.038 175.09,286.038L125.388,286.038C120.588,286.038 116.691,282.141 116.691,277.341C116.691,272.54 120.588,268.643 125.388,268.643L175.09,268.643C179.89,268.643 183.787,272.54 183.787,277.341Z" style="fill:rgb(1,55,125);"/>
            </g>
        </g>
    </g>
</svg>
