<?xml version="1.0" encoding="UTF-8" standalone="no"?>
<!DOCTYPE svg PUBLIC "-//W3C//DTD SVG 1.1//EN" "http://www.w3.org/Graphics/SVG/1.1/DTD/svg11.dtd">
<svg width="100%" height="100%" viewBox="0 0 1250 1000" version="1.1" xmlns="http://www.w3.org/2000/svg" xmlns:xlink="http://www.w3.org/1999/xlink" xml:space="preserve" xmlns:serif="http://www.serif.com/" style="fill-rule:evenodd;clip-rule:evenodd;stroke-linejoin:round;stroke-miterlimit:2;">
    <g id="years" transform="matrix(1.21909,0,0,1.21909,-143.892939,-185.723296)">
        <g transform="matrix(0.151631,0,0,0.151631,630.710422,500)">
            <g transform="matrix(1,0,0,1,-1666.666667,-1666.666667)">
                <clipPath id="_clip1">
                    <rect x="0" y="0" width="3333.333" height="3333.333"/>
                </clipPath>
                <g clip-path="url(#_clip1)">
                    <g transform="matrix(1,0,0,1,-138.757161,-392.487989)">
                        <path d="M1805.424,392.488C2221.927,392.488 2560.074,730.635 2560.074,1147.138C2560.074,1563.641 2221.927,1901.788 1805.424,1901.788C1388.921,1901.788 1050.774,1563.641 1050.774,1147.138C1050.774,730.635 1388.921,392.488 1805.424,392.488ZM1805.424,769.813C2013.675,769.813 2182.749,938.887 2182.749,1147.138C2182.749,1355.39 2013.675,1524.463 1805.424,1524.463C1597.172,1524.463 1428.099,1355.39 1428.099,1147.138C1428.099,938.887 1597.172,769.813 1805.424,769.813Z" style="fill:rgb(1,55,125);"/>
                    </g>
                    <g transform="matrix(166.666667,0,0,136.236989,-333.333333,336.119566)">
                        <path d="M12,22C7.286,22 4.929,22 3.464,20.535C2,19.071 2,16.714 2,12C2,7.286 2,4.929 3.464,3.464C4.929,2 7.286,2 12,2C16.714,2 19.071,2 20.535,3.464C22,4.929 22,7.286 22,12C22,16.714 22,19.071 20.535,20.535C19.071,22 16.714,22 12,22Z" style="fill:rgb(1,55,125);"/>
                    </g>
                    <g transform="matrix(4.082158,0,0,0.980906,-5304.886815,630.259347)">
                        <path d="M2116.091,1489.657L2116.091,1556.427C2116.091,1574.852 2112.497,1589.812 2108.069,1589.812L1307.552,1589.812C1303.124,1589.812 1299.53,1574.852 1299.53,1556.427L1299.53,1489.657C1299.53,1471.232 1303.124,1456.272 1307.552,1456.272L2108.069,1456.272C2112.497,1456.272 2116.091,1471.232 2116.091,1489.657Z" style="fill:white;"/>
                    </g>
                    <g transform="matrix(19.884187,0,0,14.706989,733.490887,1941.549461)">
                        <path d="M12,22C7.286,22 4.929,22 3.464,20.535C2,19.071 2,16.714 2,12C2,7.286 2,4.929 3.464,3.464C4.929,2 7.286,2 12,2C16.714,2 19.071,2 20.535,3.464C22,4.929 22,7.286 22,12C22,16.714 22,19.071 20.535,20.535C19.071,22 16.714,22 12,22Z" style="fill:white;"/>
                    </g>
                    <g transform="matrix(19.884187,0,0,14.706989,2122.621954,1941.549461)">
                        <path d="M12,22C7.286,22 4.929,22 3.464,20.535C2,19.071 2,16.714 2,12C2,7.286 2,4.929 3.464,3.464C4.929,2 7.286,2 12,2C16.714,2 19.071,2 20.535,3.464C22,4.929 22,7.286 22,12C22,16.714 22,19.071 20.535,20.535C19.071,22 16.714,22 12,22Z" style="fill:white;"/>
                    </g>
                </g>
            </g>
        </g>
        <g transform="matrix(0.072141,0,0,0.072141,896.908978,692.921615)">
            <g transform="matrix(1,0,0,1,-1666.666667,-1666.666667)">
                <path d="M2577.708,1597.307L2577.708,2289.697C2577.708,2480.768 2422.583,2635.892 2231.513,2635.892L1132.434,2635.892C941.364,2635.892 786.239,2480.768 786.239,2289.697L786.239,1597.307C786.239,1406.237 941.364,1251.112 1132.434,1251.112L2231.513,1251.112C2422.583,1251.112 2577.708,1406.237 2577.708,1597.307Z" style="fill:rgb(1,55,125);"/>
                <g transform="matrix(138.888889,0,0,138.888889,0,0)">
                    <path d="M4,4.694L4,18.694C4,20.351 5.343,21.694 7,21.694L17,21.694C18.657,21.694 20,20.351 20,18.694L20,8.694C20,7.037 18.657,5.694 17,5.694L5,5.694C4.448,5.694 4,5.247 4,4.694ZM7.25,11.694C7.25,11.28 7.586,10.944 8,10.944L16,10.944C16.414,10.944 16.75,11.28 16.75,11.694C16.75,12.108 16.414,12.444 16,12.444L8,12.444C7.586,12.444 7.25,12.108 7.25,11.694ZM7.25,15.194C7.25,14.78 7.586,14.444 8,14.444L13.5,14.444C13.914,14.444 14.25,14.78 14.25,15.194C14.25,15.608 13.914,15.944 13.5,15.944L8,15.944C7.586,15.944 7.25,15.608 7.25,15.194Z" style="fill:rgb(126,211,72);"/>
                </g>
                <g transform="matrix(138.888889,0,0,138.888889,0,0)">
                    <path d="M18,4L18,5.865C17.687,5.754 17.351,5.694 17,5.694L5,5.694C4.448,5.694 4,5.247 4,4.694L4,4.623C4,4.09 4.392,3.638 4.92,3.563L15.717,2.02C16.922,1.848 18,2.783 18,4Z" style="fill:rgb(126,211,72);fill-opacity:0.5;fill-rule:nonzero;"/>
                </g>
            </g>
        </g>
        <g transform="matrix(0.067735,0,0,0.067735,377.992024,700.264792)">
            <g transform="matrix(1,0,0,1,-1666.666667,-1666.666667)">
                <path d="M2841.986,1131.144L2841.986,2222.021C2841.986,2523.057 2597.583,2767.46 2296.548,2767.46L1143.856,2767.46C842.821,2767.46 598.418,2523.057 598.418,2222.021L598.418,1131.144C598.418,830.109 842.821,585.706 1143.856,585.706L2296.548,585.706C2597.583,585.706 2841.986,830.109 2841.986,1131.144Z" style="fill:rgb(1,55,125);"/>
                <g transform="matrix(138.888889,0,0,138.888889,0,0)">
                    <path d="M12,22C7.286,22 4.929,22 3.464,20.535C2,19.071 2,16.714 2,12C2,7.286 2,4.929 3.464,3.464C4.929,2 7.286,2 12,2C16.714,2 19.071,2 20.535,3.464C22,4.929 22,7.286 22,12C22,16.714 22,19.071 20.535,20.535C19.071,22 16.714,22 12,22ZM8.75,6.5C8.75,6.086 8.414,5.75 8,5.75C7.586,5.75 7.25,6.086 7.25,6.5L7.25,7.75L6,7.75C5.586,7.75 5.25,8.086 5.25,8.5C5.25,8.914 5.586,9.25 6,9.25L7.25,9.25L7.25,10.5C7.25,10.914 7.586,11.25 8,11.25C8.414,11.25 8.75,10.914 8.75,10.5L8.75,9.25L10,9.25C10.414,9.25 10.75,8.914 10.75,8.5C10.75,8.086 10.414,7.75 10,7.75L8.75,7.75L8.75,6.5ZM14,7.75C13.586,7.75 13.25,8.086 13.25,8.5C13.25,8.914 13.586,9.25 14,9.25L18,9.25C18.414,9.25 18.75,8.914 18.75,8.5C18.75,8.086 18.414,7.75 18,7.75L14,7.75ZM14,13.75C13.586,13.75 13.25,14.086 13.25,14.5C13.25,14.914 13.586,15.25 14,15.25L18,15.25C18.414,15.25 18.75,14.914 18.75,14.5C18.75,14.086 18.414,13.75 18,13.75L14,13.75ZM7.03,13.97C6.737,13.677 6.263,13.677 5.97,13.97C5.677,14.263 5.677,14.737 5.97,15.03L6.939,16L5.97,16.97C5.677,17.263 5.677,17.737 5.97,18.03C6.263,18.323 6.737,18.323 7.03,18.03L8,17.061L8.97,18.03C9.263,18.323 9.737,18.323 10.03,18.03C10.323,17.737 10.323,17.263 10.03,16.97L9.061,16L10.03,15.03C10.323,14.737 10.323,14.263 10.03,13.97C9.737,13.677 9.263,13.677 8.97,13.97L8,14.939L7.03,13.97ZM14,16.75C13.586,16.75 13.25,17.086 13.25,17.5C13.25,17.914 13.586,18.25 14,18.25L18,18.25C18.414,18.25 18.75,17.914 18.75,17.5C18.75,17.086 18.414,16.75 18,16.75L14,16.75Z" style="fill:rgb(126,211,72);"/>
                </g>
            </g>
        </g>
        <g transform="matrix(0.055432,0,0,0.055432,630.710422,785.307718)">
            <g transform="matrix(1,0,0,1,-1666.666667,-1666.666667)">
                <clipPath id="_clip2">
                    <rect x="0" y="0" width="3333.333" height="3333.333"/>
                </clipPath>
                <g clip-path="url(#_clip2)">
                    <g transform="matrix(1,0,0,1,-131.691133,-91.732775)">
                        <circle cx="1798.358" cy="1758.399" r="1231.465" style="fill:rgb(1,55,125);"/>
                    </g>
                    <g transform="matrix(175.438596,0,0,175.438596,-34561.403509,-26315.789474)">
                        <path d="M207.961,159.843L210.399,161.251C210.637,161.389 210.714,161.701 210.58,161.933C210.442,162.172 210.144,162.259 209.899,162.117L207.419,160.685C207.165,160.883 206.846,161 206.5,161C205.672,161 205,160.328 205,159.5C205,158.847 205.417,158.291 206,158.085L206,153.503C206,153.225 206.232,153 206.5,153C206.776,153 207,153.233 207,153.503L207,158.085C207.583,158.291 208,158.847 208,159.5C208,159.618 207.986,159.733 207.961,159.843ZM206.5,169C211.747,169 216,164.747 216,159.5C216,154.253 211.747,150 206.5,150C201.253,150 197,154.253 197,159.5C197,164.747 201.253,169 206.5,169Z" style="fill:rgb(126,211,72);"/>
                    </g>
                </g>
            </g>
        </g>
    </g>
</svg>
