<?xml version="1.0" encoding="UTF-8" standalone="no"?><!DOCTYPE svg PUBLIC "-//W3C//DTD SVG 1.1//EN" "http://www.w3.org/Graphics/SVG/1.1/DTD/svg11.dtd"><svg width="100%" height="100%" viewBox="0 0 150 125" version="1.1" xmlns="http://www.w3.org/2000/svg" xmlns:xlink="http://www.w3.org/1999/xlink" xml:space="preserve" xmlns:serif="http://www.serif.com/" style="fill-rule:evenodd;clip-rule:evenodd;stroke-linejoin:round;stroke-miterlimit:2;"><g><g><clipPath id="_clip1"><rect x="0" y="-12.5" width="150" height="150"/></clipPath><g clip-path="url(#_clip1)"><g><path d="M3.662,74.246l0.226,0.076c2.725,0.875 5.6,-0.526 6.45,-3.076l3.05,-9.95c0.824,-2.55 -0.7,-5.351 -3.425,-6.226l-0.226,-0.074c-2.725,-0.876 -5.6,0.524 -6.45,3.074l-3.076,9.95c-0.8,2.55 0.725,5.351 3.45,6.226" style="fill:#084f99;fill-rule:nonzero;"/><g><path d="M36.289,46.044c0.551,-1.35 1.601,-2.425 2.9,-3.05c0.074,-0.025 0.125,-0.05 0.2,-0.074c0.024,-0.025 0.074,-0.025 0.1,-0.05c1.025,-0.4 2.176,-0.475 3.275,-0.125l0.226,0.074c2.725,0.876 4.15,3.95 3.2,6.876l-7.451,25.126c-1.95,5.776 -8.1,8.776 -13.426,7.276c0,0 -1.426,-0.425 -2.026,-0.85c5.326,-1.126 11.951,-32.652 13.001,-35.202" style="fill:#5eb7ff;fill-rule:nonzero;"/></g><path d="M4.513,77.546l0.224,0.076c1.126,0.349 2.3,0.4 3.45,0.125c0.175,-0.025 0.35,-0.076 0.526,-0.15c2.174,-0.7 4.075,-2.476 4.876,-4.95l5.8,-19.102c0.95,-2.9 3.95,-4.574 6.65,-3.725l0.226,0.074c2.725,0.876 4.15,3.95 3.199,6.876c0,0 -5.5,18.101 -6.275,19.626c-5.626,10.175 -16.176,5.2 -19.176,0.95c0.15,0.074 0.325,0.15 0.5,0.199" style="fill:#1479fb;fill-rule:nonzero;"/><g><path d="M128.844,57.62l0.025,-0.1c0,-0.076 -0.025,-0.15 -0.05,-0.2c-0.15,-0.3 -1,-0.9 -2.375,-1.025c-0.125,0 -0.25,-0.025 -0.35,-0.025c-0.974,0 -2.05,0.401 -2.275,0.826l-0.024,0.049l-5.6,13.776l-5.401,-13.825c-0.224,-0.425 -1.5,-0.875 -2.449,-0.875l-0.226,0c-0.15,0 -0.275,-0.025 -0.425,0c-1.35,0.15 -1.825,0.725 -2,1.05c-0.025,0.074 -0.049,0.125 -0.049,0.199l0,0.101c0.224,0.55 7.55,18.826 7.95,19.825l0.025,0.025c0.275,0.3 1.675,0.75 2.575,0.75c0.9,0 2.225,-0.325 2.5,-0.65l0.025,-0.024l8.125,-19.801c-0.025,-0.025 0,-0.076 0,-0.076Zm-27.551,12.676c0,1.426 -0.35,2.45 -1.001,2.875c-0.55,0.325 -1.6,0.725 -3.45,0.725l-0.2,0c-1.574,0 -2.8,-0.3 -3.649,-0.875c-0.65,-0.45 -1.026,-1.075 -1.026,-1.724c0,-1.95 1.1,-2.3 4.375,-2.376l4.951,0l0,1.375Zm4.549,7.075c0.025,-0.049 0.05,-0.125 0.05,-0.199l0,-13.85c-0.025,-2.626 -0.875,-4.501 -2.525,-5.576c-1.576,-1.025 -3.701,-1.524 -6.3,-1.524l-0.45,0c-3.35,0 -6.376,1.2 -7.901,3.1c-0.025,0.025 -0.05,0.076 -0.05,0.125c-0.175,0.551 0.551,1.4 1.325,1.95c0.676,0.475 1.375,0.8 1.876,0.8c0.1,-0.025 0.55,-0.325 0.65,-0.4c0.499,-0.475 1.9,-1.626 3.725,-1.65l0.8,-0.025c1.525,0 3,0.7 3.674,1.375c0.401,0.4 0.6,0.924 0.576,1.6l0,2.05l-6.626,0c-2.299,0.025 -4.075,0.65 -5.275,1.876c-1.2,1.2 -1.824,2.725 -1.824,4.525c0,1.9 0.7,3.475 2.075,4.675c1.375,1.3 4.225,1.9 6.475,1.925c1.45,0 2.624,-0.175 3.45,-0.55c0.5,-0.2 0.95,-0.475 1.3,-0.826l0.401,-0.4l0,0.8c0,0.074 0.025,0.15 0.049,0.199c0.251,0.526 1.35,0.75 2.251,0.75c0.9,0 2.05,-0.224 2.274,-0.75Zm28.676,-12.85c0.276,-2.076 0.925,-2.976 1.801,-3.701c0.924,-0.725 2.024,-0.9 3.625,-0.95c1.35,-0.049 3.049,0.526 3.824,1.276c0.75,0.775 1.2,1.874 1.325,3.325l0.025,0.25l-10.65,0.076l0.049,-0.275Zm14.976,10.1c0.15,-0.576 -0.6,-1.451 -1.35,-2c-0.649,-0.475 -1.35,-0.775 -1.9,-0.8c-0.3,0 -0.5,0.15 -0.551,0.2c-1.325,1.2 -2.8,1.8 -4.45,1.8c-1.475,0 -4.025,-0.5 -5,-1.45c-0.974,-0.876 -1.574,-2.176 -1.65,-3.576l-0.025,-0.25l0.251,0c0.125,0 13.775,0.2 14,0.2c0.224,0 0.425,-0.101 0.575,-0.276c0.625,-0.674 0.65,-2.55 0.575,-3.55l0,-0.025c-0.025,-2.95 -0.974,-5.3 -2.774,-6.976c-1.876,-1.724 -5.076,-2.7 -8.376,-2.525c-1.325,0.076 -2.35,0.25 -3.3,0.575c-1.151,0.401 -2.201,1.05 -3.05,1.901c-0.9,0.875 -1.625,2.05 -2.2,3.55c-0.551,1.45 -0.851,3.325 -0.851,5.501c0,2.275 0.325,4.15 0.976,5.575c0.6,1.5 1.4,2.7 2.35,3.524c0.475,0.401 1.025,0.75 1.576,1.001c2.324,1.249 4.5,1.399 6.076,1.5l0.125,0c0.125,0 4.9,0.125 8.85,-3.775c0.076,0 0.1,-0.05 0.125,-0.125Zm-68.903,2.8c0.425,-1.075 6.1,-19.576 6.275,-20.15l0.025,-0.126c0,-0.074 -0.025,-0.15 -0.05,-0.199c-0.1,-0.2 -0.949,-0.95 -2.425,-1.126c-0.15,-0.025 -0.324,-0.025 -0.499,-0.025c-1.05,0 -2.176,0.376 -2.376,0.775l-0.024,0.05l-4.001,14.1l-5.176,-14.15c-0.15,-0.425 -1.175,-0.824 -2.075,-0.824c-0.925,0 -2.05,0.425 -2.2,0.824l-0.15,-0.049l0.15,0.049l-4.476,13.926l-4.274,-13.776l-0.025,-0.074c-0.2,-0.401 -1.325,-0.875 -2.4,-0.875c-0.101,0 -0.5,0.049 -0.725,0.049l-0.2,0.025c-1.4,0.125 -1.901,0.8 -2.026,1.075c-0.025,0.074 -0.049,0.15 -0.049,0.224l0,0.076l6.625,20.176c0.199,0.45 1.849,0.75 2.899,0.75c1.075,0 2.826,-0.275 3.151,-0.725l3.85,-12.726l4.576,12.701c0.199,0.45 1.85,0.75 2.9,0.75c1.15,0 2.5,-0.25 2.7,-0.725" style="fill:#2b2b2b;fill-rule:nonzero;"/></g></g></g></g></g></svg>