<?xml version="1.0" encoding="UTF-8" standalone="no"?><!DOCTYPE svg PUBLIC "-//W3C//DTD SVG 1.1//EN" "http://www.w3.org/Graphics/SVG/1.1/DTD/svg11.dtd"><svg width="100%" height="100%" viewBox="0 0 125 125" version="1.1" xmlns="http://www.w3.org/2000/svg" xmlns:xlink="http://www.w3.org/1999/xlink" xml:space="preserve" xmlns:serif="http://www.serif.com/" style="fill-rule:evenodd;clip-rule:evenodd;stroke-linejoin:round;stroke-miterlimit:2;"><g><clipPath id="_clip1"><rect id="wave-financial-seeklogo" x="0" y="0" width="125" height="125"/></clipPath><g clip-path="url(#_clip1)"><g><path d="M3.052,72.288l0.188,0.063c2.271,0.729 4.667,-0.438 5.375,-2.563l2.542,-8.292c0.687,-2.125 -0.583,-4.459 -2.854,-5.188l-0.188,-0.062c-2.271,-0.73 -4.667,0.437 -5.375,2.562l-2.563,8.292c-0.667,2.125 0.604,4.459 2.875,5.188" style="fill:#084f99;fill-rule:nonzero;"/><g><path d="M30.241,48.787c0.459,-1.125 1.334,-2.021 2.417,-2.542c0.062,-0.021 0.104,-0.042 0.167,-0.062c0.02,-0.021 0.062,-0.021 0.083,-0.042c0.854,-0.333 1.813,-0.396 2.729,-0.104l0.188,0.062c2.271,0.73 3.458,3.292 2.667,5.73l-6.209,20.938c-1.625,4.813 -6.75,7.313 -11.188,6.063c0,0 -1.188,-0.354 -1.688,-0.708c4.438,-0.938 9.959,-27.21 10.834,-29.335" style="fill:#5eb7ff;fill-rule:nonzero;"/></g><path d="M3.761,75.038l0.187,0.063c0.938,0.291 1.917,0.333 2.875,0.104c0.146,-0.021 0.292,-0.063 0.438,-0.125c1.812,-0.583 3.396,-2.063 4.063,-4.125l4.833,-15.918c0.792,-2.417 3.292,-3.812 5.542,-3.104l0.188,0.062c2.271,0.73 3.458,3.292 2.666,5.73c0,0 -4.583,15.084 -5.229,16.355c-4.688,8.479 -13.48,4.333 -15.98,0.792c0.125,0.062 0.271,0.125 0.417,0.166" style="fill:#1479fb;fill-rule:nonzero;"/><g><path d="M107.37,58.433l0.021,-0.083c0,-0.063 -0.021,-0.125 -0.042,-0.167c-0.125,-0.25 -0.833,-0.75 -1.979,-0.854c-0.104,0 -0.208,-0.021 -0.292,-0.021c-0.812,0 -1.708,0.334 -1.896,0.688l-0.02,0.041l-4.667,11.48l-4.501,-11.521c-0.187,-0.354 -1.25,-0.729 -2.041,-0.729l-0.188,0c-0.125,0 -0.229,-0.021 -0.354,0c-1.125,0.125 -1.521,0.604 -1.667,0.875c-0.021,0.062 -0.041,0.104 -0.041,0.166l0,0.084c0.187,0.458 6.292,15.688 6.625,16.521l0.021,0.021c0.229,0.25 1.396,0.625 2.146,0.625c0.75,0 1.854,-0.271 2.083,-0.542l0.021,-0.02l6.771,-16.501c-0.021,-0.021 0,-0.063 0,-0.063Zm-22.959,10.563c0,1.188 -0.292,2.042 -0.834,2.396c-0.458,0.271 -1.333,0.604 -2.875,0.604l-0.167,0c-1.312,0 -2.333,-0.25 -3.041,-0.729c-0.542,-0.375 -0.855,-0.896 -0.855,-1.437c0,-1.625 0.917,-1.917 3.646,-1.98l4.126,0l0,1.146Zm3.791,5.896c0.021,-0.041 0.042,-0.104 0.042,-0.166l0,-11.542c-0.021,-2.188 -0.729,-3.751 -2.104,-4.647c-1.313,-0.854 -3.084,-1.27 -5.25,-1.27l-0.375,0c-2.792,0 -5.313,1 -6.584,2.583c-0.021,0.021 -0.042,0.063 -0.042,0.104c-0.146,0.459 0.459,1.167 1.104,1.625c0.563,0.396 1.146,0.667 1.563,0.667c0.083,-0.021 0.458,-0.271 0.542,-0.333c0.416,-0.396 1.583,-1.355 3.104,-1.375l0.667,-0.021c1.271,0 2.5,0.583 3.062,1.146c0.334,0.333 0.5,0.77 0.48,1.333l0,1.708l-5.522,0c-1.916,0.021 -3.396,0.542 -4.396,1.563c-1,1 -1.52,2.271 -1.52,3.771c0,1.583 0.583,2.896 1.729,3.896c1.146,1.083 3.521,1.583 5.396,1.604c1.208,0 2.187,-0.146 2.875,-0.458c0.417,-0.167 0.792,-0.396 1.083,-0.688l0.334,-0.333l0,0.667c0,0.062 0.021,0.125 0.041,0.166c0.209,0.438 1.125,0.625 1.876,0.625c0.75,0 1.708,-0.187 1.895,-0.625Zm23.897,-10.708c0.23,-1.73 0.771,-2.48 1.501,-3.084c0.77,-0.604 1.687,-0.75 3.021,-0.792c1.125,-0.041 2.541,0.438 3.187,1.063c0.625,0.646 1,1.562 1.104,2.771l0.021,0.208l-8.875,0.063l0.041,-0.229Zm12.48,8.417c0.125,-0.48 -0.5,-1.209 -1.125,-1.667c-0.541,-0.396 -1.125,-0.646 -1.583,-0.667c-0.25,0 -0.417,0.125 -0.459,0.167c-1.104,1 -2.333,1.5 -3.708,1.5c-1.229,0 -3.354,-0.417 -4.167,-1.208c-0.812,-0.73 -1.312,-1.813 -1.375,-2.98l-0.021,-0.208l0.209,0c0.104,0 11.479,0.167 11.667,0.167c0.187,0 0.354,-0.084 0.479,-0.23c0.521,-0.562 0.542,-2.125 0.479,-2.958l0,-0.021c-0.021,-2.458 -0.812,-4.417 -2.312,-5.813c-1.563,-1.437 -4.23,-2.25 -6.98,-2.104c-1.104,0.063 -1.958,0.208 -2.75,0.479c-0.959,0.334 -1.834,0.875 -2.542,1.584c-0.75,0.729 -1.354,1.708 -1.833,2.958c-0.459,1.208 -0.709,2.771 -0.709,4.584c0,1.896 0.271,3.458 0.813,4.646c0.5,1.25 1.167,2.25 1.958,2.937c0.396,0.334 0.854,0.625 1.313,0.834c1.937,1.041 3.75,1.166 5.063,1.25l0.104,0c0.104,0 4.083,0.104 7.375,-3.146c0.063,0 0.083,-0.042 0.104,-0.104Zm-57.419,2.333c0.354,-0.896 5.083,-16.313 5.229,-16.792l0.021,-0.105c0,-0.062 -0.021,-0.125 -0.042,-0.166c-0.083,-0.167 -0.791,-0.792 -2.021,-0.938c-0.125,-0.021 -0.27,-0.021 -0.416,-0.021c-0.875,0 -1.813,0.313 -1.98,0.646l-0.02,0.042l-3.334,11.75l-4.313,-11.792c-0.125,-0.354 -0.979,-0.687 -1.729,-0.687c-0.771,0 -1.708,0.354 -1.833,0.687l-0.125,-0.041l0.125,0.041l-3.73,11.605l-3.562,-11.48l-0.021,-0.062c-0.167,-0.334 -1.104,-0.729 -2,-0.729c-0.084,0 -0.417,0.041 -0.604,0.041l-0.167,0.021c-1.167,0.104 -1.584,0.667 -1.688,0.896c-0.021,0.062 -0.041,0.125 -0.041,0.187l0,0.063l5.521,16.813c0.166,0.375 1.541,0.625 2.416,0.625c0.896,0 2.355,-0.229 2.626,-0.604l3.208,-10.605l3.813,10.584c0.166,0.375 1.542,0.625 2.417,0.625c0.958,0 2.083,-0.208 2.25,-0.604" style="fill:#2b2b2b;fill-rule:nonzero;"/></g></g></g><g id="wave-financial-seeklogo1" serif:id="wave-financial-seeklogo"></g></g></svg>