<?xml version="1.0" encoding="UTF-8" standalone="no"?><!DOCTYPE svg PUBLIC "-//W3C//DTD SVG 1.1//EN" "http://www.w3.org/Graphics/SVG/1.1/DTD/svg11.dtd"><svg width="100%" height="100%" viewBox="0 0 344 344" version="1.1" xmlns="http://www.w3.org/2000/svg" xmlns:xlink="http://www.w3.org/1999/xlink" xml:space="preserve" xmlns:serif="http://www.serif.com/" style="fill-rule:evenodd;clip-rule:evenodd;stroke-linejoin:round;stroke-miterlimit:2;"><ellipse cx="172" cy="172" rx="171.038" ry="171" style="fill:#fff;"/><path d="M172,82.5c-49.426,0 -89.5,40.074 -89.5,89.5c0,16.538 4.502,32.014 12.329,45.309l-11.456,42.905l45.005,-10.067c12.91,7.22 27.783,11.353 43.622,11.353c49.431,0 89.5,-40.069 89.5,-89.5c0,-49.426 -40.069,-89.5 -89.5,-89.5Zm0,16.273c40.443,0 73.227,32.784 73.227,73.227c0,40.443 -32.784,73.227 -73.227,73.227c-15.177,0 -29.275,-4.616 -40.969,-12.524l-24.974,5.586l6.358,-23.817c-8.554,-11.988 -13.642,-26.622 -13.642,-42.472c0,-40.443 32.784,-73.227 73.227,-73.227Zm-30.625,31.471c-1.492,0 -3.889,0.554 -5.934,2.772c-2.002,2.229 -7.73,7.572 -7.73,18.502c0,10.887 7.909,21.448 9.021,22.896c1.106,1.497 15.334,24.593 37.888,33.478c18.697,7.361 22.521,5.902 26.611,5.522c4.063,-0.353 13.111,-5.343 14.955,-10.512c1.839,-5.175 1.839,-9.612 1.264,-10.545c-0.559,-0.906 -2.013,-1.464 -4.237,-2.576c-2.218,-1.112 -13.115,-6.482 -15.16,-7.215c-2.013,-0.732 -3.504,-1.117 -4.958,1.107c-1.492,2.218 -5.723,7.22 -7.046,8.673c-1.28,1.497 -2.56,1.671 -4.784,0.559c-2.219,-1.112 -9.363,-3.444 -17.83,-11.006c-6.585,-5.863 -11.033,-13.121 -12.318,-15.334c-1.286,-2.219 -0.141,-3.428 0.971,-4.535c1.009,-0.971 2.229,-2.576 3.336,-3.856c1.074,-1.318 1.453,-2.219 2.185,-3.711c0.771,-1.453 0.38,-2.771 -0.173,-3.883c-0.548,-1.118 -4.855,-12.08 -6.835,-16.447c-1.659,-3.677 -3.395,-3.786 -4.99,-3.824c-1.285,-0.065 -2.783,-0.065 -4.236,-0.065Z" style="fill:#01377d;fill-rule:nonzero;"/></svg>