<?xml version="1.0" encoding="UTF-8" standalone="no"?>
<!DOCTYPE svg PUBLIC "-//W3C//DTD SVG 1.1//EN" "http://www.w3.org/Graphics/SVG/1.1/DTD/svg11.dtd">
<svg width="100%" height="100%" viewBox="0 0 125 125" version="1.1" xmlns="http://www.w3.org/2000/svg" xmlns:xlink="http://www.w3.org/1999/xlink" xml:space="preserve" xmlns:serif="http://www.serif.com/" style="fill-rule:evenodd;clip-rule:evenodd;stroke-linejoin:round;stroke-miterlimit:2;">
    <g transform="matrix(0.390625,0,0,0.390625,62.5,62.5)">
        <g id="xero" transform="matrix(1,0,0,1,-128,-128)">
            <g>
                <path d="M128.003,256C198.693,256 256,198.689 256,128C256,57.3 198.699,0 128.003,0C57.307,0 0,57.3 0,128C0,198.689 57.307,256 128.003,256" style="fill:rgb(31,192,231);fill-rule:nonzero;"/>
                <path d="M62.367,127.968L84.167,106.066C84.89,105.337 85.294,104.359 85.294,103.323C85.294,101.162 83.541,99.41 81.385,99.41C80.333,99.41 79.349,99.819 78.609,100.576L56.821,122.381L34.947,100.536C34.207,99.808 33.229,99.41 32.188,99.41C30.026,99.41 28.279,101.162 28.279,103.318C28.279,104.37 28.7,105.366 29.451,106.105L51.251,127.934L29.463,149.779C28.7,150.541 28.279,151.531 28.279,152.584C28.279,154.745 30.032,156.498 32.188,156.498C33.229,156.498 34.207,156.099 34.947,155.36L56.792,133.503L78.552,155.274C79.326,156.071 80.316,156.498 81.385,156.498C83.536,156.498 85.288,154.745 85.288,152.584C85.288,151.543 84.89,150.564 84.15,149.824L62.362,127.945L62.367,127.968ZM191.966,127.962C191.966,131.887 195.152,135.073 199.077,135.073C202.98,135.073 206.165,131.887 206.165,127.962C206.165,124.037 202.98,120.851 199.071,120.851C195.163,120.851 191.983,124.037 191.983,127.962L191.966,127.962ZM178.512,127.962C178.512,116.613 187.728,107.368 199.071,107.368C210.392,107.368 219.625,116.613 219.625,127.962C219.625,139.311 210.398,148.556 199.071,148.556C187.733,148.556 178.512,139.323 178.512,127.962ZM170.422,127.962C170.422,143.777 183.279,156.657 199.071,156.657C214.864,156.657 227.721,143.789 227.721,127.968C227.721,112.153 214.864,99.273 199.071,99.273C183.273,99.273 170.422,112.147 170.422,127.968L170.422,127.962ZM168.391,99.762L167.196,99.762C163.584,99.762 160.102,100.9 157.195,103.147C156.797,101.406 155.227,100.075 153.361,100.075C151.216,100.075 149.493,101.81 149.493,103.966L149.504,152.293C149.504,154.438 151.268,156.185 153.401,156.185C155.551,156.185 157.303,154.438 157.309,152.282L157.309,122.563C157.309,112.665 158.219,108.66 166.684,107.602C167.481,107.505 168.323,107.522 168.334,107.522C170.644,107.437 172.294,105.838 172.294,103.682C172.294,101.52 170.53,99.768 168.368,99.768L168.391,99.762ZM93.377,123.246C93.377,123.132 93.389,123.018 93.394,122.916C95.659,113.928 103.782,107.289 113.448,107.289C123.233,107.289 131.425,114.081 133.586,123.229L93.372,123.229L93.377,123.246ZM141.579,122.506C139.895,114.525 135.532,107.966 128.893,103.756C119.177,97.578 106.354,97.919 96.978,104.609C89.321,110.053 84.901,118.974 84.901,128.161C84.901,130.465 85.185,132.792 85.754,135.085C88.644,146.462 98.418,155.087 110.069,156.515C113.527,156.936 116.895,156.742 120.366,155.832C123.369,155.092 126.265,153.886 128.933,152.168C131.703,150.388 134.019,148.032 136.272,145.216C136.306,145.16 136.351,145.12 136.397,145.063C137.956,143.129 137.665,140.364 135.959,139.055C134.514,137.946 132.09,137.497 130.19,139.943C129.781,140.535 129.32,141.138 128.825,141.735C127.306,143.413 125.423,145.034 123.17,146.297C120.292,147.833 117.026,148.704 113.556,148.727C102.19,148.596 96.114,140.648 93.946,134.982C93.571,133.918 93.281,132.82 93.076,131.683L93.019,131.085L133.808,131.085C139.395,130.96 142.399,127.006 141.568,122.495L141.579,122.506Z" style="fill:white;fill-rule:nonzero;"/>
            </g>
        </g>
        <g id="xero1" serif:id="xero">
        </g>
    </g>
</svg>
