<?xml version="1.0" encoding="UTF-8" standalone="no"?><!DOCTYPE svg PUBLIC "-//W3C//DTD SVG 1.1//EN" "http://www.w3.org/Graphics/SVG/1.1/DTD/svg11.dtd"><svg width="100%" height="100%" viewBox="0 0 125 125" version="1.1" xmlns="http://www.w3.org/2000/svg" xmlns:xlink="http://www.w3.org/1999/xlink" xml:space="preserve" xmlns:serif="http://www.serif.com/" style="fill-rule:evenodd;clip-rule:evenodd;stroke-linejoin:round;stroke-miterlimit:2;"><g><g id="xero"><g><path d="M62.439,97.5c19.33,0 35,-15.671 35,-35c0,-19.332 -15.668,-35 -35,-35c-19.331,0 -35.001,15.668 -35.001,35c0,19.329 15.67,35 35.001,35" style="fill:#1fc0e7;fill-rule:nonzero;"/><path d="M44.492,62.491l5.961,-5.989c0.198,-0.199 0.308,-0.467 0.308,-0.75c0,-0.591 -0.479,-1.07 -1.069,-1.07c-0.288,0 -0.557,0.112 -0.759,0.319l-5.958,5.962l-5.981,-5.973c-0.202,-0.199 -0.47,-0.308 -0.754,-0.308c-0.591,0 -1.069,0.479 -1.069,1.069c0,0.288 0.115,0.56 0.32,0.762l5.961,5.969l-5.958,5.973c-0.209,0.208 -0.324,0.479 -0.324,0.767c0,0.591 0.479,1.07 1.069,1.07c0.285,0 0.552,-0.109 0.754,-0.311l5.973,-5.977l5.95,5.953c0.212,0.218 0.482,0.335 0.775,0.335c0.588,0 1.067,-0.479 1.067,-1.07c0,-0.285 -0.109,-0.552 -0.311,-0.755l-5.958,-5.983l0.001,0.006Zm35.438,-0.002c0,1.073 0.871,1.944 1.944,1.944c1.067,0 1.938,-0.871 1.938,-1.944c0,-1.073 -0.871,-1.944 -1.94,-1.944c-1.069,0 -1.938,0.871 -1.938,1.944l-0.005,0Zm-3.679,0c0,-3.103 2.52,-5.631 5.622,-5.631c3.096,0 5.62,2.528 5.62,5.631c0,3.103 -2.523,5.631 -5.62,5.631c-3.1,0 -5.622,-2.525 -5.622,-5.631Zm-2.212,0c0,4.324 3.516,7.846 7.834,7.846c4.318,0 7.834,-3.519 7.834,-7.845c0,-4.324 -3.516,-7.846 -7.834,-7.846c-4.32,0 -7.834,3.52 -7.834,7.846l0,-0.002Zm-0.555,-7.711l-0.327,0c-0.988,0 -1.94,0.311 -2.735,0.926c-0.109,-0.476 -0.538,-0.84 -1.048,-0.84c-0.587,0 -1.058,0.474 -1.058,1.064l0.003,13.215c0,0.587 0.482,1.064 1.066,1.064c0.588,0 1.067,-0.478 1.069,-1.067l0,-8.126c0,-2.707 0.249,-3.802 2.564,-4.091c0.218,-0.027 0.448,-0.022 0.451,-0.022c0.632,-0.023 1.083,-0.46 1.083,-1.05c0,-0.591 -0.482,-1.07 -1.074,-1.07l0.006,-0.002Zm-20.512,6.421c0,-0.031 0.003,-0.062 0.005,-0.09c0.619,-2.458 2.841,-4.273 5.484,-4.273c2.676,0 4.916,1.857 5.507,4.359l-10.996,0l0.001,0.005Zm13.18,-0.202c-0.46,-2.182 -1.653,-3.976 -3.469,-5.127c-2.657,-1.689 -6.163,-1.596 -8.727,0.233c-2.094,1.489 -3.302,3.928 -3.302,6.44c0,0.63 0.078,1.266 0.233,1.893c0.79,3.111 3.463,5.469 6.649,5.86c0.946,0.115 1.867,0.062 2.816,-0.187c0.821,-0.202 1.613,-0.532 2.343,-1.002c0.757,-0.487 1.391,-1.131 2.007,-1.901c0.009,-0.015 0.022,-0.026 0.034,-0.042c0.426,-0.529 0.347,-1.285 -0.12,-1.643c-0.395,-0.303 -1.058,-0.426 -1.577,0.243c-0.112,0.162 -0.238,0.327 -0.373,0.49c-0.415,0.459 -0.93,0.902 -1.546,1.247c-0.787,0.42 -1.68,0.658 -2.629,0.664c-3.108,-0.036 -4.769,-2.209 -5.362,-3.758c-0.103,-0.291 -0.182,-0.591 -0.238,-0.902l-0.016,-0.164l11.153,0c1.528,-0.034 2.349,-1.115 2.122,-2.349l0.003,0.003Z" style="fill:#fff;fill-rule:nonzero;"/></g></g></g></svg>