<?xml version="1.0" encoding="UTF-8" standalone="no"?>
<!DOCTYPE svg PUBLIC "-//W3C//DTD SVG 1.1//EN" "http://www.w3.org/Graphics/SVG/1.1/DTD/svg11.dtd">
<svg width="100%" height="100%" viewBox="0 0 379 379" version="1.1" xmlns="http://www.w3.org/2000/svg" xmlns:xlink="http://www.w3.org/1999/xlink" xml:space="preserve" xmlns:serif="http://www.serif.com/" style="fill-rule:evenodd;clip-rule:evenodd;stroke-linejoin:round;stroke-miterlimit:0.73;">
    <g>
        <g>
            <path d="M378.185,132.516L378.185,245.902C378.185,318.911 318.911,378.185 245.902,378.185L132.516,378.185C59.507,378.185 0.232,318.911 0.232,245.902L0.232,132.516C0.232,59.507 59.507,0.232 132.516,0.232L245.902,0.232C318.911,0.232 378.185,59.507 378.185,132.516Z" style="fill:white;stroke:white;stroke-width:0.46px;"/>
        </g>
        <g>
            <path d="M87.821,156.313L87.821,246.843C87.821,252.737 83.036,257.523 77.142,257.523L55.783,257.523C49.889,257.523 45.104,252.737 45.104,246.843L45.104,156.313C45.104,150.419 49.889,145.634 55.783,145.634L77.142,145.634C83.036,145.634 87.821,150.419 87.821,156.313Z" style="fill:rgb(1,54,124);"/>
            <path d="M169.652,156.313L169.652,246.843C169.652,252.737 164.867,257.523 158.973,257.523L137.614,257.523C131.72,257.523 126.935,252.737 126.935,246.843L126.935,156.313C126.935,150.419 131.72,145.634 137.614,145.634L158.973,145.634C164.867,145.634 169.652,150.419 169.652,156.313Z" style="fill:rgb(1,54,124);"/>
            <path d="M251.483,156.313L251.483,246.843C251.483,252.737 246.698,257.523 240.804,257.523L219.445,257.523C213.551,257.523 208.766,252.737 208.766,246.843L208.766,156.313C208.766,150.419 213.551,145.634 219.445,145.634L240.804,145.634C246.698,145.634 251.483,150.419 251.483,156.313Z" style="fill:rgb(1,54,124);"/>
            <path d="M333.314,156.313L333.314,246.843C333.314,252.737 328.528,257.523 322.634,257.523L301.276,257.523C295.382,257.523 290.597,252.737 290.597,246.843L290.597,156.313C290.597,150.419 295.382,145.634 301.276,145.634L322.634,145.634C328.528,145.634 333.314,150.419 333.314,156.313Z" style="fill:rgb(1,54,124);"/>
            <path d="M185.335,6.982C187.683,5.425 190.735,5.425 193.082,6.982C213.787,20.71 312.031,85.851 354.272,113.86C356.849,115.568 358.002,118.764 357.11,121.724C356.218,124.685 353.491,126.711 350.399,126.711L28.019,126.711C24.927,126.711 22.2,124.685 21.308,121.724C20.415,118.764 21.568,115.568 24.145,113.86C66.387,85.851 164.631,20.71 185.335,6.982Z" style="fill:rgb(1,54,124);"/>
            <path d="M342.606,282.26L342.606,299.727C342.606,304.547 338.693,308.46 333.873,308.46L44.545,308.46C39.725,308.46 35.811,304.547 35.811,299.727L35.811,282.26C35.811,277.44 39.725,273.527 44.545,273.527L333.873,273.527C338.693,273.527 342.606,277.44 342.606,282.26Z" style="fill:rgb(1,54,124);"/>
            <path d="M343.033,318.873L343.033,323.717C343.033,325.054 341.947,326.14 340.611,326.14L38.66,326.14C37.323,326.14 36.238,325.054 36.238,323.717L36.238,318.873C36.238,317.536 37.323,316.45 38.66,316.45L340.611,316.45C341.947,316.45 343.033,317.536 343.033,318.873Z" style="fill:rgb(126,211,79);"/>
            <circle cx="189.209" cy="75.812" r="31.83" style="fill:white;"/>
            <path d="M202.446,83.495C202.446,85.276 201.991,86.946 201.081,88.505C200.171,90.064 198.832,91.348 197.063,92.359C195.295,93.37 193.209,93.961 190.805,94.132L190.805,98.294L187.509,98.294L187.509,94.081C184.075,93.772 181.311,92.736 179.217,90.972C177.122,89.207 176.041,86.818 175.972,83.803L183.698,83.803C183.904,86.27 185.174,87.76 187.509,88.274L187.509,78.458C185.037,77.842 183.045,77.225 181.535,76.608C180.024,75.992 178.719,74.998 177.62,73.628C176.521,72.258 175.972,70.39 175.972,68.027C175.972,65.046 177.045,62.614 179.191,60.729C181.337,58.845 184.11,57.766 187.509,57.492L187.509,53.329L190.805,53.329L190.805,57.492C194.102,57.766 196.737,58.759 198.712,60.472C200.686,62.185 201.793,64.549 202.034,67.564L194.256,67.564C194.153,66.571 193.801,65.705 193.2,64.969C192.6,64.232 191.801,63.71 190.805,63.402L190.805,73.114C193.381,73.765 195.415,74.39 196.909,74.99C198.403,75.589 199.699,76.566 200.797,77.919C201.896,79.272 202.446,81.131 202.446,83.495ZM183.492,67.667C183.492,68.797 183.835,69.714 184.522,70.416C185.209,71.118 186.204,71.692 187.509,72.138L187.509,63.247C186.273,63.419 185.294,63.881 184.573,64.635C183.852,65.389 183.492,66.399 183.492,67.667ZM190.805,88.376C192.11,88.137 193.132,87.606 193.87,86.783C194.608,85.961 194.977,84.968 194.977,83.803C194.977,82.672 194.617,81.764 193.896,81.079C193.175,80.394 192.145,79.829 190.805,79.383L190.805,88.376Z" style="fill:rgb(126,211,79);fill-rule:nonzero;"/>
        </g>
    </g>
</svg>
