<?xml version="1.0" encoding="UTF-8" standalone="no"?>
<!DOCTYPE svg PUBLIC "-//W3C//DTD SVG 1.1//EN" "http://www.w3.org/Graphics/SVG/1.1/DTD/svg11.dtd">
<svg width="100%" height="100%" viewBox="0 0 125 125" version="1.1" xmlns="http://www.w3.org/2000/svg" xmlns:xlink="http://www.w3.org/1999/xlink" xml:space="preserve" xmlns:serif="http://www.serif.com/" style="fill-rule:evenodd;clip-rule:evenodd;stroke-linejoin:round;stroke-miterlimit:2;">
    <g transform="matrix(0.05,0,0,0.05,62.5,62.5)">
        <g id="zoho-1" transform="matrix(1,0,0,1,-1250,-432)">
            <path d="M2499.63,184.027L2499.63,776.624L2417.62,856.678L2417.62,276.773L2499.63,184.027Z" style="fill:rgb(231,146,37);fill-rule:nonzero;"/>
            <path d="M1962.19,184.515L1877.25,276.773L1881.65,282.631L2414.2,280.678L2419.09,276.773L2499.63,184.027L1962.19,184.515Z" style="fill:rgb(255,241,109);fill-rule:nonzero;"/>
            <g transform="matrix(1,0,0,1,1874.44,180.61)">
                <rect x="2.814" y="96.163" width="541.831" height="580.393" style="fill:url(#_Linear1);fill-rule:nonzero;"/>
            </g>
            <path d="M2336.59,485.695C2325.85,458.847 2309.74,434.441 2288.75,413.451C2268.74,392.949 2246.28,377.329 2220.9,367.078C2196.01,356.827 2169.16,351.458 2139.87,351.458C2110.58,351.458 2083.25,356.827 2058.35,367.078C2032.97,377.329 2010.52,392.949 1990.5,413.451C1969.51,434.441 1953.89,458.847 1943.15,485.695C1932.41,512.542 1927.53,541.831 1927.53,574.047C1927.53,605.288 1932.9,634.576 1943.64,661.912C1954.38,689.247 1970,713.654 1990.99,735.132C2010.52,755.146 2032.97,770.278 2057.86,780.529C2082.76,790.78 2110.58,796.149 2140.36,796.149C2169.16,796.149 2196.01,790.78 2220.9,780.529C2245.8,770.278 2268.74,755.146 2288.75,735.132C2309.74,713.654 2325.85,689.247 2336.59,662.4C2347.33,635.553 2352.7,605.776 2352.7,574.536C2352.7,541.831 2347.33,512.542 2336.59,485.695ZM2224.81,677.044C2203.82,701.939 2175.99,714.631 2139.87,714.631C2103.75,714.631 2075.44,701.939 2054.45,677.044C2033.46,652.149 2023.21,617.492 2023.21,573.559C2023.21,528.651 2033.95,493.993 2054.45,468.61C2075.44,443.227 2103.26,431.024 2139.87,431.024C2175.99,431.024 2203.82,443.715 2224.81,468.61C2245.31,493.993 2256.05,528.651 2256.05,573.559C2256.05,617.492 2245.8,652.149 2224.81,677.044Z" style="fill:white;fill-rule:nonzero;"/>
            <g>
                <path d="M1824.05,135.702L1824.05,138.631L1893.36,671.186L1852.85,783.458L1847.48,779.553L1776.21,268.963L1777.67,262.129L1822.1,138.631L1824.05,135.702Z" style="fill:rgb(0,154,218);fill-rule:nonzero;"/>
                <path d="M1290.52,209.898L1824.05,135.702L1779.14,263.593L1772.79,270.427L1273.92,343.647L1276.36,252.366L1290.52,209.898Z" style="fill:rgb(145,201,237);fill-rule:nonzero;"/>
                <g transform="matrix(1,0,0,1,1254.51,131.797)">
                    <path d="M524.631,131.797L598.339,651.661L72.617,725.369L1.837,223.078L32.59,199.159L524.631,131.797Z" style="fill:url(#_Linear2);fill-rule:nonzero;"/>
                </g>
                <path d="M1689.81,363.173C1687.37,347.064 1682,334.861 1673.21,326.563C1665.89,320.217 1657.11,316.8 1646.85,316.8C1644.41,316.8 1641.49,316.8 1638.56,317.288C1624.89,319.241 1614.64,325.586 1608.29,335.837C1603.41,343.159 1601.46,352.434 1601.46,363.173C1601.46,367.078 1601.95,371.471 1602.43,375.864L1621.47,511.078L1470.15,533.532L1451.11,398.319C1448.67,382.698 1443.3,370.495 1434.52,362.197C1427.19,355.363 1418.41,351.946 1408.64,351.946C1406.2,351.946 1403.76,351.946 1401.32,352.434C1387.17,354.386 1376.43,360.732 1369.59,370.983C1364.71,378.305 1362.76,387.58 1362.76,398.319C1362.76,402.224 1363.25,406.617 1363.74,411.498L1415.48,763.444C1417.92,779.553 1423.29,791.756 1433.05,800.054C1440.37,806.4 1449.16,809.329 1459.9,809.329C1462.83,809.329 1465.76,809.329 1468.68,808.841C1481.86,806.888 1491.63,800.542 1497.97,790.292C1502.37,782.969 1504.32,774.183 1504.32,763.932C1504.32,760.027 1503.83,755.634 1503.34,751.241L1482.35,612.122L1633.67,589.668L1654.66,728.786C1657.11,744.895 1662.48,757.098 1671.75,764.908C1679.07,771.254 1687.86,774.671 1698.11,774.671C1700.55,774.671 1703.48,774.671 1706.41,774.183C1720.08,772.231 1730.33,765.885 1736.67,755.634C1741.06,748.312 1743.51,739.525 1743.51,728.786C1743.51,724.881 1743.02,720.488 1742.53,716.095L1689.81,363.173Z" style="fill:white;fill-rule:nonzero;"/>
            </g>
            <g>
                <path d="M791.153,0L601.268,451.037L627.139,649.22L628.603,648.732L841.919,168.895L840.942,158.644L795.058,6.346L791.153,0Z" style="fill:rgb(102,191,107);fill-rule:nonzero;"/>
                <path d="M791.153,0L840.454,165.478L841.431,168.895L1311.02,379.281L1312.48,378.305L1272.45,220.149L791.153,0Z" style="fill:rgb(152,208,160);fill-rule:nonzero;"/>
                <g transform="matrix(1,0,0,1,600.407,0)">
                    <path d="M240.047,165.478L712.075,378.305L498.759,862.047L26.732,649.22L240.047,165.478Z" style="fill:url(#_Linear3);fill-rule:nonzero;"/>
                </g>
                <path d="M1169.46,417.356C1159.21,390.02 1145.05,366.59 1126.5,347.064C1107.95,327.539 1085.5,311.919 1059.14,300.692C1032.78,289.464 1006.42,284.095 979.573,284.095L978.108,284.095C950.773,284.095 923.925,290.441 897.566,302.156C869.742,314.359 845.824,330.956 825.322,352.922C804.82,374.4 788.224,400.759 775.532,431.024C762.841,460.8 756.007,491.064 754.542,520.841L754.542,531.092C754.542,557.451 758.936,583.322 768.21,608.705C777.973,635.553 792.129,658.495 810.678,678.02C829.227,697.546 852.169,713.166 879.505,724.393C905.376,735.62 931.736,740.99 958.583,740.99L959.071,740.99C985.919,740.99 1012.77,735.132 1039.12,723.905C1066.95,711.702 1091.36,694.617 1111.86,672.651C1132.36,651.173 1149.44,625.302 1162.14,595.037C1174.83,564.773 1181.66,534.997 1183.12,505.22L1183.12,496.434C1183.61,469.586 1179.22,443.227 1169.46,417.356ZM1075.25,557.939C1057.67,599.919 1033.76,628.719 1004.96,644.339C989.336,652.637 973.227,657.031 957.119,657.031C942.963,657.031 927.831,653.614 912.698,647.268C879.505,633.112 859.003,610.658 850.217,578.441C847.288,567.702 845.824,556.475 845.824,544.759C845.824,521.329 851.681,495.458 863.397,467.634C881.458,424.678 905.376,395.39 934.176,379.281C949.797,370.495 965.905,366.59 982.014,366.59C996.658,366.59 1011.3,370.007 1026.92,376.353C1059.63,390.508 1080.13,412.963 1088.91,445.18C1091.84,455.431 1093.31,466.658 1093.31,478.373C1093.31,502.78 1087.45,529.139 1075.25,557.939Z" style="fill:white;fill-rule:nonzero;"/>
            </g>
            <g>
                <path d="M563.681,76.637L640.807,593.085L605.661,774.671L600.78,768.325L525.607,269.451L525.607,259.688L558.8,85.424L563.681,76.637Z" style="fill:rgb(118,13,22);fill-rule:nonzero;"/>
                <path d="M0.373,343.647L36.983,161.085L563.681,76.637L528.047,262.617L528.047,274.82L6.719,348.529L0.373,343.647Z" style="fill:rgb(239,70,62);fill-rule:nonzero;"/>
                <g transform="matrix(1,0,0,1,0,73.2203)">
                    <path d="M528.047,189.397L605.661,701.451L84.332,782.969L0.373,270.427L528.047,189.397Z" style="fill:url(#_Linear4);fill-rule:nonzero;"/>
                </g>
                <path d="M471.912,693.153C468.007,688.271 462.149,684.854 455.315,682.414C448.481,679.973 440.183,678.997 429.932,678.997C420.658,678.997 409.919,679.973 398.203,681.925L260.549,705.356C262.014,694.617 267.383,680.949 276.658,663.864C286.908,644.827 302.529,621.885 322.542,595.525C329.376,586.251 334.746,579.417 338.651,574.536C341.092,571.119 344.997,566.725 349.878,560.38C381.607,518.888 400.644,485.207 408.454,458.847C412.847,443.715 415.288,428.583 416.264,413.451C416.753,409.058 416.753,405.153 416.753,401.247C416.753,390.508 415.776,379.769 413.824,369.031C412.359,359.268 409.919,351.458 406.502,345.112C403.085,338.766 399.18,333.885 394.298,330.956C388.929,327.539 380.631,326.075 370.38,326.075C362.081,326.075 351.831,327.051 339.627,329.003L180.495,356.339C161.458,359.756 146.814,365.125 138.027,373.912C130.705,380.746 127.288,389.532 127.288,399.295C127.288,401.736 127.288,404.664 127.776,407.593C130.217,421.261 137.051,431.024 148.278,435.905C155.112,438.834 162.922,440.298 172.685,440.298C179.031,440.298 186.353,439.81 194.163,438.346L326.936,414.915C326.936,417.356 327.424,419.797 327.424,421.749C327.424,430.047 325.959,438.346 323.031,446.156C319.125,457.383 309.363,473.003 293.254,493.017C288.861,498.386 282.027,507.173 272.753,518.4C236.631,561.844 211.247,598.942 195.627,629.695C184.4,651.173 177.078,671.675 172.685,692.664C170.244,704.868 168.78,716.095 168.78,727.322C168.78,735.132 169.268,742.942 170.732,750.264C172.685,761.003 175.125,769.79 178.542,776.624C181.959,783.458 186.841,788.827 192.21,791.756C197.58,794.685 204.902,795.661 215.641,795.661C228.82,795.661 246.881,793.708 269.824,789.803L414.312,764.908C439.695,760.515 457.756,754.169 468.007,745.871C476.305,739.037 480.698,729.763 480.698,719.024C480.698,716.095 480.21,713.166 479.722,710.237C478.746,703.892 476.305,698.034 471.912,693.153Z" style="fill:white;fill-rule:nonzero;"/>
            </g>
        </g>
        <g id="zoho-11" serif:id="zoho-1">
        </g>
    </g>
    <defs>
        <linearGradient id="_Linear1" x1="0" y1="0" x2="1" y2="0" gradientUnits="userSpaceOnUse" gradientTransform="matrix(3.39574e-14,554.566,-554.566,3.39574e-14,273.707,104.468)"><stop offset="0" style="stop-color:rgb(255,229,19);stop-opacity:1"/><stop offset="0.01" style="stop-color:rgb(255,229,19);stop-opacity:1"/><stop offset="1" style="stop-color:rgb(253,185,36);stop-opacity:1"/></linearGradient>
        <linearGradient id="_Linear2" x1="0" y1="0" x2="1" y2="0" gradientUnits="userSpaceOnUse" gradientTransform="matrix(543.771,436.692,-436.692,543.771,28.7514,211.893)"><stop offset="0" style="stop-color:rgb(0,140,210);stop-opacity:1"/><stop offset="0.01" style="stop-color:rgb(0,140,210);stop-opacity:1"/><stop offset="1" style="stop-color:rgb(0,100,157);stop-opacity:1"/></linearGradient>
        <linearGradient id="_Linear3" x1="0" y1="0" x2="1" y2="0" gradientUnits="userSpaceOnUse" gradientTransform="matrix(2.97502e-14,485.857,-485.857,2.97502e-14,369.417,358.978)"><stop offset="0" style="stop-color:rgb(38,161,70);stop-opacity:1"/><stop offset="1" style="stop-color:rgb(0,138,82);stop-opacity:1"/></linearGradient>
        <linearGradient id="_Linear4" x1="0" y1="0" x2="1" y2="0" gradientUnits="userSpaceOnUse" gradientTransform="matrix(83.5903,504.478,-504.478,83.5903,265.09,238.117)"><stop offset="0" style="stop-color:rgb(217,34,49);stop-opacity:1"/><stop offset="1" style="stop-color:rgb(186,34,52);stop-opacity:1"/></linearGradient>
    </defs>
</svg>
