<?xml version="1.0" encoding="UTF-8" standalone="no"?><!DOCTYPE svg PUBLIC "-//W3C//DTD SVG 1.1//EN" "http://www.w3.org/Graphics/SVG/1.1/DTD/svg11.dtd"><svg width="100%" height="100%" viewBox="0 0 125 125" version="1.1" xmlns="http://www.w3.org/2000/svg" xmlns:xlink="http://www.w3.org/1999/xlink" xml:space="preserve" xmlns:serif="http://www.serif.com/" style="fill-rule:evenodd;clip-rule:evenodd;stroke-linejoin:round;stroke-miterlimit:2;"><g><path d="M55.92,78.125c-0.94,0 -1.892,-0.195 -2.807,-0.598l-19.531,-8.704c-3.492,-1.55 -5.066,-5.664 -3.516,-9.155l8.704,-19.531c1.55,-3.491 5.664,-5.066 9.155,-3.516l19.531,8.704c3.491,1.55 5.066,5.664 3.516,9.155l-8.704,19.531c-1.16,2.588 -3.699,4.114 -6.348,4.114Zm-1.184,-4.26c1.477,0.659 3.211,-0.012 3.87,-1.477l8.704,-19.532c0.659,-1.477 -0.013,-3.21 -1.477,-3.869l-19.544,-8.704c-1.477,-0.659 -3.21,0.012 -3.87,1.477l-8.703,19.532c-0.659,1.477 0.012,3.21 1.477,3.869l19.543,8.704Z" style="fill:#089949;fill-rule:nonzero;"/><path d="M117.187,78.137l-21.386,0c-3.821,0 -6.934,-3.113 -6.934,-6.933l0,-21.387c0,-3.821 3.113,-6.934 6.934,-6.934l21.386,0c3.821,0 6.934,3.113 6.934,6.934l0,21.387c0,3.82 -3.113,6.933 -6.934,6.933Zm-21.386,-31.25c-1.612,0 -2.93,1.319 -2.93,2.93l0,21.387c0,1.611 1.318,2.929 2.93,2.929l21.386,0c1.612,0 2.93,-1.318 2.93,-2.929l0,-21.387c0,-1.611 -1.318,-2.93 -2.93,-2.93l-21.386,0Z" style="fill:#f9b21d;fill-rule:nonzero;"/><path d="M37.097,53.735l-2.881,6.446c-0.036,0.073 -0.073,0.134 -0.11,0.195l1.123,6.934c0.257,1.599 -0.83,3.1 -2.416,3.357l-21.119,3.417c-0.769,0.123 -1.55,-0.061 -2.185,-0.512c-0.634,-0.452 -1.05,-1.135 -1.172,-1.905l-3.418,-21.118c-0.122,-0.769 0.061,-1.55 0.513,-2.185c0.452,-0.635 1.135,-1.05 1.904,-1.172l21.119,-3.418c0.158,-0.024 0.317,-0.036 0.463,-0.036c1.404,0 2.662,1.025 2.894,2.466l1.135,6.982l2.978,-6.677l-0.158,-0.94c-0.611,-3.772 -4.175,-6.348 -7.947,-5.737l-21.118,3.418c-1.819,0.28 -3.431,1.269 -4.505,2.771c-1.086,1.501 -1.513,3.332 -1.22,5.163l3.418,21.118c0.293,1.831 1.281,3.43 2.783,4.517c1.184,0.867 2.588,1.306 4.04,1.306c0.366,0 0.745,-0.024 1.123,-0.085l21.118,-3.418c3.772,-0.611 6.348,-4.175 5.738,-7.947l-2.1,-12.94Z" style="fill:#e42527;fill-rule:nonzero;"/><path d="M62.427,63.818l3.1,-6.945l-0.879,-6.458c-0.109,-0.769 0.098,-1.538 0.574,-2.161c0.476,-0.622 1.16,-1.025 1.941,-1.123l21.191,-2.881c0.135,-0.012 0.269,-0.024 0.403,-0.024c0.635,0 1.245,0.208 1.77,0.598c0.098,0.073 0.183,0.159 0.269,0.232c0.94,-0.989 2.173,-1.697 3.552,-2.002c-0.39,-0.537 -0.854,-1.013 -1.404,-1.428c-1.477,-1.123 -3.296,-1.599 -5.127,-1.355l-21.215,2.881c-1.831,0.244 -3.467,1.196 -4.578,2.673c-1.123,1.477 -1.599,3.296 -1.355,5.127l1.758,12.866Z" style="fill:#226db4;fill-rule:nonzero;"/><path d="M98.486,67.395l-2.783,-20.508c-1.562,0.049 -2.82,1.343 -2.82,2.918l0,6.018l1.648,12.109c0.11,0.769 -0.097,1.538 -0.573,2.161c-0.477,0.622 -1.16,1.025 -1.941,1.123l-21.192,2.881c-0.769,0.11 -1.538,-0.098 -2.16,-0.574c-0.623,-0.476 -1.026,-1.16 -1.123,-1.941l-0.977,-7.19l-3.101,6.946l0.11,0.781c0.244,1.831 1.197,3.467 2.674,4.578c1.22,0.928 2.673,1.416 4.187,1.416c0.317,0 0.634,-0.025 0.952,-0.061l21.167,-2.857c1.831,-0.244 3.467,-1.196 4.577,-2.673c1.123,-1.477 1.599,-3.296 1.355,-5.127Z" style="fill:#226db4;fill-rule:nonzero;"/><path d="M80.005,85.767c0,-1.831 1.343,-3.15 3.174,-3.15c1.892,0 3.174,1.294 3.174,3.162c0,1.892 -1.307,3.198 -3.199,3.198c-1.904,0 -3.149,-1.306 -3.149,-3.21Zm4.883,0.024c0,-1.111 -0.537,-2.063 -1.746,-2.063c-1.221,0 -1.684,0.989 -1.684,2.112c0,1.062 0.573,2.038 1.745,2.038c1.209,-0.012 1.685,-1.049 1.685,-2.087Zm-18.421,-3.076l0.904,0c0.134,0 0.244,0.11 0.244,0.244l0,2.27l2.563,0l0,-2.27c0,-0.134 0.11,-0.244 0.244,-0.244l0.904,0c0.134,0 0.244,0.11 0.244,0.244l0,5.676c0,0.135 -0.11,0.244 -0.244,0.244l-0.891,0c-0.135,0 -0.245,-0.109 -0.245,-0.244l0,-2.295l-2.563,0l0,2.295c0,0.135 -0.11,0.244 -0.244,0.244l-0.904,0c-0.134,0 -0.244,-0.109 -0.244,-0.244l0,-5.676c-0.012,-0.134 0.098,-0.244 0.232,-0.244Zm-15.027,3.052c0,-1.831 1.343,-3.15 3.174,-3.15c1.892,0 3.174,1.294 3.174,3.162c0,1.892 -1.306,3.198 -3.198,3.198c-1.904,0 -3.15,-1.306 -3.15,-3.21Zm4.895,0.024c0,-1.111 -0.537,-2.063 -1.745,-2.063c-1.221,0 -1.685,0.989 -1.685,2.112c0,1.062 0.574,2.038 1.746,2.038c1.208,-0.012 1.684,-1.049 1.684,-2.087Zm-17.639,2.49l3.028,-4.468l-2.491,0c-0.134,0 -0.244,-0.109 -0.244,-0.244l0,-0.598c0,-0.134 0.11,-0.244 0.244,-0.244l4.09,0c0.134,0 0.244,0.11 0.244,0.244l0,0.232c0,0.049 -0.012,0.098 -0.037,0.134l-2.966,4.468l2.661,0c0.134,0 0.244,0.11 0.244,0.244l0,0.598c0,0.135 -0.11,0.245 -0.244,0.245l-4.321,0c-0.134,0 -0.244,-0.11 -0.244,-0.245l0,-0.219c-0.013,-0.061 0.012,-0.11 0.036,-0.147Z" style="fill-rule:nonzero;"/><g id="ZOHO_logo_2023"></g></g></svg>